<?xml version="1.0" encoding="UTF-8" standalone="no"?>
<!DOCTYPE svg PUBLIC "-//W3C//DTD SVG 1.1//EN"
 "http://www.w3.org/Graphics/SVG/1.1/DTD/svg11.dtd">
<!-- Generated by graphviz version 12.2.0 (20241103.1931)
 -->
<!-- Title: Data.HashFunction.FarmHash.FarmHashFingerprint64_Implementation.ComputeHash65Plus Pages: 1 -->
<svg width="684pt" height="264pt"
 viewBox="0.00 0.00 683.75 264.00" xmlns="http://www.w3.org/2000/svg" xmlns:xlink="http://www.w3.org/1999/xlink">
<g id="graph0" class="graph" transform="scale(1 1) rotate(0) translate(4 260)">
<title>Data.HashFunction.FarmHash.FarmHashFingerprint64_Implementation.ComputeHash65Plus</title>
<!-- Node1 -->
<g id="Node000001" class="node">
<title>Node1</title>
<g id="a_Node000001"><a xlink:title=" ">
<polygon fill="#999999" stroke="#666666" points="193,-156 0,-156 0,-112 193,-112 193,-156"/>
<text text-anchor="start" x="8" y="-142.5" font-family="Helvetica,sans-Serif" font-size="10.00">Data.HashFunction.FarmHash.</text>
<text text-anchor="start" x="8" y="-130.5" font-family="Helvetica,sans-Serif" font-size="10.00">FarmHashFingerprint64_Implementation.</text>
<text text-anchor="middle" x="96.5" y="-118.5" font-family="Helvetica,sans-Serif" font-size="10.00">ComputeHash65Plus</text>
</a>
</g>
</g>
<!-- Node2 -->
<g id="Node000002" class="node">
<title>Node2</title>
<g id="a_Node000002"><a xlink:href="class_data_1_1_hash_function_1_1_farm_hash_1_1_farm_hash_fingerprint64___implementation.html#a35cf46665f8556a179e97dede39e84e6" target="_top" xlink:title=" ">
<polygon fill="white" stroke="#666666" points="434.38,-256 241.38,-256 241.38,-212 434.38,-212 434.38,-256"/>
<text text-anchor="start" x="249.38" y="-242.5" font-family="Helvetica,sans-Serif" font-size="10.00">Data.HashFunction.FarmHash.</text>
<text text-anchor="start" x="249.38" y="-230.5" font-family="Helvetica,sans-Serif" font-size="10.00">FarmHashFingerprint64_Implementation.</text>
<text text-anchor="middle" x="337.88" y="-218.5" font-family="Helvetica,sans-Serif" font-size="10.00">ComputeHash16</text>
</a>
</g>
</g>
<!-- Node1&#45;&gt;Node2 -->
<g id="edge1_Node000001_Node000002" class="edge">
<title>Node1&#45;&gt;Node2</title>
<g id="a_edge1_Node000001_Node000002"><a xlink:title=" ">
<path fill="none" stroke="#63b8ff" d="M140.09,-156.49C165.52,-169.47 198.68,-185.62 229,-198 237.25,-201.37 245.95,-204.67 254.68,-207.82"/>
<polygon fill="#63b8ff" stroke="#63b8ff" points="253.29,-211.04 263.88,-211.08 255.62,-204.44 253.29,-211.04"/>
</a>
</g>
</g>
<!-- Node3 -->
<g id="Node000003" class="node">
<title>Node3</title>
<g id="a_Node000003"><a xlink:href="class_data_1_1_hash_function_1_1_farm_hash_1_1_farm_hash_fingerprint64___implementation.html#af606f9f98b6589db379a67cc58089b4c" target="_top" xlink:title=" ">
<polygon fill="white" stroke="#666666" points="675.75,-125 482.75,-125 482.75,-81 675.75,-81 675.75,-125"/>
<text text-anchor="start" x="490.75" y="-111.5" font-family="Helvetica,sans-Serif" font-size="10.00">Data.HashFunction.FarmHash.</text>
<text text-anchor="start" x="490.75" y="-99.5" font-family="Helvetica,sans-Serif" font-size="10.00">FarmHashFingerprint64_Implementation.</text>
<text text-anchor="middle" x="579.25" y="-87.5" font-family="Helvetica,sans-Serif" font-size="10.00">RotateRight</text>
</a>
</g>
</g>
<!-- Node1&#45;&gt;Node3 -->
<g id="edge2_Node000001_Node000003" class="edge">
<title>Node1&#45;&gt;Node3</title>
<g id="a_edge2_Node000001_Node000003"><a xlink:title=" ">
<path fill="none" stroke="#63b8ff" d="M179.76,-156.47C195.96,-160.02 212.92,-163.13 229,-165 325.13,-176.18 352.31,-186.15 446.75,-165 476.6,-158.32 507.66,-144.07 532.09,-130.91"/>
<polygon fill="#63b8ff" stroke="#63b8ff" points="533.74,-134 540.81,-126.1 530.36,-127.87 533.74,-134"/>
</a>
</g>
</g>
<!-- Node4 -->
<g id="Node000004" class="node">
<title>Node4</title>
<g id="a_Node000004"><a xlink:href="class_data_1_1_hash_function_1_1_farm_hash_1_1_farm_hash_fingerprint64___implementation.html#abf8db1e285ec3425e5047bf89173407d" target="_top" xlink:title=" ">
<polygon fill="white" stroke="#666666" points="434.38,-156 241.38,-156 241.38,-112 434.38,-112 434.38,-156"/>
<text text-anchor="start" x="249.38" y="-142.5" font-family="Helvetica,sans-Serif" font-size="10.00">Data.HashFunction.FarmHash.</text>
<text text-anchor="start" x="249.38" y="-130.5" font-family="Helvetica,sans-Serif" font-size="10.00">FarmHashFingerprint64_Implementation.</text>
<text text-anchor="middle" x="337.88" y="-118.5" font-family="Helvetica,sans-Serif" font-size="10.00">ShiftMix</text>
</a>
</g>
</g>
<!-- Node1&#45;&gt;Node4 -->
<g id="edge3_Node000001_Node000004" class="edge">
<title>Node1&#45;&gt;Node4</title>
<g id="a_edge3_Node000001_Node000004"><a xlink:title=" ">
<path fill="none" stroke="#63b8ff" d="M193.48,-134C205.53,-134 217.92,-134 230.12,-134"/>
<polygon fill="#63b8ff" stroke="#63b8ff" points="229.75,-137.5 239.75,-134 229.75,-130.5 229.75,-137.5"/>
</a>
</g>
</g>
<!-- Node5 -->
<g id="Node000005" class="node">
<title>Node5</title>
<g id="a_Node000005"><a xlink:href="class_data_1_1_hash_function_1_1_farm_hash_1_1_farm_hash_fingerprint64___implementation.html#aa648b19b6f141be882067f7d275b645f" target="_top" xlink:title=" ">
<polygon fill="white" stroke="#666666" points="446.75,-94 229,-94 229,-62 446.75,-62 446.75,-94"/>
<text text-anchor="start" x="237" y="-80.5" font-family="Helvetica,sans-Serif" font-size="10.00">Data.HashFunction.FarmHash.</text>
<text text-anchor="middle" x="337.88" y="-68.5" font-family="Helvetica,sans-Serif" font-size="10.00">FarmHashFingerprint64_Implementation.Swap</text>
</a>
</g>
</g>
<!-- Node1&#45;&gt;Node5 -->
<g id="edge4_Node000001_Node000005" class="edge">
<title>Node1&#45;&gt;Node5</title>
<g id="a_edge4_Node000001_Node000005"><a xlink:title=" ">
<path fill="none" stroke="#63b8ff" d="M192.66,-111.52C204.89,-108.65 217.24,-105.75 229,-103 237.36,-101.05 246.08,-99.01 254.79,-96.99"/>
<polygon fill="#63b8ff" stroke="#63b8ff" points="255.36,-100.45 264.31,-94.78 253.78,-93.63 255.36,-100.45"/>
</a>
</g>
</g>
<!-- Node6 -->
<g id="Node000006" class="node">
<title>Node6</title>
<g id="a_Node000006"><a xlink:href="class_data_1_1_hash_function_1_1_farm_hash_1_1_farm_hash_fingerprint64___implementation.html#a8e4491cc5ce3075985c959537a3cbd04" target="_top" xlink:title=" ">
<polygon fill="white" stroke="#666666" points="434.38,-44 241.38,-44 241.38,0 434.38,0 434.38,-44"/>
<text text-anchor="start" x="249.38" y="-30.5" font-family="Helvetica,sans-Serif" font-size="10.00">Data.HashFunction.FarmHash.</text>
<text text-anchor="start" x="249.38" y="-18.5" font-family="Helvetica,sans-Serif" font-size="10.00">FarmHashFingerprint64_Implementation.</text>
<text text-anchor="middle" x="337.88" y="-6.5" font-family="Helvetica,sans-Serif" font-size="10.00">WeakHashLen32WithSeeds</text>
</a>
</g>
</g>
<!-- Node1&#45;&gt;Node6 -->
<g id="edge5_Node000001_Node000006" class="edge">
<title>Node1&#45;&gt;Node6</title>
<g id="a_edge5_Node000001_Node000006"><a xlink:title=" ">
<path fill="none" stroke="#63b8ff" d="M128.32,-111.66C154.16,-93.77 192.58,-69.09 229,-53 232.58,-51.42 236.27,-49.89 240.02,-48.42"/>
<polygon fill="#63b8ff" stroke="#63b8ff" points="241.16,-51.73 249.31,-44.97 238.72,-45.17 241.16,-51.73"/>
</a>
</g>
</g>
<!-- Node6&#45;&gt;Node3 -->
<g id="edge6_Node000006_Node000003" class="edge">
<title>Node6&#45;&gt;Node3</title>
<g id="a_edge6_Node000006_Node000003"><a xlink:title=" ">
<path fill="none" stroke="#63b8ff" d="M419.8,-44.46C428.93,-47.23 438.06,-50.11 446.75,-53 468.06,-60.1 491.03,-68.55 511.72,-76.47"/>
<polygon fill="#63b8ff" stroke="#63b8ff" points="510.31,-79.67 520.9,-80 512.82,-73.14 510.31,-79.67"/>
</a>
</g>
</g>
</g>
</svg>
