<?xml version="1.0" encoding="UTF-8" standalone="no"?>
<!DOCTYPE svg PUBLIC "-//W3C//DTD SVG 1.1//EN"
 "http://www.w3.org/Graphics/SVG/1.1/DTD/svg11.dtd">
<!-- Generated by graphviz version 12.2.0 (20241103.1931)
 -->
<!-- Title: Data.HashFunction.FarmHash.FarmHashFingerprint32_Implementation.FMix Pages: 1 -->
<svg width="681pt" height="176pt"
 viewBox="0.00 0.00 680.75 176.00" xmlns="http://www.w3.org/2000/svg" xmlns:xlink="http://www.w3.org/1999/xlink">
<g id="graph0" class="graph" transform="scale(1 1) rotate(0) translate(4 172)">
<title>Data.HashFunction.FarmHash.FarmHashFingerprint32_Implementation.FMix</title>
<!-- Node1 -->
<g id="Node000001" class="node">
<title>Node1</title>
<g id="a_Node000001"><a xlink:title=" ">
<polygon fill="#999999" stroke="#666666" points="672.75,-100 458,-100 458,-68 672.75,-68 672.75,-100"/>
<text text-anchor="start" x="466" y="-86.5" font-family="Helvetica,sans-Serif" font-size="10.00">Data.HashFunction.FarmHash.</text>
<text text-anchor="middle" x="565.38" y="-74.5" font-family="Helvetica,sans-Serif" font-size="10.00">FarmHashFingerprint32_Implementation.FMix</text>
</a>
</g>
</g>
<!-- Node2 -->
<g id="Node000002" class="node">
<title>Node2</title>
<g id="a_Node000002"><a xlink:href="class_data_1_1_hash_function_1_1_farm_hash_1_1_farm_hash_fingerprint32___implementation.html#a88ef8742f9a89f23d9bbbd777d8933dd" target="_top" xlink:title=" ">
<polygon fill="white" stroke="#666666" points="422,-168 229,-168 229,-124 422,-124 422,-168"/>
<text text-anchor="start" x="237" y="-154.5" font-family="Helvetica,sans-Serif" font-size="10.00">Data.HashFunction.FarmHash.</text>
<text text-anchor="start" x="237" y="-142.5" font-family="Helvetica,sans-Serif" font-size="10.00">FarmHashFingerprint32_Implementation.</text>
<text text-anchor="middle" x="325.5" y="-130.5" font-family="Helvetica,sans-Serif" font-size="10.00">ComputeHash0To4</text>
</a>
</g>
</g>
<!-- Node1&#45;&gt;Node2 -->
<g id="edge1_Node000001_Node000002" class="edge">
<title>Node1&#45;&gt;Node2</title>
<g id="a_edge1_Node000001_Node000002"><a xlink:title=" ">
<path fill="none" stroke="#63b8ff" d="M490.2,-103.33C465.66,-109.73 438.13,-116.9 412.76,-123.52"/>
<polygon fill="#63b8ff" stroke="#63b8ff" points="490.99,-106.74 499.79,-100.83 489.23,-99.97 490.99,-106.74"/>
</a>
</g>
</g>
<!-- Node4 -->
<g id="Node000004" class="node">
<title>Node4</title>
<g id="a_Node000004"><a xlink:href="class_data_1_1_hash_function_1_1_farm_hash_1_1_farm_hash_fingerprint32___implementation.html#a473b3c4fa0816ff5e7ce6392676a5e41" target="_top" xlink:title=" ">
<polygon fill="white" stroke="#666666" points="422,-106 229,-106 229,-62 422,-62 422,-106"/>
<text text-anchor="start" x="237" y="-92.5" font-family="Helvetica,sans-Serif" font-size="10.00">Data.HashFunction.FarmHash.</text>
<text text-anchor="start" x="237" y="-80.5" font-family="Helvetica,sans-Serif" font-size="10.00">FarmHashFingerprint32_Implementation.</text>
<text text-anchor="middle" x="325.5" y="-68.5" font-family="Helvetica,sans-Serif" font-size="10.00">ComputeHash13To24</text>
</a>
</g>
</g>
<!-- Node1&#45;&gt;Node4 -->
<g id="edge3_Node000001_Node000004" class="edge">
<title>Node1&#45;&gt;Node4</title>
<g id="a_edge3_Node000001_Node000004"><a xlink:title=" ">
<path fill="none" stroke="#63b8ff" d="M446.31,-84C438.29,-84 430.28,-84 422.4,-84"/>
<polygon fill="#63b8ff" stroke="#63b8ff" points="446.1,-87.5 456.1,-84 446.1,-80.5 446.1,-87.5"/>
</a>
</g>
</g>
<!-- Node5 -->
<g id="Node000005" class="node">
<title>Node5</title>
<g id="a_Node000005"><a xlink:href="class_data_1_1_hash_function_1_1_farm_hash_1_1_farm_hash_fingerprint32___implementation.html#af789b1639bfad6b93d44b84481dcfa68" target="_top" xlink:title=" ">
<polygon fill="white" stroke="#666666" points="422,-44 229,-44 229,0 422,0 422,-44"/>
<text text-anchor="start" x="237" y="-30.5" font-family="Helvetica,sans-Serif" font-size="10.00">Data.HashFunction.FarmHash.</text>
<text text-anchor="start" x="237" y="-18.5" font-family="Helvetica,sans-Serif" font-size="10.00">FarmHashFingerprint32_Implementation.</text>
<text text-anchor="middle" x="325.5" y="-6.5" font-family="Helvetica,sans-Serif" font-size="10.00">ComputeHash5To12</text>
</a>
</g>
</g>
<!-- Node1&#45;&gt;Node5 -->
<g id="edge5_Node000001_Node000005" class="edge">
<title>Node1&#45;&gt;Node5</title>
<g id="a_edge5_Node000001_Node000005"><a xlink:title=" ">
<path fill="none" stroke="#63b8ff" d="M490.2,-64.67C465.66,-58.27 438.13,-51.1 412.76,-44.48"/>
<polygon fill="#63b8ff" stroke="#63b8ff" points="489.23,-68.03 499.79,-67.17 490.99,-61.26 489.23,-68.03"/>
</a>
</g>
</g>
<!-- Node3 -->
<g id="Node000003" class="node">
<title>Node3</title>
<g id="a_Node000003"><a xlink:href="class_data_1_1_hash_function_1_1_farm_hash_1_1_farm_hash_fingerprint32___implementation.html#a13076db1601a07f441694e06ae7120e8" target="_top" xlink:title=" ">
<polygon fill="white" stroke="#666666" points="193,-106 0,-106 0,-62 193,-62 193,-106"/>
<text text-anchor="start" x="8" y="-92.5" font-family="Helvetica,sans-Serif" font-size="10.00">Data.HashFunction.FarmHash.</text>
<text text-anchor="start" x="8" y="-80.5" font-family="Helvetica,sans-Serif" font-size="10.00">FarmHashFingerprint32_Implementation.</text>
<text text-anchor="middle" x="96.5" y="-68.5" font-family="Helvetica,sans-Serif" font-size="10.00">ComputeHashInternal</text>
</a>
</g>
</g>
<!-- Node2&#45;&gt;Node3 -->
<g id="edge2_Node000002_Node000003" class="edge">
<title>Node2&#45;&gt;Node3</title>
<g id="a_edge2_Node000002_Node000003"><a xlink:title=" ">
<path fill="none" stroke="#63b8ff" d="M231.16,-120.51C214.16,-115.86 196.53,-111.05 179.87,-106.5"/>
<polygon fill="#63b8ff" stroke="#63b8ff" points="230.2,-123.87 240.77,-123.13 232.04,-117.12 230.2,-123.87"/>
</a>
</g>
</g>
<!-- Node4&#45;&gt;Node3 -->
<g id="edge4_Node000004_Node000003" class="edge">
<title>Node4&#45;&gt;Node3</title>
<g id="a_edge4_Node000004_Node000003"><a xlink:title=" ">
<path fill="none" stroke="#63b8ff" d="M217.06,-84C209.18,-84 201.26,-84 193.46,-84"/>
<polygon fill="#63b8ff" stroke="#63b8ff" points="217.05,-87.5 227.05,-84 217.05,-80.5 217.05,-87.5"/>
</a>
</g>
</g>
<!-- Node5&#45;&gt;Node3 -->
<g id="edge6_Node000005_Node000003" class="edge">
<title>Node5&#45;&gt;Node3</title>
<g id="a_edge6_Node000005_Node000003"><a xlink:title=" ">
<path fill="none" stroke="#63b8ff" d="M231.16,-47.49C214.16,-52.14 196.53,-56.95 179.87,-61.5"/>
<polygon fill="#63b8ff" stroke="#63b8ff" points="232.04,-50.88 240.77,-44.87 230.2,-44.13 232.04,-50.88"/>
</a>
</g>
</g>
</g>
</svg>
