<?xml version="1.0" encoding="UTF-8" standalone="no"?>
<!DOCTYPE svg PUBLIC "-//W3C//DTD SVG 1.1//EN"
 "http://www.w3.org/Graphics/SVG/1.1/DTD/svg11.dtd">
<!-- Generated by graphviz version 12.2.0 (20241103.1931)
 -->
<!-- Title: Data.HashFunction.CityHash.CityHash_Implementation.Hash64Len33to64 Pages: 1 -->
<svg width="440pt" height="152pt"
 viewBox="0.00 0.00 439.75 152.00" xmlns="http://www.w3.org/2000/svg" xmlns:xlink="http://www.w3.org/1999/xlink">
<g id="graph0" class="graph" transform="scale(1 1) rotate(0) translate(4 148)">
<title>Data.HashFunction.CityHash.CityHash_Implementation.Hash64Len33to64</title>
<!-- Node1 -->
<g id="Node000001" class="node">
<title>Node1</title>
<g id="a_Node000001"><a xlink:title=" ">
<polygon fill="#999999" stroke="#666666" points="211,-88 0,-88 0,-56 211,-56 211,-88"/>
<text text-anchor="start" x="8" y="-74.5" font-family="Helvetica,sans-Serif" font-size="10.00">Data.HashFunction.CityHash.</text>
<text text-anchor="middle" x="105.5" y="-62.5" font-family="Helvetica,sans-Serif" font-size="10.00">CityHash_Implementation.Hash64Len33to64</text>
</a>
</g>
</g>
<!-- Node2 -->
<g id="Node000002" class="node">
<title>Node2</title>
<g id="a_Node000002"><a xlink:href="class_data_1_1_hash_function_1_1_city_hash_1_1_city_hash___implementation.html#ac2fa0ddcbf5ad593d0830669e41bf93c" target="_top" xlink:title=" ">
<polygon fill="white" stroke="#666666" points="413.38,-144 265.38,-144 265.38,-112 413.38,-112 413.38,-144"/>
<text text-anchor="start" x="273.38" y="-130.5" font-family="Helvetica,sans-Serif" font-size="10.00">Data.HashFunction.CityHash.</text>
<text text-anchor="middle" x="339.38" y="-118.5" font-family="Helvetica,sans-Serif" font-size="10.00">CityHash_Implementation.Mix</text>
</a>
</g>
</g>
<!-- Node1&#45;&gt;Node2 -->
<g id="edge1_Node000001_Node000002" class="edge">
<title>Node1&#45;&gt;Node2</title>
<g id="a_edge1_Node000001_Node000002"><a xlink:title=" ">
<path fill="none" stroke="#63b8ff" d="M174.82,-88.5C201.23,-94.88 231.64,-102.22 259.02,-108.84"/>
<polygon fill="#63b8ff" stroke="#63b8ff" points="258.13,-112.22 268.68,-111.17 259.78,-105.42 258.13,-112.22"/>
</a>
</g>
</g>
<!-- Node3 -->
<g id="Node000003" class="node">
<title>Node3</title>
<g id="a_Node000003"><a xlink:href="class_data_1_1_hash_function_1_1_city_hash_1_1_city_hash___implementation.html#ab22214ef33ce0e9872cac0fc8a214e5f" target="_top" xlink:title=" ">
<polygon fill="white" stroke="#666666" points="423.88,-94 254.88,-94 254.88,-50 423.88,-50 423.88,-94"/>
<text text-anchor="start" x="262.88" y="-80.5" font-family="Helvetica,sans-Serif" font-size="10.00">Data.HashFunction.CityHash.</text>
<text text-anchor="start" x="262.88" y="-68.5" font-family="Helvetica,sans-Serif" font-size="10.00">CityHash_Implementation.Reverse</text>
<text text-anchor="middle" x="339.38" y="-56.5" font-family="Helvetica,sans-Serif" font-size="10.00">ByteOrder</text>
</a>
</g>
</g>
<!-- Node1&#45;&gt;Node3 -->
<g id="edge2_Node000001_Node000003" class="edge">
<title>Node1&#45;&gt;Node3</title>
<g id="a_edge2_Node000001_Node000003"><a xlink:title=" ">
<path fill="none" stroke="#63b8ff" d="M211.24,-72C221.91,-72 232.7,-72 243.26,-72"/>
<polygon fill="#63b8ff" stroke="#63b8ff" points="243.08,-75.5 253.08,-72 243.08,-68.5 243.08,-75.5"/>
</a>
</g>
</g>
<!-- Node4 -->
<g id="Node000004" class="node">
<title>Node4</title>
<g id="a_Node000004"><a xlink:href="class_data_1_1_hash_function_1_1_city_hash_1_1_city_hash___implementation.html#a054a2a634a2a60c58844d08986eef674" target="_top" xlink:title=" ">
<polygon fill="white" stroke="#666666" points="431.75,-32 247,-32 247,0 431.75,0 431.75,-32"/>
<text text-anchor="start" x="255" y="-18.5" font-family="Helvetica,sans-Serif" font-size="10.00">Data.HashFunction.CityHash.</text>
<text text-anchor="middle" x="339.38" y="-6.5" font-family="Helvetica,sans-Serif" font-size="10.00">CityHash_Implementation.RotateRight</text>
</a>
</g>
</g>
<!-- Node1&#45;&gt;Node4 -->
<g id="edge3_Node000001_Node000004" class="edge">
<title>Node1&#45;&gt;Node4</title>
<g id="a_edge3_Node000001_Node000004"><a xlink:title=" ">
<path fill="none" stroke="#63b8ff" d="M174.82,-55.5C201.23,-49.12 231.64,-41.78 259.02,-35.16"/>
<polygon fill="#63b8ff" stroke="#63b8ff" points="259.78,-38.58 268.68,-32.83 258.13,-31.78 259.78,-38.58"/>
</a>
</g>
</g>
</g>
</svg>
