<?xml version="1.0" encoding="UTF-8" standalone="no"?>
<!DOCTYPE svg PUBLIC "-//W3C//DTD SVG 1.1//EN"
 "http://www.w3.org/Graphics/SVG/1.1/DTD/svg11.dtd">
<!-- Generated by graphviz version 12.2.0 (20241103.1931)
 -->
<!-- Title: Data.HashFunction.Core.StreamableHashFunctionBase.ComputeHash Pages: 1 -->
<svg width="419pt" height="58pt"
 viewBox="0.00 0.00 418.75 58.00" xmlns="http://www.w3.org/2000/svg" xmlns:xlink="http://www.w3.org/1999/xlink">
<g id="graph0" class="graph" transform="scale(1 1) rotate(0) translate(4 54)">
<title>Data.HashFunction.Core.StreamableHashFunctionBase.ComputeHash</title>
<!-- Node1 -->
<g id="Node000001" class="node">
<title>Node1</title>
<g id="a_Node000001"><a xlink:title="Computes hash value for given stream.">
<polygon fill="#999999" stroke="#666666" points="177.25,-32 0,-32 0,0 177.25,0 177.25,-32"/>
<text text-anchor="start" x="8" y="-18.5" font-family="Helvetica,sans-Serif" font-size="10.00">Data.HashFunction.Core.Streamable</text>
<text text-anchor="middle" x="88.62" y="-6.5" font-family="Helvetica,sans-Serif" font-size="10.00">HashFunctionBase.ComputeHash</text>
</a>
</g>
</g>
<!-- Node2 -->
<g id="Node000002" class="node">
<title>Node2</title>
<g id="a_Node000002"><a xlink:href="class_data_1_1_hash_function_1_1_core_1_1_streamable_hash_function_base.html#a04477b37f934727711ece10834c39d3f" target="_top" xlink:title="Computes hash value for given array segment.">
<polygon fill="white" stroke="#666666" points="410.75,-32 213.25,-32 213.25,0 410.75,0 410.75,-32"/>
<text text-anchor="start" x="221.25" y="-18.5" font-family="Helvetica,sans-Serif" font-size="10.00">Data.HashFunction.Core.Streamable</text>
<text text-anchor="middle" x="312" y="-6.5" font-family="Helvetica,sans-Serif" font-size="10.00">HashFunctionBase.ComputeHashInternal</text>
</a>
</g>
</g>
<!-- Node1&#45;&gt;Node2 -->
<g id="edge1_Node000001_Node000002" class="edge">
<title>Node1&#45;&gt;Node2</title>
<g id="a_edge1_Node000001_Node000002"><a xlink:title=" ">
<path fill="none" stroke="#63b8ff" d="M177.44,-16C185.39,-16 193.52,-16 201.63,-16"/>
<polygon fill="#63b8ff" stroke="#63b8ff" points="201.57,-19.5 211.57,-16 201.57,-12.5 201.57,-19.5"/>
</a>
</g>
</g>
<!-- Node2&#45;&gt;Node2 -->
<g id="edge2_Node000002_Node000002" class="edge">
<title>Node2&#45;&gt;Node2</title>
<g id="a_edge2_Node000002_Node000002"><a xlink:title=" ">
<path fill="none" stroke="#63b8ff" d="M272.12,-32.44C264.68,-41.58 277.97,-50 312,-50 330.88,-50 343.37,-47.41 349.49,-43.54"/>
<polygon fill="#63b8ff" stroke="#63b8ff" points="352.88,-44.44 351.56,-33.92 346.03,-42.96 352.88,-44.44"/>
</a>
</g>
</g>
</g>
</svg>
