<?xml version="1.0" encoding="UTF-8" standalone="no"?>
<!DOCTYPE svg PUBLIC "-//W3C//DTD SVG 1.1//EN"
 "http://www.w3.org/Graphics/SVG/1.1/DTD/svg11.dtd">
<!-- Generated by graphviz version 12.2.0 (20241103.1931)
 -->
<!-- Title: Data.HashFunction.CityHash.CityHash_Implementation.Hash32Len0to4 Pages: 1 -->
<svg width="614pt" height="90pt"
 viewBox="0.00 0.00 614.00 90.00" xmlns="http://www.w3.org/2000/svg" xmlns:xlink="http://www.w3.org/1999/xlink">
<g id="graph0" class="graph" transform="scale(1 1) rotate(0) translate(4 86)">
<title>Data.HashFunction.CityHash.CityHash_Implementation.Hash32Len0to4</title>
<!-- Node1 -->
<g id="Node000001" class="node">
<title>Node1</title>
<g id="a_Node000001"><a xlink:title=" ">
<polygon fill="#999999" stroke="#666666" points="200.5,-57 0,-57 0,-25 200.5,-25 200.5,-57"/>
<text text-anchor="start" x="8" y="-43.5" font-family="Helvetica,sans-Serif" font-size="10.00">Data.HashFunction.CityHash.</text>
<text text-anchor="middle" x="100.25" y="-31.5" font-family="Helvetica,sans-Serif" font-size="10.00">CityHash_Implementation.Hash32Len0to4</text>
</a>
</g>
</g>
<!-- Node2 -->
<g id="Node000002" class="node">
<title>Node2</title>
<g id="a_Node000002"><a xlink:href="class_data_1_1_hash_function_1_1_city_hash_1_1_city_hash___implementation.html#ac2fa0ddcbf5ad593d0830669e41bf93c" target="_top" xlink:title=" ">
<polygon fill="white" stroke="#666666" points="384.88,-82 236.88,-82 236.88,-50 384.88,-50 384.88,-82"/>
<text text-anchor="start" x="244.88" y="-68.5" font-family="Helvetica,sans-Serif" font-size="10.00">Data.HashFunction.CityHash.</text>
<text text-anchor="middle" x="310.88" y="-56.5" font-family="Helvetica,sans-Serif" font-size="10.00">CityHash_Implementation.Mix</text>
</a>
</g>
</g>
<!-- Node1&#45;&gt;Node2 -->
<g id="edge1_Node000001_Node000002" class="edge">
<title>Node1&#45;&gt;Node2</title>
<g id="a_edge1_Node000001_Node000002"><a xlink:title=" ">
<path fill="none" stroke="#63b8ff" d="M200.98,-52.95C209.1,-53.92 217.25,-54.9 225.25,-55.86"/>
<polygon fill="#63b8ff" stroke="#63b8ff" points="224.57,-59.3 234.92,-57.02 225.41,-52.35 224.57,-59.3"/>
</a>
</g>
</g>
<!-- Node3 -->
<g id="Node000003" class="node">
<title>Node3</title>
<g id="a_Node000003"><a xlink:href="class_data_1_1_hash_function_1_1_city_hash_1_1_city_hash___implementation.html#a14ecd650e889358aa703defbfcd5f00f" target="_top" xlink:title=" ">
<polygon fill="white" stroke="#666666" points="385.25,-32 236.5,-32 236.5,0 385.25,0 385.25,-32"/>
<text text-anchor="start" x="244.5" y="-18.5" font-family="Helvetica,sans-Serif" font-size="10.00">Data.HashFunction.CityHash.</text>
<text text-anchor="middle" x="310.88" y="-6.5" font-family="Helvetica,sans-Serif" font-size="10.00">CityHash_Implementation.Mur</text>
</a>
</g>
</g>
<!-- Node1&#45;&gt;Node3 -->
<g id="edge2_Node000001_Node000003" class="edge">
<title>Node1&#45;&gt;Node3</title>
<g id="a_edge2_Node000001_Node000003"><a xlink:title=" ">
<path fill="none" stroke="#63b8ff" d="M200.98,-29.05C208.93,-28.1 216.92,-27.14 224.76,-26.2"/>
<polygon fill="#63b8ff" stroke="#63b8ff" points="225.1,-29.68 234.62,-25.02 224.27,-22.73 225.1,-29.68"/>
</a>
</g>
</g>
<!-- Node4 -->
<g id="Node000004" class="node">
<title>Node4</title>
<g id="a_Node000004"><a xlink:href="class_data_1_1_hash_function_1_1_city_hash_1_1_city_hash___implementation.html#a054a2a634a2a60c58844d08986eef674" target="_top" xlink:title=" ">
<polygon fill="white" stroke="#666666" points="606,-32 421.25,-32 421.25,0 606,0 606,-32"/>
<text text-anchor="start" x="429.25" y="-18.5" font-family="Helvetica,sans-Serif" font-size="10.00">Data.HashFunction.CityHash.</text>
<text text-anchor="middle" x="513.62" y="-6.5" font-family="Helvetica,sans-Serif" font-size="10.00">CityHash_Implementation.RotateRight</text>
</a>
</g>
</g>
<!-- Node3&#45;&gt;Node4 -->
<g id="edge3_Node000003_Node000004" class="edge">
<title>Node3&#45;&gt;Node4</title>
<g id="a_edge3_Node000003_Node000004"><a xlink:title=" ">
<path fill="none" stroke="#63b8ff" d="M385.49,-16C393.32,-16 401.39,-16 409.48,-16"/>
<polygon fill="#63b8ff" stroke="#63b8ff" points="409.4,-19.5 419.4,-16 409.4,-12.5 409.4,-19.5"/>
</a>
</g>
</g>
</g>
</svg>
