<?xml version="1.0" encoding="UTF-8" standalone="no"?>
<!DOCTYPE svg PUBLIC "-//W3C//DTD SVG 1.1//EN"
 "http://www.w3.org/Graphics/SVG/1.1/DTD/svg11.dtd">
<!-- Generated by graphviz version 12.2.0 (20241103.1931)
 -->
<!-- Title: Data.HashFunction.FNV.FNV1aFactory.Create Pages: 1 -->
<svg width="379pt" height="58pt"
 viewBox="0.00 0.00 379.00 58.00" xmlns="http://www.w3.org/2000/svg" xmlns:xlink="http://www.w3.org/1999/xlink">
<g id="graph0" class="graph" transform="scale(1 1) rotate(0) translate(4 54)">
<title>Data.HashFunction.FNV.FNV1aFactory.Create</title>
<!-- Node1 -->
<g id="Node000001" class="node">
<title>Node1</title>
<g id="a_Node000001"><a xlink:title="Creates a new IFNV1a instance with the default configuration.">
<polygon fill="#999999" stroke="#666666" points="157,-32 0,-32 0,0 157,0 157,-32"/>
<text text-anchor="start" x="8" y="-18.5" font-family="Helvetica,sans-Serif" font-size="10.00">Data.HashFunction.FNV.FNV1a</text>
<text text-anchor="middle" x="78.5" y="-6.5" font-family="Helvetica,sans-Serif" font-size="10.00">Factory.Create</text>
</a>
</g>
</g>
<!-- Node1&#45;&gt;Node1 -->
<g id="edge1_Node000001_Node000001" class="edge">
<title>Node1&#45;&gt;Node1</title>
<g id="a_edge1_Node000001_Node000001"><a xlink:title=" ">
<path fill="none" stroke="#63b8ff" d="M42.17,-32.44C35.39,-41.58 47.5,-50 78.5,-50 95.94,-50 107.4,-47.34 112.88,-43.38"/>
<polygon fill="#63b8ff" stroke="#63b8ff" points="116.26,-44.39 114.57,-33.93 109.37,-43.16 116.26,-44.39"/>
</a>
</g>
</g>
<!-- Node2 -->
<g id="Node000002" class="node">
<title>Node2</title>
<g id="a_Node000002"><a xlink:href="class_data_1_1_hash_function_1_1_f_n_v_1_1_f_n_v_config.html#ad1b98ea4bd2f0c9e3b230b18723b5650" target="_top" xlink:title="Gets one of the predefined configurations as defined at http://www.isthe.com/chongo/tech/comp/fnv/ind...">
<polygon fill="white" stroke="#666666" points="371,-32 193,-32 193,0 371,0 371,-32"/>
<text text-anchor="start" x="201" y="-18.5" font-family="Helvetica,sans-Serif" font-size="10.00">Data.HashFunction.FNV.FNVConfig.</text>
<text text-anchor="middle" x="282" y="-6.5" font-family="Helvetica,sans-Serif" font-size="10.00">GetPredefinedConfig</text>
</a>
</g>
</g>
<!-- Node1&#45;&gt;Node2 -->
<g id="edge2_Node000001_Node000002" class="edge">
<title>Node1&#45;&gt;Node2</title>
<g id="a_edge2_Node000001_Node000002"><a xlink:title=" ">
<path fill="none" stroke="#63b8ff" d="M157.41,-16C165.23,-16 173.26,-16 181.27,-16"/>
<polygon fill="#63b8ff" stroke="#63b8ff" points="181.06,-19.5 191.06,-16 181.06,-12.5 181.06,-19.5"/>
</a>
</g>
</g>
</g>
</svg>
