<?xml version="1.0" encoding="UTF-8" standalone="no"?>
<!DOCTYPE svg PUBLIC "-//W3C//DTD SVG 1.1//EN"
 "http://www.w3.org/Graphics/SVG/1.1/DTD/svg11.dtd">
<!-- Generated by graphviz version 12.2.0 (20241103.1931)
 -->
<!-- Title: Data.HashFunction.Blake3.Hasher.NewDeriveKey Pages: 1 -->
<svg width="550pt" height="776pt"
 viewBox="0.00 0.00 550.25 776.00" xmlns="http://www.w3.org/2000/svg" xmlns:xlink="http://www.w3.org/1999/xlink">
<g id="graph0" class="graph" transform="scale(1 1) rotate(0) translate(4 772)">
<title>Data.HashFunction.Blake3.Hasher.NewDeriveKey</title>
<!-- Node1 -->
<g id="Node000001" class="node">
<title>Node1</title>
<g id="a_Node000001"><a xlink:title="Construct a new Hasher for the key derivation function.">
<polygon fill="#999999" stroke="#666666" points="136.75,-388 0,-388 0,-356 136.75,-356 136.75,-388"/>
<text text-anchor="start" x="8" y="-374.5" font-family="Helvetica,sans-Serif" font-size="10.00">Data.HashFunction.Blake3.</text>
<text text-anchor="middle" x="68.38" y="-362.5" font-family="Helvetica,sans-Serif" font-size="10.00">Hasher.NewDeriveKey</text>
</a>
</g>
</g>
<!-- Node2 -->
<g id="Node000002" class="node">
<title>Node2</title>
<g id="a_Node000002"><a xlink:href="class_data_1_1_hash_function_1_1_blake3_1_1_hasher.html#a1092f2d1065b4228fe942e2d9481222b" target="_top" xlink:title=" ">
<polygon fill="white" stroke="#666666" points="309.5,-388 172.75,-388 172.75,-356 309.5,-356 309.5,-388"/>
<text text-anchor="start" x="180.75" y="-374.5" font-family="Helvetica,sans-Serif" font-size="10.00">Data.HashFunction.Blake3.</text>
<text text-anchor="middle" x="241.12" y="-362.5" font-family="Helvetica,sans-Serif" font-size="10.00">Hasher.Hasher</text>
</a>
</g>
</g>
<!-- Node1&#45;&gt;Node2 -->
<g id="edge1_Node000001_Node000002" class="edge">
<title>Node1&#45;&gt;Node2</title>
<g id="a_edge1_Node000001_Node000002"><a xlink:title=" ">
<path fill="none" stroke="#63b8ff" d="M136.86,-372C144.78,-372 152.91,-372 160.98,-372"/>
<polygon fill="#63b8ff" stroke="#63b8ff" points="160.78,-375.5 170.78,-372 160.78,-368.5 160.78,-375.5"/>
</a>
</g>
</g>
<!-- Node3 -->
<g id="Node000003" class="node">
<title>Node3</title>
<g id="a_Node000003"><a xlink:href="class_data_1_1_hash_function_1_1_blake3_1_1_hasher.html#aeddb6fe433bf75e5aba4e67e629f092f" target="_top" xlink:title=" ">
<polygon fill="white" stroke="#666666" points="512.25,-768 375.5,-768 375.5,-736 512.25,-736 512.25,-768"/>
<text text-anchor="start" x="383.5" y="-754.5" font-family="Helvetica,sans-Serif" font-size="10.00">Data.HashFunction.Blake3.</text>
<text text-anchor="middle" x="443.88" y="-742.5" font-family="Helvetica,sans-Serif" font-size="10.00">Hasher.blake3_delete_del</text>
</a>
</g>
</g>
<!-- Node2&#45;&gt;Node3 -->
<g id="edge2_Node000002_Node000003" class="edge">
<title>Node2&#45;&gt;Node3</title>
<g id="a_edge2_Node000002_Node000003"><a xlink:title=" ">
<path fill="none" stroke="#63b8ff" d="M241.61,-388.23C240.78,-444.13 245.9,-630.54 345.5,-727 351.06,-732.38 357.62,-736.65 364.65,-740.03"/>
<polygon fill="#63b8ff" stroke="#63b8ff" points="363.27,-743.25 373.85,-743.8 365.92,-736.77 363.27,-743.25"/>
</a>
</g>
</g>
<!-- Node4 -->
<g id="Node000004" class="node">
<title>Node4</title>
<g id="a_Node000004"><a xlink:href="class_data_1_1_hash_function_1_1_blake3_1_1_hasher.html#a266c90d1583949e5699abdfbfc193992" target="_top" xlink:title=" ">
<polygon fill="white" stroke="#666666" points="512.25,-718 375.5,-718 375.5,-686 512.25,-686 512.25,-718"/>
<text text-anchor="start" x="383.5" y="-704.5" font-family="Helvetica,sans-Serif" font-size="10.00">Data.HashFunction.Blake3.</text>
<text text-anchor="middle" x="443.88" y="-692.5" font-family="Helvetica,sans-Serif" font-size="10.00">Hasher.blake3_finalize_del</text>
</a>
</g>
</g>
<!-- Node2&#45;&gt;Node4 -->
<g id="edge3_Node000002_Node000004" class="edge">
<title>Node2&#45;&gt;Node4</title>
<g id="a_edge3_Node000002_Node000004"><a xlink:title=" ">
<path fill="none" stroke="#63b8ff" d="M242.52,-388.43C244.66,-439.39 258.38,-596.22 345.5,-677 351.09,-682.18 357.61,-686.32 364.57,-689.63"/>
<polygon fill="#63b8ff" stroke="#63b8ff" points="363.05,-692.79 373.64,-693.33 365.7,-686.31 363.05,-692.79"/>
</a>
</g>
</g>
<!-- Node5 -->
<g id="Node000005" class="node">
<title>Node5</title>
<g id="a_Node000005"><a xlink:href="class_data_1_1_hash_function_1_1_blake3_1_1_hasher.html#a9f5c8238bb1b8c8b5dd827d8c266f0da" target="_top" xlink:title=" ">
<polygon fill="white" stroke="#666666" points="512.25,-668 375.5,-668 375.5,-624 512.25,-624 512.25,-668"/>
<text text-anchor="start" x="383.5" y="-654.5" font-family="Helvetica,sans-Serif" font-size="10.00">Data.HashFunction.Blake3.</text>
<text text-anchor="start" x="383.5" y="-642.5" font-family="Helvetica,sans-Serif" font-size="10.00">Hasher.blake3_finalize</text>
<text text-anchor="middle" x="443.88" y="-630.5" font-family="Helvetica,sans-Serif" font-size="10.00">_seek_xof_del</text>
</a>
</g>
</g>
<!-- Node2&#45;&gt;Node5 -->
<g id="edge4_Node000002_Node000005" class="edge">
<title>Node2&#45;&gt;Node5</title>
<g id="a_edge4_Node000002_Node000005"><a xlink:title=" ">
<path fill="none" stroke="#63b8ff" d="M244.32,-388.28C251.04,-431.67 275.32,-551.12 345.5,-615 351.19,-620.18 357.74,-624.49 364.7,-628.08"/>
<polygon fill="#63b8ff" stroke="#63b8ff" points="363.21,-631.25 373.76,-632.21 366.12,-624.88 363.21,-631.25"/>
</a>
</g>
</g>
<!-- Node6 -->
<g id="Node000006" class="node">
<title>Node6</title>
<g id="a_Node000006"><a xlink:href="class_data_1_1_hash_function_1_1_blake3_1_1_hasher.html#a68a9b9baa0249779cf6c6b5fcc0a0e34" target="_top" xlink:title=" ">
<polygon fill="white" stroke="#666666" points="512.25,-606 375.5,-606 375.5,-562 512.25,-562 512.25,-606"/>
<text text-anchor="start" x="383.5" y="-592.5" font-family="Helvetica,sans-Serif" font-size="10.00">Data.HashFunction.Blake3.</text>
<text text-anchor="start" x="383.5" y="-580.5" font-family="Helvetica,sans-Serif" font-size="10.00">Hasher.blake3_finalize</text>
<text text-anchor="middle" x="443.88" y="-568.5" font-family="Helvetica,sans-Serif" font-size="10.00">_xof_del</text>
</a>
</g>
</g>
<!-- Node2&#45;&gt;Node6 -->
<g id="edge5_Node000002_Node000006" class="edge">
<title>Node2&#45;&gt;Node6</title>
<g id="a_edge5_Node000002_Node000006"><a xlink:title=" ">
<path fill="none" stroke="#63b8ff" d="M246.97,-388.46C258.26,-423.89 289.65,-507.83 345.5,-553 351.34,-557.72 357.91,-561.73 364.81,-565.13"/>
<polygon fill="#63b8ff" stroke="#63b8ff" points="363.16,-568.23 373.72,-569.08 366,-561.83 363.16,-568.23"/>
</a>
</g>
</g>
<!-- Node7 -->
<g id="Node000007" class="node">
<title>Node7</title>
<g id="a_Node000007"><a xlink:href="class_data_1_1_hash_function_1_1_blake3_1_1_hasher.html#a5c6e2e883f5f699bb3f1c5efd6329e86" target="_top" xlink:title=" ">
<polygon fill="white" stroke="#666666" points="512.25,-544 375.5,-544 375.5,-512 512.25,-512 512.25,-544"/>
<text text-anchor="start" x="383.5" y="-530.5" font-family="Helvetica,sans-Serif" font-size="10.00">Data.HashFunction.Blake3.</text>
<text text-anchor="middle" x="443.88" y="-518.5" font-family="Helvetica,sans-Serif" font-size="10.00">Hasher.blake3_hash_del</text>
</a>
</g>
</g>
<!-- Node2&#45;&gt;Node7 -->
<g id="edge6_Node000002_Node000007" class="edge">
<title>Node2&#45;&gt;Node7</title>
<g id="a_edge6_Node000002_Node000007"><a xlink:title=" ">
<path fill="none" stroke="#63b8ff" d="M250.23,-388.08C265.13,-415.96 299.61,-473.13 345.5,-503 351.4,-506.84 357.87,-510.1 364.56,-512.85"/>
<polygon fill="#63b8ff" stroke="#63b8ff" points="363.22,-516.08 373.82,-516.25 365.64,-509.51 363.22,-516.08"/>
</a>
</g>
</g>
<!-- Node8 -->
<g id="Node000008" class="node">
<title>Node8</title>
<g id="a_Node000008"><a xlink:href="class_data_1_1_hash_function_1_1_blake3_1_1_hasher.html#ad33b25786ed25911a0e2243e184a01f6" target="_top" xlink:title=" ">
<polygon fill="white" stroke="#666666" points="532.12,-494 355.62,-494 355.62,-462 532.12,-462 532.12,-494"/>
<text text-anchor="start" x="363.62" y="-480.5" font-family="Helvetica,sans-Serif" font-size="10.00">Data.HashFunction.Blake3.</text>
<text text-anchor="middle" x="443.88" y="-468.5" font-family="Helvetica,sans-Serif" font-size="10.00">Hasher.blake3_hash_preemptive_del</text>
</a>
</g>
</g>
<!-- Node2&#45;&gt;Node8 -->
<g id="edge7_Node000002_Node000008" class="edge">
<title>Node2&#45;&gt;Node8</title>
<g id="a_edge7_Node000002_Node000008"><a xlink:title=" ">
<path fill="none" stroke="#63b8ff" d="M258.54,-388.46C277.76,-406.82 311.35,-436.17 345.5,-453 348.75,-454.6 352.11,-456.11 355.55,-457.52"/>
<polygon fill="#63b8ff" stroke="#63b8ff" points="354.02,-460.69 364.62,-460.97 356.51,-454.14 354.02,-460.69"/>
</a>
</g>
</g>
<!-- Node9 -->
<g id="Node000009" class="node">
<title>Node9</title>
<g id="a_Node000009"><a xlink:href="class_data_1_1_hash_function_1_1_blake3_1_1_hasher.html#aea989aefa014224e8779949750fd6ef4" target="_top" xlink:title=" ">
<polygon fill="white" stroke="#666666" points="512.25,-444 375.5,-444 375.5,-412 512.25,-412 512.25,-444"/>
<text text-anchor="start" x="383.5" y="-430.5" font-family="Helvetica,sans-Serif" font-size="10.00">Data.HashFunction.Blake3.</text>
<text text-anchor="middle" x="443.88" y="-418.5" font-family="Helvetica,sans-Serif" font-size="10.00">Hasher.blake3_new_del</text>
</a>
</g>
</g>
<!-- Node2&#45;&gt;Node9 -->
<g id="edge8_Node000002_Node000009" class="edge">
<title>Node2&#45;&gt;Node9</title>
<g id="a_edge8_Node000002_Node000009"><a xlink:title=" ">
<path fill="none" stroke="#63b8ff" d="M295.66,-388.5C311.65,-393.31 329.25,-398.48 345.5,-403 352.23,-404.87 359.24,-406.77 366.27,-408.64"/>
<polygon fill="#63b8ff" stroke="#63b8ff" points="365.28,-412 375.84,-411.16 367.06,-405.23 365.28,-412"/>
</a>
</g>
</g>
<!-- Node10 -->
<g id="Node000010" class="node">
<title>Node10</title>
<g id="a_Node000010"><a xlink:href="class_data_1_1_hash_function_1_1_blake3_1_1_hasher.html#a5e0bd3fc3b1f1d2230083edd06082e33" target="_top" xlink:title=" ">
<polygon fill="white" stroke="#666666" points="512.25,-394 375.5,-394 375.5,-350 512.25,-350 512.25,-394"/>
<text text-anchor="start" x="383.5" y="-380.5" font-family="Helvetica,sans-Serif" font-size="10.00">Data.HashFunction.Blake3.</text>
<text text-anchor="start" x="383.5" y="-368.5" font-family="Helvetica,sans-Serif" font-size="10.00">Hasher.blake3_new_derive</text>
<text text-anchor="middle" x="443.88" y="-356.5" font-family="Helvetica,sans-Serif" font-size="10.00">_key_del</text>
</a>
</g>
</g>
<!-- Node2&#45;&gt;Node10 -->
<g id="edge9_Node000002_Node000010" class="edge">
<title>Node2&#45;&gt;Node10</title>
<g id="a_edge9_Node000002_Node000010"><a xlink:title=" ">
<path fill="none" stroke="#63b8ff" d="M309.81,-372C327.17,-372 345.99,-372 363.86,-372"/>
<polygon fill="#63b8ff" stroke="#63b8ff" points="363.63,-375.5 373.63,-372 363.63,-368.5 363.63,-375.5"/>
</a>
</g>
</g>
<!-- Node11 -->
<g id="Node000011" class="node">
<title>Node11</title>
<g id="a_Node000011"><a xlink:href="class_data_1_1_hash_function_1_1_blake3_1_1_hasher.html#a4a8335b7fd73916b8690f34ba00d2fa9" target="_top" xlink:title=" ">
<polygon fill="white" stroke="#666666" points="519.75,-332 368,-332 368,-300 519.75,-300 519.75,-332"/>
<text text-anchor="start" x="376" y="-318.5" font-family="Helvetica,sans-Serif" font-size="10.00">Data.HashFunction.Blake3.</text>
<text text-anchor="middle" x="443.88" y="-306.5" font-family="Helvetica,sans-Serif" font-size="10.00">Hasher.blake3_new_keyed_del</text>
</a>
</g>
</g>
<!-- Node2&#45;&gt;Node11 -->
<g id="edge10_Node000002_Node000011" class="edge">
<title>Node2&#45;&gt;Node11</title>
<g id="a_edge10_Node000002_Node000011"><a xlink:title=" ">
<path fill="none" stroke="#63b8ff" d="M295.66,-355.5C311.65,-350.69 329.25,-345.52 345.5,-341 352.23,-339.13 359.24,-337.23 366.27,-335.36"/>
<polygon fill="#63b8ff" stroke="#63b8ff" points="367.06,-338.77 375.84,-332.84 365.28,-332 367.06,-338.77"/>
</a>
</g>
</g>
<!-- Node12 -->
<g id="Node000012" class="node">
<title>Node12</title>
<g id="a_Node000012"><a xlink:href="class_data_1_1_hash_function_1_1_blake3_1_1_hasher.html#afeaea0d86f16edce6ae92fdb28dd50e3" target="_top" xlink:title=" ">
<polygon fill="white" stroke="#666666" points="512.25,-282 375.5,-282 375.5,-250 512.25,-250 512.25,-282"/>
<text text-anchor="start" x="383.5" y="-268.5" font-family="Helvetica,sans-Serif" font-size="10.00">Data.HashFunction.Blake3.</text>
<text text-anchor="middle" x="443.88" y="-256.5" font-family="Helvetica,sans-Serif" font-size="10.00">Hasher.blake3_reset_del</text>
</a>
</g>
</g>
<!-- Node2&#45;&gt;Node12 -->
<g id="edge11_Node000002_Node000012" class="edge">
<title>Node2&#45;&gt;Node12</title>
<g id="a_edge11_Node000002_Node000012"><a xlink:title=" ">
<path fill="none" stroke="#63b8ff" d="M258.54,-355.54C277.76,-337.18 311.35,-307.83 345.5,-291 351.42,-288.08 357.71,-285.48 364.14,-283.17"/>
<polygon fill="#63b8ff" stroke="#63b8ff" points="365.22,-286.5 373.61,-280.02 363.01,-279.86 365.22,-286.5"/>
</a>
</g>
</g>
<!-- Node13 -->
<g id="Node000013" class="node">
<title>Node13</title>
<g id="a_Node000013"><a xlink:href="class_data_1_1_hash_function_1_1_blake3_1_1_hasher.html#a82c48fb54de5c6bbcacd3ffb1e2ff6d4" target="_top" xlink:title=" ">
<polygon fill="white" stroke="#666666" points="512.25,-232 375.5,-232 375.5,-200 512.25,-200 512.25,-232"/>
<text text-anchor="start" x="383.5" y="-218.5" font-family="Helvetica,sans-Serif" font-size="10.00">Data.HashFunction.Blake3.</text>
<text text-anchor="middle" x="443.88" y="-206.5" font-family="Helvetica,sans-Serif" font-size="10.00">Hasher.blake3_update_del</text>
</a>
</g>
</g>
<!-- Node2&#45;&gt;Node13 -->
<g id="edge12_Node000002_Node000013" class="edge">
<title>Node2&#45;&gt;Node13</title>
<g id="a_edge12_Node000002_Node000013"><a xlink:title=" ">
<path fill="none" stroke="#63b8ff" d="M250.23,-355.92C265.13,-328.04 299.61,-270.87 345.5,-241 351.4,-237.16 357.87,-233.9 364.56,-231.15"/>
<polygon fill="#63b8ff" stroke="#63b8ff" points="365.64,-234.49 373.82,-227.75 363.22,-227.92 365.64,-234.49"/>
</a>
</g>
</g>
<!-- Node14 -->
<g id="Node000014" class="node">
<title>Node14</title>
<g id="a_Node000014"><a xlink:href="class_data_1_1_hash_function_1_1_blake3_1_1_hasher.html#a8b052a85097b1bada787fec22e9a1fdc" target="_top" xlink:title=" ">
<polygon fill="white" stroke="#666666" points="536.25,-182 351.5,-182 351.5,-150 536.25,-150 536.25,-182"/>
<text text-anchor="start" x="359.5" y="-168.5" font-family="Helvetica,sans-Serif" font-size="10.00">Data.HashFunction.Blake3.</text>
<text text-anchor="middle" x="443.88" y="-156.5" font-family="Helvetica,sans-Serif" font-size="10.00">Hasher.blake3_update_preemptive_del</text>
</a>
</g>
</g>
<!-- Node2&#45;&gt;Node14 -->
<g id="edge13_Node000002_Node000014" class="edge">
<title>Node2&#45;&gt;Node14</title>
<g id="a_edge13_Node000002_Node000014"><a xlink:title=" ">
<path fill="none" stroke="#63b8ff" d="M246.7,-355.57C257.54,-319.82 288.24,-234.67 345.5,-191 346.84,-189.97 348.23,-188.99 349.64,-188.05"/>
<polygon fill="#63b8ff" stroke="#63b8ff" points="351.2,-191.19 358.1,-183.14 347.69,-185.13 351.2,-191.19"/>
</a>
</g>
</g>
<!-- Node15 -->
<g id="Node000015" class="node">
<title>Node15</title>
<g id="a_Node000015"><a xlink:href="class_data_1_1_hash_function_1_1_blake3_1_1_hasher.html#af985f5e3c88cb27d88076cc470528c42" target="_top" xlink:title=" ">
<polygon fill="white" stroke="#666666" points="524.25,-132 363.5,-132 363.5,-100 524.25,-100 524.25,-132"/>
<text text-anchor="start" x="371.5" y="-118.5" font-family="Helvetica,sans-Serif" font-size="10.00">Data.HashFunction.Blake3.</text>
<text text-anchor="middle" x="443.88" y="-106.5" font-family="Helvetica,sans-Serif" font-size="10.00">Hasher.blake3_update_rayon_del</text>
</a>
</g>
</g>
<!-- Node2&#45;&gt;Node15 -->
<g id="edge14_Node000002_Node000015" class="edge">
<title>Node2&#45;&gt;Node15</title>
<g id="a_edge14_Node000002_Node000015"><a xlink:title=" ">
<path fill="none" stroke="#63b8ff" d="M244.5,-355.68C251.54,-313.37 276.31,-199.35 345.5,-141 348,-138.89 350.66,-136.96 353.44,-135.18"/>
<polygon fill="#63b8ff" stroke="#63b8ff" points="354.9,-138.37 361.96,-130.48 351.52,-132.24 354.9,-138.37"/>
</a>
</g>
</g>
<!-- Node16 -->
<g id="Node000016" class="node">
<title>Node16</title>
<g id="a_Node000016"><a xlink:href="class_data_1_1_hash_function_1_1_core_1_1_library_loader_1_1_native_library_loader.html#ae7fc8592b9e709e52367e2af00e56328" target="_top" xlink:title="Initializes a new instance of NativeLibraryLoader with the given library &#160;parameter.">
<polygon fill="white" stroke="#666666" points="523.5,-82 364.25,-82 364.25,-50 523.5,-50 523.5,-82"/>
<text text-anchor="start" x="372.25" y="-68.5" font-family="Helvetica,sans-Serif" font-size="10.00">Data.HashFunction.Core.Library</text>
<text text-anchor="middle" x="443.88" y="-56.5" font-family="Helvetica,sans-Serif" font-size="10.00">Loader.NativeLibraryLoader.Load</text>
</a>
</g>
</g>
<!-- Node2&#45;&gt;Node16 -->
<g id="edge15_Node000002_Node000016" class="edge">
<title>Node2&#45;&gt;Node16</title>
<g id="a_edge15_Node000002_Node000016"><a xlink:title=" ">
<path fill="none" stroke="#63b8ff" d="M243.04,-355.82C246.66,-307.75 264.12,-164.53 345.5,-91 348.13,-88.62 350.97,-86.46 353.94,-84.5"/>
<polygon fill="#63b8ff" stroke="#63b8ff" points="355.58,-87.59 362.59,-79.64 352.15,-81.49 355.58,-87.59"/>
</a>
</g>
</g>
<!-- Node17 -->
<g id="Node000017" class="node">
<title>Node17</title>
<g id="a_Node000017"><a xlink:href="class_data_1_1_hash_function_1_1_core_1_1_library_loader_1_1_native_library_loader.html#ae43e52670bcb4804edc00b9d59e171f8" target="_top" xlink:title="Tries to load a function with the given name.">
<polygon fill="white" stroke="#666666" points="542.25,-32 345.5,-32 345.5,0 542.25,0 542.25,-32"/>
<text text-anchor="start" x="353.5" y="-18.5" font-family="Helvetica,sans-Serif" font-size="10.00">Data.HashFunction.Core.Library</text>
<text text-anchor="middle" x="443.88" y="-6.5" font-family="Helvetica,sans-Serif" font-size="10.00">Loader.NativeLibraryLoader.LoadFunction</text>
</a>
</g>
</g>
<!-- Node2&#45;&gt;Node17 -->
<g id="edge16_Node000002_Node000017" class="edge">
<title>Node2&#45;&gt;Node17</title>
<g id="a_edge16_Node000002_Node000017"><a xlink:title=" ">
<path fill="none" stroke="#63b8ff" d="M242.01,-355.74C242.57,-302.22 251.87,-129.94 345.5,-41 346.14,-40.39 346.79,-39.8 347.46,-39.22"/>
<polygon fill="#63b8ff" stroke="#63b8ff" points="349.5,-42.06 355.5,-33.33 345.37,-36.41 349.5,-42.06"/>
</a>
</g>
</g>
</g>
</svg>
