<?xml version="1.0" encoding="UTF-8" standalone="no"?>
<!DOCTYPE svg PUBLIC "-//W3C//DTD SVG 1.1//EN"
 "http://www.w3.org/Graphics/SVG/1.1/DTD/svg11.dtd">
<!-- Generated by graphviz version 12.2.0 (20241103.1931)
 -->
<!-- Title: Data.HashFunction.HashAlgorithm.HashAlgorithmWrapper_Implementation Pages: 1 -->
<svg width="555pt" height="116pt"
 viewBox="0.00 0.00 555.00 116.00" xmlns="http://www.w3.org/2000/svg" xmlns:xlink="http://www.w3.org/1999/xlink">
<g id="graph0" class="graph" transform="scale(1 1) rotate(0) translate(4 112)">
<title>Data.HashFunction.HashAlgorithm.HashAlgorithmWrapper_Implementation</title>
<!-- Node1 -->
<g id="Node000001" class="node">
<title>Node1</title>
<g id="a_Node000001"><a xlink:title=" ">
<polygon fill="#999999" stroke="#666666" points="547,-76 358.5,-76 358.5,-44 547,-44 547,-76"/>
<text text-anchor="start" x="366.5" y="-62.5" font-family="Helvetica,sans-Serif" font-size="10.00">Data.HashFunction.HashAlgorithm.</text>
<text text-anchor="middle" x="452.75" y="-50.5" font-family="Helvetica,sans-Serif" font-size="10.00">HashAlgorithmWrapper_Implementation</text>
</a>
</g>
</g>
<!-- Node2 -->
<g id="Node000002" class="node">
<title>Node2</title>
<g id="a_Node000002"><a xlink:href="class_data_1_1_hash_function_1_1_core_1_1_hash_function_base.html" target="_top" xlink:title="Abstract implementation of an IHashFunction. Provides convenience checks and ensures a default HashSi...">
<polygon fill="white" stroke="#666666" points="252,-108 152.75,-108 152.75,-88 252,-88 252,-108"/>
<text text-anchor="middle" x="202.38" y="-94.5" font-family="Helvetica,sans-Serif" font-size="10.00">HashFunctionBase</text>
</a>
</g>
</g>
<!-- Node2&#45;&gt;Node1 -->
<g id="edge1_Node000001_Node000002" class="edge">
<title>Node2&#45;&gt;Node1</title>
<g id="a_edge1_Node000001_Node000002"><a xlink:title=" ">
<path fill="none" stroke="#63b8ff" d="M263.78,-88.76C292.08,-84.43 326.46,-79.17 358.04,-74.34"/>
<polygon fill="#63b8ff" stroke="#63b8ff" points="263.3,-85.29 253.94,-90.26 264.36,-92.21 263.3,-85.29"/>
</a>
</g>
</g>
<!-- Node3 -->
<g id="Node000003" class="node">
<title>Node3</title>
<g id="a_Node000003"><a xlink:href="interface_data_1_1_hash_function_1_1_i_hash_function.html" target="_top" xlink:title="Common interface to non&#45;cryptographic hash functions.">
<polygon fill="white" stroke="#666666" points="79.75,-88 0,-88 0,-68 79.75,-68 79.75,-88"/>
<text text-anchor="middle" x="39.88" y="-74.5" font-family="Helvetica,sans-Serif" font-size="10.00">IHashFunction</text>
</a>
</g>
</g>
<!-- Node3&#45;&gt;Node2 -->
<g id="edge2_Node000002_Node000003" class="edge">
<title>Node3&#45;&gt;Node2</title>
<g id="a_edge2_Node000002_Node000003"><a xlink:title=" ">
<path fill="none" stroke="#63b8ff" d="M91.55,-84.31C111.01,-86.74 133.17,-89.5 152.46,-91.91"/>
<polygon fill="#63b8ff" stroke="#63b8ff" points="92,-80.84 81.64,-83.08 91.13,-87.79 92,-80.84"/>
</a>
</g>
</g>
<!-- Node4 -->
<g id="Node000004" class="node">
<title>Node4</title>
<g id="a_Node000004"><a xlink:href="interface_data_1_1_hash_function_1_1_hash_algorithm_1_1_i_hash_algorithm_wrapper.html" target="_top" xlink:title="Implementation of IHashFunction that wraps cryptographic hash functions known as System....">
<polygon fill="white" stroke="#666666" points="262.12,-70 142.62,-70 142.62,-50 262.12,-50 262.12,-70"/>
<text text-anchor="middle" x="202.38" y="-56.5" font-family="Helvetica,sans-Serif" font-size="10.00">IHashAlgorithmWrapper</text>
</a>
</g>
</g>
<!-- Node3&#45;&gt;Node4 -->
<g id="edge4_Node000004_Node000003" class="edge">
<title>Node3&#45;&gt;Node4</title>
<g id="a_edge4_Node000004_Node000003"><a xlink:title=" ">
<path fill="none" stroke="#63b8ff" d="M91.48,-72.32C107.58,-70.52 125.52,-68.51 142.17,-66.64"/>
<polygon fill="#63b8ff" stroke="#63b8ff" points="91.19,-68.84 81.64,-73.43 91.97,-75.79 91.19,-68.84"/>
</a>
</g>
</g>
<!-- Node4&#45;&gt;Node1 -->
<g id="edge3_Node000001_Node000004" class="edge">
<title>Node4&#45;&gt;Node1</title>
<g id="a_edge3_Node000001_Node000004"><a xlink:title=" ">
<path fill="none" stroke="#63b8ff" d="M273.89,-60C300.06,-60 330.18,-60 358.09,-60"/>
<polygon fill="#63b8ff" stroke="#63b8ff" points="274.07,-56.5 264.06,-60 274.06,-63.5 274.07,-56.5"/>
</a>
</g>
</g>
<!-- Node5 -->
<g id="Node000005" class="node">
<title>Node5</title>
<g id="a_Node000005"><a xlink:href="interface_data_1_1_hash_function_1_1_hash_algorithm_1_1_i_hash_algorithm_wrapper_config.html" target="_top" xlink:title="Defines a configuration for a IHashAlgorithmWrapper implementation.">
<polygon fill="white" stroke="#666666" points="288,-32 116.75,-32 116.75,0 288,0 288,-32"/>
<text text-anchor="start" x="124.75" y="-18.5" font-family="Helvetica,sans-Serif" font-size="10.00">Data.HashFunction.HashAlgorithm.</text>
<text text-anchor="middle" x="202.38" y="-6.5" font-family="Helvetica,sans-Serif" font-size="10.00">IHashAlgorithmWrapperConfig</text>
</a>
</g>
</g>
<!-- Node5&#45;&gt;Node1 -->
<g id="edge5_Node000001_Node000005" class="edge">
<title>Node5&#45;&gt;Node1</title>
<g id="a_edge5_Node000001_Node000005"><a xlink:title=" ">
<path fill="none" stroke="#9a32cd" stroke-dasharray="5,2" d="M299.23,-32.98C318.81,-36.45 339.37,-40.09 358.84,-43.54"/>
<polygon fill="#9a32cd" stroke="#9a32cd" points="300.1,-29.58 289.65,-31.28 298.88,-36.47 300.1,-29.58"/>
</a>
</g>
<text text-anchor="middle" x="323.25" y="-41.82" font-family="Helvetica,sans-Serif" font-size="10.00" fill="grey"> _config</text>
</g>
</g>
</svg>
