<?xml version="1.0" encoding="UTF-8" standalone="no"?>
<!DOCTYPE svg PUBLIC "-//W3C//DTD SVG 1.1//EN"
 "http://www.w3.org/Graphics/SVG/1.1/DTD/svg11.dtd">
<!-- Generated by graphviz version 12.2.0 (20241103.1931)
 -->
<!-- Title: Data.HashFunction.Blake2.Blake2B_Implementation.ComputeRounds Pages: 1 -->
<svg width="664pt" height="114pt"
 viewBox="0.00 0.00 663.50 114.00" xmlns="http://www.w3.org/2000/svg" xmlns:xlink="http://www.w3.org/1999/xlink">
<g id="graph0" class="graph" transform="scale(1 1) rotate(0) translate(4 110)">
<title>Data.HashFunction.Blake2.Blake2B_Implementation.ComputeRounds</title>
<!-- Node1 -->
<g id="Node000001" class="node">
<title>Node1</title>
<g id="a_Node000001"><a xlink:title=" ">
<polygon fill="#999999" stroke="#666666" points="655.5,-75 488,-75 488,-31 655.5,-31 655.5,-75"/>
<text text-anchor="start" x="496" y="-61.5" font-family="Helvetica,sans-Serif" font-size="10.00">Data.HashFunction.Blake2.</text>
<text text-anchor="start" x="496" y="-49.5" font-family="Helvetica,sans-Serif" font-size="10.00">Blake2B_Implementation.Compute</text>
<text text-anchor="middle" x="571.75" y="-37.5" font-family="Helvetica,sans-Serif" font-size="10.00">Rounds</text>
</a>
</g>
</g>
<!-- Node2 -->
<g id="Node000002" class="node">
<title>Node2</title>
<g id="a_Node000002"><a xlink:href="class_data_1_1_hash_function_1_1_blake2_1_1_blake2_b___implementation_1_1_block_transformer.html#a134749c98ba135ceddb6e881c30cacfe" target="_top" xlink:title=" ">
<polygon fill="white" stroke="#666666" points="452,-75 244,-75 244,-31 452,-31 452,-75"/>
<text text-anchor="start" x="252" y="-61.5" font-family="Helvetica,sans-Serif" font-size="10.00">Data.HashFunction.Blake2.</text>
<text text-anchor="start" x="252" y="-49.5" font-family="Helvetica,sans-Serif" font-size="10.00">Blake2B_Implementation.BlockTransformer.</text>
<text text-anchor="middle" x="348" y="-37.5" font-family="Helvetica,sans-Serif" font-size="10.00">Compress</text>
</a>
</g>
</g>
<!-- Node1&#45;&gt;Node2 -->
<g id="edge1_Node000001_Node000002" class="edge">
<title>Node1&#45;&gt;Node2</title>
<g id="a_edge1_Node000001_Node000002"><a xlink:title=" ">
<path fill="none" stroke="#63b8ff" d="M476.06,-53C468.15,-53 460.12,-53 452.15,-53"/>
<polygon fill="#63b8ff" stroke="#63b8ff" points="476.03,-56.5 486.03,-53 476.03,-49.5 476.03,-56.5"/>
</a>
</g>
</g>
<!-- Node3 -->
<g id="Node000003" class="node">
<title>Node3</title>
<g id="a_Node000003"><a xlink:href="class_data_1_1_hash_function_1_1_blake2_1_1_blake2_b___implementation_1_1_block_transformer.html#ab64ecb4f88ae4daadf86b9b5b028a86d" target="_top" xlink:title=" ">
<polygon fill="white" stroke="#666666" points="208,-106 0,-106 0,-62 208,-62 208,-106"/>
<text text-anchor="start" x="8" y="-92.5" font-family="Helvetica,sans-Serif" font-size="10.00">Data.HashFunction.Blake2.</text>
<text text-anchor="start" x="8" y="-80.5" font-family="Helvetica,sans-Serif" font-size="10.00">Blake2B_Implementation.BlockTransformer.</text>
<text text-anchor="middle" x="104" y="-68.5" font-family="Helvetica,sans-Serif" font-size="10.00">FinalizeHashValueInternal</text>
</a>
</g>
</g>
<!-- Node2&#45;&gt;Node3 -->
<g id="edge2_Node000002_Node000003" class="edge">
<title>Node2&#45;&gt;Node3</title>
<g id="a_edge2_Node000002_Node000003"><a xlink:title=" ">
<path fill="none" stroke="#63b8ff" d="M232.38,-67.68C224.37,-68.71 216.32,-69.74 208.37,-70.76"/>
<polygon fill="#63b8ff" stroke="#63b8ff" points="232.69,-71.17 242.17,-66.43 231.8,-64.23 232.69,-71.17"/>
</a>
</g>
</g>
<!-- Node4 -->
<g id="Node000004" class="node">
<title>Node4</title>
<g id="a_Node000004"><a xlink:href="class_data_1_1_hash_function_1_1_blake2_1_1_blake2_b___implementation_1_1_block_transformer.html#a0aeed36e56e8c342fced980ed599770a" target="_top" xlink:title=" ">
<polygon fill="white" stroke="#666666" points="208,-44 0,-44 0,0 208,0 208,-44"/>
<text text-anchor="start" x="8" y="-30.5" font-family="Helvetica,sans-Serif" font-size="10.00">Data.HashFunction.Blake2.</text>
<text text-anchor="start" x="8" y="-18.5" font-family="Helvetica,sans-Serif" font-size="10.00">Blake2B_Implementation.BlockTransformer.</text>
<text text-anchor="middle" x="104" y="-6.5" font-family="Helvetica,sans-Serif" font-size="10.00">TransformByteGroupsInternal</text>
</a>
</g>
</g>
<!-- Node2&#45;&gt;Node4 -->
<g id="edge3_Node000002_Node000004" class="edge">
<title>Node2&#45;&gt;Node4</title>
<g id="a_edge3_Node000002_Node000004"><a xlink:title=" ">
<path fill="none" stroke="#63b8ff" d="M232.38,-38.32C224.37,-37.29 216.32,-36.26 208.37,-35.24"/>
<polygon fill="#63b8ff" stroke="#63b8ff" points="231.8,-41.77 242.17,-39.57 232.69,-34.83 231.8,-41.77"/>
</a>
</g>
</g>
</g>
</svg>
