<?xml version="1.0" encoding="UTF-8" standalone="no"?>
<!DOCTYPE svg PUBLIC "-//W3C//DTD SVG 1.1//EN"
 "http://www.w3.org/Graphics/SVG/1.1/DTD/svg11.dtd">
<!-- Generated by graphviz version 12.2.0 (20241103.1931)
 -->
<!-- Title: Data.HashFunction.FarmHash.FarmHashFingerprint64_Implementation.ShiftMix Pages: 1 -->
<svg width="659pt" height="114pt"
 viewBox="0.00 0.00 659.00 114.00" xmlns="http://www.w3.org/2000/svg" xmlns:xlink="http://www.w3.org/1999/xlink">
<g id="graph0" class="graph" transform="scale(1 1) rotate(0) translate(4 110)">
<title>Data.HashFunction.FarmHash.FarmHashFingerprint64_Implementation.ShiftMix</title>
<!-- Node1 -->
<g id="Node000001" class="node">
<title>Node1</title>
<g id="a_Node000001"><a xlink:title=" ">
<polygon fill="#999999" stroke="#666666" points="651,-75 458,-75 458,-31 651,-31 651,-75"/>
<text text-anchor="start" x="466" y="-61.5" font-family="Helvetica,sans-Serif" font-size="10.00">Data.HashFunction.FarmHash.</text>
<text text-anchor="start" x="466" y="-49.5" font-family="Helvetica,sans-Serif" font-size="10.00">FarmHashFingerprint64_Implementation.</text>
<text text-anchor="middle" x="554.5" y="-37.5" font-family="Helvetica,sans-Serif" font-size="10.00">ShiftMix</text>
</a>
</g>
</g>
<!-- Node2 -->
<g id="Node000002" class="node">
<title>Node2</title>
<g id="a_Node000002"><a xlink:href="class_data_1_1_hash_function_1_1_farm_hash_1_1_farm_hash_fingerprint64___implementation.html#aebc3be424bbca859b1d4ba1a37d47588" target="_top" xlink:title=" ">
<polygon fill="white" stroke="#666666" points="422,-106 229,-106 229,-62 422,-62 422,-106"/>
<text text-anchor="start" x="237" y="-92.5" font-family="Helvetica,sans-Serif" font-size="10.00">Data.HashFunction.FarmHash.</text>
<text text-anchor="start" x="237" y="-80.5" font-family="Helvetica,sans-Serif" font-size="10.00">FarmHashFingerprint64_Implementation.</text>
<text text-anchor="middle" x="325.5" y="-68.5" font-family="Helvetica,sans-Serif" font-size="10.00">ComputeHash0To16</text>
</a>
</g>
</g>
<!-- Node1&#45;&gt;Node2 -->
<g id="edge1_Node000001_Node000002" class="edge">
<title>Node1&#45;&gt;Node2</title>
<g id="a_edge1_Node000001_Node000002"><a xlink:title=" ">
<path fill="none" stroke="#63b8ff" d="M446.34,-67.63C438.37,-68.72 430.36,-69.82 422.46,-70.9"/>
<polygon fill="#63b8ff" stroke="#63b8ff" points="446.63,-71.13 456.06,-66.31 445.68,-64.19 446.63,-71.13"/>
</a>
</g>
</g>
<!-- Node4 -->
<g id="Node000004" class="node">
<title>Node4</title>
<g id="a_Node000004"><a xlink:href="class_data_1_1_hash_function_1_1_farm_hash_1_1_farm_hash_fingerprint64___implementation.html#a64fde0d2f959c75d45d5a42065b1a5e0" target="_top" xlink:title=" ">
<polygon fill="white" stroke="#666666" points="422,-44 229,-44 229,0 422,0 422,-44"/>
<text text-anchor="start" x="237" y="-30.5" font-family="Helvetica,sans-Serif" font-size="10.00">Data.HashFunction.FarmHash.</text>
<text text-anchor="start" x="237" y="-18.5" font-family="Helvetica,sans-Serif" font-size="10.00">FarmHashFingerprint64_Implementation.</text>
<text text-anchor="middle" x="325.5" y="-6.5" font-family="Helvetica,sans-Serif" font-size="10.00">ComputeHash65Plus</text>
</a>
</g>
</g>
<!-- Node1&#45;&gt;Node4 -->
<g id="edge3_Node000001_Node000004" class="edge">
<title>Node1&#45;&gt;Node4</title>
<g id="a_edge3_Node000001_Node000004"><a xlink:title=" ">
<path fill="none" stroke="#63b8ff" d="M446.34,-38.37C438.37,-37.28 430.36,-36.18 422.46,-35.1"/>
<polygon fill="#63b8ff" stroke="#63b8ff" points="445.68,-41.81 456.06,-39.69 446.63,-34.87 445.68,-41.81"/>
</a>
</g>
</g>
<!-- Node3 -->
<g id="Node000003" class="node">
<title>Node3</title>
<g id="a_Node000003"><a xlink:href="class_data_1_1_hash_function_1_1_farm_hash_1_1_farm_hash_fingerprint64___implementation.html#a80461f7e504d1e4000f6df1460447da6" target="_top" xlink:title=" ">
<polygon fill="white" stroke="#666666" points="193,-75 0,-75 0,-31 193,-31 193,-75"/>
<text text-anchor="start" x="8" y="-61.5" font-family="Helvetica,sans-Serif" font-size="10.00">Data.HashFunction.FarmHash.</text>
<text text-anchor="start" x="8" y="-49.5" font-family="Helvetica,sans-Serif" font-size="10.00">FarmHashFingerprint64_Implementation.</text>
<text text-anchor="middle" x="96.5" y="-37.5" font-family="Helvetica,sans-Serif" font-size="10.00">ComputeHashInternal</text>
</a>
</g>
</g>
<!-- Node2&#45;&gt;Node3 -->
<g id="edge2_Node000002_Node000003" class="edge">
<title>Node2&#45;&gt;Node3</title>
<g id="a_edge2_Node000002_Node000003"><a xlink:title=" ">
<path fill="none" stroke="#63b8ff" d="M217.34,-69.37C209.37,-68.28 201.36,-67.18 193.46,-66.1"/>
<polygon fill="#63b8ff" stroke="#63b8ff" points="216.68,-72.81 227.06,-70.69 217.63,-65.87 216.68,-72.81"/>
</a>
</g>
</g>
<!-- Node4&#45;&gt;Node3 -->
<g id="edge4_Node000004_Node000003" class="edge">
<title>Node4&#45;&gt;Node3</title>
<g id="a_edge4_Node000004_Node000003"><a xlink:title=" ">
<path fill="none" stroke="#63b8ff" d="M217.34,-36.63C209.37,-37.72 201.36,-38.82 193.46,-39.9"/>
<polygon fill="#63b8ff" stroke="#63b8ff" points="217.63,-40.13 227.06,-35.31 216.68,-33.19 217.63,-40.13"/>
</a>
</g>
</g>
</g>
</svg>
