<?xml version="1.0" encoding="UTF-8" standalone="no"?>
<!DOCTYPE svg PUBLIC "-//W3C//DTD SVG 1.1//EN"
 "http://www.w3.org/Graphics/SVG/1.1/DTD/svg11.dtd">
<!-- Generated by graphviz version 12.2.0 (20241103.1931)
 -->
<!-- Title: Data.HashFunction.Core.LibraryLoader.NativeLibraryLoader.UnixNativeLibrary.LoadLibrary Pages: 1 -->
<svg width="388pt" height="90pt"
 viewBox="0.00 0.00 388.00 90.00" xmlns="http://www.w3.org/2000/svg" xmlns:xlink="http://www.w3.org/1999/xlink">
<g id="graph0" class="graph" transform="scale(1 1) rotate(0) translate(4 86)">
<title>Data.HashFunction.Core.LibraryLoader.NativeLibraryLoader.UnixNativeLibrary.LoadLibrary</title>
<!-- Node1 -->
<g id="Node000001" class="node">
<title>Node1</title>
<g id="a_Node000001"><a xlink:title=" ">
<polygon fill="#999999" stroke="#666666" points="187,-63 0,-63 0,-19 187,-19 187,-63"/>
<text text-anchor="start" x="8" y="-49.5" font-family="Helvetica,sans-Serif" font-size="10.00">Data.HashFunction.Core.Library</text>
<text text-anchor="start" x="8" y="-37.5" font-family="Helvetica,sans-Serif" font-size="10.00">Loader.NativeLibraryLoader.UnixNative</text>
<text text-anchor="middle" x="93.5" y="-25.5" font-family="Helvetica,sans-Serif" font-size="10.00">Library.LoadLibrary</text>
</a>
</g>
</g>
<!-- Node2 -->
<g id="Node000002" class="node">
<title>Node2</title>
<g id="a_Node000002"><a xlink:href="class_data_1_1_hash_function_1_1_core_1_1_library_loader_1_1_libdl.html#a74c6b7d3b1dc942e94640b05c4dcc0ac" target="_top" xlink:title=" ">
<polygon fill="white" stroke="#666666" points="380,-82 223,-82 223,-50 380,-50 380,-82"/>
<text text-anchor="start" x="231" y="-68.5" font-family="Helvetica,sans-Serif" font-size="10.00">Data.HashFunction.Core.Library</text>
<text text-anchor="middle" x="301.5" y="-56.5" font-family="Helvetica,sans-Serif" font-size="10.00">Loader.Libdl.dlerror</text>
</a>
</g>
</g>
<!-- Node1&#45;&gt;Node2 -->
<g id="edge1_Node000001_Node000002" class="edge">
<title>Node1&#45;&gt;Node2</title>
<g id="a_edge1_Node000001_Node000002"><a xlink:title=" ">
<path fill="none" stroke="#63b8ff" d="M187.26,-52.26C195.31,-53.23 203.45,-54.22 211.48,-55.2"/>
<polygon fill="#63b8ff" stroke="#63b8ff" points="210.88,-58.65 221.23,-56.38 211.72,-51.7 210.88,-58.65"/>
</a>
</g>
</g>
<!-- Node3 -->
<g id="Node000003" class="node">
<title>Node3</title>
<g id="a_Node000003"><a xlink:href="class_data_1_1_hash_function_1_1_core_1_1_library_loader_1_1_libdl.html#acf8e1d7c30b25f712e8f7de040e19e85" target="_top" xlink:title=" ">
<polygon fill="white" stroke="#666666" points="380,-32 223,-32 223,0 380,0 380,-32"/>
<text text-anchor="start" x="231" y="-18.5" font-family="Helvetica,sans-Serif" font-size="10.00">Data.HashFunction.Core.Library</text>
<text text-anchor="middle" x="301.5" y="-6.5" font-family="Helvetica,sans-Serif" font-size="10.00">Loader.Libdl.dlopen</text>
</a>
</g>
</g>
<!-- Node1&#45;&gt;Node3 -->
<g id="edge2_Node000001_Node000003" class="edge">
<title>Node1&#45;&gt;Node3</title>
<g id="a_edge2_Node000001_Node000003"><a xlink:title=" ">
<path fill="none" stroke="#63b8ff" d="M187.26,-29.74C195.31,-28.77 203.45,-27.78 211.48,-26.8"/>
<polygon fill="#63b8ff" stroke="#63b8ff" points="211.72,-30.3 221.23,-25.62 210.88,-23.35 211.72,-30.3"/>
</a>
</g>
</g>
</g>
</svg>
