<?xml version="1.0" encoding="UTF-8" standalone="no"?>
<!DOCTYPE svg PUBLIC "-//W3C//DTD SVG 1.1//EN"
 "http://www.w3.org/Graphics/SVG/1.1/DTD/svg11.dtd">
<!-- Generated by graphviz version 12.2.0 (20241103.1931)
 -->
<!-- Title: Data.HashFunction.FNV.FNV1Base.BlockTransformer_ExtendedBase&lt; TSelf &gt; Pages: 1 -->
<svg width="698pt" height="114pt"
 viewBox="0.00 0.00 697.50 114.00" xmlns="http://www.w3.org/2000/svg" xmlns:xlink="http://www.w3.org/1999/xlink">
<g id="graph0" class="graph" transform="scale(1 1) rotate(0) translate(4 110)">
<title>Data.HashFunction.FNV.FNV1Base.BlockTransformer_ExtendedBase&lt; TSelf &gt;</title>
<!-- Node1 -->
<g id="Node000001" class="node">
<title>Node1</title>
<g id="a_Node000001"><a xlink:title=" ">
<polygon fill="#999999" stroke="#666666" points="449.25,-75 284,-75 284,-31 449.25,-31 449.25,-75"/>
<text text-anchor="start" x="292" y="-61.5" font-family="Helvetica,sans-Serif" font-size="10.00">Data.HashFunction.FNV.FNV1</text>
<text text-anchor="start" x="292" y="-49.5" font-family="Helvetica,sans-Serif" font-size="10.00">Base.BlockTransformer_Extended</text>
<text text-anchor="middle" x="366.62" y="-37.5" font-family="Helvetica,sans-Serif" font-size="10.00">Base&lt; TSelf &gt;</text>
</a>
</g>
</g>
<!-- Node4 -->
<g id="Node000004" class="node">
<title>Node4</title>
<g id="a_Node000004"><a xlink:href="class_data_1_1_hash_function_1_1_f_n_v_1_1_f_n_v1___implementation_1_1_block_transformer___extended.html" target="_top" xlink:title=" ">
<polygon fill="white" stroke="#666666" points="689.5,-106 485.25,-106 485.25,-62 689.5,-62 689.5,-106"/>
<text text-anchor="start" x="493.25" y="-92.5" font-family="Helvetica,sans-Serif" font-size="10.00">Data.HashFunction.FNV.FNV1</text>
<text text-anchor="start" x="493.25" y="-80.5" font-family="Helvetica,sans-Serif" font-size="10.00">_Implementation.BlockTransformer</text>
<text text-anchor="middle" x="587.38" y="-68.5" font-family="Helvetica,sans-Serif" font-size="10.00">_Extended&lt; BlockTransformer_Extended &gt;</text>
</a>
</g>
</g>
<!-- Node1&#45;&gt;Node4 -->
<g id="edge3_Node000001_Node000004" class="edge">
<title>Node1&#45;&gt;Node4</title>
<g id="a_edge3_Node000001_Node000004"><a xlink:title=" ">
<path fill="none" stroke="#63b8ff" d="M460.88,-66.22C468.86,-67.35 476.95,-68.49 484.99,-69.63"/>
<polygon fill="#63b8ff" stroke="#63b8ff" points="461.59,-62.78 451.2,-64.84 460.61,-69.71 461.59,-62.78"/>
</a>
</g>
</g>
<!-- Node5 -->
<g id="Node000005" class="node">
<title>Node5</title>
<g id="a_Node000005"><a xlink:href="class_data_1_1_hash_function_1_1_f_n_v_1_1_f_n_v1a___implementation_1_1_block_transformer___extended.html" target="_top" xlink:title=" ">
<polygon fill="white" stroke="#666666" points="689.5,-44 485.25,-44 485.25,0 689.5,0 689.5,-44"/>
<text text-anchor="start" x="493.25" y="-30.5" font-family="Helvetica,sans-Serif" font-size="10.00">Data.HashFunction.FNV.FNV1a</text>
<text text-anchor="start" x="493.25" y="-18.5" font-family="Helvetica,sans-Serif" font-size="10.00">_Implementation.BlockTransformer</text>
<text text-anchor="middle" x="587.38" y="-6.5" font-family="Helvetica,sans-Serif" font-size="10.00">_Extended&lt; BlockTransformer_Extended &gt;</text>
</a>
</g>
</g>
<!-- Node1&#45;&gt;Node5 -->
<g id="edge4_Node000001_Node000005" class="edge">
<title>Node1&#45;&gt;Node5</title>
<g id="a_edge4_Node000001_Node000005"><a xlink:title=" ">
<path fill="none" stroke="#63b8ff" d="M460.88,-39.78C468.86,-38.65 476.95,-37.51 484.99,-36.37"/>
<polygon fill="#63b8ff" stroke="#63b8ff" points="460.61,-36.29 451.2,-41.16 461.59,-43.22 460.61,-36.29"/>
</a>
</g>
</g>
<!-- Node2 -->
<g id="Node000002" class="node">
<title>Node2</title>
<g id="a_Node000002"><a xlink:href="class_data_1_1_hash_function_1_1_core_1_1_block_transformer_base.html" target="_top" xlink:title="Base implementation for an internal state of an iteratively computable hash function value.">
<polygon fill="white" stroke="#666666" points="248,-69 132.25,-69 132.25,-37 248,-37 248,-69"/>
<text text-anchor="start" x="140.25" y="-55.5" font-family="Helvetica,sans-Serif" font-size="10.00">BlockTransformerBase</text>
<text text-anchor="middle" x="190.12" y="-43.5" font-family="Helvetica,sans-Serif" font-size="10.00">&lt; TSelf &gt;</text>
</a>
</g>
</g>
<!-- Node2&#45;&gt;Node1 -->
<g id="edge1_Node000001_Node000002" class="edge">
<title>Node2&#45;&gt;Node1</title>
<g id="a_edge1_Node000001_Node000002"><a xlink:title=" ">
<path fill="none" stroke="#63b8ff" d="M259.63,-53C267.52,-53 275.63,-53 283.67,-53"/>
<polygon fill="#63b8ff" stroke="#63b8ff" points="259.78,-49.5 249.78,-53 259.78,-56.5 259.78,-49.5"/>
</a>
</g>
</g>
<!-- Node3 -->
<g id="Node000003" class="node">
<title>Node3</title>
<g id="a_Node000003"><a xlink:href="interface_data_1_1_hash_function_1_1_i_block_transformer.html" target="_top" xlink:title="An internal state of an iteratively computable hash function value.">
<polygon fill="white" stroke="#666666" points="96.25,-63 0,-63 0,-43 96.25,-43 96.25,-63"/>
<text text-anchor="middle" x="48.12" y="-49.5" font-family="Helvetica,sans-Serif" font-size="10.00">IBlockTransformer</text>
</a>
</g>
</g>
<!-- Node3&#45;&gt;Node2 -->
<g id="edge2_Node000002_Node000003" class="edge">
<title>Node3&#45;&gt;Node2</title>
<g id="a_edge2_Node000002_Node000003"><a xlink:title=" ">
<path fill="none" stroke="#63b8ff" d="M108.01,-53C115.98,-53 124.14,-53 132.08,-53"/>
<polygon fill="#63b8ff" stroke="#63b8ff" points="108.04,-49.5 98.04,-53 108.04,-56.5 108.04,-49.5"/>
</a>
</g>
</g>
</g>
</svg>
