<?xml version="1.0" encoding="UTF-8" standalone="no"?>
<!DOCTYPE svg PUBLIC "-//W3C//DTD SVG 1.1//EN"
 "http://www.w3.org/Graphics/SVG/1.1/DTD/svg11.dtd">
<!-- Generated by graphviz version 12.2.0 (20241103.1931)
 -->
<!-- Title: Data.HashFunction.FarmHash.FarmHashFingerprint64_Implementation Pages: 1 -->
<svg width="246pt" height="152pt"
 viewBox="0.00 0.00 246.12 152.00" xmlns="http://www.w3.org/2000/svg" xmlns:xlink="http://www.w3.org/1999/xlink">
<g id="graph0" class="graph" transform="scale(1 1) rotate(0) translate(4 148)">
<title>Data.HashFunction.FarmHash.FarmHashFingerprint64_Implementation</title>
<!-- Node1 -->
<g id="Node000001" class="node">
<title>Node1</title>
<g id="a_Node000001"><a xlink:title=" ">
<polygon fill="#999999" stroke="#666666" points="208.62,-32 18.62,-32 18.62,0 208.62,0 208.62,-32"/>
<text text-anchor="start" x="26.62" y="-18.5" font-family="Helvetica,sans-Serif" font-size="10.00">Data.HashFunction.FarmHash.</text>
<text text-anchor="middle" x="113.62" y="-6.5" font-family="Helvetica,sans-Serif" font-size="10.00">FarmHashFingerprint64_Implementation</text>
</a>
</g>
</g>
<!-- Node2 -->
<g id="Node000002" class="node">
<title>Node2</title>
<g id="a_Node000002"><a xlink:href="class_data_1_1_hash_function_1_1_core_1_1_hash_function_base.html" target="_top" xlink:title="Abstract implementation of an IHashFunction. Provides convenience checks and ensures a default HashSi...">
<polygon fill="white" stroke="#666666" points="99.25,-88 0,-88 0,-68 99.25,-68 99.25,-88"/>
<text text-anchor="middle" x="49.62" y="-74.5" font-family="Helvetica,sans-Serif" font-size="10.00">HashFunctionBase</text>
</a>
</g>
</g>
<!-- Node2&#45;&gt;Node1 -->
<g id="edge1_Node000001_Node000002" class="edge">
<title>Node2&#45;&gt;Node1</title>
<g id="a_edge1_Node000001_Node000002"><a xlink:title=" ">
<path fill="none" stroke="#63b8ff" d="M67.78,-59.98C77.05,-51.29 88.23,-40.81 97.23,-32.37"/>
<polygon fill="#63b8ff" stroke="#63b8ff" points="65.63,-57.2 60.73,-66.59 70.42,-62.3 65.63,-57.2"/>
</a>
</g>
</g>
<!-- Node3 -->
<g id="Node000003" class="node">
<title>Node3</title>
<g id="a_Node000003"><a xlink:href="interface_data_1_1_hash_function_1_1_i_hash_function.html" target="_top" xlink:title="Common interface to non&#45;cryptographic hash functions.">
<polygon fill="white" stroke="#666666" points="153.5,-144 73.75,-144 73.75,-124 153.5,-124 153.5,-144"/>
<text text-anchor="middle" x="113.62" y="-130.5" font-family="Helvetica,sans-Serif" font-size="10.00">IHashFunction</text>
</a>
</g>
</g>
<!-- Node3&#45;&gt;Node2 -->
<g id="edge2_Node000002_Node000003" class="edge">
<title>Node3&#45;&gt;Node2</title>
<g id="a_edge2_Node000002_Node000003"><a xlink:title=" ">
<path fill="none" stroke="#63b8ff" d="M93.95,-116.4C83.01,-107.17 69.78,-96.01 60.65,-88.3"/>
<polygon fill="#63b8ff" stroke="#63b8ff" points="91.42,-118.84 101.32,-122.62 95.93,-113.49 91.42,-118.84"/>
</a>
</g>
</g>
<!-- Node4 -->
<g id="Node000004" class="node">
<title>Node4</title>
<g id="a_Node000004"><a xlink:href="interface_data_1_1_hash_function_1_1_farm_hash_1_1_i_farm_hash_fingerprint64.html" target="_top" xlink:title="Implementation of FarmHash&#39;s Fingerprint64 method as specified at https://github.com/google/farmhash.">
<polygon fill="white" stroke="#666666" points="238.12,-88 117.12,-88 117.12,-68 238.12,-68 238.12,-88"/>
<text text-anchor="middle" x="177.62" y="-74.5" font-family="Helvetica,sans-Serif" font-size="10.00">IFarmHashFingerprint64</text>
</a>
</g>
</g>
<!-- Node3&#45;&gt;Node4 -->
<g id="edge4_Node000004_Node000003" class="edge">
<title>Node3&#45;&gt;Node4</title>
<g id="a_edge4_Node000004_Node000003"><a xlink:title=" ">
<path fill="none" stroke="#63b8ff" d="M133.3,-116.4C144.24,-107.17 157.47,-96.01 166.6,-88.3"/>
<polygon fill="#63b8ff" stroke="#63b8ff" points="131.32,-113.49 125.93,-122.62 135.83,-118.84 131.32,-113.49"/>
</a>
</g>
</g>
<!-- Node4&#45;&gt;Node1 -->
<g id="edge3_Node000001_Node000004" class="edge">
<title>Node4&#45;&gt;Node1</title>
<g id="a_edge3_Node000001_Node000004"><a xlink:title=" ">
<path fill="none" stroke="#63b8ff" d="M159.47,-59.98C150.2,-51.29 139.02,-40.81 130.02,-32.37"/>
<polygon fill="#63b8ff" stroke="#63b8ff" points="156.83,-62.3 166.52,-66.59 161.62,-57.2 156.83,-62.3"/>
</a>
</g>
</g>
</g>
</svg>
