<?xml version="1.0" encoding="UTF-8" standalone="no"?>
<!DOCTYPE svg PUBLIC "-//W3C//DTD SVG 1.1//EN"
 "http://www.w3.org/Graphics/SVG/1.1/DTD/svg11.dtd">
<!-- Generated by graphviz version 12.2.0 (20241103.1931)
 -->
<!-- Title: Data.HashFunction.SpookyHash.SpookyHashV2_Implementation Pages: 1 -->
<svg width="279pt" height="208pt"
 viewBox="0.00 0.00 279.00 208.00" xmlns="http://www.w3.org/2000/svg" xmlns:xlink="http://www.w3.org/1999/xlink">

<svg id="main" version="1.1" xmlns="http://www.w3.org/2000/svg" xmlns:xlink="http://www.w3.org/1999/xlink" xml:space="preserve">

<style type="text/css"><![CDATA[
.node, .edge {opacity: 0.7;}
.node.selected, .edge.selected {opacity: 1;}
.edge:hover path { stroke: red; }
.edge:hover polygon { stroke: red; fill: red; }
]]></style>
<script type="application/ecmascript" xlink:href="svg.min.js"/>
<svg id="graph" class="graph">
<g id="graph0" class="graph" transform="scale(1 1) rotate(0) translate(4 204)">
<title>Data.HashFunction.SpookyHash.SpookyHashV2_Implementation</title>
<!-- Node1 -->
<g id="Node000001" class="node">
<title>Node1</title>
<g id="a_Node000001"><a xlink:title=" ">
<polygon fill="#999999" stroke="#666666" points="233.62,-32 51.12,-32 51.12,0 233.62,0 233.62,-32"/>
<text text-anchor="start" x="59.12" y="-18.5" font-family="Helvetica,sans-Serif" font-size="10.00">Data.HashFunction.Spooky</text>
<text text-anchor="middle" x="142.38" y="-6.5" font-family="Helvetica,sans-Serif" font-size="10.00">Hash.SpookyHashV2_Implementation</text>
</a>
</g>
</g>
<!-- Node2 -->
<g id="Node000002" class="node">
<title>Node2</title>
<g id="a_Node000002"><a xlink:href="class_data_1_1_hash_function_1_1_core_1_1_streamable_hash_function_base.html" target="_top" xlink:title="Common interface to non&#45;cryptographic hash functions that can be computed over a stream of data witho...">
<polygon fill="white" stroke="#666666" points="148.75,-88 0,-88 0,-68 148.75,-68 148.75,-88"/>
<text text-anchor="middle" x="74.38" y="-74.5" font-family="Helvetica,sans-Serif" font-size="10.00">StreamableHashFunctionBase</text>
</a>
</g>
</g>
<!-- Node2&#45;&gt;Node1 -->
<g id="edge1_Node000001_Node000002" class="edge">
<title>Node2&#45;&gt;Node1</title>
<g id="a_edge1_Node000001_Node000002"><a xlink:title=" ">
<path fill="none" stroke="#63b8ff" d="M93.37,-60.24C103.27,-51.51 115.29,-40.9 124.95,-32.37"/>
<polygon fill="#63b8ff" stroke="#63b8ff" points="91.32,-57.38 86.13,-66.62 95.95,-62.63 91.32,-57.38"/>
</a>
</g>
</g>
<!-- Node3 -->
<g id="Node000003" class="node">
<title>Node3</title>
<g id="a_Node000003"><a xlink:href="class_data_1_1_hash_function_1_1_core_1_1_hash_function_base.html" target="_top" xlink:title="Abstract implementation of an IHashFunction. Provides convenience checks and ensures a default HashSi...">
<polygon fill="white" stroke="#666666" points="124,-144 24.75,-144 24.75,-124 124,-124 124,-144"/>
<text text-anchor="middle" x="74.38" y="-130.5" font-family="Helvetica,sans-Serif" font-size="10.00">HashFunctionBase</text>
</a>
</g>
</g>
<!-- Node3&#45;&gt;Node2 -->
<g id="edge2_Node000002_Node000003" class="edge">
<title>Node3&#45;&gt;Node2</title>
<g id="a_edge2_Node000002_Node000003"><a xlink:title=" ">
<path fill="none" stroke="#63b8ff" d="M74.38,-112.13C74.38,-103.9 74.38,-94.85 74.38,-88.3"/>
<polygon fill="#63b8ff" stroke="#63b8ff" points="70.88,-112.08 74.38,-122.08 77.88,-112.08 70.88,-112.08"/>
</a>
</g>
</g>
<!-- Node4 -->
<g id="Node000004" class="node">
<title>Node4</title>
<g id="a_Node000004"><a xlink:href="interface_data_1_1_hash_function_1_1_i_hash_function.html" target="_top" xlink:title="Common interface to non&#45;cryptographic hash functions.">
<polygon fill="white" stroke="#666666" points="180.25,-200 100.5,-200 100.5,-180 180.25,-180 180.25,-200"/>
<text text-anchor="middle" x="140.38" y="-186.5" font-family="Helvetica,sans-Serif" font-size="10.00">IHashFunction</text>
</a>
</g>
</g>
<!-- Node4&#45;&gt;Node3 -->
<g id="edge3_Node000003_Node000004" class="edge">
<title>Node4&#45;&gt;Node3</title>
<g id="a_edge3_Node000003_Node000004"><a xlink:title=" ">
<path fill="none" stroke="#63b8ff" d="M120.09,-172.4C108.8,-163.17 95.16,-152.01 85.74,-144.3"/>
<polygon fill="#63b8ff" stroke="#63b8ff" points="117.75,-175.01 127.71,-178.64 122.18,-169.59 117.75,-175.01"/>
</a>
</g>
</g>
<!-- Node5 -->
<g id="Node000005" class="node">
<title>Node5</title>
<g id="a_Node000005"><a xlink:href="interface_data_1_1_hash_function_1_1_i_streamable_hash_function.html" target="_top" xlink:title="Common interface to non&#45;cryptographic hash functions that can be computed over a stream of data witho...">
<polygon fill="white" stroke="#666666" points="271,-144 141.75,-144 141.75,-124 271,-124 271,-144"/>
<text text-anchor="middle" x="206.38" y="-130.5" font-family="Helvetica,sans-Serif" font-size="10.00">IStreamableHashFunction</text>
</a>
</g>
</g>
<!-- Node4&#45;&gt;Node5 -->
<g id="edge5_Node000005_Node000004" class="edge">
<title>Node4&#45;&gt;Node5</title>
<g id="a_edge5_Node000005_Node000004"><a xlink:title=" ">
<path fill="none" stroke="#63b8ff" d="M160.66,-172.4C171.95,-163.17 185.59,-152.01 195.01,-144.3"/>
<polygon fill="#63b8ff" stroke="#63b8ff" points="158.57,-169.59 153.04,-178.64 163,-175.01 158.57,-169.59"/>
</a>
</g>
</g>
<!-- Node5&#45;&gt;Node2 -->
<g id="edge4_Node000002_Node000005" class="edge">
<title>Node5&#45;&gt;Node2</title>
<g id="a_edge4_Node000002_Node000005"><a xlink:title=" ">
<path fill="none" stroke="#63b8ff" d="M172.82,-119.27C149.27,-109.64 118.39,-97.01 97.55,-88.48"/>
<polygon fill="#63b8ff" stroke="#63b8ff" points="171.4,-122.47 181.98,-123.02 174.05,-116 171.4,-122.47"/>
</a>
</g>
</g>
<!-- Node6 -->
<g id="Node000006" class="node">
<title>Node6</title>
<g id="a_Node000006"><a xlink:href="interface_data_1_1_hash_function_1_1_spooky_hash_1_1_i_spooky_hash_v2.html" target="_top" xlink:title="Implements SpookyHash V2 as specified at http://burtleburtle.net/bob/hash/spooky.html.">
<polygon fill="white" stroke="#666666" points="254,-88 166.75,-88 166.75,-68 254,-68 254,-88"/>
<text text-anchor="middle" x="210.38" y="-74.5" font-family="Helvetica,sans-Serif" font-size="10.00">ISpookyHashV2</text>
</a>
</g>
</g>
<!-- Node5&#45;&gt;Node6 -->
<g id="edge7_Node000006_Node000005" class="edge">
<title>Node5&#45;&gt;Node6</title>
<g id="a_edge7_Node000006_Node000005"><a xlink:title=" ">
<path fill="none" stroke="#63b8ff" d="M207.92,-112.13C208.53,-103.9 209.2,-94.85 209.69,-88.3"/>
<polygon fill="#63b8ff" stroke="#63b8ff" points="204.43,-111.85 207.18,-122.08 211.41,-112.37 204.43,-111.85"/>
</a>
</g>
</g>
<!-- Node6&#45;&gt;Node1 -->
<g id="edge6_Node000001_Node000006" class="edge">
<title>Node6&#45;&gt;Node1</title>
<g id="a_edge6_Node000001_Node000006"><a xlink:title=" ">
<path fill="none" stroke="#63b8ff" d="M191.38,-60.24C181.48,-51.51 169.46,-40.9 159.8,-32.37"/>
<polygon fill="#63b8ff" stroke="#63b8ff" points="188.8,-62.63 198.62,-66.62 193.43,-57.38 188.8,-62.63"/>
</a>
</g>
</g>
</g>
</svg>
</svg>

<style type='text/css'>
<![CDATA[
[data-mouse-over-selected='false'] { opacity: 0.7; }
[data-mouse-over-selected='true']  { opacity: 1.0; }
]]>
</style>
<script type="application/ecmascript"><![CDATA[
document.addEventListener('DOMContentLoaded', (event) => {
  highlightEdges();
  highlightAdjacentNodes();
});
]]></script>
</svg>
