<?xml version="1.0" encoding="UTF-8" standalone="no"?>
<!DOCTYPE svg PUBLIC "-//W3C//DTD SVG 1.1//EN"
 "http://www.w3.org/Graphics/SVG/1.1/DTD/svg11.dtd">
<!-- Generated by graphviz version 12.2.0 (20241103.1931)
 -->
<!-- Title: Data.HashFunction.BuzHash.BuzHash_Implementation.RotateLeft Pages: 1 -->
<!--zoomable 289 -->

<svg id="main" version="1.1" xmlns="http://www.w3.org/2000/svg" xmlns:xlink="http://www.w3.org/1999/xlink" xml:space="preserve" onload="init(evt)">

<style type="text/css"><![CDATA[
.node, .edge {opacity: 0.7;}
.node.selected, .edge.selected {opacity: 1;}
.edge:hover path { stroke: red; }
.edge:hover polygon { stroke: red; fill: red; }
]]></style>

<defs>
  <circle id="rim" cx="0" cy="0" r="7"/>
  <circle id="rim2" cx="0" cy="0" r="3.5"/>
  <g id="zoomPlus">
    <use xlink:href="#rim" fill="#404040"><set attributeName="fill" to="#808080" begin="zoomplus.mouseover" end="zoomplus.mouseout"/></use>
    <path d="M-4,0h8M0,-4v8" fill="none" stroke="white" stroke-width="1.5" pointer-events="none"/>
  </g>
  <g id="zoomMin">
    <use xlink:href="#rim" fill="#404040"><set attributeName="fill" to="#808080" begin="zoomminus.mouseover" end="zoomminus.mouseout"/></use>
    <path d="M-4,0h8" fill="none" stroke="white" stroke-width="1.5" pointer-events="none"/>
  </g>
  <g id="arrowUp" transform="translate(30 24)">
    <use xlink:href="#rim"/>
    <path pointer-events="none" fill="none" stroke="white" stroke-width="1.5" d="M0,-3.0v7 M-2.5,-0.5L0,-3.0L2.5,-0.5"/>
  </g>
  <g id="arrowRight" transform="rotate(90) translate(36 -43)">
    <use xlink:href="#rim"/>
    <path pointer-events="none" fill="none" stroke="white" stroke-width="1.5" d="M0,-3.0v7 M-2.5,-0.5L0,-3.0L2.5,-0.5"/>
  </g>
  <g id="arrowDown" transform="rotate(180) translate(-30 -48)">
    <use xlink:href="#rim"/>
    <path pointer-events="none" fill="none" stroke="white" stroke-width="1.5" d="M0,-3.0v7 M-2.5,-0.5L0,-3.0L2.5,-0.5"/>
  </g>
  <g id="arrowLeft" transform="rotate(270) translate(-36 17)">
    <use xlink:href="#rim"/>
    <path pointer-events="none" fill="none" stroke="white" stroke-width="1.5" d="M0,-3.0v7 M-2.5,-0.5L0,-3.0L2.5,-0.5"/>
  </g>
  <g id="resetDef">
    <use xlink:href="#rim2" fill="#404040"><set attributeName="fill" to="#808080" begin="reset.mouseover" end="reset.mouseout"/></use>
  </g>
</defs>
<script type="application/ecmascript">
var viewWidth = 625;
var viewHeight = 289;
var sectionId = 'dynsection-8';
</script>
<script type="application/ecmascript" xlink:href="svg.min.js"/>
<svg id="graph" class="graph">
<g id="viewport">
<title>Data.HashFunction.BuzHash.BuzHash_Implementation.RotateLeft</title>
<!-- Node1 -->
<g id="Node000001" class="node">
<title>Node1</title>
<g id="a_Node000001"><a xlink:title=" ">
<polygon fill="#999999" stroke="#666666" points="617.25,-107 440,-107 440,-75 617.25,-75 617.25,-107"/>
<text text-anchor="start" x="448" y="-93.5" font-family="Helvetica,sans-Serif" font-size="10.00">Data.HashFunction.BuzHash.</text>
<text text-anchor="middle" x="528.62" y="-81.5" font-family="Helvetica,sans-Serif" font-size="10.00">BuzHash_Implementation.RotateLeft</text>
</a>
</g>
</g>
<!-- Node2 -->
<g id="Node000002" class="node">
<title>Node2</title>
<g id="a_Node000002"><a xlink:href="class_data_1_1_hash_function_1_1_buz_hash_1_1_buz_hash___implementation.html#a26c52551b721f45b5671f303ae3da7e6" target="_top" xlink:title=" ">
<polygon fill="white" stroke="#666666" points="404,-182 244.75,-182 244.75,-150 404,-150 404,-182"/>
<text text-anchor="start" x="252.75" y="-168.5" font-family="Helvetica,sans-Serif" font-size="10.00">Data.HashFunction.BuzHash.</text>
<text text-anchor="middle" x="324.38" y="-156.5" font-family="Helvetica,sans-Serif" font-size="10.00">BuzHash_Implementation.CShift</text>
</a>
</g>
</g>
<!-- Node1&#45;&gt;Node2 -->
<g id="edge1_Node000001_Node000002" class="edge">
<title>Node1&#45;&gt;Node2</title>
<g id="a_edge1_Node000001_Node000002"><a xlink:title=" ">
<path fill="none" stroke="#63b8ff" d="M478.86,-111.73C456.24,-121.08 428.91,-132.02 404,-141 395.92,-143.92 387.3,-146.84 378.85,-149.6"/>
<polygon fill="#63b8ff" stroke="#63b8ff" points="479.93,-115.07 487.82,-108 477.24,-108.61 479.93,-115.07"/>
</a>
</g>
</g>
<!-- Node7 -->
<g id="Node000007" class="node">
<title>Node7</title>
<g id="a_Node000007"><a xlink:href="class_data_1_1_hash_function_1_1_buz_hash_1_1_buz_hash___implementation.html#ab5ce2d4eef8bfc287063eed71d1f5f2d" target="_top" xlink:title=" ">
<polygon fill="white" stroke="#666666" points="404,-132 244.75,-132 244.75,-100 404,-100 404,-132"/>
<text text-anchor="start" x="252.75" y="-118.5" font-family="Helvetica,sans-Serif" font-size="10.00">Data.HashFunction.BuzHash.</text>
<text text-anchor="middle" x="324.38" y="-106.5" font-family="Helvetica,sans-Serif" font-size="10.00">BuzHash_Implementation.CShift</text>
</a>
</g>
</g>
<!-- Node1&#45;&gt;Node7 -->
<g id="edge6_Node000001_Node000007" class="edge">
<title>Node1&#45;&gt;Node7</title>
<g id="a_edge6_Node000001_Node000007"><a xlink:title=" ">
<path fill="none" stroke="#63b8ff" d="M428.2,-103.29C420.18,-104.28 412.15,-105.27 404.31,-106.24"/>
<polygon fill="#63b8ff" stroke="#63b8ff" points="428.51,-106.78 438,-102.08 427.65,-99.83 428.51,-106.78"/>
</a>
</g>
</g>
<!-- Node8 -->
<g id="Node000008" class="node">
<title>Node8</title>
<g id="a_Node000008"><a xlink:href="class_data_1_1_hash_function_1_1_buz_hash_1_1_buz_hash___implementation.html#a82458c61c318cac45ca5189894e05052" target="_top" xlink:title=" ">
<polygon fill="white" stroke="#666666" points="404,-82 244.75,-82 244.75,-50 404,-50 404,-82"/>
<text text-anchor="start" x="252.75" y="-68.5" font-family="Helvetica,sans-Serif" font-size="10.00">Data.HashFunction.BuzHash.</text>
<text text-anchor="middle" x="324.38" y="-56.5" font-family="Helvetica,sans-Serif" font-size="10.00">BuzHash_Implementation.CShift</text>
</a>
</g>
</g>
<!-- Node1&#45;&gt;Node8 -->
<g id="edge7_Node000001_Node000008" class="edge">
<title>Node1&#45;&gt;Node8</title>
<g id="a_edge7_Node000001_Node000008"><a xlink:title=" ">
<path fill="none" stroke="#63b8ff" d="M428.2,-78.71C420.18,-77.72 412.15,-76.73 404.31,-75.76"/>
<polygon fill="#63b8ff" stroke="#63b8ff" points="427.65,-82.17 438,-79.92 428.51,-75.22 427.65,-82.17"/>
</a>
</g>
</g>
<!-- Node9 -->
<g id="Node000009" class="node">
<title>Node9</title>
<g id="a_Node000009"><a xlink:href="class_data_1_1_hash_function_1_1_buz_hash_1_1_buz_hash___implementation.html#ac5541a9e61451537856924c86ee8909d" target="_top" xlink:title=" ">
<polygon fill="white" stroke="#666666" points="404,-32 244.75,-32 244.75,0 404,0 404,-32"/>
<text text-anchor="start" x="252.75" y="-18.5" font-family="Helvetica,sans-Serif" font-size="10.00">Data.HashFunction.BuzHash.</text>
<text text-anchor="middle" x="324.38" y="-6.5" font-family="Helvetica,sans-Serif" font-size="10.00">BuzHash_Implementation.CShift</text>
</a>
</g>
</g>
<!-- Node1&#45;&gt;Node9 -->
<g id="edge8_Node000001_Node000009" class="edge">
<title>Node1&#45;&gt;Node9</title>
<g id="a_edge8_Node000001_Node000009"><a xlink:title=" ">
<path fill="none" stroke="#63b8ff" d="M478.86,-70.27C456.24,-60.92 428.91,-49.98 404,-41 395.92,-38.08 387.3,-35.16 378.85,-32.4"/>
<polygon fill="#63b8ff" stroke="#63b8ff" points="477.24,-73.39 487.82,-74 479.93,-66.93 477.24,-73.39"/>
</a>
</g>
</g>
<!-- Node3 -->
<g id="Node000003" class="node">
<title>Node3</title>
<g id="a_Node000003"><a xlink:href="class_data_1_1_hash_function_1_1_buz_hash_1_1_buz_hash___implementation_1_1_block_transformer__16_bit.html#a7b7417786e2e8011f07d8bf84e5ba87b" target="_top" xlink:title=" ">
<polygon fill="white" stroke="#666666" points="208.75,-281 0,-281 0,-237 208.75,-237 208.75,-281"/>
<text text-anchor="start" x="8" y="-267.5" font-family="Helvetica,sans-Serif" font-size="10.00">Data.HashFunction.BuzHash.</text>
<text text-anchor="start" x="8" y="-255.5" font-family="Helvetica,sans-Serif" font-size="10.00">BuzHash_Implementation.BlockTransformer</text>
<text text-anchor="middle" x="104.38" y="-243.5" font-family="Helvetica,sans-Serif" font-size="10.00">_16Bit.TransformByteGroupsInternal</text>
</a>
</g>
</g>
<!-- Node2&#45;&gt;Node3 -->
<g id="edge2_Node000002_Node000003" class="edge">
<title>Node2&#45;&gt;Node3</title>
<g id="a_edge2_Node000002_Node000003"><a xlink:title=" ">
<path fill="none" stroke="#63b8ff" d="M287.19,-188.05C265.08,-200.89 235.93,-216.71 208.75,-228 201.48,-231.02 193.82,-233.88 186.08,-236.56"/>
<polygon fill="#63b8ff" stroke="#63b8ff" points="288.66,-191.25 295.51,-183.16 285.11,-185.21 288.66,-191.25"/>
</a>
</g>
</g>
<!-- Node4 -->
<g id="Node000004" class="node">
<title>Node4</title>
<g id="a_Node000004"><a xlink:href="class_data_1_1_hash_function_1_1_buz_hash_1_1_buz_hash___implementation_1_1_block_transformer__32_bit.html#ac5e68020003dcc531ae26c33b8a09b61" target="_top" xlink:title=" ">
<polygon fill="white" stroke="#666666" points="208.75,-219 0,-219 0,-175 208.75,-175 208.75,-219"/>
<text text-anchor="start" x="8" y="-205.5" font-family="Helvetica,sans-Serif" font-size="10.00">Data.HashFunction.BuzHash.</text>
<text text-anchor="start" x="8" y="-193.5" font-family="Helvetica,sans-Serif" font-size="10.00">BuzHash_Implementation.BlockTransformer</text>
<text text-anchor="middle" x="104.38" y="-181.5" font-family="Helvetica,sans-Serif" font-size="10.00">_32Bit.TransformByteGroupsInternal</text>
</a>
</g>
</g>
<!-- Node2&#45;&gt;Node4 -->
<g id="edge3_Node000002_Node000004" class="edge">
<title>Node2&#45;&gt;Node4</title>
<g id="a_edge3_Node000002_Node000004"><a xlink:title=" ">
<path fill="none" stroke="#63b8ff" d="M233.23,-178.82C225.27,-179.95 217.18,-181.1 209.13,-182.25"/>
<polygon fill="#63b8ff" stroke="#63b8ff" points="233.46,-182.32 242.87,-177.45 232.47,-175.39 233.46,-182.32"/>
</a>
</g>
</g>
<!-- Node5 -->
<g id="Node000005" class="node">
<title>Node5</title>
<g id="a_Node000005"><a xlink:href="class_data_1_1_hash_function_1_1_buz_hash_1_1_buz_hash___implementation_1_1_block_transformer__64_bit.html#a5eff472dd4584e86397c7107acd5113a" target="_top" xlink:title=" ">
<polygon fill="white" stroke="#666666" points="208.75,-157 0,-157 0,-113 208.75,-113 208.75,-157"/>
<text text-anchor="start" x="8" y="-143.5" font-family="Helvetica,sans-Serif" font-size="10.00">Data.HashFunction.BuzHash.</text>
<text text-anchor="start" x="8" y="-131.5" font-family="Helvetica,sans-Serif" font-size="10.00">BuzHash_Implementation.BlockTransformer</text>
<text text-anchor="middle" x="104.38" y="-119.5" font-family="Helvetica,sans-Serif" font-size="10.00">_64Bit.TransformByteGroupsInternal</text>
</a>
</g>
</g>
<!-- Node2&#45;&gt;Node5 -->
<g id="edge4_Node000002_Node000005" class="edge">
<title>Node2&#45;&gt;Node5</title>
<g id="a_edge4_Node000002_Node000005"><a xlink:title=" ">
<path fill="none" stroke="#63b8ff" d="M233.23,-153.18C225.27,-152.05 217.18,-150.9 209.13,-149.75"/>
<polygon fill="#63b8ff" stroke="#63b8ff" points="232.47,-156.61 242.87,-154.55 233.46,-149.68 232.47,-156.61"/>
</a>
</g>
</g>
<!-- Node6 -->
<g id="Node000006" class="node">
<title>Node6</title>
<g id="a_Node000006"><a xlink:href="class_data_1_1_hash_function_1_1_buz_hash_1_1_buz_hash___implementation_1_1_block_transformer__8_bit.html#a38975ae0213a64f1e00ecbe537aabe69" target="_top" xlink:title=" ">
<polygon fill="white" stroke="#666666" points="208.75,-95 0,-95 0,-51 208.75,-51 208.75,-95"/>
<text text-anchor="start" x="8" y="-81.5" font-family="Helvetica,sans-Serif" font-size="10.00">Data.HashFunction.BuzHash.</text>
<text text-anchor="start" x="8" y="-69.5" font-family="Helvetica,sans-Serif" font-size="10.00">BuzHash_Implementation.BlockTransformer</text>
<text text-anchor="middle" x="104.38" y="-57.5" font-family="Helvetica,sans-Serif" font-size="10.00">_8Bit.TransformByteGroupsInternal</text>
</a>
</g>
</g>
<!-- Node2&#45;&gt;Node6 -->
<g id="edge5_Node000002_Node000006" class="edge">
<title>Node2&#45;&gt;Node6</title>
<g id="a_edge5_Node000002_Node000006"><a xlink:title=" ">
<path fill="none" stroke="#63b8ff" d="M251.34,-144.76C249.08,-143.57 246.88,-142.32 244.75,-141 225.23,-128.94 228.37,-115.9 208.75,-104 203.54,-100.84 197.99,-97.99 192.27,-95.41"/>
<polygon fill="#63b8ff" stroke="#63b8ff" points="249.64,-147.82 260.17,-148.95 252.64,-141.5 249.64,-147.82"/>
</a>
</g>
</g>
</g>
</svg>

<g id="navigator" transform="translate(0 0)" fill="#404254">
  <rect fill="#f2f5e9" fill-opacity="0.5" stroke="#606060" stroke-width=".5" x="0" y="0" width="60" height="60"/>
  <use id="zoomplus" xlink:href="#zoomPlus" x="17" y="9" onmousedown="handleZoom(evt,'in')"/>
  <use id="zoomminus" xlink:href="#zoomMin" x="42" y="9" onmousedown="handleZoom(evt,'out')"/>
  <use id="reset" xlink:href="#resetDef" x="30" y="36" onmousedown="handleReset()"/>
   <use id="arrowup" xlink:href="#arrowUp" x="0" y="0" onmousedown="handlePan(0,-1)"/>
  <use id="arrowright" xlink:href="#arrowRight" x="0" y="0" onmousedown="handlePan(1,0)"/>
  <use id="arrowdown" xlink:href="#arrowDown" x="0" y="0" onmousedown="handlePan(0,1)"/>
  <use id="arrowleft" xlink:href="#arrowLeft" x="0" y="0" onmousedown="handlePan(-1,0)"/>
</g>
<svg viewBox="0 0 15 15" width="100%" height="30px" preserveAspectRatio="xMaxYMin meet">
 <g id="arrow_out" transform="scale(0.3 0.3)">
  <a xlink:href="class_data_1_1_hash_function_1_1_buz_hash_1_1_buz_hash___implementation_a7d35e42b1881d8a7f4591bf0f082f1aa_icgraph_org.svg" target="_base">
   <rect id="button" ry="5" rx="5" y="6" x="6" height="38" width="38"
        fill="#f2f5e9" fill-opacity="0.5" stroke="#606060" stroke-width="1.0"/>
   <path id="arrow"
     d="M 11.500037,31.436501 C 11.940474,20.09759 22.043105,11.32322 32.158766,21.979434 L 37.068811,17.246167 C 37.068811,17.246167 37.088388,32 37.088388,32 L 22.160133,31.978069 C 22.160133,31.978069 26.997745,27.140456 26.997745,27.140456 C 18.528582,18.264221 13.291696,25.230495 11.500037,31.436501 z"
     style="fill:#404040;"/>
  </a>
 </g>
</svg>

<style type='text/css'>
<![CDATA[
[data-mouse-over-selected='false'] { opacity: 0.7; }
[data-mouse-over-selected='true']  { opacity: 1.0; }
]]>
</style>
<script type="application/ecmascript"><![CDATA[
document.addEventListener('DOMContentLoaded', (event) => {
  highlightEdges();
  highlightAdjacentNodes();
});
]]></script>
</svg>
