<?xml version="1.0" encoding="UTF-8" standalone="no"?>
<!DOCTYPE svg PUBLIC "-//W3C//DTD SVG 1.1//EN"
 "http://www.w3.org/Graphics/SVG/1.1/DTD/svg11.dtd">
<!-- Generated by graphviz version 12.2.0 (20241103.1931)
 -->
<!-- Title: Data.HashFunction.CityHash.CityHash_Implementation.WeakHashLen32WithSeeds Pages: 1 -->
<!--zoomable 168 -->

<svg id="main" version="1.1" xmlns="http://www.w3.org/2000/svg" xmlns:xlink="http://www.w3.org/1999/xlink" xml:space="preserve" onload="init(evt)">

<style type="text/css"><![CDATA[
.node, .edge {opacity: 0.7;}
.node.selected, .edge.selected {opacity: 1;}
.edge:hover path { stroke: red; }
.edge:hover polygon { stroke: red; fill: red; }
]]></style>

<defs>
  <circle id="rim" cx="0" cy="0" r="7"/>
  <circle id="rim2" cx="0" cy="0" r="3.5"/>
  <g id="zoomPlus">
    <use xlink:href="#rim" fill="#404040"><set attributeName="fill" to="#808080" begin="zoomplus.mouseover" end="zoomplus.mouseout"/></use>
    <path d="M-4,0h8M0,-4v8" fill="none" stroke="white" stroke-width="1.5" pointer-events="none"/>
  </g>
  <g id="zoomMin">
    <use xlink:href="#rim" fill="#404040"><set attributeName="fill" to="#808080" begin="zoomminus.mouseover" end="zoomminus.mouseout"/></use>
    <path d="M-4,0h8" fill="none" stroke="white" stroke-width="1.5" pointer-events="none"/>
  </g>
  <g id="arrowUp" transform="translate(30 24)">
    <use xlink:href="#rim"/>
    <path pointer-events="none" fill="none" stroke="white" stroke-width="1.5" d="M0,-3.0v7 M-2.5,-0.5L0,-3.0L2.5,-0.5"/>
  </g>
  <g id="arrowRight" transform="rotate(90) translate(36 -43)">
    <use xlink:href="#rim"/>
    <path pointer-events="none" fill="none" stroke="white" stroke-width="1.5" d="M0,-3.0v7 M-2.5,-0.5L0,-3.0L2.5,-0.5"/>
  </g>
  <g id="arrowDown" transform="rotate(180) translate(-30 -48)">
    <use xlink:href="#rim"/>
    <path pointer-events="none" fill="none" stroke="white" stroke-width="1.5" d="M0,-3.0v7 M-2.5,-0.5L0,-3.0L2.5,-0.5"/>
  </g>
  <g id="arrowLeft" transform="rotate(270) translate(-36 17)">
    <use xlink:href="#rim"/>
    <path pointer-events="none" fill="none" stroke="white" stroke-width="1.5" d="M0,-3.0v7 M-2.5,-0.5L0,-3.0L2.5,-0.5"/>
  </g>
  <g id="resetDef">
    <use xlink:href="#rim2" fill="#404040"><set attributeName="fill" to="#808080" begin="reset.mouseover" end="reset.mouseout"/></use>
  </g>
</defs>
<script type="application/ecmascript">
var viewWidth = 852;
var viewHeight = 168;
var sectionId = 'dynsection-41';
</script>
<script type="application/ecmascript" xlink:href="svg.min.js"/>
<svg id="graph" class="graph">
<g id="viewport">
<title>Data.HashFunction.CityHash.CityHash_Implementation.WeakHashLen32WithSeeds</title>
<!-- Node1 -->
<g id="Node000001" class="node">
<title>Node1</title>
<g id="a_Node000001"><a xlink:title=" ">
<polygon fill="#999999" stroke="#666666" points="844,-100 663.75,-100 663.75,-56 844,-56 844,-100"/>
<text text-anchor="start" x="671.75" y="-86.5" font-family="Helvetica,sans-Serif" font-size="10.00">Data.HashFunction.CityHash.</text>
<text text-anchor="start" x="671.75" y="-74.5" font-family="Helvetica,sans-Serif" font-size="10.00">CityHash_Implementation.WeakHash</text>
<text text-anchor="middle" x="753.88" y="-62.5" font-family="Helvetica,sans-Serif" font-size="10.00">Len32WithSeeds</text>
</a>
</g>
</g>
<!-- Node2 -->
<g id="Node000002" class="node">
<title>Node2</title>
<g id="a_Node000002"><a xlink:href="class_data_1_1_hash_function_1_1_city_hash_1_1_city_hash___implementation.html#a92d4c0e8db6ecadfeb5497f3f0fe3efb" target="_top" xlink:title=" ">
<polygon fill="white" stroke="#666666" points="616.5,-157 427.25,-157 427.25,-113 616.5,-113 616.5,-157"/>
<text text-anchor="start" x="435.25" y="-143.5" font-family="Helvetica,sans-Serif" font-size="10.00">Data.HashFunction.CityHash.</text>
<text text-anchor="start" x="435.25" y="-131.5" font-family="Helvetica,sans-Serif" font-size="10.00">CityHash_Implementation.CityHash128</text>
<text text-anchor="middle" x="521.88" y="-119.5" font-family="Helvetica,sans-Serif" font-size="10.00">WithSeed</text>
</a>
</g>
</g>
<!-- Node1&#45;&gt;Node2 -->
<g id="edge1_Node000001_Node000002" class="edge">
<title>Node1&#45;&gt;Node2</title>
<g id="a_edge1_Node000001_Node000002"><a xlink:title=" ">
<path fill="none" stroke="#63b8ff" d="M652.44,-102.89C639.44,-106.11 626.18,-109.4 613.35,-112.58"/>
<polygon fill="#63b8ff" stroke="#63b8ff" points="652.96,-106.37 661.82,-100.56 651.27,-99.57 652.96,-106.37"/>
</a>
</g>
</g>
<!-- Node5 -->
<g id="Node000005" class="node">
<title>Node5</title>
<g id="a_Node000005"><a xlink:href="class_data_1_1_hash_function_1_1_city_hash_1_1_city_hash___implementation.html#a4cf34ecb496d7caf130c96462e5f47b7" target="_top" xlink:title=" ">
<polygon fill="white" stroke="#666666" points="627.75,-94 416,-94 416,-62 627.75,-62 627.75,-94"/>
<text text-anchor="start" x="424" y="-80.5" font-family="Helvetica,sans-Serif" font-size="10.00">Data.HashFunction.CityHash.</text>
<text text-anchor="middle" x="521.88" y="-68.5" font-family="Helvetica,sans-Serif" font-size="10.00">CityHash_Implementation.Hash64Len65Plus</text>
</a>
</g>
</g>
<!-- Node1&#45;&gt;Node5 -->
<g id="edge4_Node000001_Node000005" class="edge">
<title>Node1&#45;&gt;Node5</title>
<g id="a_edge4_Node000001_Node000005"><a xlink:title=" ">
<path fill="none" stroke="#63b8ff" d="M652.05,-78C644.04,-78 635.93,-78 627.89,-78"/>
<polygon fill="#63b8ff" stroke="#63b8ff" points="651.78,-81.5 661.78,-78 651.78,-74.5 651.78,-81.5"/>
</a>
</g>
</g>
<!-- Node7 -->
<g id="Node000007" class="node">
<title>Node7</title>
<g id="a_Node000007"><a xlink:href="class_data_1_1_hash_function_1_1_city_hash_1_1_city_hash___implementation.html#ad0b30a66fd8672ee94498a714609024c" target="_top" xlink:title=" ">
<polygon fill="white" stroke="#666666" points="612,-44 431.75,-44 431.75,0 612,0 612,-44"/>
<text text-anchor="start" x="439.75" y="-30.5" font-family="Helvetica,sans-Serif" font-size="10.00">Data.HashFunction.CityHash.</text>
<text text-anchor="start" x="439.75" y="-18.5" font-family="Helvetica,sans-Serif" font-size="10.00">CityHash_Implementation.WeakHash</text>
<text text-anchor="middle" x="521.88" y="-6.5" font-family="Helvetica,sans-Serif" font-size="10.00">Len32WithSeeds</text>
</a>
</g>
</g>
<!-- Node1&#45;&gt;Node7 -->
<g id="edge7_Node000001_Node000007" class="edge">
<title>Node1&#45;&gt;Node7</title>
<g id="a_edge7_Node000001_Node000007"><a xlink:title=" ">
<path fill="none" stroke="#63b8ff" d="M652.19,-53.49C638.88,-50.25 625.31,-46.94 612.21,-43.75"/>
<polygon fill="#63b8ff" stroke="#63b8ff" points="651.28,-56.87 661.82,-55.83 652.93,-50.06 651.28,-56.87"/>
</a>
</g>
</g>
<!-- Node3 -->
<g id="Node000003" class="node">
<title>Node3</title>
<g id="a_Node000003"><a xlink:href="class_data_1_1_hash_function_1_1_city_hash_1_1_city_hash___implementation.html#ade0382cabc2ec27c01cf6cdc9b833590" target="_top" xlink:title=" ">
<polygon fill="white" stroke="#666666" points="380,-160 208,-160 208,-116 380,-116 380,-160"/>
<text text-anchor="start" x="216" y="-146.5" font-family="Helvetica,sans-Serif" font-size="10.00">Data.HashFunction.CityHash.</text>
<text text-anchor="start" x="216" y="-134.5" font-family="Helvetica,sans-Serif" font-size="10.00">CityHash_Implementation.Compute</text>
<text text-anchor="middle" x="294" y="-122.5" font-family="Helvetica,sans-Serif" font-size="10.00">Hash128</text>
</a>
</g>
</g>
<!-- Node2&#45;&gt;Node3 -->
<g id="edge2_Node000002_Node000003" class="edge">
<title>Node2&#45;&gt;Node3</title>
<g id="a_edge2_Node000002_Node000003"><a xlink:title=" ">
<path fill="none" stroke="#63b8ff" d="M415.7,-136.4C403.82,-136.55 391.82,-136.71 380.23,-136.87"/>
<polygon fill="#63b8ff" stroke="#63b8ff" points="415.58,-139.9 425.53,-136.27 415.49,-132.9 415.58,-139.9"/>
</a>
</g>
</g>
<!-- Node4 -->
<g id="Node000004" class="node">
<title>Node4</title>
<g id="a_Node000004"><a xlink:href="class_data_1_1_hash_function_1_1_city_hash_1_1_city_hash___implementation.html#ae936ee82719f44aba970a71e22aa5aea" target="_top" xlink:title=" ">
<polygon fill="white" stroke="#666666" points="172,-129 0,-129 0,-85 172,-85 172,-129"/>
<text text-anchor="start" x="8" y="-115.5" font-family="Helvetica,sans-Serif" font-size="10.00">Data.HashFunction.CityHash.</text>
<text text-anchor="start" x="8" y="-103.5" font-family="Helvetica,sans-Serif" font-size="10.00">CityHash_Implementation.Compute</text>
<text text-anchor="middle" x="86" y="-91.5" font-family="Helvetica,sans-Serif" font-size="10.00">HashInternal</text>
</a>
</g>
</g>
<!-- Node3&#45;&gt;Node4 -->
<g id="edge3_Node000003_Node000004" class="edge">
<title>Node3&#45;&gt;Node4</title>
<g id="a_edge3_Node000003_Node000004"><a xlink:title=" ">
<path fill="none" stroke="#63b8ff" d="M196.37,-123.46C188.31,-122.25 180.19,-121.02 172.21,-119.82"/>
<polygon fill="#63b8ff" stroke="#63b8ff" points="195.82,-126.91 206.23,-124.94 196.86,-119.99 195.82,-126.91"/>
</a>
</g>
</g>
<!-- Node6 -->
<g id="Node000006" class="node">
<title>Node6</title>
<g id="a_Node000006"><a xlink:href="class_data_1_1_hash_function_1_1_city_hash_1_1_city_hash___implementation.html#a51fdde3f82eb15dccb6cdb1b3f47c557" target="_top" xlink:title=" ">
<polygon fill="white" stroke="#666666" points="380,-98 208,-98 208,-54 380,-54 380,-98"/>
<text text-anchor="start" x="216" y="-84.5" font-family="Helvetica,sans-Serif" font-size="10.00">Data.HashFunction.CityHash.</text>
<text text-anchor="start" x="216" y="-72.5" font-family="Helvetica,sans-Serif" font-size="10.00">CityHash_Implementation.Compute</text>
<text text-anchor="middle" x="294" y="-60.5" font-family="Helvetica,sans-Serif" font-size="10.00">Hash64</text>
</a>
</g>
</g>
<!-- Node5&#45;&gt;Node6 -->
<g id="edge5_Node000005_Node000006" class="edge">
<title>Node5&#45;&gt;Node6</title>
<g id="a_edge5_Node000005_Node000006"><a xlink:title=" ">
<path fill="none" stroke="#63b8ff" d="M404.14,-76.97C396.08,-76.89 388.04,-76.82 380.19,-76.75"/>
<polygon fill="#63b8ff" stroke="#63b8ff" points="404,-80.47 414.03,-77.05 404.06,-73.47 404,-80.47"/>
</a>
</g>
</g>
<!-- Node6&#45;&gt;Node4 -->
<g id="edge6_Node000006_Node000004" class="edge">
<title>Node6&#45;&gt;Node4</title>
<g id="a_edge6_Node000006_Node000004"><a xlink:title=" ">
<path fill="none" stroke="#63b8ff" d="M196.37,-90.54C188.31,-91.75 180.19,-92.98 172.21,-94.18"/>
<polygon fill="#63b8ff" stroke="#63b8ff" points="196.86,-94.01 206.23,-89.06 195.82,-87.09 196.86,-94.01"/>
</a>
</g>
</g>
</g>
</svg>

<g id="navigator" transform="translate(0 0)" fill="#404254">
  <rect fill="#f2f5e9" fill-opacity="0.5" stroke="#606060" stroke-width=".5" x="0" y="0" width="60" height="60"/>
  <use id="zoomplus" xlink:href="#zoomPlus" x="17" y="9" onmousedown="handleZoom(evt,'in')"/>
  <use id="zoomminus" xlink:href="#zoomMin" x="42" y="9" onmousedown="handleZoom(evt,'out')"/>
  <use id="reset" xlink:href="#resetDef" x="30" y="36" onmousedown="handleReset()"/>
   <use id="arrowup" xlink:href="#arrowUp" x="0" y="0" onmousedown="handlePan(0,-1)"/>
  <use id="arrowright" xlink:href="#arrowRight" x="0" y="0" onmousedown="handlePan(1,0)"/>
  <use id="arrowdown" xlink:href="#arrowDown" x="0" y="0" onmousedown="handlePan(0,1)"/>
  <use id="arrowleft" xlink:href="#arrowLeft" x="0" y="0" onmousedown="handlePan(-1,0)"/>
</g>
<svg viewBox="0 0 15 15" width="100%" height="30px" preserveAspectRatio="xMaxYMin meet">
 <g id="arrow_out" transform="scale(0.3 0.3)">
  <a xlink:href="class_data_1_1_hash_function_1_1_city_hash_1_1_city_hash___implementation_ad6f6b8fbd54cc87e4cc63bd5b9772bfd_icgraph_org.svg" target="_base">
   <rect id="button" ry="5" rx="5" y="6" x="6" height="38" width="38"
        fill="#f2f5e9" fill-opacity="0.5" stroke="#606060" stroke-width="1.0"/>
   <path id="arrow"
     d="M 11.500037,31.436501 C 11.940474,20.09759 22.043105,11.32322 32.158766,21.979434 L 37.068811,17.246167 C 37.068811,17.246167 37.088388,32 37.088388,32 L 22.160133,31.978069 C 22.160133,31.978069 26.997745,27.140456 26.997745,27.140456 C 18.528582,18.264221 13.291696,25.230495 11.500037,31.436501 z"
     style="fill:#404040;"/>
  </a>
 </g>
</svg>

<style type='text/css'>
<![CDATA[
[data-mouse-over-selected='false'] { opacity: 0.7; }
[data-mouse-over-selected='true']  { opacity: 1.0; }
]]>
</style>
<script type="application/ecmascript"><![CDATA[
document.addEventListener('DOMContentLoaded', (event) => {
  highlightEdges();
  highlightAdjacentNodes();
});
]]></script>
</svg>
