<?xml version="1.0" encoding="UTF-8" standalone="no"?>
<!DOCTYPE svg PUBLIC "-//W3C//DTD SVG 1.1//EN"
 "http://www.w3.org/Graphics/SVG/1.1/DTD/svg11.dtd">
<!-- Generated by graphviz version 12.2.0 (20241103.1931)
 -->
<!-- Title: Data.HashFunction.Core.LibraryLoader.NativeLibraryLoader.LoadFunction Pages: 1 -->
<svg width="1026pt" height="208pt"
 viewBox="0.00 0.00 1026.25 208.00" xmlns="http://www.w3.org/2000/svg" xmlns:xlink="http://www.w3.org/1999/xlink">
<g id="graph0" class="graph" transform="scale(1 1) rotate(0) translate(4 204)">
<title>Data.HashFunction.Core.LibraryLoader.NativeLibraryLoader.LoadFunction</title>
<!-- Node1 -->
<g id="Node000001" class="node">
<title>Node1</title>
<g id="a_Node000001"><a xlink:title="Tries to load a function with the given name.">
<polygon fill="#999999" stroke="#666666" points="1018.25,-88 821.5,-88 821.5,-56 1018.25,-56 1018.25,-88"/>
<text text-anchor="start" x="829.5" y="-74.5" font-family="Helvetica,sans-Serif" font-size="10.00">Data.HashFunction.Core.Library</text>
<text text-anchor="middle" x="919.88" y="-62.5" font-family="Helvetica,sans-Serif" font-size="10.00">Loader.NativeLibraryLoader.LoadFunction</text>
</a>
</g>
</g>
<!-- Node2 -->
<g id="Node000002" class="node">
<title>Node2</title>
<g id="a_Node000002"><a xlink:href="class_data_1_1_hash_function_1_1_blake3_1_1_hasher.html#a1092f2d1065b4228fe942e2d9481222b" target="_top" xlink:title=" ">
<polygon fill="white" stroke="#666666" points="743.88,-144 607.12,-144 607.12,-112 743.88,-112 743.88,-144"/>
<text text-anchor="start" x="615.12" y="-130.5" font-family="Helvetica,sans-Serif" font-size="10.00">Data.HashFunction.Blake3.</text>
<text text-anchor="middle" x="675.5" y="-118.5" font-family="Helvetica,sans-Serif" font-size="10.00">Hasher.Hasher</text>
</a>
</g>
</g>
<!-- Node1&#45;&gt;Node2 -->
<g id="edge1_Node000001_Node000002" class="edge">
<title>Node1&#45;&gt;Node2</title>
<g id="a_edge1_Node000001_Node000002"><a xlink:title=" ">
<path fill="none" stroke="#63b8ff" d="M837.2,-91.02C820.12,-94.99 802.22,-99.14 785.5,-103 772.16,-106.08 757.91,-109.36 744.25,-112.49"/>
<polygon fill="#63b8ff" stroke="#63b8ff" points="837.86,-94.46 846.81,-88.79 836.27,-87.65 837.86,-94.46"/>
</a>
</g>
</g>
<!-- Node8 -->
<g id="Node000008" class="node">
<title>Node8</title>
<g id="a_Node000008"><a xlink:href="class_data_1_1_hash_function_1_1_core_1_1_library_loader_1_1_native_library_loader.html#a750f762dbc3fff323cadf37386946d64" target="_top" xlink:title="Checks whether the given function exists in the currently loaded library or not.">
<polygon fill="white" stroke="#666666" points="767.5,-94 583.5,-94 583.5,-50 767.5,-50 767.5,-94"/>
<text text-anchor="start" x="591.5" y="-80.5" font-family="Helvetica,sans-Serif" font-size="10.00">Data.HashFunction.Core.Library</text>
<text text-anchor="start" x="591.5" y="-68.5" font-family="Helvetica,sans-Serif" font-size="10.00">Loader.NativeLibraryLoader.IsFunction</text>
<text text-anchor="middle" x="675.5" y="-56.5" font-family="Helvetica,sans-Serif" font-size="10.00">Available</text>
</a>
</g>
</g>
<!-- Node1&#45;&gt;Node8 -->
<g id="edge7_Node000001_Node000008" class="edge">
<title>Node1&#45;&gt;Node8</title>
<g id="a_edge7_Node000001_Node000008"><a xlink:title=" ">
<path fill="none" stroke="#63b8ff" d="M810.11,-72C796.02,-72 781.71,-72 767.95,-72"/>
<polygon fill="#63b8ff" stroke="#63b8ff" points="809.83,-75.5 819.83,-72 809.83,-68.5 809.83,-75.5"/>
</a>
</g>
</g>
<!-- Node9 -->
<g id="Node000009" class="node">
<title>Node9</title>
<g id="a_Node000009"><a xlink:href="class_data_1_1_hash_function_1_1_core_1_1_library_loader_1_1_native_library_loader.html#a4f246e5fe2c2d5a9987816cb925b7f9a" target="_top" xlink:title="Tries to load a function with the given name. This function also outputs a delegate that is converted...">
<polygon fill="white" stroke="#666666" points="785.5,-32 565.5,-32 565.5,0 785.5,0 785.5,-32"/>
<text text-anchor="start" x="573.5" y="-18.5" font-family="Helvetica,sans-Serif" font-size="10.00">Data.HashFunction.Core.Library</text>
<text text-anchor="middle" x="675.5" y="-6.5" font-family="Helvetica,sans-Serif" font-size="10.00">Loader.NativeLibraryLoader.LoadFunction&lt; T &gt;</text>
</a>
</g>
</g>
<!-- Node1&#45;&gt;Node9 -->
<g id="edge8_Node000001_Node000009" class="edge">
<title>Node1&#45;&gt;Node9</title>
<g id="a_edge8_Node000001_Node000009"><a xlink:title=" ">
<path fill="none" stroke="#63b8ff" d="M837.2,-52.98C820.12,-49.01 802.22,-44.86 785.5,-41 773.49,-38.23 760.73,-35.29 748.33,-32.44"/>
<polygon fill="#63b8ff" stroke="#63b8ff" points="836.27,-56.35 846.81,-55.21 837.86,-49.54 836.27,-56.35"/>
</a>
</g>
</g>
<!-- Node3 -->
<g id="Node000003" class="node">
<title>Node3</title>
<g id="a_Node000003"><a xlink:href="class_data_1_1_hash_function_1_1_blake3_1_1_hasher.html#aad24929c483c806315660e478d94ef46" target="_top" xlink:title="Construct a new Hasher for the regular hash function.">
<polygon fill="white" stroke="#666666" points="529.5,-194 392.75,-194 392.75,-162 529.5,-162 529.5,-194"/>
<text text-anchor="start" x="400.75" y="-180.5" font-family="Helvetica,sans-Serif" font-size="10.00">Data.HashFunction.Blake3.</text>
<text text-anchor="middle" x="461.12" y="-168.5" font-family="Helvetica,sans-Serif" font-size="10.00">Hasher.New</text>
</a>
</g>
</g>
<!-- Node2&#45;&gt;Node3 -->
<g id="edge2_Node000002_Node000003" class="edge">
<title>Node2&#45;&gt;Node3</title>
<g id="a_edge2_Node000002_Node000003"><a xlink:title=" ">
<path fill="none" stroke="#63b8ff" d="M595.61,-146.57C574.05,-151.65 550.88,-157.1 529.99,-162.02"/>
<polygon fill="#63b8ff" stroke="#63b8ff" points="596.31,-150 605.25,-144.3 594.71,-143.19 596.31,-150"/>
</a>
</g>
</g>
<!-- Node6 -->
<g id="Node000006" class="node">
<title>Node6</title>
<g id="a_Node000006"><a xlink:href="class_data_1_1_hash_function_1_1_blake3_1_1_hasher.html#a357db3327bc95a6a6bf396129a2f1a96" target="_top" xlink:title="Construct a new Hasher for the key derivation function.">
<polygon fill="white" stroke="#666666" points="529.5,-144 392.75,-144 392.75,-112 529.5,-112 529.5,-144"/>
<text text-anchor="start" x="400.75" y="-130.5" font-family="Helvetica,sans-Serif" font-size="10.00">Data.HashFunction.Blake3.</text>
<text text-anchor="middle" x="461.12" y="-118.5" font-family="Helvetica,sans-Serif" font-size="10.00">Hasher.NewDeriveKey</text>
</a>
</g>
</g>
<!-- Node2&#45;&gt;Node6 -->
<g id="edge5_Node000002_Node000006" class="edge">
<title>Node2&#45;&gt;Node6</title>
<g id="a_edge5_Node000002_Node000006"><a xlink:title=" ">
<path fill="none" stroke="#63b8ff" d="M595.31,-128C573.84,-128 550.78,-128 529.99,-128"/>
<polygon fill="#63b8ff" stroke="#63b8ff" points="595.21,-131.5 605.21,-128 595.21,-124.5 595.21,-131.5"/>
</a>
</g>
</g>
<!-- Node7 -->
<g id="Node000007" class="node">
<title>Node7</title>
<g id="a_Node000007"><a xlink:href="class_data_1_1_hash_function_1_1_blake3_1_1_hasher.html#afb4cb051739f7f05d0efc0f3a76055ff" target="_top" xlink:title="Construct a new Hasher for the keyed hash function.">
<polygon fill="white" stroke="#666666" points="529.5,-94 392.75,-94 392.75,-62 529.5,-62 529.5,-94"/>
<text text-anchor="start" x="400.75" y="-80.5" font-family="Helvetica,sans-Serif" font-size="10.00">Data.HashFunction.Blake3.</text>
<text text-anchor="middle" x="461.12" y="-68.5" font-family="Helvetica,sans-Serif" font-size="10.00">Hasher.NewKeyed</text>
</a>
</g>
</g>
<!-- Node2&#45;&gt;Node7 -->
<g id="edge6_Node000002_Node000007" class="edge">
<title>Node2&#45;&gt;Node7</title>
<g id="a_edge6_Node000002_Node000007"><a xlink:title=" ">
<path fill="none" stroke="#63b8ff" d="M595.75,-110.05C585.57,-107.7 575.28,-105.3 565.5,-103 553.91,-100.27 541.59,-97.33 529.66,-94.45"/>
<polygon fill="#63b8ff" stroke="#63b8ff" points="594.73,-113.41 605.26,-112.25 596.3,-106.59 594.73,-113.41"/>
</a>
</g>
</g>
<!-- Node4 -->
<g id="Node000004" class="node">
<title>Node4</title>
<g id="a_Node000004"><a xlink:href="class_data_1_1_hash_function_1_1_blake3_1_1_hasher.html#aac947b8cb06612c856ce00ba6d977208" target="_top" xlink:title="The default hash function.">
<polygon fill="white" stroke="#666666" points="356.75,-194 220,-194 220,-162 356.75,-162 356.75,-194"/>
<text text-anchor="start" x="228" y="-180.5" font-family="Helvetica,sans-Serif" font-size="10.00">Data.HashFunction.Blake3.</text>
<text text-anchor="middle" x="288.38" y="-168.5" font-family="Helvetica,sans-Serif" font-size="10.00">Hasher.Hash</text>
</a>
</g>
</g>
<!-- Node3&#45;&gt;Node4 -->
<g id="edge3_Node000003_Node000004" class="edge">
<title>Node3&#45;&gt;Node4</title>
<g id="a_edge3_Node000003_Node000004"><a xlink:title=" ">
<path fill="none" stroke="#63b8ff" d="M381.33,-178C373.27,-178 365.13,-178 357.21,-178"/>
<polygon fill="#63b8ff" stroke="#63b8ff" points="381.13,-181.5 391.13,-178 381.13,-174.5 381.13,-181.5"/>
</a>
</g>
</g>
<!-- Node5 -->
<g id="Node000005" class="node">
<title>Node5</title>
<g id="a_Node000005"><a xlink:href="class_data_1_1_hash_function_1_1_blake3_1_1_blake3___implementation.html#acf9fb5e2e6ac2dc31721218947dc5451" target="_top" xlink:title=" ">
<polygon fill="white" stroke="#666666" points="184,-200 0,-200 0,-156 184,-156 184,-200"/>
<text text-anchor="start" x="8" y="-186.5" font-family="Helvetica,sans-Serif" font-size="10.00">Data.HashFunction.Blake3.</text>
<text text-anchor="start" x="8" y="-174.5" font-family="Helvetica,sans-Serif" font-size="10.00">Blake3_Implementation.ComputeHash</text>
<text text-anchor="middle" x="92" y="-162.5" font-family="Helvetica,sans-Serif" font-size="10.00">Internal</text>
</a>
</g>
</g>
<!-- Node4&#45;&gt;Node5 -->
<g id="edge4_Node000004_Node000005" class="edge">
<title>Node4&#45;&gt;Node5</title>
<g id="a_edge4_Node000004_Node000005"><a xlink:title=" ">
<path fill="none" stroke="#63b8ff" d="M208.28,-178C200.41,-178 192.38,-178 184.4,-178"/>
<polygon fill="#63b8ff" stroke="#63b8ff" points="208.15,-181.5 218.15,-178 208.15,-174.5 208.15,-181.5"/>
</a>
</g>
</g>
</g>
</svg>
