<?xml version="1.0" encoding="UTF-8" standalone="no"?>
<!DOCTYPE svg PUBLIC "-//W3C//DTD SVG 1.1//EN"
 "http://www.w3.org/Graphics/SVG/1.1/DTD/svg11.dtd">
<!-- Generated by graphviz version 12.2.0 (20241103.1931)
 -->
<!-- Title: Data.HashFunction.CRC.CRC_Implementation Pages: 1 -->
<svg width="417pt" height="222pt"
 viewBox="0.00 0.00 417.00 222.00" xmlns="http://www.w3.org/2000/svg" xmlns:xlink="http://www.w3.org/1999/xlink">

<svg id="main" version="1.1" xmlns="http://www.w3.org/2000/svg" xmlns:xlink="http://www.w3.org/1999/xlink" xml:space="preserve">

<style type="text/css"><![CDATA[
.node, .edge {opacity: 0.7;}
.node.selected, .edge.selected {opacity: 1;}
.edge:hover path { stroke: red; }
.edge:hover polygon { stroke: red; fill: red; }
]]></style>
<script type="application/ecmascript" xlink:href="svg.min.js"/>
<svg id="graph" class="graph">
<g id="graph0" class="graph" transform="scale(1 1) rotate(0) translate(4 218)">
<title>Data.HashFunction.CRC.CRC_Implementation</title>
<!-- Node1 -->
<g id="Node000001" class="node">
<title>Node1</title>
<g id="a_Node000001"><a xlink:title=" ">
<polygon fill="#999999" stroke="#666666" points="263.25,-32 111.5,-32 111.5,0 263.25,0 263.25,-32"/>
<text text-anchor="start" x="119.5" y="-18.5" font-family="Helvetica,sans-Serif" font-size="10.00">Data.HashFunction.CRC.CRC</text>
<text text-anchor="middle" x="187.38" y="-6.5" font-family="Helvetica,sans-Serif" font-size="10.00">_Implementation</text>
</a>
</g>
</g>
<!-- Node2 -->
<g id="Node000002" class="node">
<title>Node2</title>
<g id="a_Node000002"><a xlink:href="class_data_1_1_hash_function_1_1_core_1_1_streamable_hash_function_base.html" target="_top" xlink:title="Common interface to non&#45;cryptographic hash functions that can be computed over a stream of data witho...">
<polygon fill="white" stroke="#666666" points="148.75,-100 0,-100 0,-80 148.75,-80 148.75,-100"/>
<text text-anchor="middle" x="74.38" y="-86.5" font-family="Helvetica,sans-Serif" font-size="10.00">StreamableHashFunctionBase</text>
</a>
</g>
</g>
<!-- Node2&#45;&gt;Node1 -->
<g id="edge1_Node000001_Node000002" class="edge">
<title>Node2&#45;&gt;Node1</title>
<g id="a_edge1_Node000001_Node000002"><a xlink:title=" ">
<path fill="none" stroke="#63b8ff" d="M98.62,-73.55C117.66,-61.42 144.04,-44.61 163.09,-32.47"/>
<polygon fill="#63b8ff" stroke="#63b8ff" points="96.98,-70.45 90.42,-78.77 100.74,-76.35 96.98,-70.45"/>
</a>
</g>
</g>
<!-- Node3 -->
<g id="Node000003" class="node">
<title>Node3</title>
<g id="a_Node000003"><a xlink:href="class_data_1_1_hash_function_1_1_core_1_1_hash_function_base.html" target="_top" xlink:title="Abstract implementation of an IHashFunction. Provides convenience checks and ensures a default HashSi...">
<polygon fill="white" stroke="#666666" points="105,-157 5.75,-157 5.75,-137 105,-137 105,-157"/>
<text text-anchor="middle" x="55.38" y="-143.5" font-family="Helvetica,sans-Serif" font-size="10.00">HashFunctionBase</text>
</a>
</g>
</g>
<!-- Node3&#45;&gt;Node2 -->
<g id="edge2_Node000002_Node000003" class="edge">
<title>Node3&#45;&gt;Node2</title>
<g id="a_edge2_Node000002_Node000003"><a xlink:title=" ">
<path fill="none" stroke="#63b8ff" d="M62.18,-126.29C65.25,-117.42 68.72,-107.38 71.17,-100.28"/>
<polygon fill="#63b8ff" stroke="#63b8ff" points="58.96,-124.89 59.01,-135.49 65.58,-127.18 58.96,-124.89"/>
</a>
</g>
</g>
<!-- Node4 -->
<g id="Node000004" class="node">
<title>Node4</title>
<g id="a_Node000004"><a xlink:href="interface_data_1_1_hash_function_1_1_i_hash_function.html" target="_top" xlink:title="Common interface to non&#45;cryptographic hash functions.">
<polygon fill="white" stroke="#666666" points="160.25,-214 80.5,-214 80.5,-194 160.25,-194 160.25,-214"/>
<text text-anchor="middle" x="120.38" y="-200.5" font-family="Helvetica,sans-Serif" font-size="10.00">IHashFunction</text>
</a>
</g>
</g>
<!-- Node4&#45;&gt;Node3 -->
<g id="edge3_Node000003_Node000004" class="edge">
<title>Node4&#45;&gt;Node3</title>
<g id="a_edge3_Node000003_Node000004"><a xlink:title=" ">
<path fill="none" stroke="#63b8ff" d="M100.59,-186.26C89.3,-176.71 75.58,-165.1 66.24,-157.19"/>
<polygon fill="#63b8ff" stroke="#63b8ff" points="98.3,-188.9 108.19,-192.69 102.82,-183.56 98.3,-188.9"/>
</a>
</g>
</g>
<!-- Node5 -->
<g id="Node000005" class="node">
<title>Node5</title>
<g id="a_Node000005"><a xlink:href="interface_data_1_1_hash_function_1_1_i_streamable_hash_function.html" target="_top" xlink:title="Common interface to non&#45;cryptographic hash functions that can be computed over a stream of data witho...">
<polygon fill="white" stroke="#666666" points="252,-157 122.75,-157 122.75,-137 252,-137 252,-157"/>
<text text-anchor="middle" x="187.38" y="-143.5" font-family="Helvetica,sans-Serif" font-size="10.00">IStreamableHashFunction</text>
</a>
</g>
</g>
<!-- Node4&#45;&gt;Node5 -->
<g id="edge5_Node000005_Node000004" class="edge">
<title>Node4&#45;&gt;Node5</title>
<g id="a_edge5_Node000005_Node000004"><a xlink:title=" ">
<path fill="none" stroke="#63b8ff" d="M140.42,-186.54C152.12,-176.94 166.45,-165.18 176.18,-157.19"/>
<polygon fill="#63b8ff" stroke="#63b8ff" points="138.42,-183.66 132.91,-192.71 142.86,-189.07 138.42,-183.66"/>
</a>
</g>
</g>
<!-- Node5&#45;&gt;Node2 -->
<g id="edge4_Node000002_Node000005" class="edge">
<title>Node5&#45;&gt;Node2</title>
<g id="a_edge4_Node000002_Node000005"><a xlink:title=" ">
<path fill="none" stroke="#63b8ff" d="M157.68,-131.55C137.4,-121.67 111.12,-108.88 93.55,-100.33"/>
<polygon fill="#63b8ff" stroke="#63b8ff" points="156.07,-134.65 166.59,-135.88 159.13,-128.36 156.07,-134.65"/>
</a>
</g>
</g>
<!-- Node6 -->
<g id="Node000006" class="node">
<title>Node6</title>
<g id="a_Node000006"><a xlink:href="interface_data_1_1_hash_function_1_1_c_r_c_1_1_i_c_r_c.html" target="_top" xlink:title="Implementation of the cyclic redundancy check error&#45;detecting code as defined at http://en....">
<polygon fill="white" stroke="#666666" points="208.12,-100 166.62,-100 166.62,-80 208.12,-80 208.12,-100"/>
<text text-anchor="middle" x="187.38" y="-86.5" font-family="Helvetica,sans-Serif" font-size="10.00">ICRC</text>
</a>
</g>
</g>
<!-- Node5&#45;&gt;Node6 -->
<g id="edge7_Node000006_Node000005" class="edge">
<title>Node5&#45;&gt;Node6</title>
<g id="a_edge7_Node000006_Node000005"><a xlink:title=" ">
<path fill="none" stroke="#63b8ff" d="M187.38,-125.69C187.38,-116.97 187.38,-107.22 187.38,-100.28"/>
<polygon fill="#63b8ff" stroke="#63b8ff" points="183.88,-125.4 187.38,-135.4 190.88,-125.4 183.88,-125.4"/>
</a>
</g>
</g>
<!-- Node6&#45;&gt;Node1 -->
<g id="edge6_Node000001_Node000006" class="edge">
<title>Node6&#45;&gt;Node1</title>
<g id="a_edge6_Node000001_Node000006"><a xlink:title=" ">
<path fill="none" stroke="#63b8ff" d="M187.38,-68.1C187.38,-56.71 187.38,-42.87 187.38,-32.47"/>
<polygon fill="#63b8ff" stroke="#63b8ff" points="183.88,-68.07 187.38,-78.07 190.88,-68.07 183.88,-68.07"/>
</a>
</g>
</g>
<!-- Node7 -->
<g id="Node000007" class="node">
<title>Node7</title>
<g id="a_Node000007"><a xlink:href="interface_data_1_1_hash_function_1_1_c_r_c_1_1_i_c_r_c_config.html" target="_top" xlink:title="Defines a configuration for a ICRC implementation.">
<polygon fill="white" stroke="#666666" points="409,-100 225.75,-100 225.75,-80 409,-80 409,-100"/>
<text text-anchor="middle" x="317.38" y="-86.5" font-family="Helvetica,sans-Serif" font-size="10.00">Data.HashFunction.CRC.ICRCConfig</text>
</a>
</g>
</g>
<!-- Node7&#45;&gt;Node1 -->
<g id="edge8_Node000001_Node000007" class="edge">
<title>Node7&#45;&gt;Node1</title>
<g id="a_edge8_Node000001_Node000007"><a xlink:title=" ">
<path fill="none" stroke="#9a32cd" stroke-dasharray="5,2" d="M290.39,-74.05C268.42,-61.89 237.53,-44.78 215.31,-32.47"/>
<polygon fill="#9a32cd" stroke="#9a32cd" points="288.61,-77.07 299.06,-78.85 292,-70.95 288.61,-77.07"/>
</a>
</g>
<text text-anchor="middle" x="285.09" y="-52.5" font-family="Helvetica,sans-Serif" font-size="10.00" fill="grey"> _config</text>
</g>
</g>
</svg>
</svg>

<style type='text/css'>
<![CDATA[
[data-mouse-over-selected='false'] { opacity: 0.7; }
[data-mouse-over-selected='true']  { opacity: 1.0; }
]]>
</style>
<script type="application/ecmascript"><![CDATA[
document.addEventListener('DOMContentLoaded', (event) => {
  highlightEdges();
  highlightAdjacentNodes();
});
]]></script>
</svg>
