<?xml version="1.0" encoding="UTF-8" standalone="no"?>
<!DOCTYPE svg PUBLIC "-//W3C//DTD SVG 1.1//EN"
 "http://www.w3.org/Graphics/SVG/1.1/DTD/svg11.dtd">
<!-- Generated by graphviz version 12.2.0 (20241103.1931)
 -->
<!-- Title: Data.HashFunction.Blake3.Hasher.Hasher Pages: 1 -->
<!--zoomable 776 -->

<svg id="main" version="1.1" xmlns="http://www.w3.org/2000/svg" xmlns:xlink="http://www.w3.org/1999/xlink" xml:space="preserve" onload="init(evt)">

<style type="text/css"><![CDATA[
.node, .edge {opacity: 0.7;}
.node.selected, .edge.selected {opacity: 1;}
.edge:hover path { stroke: red; }
.edge:hover polygon { stroke: red; fill: red; }
]]></style>

<defs>
  <circle id="rim" cx="0" cy="0" r="7"/>
  <circle id="rim2" cx="0" cy="0" r="3.5"/>
  <g id="zoomPlus">
    <use xlink:href="#rim" fill="#404040"><set attributeName="fill" to="#808080" begin="zoomplus.mouseover" end="zoomplus.mouseout"/></use>
    <path d="M-4,0h8M0,-4v8" fill="none" stroke="white" stroke-width="1.5" pointer-events="none"/>
  </g>
  <g id="zoomMin">
    <use xlink:href="#rim" fill="#404040"><set attributeName="fill" to="#808080" begin="zoomminus.mouseover" end="zoomminus.mouseout"/></use>
    <path d="M-4,0h8" fill="none" stroke="white" stroke-width="1.5" pointer-events="none"/>
  </g>
  <g id="arrowUp" transform="translate(30 24)">
    <use xlink:href="#rim"/>
    <path pointer-events="none" fill="none" stroke="white" stroke-width="1.5" d="M0,-3.0v7 M-2.5,-0.5L0,-3.0L2.5,-0.5"/>
  </g>
  <g id="arrowRight" transform="rotate(90) translate(36 -43)">
    <use xlink:href="#rim"/>
    <path pointer-events="none" fill="none" stroke="white" stroke-width="1.5" d="M0,-3.0v7 M-2.5,-0.5L0,-3.0L2.5,-0.5"/>
  </g>
  <g id="arrowDown" transform="rotate(180) translate(-30 -48)">
    <use xlink:href="#rim"/>
    <path pointer-events="none" fill="none" stroke="white" stroke-width="1.5" d="M0,-3.0v7 M-2.5,-0.5L0,-3.0L2.5,-0.5"/>
  </g>
  <g id="arrowLeft" transform="rotate(270) translate(-36 17)">
    <use xlink:href="#rim"/>
    <path pointer-events="none" fill="none" stroke="white" stroke-width="1.5" d="M0,-3.0v7 M-2.5,-0.5L0,-3.0L2.5,-0.5"/>
  </g>
  <g id="resetDef">
    <use xlink:href="#rim2" fill="#404040"><set attributeName="fill" to="#808080" begin="reset.mouseover" end="reset.mouseout"/></use>
  </g>
</defs>
<script type="application/ecmascript">
var viewWidth = 378;
var viewHeight = 776;
var sectionId = 'dynsection-2';
</script>
<script type="application/ecmascript" xlink:href="svg.min.js"/>
<svg id="graph" class="graph">
<g id="viewport">
<title>Data.HashFunction.Blake3.Hasher.Hasher</title>
<!-- Node1 -->
<g id="Node000001" class="node">
<title>Node1</title>
<g id="a_Node000001"><a xlink:title=" ">
<polygon fill="#999999" stroke="#666666" points="136.75,-388 0,-388 0,-356 136.75,-356 136.75,-388"/>
<text text-anchor="start" x="8" y="-374.5" font-family="Helvetica,sans-Serif" font-size="10.00">Data.HashFunction.Blake3.</text>
<text text-anchor="middle" x="68.38" y="-362.5" font-family="Helvetica,sans-Serif" font-size="10.00">Hasher.Hasher</text>
</a>
</g>
</g>
<!-- Node2 -->
<g id="Node000002" class="node">
<title>Node2</title>
<g id="a_Node000002"><a xlink:href="class_data_1_1_hash_function_1_1_blake3_1_1_hasher.html#aeddb6fe433bf75e5aba4e67e629f092f" target="_top" xlink:title=" ">
<polygon fill="white" stroke="#666666" points="339.5,-768 202.75,-768 202.75,-736 339.5,-736 339.5,-768"/>
<text text-anchor="start" x="210.75" y="-754.5" font-family="Helvetica,sans-Serif" font-size="10.00">Data.HashFunction.Blake3.</text>
<text text-anchor="middle" x="271.12" y="-742.5" font-family="Helvetica,sans-Serif" font-size="10.00">Hasher.blake3_delete_del</text>
</a>
</g>
</g>
<!-- Node1&#45;&gt;Node2 -->
<g id="edge1_Node000001_Node000002" class="edge">
<title>Node1&#45;&gt;Node2</title>
<g id="a_edge1_Node000001_Node000002"><a xlink:title=" ">
<path fill="none" stroke="#63b8ff" d="M68.86,-388.23C68.03,-444.13 73.15,-630.54 172.75,-727 178.31,-732.38 184.87,-736.65 191.9,-740.03"/>
<polygon fill="#63b8ff" stroke="#63b8ff" points="190.52,-743.25 201.1,-743.8 193.17,-736.77 190.52,-743.25"/>
</a>
</g>
</g>
<!-- Node3 -->
<g id="Node000003" class="node">
<title>Node3</title>
<g id="a_Node000003"><a xlink:href="class_data_1_1_hash_function_1_1_blake3_1_1_hasher.html#a266c90d1583949e5699abdfbfc193992" target="_top" xlink:title=" ">
<polygon fill="white" stroke="#666666" points="339.5,-718 202.75,-718 202.75,-686 339.5,-686 339.5,-718"/>
<text text-anchor="start" x="210.75" y="-704.5" font-family="Helvetica,sans-Serif" font-size="10.00">Data.HashFunction.Blake3.</text>
<text text-anchor="middle" x="271.12" y="-692.5" font-family="Helvetica,sans-Serif" font-size="10.00">Hasher.blake3_finalize_del</text>
</a>
</g>
</g>
<!-- Node1&#45;&gt;Node3 -->
<g id="edge2_Node000001_Node000003" class="edge">
<title>Node1&#45;&gt;Node3</title>
<g id="a_edge2_Node000001_Node000003"><a xlink:title=" ">
<path fill="none" stroke="#63b8ff" d="M69.77,-388.43C71.91,-439.39 85.63,-596.22 172.75,-677 178.34,-682.18 184.86,-686.32 191.82,-689.63"/>
<polygon fill="#63b8ff" stroke="#63b8ff" points="190.3,-692.79 200.89,-693.33 192.95,-686.31 190.3,-692.79"/>
</a>
</g>
</g>
<!-- Node4 -->
<g id="Node000004" class="node">
<title>Node4</title>
<g id="a_Node000004"><a xlink:href="class_data_1_1_hash_function_1_1_blake3_1_1_hasher.html#a9f5c8238bb1b8c8b5dd827d8c266f0da" target="_top" xlink:title=" ">
<polygon fill="white" stroke="#666666" points="339.5,-668 202.75,-668 202.75,-624 339.5,-624 339.5,-668"/>
<text text-anchor="start" x="210.75" y="-654.5" font-family="Helvetica,sans-Serif" font-size="10.00">Data.HashFunction.Blake3.</text>
<text text-anchor="start" x="210.75" y="-642.5" font-family="Helvetica,sans-Serif" font-size="10.00">Hasher.blake3_finalize</text>
<text text-anchor="middle" x="271.12" y="-630.5" font-family="Helvetica,sans-Serif" font-size="10.00">_seek_xof_del</text>
</a>
</g>
</g>
<!-- Node1&#45;&gt;Node4 -->
<g id="edge3_Node000001_Node000004" class="edge">
<title>Node1&#45;&gt;Node4</title>
<g id="a_edge3_Node000001_Node000004"><a xlink:title=" ">
<path fill="none" stroke="#63b8ff" d="M71.57,-388.28C78.29,-431.67 102.57,-551.12 172.75,-615 178.44,-620.18 184.99,-624.49 191.95,-628.08"/>
<polygon fill="#63b8ff" stroke="#63b8ff" points="190.46,-631.25 201.01,-632.21 193.37,-624.88 190.46,-631.25"/>
</a>
</g>
</g>
<!-- Node5 -->
<g id="Node000005" class="node">
<title>Node5</title>
<g id="a_Node000005"><a xlink:href="class_data_1_1_hash_function_1_1_blake3_1_1_hasher.html#a68a9b9baa0249779cf6c6b5fcc0a0e34" target="_top" xlink:title=" ">
<polygon fill="white" stroke="#666666" points="339.5,-606 202.75,-606 202.75,-562 339.5,-562 339.5,-606"/>
<text text-anchor="start" x="210.75" y="-592.5" font-family="Helvetica,sans-Serif" font-size="10.00">Data.HashFunction.Blake3.</text>
<text text-anchor="start" x="210.75" y="-580.5" font-family="Helvetica,sans-Serif" font-size="10.00">Hasher.blake3_finalize</text>
<text text-anchor="middle" x="271.12" y="-568.5" font-family="Helvetica,sans-Serif" font-size="10.00">_xof_del</text>
</a>
</g>
</g>
<!-- Node1&#45;&gt;Node5 -->
<g id="edge4_Node000001_Node000005" class="edge">
<title>Node1&#45;&gt;Node5</title>
<g id="a_edge4_Node000001_Node000005"><a xlink:title=" ">
<path fill="none" stroke="#63b8ff" d="M74.22,-388.46C85.51,-423.89 116.9,-507.83 172.75,-553 178.59,-557.72 185.16,-561.73 192.06,-565.13"/>
<polygon fill="#63b8ff" stroke="#63b8ff" points="190.41,-568.23 200.97,-569.08 193.25,-561.83 190.41,-568.23"/>
</a>
</g>
</g>
<!-- Node6 -->
<g id="Node000006" class="node">
<title>Node6</title>
<g id="a_Node000006"><a xlink:href="class_data_1_1_hash_function_1_1_blake3_1_1_hasher.html#a5c6e2e883f5f699bb3f1c5efd6329e86" target="_top" xlink:title=" ">
<polygon fill="white" stroke="#666666" points="339.5,-544 202.75,-544 202.75,-512 339.5,-512 339.5,-544"/>
<text text-anchor="start" x="210.75" y="-530.5" font-family="Helvetica,sans-Serif" font-size="10.00">Data.HashFunction.Blake3.</text>
<text text-anchor="middle" x="271.12" y="-518.5" font-family="Helvetica,sans-Serif" font-size="10.00">Hasher.blake3_hash_del</text>
</a>
</g>
</g>
<!-- Node1&#45;&gt;Node6 -->
<g id="edge5_Node000001_Node000006" class="edge">
<title>Node1&#45;&gt;Node6</title>
<g id="a_edge5_Node000001_Node000006"><a xlink:title=" ">
<path fill="none" stroke="#63b8ff" d="M77.48,-388.08C92.38,-415.96 126.86,-473.13 172.75,-503 178.65,-506.84 185.12,-510.1 191.81,-512.85"/>
<polygon fill="#63b8ff" stroke="#63b8ff" points="190.47,-516.08 201.07,-516.25 192.89,-509.51 190.47,-516.08"/>
</a>
</g>
</g>
<!-- Node7 -->
<g id="Node000007" class="node">
<title>Node7</title>
<g id="a_Node000007"><a xlink:href="class_data_1_1_hash_function_1_1_blake3_1_1_hasher.html#ad33b25786ed25911a0e2243e184a01f6" target="_top" xlink:title=" ">
<polygon fill="white" stroke="#666666" points="359.38,-494 182.88,-494 182.88,-462 359.38,-462 359.38,-494"/>
<text text-anchor="start" x="190.88" y="-480.5" font-family="Helvetica,sans-Serif" font-size="10.00">Data.HashFunction.Blake3.</text>
<text text-anchor="middle" x="271.12" y="-468.5" font-family="Helvetica,sans-Serif" font-size="10.00">Hasher.blake3_hash_preemptive_del</text>
</a>
</g>
</g>
<!-- Node1&#45;&gt;Node7 -->
<g id="edge6_Node000001_Node000007" class="edge">
<title>Node1&#45;&gt;Node7</title>
<g id="a_edge6_Node000001_Node000007"><a xlink:title=" ">
<path fill="none" stroke="#63b8ff" d="M85.79,-388.46C105.01,-406.82 138.6,-436.17 172.75,-453 176,-454.6 179.36,-456.11 182.8,-457.52"/>
<polygon fill="#63b8ff" stroke="#63b8ff" points="181.27,-460.69 191.87,-460.97 183.76,-454.14 181.27,-460.69"/>
</a>
</g>
</g>
<!-- Node8 -->
<g id="Node000008" class="node">
<title>Node8</title>
<g id="a_Node000008"><a xlink:href="class_data_1_1_hash_function_1_1_blake3_1_1_hasher.html#aea989aefa014224e8779949750fd6ef4" target="_top" xlink:title=" ">
<polygon fill="white" stroke="#666666" points="339.5,-444 202.75,-444 202.75,-412 339.5,-412 339.5,-444"/>
<text text-anchor="start" x="210.75" y="-430.5" font-family="Helvetica,sans-Serif" font-size="10.00">Data.HashFunction.Blake3.</text>
<text text-anchor="middle" x="271.12" y="-418.5" font-family="Helvetica,sans-Serif" font-size="10.00">Hasher.blake3_new_del</text>
</a>
</g>
</g>
<!-- Node1&#45;&gt;Node8 -->
<g id="edge7_Node000001_Node000008" class="edge">
<title>Node1&#45;&gt;Node8</title>
<g id="a_edge7_Node000001_Node000008"><a xlink:title=" ">
<path fill="none" stroke="#63b8ff" d="M122.91,-388.5C138.9,-393.31 156.5,-398.48 172.75,-403 179.48,-404.87 186.49,-406.77 193.52,-408.64"/>
<polygon fill="#63b8ff" stroke="#63b8ff" points="192.53,-412 203.09,-411.16 194.31,-405.23 192.53,-412"/>
</a>
</g>
</g>
<!-- Node9 -->
<g id="Node000009" class="node">
<title>Node9</title>
<g id="a_Node000009"><a xlink:href="class_data_1_1_hash_function_1_1_blake3_1_1_hasher.html#a5e0bd3fc3b1f1d2230083edd06082e33" target="_top" xlink:title=" ">
<polygon fill="white" stroke="#666666" points="339.5,-394 202.75,-394 202.75,-350 339.5,-350 339.5,-394"/>
<text text-anchor="start" x="210.75" y="-380.5" font-family="Helvetica,sans-Serif" font-size="10.00">Data.HashFunction.Blake3.</text>
<text text-anchor="start" x="210.75" y="-368.5" font-family="Helvetica,sans-Serif" font-size="10.00">Hasher.blake3_new_derive</text>
<text text-anchor="middle" x="271.12" y="-356.5" font-family="Helvetica,sans-Serif" font-size="10.00">_key_del</text>
</a>
</g>
</g>
<!-- Node1&#45;&gt;Node9 -->
<g id="edge8_Node000001_Node000009" class="edge">
<title>Node1&#45;&gt;Node9</title>
<g id="a_edge8_Node000001_Node000009"><a xlink:title=" ">
<path fill="none" stroke="#63b8ff" d="M137.06,-372C154.42,-372 173.24,-372 191.11,-372"/>
<polygon fill="#63b8ff" stroke="#63b8ff" points="190.88,-375.5 200.88,-372 190.88,-368.5 190.88,-375.5"/>
</a>
</g>
</g>
<!-- Node10 -->
<g id="Node000010" class="node">
<title>Node10</title>
<g id="a_Node000010"><a xlink:href="class_data_1_1_hash_function_1_1_blake3_1_1_hasher.html#a4a8335b7fd73916b8690f34ba00d2fa9" target="_top" xlink:title=" ">
<polygon fill="white" stroke="#666666" points="347,-332 195.25,-332 195.25,-300 347,-300 347,-332"/>
<text text-anchor="start" x="203.25" y="-318.5" font-family="Helvetica,sans-Serif" font-size="10.00">Data.HashFunction.Blake3.</text>
<text text-anchor="middle" x="271.12" y="-306.5" font-family="Helvetica,sans-Serif" font-size="10.00">Hasher.blake3_new_keyed_del</text>
</a>
</g>
</g>
<!-- Node1&#45;&gt;Node10 -->
<g id="edge9_Node000001_Node000010" class="edge">
<title>Node1&#45;&gt;Node10</title>
<g id="a_edge9_Node000001_Node000010"><a xlink:title=" ">
<path fill="none" stroke="#63b8ff" d="M122.91,-355.5C138.9,-350.69 156.5,-345.52 172.75,-341 179.48,-339.13 186.49,-337.23 193.52,-335.36"/>
<polygon fill="#63b8ff" stroke="#63b8ff" points="194.31,-338.77 203.09,-332.84 192.53,-332 194.31,-338.77"/>
</a>
</g>
</g>
<!-- Node11 -->
<g id="Node000011" class="node">
<title>Node11</title>
<g id="a_Node000011"><a xlink:href="class_data_1_1_hash_function_1_1_blake3_1_1_hasher.html#afeaea0d86f16edce6ae92fdb28dd50e3" target="_top" xlink:title=" ">
<polygon fill="white" stroke="#666666" points="339.5,-282 202.75,-282 202.75,-250 339.5,-250 339.5,-282"/>
<text text-anchor="start" x="210.75" y="-268.5" font-family="Helvetica,sans-Serif" font-size="10.00">Data.HashFunction.Blake3.</text>
<text text-anchor="middle" x="271.12" y="-256.5" font-family="Helvetica,sans-Serif" font-size="10.00">Hasher.blake3_reset_del</text>
</a>
</g>
</g>
<!-- Node1&#45;&gt;Node11 -->
<g id="edge10_Node000001_Node000011" class="edge">
<title>Node1&#45;&gt;Node11</title>
<g id="a_edge10_Node000001_Node000011"><a xlink:title=" ">
<path fill="none" stroke="#63b8ff" d="M85.79,-355.54C105.01,-337.18 138.6,-307.83 172.75,-291 178.67,-288.08 184.96,-285.48 191.39,-283.17"/>
<polygon fill="#63b8ff" stroke="#63b8ff" points="192.47,-286.5 200.86,-280.02 190.26,-279.86 192.47,-286.5"/>
</a>
</g>
</g>
<!-- Node12 -->
<g id="Node000012" class="node">
<title>Node12</title>
<g id="a_Node000012"><a xlink:href="class_data_1_1_hash_function_1_1_blake3_1_1_hasher.html#a82c48fb54de5c6bbcacd3ffb1e2ff6d4" target="_top" xlink:title=" ">
<polygon fill="white" stroke="#666666" points="339.5,-232 202.75,-232 202.75,-200 339.5,-200 339.5,-232"/>
<text text-anchor="start" x="210.75" y="-218.5" font-family="Helvetica,sans-Serif" font-size="10.00">Data.HashFunction.Blake3.</text>
<text text-anchor="middle" x="271.12" y="-206.5" font-family="Helvetica,sans-Serif" font-size="10.00">Hasher.blake3_update_del</text>
</a>
</g>
</g>
<!-- Node1&#45;&gt;Node12 -->
<g id="edge11_Node000001_Node000012" class="edge">
<title>Node1&#45;&gt;Node12</title>
<g id="a_edge11_Node000001_Node000012"><a xlink:title=" ">
<path fill="none" stroke="#63b8ff" d="M77.48,-355.92C92.38,-328.04 126.86,-270.87 172.75,-241 178.65,-237.16 185.12,-233.9 191.81,-231.15"/>
<polygon fill="#63b8ff" stroke="#63b8ff" points="192.89,-234.49 201.07,-227.75 190.47,-227.92 192.89,-234.49"/>
</a>
</g>
</g>
<!-- Node13 -->
<g id="Node000013" class="node">
<title>Node13</title>
<g id="a_Node000013"><a xlink:href="class_data_1_1_hash_function_1_1_blake3_1_1_hasher.html#a8b052a85097b1bada787fec22e9a1fdc" target="_top" xlink:title=" ">
<polygon fill="white" stroke="#666666" points="363.5,-182 178.75,-182 178.75,-150 363.5,-150 363.5,-182"/>
<text text-anchor="start" x="186.75" y="-168.5" font-family="Helvetica,sans-Serif" font-size="10.00">Data.HashFunction.Blake3.</text>
<text text-anchor="middle" x="271.12" y="-156.5" font-family="Helvetica,sans-Serif" font-size="10.00">Hasher.blake3_update_preemptive_del</text>
</a>
</g>
</g>
<!-- Node1&#45;&gt;Node13 -->
<g id="edge12_Node000001_Node000013" class="edge">
<title>Node1&#45;&gt;Node13</title>
<g id="a_edge12_Node000001_Node000013"><a xlink:title=" ">
<path fill="none" stroke="#63b8ff" d="M73.95,-355.57C84.79,-319.82 115.49,-234.67 172.75,-191 174.09,-189.97 175.48,-188.99 176.89,-188.05"/>
<polygon fill="#63b8ff" stroke="#63b8ff" points="178.45,-191.19 185.35,-183.14 174.94,-185.13 178.45,-191.19"/>
</a>
</g>
</g>
<!-- Node14 -->
<g id="Node000014" class="node">
<title>Node14</title>
<g id="a_Node000014"><a xlink:href="class_data_1_1_hash_function_1_1_blake3_1_1_hasher.html#af985f5e3c88cb27d88076cc470528c42" target="_top" xlink:title=" ">
<polygon fill="white" stroke="#666666" points="351.5,-132 190.75,-132 190.75,-100 351.5,-100 351.5,-132"/>
<text text-anchor="start" x="198.75" y="-118.5" font-family="Helvetica,sans-Serif" font-size="10.00">Data.HashFunction.Blake3.</text>
<text text-anchor="middle" x="271.12" y="-106.5" font-family="Helvetica,sans-Serif" font-size="10.00">Hasher.blake3_update_rayon_del</text>
</a>
</g>
</g>
<!-- Node1&#45;&gt;Node14 -->
<g id="edge13_Node000001_Node000014" class="edge">
<title>Node1&#45;&gt;Node14</title>
<g id="a_edge13_Node000001_Node000014"><a xlink:title=" ">
<path fill="none" stroke="#63b8ff" d="M71.75,-355.68C78.79,-313.37 103.56,-199.35 172.75,-141 175.25,-138.89 177.91,-136.96 180.69,-135.18"/>
<polygon fill="#63b8ff" stroke="#63b8ff" points="182.15,-138.37 189.21,-130.48 178.77,-132.24 182.15,-138.37"/>
</a>
</g>
</g>
<!-- Node15 -->
<g id="Node000015" class="node">
<title>Node15</title>
<g id="a_Node000015"><a xlink:href="class_data_1_1_hash_function_1_1_core_1_1_library_loader_1_1_native_library_loader.html#ae7fc8592b9e709e52367e2af00e56328" target="_top" xlink:title="Initializes a new instance of NativeLibraryLoader with the given library &#160;parameter.">
<polygon fill="white" stroke="#666666" points="350.75,-82 191.5,-82 191.5,-50 350.75,-50 350.75,-82"/>
<text text-anchor="start" x="199.5" y="-68.5" font-family="Helvetica,sans-Serif" font-size="10.00">Data.HashFunction.Core.Library</text>
<text text-anchor="middle" x="271.12" y="-56.5" font-family="Helvetica,sans-Serif" font-size="10.00">Loader.NativeLibraryLoader.Load</text>
</a>
</g>
</g>
<!-- Node1&#45;&gt;Node15 -->
<g id="edge14_Node000001_Node000015" class="edge">
<title>Node1&#45;&gt;Node15</title>
<g id="a_edge14_Node000001_Node000015"><a xlink:title=" ">
<path fill="none" stroke="#63b8ff" d="M70.29,-355.82C73.91,-307.75 91.37,-164.53 172.75,-91 175.38,-88.62 178.22,-86.46 181.19,-84.5"/>
<polygon fill="#63b8ff" stroke="#63b8ff" points="182.83,-87.59 189.84,-79.64 179.4,-81.49 182.83,-87.59"/>
</a>
</g>
</g>
<!-- Node16 -->
<g id="Node000016" class="node">
<title>Node16</title>
<g id="a_Node000016"><a xlink:href="class_data_1_1_hash_function_1_1_core_1_1_library_loader_1_1_native_library_loader.html#ae43e52670bcb4804edc00b9d59e171f8" target="_top" xlink:title="Tries to load a function with the given name.">
<polygon fill="white" stroke="#666666" points="369.5,-32 172.75,-32 172.75,0 369.5,0 369.5,-32"/>
<text text-anchor="start" x="180.75" y="-18.5" font-family="Helvetica,sans-Serif" font-size="10.00">Data.HashFunction.Core.Library</text>
<text text-anchor="middle" x="271.12" y="-6.5" font-family="Helvetica,sans-Serif" font-size="10.00">Loader.NativeLibraryLoader.LoadFunction</text>
</a>
</g>
</g>
<!-- Node1&#45;&gt;Node16 -->
<g id="edge15_Node000001_Node000016" class="edge">
<title>Node1&#45;&gt;Node16</title>
<g id="a_edge15_Node000001_Node000016"><a xlink:title=" ">
<path fill="none" stroke="#63b8ff" d="M69.26,-355.74C69.82,-302.22 79.12,-129.94 172.75,-41 173.39,-40.39 174.04,-39.8 174.71,-39.22"/>
<polygon fill="#63b8ff" stroke="#63b8ff" points="176.75,-42.06 182.75,-33.33 172.62,-36.41 176.75,-42.06"/>
</a>
</g>
</g>
</g>
</svg>

<g id="navigator" transform="translate(0 0)" fill="#404254">
  <rect fill="#f2f5e9" fill-opacity="0.5" stroke="#606060" stroke-width=".5" x="0" y="0" width="60" height="60"/>
  <use id="zoomplus" xlink:href="#zoomPlus" x="17" y="9" onmousedown="handleZoom(evt,'in')"/>
  <use id="zoomminus" xlink:href="#zoomMin" x="42" y="9" onmousedown="handleZoom(evt,'out')"/>
  <use id="reset" xlink:href="#resetDef" x="30" y="36" onmousedown="handleReset()"/>
   <use id="arrowup" xlink:href="#arrowUp" x="0" y="0" onmousedown="handlePan(0,-1)"/>
  <use id="arrowright" xlink:href="#arrowRight" x="0" y="0" onmousedown="handlePan(1,0)"/>
  <use id="arrowdown" xlink:href="#arrowDown" x="0" y="0" onmousedown="handlePan(0,1)"/>
  <use id="arrowleft" xlink:href="#arrowLeft" x="0" y="0" onmousedown="handlePan(-1,0)"/>
</g>
<svg viewBox="0 0 15 15" width="100%" height="30px" preserveAspectRatio="xMaxYMin meet">
 <g id="arrow_out" transform="scale(0.3 0.3)">
  <a xlink:href="class_data_1_1_hash_function_1_1_blake3_1_1_hasher_a1092f2d1065b4228fe942e2d9481222b_cgraph_org.svg" target="_base">
   <rect id="button" ry="5" rx="5" y="6" x="6" height="38" width="38"
        fill="#f2f5e9" fill-opacity="0.5" stroke="#606060" stroke-width="1.0"/>
   <path id="arrow"
     d="M 11.500037,31.436501 C 11.940474,20.09759 22.043105,11.32322 32.158766,21.979434 L 37.068811,17.246167 C 37.068811,17.246167 37.088388,32 37.088388,32 L 22.160133,31.978069 C 22.160133,31.978069 26.997745,27.140456 26.997745,27.140456 C 18.528582,18.264221 13.291696,25.230495 11.500037,31.436501 z"
     style="fill:#404040;"/>
  </a>
 </g>
</svg>

<style type='text/css'>
<![CDATA[
[data-mouse-over-selected='false'] { opacity: 0.7; }
[data-mouse-over-selected='true']  { opacity: 1.0; }
]]>
</style>
<script type="application/ecmascript"><![CDATA[
document.addEventListener('DOMContentLoaded', (event) => {
  highlightEdges();
  highlightAdjacentNodes();
});
]]></script>
</svg>
