<?xml version="1.0" encoding="UTF-8" standalone="no"?>
<!DOCTYPE svg PUBLIC "-//W3C//DTD SVG 1.1//EN"
 "http://www.w3.org/Graphics/SVG/1.1/DTD/svg11.dtd">
<!-- Generated by graphviz version 12.2.0 (20241103.1931)
 -->
<!-- Title: Data.HashFunction.CityHash.CityHash_Implementation.RotateRight Pages: 1 -->
<!--zoomable 531 -->

<svg id="main" version="1.1" xmlns="http://www.w3.org/2000/svg" xmlns:xlink="http://www.w3.org/1999/xlink" xml:space="preserve" onload="init(evt)">

<style type="text/css"><![CDATA[
.node, .edge {opacity: 0.7;}
.node.selected, .edge.selected {opacity: 1;}
.edge:hover path { stroke: red; }
.edge:hover polygon { stroke: red; fill: red; }
]]></style>

<defs>
  <circle id="rim" cx="0" cy="0" r="7"/>
  <circle id="rim2" cx="0" cy="0" r="3.5"/>
  <g id="zoomPlus">
    <use xlink:href="#rim" fill="#404040"><set attributeName="fill" to="#808080" begin="zoomplus.mouseover" end="zoomplus.mouseout"/></use>
    <path d="M-4,0h8M0,-4v8" fill="none" stroke="white" stroke-width="1.5" pointer-events="none"/>
  </g>
  <g id="zoomMin">
    <use xlink:href="#rim" fill="#404040"><set attributeName="fill" to="#808080" begin="zoomminus.mouseover" end="zoomminus.mouseout"/></use>
    <path d="M-4,0h8" fill="none" stroke="white" stroke-width="1.5" pointer-events="none"/>
  </g>
  <g id="arrowUp" transform="translate(30 24)">
    <use xlink:href="#rim"/>
    <path pointer-events="none" fill="none" stroke="white" stroke-width="1.5" d="M0,-3.0v7 M-2.5,-0.5L0,-3.0L2.5,-0.5"/>
  </g>
  <g id="arrowRight" transform="rotate(90) translate(36 -43)">
    <use xlink:href="#rim"/>
    <path pointer-events="none" fill="none" stroke="white" stroke-width="1.5" d="M0,-3.0v7 M-2.5,-0.5L0,-3.0L2.5,-0.5"/>
  </g>
  <g id="arrowDown" transform="rotate(180) translate(-30 -48)">
    <use xlink:href="#rim"/>
    <path pointer-events="none" fill="none" stroke="white" stroke-width="1.5" d="M0,-3.0v7 M-2.5,-0.5L0,-3.0L2.5,-0.5"/>
  </g>
  <g id="arrowLeft" transform="rotate(270) translate(-36 17)">
    <use xlink:href="#rim"/>
    <path pointer-events="none" fill="none" stroke="white" stroke-width="1.5" d="M0,-3.0v7 M-2.5,-0.5L0,-3.0L2.5,-0.5"/>
  </g>
  <g id="resetDef">
    <use xlink:href="#rim2" fill="#404040"><set attributeName="fill" to="#808080" begin="reset.mouseover" end="reset.mouseout"/></use>
  </g>
</defs>
<script type="application/ecmascript">
var viewWidth = 1330;
var viewHeight = 531;
var sectionId = 'dynsection-38';
</script>
<script type="application/ecmascript" xlink:href="svg.min.js"/>
<svg id="graph" class="graph">
<g id="viewport">
<title>Data.HashFunction.CityHash.CityHash_Implementation.RotateRight</title>
<!-- Node1 -->
<g id="Node000001" class="node">
<title>Node1</title>
<g id="a_Node000001"><a xlink:title=" ">
<polygon fill="#999999" stroke="#666666" points="1321.5,-228 1136.75,-228 1136.75,-196 1321.5,-196 1321.5,-228"/>
<text text-anchor="start" x="1144.75" y="-214.5" font-family="Helvetica,sans-Serif" font-size="10.00">Data.HashFunction.CityHash.</text>
<text text-anchor="middle" x="1229.12" y="-202.5" font-family="Helvetica,sans-Serif" font-size="10.00">CityHash_Implementation.RotateRight</text>
</a>
</g>
</g>
<!-- Node2 -->
<g id="Node000002" class="node">
<title>Node2</title>
<g id="a_Node000002"><a xlink:href="class_data_1_1_hash_function_1_1_city_hash_1_1_city_hash___implementation.html#a92d4c0e8db6ecadfeb5497f3f0fe3efb" target="_top" xlink:title=" ">
<polygon fill="white" stroke="#666666" points="605.25,-309 416,-309 416,-265 605.25,-265 605.25,-309"/>
<text text-anchor="start" x="424" y="-295.5" font-family="Helvetica,sans-Serif" font-size="10.00">Data.HashFunction.CityHash.</text>
<text text-anchor="start" x="424" y="-283.5" font-family="Helvetica,sans-Serif" font-size="10.00">CityHash_Implementation.CityHash128</text>
<text text-anchor="middle" x="510.62" y="-271.5" font-family="Helvetica,sans-Serif" font-size="10.00">WithSeed</text>
</a>
</g>
</g>
<!-- Node1&#45;&gt;Node2 -->
<g id="edge1_Node000001_Node000002" class="edge">
<title>Node1&#45;&gt;Node2</title>
<g id="a_edge1_Node000001_Node000002"><a xlink:title=" ">
<path fill="none" stroke="#63b8ff" d="M1187.7,-233.36C1163.21,-245.3 1130.97,-259.28 1100.75,-267 930.45,-310.5 723.49,-304.63 605.71,-296.06"/>
<polygon fill="#63b8ff" stroke="#63b8ff" points="1188.93,-236.66 1196.33,-229.07 1185.82,-230.39 1188.93,-236.66"/>
</a>
</g>
</g>
<!-- Node5 -->
<g id="Node000005" class="node">
<title>Node5</title>
<g id="a_Node000005"><a xlink:href="class_data_1_1_hash_function_1_1_city_hash_1_1_city_hash___implementation.html#ad8892efa23c2496e411cad38be0766f9" target="_top" xlink:title=" ">
<polygon fill="white" stroke="#666666" points="1100.75,-385 889,-385 889,-353 1100.75,-353 1100.75,-385"/>
<text text-anchor="start" x="897" y="-371.5" font-family="Helvetica,sans-Serif" font-size="10.00">Data.HashFunction.CityHash.</text>
<text text-anchor="middle" x="994.88" y="-359.5" font-family="Helvetica,sans-Serif" font-size="10.00">CityHash_Implementation.Hash32Len25Plus</text>
</a>
</g>
</g>
<!-- Node1&#45;&gt;Node5 -->
<g id="edge4_Node000001_Node000005" class="edge">
<title>Node1&#45;&gt;Node5</title>
<g id="a_edge4_Node000001_Node000005"><a xlink:title=" ">
<path fill="none" stroke="#63b8ff" d="M1209.36,-237.28C1186.71,-266.03 1145.98,-312.42 1100.75,-339 1091.61,-344.37 1081.45,-348.83 1071.15,-352.52"/>
<polygon fill="#63b8ff" stroke="#63b8ff" points="1212.06,-239.51 1215.4,-229.46 1206.52,-235.23 1212.06,-239.51"/>
</a>
</g>
</g>
<!-- Node7 -->
<g id="Node000007" class="node">
<title>Node7</title>
<g id="a_Node000007"><a xlink:href="class_data_1_1_hash_function_1_1_city_hash_1_1_city_hash___implementation.html#ace2758fca35c5ac5a5698e2f1a4aa513" target="_top" xlink:title=" ">
<polygon fill="white" stroke="#666666" points="1097.75,-147 892,-147 892,-115 1097.75,-115 1097.75,-147"/>
<text text-anchor="start" x="900" y="-133.5" font-family="Helvetica,sans-Serif" font-size="10.00">Data.HashFunction.CityHash.</text>
<text text-anchor="middle" x="994.88" y="-121.5" font-family="Helvetica,sans-Serif" font-size="10.00">CityHash_Implementation.Hash64Len0to16</text>
</a>
</g>
</g>
<!-- Node1&#45;&gt;Node7 -->
<g id="edge7_Node000001_Node000007" class="edge">
<title>Node1&#45;&gt;Node7</title>
<g id="a_edge7_Node000001_Node000007"><a xlink:title=" ">
<path fill="none" stroke="#63b8ff" d="M1170.13,-191.77C1130.92,-178.1 1079.8,-160.27 1043.09,-147.47"/>
<polygon fill="#63b8ff" stroke="#63b8ff" points="1168.82,-195.02 1179.42,-195.01 1171.13,-188.41 1168.82,-195.02"/>
</a>
</g>
</g>
<!-- Node10 -->
<g id="Node000010" class="node">
<title>Node10</title>
<g id="a_Node000010"><a xlink:href="class_data_1_1_hash_function_1_1_city_hash_1_1_city_hash___implementation.html#a0b29a1ea9798ffc90ac79ecf0987fc35" target="_top" xlink:title=" ">
<polygon fill="white" stroke="#666666" points="1100.38,-32 889.38,-32 889.38,0 1100.38,0 1100.38,-32"/>
<text text-anchor="start" x="897.38" y="-18.5" font-family="Helvetica,sans-Serif" font-size="10.00">Data.HashFunction.CityHash.</text>
<text text-anchor="middle" x="994.88" y="-6.5" font-family="Helvetica,sans-Serif" font-size="10.00">CityHash_Implementation.Hash64Len17to32</text>
</a>
</g>
</g>
<!-- Node1&#45;&gt;Node10 -->
<g id="edge12_Node000001_Node000010" class="edge">
<title>Node1&#45;&gt;Node10</title>
<g id="a_edge12_Node000001_Node000010"><a xlink:title=" ">
<path fill="none" stroke="#63b8ff" d="M1214.14,-186.11C1193.74,-150.67 1152.53,-87.33 1100.75,-51 1089.83,-43.34 1077.11,-37.26 1064.37,-32.46"/>
<polygon fill="#63b8ff" stroke="#63b8ff" points="1210.86,-187.42 1218.82,-194.41 1216.96,-183.98 1210.86,-187.42"/>
</a>
</g>
</g>
<!-- Node11 -->
<g id="Node000011" class="node">
<title>Node11</title>
<g id="a_Node000011"><a xlink:href="class_data_1_1_hash_function_1_1_city_hash_1_1_city_hash___implementation.html#a395c40851843a781d7c3e4c0ceb07983" target="_top" xlink:title=" ">
<polygon fill="white" stroke="#666666" points="1100.38,-92 889.38,-92 889.38,-60 1100.38,-60 1100.38,-92"/>
<text text-anchor="start" x="897.38" y="-78.5" font-family="Helvetica,sans-Serif" font-size="10.00">Data.HashFunction.CityHash.</text>
<text text-anchor="middle" x="994.88" y="-66.5" font-family="Helvetica,sans-Serif" font-size="10.00">CityHash_Implementation.Hash64Len33to64</text>
</a>
</g>
</g>
<!-- Node1&#45;&gt;Node11 -->
<g id="edge14_Node000001_Node000011" class="edge">
<title>Node1&#45;&gt;Node11</title>
<g id="a_edge14_Node000001_Node000011"><a xlink:title=" ">
<path fill="none" stroke="#63b8ff" d="M1205.04,-187.59C1181.09,-163.6 1141.47,-127.53 1100.75,-106 1090.7,-100.69 1079.61,-96.22 1068.5,-92.49"/>
<polygon fill="#63b8ff" stroke="#63b8ff" points="1202.28,-189.77 1211.78,-194.45 1207.27,-184.87 1202.28,-189.77"/>
</a>
</g>
</g>
<!-- Node12 -->
<g id="Node000012" class="node">
<title>Node12</title>
<g id="a_Node000012"><a xlink:href="class_data_1_1_hash_function_1_1_city_hash_1_1_city_hash___implementation.html#a4cf34ecb496d7caf130c96462e5f47b7" target="_top" xlink:title=" ">
<polygon fill="white" stroke="#666666" points="853,-197 641.25,-197 641.25,-165 853,-165 853,-197"/>
<text text-anchor="start" x="649.25" y="-183.5" font-family="Helvetica,sans-Serif" font-size="10.00">Data.HashFunction.CityHash.</text>
<text text-anchor="middle" x="747.12" y="-171.5" font-family="Helvetica,sans-Serif" font-size="10.00">CityHash_Implementation.Hash64Len65Plus</text>
</a>
</g>
</g>
<!-- Node1&#45;&gt;Node12 -->
<g id="edge16_Node000001_Node000012" class="edge">
<title>Node1&#45;&gt;Node12</title>
<g id="a_edge16_Node000001_Node000012"><a xlink:title=" ">
<path fill="none" stroke="#63b8ff" d="M1125.32,-205.36C1045.1,-200.18 934.09,-193.01 853.28,-187.79"/>
<polygon fill="#63b8ff" stroke="#63b8ff" points="1124.71,-208.83 1134.92,-205.98 1125.16,-201.84 1124.71,-208.83"/>
</a>
</g>
</g>
<!-- Node13 -->
<g id="Node000013" class="node">
<title>Node13</title>
<g id="a_Node000013"><a xlink:href="class_data_1_1_hash_function_1_1_city_hash_1_1_city_hash___implementation.html#a14ecd650e889358aa703defbfcd5f00f" target="_top" xlink:title=" ">
<polygon fill="white" stroke="#666666" points="1069.25,-454 920.5,-454 920.5,-422 1069.25,-422 1069.25,-454"/>
<text text-anchor="start" x="928.5" y="-440.5" font-family="Helvetica,sans-Serif" font-size="10.00">Data.HashFunction.CityHash.</text>
<text text-anchor="middle" x="994.88" y="-428.5" font-family="Helvetica,sans-Serif" font-size="10.00">CityHash_Implementation.Mur</text>
</a>
</g>
</g>
<!-- Node1&#45;&gt;Node13 -->
<g id="edge18_Node000001_Node000013" class="edge">
<title>Node1&#45;&gt;Node13</title>
<g id="a_edge18_Node000001_Node000013"><a xlink:title=" ">
<path fill="none" stroke="#63b8ff" d="M1215.59,-238.69C1196.08,-277.67 1154.97,-350.27 1100.75,-394 1086.23,-405.71 1068.13,-414.78 1051.09,-421.55"/>
<polygon fill="#63b8ff" stroke="#63b8ff" points="1218.71,-240.29 1219.96,-229.77 1212.42,-237.21 1218.71,-240.29"/>
</a>
</g>
</g>
<!-- Node17 -->
<g id="Node000017" class="node">
<title>Node17</title>
<g id="a_Node000017"><a xlink:href="class_data_1_1_hash_function_1_1_city_hash_1_1_city_hash___implementation.html#ad6f6b8fbd54cc87e4cc63bd5b9772bfd" target="_top" xlink:title=" ">
<polygon fill="white" stroke="#666666" points="1085,-258 904.75,-258 904.75,-214 1085,-214 1085,-258"/>
<text text-anchor="start" x="912.75" y="-244.5" font-family="Helvetica,sans-Serif" font-size="10.00">Data.HashFunction.CityHash.</text>
<text text-anchor="start" x="912.75" y="-232.5" font-family="Helvetica,sans-Serif" font-size="10.00">CityHash_Implementation.WeakHash</text>
<text text-anchor="middle" x="994.88" y="-220.5" font-family="Helvetica,sans-Serif" font-size="10.00">Len32WithSeeds</text>
</a>
</g>
</g>
<!-- Node1&#45;&gt;Node17 -->
<g id="edge25_Node000001_Node000017" class="edge">
<title>Node1&#45;&gt;Node17</title>
<g id="a_edge25_Node000001_Node000017"><a xlink:title=" ">
<path fill="none" stroke="#63b8ff" d="M1125.26,-222.63C1112,-224 1098.51,-225.39 1085.48,-226.74"/>
<polygon fill="#63b8ff" stroke="#63b8ff" points="1125.24,-226.15 1134.83,-221.64 1124.52,-219.19 1125.24,-226.15"/>
</a>
</g>
</g>
<!-- Node3 -->
<g id="Node000003" class="node">
<title>Node3</title>
<g id="a_Node000003"><a xlink:href="class_data_1_1_hash_function_1_1_city_hash_1_1_city_hash___implementation.html#ade0382cabc2ec27c01cf6cdc9b833590" target="_top" xlink:title=" ">
<polygon fill="white" stroke="#666666" points="380,-309 208,-309 208,-265 380,-265 380,-309"/>
<text text-anchor="start" x="216" y="-295.5" font-family="Helvetica,sans-Serif" font-size="10.00">Data.HashFunction.CityHash.</text>
<text text-anchor="start" x="216" y="-283.5" font-family="Helvetica,sans-Serif" font-size="10.00">CityHash_Implementation.Compute</text>
<text text-anchor="middle" x="294" y="-271.5" font-family="Helvetica,sans-Serif" font-size="10.00">Hash128</text>
</a>
</g>
</g>
<!-- Node2&#45;&gt;Node3 -->
<g id="edge2_Node000002_Node000003" class="edge">
<title>Node2&#45;&gt;Node3</title>
<g id="a_edge2_Node000002_Node000003"><a xlink:title=" ">
<path fill="none" stroke="#63b8ff" d="M404.37,-287C396.26,-287 388.14,-287 380.19,-287"/>
<polygon fill="#63b8ff" stroke="#63b8ff" points="404.29,-290.5 414.29,-287 404.29,-283.5 404.29,-290.5"/>
</a>
</g>
</g>
<!-- Node4 -->
<g id="Node000004" class="node">
<title>Node4</title>
<g id="a_Node000004"><a xlink:href="class_data_1_1_hash_function_1_1_city_hash_1_1_city_hash___implementation.html#ae936ee82719f44aba970a71e22aa5aea" target="_top" xlink:title=" ">
<polygon fill="white" stroke="#666666" points="172,-309 0,-309 0,-265 172,-265 172,-309"/>
<text text-anchor="start" x="8" y="-295.5" font-family="Helvetica,sans-Serif" font-size="10.00">Data.HashFunction.CityHash.</text>
<text text-anchor="start" x="8" y="-283.5" font-family="Helvetica,sans-Serif" font-size="10.00">CityHash_Implementation.Compute</text>
<text text-anchor="middle" x="86" y="-271.5" font-family="Helvetica,sans-Serif" font-size="10.00">HashInternal</text>
</a>
</g>
</g>
<!-- Node3&#45;&gt;Node4 -->
<g id="edge3_Node000003_Node000004" class="edge">
<title>Node3&#45;&gt;Node4</title>
<g id="a_edge3_Node000003_Node000004"><a xlink:title=" ">
<path fill="none" stroke="#63b8ff" d="M196.37,-287C188.31,-287 180.19,-287 172.21,-287"/>
<polygon fill="#63b8ff" stroke="#63b8ff" points="196.21,-290.5 206.21,-287 196.21,-283.5 196.21,-290.5"/>
</a>
</g>
</g>
<!-- Node6 -->
<g id="Node000006" class="node">
<title>Node6</title>
<g id="a_Node000006"><a xlink:href="class_data_1_1_hash_function_1_1_city_hash_1_1_city_hash___implementation.html#af33356b76ad4ef5d565727b377ee65a2" target="_top" xlink:title=" ">
<polygon fill="white" stroke="#666666" points="596.62,-429 424.62,-429 424.62,-385 596.62,-385 596.62,-429"/>
<text text-anchor="start" x="432.62" y="-415.5" font-family="Helvetica,sans-Serif" font-size="10.00">Data.HashFunction.CityHash.</text>
<text text-anchor="start" x="432.62" y="-403.5" font-family="Helvetica,sans-Serif" font-size="10.00">CityHash_Implementation.Compute</text>
<text text-anchor="middle" x="510.62" y="-391.5" font-family="Helvetica,sans-Serif" font-size="10.00">Hash32</text>
</a>
</g>
</g>
<!-- Node5&#45;&gt;Node6 -->
<g id="edge5_Node000005_Node000006" class="edge">
<title>Node5&#45;&gt;Node6</title>
<g id="a_edge5_Node000005_Node000006"><a xlink:title=" ">
<path fill="none" stroke="#63b8ff" d="M877.32,-368.81C808.46,-369.81 719.66,-373.05 641.25,-382 626.9,-383.64 611.77,-385.98 597.1,-388.59"/>
<polygon fill="#63b8ff" stroke="#63b8ff" points="877.17,-372.31 887.12,-368.68 877.08,-365.31 877.17,-372.31"/>
</a>
</g>
</g>
<!-- Node6&#45;&gt;Node4 -->
<g id="edge6_Node000006_Node000004" class="edge">
<title>Node6&#45;&gt;Node4</title>
<g id="a_edge6_Node000006_Node000004"><a xlink:title=" ">
<path fill="none" stroke="#63b8ff" d="M419.75,-381.48C344.46,-360.1 238.03,-329.88 165.97,-309.42"/>
<polygon fill="#63b8ff" stroke="#63b8ff" points="418.6,-384.79 429.17,-384.16 420.51,-378.06 418.6,-384.79"/>
</a>
</g>
</g>
<!-- Node8 -->
<g id="Node000008" class="node">
<title>Node8</title>
<g id="a_Node000008"><a xlink:href="class_data_1_1_hash_function_1_1_city_hash_1_1_city_hash___implementation.html#ad44ecf3b0ac0c86d3791f37b762f4b39" target="_top" xlink:title=" ">
<polygon fill="white" stroke="#666666" points="838.75,-147 655.5,-147 655.5,-115 838.75,-115 838.75,-147"/>
<text text-anchor="start" x="663.5" y="-133.5" font-family="Helvetica,sans-Serif" font-size="10.00">Data.HashFunction.CityHash.</text>
<text text-anchor="middle" x="747.12" y="-121.5" font-family="Helvetica,sans-Serif" font-size="10.00">CityHash_Implementation.CityMurmur</text>
</a>
</g>
</g>
<!-- Node7&#45;&gt;Node8 -->
<g id="edge8_Node000007_Node000008" class="edge">
<title>Node7&#45;&gt;Node8</title>
<g id="a_edge8_Node000007_Node000008"><a xlink:title=" ">
<path fill="none" stroke="#63b8ff" d="M880.63,-131C866.65,-131 852.5,-131 838.91,-131"/>
<polygon fill="#63b8ff" stroke="#63b8ff" points="880.28,-134.5 890.28,-131 880.28,-127.5 880.28,-134.5"/>
</a>
</g>
</g>
<!-- Node9 -->
<g id="Node000009" class="node">
<title>Node9</title>
<g id="a_Node000009"><a xlink:href="class_data_1_1_hash_function_1_1_city_hash_1_1_city_hash___implementation.html#a51fdde3f82eb15dccb6cdb1b3f47c557" target="_top" xlink:title=" ">
<polygon fill="white" stroke="#666666" points="596.62,-109 424.62,-109 424.62,-65 596.62,-65 596.62,-109"/>
<text text-anchor="start" x="432.62" y="-95.5" font-family="Helvetica,sans-Serif" font-size="10.00">Data.HashFunction.CityHash.</text>
<text text-anchor="start" x="432.62" y="-83.5" font-family="Helvetica,sans-Serif" font-size="10.00">CityHash_Implementation.Compute</text>
<text text-anchor="middle" x="510.62" y="-71.5" font-family="Helvetica,sans-Serif" font-size="10.00">Hash64</text>
</a>
</g>
</g>
<!-- Node7&#45;&gt;Node9 -->
<g id="edge10_Node000007_Node000009" class="edge">
<title>Node7&#45;&gt;Node9</title>
<g id="a_edge10_Node000007_Node000009"><a xlink:title=" ">
<path fill="none" stroke="#63b8ff" d="M899.5,-112.64C884.01,-110.09 868.09,-107.75 853,-106 766.18,-95.92 666.29,-91.15 597.09,-88.91"/>
<polygon fill="#63b8ff" stroke="#63b8ff" points="898.75,-116.07 909.2,-114.28 899.92,-109.16 898.75,-116.07"/>
</a>
</g>
</g>
<!-- Node8&#45;&gt;Node2 -->
<g id="edge9_Node000008_Node000002" class="edge">
<title>Node8&#45;&gt;Node2</title>
<g id="a_edge9_Node000008_Node000002"><a xlink:title=" ">
<path fill="none" stroke="#63b8ff" d="M649.07,-151.96C646.4,-153.23 643.78,-154.57 641.25,-156 592.17,-183.61 549.31,-235.17 527.31,-264.7"/>
<polygon fill="#63b8ff" stroke="#63b8ff" points="650.42,-155.19 658.24,-148.04 647.67,-148.75 650.42,-155.19"/>
</a>
</g>
</g>
<!-- Node9&#45;&gt;Node4 -->
<g id="edge11_Node000009_Node000004" class="edge">
<title>Node9&#45;&gt;Node4</title>
<g id="a_edge11_Node000009_Node000004"><a xlink:title=" ">
<path fill="none" stroke="#63b8ff" d="M452.21,-114.17C367.95,-154.05 212.34,-227.69 134.27,-264.63"/>
<polygon fill="#63b8ff" stroke="#63b8ff" points="453.46,-117.45 461.01,-110.01 450.47,-111.12 453.46,-117.45"/>
</a>
</g>
</g>
<!-- Node10&#45;&gt;Node9 -->
<g id="edge13_Node000010_Node000009" class="edge">
<title>Node10&#45;&gt;Node9</title>
<g id="a_edge13_Node000010_Node000009"><a xlink:title=" ">
<path fill="none" stroke="#63b8ff" d="M877.96,-31.85C809.12,-41.41 720.15,-54.02 641.25,-66 626.94,-68.17 611.75,-70.56 597,-72.92"/>
<polygon fill="#63b8ff" stroke="#63b8ff" points="878.34,-35.33 887.76,-30.49 877.37,-28.4 878.34,-35.33"/>
</a>
</g>
</g>
<!-- Node11&#45;&gt;Node9 -->
<g id="edge15_Node000011_Node000009" class="edge">
<title>Node11&#45;&gt;Node9</title>
<g id="a_edge15_Node000011_Node000009"><a xlink:title=" ">
<path fill="none" stroke="#63b8ff" d="M877.58,-71.38C808.8,-69.55 720.01,-68.76 641.25,-73 626.9,-73.77 611.69,-75.02 596.93,-76.47"/>
<polygon fill="#63b8ff" stroke="#63b8ff" points="877.27,-74.87 887.36,-71.65 877.46,-67.87 877.27,-74.87"/>
</a>
</g>
</g>
<!-- Node12&#45;&gt;Node9 -->
<g id="edge17_Node000012_Node000009" class="edge">
<title>Node12&#45;&gt;Node9</title>
<g id="a_edge17_Node000012_Node000009"><a xlink:title=" ">
<path fill="none" stroke="#63b8ff" d="M656.52,-161.28C651.31,-159.63 646.19,-157.87 641.25,-156 608.22,-143.51 572.99,-124.34 547.61,-109.37"/>
<polygon fill="#63b8ff" stroke="#63b8ff" points="655.26,-164.56 665.84,-164.09 657.27,-157.85 655.26,-164.56"/>
</a>
</g>
</g>
<!-- Node14 -->
<g id="Node000014" class="node">
<title>Node14</title>
<g id="a_Node000014"><a xlink:href="class_data_1_1_hash_function_1_1_city_hash_1_1_city_hash___implementation.html#a4b79a115075541321d2687daaf1efc7b" target="_top" xlink:title=" ">
<polygon fill="white" stroke="#666666" points="847.38,-423 646.88,-423 646.88,-391 847.38,-391 847.38,-423"/>
<text text-anchor="start" x="654.88" y="-409.5" font-family="Helvetica,sans-Serif" font-size="10.00">Data.HashFunction.CityHash.</text>
<text text-anchor="middle" x="747.12" y="-397.5" font-family="Helvetica,sans-Serif" font-size="10.00">CityHash_Implementation.Hash32Len0to4</text>
</a>
</g>
</g>
<!-- Node13&#45;&gt;Node14 -->
<g id="edge19_Node000013_Node000014" class="edge">
<title>Node13&#45;&gt;Node14</title>
<g id="a_edge19_Node000013_Node000014"><a xlink:title=" ">
<path fill="none" stroke="#63b8ff" d="M908.74,-427.26C889.06,-424.78 867.95,-422.12 847.72,-419.56"/>
<polygon fill="#63b8ff" stroke="#63b8ff" points="908.28,-430.73 918.64,-428.51 909.16,-423.79 908.28,-430.73"/>
</a>
</g>
</g>
<!-- Node15 -->
<g id="Node000015" class="node">
<title>Node15</title>
<g id="a_Node000015"><a xlink:href="class_data_1_1_hash_function_1_1_city_hash_1_1_city_hash___implementation.html#a233e906310a9faef162a4a9749f3f846" target="_top" xlink:title=" ">
<polygon fill="white" stroke="#666666" points="852.62,-523 641.62,-523 641.62,-491 852.62,-491 852.62,-523"/>
<text text-anchor="start" x="649.62" y="-509.5" font-family="Helvetica,sans-Serif" font-size="10.00">Data.HashFunction.CityHash.</text>
<text text-anchor="middle" x="747.12" y="-497.5" font-family="Helvetica,sans-Serif" font-size="10.00">CityHash_Implementation.Hash32Len13to24</text>
</a>
</g>
</g>
<!-- Node13&#45;&gt;Node15 -->
<g id="edge21_Node000013_Node000015" class="edge">
<title>Node13&#45;&gt;Node15</title>
<g id="a_edge21_Node000013_Node000015"><a xlink:title=" ">
<path fill="none" stroke="#63b8ff" d="M933.53,-457.85C908.7,-465.75 879.58,-474.69 853,-482 842.44,-484.9 831.23,-487.79 820.22,-490.5"/>
<polygon fill="#63b8ff" stroke="#63b8ff" points="934.35,-461.26 942.8,-454.88 932.21,-454.59 934.35,-461.26"/>
</a>
</g>
</g>
<!-- Node16 -->
<g id="Node000016" class="node">
<title>Node16</title>
<g id="a_Node000016"><a xlink:href="class_data_1_1_hash_function_1_1_city_hash_1_1_city_hash___implementation.html#a40769fc2a4242c2337664fac2f97af9e" target="_top" xlink:title=" ">
<polygon fill="white" stroke="#666666" points="850,-473 644.25,-473 644.25,-441 850,-441 850,-473"/>
<text text-anchor="start" x="652.25" y="-459.5" font-family="Helvetica,sans-Serif" font-size="10.00">Data.HashFunction.CityHash.</text>
<text text-anchor="middle" x="747.12" y="-447.5" font-family="Helvetica,sans-Serif" font-size="10.00">CityHash_Implementation.Hash32Len5to12</text>
</a>
</g>
</g>
<!-- Node13&#45;&gt;Node16 -->
<g id="edge23_Node000013_Node000016" class="edge">
<title>Node13&#45;&gt;Node16</title>
<g id="a_edge23_Node000013_Node000016"><a xlink:title=" ">
<path fill="none" stroke="#63b8ff" d="M908.9,-444.57C890.06,-446.03 869.89,-447.59 850.43,-449.09"/>
<polygon fill="#63b8ff" stroke="#63b8ff" points="908.93,-448.08 918.63,-443.82 908.39,-441.1 908.93,-448.08"/>
</a>
</g>
</g>
<!-- Node14&#45;&gt;Node6 -->
<g id="edge20_Node000014_Node000006" class="edge">
<title>Node14&#45;&gt;Node6</title>
<g id="a_edge20_Node000014_Node000006"><a xlink:title=" ">
<path fill="none" stroke="#63b8ff" d="M635.33,-407C622.38,-407 609.31,-407 596.78,-407"/>
<polygon fill="#63b8ff" stroke="#63b8ff" points="635.16,-410.5 645.16,-407 635.16,-403.5 635.16,-410.5"/>
</a>
</g>
</g>
<!-- Node15&#45;&gt;Node6 -->
<g id="edge22_Node000015_Node000006" class="edge">
<title>Node15&#45;&gt;Node6</title>
<g id="a_edge22_Node000015_Node000006"><a xlink:title=" ">
<path fill="none" stroke="#63b8ff" d="M655.55,-487.19C650.67,-485.57 645.87,-483.84 641.25,-482 606.35,-468.09 569.55,-445.99 544.11,-429.37"/>
<polygon fill="#63b8ff" stroke="#63b8ff" points="654.3,-490.47 664.89,-490.12 656.39,-483.79 654.3,-490.47"/>
</a>
</g>
</g>
<!-- Node16&#45;&gt;Node6 -->
<g id="edge24_Node000016_Node000006" class="edge">
<title>Node16&#45;&gt;Node6</title>
<g id="a_edge24_Node000016_Node000006"><a xlink:title=" ">
<path fill="none" stroke="#63b8ff" d="M657.76,-438.16C637.82,-433.91 616.69,-429.4 596.88,-425.18"/>
<polygon fill="#63b8ff" stroke="#63b8ff" points="657.03,-441.58 667.54,-440.24 658.49,-434.73 657.03,-441.58"/>
</a>
</g>
</g>
<!-- Node17&#45;&gt;Node2 -->
<g id="edge26_Node000017_Node000002" class="edge">
<title>Node17&#45;&gt;Node2</title>
<g id="a_edge26_Node000017_Node000002"><a xlink:title=" ">
<path fill="none" stroke="#63b8ff" d="M894.55,-260.74C880.67,-263.56 866.52,-266.1 853,-268 769.82,-279.68 674.3,-284.25 605.49,-286.01"/>
<polygon fill="#63b8ff" stroke="#63b8ff" points="895.07,-264.21 904.14,-258.74 893.63,-257.36 895.07,-264.21"/>
</a>
</g>
</g>
<!-- Node17&#45;&gt;Node12 -->
<g id="edge27_Node000017_Node000012" class="edge">
<title>Node17&#45;&gt;Node12</title>
<g id="a_edge27_Node000017_Node000012"><a xlink:title=" ">
<path fill="none" stroke="#63b8ff" d="M893.52,-213.54C869.5,-208.16 844.29,-202.52 821.74,-197.48"/>
<polygon fill="#63b8ff" stroke="#63b8ff" points="892.46,-216.89 902.98,-215.66 893.99,-210.06 892.46,-216.89"/>
</a>
</g>
</g>
<!-- Node18 -->
<g id="Node000018" class="node">
<title>Node18</title>
<g id="a_Node000018"><a xlink:href="class_data_1_1_hash_function_1_1_city_hash_1_1_city_hash___implementation.html#ad0b30a66fd8672ee94498a714609024c" target="_top" xlink:title=" ">
<polygon fill="white" stroke="#666666" points="837.25,-259 657,-259 657,-215 837.25,-215 837.25,-259"/>
<text text-anchor="start" x="665" y="-245.5" font-family="Helvetica,sans-Serif" font-size="10.00">Data.HashFunction.CityHash.</text>
<text text-anchor="start" x="665" y="-233.5" font-family="Helvetica,sans-Serif" font-size="10.00">CityHash_Implementation.WeakHash</text>
<text text-anchor="middle" x="747.12" y="-221.5" font-family="Helvetica,sans-Serif" font-size="10.00">Len32WithSeeds</text>
</a>
</g>
</g>
<!-- Node17&#45;&gt;Node18 -->
<g id="edge28_Node000017_Node000018" class="edge">
<title>Node17&#45;&gt;Node18</title>
<g id="a_edge28_Node000017_Node000018"><a xlink:title=" ">
<path fill="none" stroke="#63b8ff" d="M893.09,-236.41C874.66,-236.49 855.54,-236.56 837.47,-236.64"/>
<polygon fill="#63b8ff" stroke="#63b8ff" points="892.96,-239.91 902.94,-236.37 892.93,-232.91 892.96,-239.91"/>
</a>
</g>
</g>
</g>
</svg>

<g id="navigator" transform="translate(0 0)" fill="#404254">
  <rect fill="#f2f5e9" fill-opacity="0.5" stroke="#606060" stroke-width=".5" x="0" y="0" width="60" height="60"/>
  <use id="zoomplus" xlink:href="#zoomPlus" x="17" y="9" onmousedown="handleZoom(evt,'in')"/>
  <use id="zoomminus" xlink:href="#zoomMin" x="42" y="9" onmousedown="handleZoom(evt,'out')"/>
  <use id="reset" xlink:href="#resetDef" x="30" y="36" onmousedown="handleReset()"/>
   <use id="arrowup" xlink:href="#arrowUp" x="0" y="0" onmousedown="handlePan(0,-1)"/>
  <use id="arrowright" xlink:href="#arrowRight" x="0" y="0" onmousedown="handlePan(1,0)"/>
  <use id="arrowdown" xlink:href="#arrowDown" x="0" y="0" onmousedown="handlePan(0,1)"/>
  <use id="arrowleft" xlink:href="#arrowLeft" x="0" y="0" onmousedown="handlePan(-1,0)"/>
</g>
<svg viewBox="0 0 15 15" width="100%" height="30px" preserveAspectRatio="xMaxYMin meet">
 <g id="arrow_out" transform="scale(0.3 0.3)">
  <a xlink:href="class_data_1_1_hash_function_1_1_city_hash_1_1_city_hash___implementation_a054a2a634a2a60c58844d08986eef674_icgraph_org.svg" target="_base">
   <rect id="button" ry="5" rx="5" y="6" x="6" height="38" width="38"
        fill="#f2f5e9" fill-opacity="0.5" stroke="#606060" stroke-width="1.0"/>
   <path id="arrow"
     d="M 11.500037,31.436501 C 11.940474,20.09759 22.043105,11.32322 32.158766,21.979434 L 37.068811,17.246167 C 37.068811,17.246167 37.088388,32 37.088388,32 L 22.160133,31.978069 C 22.160133,31.978069 26.997745,27.140456 26.997745,27.140456 C 18.528582,18.264221 13.291696,25.230495 11.500037,31.436501 z"
     style="fill:#404040;"/>
  </a>
 </g>
</svg>

<style type='text/css'>
<![CDATA[
[data-mouse-over-selected='false'] { opacity: 0.7; }
[data-mouse-over-selected='true']  { opacity: 1.0; }
]]>
</style>
<script type="application/ecmascript"><![CDATA[
document.addEventListener('DOMContentLoaded', (event) => {
  highlightEdges();
  highlightAdjacentNodes();
});
]]></script>
</svg>
