<?xml version="1.0" encoding="UTF-8" standalone="no"?>
<!DOCTYPE svg PUBLIC "-//W3C//DTD SVG 1.1//EN"
 "http://www.w3.org/Graphics/SVG/1.1/DTD/svg11.dtd">
<!-- Generated by graphviz version 12.2.0 (20241103.1931)
 -->
<!-- Title: Data.HashFunction.Core.LibraryLoader.NativeLibraryLoader.WindowsNativeLibrary Pages: 1 -->
<svg width="187pt" height="164pt"
 viewBox="0.00 0.00 186.75 164.00" xmlns="http://www.w3.org/2000/svg" xmlns:xlink="http://www.w3.org/1999/xlink">
<g id="graph0" class="graph" transform="scale(1 1) rotate(0) translate(4 160)">
<title>Data.HashFunction.Core.LibraryLoader.NativeLibraryLoader.WindowsNativeLibrary</title>
<!-- Node1 -->
<g id="Node000001" class="node">
<title>Node1</title>
<g id="a_Node000001"><a xlink:title=" ">
<polygon fill="#999999" stroke="#666666" points="178.75,-44 0,-44 0,0 178.75,0 178.75,-44"/>
<text text-anchor="start" x="8" y="-30.5" font-family="Helvetica,sans-Serif" font-size="10.00">Data.HashFunction.Core.Library</text>
<text text-anchor="start" x="8" y="-18.5" font-family="Helvetica,sans-Serif" font-size="10.00">Loader.NativeLibraryLoader.Windows</text>
<text text-anchor="middle" x="89.38" y="-6.5" font-family="Helvetica,sans-Serif" font-size="10.00">NativeLibrary</text>
</a>
</g>
</g>
<!-- Node2 -->
<g id="Node000002" class="node">
<title>Node2</title>
<g id="a_Node000002"><a xlink:href="class_data_1_1_hash_function_1_1_core_1_1_library_loader_1_1_native_library_loader.html" target="_top" xlink:title="Native library loader for fast native parts of some hash algorithms.">
<polygon fill="white" stroke="#666666" points="140.88,-100 37.88,-100 37.88,-80 140.88,-80 140.88,-100"/>
<text text-anchor="middle" x="89.38" y="-86.5" font-family="Helvetica,sans-Serif" font-size="10.00">NativeLibraryLoader</text>
</a>
</g>
</g>
<!-- Node2&#45;&gt;Node1 -->
<g id="edge1_Node000001_Node000002" class="edge">
<title>Node2&#45;&gt;Node1</title>
<g id="a_edge1_Node000001_Node000002"><a xlink:title=" ">
<path fill="none" stroke="#63b8ff" d="M89.38,-68.1C89.38,-60.55 89.38,-52.02 89.38,-44.43"/>
<polygon fill="#63b8ff" stroke="#63b8ff" points="85.88,-68.03 89.38,-78.03 92.88,-68.03 85.88,-68.03"/>
</a>
</g>
</g>
<!-- Node3 -->
<g id="Node000003" class="node">
<title>Node3</title>
<g id="a_Node000003"><a xlink:title=" ">
<polygon fill="white" stroke="#666666" points="123.25,-156 55.5,-156 55.5,-136 123.25,-136 123.25,-156"/>
<text text-anchor="middle" x="89.38" y="-142.5" font-family="Helvetica,sans-Serif" font-size="10.00">IDisposable</text>
</a>
</g>
</g>
<!-- Node3&#45;&gt;Node2 -->
<g id="edge2_Node000002_Node000003" class="edge">
<title>Node3&#45;&gt;Node2</title>
<g id="a_edge2_Node000002_Node000003"><a xlink:title=" ">
<path fill="none" stroke="#63b8ff" d="M89.38,-124.13C89.38,-115.9 89.38,-106.85 89.38,-100.3"/>
<polygon fill="#63b8ff" stroke="#63b8ff" points="85.88,-124.08 89.38,-134.08 92.88,-124.08 85.88,-124.08"/>
</a>
</g>
</g>
</g>
</svg>
