<?xml version="1.0" encoding="UTF-8" standalone="no"?>
<!DOCTYPE svg PUBLIC "-//W3C//DTD SVG 1.1//EN"
 "http://www.w3.org/Graphics/SVG/1.1/DTD/svg11.dtd">
<!-- Generated by graphviz version 12.2.0 (20241103.1931)
 -->
<!-- Title: Data.HashFunction.CityHash.CityHash_Implementation.ComputeHashInternal Pages: 1 -->
<svg width="1535pt" height="605pt"
 viewBox="0.00 0.00 1534.50 605.47" xmlns="http://www.w3.org/2000/svg" xmlns:xlink="http://www.w3.org/1999/xlink">
<g id="graph0" class="graph" transform="scale(1 1) rotate(0) translate(4 601.47)">
<title>Data.HashFunction.CityHash.CityHash_Implementation.ComputeHashInternal</title>
<!-- Node1 -->
<g id="Node000001" class="node">
<title>Node1</title>
<g id="a_Node000001"><a xlink:title=" ">
<polygon fill="#999999" stroke="#666666" points="172,-290.47 0,-290.47 0,-246.47 172,-246.47 172,-290.47"/>
<text text-anchor="start" x="8" y="-276.97" font-family="Helvetica,sans-Serif" font-size="10.00">Data.HashFunction.CityHash.</text>
<text text-anchor="start" x="8" y="-264.97" font-family="Helvetica,sans-Serif" font-size="10.00">CityHash_Implementation.Compute</text>
<text text-anchor="middle" x="86" y="-252.97" font-family="Helvetica,sans-Serif" font-size="10.00">HashInternal</text>
</a>
</g>
</g>
<!-- Node2 -->
<g id="Node000002" class="node">
<title>Node2</title>
<g id="a_Node000002"><a xlink:href="class_data_1_1_hash_function_1_1_city_hash_1_1_city_hash___implementation.html#ade0382cabc2ec27c01cf6cdc9b833590" target="_top" xlink:title=" ">
<polygon fill="white" stroke="#666666" points="380,-199.47 208,-199.47 208,-155.47 380,-155.47 380,-199.47"/>
<text text-anchor="start" x="216" y="-185.97" font-family="Helvetica,sans-Serif" font-size="10.00">Data.HashFunction.CityHash.</text>
<text text-anchor="start" x="216" y="-173.97" font-family="Helvetica,sans-Serif" font-size="10.00">CityHash_Implementation.Compute</text>
<text text-anchor="middle" x="294" y="-161.97" font-family="Helvetica,sans-Serif" font-size="10.00">Hash128</text>
</a>
</g>
</g>
<!-- Node1&#45;&gt;Node2 -->
<g id="edge1_Node000001_Node000002" class="edge">
<title>Node1&#45;&gt;Node2</title>
<g id="a_edge1_Node000001_Node000002"><a xlink:title=" ">
<path fill="none" stroke="#63b8ff" d="M137.92,-245.98C166.38,-233.41 202.03,-217.66 231.98,-204.43"/>
<polygon fill="#63b8ff" stroke="#63b8ff" points="233.19,-207.72 240.92,-200.48 230.36,-201.32 233.19,-207.72"/>
</a>
</g>
</g>
<!-- Node11 -->
<g id="Node000011" class="node">
<title>Node11</title>
<g id="a_Node000011"><a xlink:href="class_data_1_1_hash_function_1_1_city_hash_1_1_city_hash___implementation.html#af33356b76ad4ef5d565727b377ee65a2" target="_top" xlink:title=" ">
<polygon fill="white" stroke="#666666" points="818.88,-503.47 646.88,-503.47 646.88,-459.47 818.88,-459.47 818.88,-503.47"/>
<text text-anchor="start" x="654.88" y="-489.97" font-family="Helvetica,sans-Serif" font-size="10.00">Data.HashFunction.CityHash.</text>
<text text-anchor="start" x="654.88" y="-477.97" font-family="Helvetica,sans-Serif" font-size="10.00">CityHash_Implementation.Compute</text>
<text text-anchor="middle" x="732.88" y="-465.97" font-family="Helvetica,sans-Serif" font-size="10.00">Hash32</text>
</a>
</g>
</g>
<!-- Node1&#45;&gt;Node11 -->
<g id="edge15_Node000001_Node000011" class="edge">
<title>Node1&#45;&gt;Node11</title>
<g id="a_edge15_Node000001_Node000011"><a xlink:title=" ">
<path fill="none" stroke="#63b8ff" d="M155.1,-290.97C275.59,-330.76 525.65,-413.36 653.26,-455.51"/>
<polygon fill="#63b8ff" stroke="#63b8ff" points="652.07,-458.8 662.66,-458.61 654.26,-452.15 652.07,-458.8"/>
</a>
</g>
</g>
<!-- Node19 -->
<g id="Node000019" class="node">
<title>Node19</title>
<g id="a_Node000019"><a xlink:href="class_data_1_1_hash_function_1_1_city_hash_1_1_city_hash___implementation.html#a51fdde3f82eb15dccb6cdb1b3f47c557" target="_top" xlink:title=" ">
<polygon fill="white" stroke="#666666" points="818.88,-290.47 646.88,-290.47 646.88,-246.47 818.88,-246.47 818.88,-290.47"/>
<text text-anchor="start" x="654.88" y="-276.97" font-family="Helvetica,sans-Serif" font-size="10.00">Data.HashFunction.CityHash.</text>
<text text-anchor="start" x="654.88" y="-264.97" font-family="Helvetica,sans-Serif" font-size="10.00">CityHash_Implementation.Compute</text>
<text text-anchor="middle" x="732.88" y="-252.97" font-family="Helvetica,sans-Serif" font-size="10.00">Hash64</text>
</a>
</g>
</g>
<!-- Node1&#45;&gt;Node19 -->
<g id="edge30_Node000001_Node000019" class="edge">
<title>Node1&#45;&gt;Node19</title>
<g id="a_edge30_Node000001_Node000019"><a xlink:title=" ">
<path fill="none" stroke="#63b8ff" d="M172.3,-268.47C292.05,-268.47 509.4,-268.47 635.06,-268.47"/>
<polygon fill="#63b8ff" stroke="#63b8ff" points="635.05,-271.97 645.05,-268.47 635.05,-264.97 635.05,-271.97"/>
</a>
</g>
</g>
<!-- Node3 -->
<g id="Node000003" class="node">
<title>Node3</title>
<g id="a_Node000003"><a xlink:href="class_data_1_1_hash_function_1_1_city_hash_1_1_city_hash___implementation.html#a92d4c0e8db6ecadfeb5497f3f0fe3efb" target="_top" xlink:title=" ">
<polygon fill="white" stroke="#666666" points="605.25,-133.47 416,-133.47 416,-89.47 605.25,-89.47 605.25,-133.47"/>
<text text-anchor="start" x="424" y="-119.97" font-family="Helvetica,sans-Serif" font-size="10.00">Data.HashFunction.CityHash.</text>
<text text-anchor="start" x="424" y="-107.97" font-family="Helvetica,sans-Serif" font-size="10.00">CityHash_Implementation.CityHash128</text>
<text text-anchor="middle" x="510.62" y="-95.97" font-family="Helvetica,sans-Serif" font-size="10.00">WithSeed</text>
</a>
</g>
</g>
<!-- Node2&#45;&gt;Node3 -->
<g id="edge2_Node000002_Node000003" class="edge">
<title>Node2&#45;&gt;Node3</title>
<g id="a_edge2_Node000002_Node000003"><a xlink:title=" ">
<path fill="none" stroke="#63b8ff" d="M367.96,-155.04C386.54,-149.33 406.65,-143.14 425.72,-137.28"/>
<polygon fill="#63b8ff" stroke="#63b8ff" points="426.52,-140.69 435.05,-134.41 424.47,-134 426.52,-140.69"/>
</a>
</g>
</g>
<!-- Node4 -->
<g id="Node000004" class="node">
<title>Node4</title>
<g id="a_Node000004"><a xlink:href="class_data_1_1_hash_function_1_1_city_hash_1_1_city_hash___implementation.html#ad44ecf3b0ac0c86d3791f37b762f4b39" target="_top" xlink:title=" ">
<polygon fill="white" stroke="#666666" points="824.5,-212.47 641.25,-212.47 641.25,-180.47 824.5,-180.47 824.5,-212.47"/>
<text text-anchor="start" x="649.25" y="-198.97" font-family="Helvetica,sans-Serif" font-size="10.00">Data.HashFunction.CityHash.</text>
<text text-anchor="middle" x="732.88" y="-186.97" font-family="Helvetica,sans-Serif" font-size="10.00">CityHash_Implementation.CityMurmur</text>
</a>
</g>
</g>
<!-- Node3&#45;&gt;Node4 -->
<g id="edge3_Node000003_Node000004" class="edge">
<title>Node3&#45;&gt;Node4</title>
<g id="a_edge3_Node000003_Node000004"><a xlink:title=" ">
<path fill="none" stroke="#63b8ff" d="M569.78,-133.92C603.71,-147.01 646.17,-163.4 679.12,-176.12"/>
<polygon fill="#63b8ff" stroke="#63b8ff" points="677.46,-179.23 688.05,-179.56 679.98,-172.7 677.46,-179.23"/>
</a>
</g>
</g>
<!-- Node6 -->
<g id="Node000006" class="node">
<title>Node6</title>
<g id="a_Node000006"><a xlink:href="class_data_1_1_hash_function_1_1_city_hash_1_1_city_hash___implementation.html#a44c7f6a47b61dd01499fa3ffd79fba5c" target="_top" xlink:title=" ">
<polygon fill="white" stroke="#666666" points="1300.5,-189.47 1108.25,-189.47 1108.25,-157.47 1300.5,-157.47 1300.5,-189.47"/>
<text text-anchor="start" x="1116.25" y="-175.97" font-family="Helvetica,sans-Serif" font-size="10.00">Data.HashFunction.CityHash.</text>
<text text-anchor="middle" x="1204.38" y="-163.97" font-family="Helvetica,sans-Serif" font-size="10.00">CityHash_Implementation.Hash64Len16</text>
</a>
</g>
</g>
<!-- Node3&#45;&gt;Node6 -->
<g id="edge11_Node000003_Node000006" class="edge">
<title>Node3&#45;&gt;Node6</title>
<g id="a_edge11_Node000003_Node000006"><a xlink:title=" ">
<path fill="none" stroke="#63b8ff" d="M605.44,-118.47C716.85,-126.97 908.23,-142.22 1072.25,-158.47 1080.17,-159.26 1088.35,-160.11 1096.58,-160.99"/>
<polygon fill="#63b8ff" stroke="#63b8ff" points="1095.98,-164.44 1106.3,-162.04 1096.73,-157.48 1095.98,-164.44"/>
</a>
</g>
</g>
<!-- Node9 -->
<g id="Node000009" class="node">
<title>Node9</title>
<g id="a_Node000009"><a xlink:href="class_data_1_1_hash_function_1_1_city_hash_1_1_city_hash___implementation.html#a054a2a634a2a60c58844d08986eef674" target="_top" xlink:title=" ">
<polygon fill="white" stroke="#666666" points="1523.88,-290.47 1339.12,-290.47 1339.12,-258.47 1523.88,-258.47 1523.88,-290.47"/>
<text text-anchor="start" x="1347.12" y="-276.97" font-family="Helvetica,sans-Serif" font-size="10.00">Data.HashFunction.CityHash.</text>
<text text-anchor="middle" x="1431.5" y="-264.97" font-family="Helvetica,sans-Serif" font-size="10.00">CityHash_Implementation.RotateRight</text>
</a>
</g>
</g>
<!-- Node3&#45;&gt;Node9 -->
<g id="edge12_Node000003_Node000009" class="edge">
<title>Node3&#45;&gt;Node9</title>
<g id="a_edge12_Node000003_Node000009"><a xlink:title=" ">
<path fill="none" stroke="#63b8ff" d="M566.39,-88.98C704.93,-36.04 1074.37,79.89 1300.5,-86.47 1342.62,-117.46 1306.94,-155.35 1336.5,-198.47 1351.22,-219.95 1373.74,-238.45 1393.05,-251.83"/>
<polygon fill="#63b8ff" stroke="#63b8ff" points="1391,-254.66 1401.25,-257.31 1394.89,-248.84 1391,-254.66"/>
</a>
</g>
</g>
<!-- Node10 -->
<g id="Node000010" class="node">
<title>Node10</title>
<g id="a_Node000010"><a xlink:href="class_data_1_1_hash_function_1_1_city_hash_1_1_city_hash___implementation.html#ad6f6b8fbd54cc87e4cc63bd5b9772bfd" target="_top" xlink:title=" ">
<polygon fill="white" stroke="#666666" points="1294.5,-139.47 1114.25,-139.47 1114.25,-95.47 1294.5,-95.47 1294.5,-139.47"/>
<text text-anchor="start" x="1122.25" y="-125.97" font-family="Helvetica,sans-Serif" font-size="10.00">Data.HashFunction.CityHash.</text>
<text text-anchor="start" x="1122.25" y="-113.97" font-family="Helvetica,sans-Serif" font-size="10.00">CityHash_Implementation.WeakHash</text>
<text text-anchor="middle" x="1204.38" y="-101.97" font-family="Helvetica,sans-Serif" font-size="10.00">Len32WithSeeds</text>
</a>
</g>
</g>
<!-- Node3&#45;&gt;Node10 -->
<g id="edge13_Node000003_Node000010" class="edge">
<title>Node3&#45;&gt;Node10</title>
<g id="a_edge13_Node000003_Node000010"><a xlink:title=" ">
<path fill="none" stroke="#63b8ff" d="M605.69,-100.11C617.64,-99.02 629.72,-98.1 641.25,-97.47 832.53,-87.18 881.24,-82.99 1072.25,-97.47 1082.2,-98.23 1092.54,-99.3 1102.85,-100.56"/>
<polygon fill="#63b8ff" stroke="#63b8ff" points="1102.14,-104 1112.5,-101.8 1103.03,-97.06 1102.14,-104"/>
</a>
</g>
</g>
<!-- Node5 -->
<g id="Node000005" class="node">
<title>Node5</title>
<g id="a_Node000005"><a xlink:href="class_data_1_1_hash_function_1_1_city_hash_1_1_city_hash___implementation.html#ace2758fca35c5ac5a5698e2f1a4aa513" target="_top" xlink:title=" ">
<polygon fill="white" stroke="#666666" points="1069.25,-309.47 863.5,-309.47 863.5,-277.47 1069.25,-277.47 1069.25,-309.47"/>
<text text-anchor="start" x="871.5" y="-295.97" font-family="Helvetica,sans-Serif" font-size="10.00">Data.HashFunction.CityHash.</text>
<text text-anchor="middle" x="966.38" y="-283.97" font-family="Helvetica,sans-Serif" font-size="10.00">CityHash_Implementation.Hash64Len0to16</text>
</a>
</g>
</g>
<!-- Node4&#45;&gt;Node5 -->
<g id="edge4_Node000004_Node000005" class="edge">
<title>Node4&#45;&gt;Node5</title>
<g id="a_edge4_Node000004_Node000005"><a xlink:title=" ">
<path fill="none" stroke="#63b8ff" d="M776.68,-212.85C792.25,-219.57 809.65,-228 824.5,-237.47 842.3,-248.83 841.7,-258.87 860.5,-268.47 863.57,-270.04 866.74,-271.51 869.98,-272.9"/>
<polygon fill="#63b8ff" stroke="#63b8ff" points="868.53,-276.09 879.11,-276.46 871.07,-269.56 868.53,-276.09"/>
</a>
</g>
</g>
<!-- Node4&#45;&gt;Node6 -->
<g id="edge9_Node000004_Node000006" class="edge">
<title>Node4&#45;&gt;Node6</title>
<g id="a_edge9_Node000004_Node000006"><a xlink:title=" ">
<path fill="none" stroke="#63b8ff" d="M795.58,-180.01C816.08,-175.3 839.13,-170.81 860.5,-168.47 939.4,-159.85 1029.12,-161.57 1096.99,-165.19"/>
<polygon fill="#63b8ff" stroke="#63b8ff" points="1096.42,-168.67 1106.6,-165.73 1096.81,-161.68 1096.42,-168.67"/>
</a>
</g>
</g>
<!-- Node8 -->
<g id="Node000008" class="node">
<title>Node8</title>
<g id="a_Node000008"><a xlink:href="class_data_1_1_hash_function_1_1_city_hash_1_1_city_hash___implementation.html#ac2fa0ddcbf5ad593d0830669e41bf93c" target="_top" xlink:title=" ">
<polygon fill="white" stroke="#666666" points="1278.38,-353.47 1130.38,-353.47 1130.38,-321.47 1278.38,-321.47 1278.38,-353.47"/>
<text text-anchor="start" x="1138.38" y="-339.97" font-family="Helvetica,sans-Serif" font-size="10.00">Data.HashFunction.CityHash.</text>
<text text-anchor="middle" x="1204.38" y="-327.97" font-family="Helvetica,sans-Serif" font-size="10.00">CityHash_Implementation.Mix</text>
</a>
</g>
</g>
<!-- Node4&#45;&gt;Node8 -->
<g id="edge10_Node000004_Node000008" class="edge">
<title>Node4&#45;&gt;Node8</title>
<g id="a_edge10_Node000004_Node000008"><a xlink:title=" ">
<path fill="none" stroke="#63b8ff" d="M786.84,-212.76C800.37,-218.85 814.03,-226.94 824.5,-237.47 852.26,-265.42 828.07,-296.1 860.5,-318.47 900.87,-346.33 1030.99,-346.23 1118.81,-342.6"/>
<polygon fill="#63b8ff" stroke="#63b8ff" points="1118.75,-346.1 1128.59,-342.17 1118.45,-339.11 1118.75,-346.1"/>
</a>
</g>
</g>
<!-- Node5&#45;&gt;Node6 -->
<g id="edge5_Node000005_Node000006" class="edge">
<title>Node5&#45;&gt;Node6</title>
<g id="a_edge5_Node000005_Node000006"><a xlink:title=" ">
<path fill="none" stroke="#63b8ff" d="M1050.01,-277.06C1057.66,-274.56 1065.19,-271.72 1072.25,-268.47 1112.07,-250.19 1152,-218.96 1177.16,-197.32"/>
<polygon fill="#63b8ff" stroke="#63b8ff" points="1179.37,-200.04 1184.59,-190.82 1174.76,-194.77 1179.37,-200.04"/>
</a>
</g>
</g>
<!-- Node5&#45;&gt;Node8 -->
<g id="edge7_Node000005_Node000008" class="edge">
<title>Node5&#45;&gt;Node8</title>
<g id="a_edge7_Node000005_Node000008"><a xlink:title=" ">
<path fill="none" stroke="#63b8ff" d="M1055.59,-309.92C1076.25,-313.77 1098.21,-317.87 1118.7,-321.69"/>
<polygon fill="#63b8ff" stroke="#63b8ff" points="1117.96,-325.11 1128.44,-323.5 1119.25,-318.23 1117.96,-325.11"/>
</a>
</g>
</g>
<!-- Node5&#45;&gt;Node9 -->
<g id="edge8_Node000005_Node000009" class="edge">
<title>Node5&#45;&gt;Node9</title>
<g id="a_edge8_Node000005_Node000009"><a xlink:title=" ">
<path fill="none" stroke="#63b8ff" d="M1069.58,-289.28C1146.26,-286.14 1250.79,-281.85 1327.63,-278.69"/>
<polygon fill="#63b8ff" stroke="#63b8ff" points="1327.4,-282.21 1337.24,-278.3 1327.11,-275.21 1327.4,-282.21"/>
</a>
</g>
</g>
<!-- Node7 -->
<g id="Node000007" class="node">
<title>Node7</title>
<g id="a_Node000007"><a xlink:href="class_data_1_1_hash_function_1_1_city_hash_1_1_city_hash___implementation.html#a45aa0a22c0153b96e93044b4becadaff" target="_top" xlink:title=" ">
<polygon fill="white" stroke="#666666" points="1526.5,-189.47 1336.5,-189.47 1336.5,-157.47 1526.5,-157.47 1526.5,-189.47"/>
<text text-anchor="start" x="1344.5" y="-175.97" font-family="Helvetica,sans-Serif" font-size="10.00">Data.HashFunction.CityHash.</text>
<text text-anchor="middle" x="1431.5" y="-163.97" font-family="Helvetica,sans-Serif" font-size="10.00">CityHash_Implementation.Hash128to64</text>
</a>
</g>
</g>
<!-- Node6&#45;&gt;Node7 -->
<g id="edge6_Node000006_Node000007" class="edge">
<title>Node6&#45;&gt;Node7</title>
<g id="a_edge6_Node000006_Node000007"><a xlink:title=" ">
<path fill="none" stroke="#63b8ff" d="M1300.85,-173.47C1308.83,-173.47 1316.93,-173.47 1324.98,-173.47"/>
<polygon fill="#63b8ff" stroke="#63b8ff" points="1324.8,-176.97 1334.8,-173.47 1324.8,-169.97 1324.8,-176.97"/>
</a>
</g>
</g>
<!-- Node10&#45;&gt;Node9 -->
<g id="edge14_Node000010_Node000009" class="edge">
<title>Node10&#45;&gt;Node9</title>
<g id="a_edge14_Node000010_Node000009"><a xlink:title=" ">
<path fill="none" stroke="#63b8ff" d="M1286.58,-139.86C1291.46,-142.44 1296.15,-145.3 1300.5,-148.47 1322.61,-164.63 1317.69,-178.58 1336.5,-198.47 1355.13,-218.17 1378.89,-237.34 1397.86,-251.5"/>
<polygon fill="#63b8ff" stroke="#63b8ff" points="1395.67,-254.23 1405.8,-257.33 1399.81,-248.59 1395.67,-254.23"/>
</a>
</g>
</g>
<!-- Node12 -->
<g id="Node000012" class="node">
<title>Node12</title>
<g id="a_Node000012"><a xlink:href="class_data_1_1_hash_function_1_1_city_hash_1_1_city_hash___implementation.html#a4b79a115075541321d2687daaf1efc7b" target="_top" xlink:title=" ">
<polygon fill="white" stroke="#666666" points="1066.62,-447.47 866.12,-447.47 866.12,-415.47 1066.62,-415.47 1066.62,-447.47"/>
<text text-anchor="start" x="874.12" y="-433.97" font-family="Helvetica,sans-Serif" font-size="10.00">Data.HashFunction.CityHash.</text>
<text text-anchor="middle" x="966.38" y="-421.97" font-family="Helvetica,sans-Serif" font-size="10.00">CityHash_Implementation.Hash32Len0to4</text>
</a>
</g>
</g>
<!-- Node11&#45;&gt;Node12 -->
<g id="edge16_Node000011_Node000012" class="edge">
<title>Node11&#45;&gt;Node12</title>
<g id="a_edge16_Node000011_Node000012"><a xlink:title=" ">
<path fill="none" stroke="#63b8ff" d="M819.09,-463.07C838.27,-458.93 858.66,-454.52 877.94,-450.36"/>
<polygon fill="#63b8ff" stroke="#63b8ff" points="878.62,-453.79 887.66,-448.26 877.14,-446.95 878.62,-453.79"/>
</a>
</g>
</g>
<!-- Node14 -->
<g id="Node000014" class="node">
<title>Node14</title>
<g id="a_Node000014"><a xlink:href="class_data_1_1_hash_function_1_1_city_hash_1_1_city_hash___implementation.html#a233e906310a9faef162a4a9749f3f846" target="_top" xlink:title=" ">
<polygon fill="white" stroke="#666666" points="1071.88,-547.47 860.88,-547.47 860.88,-515.47 1071.88,-515.47 1071.88,-547.47"/>
<text text-anchor="start" x="868.88" y="-533.97" font-family="Helvetica,sans-Serif" font-size="10.00">Data.HashFunction.CityHash.</text>
<text text-anchor="middle" x="966.38" y="-521.97" font-family="Helvetica,sans-Serif" font-size="10.00">CityHash_Implementation.Hash32Len13to24</text>
</a>
</g>
</g>
<!-- Node11&#45;&gt;Node14 -->
<g id="edge20_Node000011_Node000014" class="edge">
<title>Node11&#45;&gt;Node14</title>
<g id="a_edge20_Node000011_Node000014"><a xlink:title=" ">
<path fill="none" stroke="#63b8ff" d="M819.09,-499.88C838.27,-504.02 858.66,-508.43 877.94,-512.59"/>
<polygon fill="#63b8ff" stroke="#63b8ff" points="877.14,-516 887.66,-514.69 878.62,-509.16 877.14,-516"/>
</a>
</g>
</g>
<!-- Node15 -->
<g id="Node000015" class="node">
<title>Node15</title>
<g id="a_Node000015"><a xlink:href="class_data_1_1_hash_function_1_1_city_hash_1_1_city_hash___implementation.html#ad8892efa23c2496e411cad38be0766f9" target="_top" xlink:title=" ">
<polygon fill="white" stroke="#666666" points="1072.25,-597.47 860.5,-597.47 860.5,-565.47 1072.25,-565.47 1072.25,-597.47"/>
<text text-anchor="start" x="868.5" y="-583.97" font-family="Helvetica,sans-Serif" font-size="10.00">Data.HashFunction.CityHash.</text>
<text text-anchor="middle" x="966.38" y="-571.97" font-family="Helvetica,sans-Serif" font-size="10.00">CityHash_Implementation.Hash32Len25Plus</text>
</a>
</g>
</g>
<!-- Node11&#45;&gt;Node15 -->
<g id="edge23_Node000011_Node000015" class="edge">
<title>Node11&#45;&gt;Node15</title>
<g id="a_edge23_Node000011_Node000015"><a xlink:title=" ">
<path fill="none" stroke="#63b8ff" d="M765.54,-503.88C790.34,-520.52 826.27,-542.63 860.5,-556.47 865.06,-558.32 869.8,-560.05 874.62,-561.67"/>
<polygon fill="#63b8ff" stroke="#63b8ff" points="873.24,-564.91 883.83,-564.58 875.35,-558.23 873.24,-564.91"/>
</a>
</g>
</g>
<!-- Node18 -->
<g id="Node000018" class="node">
<title>Node18</title>
<g id="a_Node000018"><a xlink:href="class_data_1_1_hash_function_1_1_city_hash_1_1_city_hash___implementation.html#a40769fc2a4242c2337664fac2f97af9e" target="_top" xlink:title=" ">
<polygon fill="white" stroke="#666666" points="1069.25,-497.47 863.5,-497.47 863.5,-465.47 1069.25,-465.47 1069.25,-497.47"/>
<text text-anchor="start" x="871.5" y="-483.97" font-family="Helvetica,sans-Serif" font-size="10.00">Data.HashFunction.CityHash.</text>
<text text-anchor="middle" x="966.38" y="-471.97" font-family="Helvetica,sans-Serif" font-size="10.00">CityHash_Implementation.Hash32Len5to12</text>
</a>
</g>
</g>
<!-- Node11&#45;&gt;Node18 -->
<g id="edge27_Node000011_Node000018" class="edge">
<title>Node11&#45;&gt;Node18</title>
<g id="a_edge27_Node000011_Node000018"><a xlink:title=" ">
<path fill="none" stroke="#63b8ff" d="M819.09,-481.47C829.71,-481.47 840.7,-481.47 851.67,-481.47"/>
<polygon fill="#63b8ff" stroke="#63b8ff" points="851.56,-484.97 861.56,-481.47 851.56,-477.97 851.56,-484.97"/>
</a>
</g>
</g>
<!-- Node12&#45;&gt;Node8 -->
<g id="edge17_Node000012_Node000008" class="edge">
<title>Node12&#45;&gt;Node8</title>
<g id="a_edge17_Node000012_Node000008"><a xlink:title=" ">
<path fill="none" stroke="#63b8ff" d="M1045.91,-415.04C1054.9,-412.49 1063.84,-409.63 1072.25,-406.47 1105.84,-393.86 1141.75,-374.51 1167.49,-359.51"/>
<polygon fill="#63b8ff" stroke="#63b8ff" points="1169.04,-362.66 1175.86,-354.56 1165.47,-356.63 1169.04,-362.66"/>
</a>
</g>
</g>
<!-- Node13 -->
<g id="Node000013" class="node">
<title>Node13</title>
<g id="a_Node000013"><a xlink:href="class_data_1_1_hash_function_1_1_city_hash_1_1_city_hash___implementation.html#a14ecd650e889358aa703defbfcd5f00f" target="_top" xlink:title=" ">
<polygon fill="white" stroke="#666666" points="1278.75,-503.47 1130,-503.47 1130,-471.47 1278.75,-471.47 1278.75,-503.47"/>
<text text-anchor="start" x="1138" y="-489.97" font-family="Helvetica,sans-Serif" font-size="10.00">Data.HashFunction.CityHash.</text>
<text text-anchor="middle" x="1204.38" y="-477.97" font-family="Helvetica,sans-Serif" font-size="10.00">CityHash_Implementation.Mur</text>
</a>
</g>
</g>
<!-- Node12&#45;&gt;Node13 -->
<g id="edge18_Node000012_Node000013" class="edge">
<title>Node12&#45;&gt;Node13</title>
<g id="a_edge18_Node000012_Node000013"><a xlink:title=" ">
<path fill="none" stroke="#63b8ff" d="M1036.91,-447.97C1063.91,-454.38 1095.02,-461.76 1122.98,-468.4"/>
<polygon fill="#63b8ff" stroke="#63b8ff" points="1121.92,-471.74 1132.46,-470.65 1123.54,-464.93 1121.92,-471.74"/>
</a>
</g>
</g>
<!-- Node13&#45;&gt;Node9 -->
<g id="edge19_Node000013_Node000009" class="edge">
<title>Node13&#45;&gt;Node9</title>
<g id="a_edge19_Node000013_Node000009"><a xlink:title=" ">
<path fill="none" stroke="#63b8ff" d="M1278.92,-473.9C1286.56,-470.84 1293.93,-467.08 1300.5,-462.47 1360.18,-420.64 1401.14,-342.07 1419.52,-301"/>
<polygon fill="#63b8ff" stroke="#63b8ff" points="1422.61,-302.67 1423.4,-292.1 1416.2,-299.87 1422.61,-302.67"/>
</a>
</g>
</g>
<!-- Node14&#45;&gt;Node8 -->
<g id="edge21_Node000014_Node000008" class="edge">
<title>Node14&#45;&gt;Node8</title>
<g id="a_edge21_Node000014_Node000008"><a xlink:title=" ">
<path fill="none" stroke="#63b8ff" d="M1060.51,-515.13C1064.7,-512.62 1068.65,-509.75 1072.25,-506.47 1109.04,-472.97 1077.88,-439.88 1108.25,-400.47 1121.31,-383.53 1140.28,-369.67 1157.85,-359.31"/>
<polygon fill="#63b8ff" stroke="#63b8ff" points="1159.11,-362.62 1166.1,-354.66 1155.67,-356.52 1159.11,-362.62"/>
</a>
</g>
</g>
<!-- Node14&#45;&gt;Node13 -->
<g id="edge22_Node000014_Node000013" class="edge">
<title>Node14&#45;&gt;Node13</title>
<g id="a_edge22_Node000014_Node000013"><a xlink:title=" ">
<path fill="none" stroke="#63b8ff" d="M1055.59,-515.03C1076.13,-511.2 1097.97,-507.13 1118.38,-503.32"/>
<polygon fill="#63b8ff" stroke="#63b8ff" points="1118.87,-506.79 1128.06,-501.52 1117.59,-499.91 1118.87,-506.79"/>
</a>
</g>
</g>
<!-- Node15&#45;&gt;Node9 -->
<g id="edge26_Node000015_Node000009" class="edge">
<title>Node15&#45;&gt;Node9</title>
<g id="a_edge26_Node000015_Node000009"><a xlink:title=" ">
<path fill="none" stroke="#63b8ff" d="M1056.15,-565C1151.43,-547.02 1290.58,-519.82 1300.5,-512.47 1373,-458.77 1409.8,-352.1 1423.73,-301.86"/>
<polygon fill="#63b8ff" stroke="#63b8ff" points="1427.06,-302.95 1426.25,-292.38 1420.3,-301.14 1427.06,-302.95"/>
</a>
</g>
</g>
<!-- Node16 -->
<g id="Node000016" class="node">
<title>Node16</title>
<g id="a_Node000016"><a xlink:href="class_data_1_1_hash_function_1_1_city_hash_1_1_city_hash___implementation.html#a64572cac46377280ca301b79594e205f" target="_top" xlink:title=" ">
<polygon fill="white" stroke="#666666" points="1291.5,-597.47 1117.25,-597.47 1117.25,-565.47 1291.5,-565.47 1291.5,-597.47"/>
<text text-anchor="start" x="1125.25" y="-583.97" font-family="Helvetica,sans-Serif" font-size="10.00">Data.HashFunction.CityHash.</text>
<text text-anchor="middle" x="1204.38" y="-571.97" font-family="Helvetica,sans-Serif" font-size="10.00">CityHash_Implementation.Permute3</text>
</a>
</g>
</g>
<!-- Node15&#45;&gt;Node16 -->
<g id="edge24_Node000015_Node000016" class="edge">
<title>Node15&#45;&gt;Node16</title>
<g id="a_edge24_Node000015_Node000016"><a xlink:title=" ">
<path fill="none" stroke="#63b8ff" d="M1072.61,-581.47C1083.64,-581.47 1094.83,-581.47 1105.78,-581.47"/>
<polygon fill="#63b8ff" stroke="#63b8ff" points="1105.57,-584.97 1115.57,-581.47 1105.57,-577.97 1105.57,-584.97"/>
</a>
</g>
</g>
<!-- Node17 -->
<g id="Node000017" class="node">
<title>Node17</title>
<g id="a_Node000017"><a xlink:href="class_data_1_1_hash_function_1_1_city_hash_1_1_city_hash___implementation.html#ab22214ef33ce0e9872cac0fc8a214e5f" target="_top" xlink:title=" ">
<polygon fill="white" stroke="#666666" points="1288.88,-453.47 1119.88,-453.47 1119.88,-409.47 1288.88,-409.47 1288.88,-453.47"/>
<text text-anchor="start" x="1127.88" y="-439.97" font-family="Helvetica,sans-Serif" font-size="10.00">Data.HashFunction.CityHash.</text>
<text text-anchor="start" x="1127.88" y="-427.97" font-family="Helvetica,sans-Serif" font-size="10.00">CityHash_Implementation.Reverse</text>
<text text-anchor="middle" x="1204.38" y="-415.97" font-family="Helvetica,sans-Serif" font-size="10.00">ByteOrder</text>
</a>
</g>
</g>
<!-- Node15&#45;&gt;Node17 -->
<g id="edge25_Node000015_Node000017" class="edge">
<title>Node15&#45;&gt;Node17</title>
<g id="a_edge25_Node000015_Node000017"><a xlink:title=" ">
<path fill="none" stroke="#63b8ff" d="M1059.87,-565.25C1064.28,-562.71 1068.45,-559.81 1072.25,-556.47 1105.9,-526.99 1075.82,-493.3 1108.25,-462.47 1109.02,-461.74 1109.81,-461.03 1110.61,-460.33"/>
<polygon fill="#63b8ff" stroke="#63b8ff" points="1112.67,-463.16 1118.59,-454.37 1108.48,-457.55 1112.67,-463.16"/>
</a>
</g>
</g>
<!-- Node18&#45;&gt;Node8 -->
<g id="edge28_Node000018_Node000008" class="edge">
<title>Node18&#45;&gt;Node8</title>
<g id="a_edge28_Node000018_Node000008"><a xlink:title=" ">
<path fill="none" stroke="#63b8ff" d="M1057.56,-465.02C1062.72,-462.55 1067.67,-459.72 1072.25,-456.47 1096.39,-439.36 1087.47,-421.54 1108.25,-400.47 1123.98,-384.53 1144.37,-370.38 1162.23,-359.55"/>
<polygon fill="#63b8ff" stroke="#63b8ff" points="1163.71,-362.75 1170.55,-354.65 1160.16,-356.71 1163.71,-362.75"/>
</a>
</g>
</g>
<!-- Node18&#45;&gt;Node13 -->
<g id="edge29_Node000018_Node000013" class="edge">
<title>Node18&#45;&gt;Node13</title>
<g id="a_edge29_Node000018_Node000013"><a xlink:title=" ">
<path fill="none" stroke="#63b8ff" d="M1069.52,-484.07C1085.75,-484.48 1102.4,-484.91 1118.2,-485.31"/>
<polygon fill="#63b8ff" stroke="#63b8ff" points="1117.93,-488.8 1128.02,-485.56 1118.11,-481.81 1117.93,-488.8"/>
</a>
</g>
</g>
<!-- Node19&#45;&gt;Node5 -->
<g id="edge31_Node000019_Node000005" class="edge">
<title>Node19&#45;&gt;Node5</title>
<g id="a_edge31_Node000019_Node000005"><a xlink:title=" ">
<path fill="none" stroke="#63b8ff" d="M819.09,-277.68C829.71,-278.82 840.7,-280.01 851.67,-281.2"/>
<polygon fill="#63b8ff" stroke="#63b8ff" points="851.25,-284.67 861.57,-282.26 852,-277.71 851.25,-284.67"/>
</a>
</g>
</g>
<!-- Node20 -->
<g id="Node000020" class="node">
<title>Node20</title>
<g id="a_Node000020"><a xlink:href="class_data_1_1_hash_function_1_1_city_hash_1_1_city_hash___implementation.html#a0b29a1ea9798ffc90ac79ecf0987fc35" target="_top" xlink:title=" ">
<polygon fill="white" stroke="#666666" points="1071.88,-259.47 860.88,-259.47 860.88,-227.47 1071.88,-227.47 1071.88,-259.47"/>
<text text-anchor="start" x="868.88" y="-245.97" font-family="Helvetica,sans-Serif" font-size="10.00">Data.HashFunction.CityHash.</text>
<text text-anchor="middle" x="966.38" y="-233.97" font-family="Helvetica,sans-Serif" font-size="10.00">CityHash_Implementation.Hash64Len17to32</text>
</a>
</g>
</g>
<!-- Node19&#45;&gt;Node20 -->
<g id="edge32_Node000019_Node000020" class="edge">
<title>Node19&#45;&gt;Node20</title>
<g id="a_edge32_Node000019_Node000020"><a xlink:title=" ">
<path fill="none" stroke="#63b8ff" d="M819.09,-259.27C829.03,-258.2 839.3,-257.09 849.56,-255.98"/>
<polygon fill="#63b8ff" stroke="#63b8ff" points="849.61,-259.5 859.18,-254.94 848.86,-252.54 849.61,-259.5"/>
</a>
</g>
</g>
<!-- Node21 -->
<g id="Node000021" class="node">
<title>Node21</title>
<g id="a_Node000021"><a xlink:href="class_data_1_1_hash_function_1_1_city_hash_1_1_city_hash___implementation.html#a395c40851843a781d7c3e4c0ceb07983" target="_top" xlink:title=" ">
<polygon fill="white" stroke="#666666" points="1071.88,-397.47 860.88,-397.47 860.88,-365.47 1071.88,-365.47 1071.88,-397.47"/>
<text text-anchor="start" x="868.88" y="-383.97" font-family="Helvetica,sans-Serif" font-size="10.00">Data.HashFunction.CityHash.</text>
<text text-anchor="middle" x="966.38" y="-371.97" font-family="Helvetica,sans-Serif" font-size="10.00">CityHash_Implementation.Hash64Len33to64</text>
</a>
</g>
</g>
<!-- Node19&#45;&gt;Node21 -->
<g id="edge35_Node000019_Node000021" class="edge">
<title>Node19&#45;&gt;Node21</title>
<g id="a_edge35_Node000019_Node000021"><a xlink:title=" ">
<path fill="none" stroke="#63b8ff" d="M762.59,-290.94C787.34,-309.38 824.65,-335.06 860.5,-351.47 868.58,-355.17 877.22,-358.53 885.95,-361.53"/>
<polygon fill="#63b8ff" stroke="#63b8ff" points="884.57,-364.76 895.16,-364.56 886.75,-358.11 884.57,-364.76"/>
</a>
</g>
</g>
<!-- Node22 -->
<g id="Node000022" class="node">
<title>Node22</title>
<g id="a_Node000022"><a xlink:href="class_data_1_1_hash_function_1_1_city_hash_1_1_city_hash___implementation.html#a4cf34ecb496d7caf130c96462e5f47b7" target="_top" xlink:title=" ">
<polygon fill="white" stroke="#666666" points="1072.25,-209.47 860.5,-209.47 860.5,-177.47 1072.25,-177.47 1072.25,-209.47"/>
<text text-anchor="start" x="868.5" y="-195.97" font-family="Helvetica,sans-Serif" font-size="10.00">Data.HashFunction.CityHash.</text>
<text text-anchor="middle" x="966.38" y="-183.97" font-family="Helvetica,sans-Serif" font-size="10.00">CityHash_Implementation.Hash64Len65Plus</text>
</a>
</g>
</g>
<!-- Node19&#45;&gt;Node22 -->
<g id="edge39_Node000019_Node000022" class="edge">
<title>Node19&#45;&gt;Node22</title>
<g id="a_edge39_Node000019_Node000022"><a xlink:title=" ">
<path fill="none" stroke="#63b8ff" d="M785.95,-245.98C808.59,-236.71 835.59,-226.32 860.5,-218.47 866.68,-216.53 873.1,-214.65 879.59,-212.86"/>
<polygon fill="#63b8ff" stroke="#63b8ff" points="880.32,-216.29 889.08,-210.33 878.51,-209.53 880.32,-216.29"/>
</a>
</g>
</g>
<!-- Node20&#45;&gt;Node6 -->
<g id="edge33_Node000020_Node000006" class="edge">
<title>Node20&#45;&gt;Node6</title>
<g id="a_edge33_Node000020_Node000006"><a xlink:title=" ">
<path fill="none" stroke="#63b8ff" d="M1040.39,-227.03C1051.12,-224.33 1062,-221.45 1072.25,-218.47 1097.39,-211.18 1124.84,-201.96 1148.1,-193.77"/>
<polygon fill="#63b8ff" stroke="#63b8ff" points="1149.13,-197.12 1157.38,-190.47 1146.79,-190.52 1149.13,-197.12"/>
</a>
</g>
</g>
<!-- Node20&#45;&gt;Node9 -->
<g id="edge34_Node000020_Node000009" class="edge">
<title>Node20&#45;&gt;Node9</title>
<g id="a_edge34_Node000020_Node000009"><a xlink:title=" ">
<path fill="none" stroke="#63b8ff" d="M1072.18,-250.49C1148.44,-255.59 1251.23,-262.47 1327.16,-267.56"/>
<polygon fill="#63b8ff" stroke="#63b8ff" points="1326.91,-271.05 1337.12,-268.22 1327.38,-264.06 1326.91,-271.05"/>
</a>
</g>
</g>
<!-- Node21&#45;&gt;Node8 -->
<g id="edge36_Node000021_Node000008" class="edge">
<title>Node21&#45;&gt;Node8</title>
<g id="a_edge36_Node000021_Node000008"><a xlink:title=" ">
<path fill="none" stroke="#63b8ff" d="M1055.59,-365.03C1076.25,-361.18 1098.21,-357.08 1118.7,-353.26"/>
<polygon fill="#63b8ff" stroke="#63b8ff" points="1119.25,-356.72 1128.44,-351.45 1117.96,-349.84 1119.25,-356.72"/>
</a>
</g>
</g>
<!-- Node21&#45;&gt;Node9 -->
<g id="edge38_Node000021_Node000009" class="edge">
<title>Node21&#45;&gt;Node9</title>
<g id="a_edge38_Node000021_Node000009"><a xlink:title=" ">
<path fill="none" stroke="#63b8ff" d="M1072.13,-389.58C1139.14,-391.38 1226.97,-387.34 1300.5,-362.47 1340.74,-348.87 1380.17,-319.21 1404.86,-298.09"/>
<polygon fill="#63b8ff" stroke="#63b8ff" points="1406.9,-300.96 1412.12,-291.74 1402.29,-295.69 1406.9,-300.96"/>
</a>
</g>
</g>
<!-- Node21&#45;&gt;Node17 -->
<g id="edge37_Node000021_Node000017" class="edge">
<title>Node21&#45;&gt;Node17</title>
<g id="a_edge37_Node000021_Node000017"><a xlink:title=" ">
<path fill="none" stroke="#63b8ff" d="M1044.98,-397.92C1065.25,-402.21 1087.33,-406.89 1108.39,-411.35"/>
<polygon fill="#63b8ff" stroke="#63b8ff" points="1107.64,-414.77 1118.15,-413.42 1109.09,-407.92 1107.64,-414.77"/>
</a>
</g>
</g>
<!-- Node22&#45;&gt;Node6 -->
<g id="edge40_Node000022_Node000006" class="edge">
<title>Node22&#45;&gt;Node6</title>
<g id="a_edge40_Node000022_Node000006"><a xlink:title=" ">
<path fill="none" stroke="#63b8ff" d="M1072.61,-184.56C1080.63,-183.88 1088.73,-183.19 1096.76,-182.51"/>
<polygon fill="#63b8ff" stroke="#63b8ff" points="1096.87,-186.01 1106.54,-181.68 1096.28,-179.04 1096.87,-186.01"/>
</a>
</g>
</g>
<!-- Node22&#45;&gt;Node8 -->
<g id="edge41_Node000022_Node000008" class="edge">
<title>Node22&#45;&gt;Node8</title>
<g id="a_edge41_Node000022_Node000008"><a xlink:title=" ">
<path fill="none" stroke="#63b8ff" d="M1052.86,-209.96C1059.58,-212.42 1066.12,-215.24 1072.25,-218.47 1117.44,-242.32 1159.23,-285.36 1182.98,-312.63"/>
<polygon fill="#63b8ff" stroke="#63b8ff" points="1180.18,-314.74 1189.34,-320.07 1185.5,-310.19 1180.18,-314.74"/>
</a>
</g>
</g>
<!-- Node22&#45;&gt;Node9 -->
<g id="edge42_Node000022_Node000009" class="edge">
<title>Node22&#45;&gt;Node9</title>
<g id="a_edge42_Node000022_Node000009"><a xlink:title=" ">
<path fill="none" stroke="#63b8ff" d="M1069.17,-209.95C1135.19,-220.79 1223.02,-235.51 1300.5,-249.47 1311.73,-251.5 1323.49,-253.68 1335.15,-255.87"/>
<polygon fill="#63b8ff" stroke="#63b8ff" points="1334.32,-259.28 1344.8,-257.7 1335.63,-252.4 1334.32,-259.28"/>
</a>
</g>
</g>
<!-- Node22&#45;&gt;Node10 -->
<g id="edge43_Node000022_Node000010" class="edge">
<title>Node22&#45;&gt;Node10</title>
<g id="a_edge43_Node000022_Node000010"><a xlink:title=" ">
<path fill="none" stroke="#63b8ff" d="M1018.58,-176.98C1049.17,-167.13 1088.7,-154.41 1123.33,-143.25"/>
<polygon fill="#63b8ff" stroke="#63b8ff" points="1124.02,-146.71 1132.47,-140.31 1121.88,-140.04 1124.02,-146.71"/>
</a>
</g>
</g>
</g>
</svg>
