<?xml version="1.0" encoding="UTF-8" standalone="no"?>
<!DOCTYPE svg PUBLIC "-//W3C//DTD SVG 1.1//EN"
 "http://www.w3.org/Graphics/SVG/1.1/DTD/svg11.dtd">
<!-- Generated by graphviz version 12.2.0 (20241103.1931)
 -->
<!-- Title: Data.HashFunction.Core.BlockTransformerBase&lt; TSelf &gt; Pages: 1 -->
<svg width="738pt" height="362pt"
 viewBox="0.00 0.00 738.00 362.00" xmlns="http://www.w3.org/2000/svg" xmlns:xlink="http://www.w3.org/1999/xlink">
<g id="graph0" class="graph" transform="scale(1 1) rotate(0) translate(4 358)">
<title>Data.HashFunction.Core.BlockTransformerBase&lt; TSelf &gt;</title>
<!-- Node1 -->
<g id="Node000001" class="node">
<title>Node1</title>
<g id="a_Node000001"><a xlink:title="Base implementation for an internal state of an iteratively computable hash function value.">
<polygon fill="#999999" stroke="#666666" points="284.75,-193 132.25,-193 132.25,-161 284.75,-161 284.75,-193"/>
<text text-anchor="start" x="140.25" y="-179.5" font-family="Helvetica,sans-Serif" font-size="10.00">Data.HashFunction.Core.Block</text>
<text text-anchor="middle" x="208.5" y="-167.5" font-family="Helvetica,sans-Serif" font-size="10.00">TransformerBase&lt; TSelf &gt;</text>
</a>
</g>
</g>
<!-- Node3 -->
<g id="Node000003" class="node">
<title>Node3</title>
<g id="a_Node000003"><a xlink:href="class_data_1_1_hash_function_1_1_f_n_v_1_1_f_n_v1_base_1_1_block_transformer__32_bit_base.html" target="_top" xlink:title=" ">
<polygon fill="white" stroke="#666666" points="489.75,-292 320.75,-292 320.75,-248 489.75,-248 489.75,-292"/>
<text text-anchor="start" x="328.75" y="-278.5" font-family="Helvetica,sans-Serif" font-size="10.00">Data.HashFunction.FNV.FNV1</text>
<text text-anchor="start" x="328.75" y="-266.5" font-family="Helvetica,sans-Serif" font-size="10.00">Base.BlockTransformer_32BitBase</text>
<text text-anchor="middle" x="405.25" y="-254.5" font-family="Helvetica,sans-Serif" font-size="10.00">&lt; TSelf &gt;</text>
</a>
</g>
</g>
<!-- Node1&#45;&gt;Node3 -->
<g id="edge2_Node000001_Node000003" class="edge">
<title>Node1&#45;&gt;Node3</title>
<g id="a_edge2_Node000001_Node000003"><a xlink:title=" ">
<path fill="none" stroke="#63b8ff" d="M253.93,-198.22C284.86,-212.99 326.01,-232.64 357.44,-247.65"/>
<polygon fill="#63b8ff" stroke="#63b8ff" points="255.77,-195.22 245.23,-194.06 252.75,-201.53 255.77,-195.22"/>
</a>
</g>
</g>
<!-- Node6 -->
<g id="Node000006" class="node">
<title>Node6</title>
<g id="a_Node000006"><a xlink:href="class_data_1_1_hash_function_1_1_f_n_v_1_1_f_n_v1_base_1_1_block_transformer__64_bit_base.html" target="_top" xlink:title=" ">
<polygon fill="white" stroke="#666666" points="489.75,-199 320.75,-199 320.75,-155 489.75,-155 489.75,-199"/>
<text text-anchor="start" x="328.75" y="-185.5" font-family="Helvetica,sans-Serif" font-size="10.00">Data.HashFunction.FNV.FNV1</text>
<text text-anchor="start" x="328.75" y="-173.5" font-family="Helvetica,sans-Serif" font-size="10.00">Base.BlockTransformer_64BitBase</text>
<text text-anchor="middle" x="405.25" y="-161.5" font-family="Helvetica,sans-Serif" font-size="10.00">&lt; TSelf &gt;</text>
</a>
</g>
</g>
<!-- Node1&#45;&gt;Node6 -->
<g id="edge5_Node000001_Node000006" class="edge">
<title>Node1&#45;&gt;Node6</title>
<g id="a_edge5_Node000001_Node000006"><a xlink:title=" ">
<path fill="none" stroke="#63b8ff" d="M296.56,-177C304.45,-177 312.44,-177 320.31,-177"/>
<polygon fill="#63b8ff" stroke="#63b8ff" points="296.59,-173.5 286.59,-177 296.59,-180.5 296.59,-173.5"/>
</a>
</g>
</g>
<!-- Node9 -->
<g id="Node000009" class="node">
<title>Node9</title>
<g id="a_Node000009"><a xlink:href="class_data_1_1_hash_function_1_1_f_n_v_1_1_f_n_v1_base_1_1_block_transformer___extended_base.html" target="_top" xlink:title=" ">
<polygon fill="white" stroke="#666666" points="487.88,-106 322.62,-106 322.62,-62 487.88,-62 487.88,-106"/>
<text text-anchor="start" x="330.62" y="-92.5" font-family="Helvetica,sans-Serif" font-size="10.00">Data.HashFunction.FNV.FNV1</text>
<text text-anchor="start" x="330.62" y="-80.5" font-family="Helvetica,sans-Serif" font-size="10.00">Base.BlockTransformer_Extended</text>
<text text-anchor="middle" x="405.25" y="-68.5" font-family="Helvetica,sans-Serif" font-size="10.00">Base&lt; TSelf &gt;</text>
</a>
</g>
</g>
<!-- Node1&#45;&gt;Node9 -->
<g id="edge8_Node000001_Node000009" class="edge">
<title>Node1&#45;&gt;Node9</title>
<g id="a_edge8_Node000001_Node000009"><a xlink:title=" ">
<path fill="none" stroke="#63b8ff" d="M253.93,-155.78C284.86,-141.01 326.01,-121.36 357.44,-106.35"/>
<polygon fill="#63b8ff" stroke="#63b8ff" points="252.75,-152.47 245.23,-159.94 255.77,-158.78 252.75,-152.47"/>
</a>
</g>
</g>
<!-- Node2 -->
<g id="Node000002" class="node">
<title>Node2</title>
<g id="a_Node000002"><a xlink:href="interface_data_1_1_hash_function_1_1_i_block_transformer.html" target="_top" xlink:title="An internal state of an iteratively computable hash function value.">
<polygon fill="white" stroke="#666666" points="96.25,-187 0,-187 0,-167 96.25,-167 96.25,-187"/>
<text text-anchor="middle" x="48.12" y="-173.5" font-family="Helvetica,sans-Serif" font-size="10.00">IBlockTransformer</text>
</a>
</g>
</g>
<!-- Node2&#45;&gt;Node1 -->
<g id="edge1_Node000001_Node000002" class="edge">
<title>Node2&#45;&gt;Node1</title>
<g id="a_edge1_Node000001_Node000002"><a xlink:title=" ">
<path fill="none" stroke="#63b8ff" d="M108.14,-177C115.88,-177 123.9,-177 131.87,-177"/>
<polygon fill="#63b8ff" stroke="#63b8ff" points="108.16,-173.5 98.16,-177 108.16,-180.5 108.16,-173.5"/>
</a>
</g>
</g>
<!-- Node4 -->
<g id="Node000004" class="node">
<title>Node4</title>
<g id="a_Node000004"><a xlink:href="class_data_1_1_hash_function_1_1_f_n_v_1_1_f_n_v1___implementation_1_1_block_transformer__32_bit.html" target="_top" xlink:title=" ">
<polygon fill="white" stroke="#666666" points="712,-354 543.75,-354 543.75,-310 712,-310 712,-354"/>
<text text-anchor="start" x="551.75" y="-340.5" font-family="Helvetica,sans-Serif" font-size="10.00">Data.HashFunction.FNV.FNV1</text>
<text text-anchor="start" x="551.75" y="-328.5" font-family="Helvetica,sans-Serif" font-size="10.00">_Implementation.BlockTransformer</text>
<text text-anchor="middle" x="627.88" y="-316.5" font-family="Helvetica,sans-Serif" font-size="10.00">_32Bit&lt; BlockTransformer_32Bit &gt;</text>
</a>
</g>
</g>
<!-- Node3&#45;&gt;Node4 -->
<g id="edge3_Node000003_Node000004" class="edge">
<title>Node3&#45;&gt;Node4</title>
<g id="a_edge3_Node000003_Node000004"><a xlink:title=" ">
<path fill="none" stroke="#63b8ff" d="M496.97,-295.49C513.49,-300.14 530.63,-304.95 546.81,-309.5"/>
<polygon fill="#63b8ff" stroke="#63b8ff" points="498.24,-292.22 487.67,-292.88 496.35,-298.96 498.24,-292.22"/>
</a>
</g>
</g>
<!-- Node5 -->
<g id="Node000005" class="node">
<title>Node5</title>
<g id="a_Node000005"><a xlink:href="class_data_1_1_hash_function_1_1_f_n_v_1_1_f_n_v1a___implementation_1_1_block_transformer__32_bit.html" target="_top" xlink:title=" ">
<polygon fill="white" stroke="#666666" points="712,-292 543.75,-292 543.75,-248 712,-248 712,-292"/>
<text text-anchor="start" x="551.75" y="-278.5" font-family="Helvetica,sans-Serif" font-size="10.00">Data.HashFunction.FNV.FNV1a</text>
<text text-anchor="start" x="551.75" y="-266.5" font-family="Helvetica,sans-Serif" font-size="10.00">_Implementation.BlockTransformer</text>
<text text-anchor="middle" x="627.88" y="-254.5" font-family="Helvetica,sans-Serif" font-size="10.00">_32Bit&lt; BlockTransformer_32Bit &gt;</text>
</a>
</g>
</g>
<!-- Node3&#45;&gt;Node5 -->
<g id="edge4_Node000003_Node000005" class="edge">
<title>Node3&#45;&gt;Node5</title>
<g id="a_edge4_Node000003_Node000005"><a xlink:title=" ">
<path fill="none" stroke="#63b8ff" d="M501.19,-270C515.29,-270 529.74,-270 543.57,-270"/>
<polygon fill="#63b8ff" stroke="#63b8ff" points="501.49,-266.5 491.49,-270 501.49,-273.5 501.49,-266.5"/>
</a>
</g>
</g>
<!-- Node7 -->
<g id="Node000007" class="node">
<title>Node7</title>
<g id="a_Node000007"><a xlink:href="class_data_1_1_hash_function_1_1_f_n_v_1_1_f_n_v1___implementation_1_1_block_transformer__64_bit.html" target="_top" xlink:title=" ">
<polygon fill="white" stroke="#666666" points="712,-230 543.75,-230 543.75,-186 712,-186 712,-230"/>
<text text-anchor="start" x="551.75" y="-216.5" font-family="Helvetica,sans-Serif" font-size="10.00">Data.HashFunction.FNV.FNV1</text>
<text text-anchor="start" x="551.75" y="-204.5" font-family="Helvetica,sans-Serif" font-size="10.00">_Implementation.BlockTransformer</text>
<text text-anchor="middle" x="627.88" y="-192.5" font-family="Helvetica,sans-Serif" font-size="10.00">_64Bit&lt; BlockTransformer_64Bit &gt;</text>
</a>
</g>
</g>
<!-- Node6&#45;&gt;Node7 -->
<g id="edge6_Node000006_Node000007" class="edge">
<title>Node6&#45;&gt;Node7</title>
<g id="a_edge6_Node000006_Node000007"><a xlink:title=" ">
<path fill="none" stroke="#63b8ff" d="M501.19,-190.34C515.29,-192.32 529.74,-194.35 543.57,-196.3"/>
<polygon fill="#63b8ff" stroke="#63b8ff" points="501.86,-186.9 491.47,-188.97 500.89,-193.83 501.86,-186.9"/>
</a>
</g>
</g>
<!-- Node8 -->
<g id="Node000008" class="node">
<title>Node8</title>
<g id="a_Node000008"><a xlink:href="class_data_1_1_hash_function_1_1_f_n_v_1_1_f_n_v1a___implementation_1_1_block_transformer__64_bit.html" target="_top" xlink:title=" ">
<polygon fill="white" stroke="#666666" points="712,-168 543.75,-168 543.75,-124 712,-124 712,-168"/>
<text text-anchor="start" x="551.75" y="-154.5" font-family="Helvetica,sans-Serif" font-size="10.00">Data.HashFunction.FNV.FNV1a</text>
<text text-anchor="start" x="551.75" y="-142.5" font-family="Helvetica,sans-Serif" font-size="10.00">_Implementation.BlockTransformer</text>
<text text-anchor="middle" x="627.88" y="-130.5" font-family="Helvetica,sans-Serif" font-size="10.00">_64Bit&lt; BlockTransformer_64Bit &gt;</text>
</a>
</g>
</g>
<!-- Node6&#45;&gt;Node8 -->
<g id="edge7_Node000006_Node000008" class="edge">
<title>Node6&#45;&gt;Node8</title>
<g id="a_edge7_Node000006_Node000008"><a xlink:title=" ">
<path fill="none" stroke="#63b8ff" d="M501.19,-163.66C515.29,-161.68 529.74,-159.65 543.57,-157.7"/>
<polygon fill="#63b8ff" stroke="#63b8ff" points="500.89,-160.17 491.47,-165.03 501.86,-167.1 500.89,-160.17"/>
</a>
</g>
</g>
<!-- Node10 -->
<g id="Node000010" class="node">
<title>Node10</title>
<g id="a_Node000010"><a xlink:href="class_data_1_1_hash_function_1_1_f_n_v_1_1_f_n_v1___implementation_1_1_block_transformer___extended.html" target="_top" xlink:title=" ">
<polygon fill="white" stroke="#666666" points="730,-106 525.75,-106 525.75,-62 730,-62 730,-106"/>
<text text-anchor="start" x="533.75" y="-92.5" font-family="Helvetica,sans-Serif" font-size="10.00">Data.HashFunction.FNV.FNV1</text>
<text text-anchor="start" x="533.75" y="-80.5" font-family="Helvetica,sans-Serif" font-size="10.00">_Implementation.BlockTransformer</text>
<text text-anchor="middle" x="627.88" y="-68.5" font-family="Helvetica,sans-Serif" font-size="10.00">_Extended&lt; BlockTransformer_Extended &gt;</text>
</a>
</g>
</g>
<!-- Node9&#45;&gt;Node10 -->
<g id="edge9_Node000009_Node000010" class="edge">
<title>Node9&#45;&gt;Node10</title>
<g id="a_edge9_Node000009_Node000010"><a xlink:title=" ">
<path fill="none" stroke="#63b8ff" d="M499.6,-84C508.11,-84 516.77,-84 525.35,-84"/>
<polygon fill="#63b8ff" stroke="#63b8ff" points="499.6,-80.5 489.6,-84 499.6,-87.5 499.6,-80.5"/>
</a>
</g>
</g>
<!-- Node11 -->
<g id="Node000011" class="node">
<title>Node11</title>
<g id="a_Node000011"><a xlink:href="class_data_1_1_hash_function_1_1_f_n_v_1_1_f_n_v1a___implementation_1_1_block_transformer___extended.html" target="_top" xlink:title=" ">
<polygon fill="white" stroke="#666666" points="730,-44 525.75,-44 525.75,0 730,0 730,-44"/>
<text text-anchor="start" x="533.75" y="-30.5" font-family="Helvetica,sans-Serif" font-size="10.00">Data.HashFunction.FNV.FNV1a</text>
<text text-anchor="start" x="533.75" y="-18.5" font-family="Helvetica,sans-Serif" font-size="10.00">_Implementation.BlockTransformer</text>
<text text-anchor="middle" x="627.88" y="-6.5" font-family="Helvetica,sans-Serif" font-size="10.00">_Extended&lt; BlockTransformer_Extended &gt;</text>
</a>
</g>
</g>
<!-- Node9&#45;&gt;Node11 -->
<g id="edge10_Node000009_Node000011" class="edge">
<title>Node9&#45;&gt;Node11</title>
<g id="a_edge10_Node000009_Node000011"><a xlink:title=" ">
<path fill="none" stroke="#63b8ff" d="M496.97,-58.51C513.49,-53.86 530.63,-49.05 546.81,-44.5"/>
<polygon fill="#63b8ff" stroke="#63b8ff" points="496.35,-55.04 487.67,-61.12 498.24,-61.78 496.35,-55.04"/>
</a>
</g>
</g>
</g>
</svg>
