<?xml version="1.0" encoding="UTF-8" standalone="no"?>
<!DOCTYPE svg PUBLIC "-//W3C//DTD SVG 1.1//EN"
 "http://www.w3.org/Graphics/SVG/1.1/DTD/svg11.dtd">
<!-- Generated by graphviz version 12.2.0 (20241103.1931)
 -->
<!-- Title: Data.HashFunction.Jenkins.JenkinsLookup3_Implementation.RotateLeft Pages: 1 -->
<svg width="586pt" height="90pt"
 viewBox="0.00 0.00 585.50 90.00" xmlns="http://www.w3.org/2000/svg" xmlns:xlink="http://www.w3.org/1999/xlink">
<g id="graph0" class="graph" transform="scale(1 1) rotate(0) translate(4 86)">
<title>Data.HashFunction.Jenkins.JenkinsLookup3_Implementation.RotateLeft</title>
<!-- Node1 -->
<g id="Node000001" class="node">
<title>Node1</title>
<g id="a_Node000001"><a xlink:title=" ">
<polygon fill="#999999" stroke="#666666" points="577.5,-63 416,-63 416,-19 577.5,-19 577.5,-63"/>
<text text-anchor="start" x="424" y="-49.5" font-family="Helvetica,sans-Serif" font-size="10.00">Data.HashFunction.Jenkins.</text>
<text text-anchor="start" x="424" y="-37.5" font-family="Helvetica,sans-Serif" font-size="10.00">JenkinsLookup3_Implementation.</text>
<text text-anchor="middle" x="496.75" y="-25.5" font-family="Helvetica,sans-Serif" font-size="10.00">RotateLeft</text>
</a>
</g>
</g>
<!-- Node2 -->
<g id="Node000002" class="node">
<title>Node2</title>
<g id="a_Node000002"><a xlink:href="class_data_1_1_hash_function_1_1_jenkins_1_1_jenkins_lookup3___implementation.html#ae282252a153d0de31f750c11736d6187" target="_top" xlink:title=" ">
<polygon fill="white" stroke="#666666" points="380,-82 197.5,-82 197.5,-50 380,-50 380,-82"/>
<text text-anchor="start" x="205.5" y="-68.5" font-family="Helvetica,sans-Serif" font-size="10.00">Data.HashFunction.Jenkins.</text>
<text text-anchor="middle" x="288.75" y="-56.5" font-family="Helvetica,sans-Serif" font-size="10.00">JenkinsLookup3_Implementation.Final</text>
</a>
</g>
</g>
<!-- Node1&#45;&gt;Node2 -->
<g id="edge1_Node000001_Node000002" class="edge">
<title>Node1&#45;&gt;Node2</title>
<g id="a_edge1_Node000001_Node000002"><a xlink:title=" ">
<path fill="none" stroke="#63b8ff" d="M404.34,-52.09C396.38,-53.06 388.32,-54.04 380.36,-55"/>
<polygon fill="#63b8ff" stroke="#63b8ff" points="404.51,-55.6 414.01,-50.92 403.66,-48.65 404.51,-55.6"/>
</a>
</g>
</g>
<!-- Node4 -->
<g id="Node000004" class="node">
<title>Node4</title>
<g id="a_Node000004"><a xlink:href="class_data_1_1_hash_function_1_1_jenkins_1_1_jenkins_lookup3___implementation.html#a2ec8703073f471458db9233bb920718c" target="_top" xlink:title=" ">
<polygon fill="white" stroke="#666666" points="377.38,-32 200.12,-32 200.12,0 377.38,0 377.38,-32"/>
<text text-anchor="start" x="208.12" y="-18.5" font-family="Helvetica,sans-Serif" font-size="10.00">Data.HashFunction.Jenkins.</text>
<text text-anchor="middle" x="288.75" y="-6.5" font-family="Helvetica,sans-Serif" font-size="10.00">JenkinsLookup3_Implementation.Mix</text>
</a>
</g>
</g>
<!-- Node1&#45;&gt;Node4 -->
<g id="edge3_Node000001_Node000004" class="edge">
<title>Node1&#45;&gt;Node4</title>
<g id="a_edge3_Node000001_Node000004"><a xlink:title=" ">
<path fill="none" stroke="#63b8ff" d="M404.34,-29.91C395.46,-28.83 386.46,-27.74 377.61,-26.66"/>
<polygon fill="#63b8ff" stroke="#63b8ff" points="403.66,-33.35 414.01,-31.08 404.51,-26.4 403.66,-33.35"/>
</a>
</g>
</g>
<!-- Node3 -->
<g id="Node000003" class="node">
<title>Node3</title>
<g id="a_Node000003"><a xlink:href="class_data_1_1_hash_function_1_1_jenkins_1_1_jenkins_lookup3___implementation.html#a8467ea8925a869edc683429a27dbaea5" target="_top" xlink:title=" ">
<polygon fill="white" stroke="#666666" points="161.5,-63 0,-63 0,-19 161.5,-19 161.5,-63"/>
<text text-anchor="start" x="8" y="-49.5" font-family="Helvetica,sans-Serif" font-size="10.00">Data.HashFunction.Jenkins.</text>
<text text-anchor="start" x="8" y="-37.5" font-family="Helvetica,sans-Serif" font-size="10.00">JenkinsLookup3_Implementation.</text>
<text text-anchor="middle" x="80.75" y="-25.5" font-family="Helvetica,sans-Serif" font-size="10.00">ComputeHashInternal</text>
</a>
</g>
</g>
<!-- Node2&#45;&gt;Node3 -->
<g id="edge2_Node000002_Node000003" class="edge">
<title>Node2&#45;&gt;Node3</title>
<g id="a_edge2_Node000002_Node000003"><a xlink:title=" ">
<path fill="none" stroke="#63b8ff" d="M185.74,-53.62C177.69,-52.64 169.64,-51.67 161.77,-50.71"/>
<polygon fill="#63b8ff" stroke="#63b8ff" points="185.24,-57.09 195.59,-54.82 186.09,-50.14 185.24,-57.09"/>
</a>
</g>
</g>
<!-- Node4&#45;&gt;Node3 -->
<g id="edge4_Node000004_Node000003" class="edge">
<title>Node4&#45;&gt;Node3</title>
<g id="a_edge4_Node000004_Node000003"><a xlink:title=" ">
<path fill="none" stroke="#63b8ff" d="M188.53,-28.04C179.61,-29.12 170.65,-30.21 161.92,-31.27"/>
<polygon fill="#63b8ff" stroke="#63b8ff" points="188.78,-31.54 198.29,-26.86 187.94,-24.59 188.78,-31.54"/>
</a>
</g>
</g>
</g>
</svg>
