<?xml version="1.0" encoding="UTF-8" standalone="no"?>
<!DOCTYPE svg PUBLIC "-//W3C//DTD SVG 1.1//EN"
 "http://www.w3.org/Graphics/SVG/1.1/DTD/svg11.dtd">
<!-- Generated by graphviz version 12.2.0 (20241103.1931)
 -->
<!-- Title: Data.HashFunction.FarmHash.FarmHashFingerprint128_Implementation.Mix Pages: 1 -->
<svg width="1159pt" height="77pt"
 viewBox="0.00 0.00 1159.00 77.00" xmlns="http://www.w3.org/2000/svg" xmlns:xlink="http://www.w3.org/1999/xlink">
<g id="graph0" class="graph" transform="scale(1 1) rotate(0) translate(4 73)">
<title>Data.HashFunction.FarmHash.FarmHashFingerprint128_Implementation.Mix</title>
<!-- Node1 -->
<g id="Node000001" class="node">
<title>Node1</title>
<g id="a_Node000001"><a xlink:title=" ">
<polygon fill="#999999" stroke="#666666" points="1151,-63 937,-63 937,-31 1151,-31 1151,-63"/>
<text text-anchor="start" x="945" y="-49.5" font-family="Helvetica,sans-Serif" font-size="10.00">Data.HashFunction.FarmHash.</text>
<text text-anchor="middle" x="1044" y="-37.5" font-family="Helvetica,sans-Serif" font-size="10.00">FarmHashFingerprint128_Implementation.Mix</text>
</a>
</g>
</g>
<!-- Node2 -->
<g id="Node000002" class="node">
<title>Node2</title>
<g id="a_Node000002"><a xlink:href="class_data_1_1_hash_function_1_1_farm_hash_1_1_farm_hash_fingerprint128___implementation.html#a3b5e9226f7941b5e2555b9fb6813f91e" target="_top" xlink:title=" ">
<polygon fill="white" stroke="#666666" points="666.75,-69 468.5,-69 468.5,-25 666.75,-25 666.75,-69"/>
<text text-anchor="start" x="476.5" y="-55.5" font-family="Helvetica,sans-Serif" font-size="10.00">Data.HashFunction.FarmHash.</text>
<text text-anchor="start" x="476.5" y="-43.5" font-family="Helvetica,sans-Serif" font-size="10.00">FarmHashFingerprint128_Implementation.</text>
<text text-anchor="middle" x="567.62" y="-31.5" font-family="Helvetica,sans-Serif" font-size="10.00">CityMurmur</text>
</a>
</g>
</g>
<!-- Node1&#45;&gt;Node2 -->
<g id="edge1_Node000001_Node000002" class="edge">
<title>Node1&#45;&gt;Node2</title>
<g id="a_edge1_Node000001_Node000002"><a xlink:title=" ">
<path fill="none" stroke="#63b8ff" d="M925.47,-52.35C917.19,-52.61 908.97,-52.83 901,-53 812.91,-54.86 790.84,-54.97 702.75,-53 691.21,-52.74 679.13,-52.36 667.13,-51.91"/>
<polygon fill="#63b8ff" stroke="#63b8ff" points="925.39,-55.86 935.27,-52.03 925.16,-48.86 925.39,-55.86"/>
</a>
</g>
</g>
<!-- Node5 -->
<g id="Node000005" class="node">
<title>Node5</title>
<g id="a_Node000005"><a xlink:href="class_data_1_1_hash_function_1_1_farm_hash_1_1_farm_hash_fingerprint128___implementation.html#a3fa52690f28233df8ae56cbab00bc542" target="_top" xlink:title=" ">
<polygon fill="white" stroke="#666666" points="901,-44 702.75,-44 702.75,0 901,0 901,-44"/>
<text text-anchor="start" x="710.75" y="-30.5" font-family="Helvetica,sans-Serif" font-size="10.00">Data.HashFunction.FarmHash.</text>
<text text-anchor="start" x="710.75" y="-18.5" font-family="Helvetica,sans-Serif" font-size="10.00">FarmHashFingerprint128_Implementation.</text>
<text text-anchor="middle" x="801.88" y="-6.5" font-family="Helvetica,sans-Serif" font-size="10.00">HashLen0to16</text>
</a>
</g>
</g>
<!-- Node1&#45;&gt;Node5 -->
<g id="edge4_Node000001_Node000005" class="edge">
<title>Node1&#45;&gt;Node5</title>
<g id="a_edge4_Node000001_Node000005"><a xlink:title=" ">
<path fill="none" stroke="#63b8ff" d="M925.26,-34.74C917.2,-33.9 909.12,-33.06 901.18,-32.23"/>
<polygon fill="#63b8ff" stroke="#63b8ff" points="924.81,-38.21 935.12,-35.77 925.54,-31.25 924.81,-38.21"/>
</a>
</g>
</g>
<!-- Node3 -->
<g id="Node000003" class="node">
<title>Node3</title>
<g id="a_Node000003"><a xlink:href="class_data_1_1_hash_function_1_1_farm_hash_1_1_farm_hash_fingerprint128___implementation.html#a997239d6ef79f1af91114c8439ab9e33" target="_top" xlink:title=" ">
<polygon fill="white" stroke="#666666" points="432.5,-69 234.25,-69 234.25,-25 432.5,-25 432.5,-69"/>
<text text-anchor="start" x="242.25" y="-55.5" font-family="Helvetica,sans-Serif" font-size="10.00">Data.HashFunction.FarmHash.</text>
<text text-anchor="start" x="242.25" y="-43.5" font-family="Helvetica,sans-Serif" font-size="10.00">FarmHashFingerprint128_Implementation.</text>
<text text-anchor="middle" x="333.38" y="-31.5" font-family="Helvetica,sans-Serif" font-size="10.00">CityHash128WithSeed</text>
</a>
</g>
</g>
<!-- Node2&#45;&gt;Node3 -->
<g id="edge2_Node000002_Node000003" class="edge">
<title>Node2&#45;&gt;Node3</title>
<g id="a_edge2_Node000002_Node000003"><a xlink:title=" ">
<path fill="none" stroke="#63b8ff" d="M456.78,-47C448.73,-47 440.63,-47 432.65,-47"/>
<polygon fill="#63b8ff" stroke="#63b8ff" points="456.62,-50.5 466.62,-47 456.62,-43.5 456.62,-50.5"/>
</a>
</g>
</g>
<!-- Node4 -->
<g id="Node000004" class="node">
<title>Node4</title>
<g id="a_Node000004"><a xlink:href="class_data_1_1_hash_function_1_1_farm_hash_1_1_farm_hash_fingerprint128___implementation.html#aded0f2edc326e8372bfed7dd690b44ad" target="_top" xlink:title=" ">
<polygon fill="white" stroke="#666666" points="198.25,-69 0,-69 0,-25 198.25,-25 198.25,-69"/>
<text text-anchor="start" x="8" y="-55.5" font-family="Helvetica,sans-Serif" font-size="10.00">Data.HashFunction.FarmHash.</text>
<text text-anchor="start" x="8" y="-43.5" font-family="Helvetica,sans-Serif" font-size="10.00">FarmHashFingerprint128_Implementation.</text>
<text text-anchor="middle" x="99.12" y="-31.5" font-family="Helvetica,sans-Serif" font-size="10.00">ComputeHashInternal</text>
</a>
</g>
</g>
<!-- Node3&#45;&gt;Node4 -->
<g id="edge3_Node000003_Node000004" class="edge">
<title>Node3&#45;&gt;Node4</title>
<g id="a_edge3_Node000003_Node000004"><a xlink:title=" ">
<path fill="none" stroke="#63b8ff" d="M222.53,-47C214.48,-47 206.38,-47 198.4,-47"/>
<polygon fill="#63b8ff" stroke="#63b8ff" points="222.37,-50.5 232.37,-47 222.37,-43.5 222.37,-50.5"/>
</a>
</g>
</g>
<!-- Node5&#45;&gt;Node2 -->
<g id="edge5_Node000005_Node000002" class="edge">
<title>Node5&#45;&gt;Node2</title>
<g id="a_edge5_Node000005_Node000002"><a xlink:title=" ">
<path fill="none" stroke="#63b8ff" d="M691.03,-33.82C682.98,-34.69 674.88,-35.56 666.9,-36.42"/>
<polygon fill="#63b8ff" stroke="#63b8ff" points="691.31,-37.31 700.88,-32.76 690.56,-30.35 691.31,-37.31"/>
</a>
</g>
</g>
</g>
</svg>
