<?xml version="1.0" encoding="UTF-8" standalone="no"?>
<!DOCTYPE svg PUBLIC "-//W3C//DTD SVG 1.1//EN"
 "http://www.w3.org/Graphics/SVG/1.1/DTD/svg11.dtd">
<!-- Generated by graphviz version 12.2.0 (20241103.1931)
 -->
<!-- Title: Data.HashFunction.FNV.FNV1a_Implementation.BlockTransformer_64Bit Pages: 1 -->
<svg width="204pt" height="232pt"
 viewBox="0.00 0.00 204.00 232.00" xmlns="http://www.w3.org/2000/svg" xmlns:xlink="http://www.w3.org/1999/xlink">
<g id="graph0" class="graph" transform="scale(1 1) rotate(0) translate(4 228)">
<title>Data.HashFunction.FNV.FNV1a_Implementation.BlockTransformer_64Bit</title>
<!-- Node1 -->
<g id="Node000001" class="node">
<title>Node1</title>
<g id="a_Node000001"><a xlink:title=" ">
<polygon fill="#999999" stroke="#666666" points="196,-32 0,-32 0,0 196,0 196,-32"/>
<text text-anchor="start" x="8" y="-18.5" font-family="Helvetica,sans-Serif" font-size="10.00">Data.HashFunction.FNV.FNV1a</text>
<text text-anchor="middle" x="98" y="-6.5" font-family="Helvetica,sans-Serif" font-size="10.00">_Implementation.BlockTransformer_64Bit</text>
</a>
</g>
</g>
<!-- Node2 -->
<g id="Node000002" class="node">
<title>Node2</title>
<g id="a_Node000002"><a xlink:href="class_data_1_1_hash_function_1_1_f_n_v_1_1_f_n_v1_base_1_1_block_transformer__64_bit_base.html" target="_top" xlink:title=" ">
<polygon fill="white" stroke="#666666" points="169.75,-100 26.25,-100 26.25,-68 169.75,-68 169.75,-100"/>
<text text-anchor="start" x="34.25" y="-86.5" font-family="Helvetica,sans-Serif" font-size="10.00">BlockTransformer_64BitBase</text>
<text text-anchor="middle" x="98" y="-74.5" font-family="Helvetica,sans-Serif" font-size="10.00">&lt; BlockTransformer_64Bit &gt;</text>
</a>
</g>
</g>
<!-- Node2&#45;&gt;Node1 -->
<g id="edge1_Node000001_Node000002" class="edge">
<title>Node2&#45;&gt;Node1</title>
<g id="a_edge1_Node000001_Node000002"><a xlink:title=" ">
<path fill="none" stroke="#63b8ff" d="M98,-56.31C98,-48.12 98,-39.38 98,-32.22"/>
<polygon fill="#63b8ff" stroke="#63b8ff" points="94.5,-56.18 98,-66.18 101.5,-56.18 94.5,-56.18"/>
</a>
</g>
</g>
<!-- Node3 -->
<g id="Node000003" class="node">
<title>Node3</title>
<g id="a_Node000003"><a xlink:href="class_data_1_1_hash_function_1_1_core_1_1_block_transformer_base.html" target="_top" xlink:title="Base implementation for an internal state of an iteratively computable hash function value.">
<polygon fill="white" stroke="#666666" points="155.88,-168 40.12,-168 40.12,-136 155.88,-136 155.88,-168"/>
<text text-anchor="start" x="48.12" y="-154.5" font-family="Helvetica,sans-Serif" font-size="10.00">BlockTransformerBase</text>
<text text-anchor="middle" x="98" y="-142.5" font-family="Helvetica,sans-Serif" font-size="10.00">&lt; TSelf &gt;</text>
</a>
</g>
</g>
<!-- Node3&#45;&gt;Node2 -->
<g id="edge2_Node000002_Node000003" class="edge">
<title>Node3&#45;&gt;Node2</title>
<g id="a_edge2_Node000002_Node000003"><a xlink:title=" ">
<path fill="none" stroke="#63b8ff" d="M98,-124.31C98,-116.12 98,-107.38 98,-100.22"/>
<polygon fill="#63b8ff" stroke="#63b8ff" points="94.5,-124.18 98,-134.18 101.5,-124.18 94.5,-124.18"/>
</a>
</g>
</g>
<!-- Node4 -->
<g id="Node000004" class="node">
<title>Node4</title>
<g id="a_Node000004"><a xlink:href="interface_data_1_1_hash_function_1_1_i_block_transformer.html" target="_top" xlink:title="An internal state of an iteratively computable hash function value.">
<polygon fill="white" stroke="#666666" points="146.12,-224 49.88,-224 49.88,-204 146.12,-204 146.12,-224"/>
<text text-anchor="middle" x="98" y="-210.5" font-family="Helvetica,sans-Serif" font-size="10.00">IBlockTransformer</text>
</a>
</g>
</g>
<!-- Node4&#45;&gt;Node3 -->
<g id="edge3_Node000003_Node000004" class="edge">
<title>Node4&#45;&gt;Node3</title>
<g id="a_edge3_Node000003_Node000004"><a xlink:title=" ">
<path fill="none" stroke="#63b8ff" d="M98,-192.31C98,-184.37 98,-175.46 98,-168.14"/>
<polygon fill="#63b8ff" stroke="#63b8ff" points="94.5,-192.11 98,-202.11 101.5,-192.11 94.5,-192.11"/>
</a>
</g>
</g>
</g>
</svg>
