<?xml version="1.0" encoding="UTF-8" standalone="no"?>
<!DOCTYPE svg PUBLIC "-//W3C//DTD SVG 1.1//EN"
 "http://www.w3.org/Graphics/SVG/1.1/DTD/svg11.dtd">
<!-- Generated by graphviz version 12.2.0 (20241103.1931)
 -->
<!-- Title: Data.HashFunction.BernsteinHash.ModifiedBernsteinHash_Implementation Pages: 1 -->
<svg width="296pt" height="220pt"
 viewBox="0.00 0.00 295.50 220.00" xmlns="http://www.w3.org/2000/svg" xmlns:xlink="http://www.w3.org/1999/xlink">

<svg id="main" version="1.1" xmlns="http://www.w3.org/2000/svg" xmlns:xlink="http://www.w3.org/1999/xlink" xml:space="preserve">

<style type="text/css"><![CDATA[
.node, .edge {opacity: 0.7;}
.node.selected, .edge.selected {opacity: 1;}
.edge:hover path { stroke: red; }
.edge:hover polygon { stroke: red; fill: red; }
]]></style>
<script type="application/ecmascript" xlink:href="svg.min.js"/>
<svg id="graph" class="graph">
<g id="graph0" class="graph" transform="scale(1 1) rotate(0) translate(4 216)">
<title>Data.HashFunction.BernsteinHash.ModifiedBernsteinHash_Implementation</title>
<!-- Node1 -->
<g id="Node000001" class="node">
<title>Node1</title>
<g id="a_Node000001"><a xlink:title=" ">
<polygon fill="#999999" stroke="#666666" points="222.88,-44 77.88,-44 77.88,0 222.88,0 222.88,-44"/>
<text text-anchor="start" x="85.88" y="-30.5" font-family="Helvetica,sans-Serif" font-size="10.00">Data.HashFunction.Bernstein</text>
<text text-anchor="start" x="85.88" y="-18.5" font-family="Helvetica,sans-Serif" font-size="10.00">Hash.ModifiedBernsteinHash</text>
<text text-anchor="middle" x="150.38" y="-6.5" font-family="Helvetica,sans-Serif" font-size="10.00">_Implementation</text>
</a>
</g>
</g>
<!-- Node2 -->
<g id="Node000002" class="node">
<title>Node2</title>
<g id="a_Node000002"><a xlink:href="class_data_1_1_hash_function_1_1_core_1_1_streamable_hash_function_base.html" target="_top" xlink:title="Common interface to non&#45;cryptographic hash functions that can be computed over a stream of data witho...">
<polygon fill="white" stroke="#666666" points="148.75,-100 0,-100 0,-80 148.75,-80 148.75,-100"/>
<text text-anchor="middle" x="74.38" y="-86.5" font-family="Helvetica,sans-Serif" font-size="10.00">StreamableHashFunctionBase</text>
</a>
</g>
</g>
<!-- Node2&#45;&gt;Node1 -->
<g id="edge1_Node000001_Node000002" class="edge">
<title>Node2&#45;&gt;Node1</title>
<g id="a_edge1_Node000001_Node000002"><a xlink:title=" ">
<path fill="none" stroke="#63b8ff" d="M93.79,-72.14C103.5,-63.71 115.36,-53.41 125.7,-44.43"/>
<polygon fill="#63b8ff" stroke="#63b8ff" points="91.66,-69.35 86.41,-78.55 96.25,-74.64 91.66,-69.35"/>
</a>
</g>
</g>
<!-- Node3 -->
<g id="Node000003" class="node">
<title>Node3</title>
<g id="a_Node000003"><a xlink:href="class_data_1_1_hash_function_1_1_core_1_1_hash_function_base.html" target="_top" xlink:title="Abstract implementation of an IHashFunction. Provides convenience checks and ensures a default HashSi...">
<polygon fill="white" stroke="#666666" points="124,-156 24.75,-156 24.75,-136 124,-136 124,-156"/>
<text text-anchor="middle" x="74.38" y="-142.5" font-family="Helvetica,sans-Serif" font-size="10.00">HashFunctionBase</text>
</a>
</g>
</g>
<!-- Node3&#45;&gt;Node2 -->
<g id="edge2_Node000002_Node000003" class="edge">
<title>Node3&#45;&gt;Node2</title>
<g id="a_edge2_Node000002_Node000003"><a xlink:title=" ">
<path fill="none" stroke="#63b8ff" d="M74.38,-124.13C74.38,-115.9 74.38,-106.85 74.38,-100.3"/>
<polygon fill="#63b8ff" stroke="#63b8ff" points="70.88,-124.08 74.38,-134.08 77.88,-124.08 70.88,-124.08"/>
</a>
</g>
</g>
<!-- Node4 -->
<g id="Node000004" class="node">
<title>Node4</title>
<g id="a_Node000004"><a xlink:href="interface_data_1_1_hash_function_1_1_i_hash_function.html" target="_top" xlink:title="Common interface to non&#45;cryptographic hash functions.">
<polygon fill="white" stroke="#666666" points="180.25,-212 100.5,-212 100.5,-192 180.25,-192 180.25,-212"/>
<text text-anchor="middle" x="140.38" y="-198.5" font-family="Helvetica,sans-Serif" font-size="10.00">IHashFunction</text>
</a>
</g>
</g>
<!-- Node4&#45;&gt;Node3 -->
<g id="edge3_Node000003_Node000004" class="edge">
<title>Node4&#45;&gt;Node3</title>
<g id="a_edge3_Node000003_Node000004"><a xlink:title=" ">
<path fill="none" stroke="#63b8ff" d="M120.09,-184.4C108.8,-175.17 95.16,-164.01 85.74,-156.3"/>
<polygon fill="#63b8ff" stroke="#63b8ff" points="117.75,-187.01 127.71,-190.64 122.18,-181.59 117.75,-187.01"/>
</a>
</g>
</g>
<!-- Node5 -->
<g id="Node000005" class="node">
<title>Node5</title>
<g id="a_Node000005"><a xlink:href="interface_data_1_1_hash_function_1_1_i_streamable_hash_function.html" target="_top" xlink:title="Common interface to non&#45;cryptographic hash functions that can be computed over a stream of data witho...">
<polygon fill="white" stroke="#666666" points="271,-156 141.75,-156 141.75,-136 271,-136 271,-156"/>
<text text-anchor="middle" x="206.38" y="-142.5" font-family="Helvetica,sans-Serif" font-size="10.00">IStreamableHashFunction</text>
</a>
</g>
</g>
<!-- Node4&#45;&gt;Node5 -->
<g id="edge5_Node000005_Node000004" class="edge">
<title>Node4&#45;&gt;Node5</title>
<g id="a_edge5_Node000005_Node000004"><a xlink:title=" ">
<path fill="none" stroke="#63b8ff" d="M160.66,-184.4C171.95,-175.17 185.59,-164.01 195.01,-156.3"/>
<polygon fill="#63b8ff" stroke="#63b8ff" points="158.57,-181.59 153.04,-190.64 163,-187.01 158.57,-181.59"/>
</a>
</g>
</g>
<!-- Node5&#45;&gt;Node2 -->
<g id="edge4_Node000002_Node000005" class="edge">
<title>Node5&#45;&gt;Node2</title>
<g id="a_edge4_Node000002_Node000005"><a xlink:title=" ">
<path fill="none" stroke="#63b8ff" d="M172.82,-131.27C149.27,-121.64 118.39,-109.01 97.55,-100.48"/>
<polygon fill="#63b8ff" stroke="#63b8ff" points="171.4,-134.47 181.98,-135.02 174.05,-128 171.4,-134.47"/>
</a>
</g>
</g>
<!-- Node6 -->
<g id="Node000006" class="node">
<title>Node6</title>
<g id="a_Node000006"><a xlink:href="interface_data_1_1_hash_function_1_1_bernstein_hash_1_1_i_modified_bernstein_hash.html" target="_top" xlink:title="Implementation of Modified Bernstein hash as specified at http://www.eternallyconfuzzled....">
<polygon fill="white" stroke="#666666" points="287.5,-100 167.25,-100 167.25,-80 287.5,-80 287.5,-100"/>
<text text-anchor="middle" x="227.38" y="-86.5" font-family="Helvetica,sans-Serif" font-size="10.00">IModifiedBernsteinHash</text>
</a>
</g>
</g>
<!-- Node5&#45;&gt;Node6 -->
<g id="edge7_Node000006_Node000005" class="edge">
<title>Node5&#45;&gt;Node6</title>
<g id="a_edge7_Node000006_Node000005"><a xlink:title=" ">
<path fill="none" stroke="#63b8ff" d="M214.15,-125C217.44,-116.54 221.12,-107.08 223.76,-100.3"/>
<polygon fill="#63b8ff" stroke="#63b8ff" points="210.94,-123.59 210.58,-134.18 217.47,-126.13 210.94,-123.59"/>
</a>
</g>
</g>
<!-- Node6&#45;&gt;Node1 -->
<g id="edge6_Node000001_Node000006" class="edge">
<title>Node6&#45;&gt;Node1</title>
<g id="a_edge6_Node000001_Node000006"><a xlink:title=" ">
<path fill="none" stroke="#63b8ff" d="M207.7,-72.14C197.87,-63.71 185.86,-53.41 175.37,-44.43"/>
<polygon fill="#63b8ff" stroke="#63b8ff" points="205.32,-74.71 215.19,-78.56 209.88,-69.39 205.32,-74.71"/>
</a>
</g>
</g>
</g>
</svg>
</svg>

<style type='text/css'>
<![CDATA[
[data-mouse-over-selected='false'] { opacity: 0.7; }
[data-mouse-over-selected='true']  { opacity: 1.0; }
]]>
</style>
<script type="application/ecmascript"><![CDATA[
document.addEventListener('DOMContentLoaded', (event) => {
  highlightEdges();
  highlightAdjacentNodes();
});
]]></script>
</svg>
