<?xml version="1.0" encoding="UTF-8" standalone="no"?>
<!DOCTYPE svg PUBLIC "-//W3C//DTD SVG 1.1//EN"
 "http://www.w3.org/Graphics/SVG/1.1/DTD/svg11.dtd">
<!-- Generated by graphviz version 12.2.0 (20241103.1931)
 -->
<!-- Title: Data.HashFunction.FNV.FNV1_Implementation Pages: 1 -->
<svg width="831pt" height="166pt"
 viewBox="0.00 0.00 831.25 166.00" xmlns="http://www.w3.org/2000/svg" xmlns:xlink="http://www.w3.org/1999/xlink">
<g id="graph0" class="graph" transform="scale(1 1) rotate(0) translate(4 162)">
<title>Data.HashFunction.FNV.FNV1_Implementation</title>
<!-- Node1 -->
<g id="Node000001" class="node">
<title>Node1</title>
<g id="a_Node000001"><a xlink:title=" ">
<polygon fill="#999999" stroke="#666666" points="823.25,-102 671.5,-102 671.5,-70 823.25,-70 823.25,-102"/>
<text text-anchor="start" x="679.5" y="-88.5" font-family="Helvetica,sans-Serif" font-size="10.00">Data.HashFunction.FNV.FNV1</text>
<text text-anchor="middle" x="747.38" y="-76.5" font-family="Helvetica,sans-Serif" font-size="10.00">_Implementation</text>
</a>
</g>
</g>
<!-- Node2 -->
<g id="Node000002" class="node">
<title>Node2</title>
<g id="a_Node000002"><a xlink:href="class_data_1_1_hash_function_1_1_f_n_v_1_1_f_n_v1_base.html" target="_top" xlink:title=" ">
<polygon fill="white" stroke="#666666" points="634.5,-78 570.5,-78 570.5,-58 634.5,-58 634.5,-78"/>
<text text-anchor="middle" x="602.5" y="-64.5" font-family="Helvetica,sans-Serif" font-size="10.00">FNV1Base</text>
</a>
</g>
</g>
<!-- Node2&#45;&gt;Node1 -->
<g id="edge1_Node000001_Node000002" class="edge">
<title>Node2&#45;&gt;Node1</title>
<g id="a_edge1_Node000001_Node000002"><a xlink:title=" ">
<path fill="none" stroke="#63b8ff" d="M646.06,-73.36C654.03,-74.37 662.57,-75.44 671.19,-76.53"/>
<polygon fill="#63b8ff" stroke="#63b8ff" points="646.72,-69.92 636.36,-72.14 645.84,-76.86 646.72,-69.92"/>
</a>
</g>
</g>
<!-- Node3 -->
<g id="Node000003" class="node">
<title>Node3</title>
<g id="a_Node000003"><a xlink:href="class_data_1_1_hash_function_1_1_core_1_1_streamable_hash_function_base.html" target="_top" xlink:title="Common interface to non&#45;cryptographic hash functions that can be computed over a stream of data witho...">
<polygon fill="white" stroke="#666666" points="446.38,-146 297.62,-146 297.62,-126 446.38,-126 446.38,-146"/>
<text text-anchor="middle" x="372" y="-132.5" font-family="Helvetica,sans-Serif" font-size="10.00">StreamableHashFunctionBase</text>
</a>
</g>
</g>
<!-- Node3&#45;&gt;Node2 -->
<g id="edge2_Node000002_Node000003" class="edge">
<title>Node3&#45;&gt;Node2</title>
<g id="a_edge2_Node000002_Node000003"><a xlink:title=" ">
<path fill="none" stroke="#63b8ff" d="M444.65,-123.26C478.03,-116.21 517.93,-106.18 552.5,-93 563.03,-88.99 574.26,-83.36 583.31,-78.46"/>
<polygon fill="#63b8ff" stroke="#63b8ff" points="444.16,-119.79 435.07,-125.23 445.57,-126.65 444.16,-119.79"/>
</a>
</g>
</g>
<!-- Node4 -->
<g id="Node000004" class="node">
<title>Node4</title>
<g id="a_Node000004"><a xlink:href="class_data_1_1_hash_function_1_1_core_1_1_hash_function_base.html" target="_top" xlink:title="Abstract implementation of an IHashFunction. Provides convenience checks and ensures a default HashSi...">
<polygon fill="white" stroke="#666666" points="231,-158 131.75,-158 131.75,-138 231,-138 231,-158"/>
<text text-anchor="middle" x="181.38" y="-144.5" font-family="Helvetica,sans-Serif" font-size="10.00">HashFunctionBase</text>
</a>
</g>
</g>
<!-- Node4&#45;&gt;Node3 -->
<g id="edge3_Node000003_Node000004" class="edge">
<title>Node4&#45;&gt;Node3</title>
<g id="a_edge3_Node000003_Node000004"><a xlink:title=" ">
<path fill="none" stroke="#63b8ff" d="M242.59,-144.17C259.98,-143.06 279.17,-141.84 297.29,-140.69"/>
<polygon fill="#63b8ff" stroke="#63b8ff" points="242.71,-140.65 232.95,-144.78 243.15,-147.64 242.71,-140.65"/>
</a>
</g>
</g>
<!-- Node5 -->
<g id="Node000005" class="node">
<title>Node5</title>
<g id="a_Node000005"><a xlink:href="interface_data_1_1_hash_function_1_1_i_hash_function.html" target="_top" xlink:title="Common interface to non&#45;cryptographic hash functions.">
<polygon fill="white" stroke="#666666" points="79.75,-138 0,-138 0,-118 79.75,-118 79.75,-138"/>
<text text-anchor="middle" x="39.88" y="-124.5" font-family="Helvetica,sans-Serif" font-size="10.00">IHashFunction</text>
</a>
</g>
</g>
<!-- Node5&#45;&gt;Node4 -->
<g id="edge4_Node000004_Node000005" class="edge">
<title>Node5&#45;&gt;Node4</title>
<g id="a_edge4_Node000004_Node000005"><a xlink:title=" ">
<path fill="none" stroke="#63b8ff" d="M91.31,-135.23C104.4,-137.11 118.48,-139.13 131.5,-140.99"/>
<polygon fill="#63b8ff" stroke="#63b8ff" points="92,-131.79 81.6,-133.84 91.01,-138.72 92,-131.79"/>
</a>
</g>
</g>
<!-- Node6 -->
<g id="Node000006" class="node">
<title>Node6</title>
<g id="a_Node000006"><a xlink:href="interface_data_1_1_hash_function_1_1_i_streamable_hash_function.html" target="_top" xlink:title="Common interface to non&#45;cryptographic hash functions that can be computed over a stream of data witho...">
<polygon fill="white" stroke="#666666" points="246,-120 116.75,-120 116.75,-100 246,-100 246,-120"/>
<text text-anchor="middle" x="181.38" y="-106.5" font-family="Helvetica,sans-Serif" font-size="10.00">IStreamableHashFunction</text>
</a>
</g>
</g>
<!-- Node5&#45;&gt;Node6 -->
<g id="edge6_Node000006_Node000005" class="edge">
<title>Node5&#45;&gt;Node6</title>
<g id="a_edge6_Node000006_Node000005"><a xlink:title=" ">
<path fill="none" stroke="#63b8ff" d="M91.3,-121.49C99.44,-120.44 107.96,-119.34 116.36,-118.26"/>
<polygon fill="#63b8ff" stroke="#63b8ff" points="91.08,-117.99 81.61,-122.74 91.97,-124.94 91.08,-117.99"/>
</a>
</g>
</g>
<!-- Node6&#45;&gt;Node3 -->
<g id="edge5_Node000003_Node000006" class="edge">
<title>Node6&#45;&gt;Node3</title>
<g id="a_edge5_Node000003_Node000006"><a xlink:title=" ">
<path fill="none" stroke="#63b8ff" d="M257.79,-120.39C270.81,-122.19 284.33,-124.05 297.31,-125.84"/>
<polygon fill="#63b8ff" stroke="#63b8ff" points="258.38,-116.94 248,-119.05 257.43,-123.88 258.38,-116.94"/>
</a>
</g>
</g>
<!-- Node7 -->
<g id="Node000007" class="node">
<title>Node7</title>
<g id="a_Node000007"><a xlink:href="interface_data_1_1_hash_function_1_1_f_n_v_1_1_i_f_n_v.html" target="_top" xlink:title="Implementation of Fowler–Noll–Vo hash function (FNV&#45;1 or FNV&#45;1a) as specified at http://www....">
<polygon fill="white" stroke="#666666" points="391.62,-108 352.38,-108 352.38,-88 391.62,-88 391.62,-108"/>
<text text-anchor="middle" x="372" y="-94.5" font-family="Helvetica,sans-Serif" font-size="10.00">IFNV</text>
</a>
</g>
</g>
<!-- Node6&#45;&gt;Node7 -->
<g id="edge8_Node000007_Node000006" class="edge">
<title>Node6&#45;&gt;Node7</title>
<g id="a_edge8_Node000007_Node000006"><a xlink:title=" ">
<path fill="none" stroke="#63b8ff" d="M257.94,-105.19C292.16,-103.02 329.81,-100.62 351.88,-99.22"/>
<polygon fill="#63b8ff" stroke="#63b8ff" points="257.77,-101.7 248.01,-105.82 258.21,-108.68 257.77,-101.7"/>
</a>
</g>
</g>
<!-- Node7&#45;&gt;Node2 -->
<g id="edge7_Node000002_Node000007" class="edge">
<title>Node7&#45;&gt;Node2</title>
<g id="a_edge7_Node000002_Node000007"><a xlink:title=" ">
<path fill="none" stroke="#63b8ff" d="M403.31,-94.02C446.7,-88.32 526.12,-77.9 570.1,-72.12"/>
<polygon fill="#63b8ff" stroke="#63b8ff" points="403.05,-90.52 393.59,-95.3 403.96,-97.47 403.05,-90.52"/>
</a>
</g>
</g>
<!-- Node10 -->
<g id="Node000010" class="node">
<title>Node10</title>
<g id="a_Node000010"><a xlink:href="interface_data_1_1_hash_function_1_1_f_n_v_1_1_i_f_n_v1.html" target="_top" xlink:title="Implementation of Fowler–Noll–Vo hash function (FNV&#45;1) as specified at http://www....">
<polygon fill="white" stroke="#666666" points="624.75,-116 580.25,-116 580.25,-96 624.75,-96 624.75,-116"/>
<text text-anchor="middle" x="602.5" y="-102.5" font-family="Helvetica,sans-Serif" font-size="10.00">IFNV1</text>
</a>
</g>
</g>
<!-- Node7&#45;&gt;Node10 -->
<g id="edge12_Node000010_Node000007" class="edge">
<title>Node7&#45;&gt;Node10</title>
<g id="a_edge12_Node000010_Node000007"><a xlink:title=" ">
<path fill="none" stroke="#63b8ff" d="M403.32,-99.06C450.2,-100.7 539.13,-103.82 579.99,-105.25"/>
<polygon fill="#63b8ff" stroke="#63b8ff" points="403.72,-95.57 393.6,-98.72 403.47,-102.57 403.72,-95.57"/>
</a>
</g>
</g>
<!-- Node8 -->
<g id="Node000008" class="node">
<title>Node8</title>
<g id="a_Node000008"><a xlink:href="interface_data_1_1_hash_function_1_1_f_n_v_1_1_i_f_n_v_config.html" target="_top" xlink:title="Defines a configuration for a IFNV implementation.">
<polygon fill="white" stroke="#666666" points="461,-20 283,-20 283,0 461,0 461,-20"/>
<text text-anchor="middle" x="372" y="-6.5" font-family="Helvetica,sans-Serif" font-size="10.00">Data.HashFunction.FNV.IFNVConfig</text>
</a>
</g>
</g>
<!-- Node8&#45;&gt;Node2 -->
<g id="edge9_Node000002_Node000008" class="edge">
<title>Node8&#45;&gt;Node2</title>
<g id="a_edge9_Node000002_Node000008"><a xlink:title=" ">
<path fill="none" stroke="#9a32cd" stroke-dasharray="5,2" d="M472.63,-14.85C499.21,-18.41 527.49,-24.31 552.5,-34 566.6,-39.46 580.55,-49.75 589.94,-57.59"/>
<polygon fill="#9a32cd" stroke="#9a32cd" points="473.21,-11.4 462.85,-13.65 472.35,-18.35 473.21,-11.4"/>
</a>
</g>
<text text-anchor="middle" x="515.75" y="-36.5" font-family="Helvetica,sans-Serif" font-size="10.00" fill="grey"> _config</text>
</g>
<!-- Node9 -->
<g id="Node000009" class="node">
<title>Node9</title>
<g id="a_Node000009"><a xlink:href="class_data_1_1_hash_function_1_1_f_n_v_1_1_utilities_1_1_f_n_v_prime_offset.html" target="_top" xlink:title=" ">
<polygon fill="white" stroke="#666666" points="453.12,-70 290.88,-70 290.88,-38 453.12,-38 453.12,-70"/>
<text text-anchor="start" x="298.88" y="-56.5" font-family="Helvetica,sans-Serif" font-size="10.00">Data.HashFunction.FNV.Utilities.</text>
<text text-anchor="middle" x="372" y="-44.5" font-family="Helvetica,sans-Serif" font-size="10.00">FNVPrimeOffset</text>
</a>
</g>
</g>
<!-- Node9&#45;&gt;Node2 -->
<g id="edge10_Node000002_Node000009" class="edge">
<title>Node9&#45;&gt;Node2</title>
<g id="a_edge10_Node000002_Node000009"><a xlink:title=" ">
<path fill="none" stroke="#9a32cd" stroke-dasharray="5,2" d="M464.77,-50.04C493.01,-50.02 524.13,-51.22 552.5,-55 558.26,-55.77 564.3,-57 570.11,-58.41"/>
<polygon fill="#9a32cd" stroke="#9a32cd" points="464.76,-46.54 454.79,-50.11 464.81,-53.54 464.76,-46.54"/>
</a>
</g>
<text text-anchor="middle" x="515.75" y="-57.5" font-family="Helvetica,sans-Serif" font-size="10.00" fill="grey"> _fnvPrimeOffset</text>
</g>
<!-- Node10&#45;&gt;Node1 -->
<g id="edge11_Node000001_Node000010" class="edge">
<title>Node10&#45;&gt;Node1</title>
<g id="a_edge11_Node000001_Node000010"><a xlink:title=" ">
<path fill="none" stroke="#63b8ff" d="M636.27,-101.41C646.74,-99.95 658.8,-98.26 671.02,-96.55"/>
<polygon fill="#63b8ff" stroke="#63b8ff" points="636.12,-97.9 626.7,-102.75 637.09,-104.83 636.12,-97.9"/>
</a>
</g>
</g>
</g>
</svg>
