<?xml version="1.0" encoding="UTF-8" standalone="no"?>
<!DOCTYPE svg PUBLIC "-//W3C//DTD SVG 1.1//EN"
 "http://www.w3.org/Graphics/SVG/1.1/DTD/svg11.dtd">
<!-- Generated by graphviz version 12.2.0 (20241103.1931)
 -->
<!-- Title: Data.HashFunction.CityHash.CityHash_Implementation.CityHash128WithSeed Pages: 1 -->
<svg width="1113pt" height="222pt"
 viewBox="0.00 0.00 1112.50 222.00" xmlns="http://www.w3.org/2000/svg" xmlns:xlink="http://www.w3.org/1999/xlink">
<g id="graph0" class="graph" transform="scale(1 1) rotate(0) translate(4 218)">
<title>Data.HashFunction.CityHash.CityHash_Implementation.CityHash128WithSeed</title>
<!-- Node1 -->
<g id="Node000001" class="node">
<title>Node1</title>
<g id="a_Node000001"><a xlink:title=" ">
<polygon fill="#999999" stroke="#666666" points="189.25,-135 0,-135 0,-91 189.25,-91 189.25,-135"/>
<text text-anchor="start" x="8" y="-121.5" font-family="Helvetica,sans-Serif" font-size="10.00">Data.HashFunction.CityHash.</text>
<text text-anchor="start" x="8" y="-109.5" font-family="Helvetica,sans-Serif" font-size="10.00">CityHash_Implementation.CityHash128</text>
<text text-anchor="middle" x="94.62" y="-97.5" font-family="Helvetica,sans-Serif" font-size="10.00">WithSeed</text>
</a>
</g>
</g>
<!-- Node2 -->
<g id="Node000002" class="node">
<title>Node2</title>
<g id="a_Node000002"><a xlink:href="class_data_1_1_hash_function_1_1_city_hash_1_1_city_hash___implementation.html#ad44ecf3b0ac0c86d3791f37b762f4b39" target="_top" xlink:title=" ">
<polygon fill="white" stroke="#666666" points="408.5,-151 225.25,-151 225.25,-119 408.5,-119 408.5,-151"/>
<text text-anchor="start" x="233.25" y="-137.5" font-family="Helvetica,sans-Serif" font-size="10.00">Data.HashFunction.CityHash.</text>
<text text-anchor="middle" x="316.88" y="-125.5" font-family="Helvetica,sans-Serif" font-size="10.00">CityHash_Implementation.CityMurmur</text>
</a>
</g>
</g>
<!-- Node1&#45;&gt;Node2 -->
<g id="edge1_Node000001_Node000002" class="edge">
<title>Node1&#45;&gt;Node2</title>
<g id="a_edge1_Node000001_Node000002"><a xlink:title=" ">
<path fill="none" stroke="#63b8ff" d="M189.67,-122.39C197.62,-123.19 205.68,-123.99 213.68,-124.79"/>
<polygon fill="#63b8ff" stroke="#63b8ff" points="213.14,-128.26 223.44,-125.77 213.84,-121.29 213.14,-128.26"/>
</a>
</g>
</g>
<!-- Node4 -->
<g id="Node000004" class="node">
<title>Node4</title>
<g id="a_Node000004"><a xlink:href="class_data_1_1_hash_function_1_1_city_hash_1_1_city_hash___implementation.html#a44c7f6a47b61dd01499fa3ffd79fba5c" target="_top" xlink:title=" ">
<polygon fill="white" stroke="#666666" points="878.5,-214 686.25,-214 686.25,-182 878.5,-182 878.5,-214"/>
<text text-anchor="start" x="694.25" y="-200.5" font-family="Helvetica,sans-Serif" font-size="10.00">Data.HashFunction.CityHash.</text>
<text text-anchor="middle" x="782.38" y="-188.5" font-family="Helvetica,sans-Serif" font-size="10.00">CityHash_Implementation.Hash64Len16</text>
</a>
</g>
</g>
<!-- Node1&#45;&gt;Node4 -->
<g id="edge9_Node000001_Node000004" class="edge">
<title>Node1&#45;&gt;Node4</title>
<g id="a_edge9_Node000001_Node000004"><a xlink:title=" ">
<path fill="none" stroke="#63b8ff" d="M151.48,-135.39C174.12,-143.9 200.68,-153.18 225.25,-160 320.93,-186.56 345.66,-193.4 444.5,-203 535.52,-211.84 558.82,-204.74 650.25,-203 658.07,-202.85 666.15,-202.65 674.28,-202.42"/>
<polygon fill="#63b8ff" stroke="#63b8ff" points="674.38,-205.92 684.27,-202.12 674.17,-198.92 674.38,-205.92"/>
</a>
</g>
</g>
<!-- Node7 -->
<g id="Node000007" class="node">
<title>Node7</title>
<g id="a_Node000007"><a xlink:href="class_data_1_1_hash_function_1_1_city_hash_1_1_city_hash___implementation.html#a054a2a634a2a60c58844d08986eef674" target="_top" xlink:title=" ">
<polygon fill="white" stroke="#666666" points="874.75,-88 690,-88 690,-56 874.75,-56 874.75,-88"/>
<text text-anchor="start" x="698" y="-74.5" font-family="Helvetica,sans-Serif" font-size="10.00">Data.HashFunction.CityHash.</text>
<text text-anchor="middle" x="782.38" y="-62.5" font-family="Helvetica,sans-Serif" font-size="10.00">CityHash_Implementation.RotateRight</text>
</a>
</g>
</g>
<!-- Node1&#45;&gt;Node7 -->
<g id="edge10_Node000001_Node000007" class="edge">
<title>Node1&#45;&gt;Node7</title>
<g id="a_edge10_Node000001_Node000007"><a xlink:title=" ">
<path fill="none" stroke="#63b8ff" d="M189.54,-107.39C317.5,-99.73 545.82,-86.08 678.35,-78.16"/>
<polygon fill="#63b8ff" stroke="#63b8ff" points="678.41,-81.66 688.18,-77.57 677.99,-74.68 678.41,-81.66"/>
</a>
</g>
</g>
<!-- Node8 -->
<g id="Node000008" class="node">
<title>Node8</title>
<g id="a_Node000008"><a xlink:href="class_data_1_1_hash_function_1_1_city_hash_1_1_city_hash___implementation.html#ad6f6b8fbd54cc87e4cc63bd5b9772bfd" target="_top" xlink:title=" ">
<polygon fill="white" stroke="#666666" points="637.5,-44 457.25,-44 457.25,0 637.5,0 637.5,-44"/>
<text text-anchor="start" x="465.25" y="-30.5" font-family="Helvetica,sans-Serif" font-size="10.00">Data.HashFunction.CityHash.</text>
<text text-anchor="start" x="465.25" y="-18.5" font-family="Helvetica,sans-Serif" font-size="10.00">CityHash_Implementation.WeakHash</text>
<text text-anchor="middle" x="547.38" y="-6.5" font-family="Helvetica,sans-Serif" font-size="10.00">Len32WithSeeds</text>
</a>
</g>
</g>
<!-- Node1&#45;&gt;Node8 -->
<g id="edge11_Node000001_Node000008" class="edge">
<title>Node1&#45;&gt;Node8</title>
<g id="a_edge11_Node000001_Node000008"><a xlink:title=" ">
<path fill="none" stroke="#63b8ff" d="M139.5,-90.62C164.09,-79.05 195.69,-65.75 225.25,-58 297.56,-39.04 381.59,-30.06 445.56,-25.81"/>
<polygon fill="#63b8ff" stroke="#63b8ff" points="445.59,-29.32 455.35,-25.2 445.14,-22.33 445.59,-29.32"/>
</a>
</g>
</g>
<!-- Node3 -->
<g id="Node000003" class="node">
<title>Node3</title>
<g id="a_Node000003"><a xlink:href="class_data_1_1_hash_function_1_1_city_hash_1_1_city_hash___implementation.html#ace2758fca35c5ac5a5698e2f1a4aa513" target="_top" xlink:title=" ">
<polygon fill="white" stroke="#666666" points="650.25,-170 444.5,-170 444.5,-138 650.25,-138 650.25,-170"/>
<text text-anchor="start" x="452.5" y="-156.5" font-family="Helvetica,sans-Serif" font-size="10.00">Data.HashFunction.CityHash.</text>
<text text-anchor="middle" x="547.38" y="-144.5" font-family="Helvetica,sans-Serif" font-size="10.00">CityHash_Implementation.Hash64Len0to16</text>
</a>
</g>
</g>
<!-- Node2&#45;&gt;Node3 -->
<g id="edge2_Node000002_Node000003" class="edge">
<title>Node2&#45;&gt;Node3</title>
<g id="a_edge2_Node000002_Node000003"><a xlink:title=" ">
<path fill="none" stroke="#63b8ff" d="M408.84,-142.56C416.71,-143.22 424.73,-143.88 432.75,-144.55"/>
<polygon fill="#63b8ff" stroke="#63b8ff" points="432.3,-148.03 442.55,-145.37 432.88,-141.05 432.3,-148.03"/>
</a>
</g>
</g>
<!-- Node2&#45;&gt;Node4 -->
<g id="edge7_Node000002_Node000004" class="edge">
<title>Node2&#45;&gt;Node4</title>
<g id="a_edge7_Node000002_Node000004"><a xlink:title=" ">
<path fill="none" stroke="#63b8ff" d="M356.17,-151.44C380.9,-161.26 414.02,-172.97 444.5,-179 520.55,-194.05 608,-198.62 674.74,-199.52"/>
<polygon fill="#63b8ff" stroke="#63b8ff" points="674.56,-203.02 684.6,-199.62 674.63,-196.02 674.56,-203.02"/>
</a>
</g>
</g>
<!-- Node6 -->
<g id="Node000006" class="node">
<title>Node6</title>
<g id="a_Node000006"><a xlink:href="class_data_1_1_hash_function_1_1_city_hash_1_1_city_hash___implementation.html#ac2fa0ddcbf5ad593d0830669e41bf93c" target="_top" xlink:title=" ">
<polygon fill="white" stroke="#666666" points="856.38,-151 708.38,-151 708.38,-119 856.38,-119 856.38,-151"/>
<text text-anchor="start" x="716.38" y="-137.5" font-family="Helvetica,sans-Serif" font-size="10.00">Data.HashFunction.CityHash.</text>
<text text-anchor="middle" x="782.38" y="-125.5" font-family="Helvetica,sans-Serif" font-size="10.00">CityHash_Implementation.Mix</text>
</a>
</g>
</g>
<!-- Node2&#45;&gt;Node6 -->
<g id="edge8_Node000002_Node000006" class="edge">
<title>Node2&#45;&gt;Node6</title>
<g id="a_edge8_Node000002_Node000006"><a xlink:title=" ">
<path fill="none" stroke="#63b8ff" d="M408.81,-130.17C420.81,-129.69 432.95,-129.27 444.5,-129 535.92,-126.84 558.83,-126.91 650.25,-129 665.28,-129.34 681.28,-129.91 696.74,-130.56"/>
<polygon fill="#63b8ff" stroke="#63b8ff" points="696.23,-134.04 706.37,-130.98 696.53,-127.05 696.23,-134.04"/>
</a>
</g>
</g>
<!-- Node3&#45;&gt;Node4 -->
<g id="edge3_Node000003_Node000004" class="edge">
<title>Node3&#45;&gt;Node4</title>
<g id="a_edge3_Node000003_Node000004"><a xlink:title=" ">
<path fill="none" stroke="#63b8ff" d="M635.47,-170.45C651.01,-173.38 667.3,-176.46 683.13,-179.45"/>
<polygon fill="#63b8ff" stroke="#63b8ff" points="682.04,-182.8 692.51,-181.22 683.34,-175.92 682.04,-182.8"/>
</a>
</g>
</g>
<!-- Node3&#45;&gt;Node6 -->
<g id="edge5_Node000003_Node000006" class="edge">
<title>Node3&#45;&gt;Node6</title>
<g id="a_edge5_Node000003_Node000006"><a xlink:title=" ">
<path fill="none" stroke="#63b8ff" d="M650.57,-145.67C665.97,-144.41 681.7,-143.13 696.67,-141.91"/>
<polygon fill="#63b8ff" stroke="#63b8ff" points="696.77,-145.41 706.45,-141.11 696.2,-138.43 696.77,-145.41"/>
</a>
</g>
</g>
<!-- Node3&#45;&gt;Node7 -->
<g id="edge6_Node000003_Node000007" class="edge">
<title>Node3&#45;&gt;Node7</title>
<g id="a_edge6_Node000003_Node000007"><a xlink:title=" ">
<path fill="none" stroke="#63b8ff" d="M595.25,-137.5C632.29,-124.47 684.18,-106.21 723.76,-92.28"/>
<polygon fill="#63b8ff" stroke="#63b8ff" points="724.88,-95.59 733.15,-88.97 722.56,-88.99 724.88,-95.59"/>
</a>
</g>
</g>
<!-- Node5 -->
<g id="Node000005" class="node">
<title>Node5</title>
<g id="a_Node000005"><a xlink:href="class_data_1_1_hash_function_1_1_city_hash_1_1_city_hash___implementation.html#a45aa0a22c0153b96e93044b4becadaff" target="_top" xlink:title=" ">
<polygon fill="white" stroke="#666666" points="1104.5,-214 914.5,-214 914.5,-182 1104.5,-182 1104.5,-214"/>
<text text-anchor="start" x="922.5" y="-200.5" font-family="Helvetica,sans-Serif" font-size="10.00">Data.HashFunction.CityHash.</text>
<text text-anchor="middle" x="1009.5" y="-188.5" font-family="Helvetica,sans-Serif" font-size="10.00">CityHash_Implementation.Hash128to64</text>
</a>
</g>
</g>
<!-- Node4&#45;&gt;Node5 -->
<g id="edge4_Node000004_Node000005" class="edge">
<title>Node4&#45;&gt;Node5</title>
<g id="a_edge4_Node000004_Node000005"><a xlink:title=" ">
<path fill="none" stroke="#63b8ff" d="M878.85,-198C886.83,-198 894.93,-198 902.98,-198"/>
<polygon fill="#63b8ff" stroke="#63b8ff" points="902.8,-201.5 912.8,-198 902.8,-194.5 902.8,-201.5"/>
</a>
</g>
</g>
<!-- Node8&#45;&gt;Node7 -->
<g id="edge12_Node000008_Node000007" class="edge">
<title>Node8&#45;&gt;Node7</title>
<g id="a_edge12_Node000008_Node000007"><a xlink:title=" ">
<path fill="none" stroke="#63b8ff" d="M637.79,-41.19C656.07,-45.11 675.29,-49.24 693.52,-53.15"/>
<polygon fill="#63b8ff" stroke="#63b8ff" points="692.73,-56.56 703.24,-55.23 694.2,-49.71 692.73,-56.56"/>
</a>
</g>
</g>
</g>
</svg>
