<?xml version="1.0" encoding="UTF-8" standalone="no"?>
<!DOCTYPE svg PUBLIC "-//W3C//DTD SVG 1.1//EN"
 "http://www.w3.org/Graphics/SVG/1.1/DTD/svg11.dtd">
<!-- Generated by graphviz version 12.2.0 (20241103.1931)
 -->
<!-- Title: Data.HashFunction.BuzHash.BuzHash_Implementation Pages: 1 -->
<svg width="399pt" height="234pt"
 viewBox="0.00 0.00 399.00 234.00" xmlns="http://www.w3.org/2000/svg" xmlns:xlink="http://www.w3.org/1999/xlink">

<svg id="main" version="1.1" xmlns="http://www.w3.org/2000/svg" xmlns:xlink="http://www.w3.org/1999/xlink" xml:space="preserve">

<style type="text/css"><![CDATA[
.node, .edge {opacity: 0.7;}
.node.selected, .edge.selected {opacity: 1;}
.edge:hover path { stroke: red; }
.edge:hover polygon { stroke: red; fill: red; }
]]></style>
<script type="application/ecmascript" xlink:href="svg.min.js"/>
<svg id="graph" class="graph">
<g id="graph0" class="graph" transform="scale(1 1) rotate(0) translate(4 230)">
<title>Data.HashFunction.BuzHash.BuzHash_Implementation</title>
<!-- Node1 -->
<g id="Node000001" class="node">
<title>Node1</title>
<g id="a_Node000001"><a xlink:title=" ">
<polygon fill="#999999" stroke="#666666" points="270,-32 122.75,-32 122.75,0 270,0 270,-32"/>
<text text-anchor="start" x="130.75" y="-18.5" font-family="Helvetica,sans-Serif" font-size="10.00">Data.HashFunction.BuzHash.</text>
<text text-anchor="middle" x="196.38" y="-6.5" font-family="Helvetica,sans-Serif" font-size="10.00">BuzHash_Implementation</text>
</a>
</g>
</g>
<!-- Node2 -->
<g id="Node000002" class="node">
<title>Node2</title>
<g id="a_Node000002"><a xlink:href="class_data_1_1_hash_function_1_1_core_1_1_streamable_hash_function_base.html" target="_top" xlink:title="Common interface to non&#45;cryptographic hash functions that can be computed over a stream of data witho...">
<polygon fill="white" stroke="#666666" points="148.75,-106 0,-106 0,-86 148.75,-86 148.75,-106"/>
<text text-anchor="middle" x="74.38" y="-92.5" font-family="Helvetica,sans-Serif" font-size="10.00">StreamableHashFunctionBase</text>
</a>
</g>
</g>
<!-- Node2&#45;&gt;Node1 -->
<g id="edge1_Node000001_Node000002" class="edge">
<title>Node2&#45;&gt;Node1</title>
<g id="a_edge1_Node000001_Node000002"><a xlink:title=" ">
<path fill="none" stroke="#63b8ff" d="M98.48,-79.59C119.84,-65.93 150.89,-46.08 172.26,-32.42"/>
<polygon fill="#63b8ff" stroke="#63b8ff" points="96.66,-76.6 90.12,-84.93 100.43,-82.49 96.66,-76.6"/>
</a>
</g>
</g>
<!-- Node3 -->
<g id="Node000003" class="node">
<title>Node3</title>
<g id="a_Node000003"><a xlink:href="class_data_1_1_hash_function_1_1_core_1_1_hash_function_base.html" target="_top" xlink:title="Abstract implementation of an IHashFunction. Provides convenience checks and ensures a default HashSi...">
<polygon fill="white" stroke="#666666" points="114,-169 14.75,-169 14.75,-149 114,-149 114,-169"/>
<text text-anchor="middle" x="64.38" y="-155.5" font-family="Helvetica,sans-Serif" font-size="10.00">HashFunctionBase</text>
</a>
</g>
</g>
<!-- Node3&#45;&gt;Node2 -->
<g id="edge2_Node000002_Node000003" class="edge">
<title>Node3&#45;&gt;Node2</title>
<g id="a_edge2_Node000002_Node000003"><a xlink:title=" ">
<path fill="none" stroke="#63b8ff" d="M67.73,-137.53C69.46,-126.98 71.49,-114.62 72.84,-106.35"/>
<polygon fill="#63b8ff" stroke="#63b8ff" points="64.3,-136.81 66.14,-147.24 71.21,-137.94 64.3,-136.81"/>
</a>
</g>
</g>
<!-- Node4 -->
<g id="Node000004" class="node">
<title>Node4</title>
<g id="a_Node000004"><a xlink:href="interface_data_1_1_hash_function_1_1_i_hash_function.html" target="_top" xlink:title="Common interface to non&#45;cryptographic hash functions.">
<polygon fill="white" stroke="#666666" points="169.25,-226 89.5,-226 89.5,-206 169.25,-206 169.25,-226"/>
<text text-anchor="middle" x="129.38" y="-212.5" font-family="Helvetica,sans-Serif" font-size="10.00">IHashFunction</text>
</a>
</g>
</g>
<!-- Node4&#45;&gt;Node3 -->
<g id="edge3_Node000003_Node000004" class="edge">
<title>Node4&#45;&gt;Node3</title>
<g id="a_edge3_Node000003_Node000004"><a xlink:title=" ">
<path fill="none" stroke="#63b8ff" d="M109.59,-198.26C98.3,-188.71 84.58,-177.1 75.24,-169.19"/>
<polygon fill="#63b8ff" stroke="#63b8ff" points="107.3,-200.9 117.19,-204.69 111.82,-195.56 107.3,-200.9"/>
</a>
</g>
</g>
<!-- Node5 -->
<g id="Node000005" class="node">
<title>Node5</title>
<g id="a_Node000005"><a xlink:href="interface_data_1_1_hash_function_1_1_i_streamable_hash_function.html" target="_top" xlink:title="Common interface to non&#45;cryptographic hash functions that can be computed over a stream of data witho...">
<polygon fill="white" stroke="#666666" points="261,-169 131.75,-169 131.75,-149 261,-149 261,-169"/>
<text text-anchor="middle" x="196.38" y="-155.5" font-family="Helvetica,sans-Serif" font-size="10.00">IStreamableHashFunction</text>
</a>
</g>
</g>
<!-- Node4&#45;&gt;Node5 -->
<g id="edge5_Node000005_Node000004" class="edge">
<title>Node4&#45;&gt;Node5</title>
<g id="a_edge5_Node000005_Node000004"><a xlink:title=" ">
<path fill="none" stroke="#63b8ff" d="M149.42,-198.54C161.12,-188.94 175.45,-177.18 185.18,-169.19"/>
<polygon fill="#63b8ff" stroke="#63b8ff" points="147.42,-195.66 141.91,-204.71 151.86,-201.07 147.42,-195.66"/>
</a>
</g>
</g>
<!-- Node5&#45;&gt;Node2 -->
<g id="edge4_Node000002_Node000005" class="edge">
<title>Node5&#45;&gt;Node2</title>
<g id="a_edge4_Node000002_Node000005"><a xlink:title=" ">
<path fill="none" stroke="#63b8ff" d="M167.35,-143.49C144.3,-131.96 112.77,-116.2 92.99,-106.31"/>
<polygon fill="#63b8ff" stroke="#63b8ff" points="165.72,-146.58 176.23,-147.93 168.85,-140.32 165.72,-146.58"/>
</a>
</g>
</g>
<!-- Node6 -->
<g id="Node000006" class="node">
<title>Node6</title>
<g id="a_Node000006"><a xlink:href="interface_data_1_1_hash_function_1_1_buz_hash_1_1_i_buz_hash.html" target="_top" xlink:title="Implementation of BuzHash as specified at http://www.serve.net/buz/hash.adt/java.002....">
<polygon fill="white" stroke="#666666" points="226.12,-106 166.62,-106 166.62,-86 226.12,-86 226.12,-106"/>
<text text-anchor="middle" x="196.38" y="-92.5" font-family="Helvetica,sans-Serif" font-size="10.00">IBuzHash</text>
</a>
</g>
</g>
<!-- Node5&#45;&gt;Node6 -->
<g id="edge7_Node000006_Node000005" class="edge">
<title>Node5&#45;&gt;Node6</title>
<g id="a_edge7_Node000006_Node000005"><a xlink:title=" ">
<path fill="none" stroke="#63b8ff" d="M196.38,-137.53C196.38,-126.98 196.38,-114.62 196.38,-106.35"/>
<polygon fill="#63b8ff" stroke="#63b8ff" points="192.88,-137.22 196.38,-147.22 199.88,-137.22 192.88,-137.22"/>
</a>
</g>
</g>
<!-- Node6&#45;&gt;Node1 -->
<g id="edge6_Node000001_Node000006" class="edge">
<title>Node6&#45;&gt;Node1</title>
<g id="a_edge6_Node000001_Node000006"><a xlink:title=" ">
<path fill="none" stroke="#63b8ff" d="M196.38,-74.51C196.38,-61.32 196.38,-44.47 196.38,-32.42"/>
<polygon fill="#63b8ff" stroke="#63b8ff" points="192.88,-74.23 196.38,-84.23 199.88,-74.23 192.88,-74.23"/>
</a>
</g>
</g>
<!-- Node7 -->
<g id="Node000007" class="node">
<title>Node7</title>
<g id="a_Node000007"><a xlink:href="interface_data_1_1_hash_function_1_1_buz_hash_1_1_i_buz_hash_config.html" target="_top" xlink:title="Defines a configuration for a IBuzHash implementation.">
<polygon fill="white" stroke="#666666" points="391,-112 243.75,-112 243.75,-80 391,-80 391,-112"/>
<text text-anchor="start" x="251.75" y="-98.5" font-family="Helvetica,sans-Serif" font-size="10.00">Data.HashFunction.BuzHash.</text>
<text text-anchor="middle" x="317.38" y="-86.5" font-family="Helvetica,sans-Serif" font-size="10.00">IBuzHashConfig</text>
</a>
</g>
</g>
<!-- Node7&#45;&gt;Node1 -->
<g id="edge8_Node000001_Node000007" class="edge">
<title>Node7&#45;&gt;Node1</title>
<g id="a_edge8_Node000001_Node000007"><a xlink:title=" ">
<path fill="none" stroke="#9a32cd" stroke-dasharray="5,2" d="M284,-73.49C263.78,-60.45 238.45,-44.12 220.23,-32.38"/>
<polygon fill="#9a32cd" stroke="#9a32cd" points="281.9,-76.29 292.2,-78.77 285.69,-70.41 281.9,-76.29"/>
</a>
</g>
<text text-anchor="middle" x="281.37" y="-52.5" font-family="Helvetica,sans-Serif" font-size="10.00" fill="grey"> _config</text>
</g>
</g>
</svg>
</svg>

<style type='text/css'>
<![CDATA[
[data-mouse-over-selected='false'] { opacity: 0.7; }
[data-mouse-over-selected='true']  { opacity: 1.0; }
]]>
</style>
<script type="application/ecmascript"><![CDATA[
document.addEventListener('DOMContentLoaded', (event) => {
  highlightEdges();
  highlightAdjacentNodes();
});
]]></script>
</svg>
