<?xml version="1.0" encoding="UTF-8" standalone="no"?>
<!DOCTYPE svg PUBLIC "-//W3C//DTD SVG 1.1//EN"
 "http://www.w3.org/Graphics/SVG/1.1/DTD/svg11.dtd">
<!-- Generated by graphviz version 12.2.0 (20241103.1931)
 -->
<!-- Title: Data.HashFunction.Core.LibraryLoader.NativeLibraryLoader Pages: 1 -->
<svg width="492pt" height="114pt"
 viewBox="0.00 0.00 491.75 114.00" xmlns="http://www.w3.org/2000/svg" xmlns:xlink="http://www.w3.org/1999/xlink">
<g id="graph0" class="graph" transform="scale(1 1) rotate(0) translate(4 110)">
<title>Data.HashFunction.Core.LibraryLoader.NativeLibraryLoader</title>
<!-- Node1 -->
<g id="Node000001" class="node">
<title>Node1</title>
<g id="a_Node000001"><a xlink:title="Native library loader for fast native parts of some hash algorithms.">
<polygon fill="#999999" stroke="#666666" points="260.75,-69 103.75,-69 103.75,-37 260.75,-37 260.75,-69"/>
<text text-anchor="start" x="111.75" y="-55.5" font-family="Helvetica,sans-Serif" font-size="10.00">Data.HashFunction.Core.Library</text>
<text text-anchor="middle" x="182.25" y="-43.5" font-family="Helvetica,sans-Serif" font-size="10.00">Loader.NativeLibraryLoader</text>
</a>
</g>
</g>
<!-- Node3 -->
<g id="Node000003" class="node">
<title>Node3</title>
<g id="a_Node000003"><a xlink:href="class_data_1_1_hash_function_1_1_core_1_1_library_loader_1_1_native_library_loader_1_1_unix_native_library.html" target="_top" xlink:title=" ">
<polygon fill="white" stroke="#666666" points="483.75,-106 296.75,-106 296.75,-62 483.75,-62 483.75,-106"/>
<text text-anchor="start" x="304.75" y="-92.5" font-family="Helvetica,sans-Serif" font-size="10.00">Data.HashFunction.Core.Library</text>
<text text-anchor="start" x="304.75" y="-80.5" font-family="Helvetica,sans-Serif" font-size="10.00">Loader.NativeLibraryLoader.UnixNative</text>
<text text-anchor="middle" x="390.25" y="-68.5" font-family="Helvetica,sans-Serif" font-size="10.00">Library</text>
</a>
</g>
</g>
<!-- Node1&#45;&gt;Node3 -->
<g id="edge2_Node000001_Node000003" class="edge">
<title>Node1&#45;&gt;Node3</title>
<g id="a_edge2_Node000001_Node000003"><a xlink:title=" ">
<path fill="none" stroke="#63b8ff" d="M272.3,-66.4C280.28,-67.6 288.36,-68.82 296.37,-70.02"/>
<polygon fill="#63b8ff" stroke="#63b8ff" points="273.04,-62.97 262.63,-64.95 271.99,-69.89 273.04,-62.97"/>
</a>
</g>
</g>
<!-- Node4 -->
<g id="Node000004" class="node">
<title>Node4</title>
<g id="a_Node000004"><a xlink:href="class_data_1_1_hash_function_1_1_core_1_1_library_loader_1_1_native_library_loader_1_1_windows_native_library.html" target="_top" xlink:title=" ">
<polygon fill="white" stroke="#666666" points="479.62,-44 300.88,-44 300.88,0 479.62,0 479.62,-44"/>
<text text-anchor="start" x="308.88" y="-30.5" font-family="Helvetica,sans-Serif" font-size="10.00">Data.HashFunction.Core.Library</text>
<text text-anchor="start" x="308.88" y="-18.5" font-family="Helvetica,sans-Serif" font-size="10.00">Loader.NativeLibraryLoader.Windows</text>
<text text-anchor="middle" x="390.25" y="-6.5" font-family="Helvetica,sans-Serif" font-size="10.00">NativeLibrary</text>
</a>
</g>
</g>
<!-- Node1&#45;&gt;Node4 -->
<g id="edge3_Node000001_Node000004" class="edge">
<title>Node1&#45;&gt;Node4</title>
<g id="a_edge3_Node000001_Node000004"><a xlink:title=" ">
<path fill="none" stroke="#63b8ff" d="M272.41,-39.58C281.74,-38.18 291.23,-36.75 300.55,-35.35"/>
<polygon fill="#63b8ff" stroke="#63b8ff" points="271.99,-36.11 262.63,-41.05 273.04,-43.03 271.99,-36.11"/>
</a>
</g>
</g>
<!-- Node2 -->
<g id="Node000002" class="node">
<title>Node2</title>
<g id="a_Node000002"><a xlink:title=" ">
<polygon fill="white" stroke="#666666" points="67.75,-63 0,-63 0,-43 67.75,-43 67.75,-63"/>
<text text-anchor="middle" x="33.88" y="-49.5" font-family="Helvetica,sans-Serif" font-size="10.00">IDisposable</text>
</a>
</g>
</g>
<!-- Node2&#45;&gt;Node1 -->
<g id="edge1_Node000001_Node000002" class="edge">
<title>Node2&#45;&gt;Node1</title>
<g id="a_edge1_Node000001_Node000002"><a xlink:title=" ">
<path fill="none" stroke="#63b8ff" d="M79.57,-53C87.16,-53 95.24,-53 103.4,-53"/>
<polygon fill="#63b8ff" stroke="#63b8ff" points="79.6,-49.5 69.6,-53 79.6,-56.5 79.6,-49.5"/>
</a>
</g>
</g>
</g>
</svg>
