<?xml version="1.0" encoding="UTF-8" standalone="no"?>
<!DOCTYPE svg PUBLIC "-//W3C//DTD SVG 1.1//EN"
 "http://www.w3.org/Graphics/SVG/1.1/DTD/svg11.dtd">
<!-- Generated by graphviz version 12.2.0 (20241103.1931)
 -->
<!-- Title: Data.HashFunction.Blake3.Hasher.ThrowNullReferenceException Pages: 1 -->
<svg width="544pt" height="340pt"
 viewBox="0.00 0.00 543.50 340.00" xmlns="http://www.w3.org/2000/svg" xmlns:xlink="http://www.w3.org/1999/xlink">
<g id="graph0" class="graph" transform="scale(1 1) rotate(0) translate(4 336)">
<title>Data.HashFunction.Blake3.Hasher.ThrowNullReferenceException</title>
<!-- Node1 -->
<g id="Node000001" class="node">
<title>Node1</title>
<g id="a_Node000001"><a xlink:title=" ">
<polygon fill="#999999" stroke="#666666" points="535.5,-182 352.25,-182 352.25,-150 535.5,-150 535.5,-182"/>
<text text-anchor="start" x="360.25" y="-168.5" font-family="Helvetica,sans-Serif" font-size="10.00">Data.HashFunction.Blake3.</text>
<text text-anchor="middle" x="443.88" y="-156.5" font-family="Helvetica,sans-Serif" font-size="10.00">Hasher.ThrowNullReferenceException</text>
</a>
</g>
</g>
<!-- Node2 -->
<g id="Node000002" class="node">
<title>Node2</title>
<g id="a_Node000002"><a xlink:href="class_data_1_1_hash_function_1_1_blake3_1_1_hasher.html#a1b50103a85a849d2ada29e7cb69d1047" target="_top" xlink:title="Finalize the hash state to the output span, which can supply any number of output bytes.">
<polygon fill="white" stroke="#666666" points="312.88,-332 176.12,-332 176.12,-300 312.88,-300 312.88,-332"/>
<text text-anchor="start" x="184.12" y="-318.5" font-family="Helvetica,sans-Serif" font-size="10.00">Data.HashFunction.Blake3.</text>
<text text-anchor="middle" x="244.5" y="-306.5" font-family="Helvetica,sans-Serif" font-size="10.00">Hasher.Finalize</text>
</a>
</g>
</g>
<!-- Node1&#45;&gt;Node2 -->
<g id="edge1_Node000001_Node000002" class="edge">
<title>Node1&#45;&gt;Node2</title>
<g id="a_edge1_Node000001_Node000002"><a xlink:title=" ">
<path fill="none" stroke="#63b8ff" d="M423.5,-190.84C400.59,-218.72 360.01,-263.61 316.25,-291 311.17,-294.18 305.63,-297.02 299.96,-299.55"/>
<polygon fill="#63b8ff" stroke="#63b8ff" points="426.06,-193.24 429.62,-183.27 420.62,-188.84 426.06,-193.24"/>
</a>
</g>
</g>
<!-- Node4 -->
<g id="Node000004" class="node">
<title>Node4</title>
<g id="a_Node000004"><a xlink:href="class_data_1_1_hash_function_1_1_blake3_1_1_hasher.html#aa847dad36c23899ad97d4fbf040cb5ad" target="_top" xlink:title="Finalize the hash state to the output span, which can supply any number of output bytes.">
<polygon fill="white" stroke="#666666" points="312.88,-282 176.12,-282 176.12,-250 312.88,-250 312.88,-282"/>
<text text-anchor="start" x="184.12" y="-268.5" font-family="Helvetica,sans-Serif" font-size="10.00">Data.HashFunction.Blake3.</text>
<text text-anchor="middle" x="244.5" y="-256.5" font-family="Helvetica,sans-Serif" font-size="10.00">Hasher.Finalize</text>
</a>
</g>
</g>
<!-- Node1&#45;&gt;Node4 -->
<g id="edge3_Node000001_Node000004" class="edge">
<title>Node1&#45;&gt;Node4</title>
<g id="a_edge3_Node000001_Node000004"><a xlink:title=" ">
<path fill="none" stroke="#63b8ff" d="M409.07,-188.49C384.11,-204.47 348.95,-225.72 316.25,-241 309.76,-244.03 302.79,-246.92 295.85,-249.58"/>
<polygon fill="#63b8ff" stroke="#63b8ff" points="410.67,-191.62 417.16,-183.25 406.87,-185.74 410.67,-191.62"/>
</a>
</g>
</g>
<!-- Node5 -->
<g id="Node000005" class="node">
<title>Node5</title>
<g id="a_Node000005"><a xlink:href="class_data_1_1_hash_function_1_1_blake3_1_1_hasher.html#a112960a9c736d86e9c1d271dc2bafe9a" target="_top" xlink:title="Reset the Hasher to its initial state.">
<polygon fill="white" stroke="#666666" points="312.88,-232 176.12,-232 176.12,-200 312.88,-200 312.88,-232"/>
<text text-anchor="start" x="184.12" y="-218.5" font-family="Helvetica,sans-Serif" font-size="10.00">Data.HashFunction.Blake3.</text>
<text text-anchor="middle" x="244.5" y="-206.5" font-family="Helvetica,sans-Serif" font-size="10.00">Hasher.Reset</text>
</a>
</g>
</g>
<!-- Node1&#45;&gt;Node5 -->
<g id="edge4_Node000001_Node000005" class="edge">
<title>Node1&#45;&gt;Node5</title>
<g id="a_edge4_Node000001_Node000005"><a xlink:title=" ">
<path fill="none" stroke="#63b8ff" d="M366.86,-185.26C348.24,-189.97 328.49,-194.98 310.44,-199.55"/>
<polygon fill="#63b8ff" stroke="#63b8ff" points="367.67,-188.66 376.51,-182.81 365.95,-181.88 367.67,-188.66"/>
</a>
</g>
</g>
<!-- Node6 -->
<g id="Node000006" class="node">
<title>Node6</title>
<g id="a_Node000006"><a xlink:href="class_data_1_1_hash_function_1_1_blake3_1_1_hasher.html#a9405ec537b9815fe7b32cca00e1f49a7" target="_top" xlink:title="Add input bytes to the hash state. You can call this any number of times.">
<polygon fill="white" stroke="#666666" points="312.88,-182 176.12,-182 176.12,-150 312.88,-150 312.88,-182"/>
<text text-anchor="start" x="184.12" y="-168.5" font-family="Helvetica,sans-Serif" font-size="10.00">Data.HashFunction.Blake3.</text>
<text text-anchor="middle" x="244.5" y="-156.5" font-family="Helvetica,sans-Serif" font-size="10.00">Hasher.Update</text>
</a>
</g>
</g>
<!-- Node1&#45;&gt;Node6 -->
<g id="edge5_Node000001_Node000006" class="edge">
<title>Node1&#45;&gt;Node6</title>
<g id="a_edge5_Node000001_Node000006"><a xlink:title=" ">
<path fill="none" stroke="#63b8ff" d="M340.64,-166C331.35,-166 322.09,-166 313.2,-166"/>
<polygon fill="#63b8ff" stroke="#63b8ff" points="340.47,-169.5 350.47,-166 340.47,-162.5 340.47,-169.5"/>
</a>
</g>
</g>
<!-- Node7 -->
<g id="Node000007" class="node">
<title>Node7</title>
<g id="a_Node000007"><a xlink:href="class_data_1_1_hash_function_1_1_blake3_1_1_hasher.html#a6637a8a60b3fd5de746c95f5cf436dad" target="_top" xlink:title="Add input data to the hash state. You can call this any number of times.">
<polygon fill="white" stroke="#666666" points="312.88,-132 176.12,-132 176.12,-100 312.88,-100 312.88,-132"/>
<text text-anchor="start" x="184.12" y="-118.5" font-family="Helvetica,sans-Serif" font-size="10.00">Data.HashFunction.Blake3.</text>
<text text-anchor="middle" x="244.5" y="-106.5" font-family="Helvetica,sans-Serif" font-size="10.00">Hasher.Update&lt; T &gt;</text>
</a>
</g>
</g>
<!-- Node1&#45;&gt;Node7 -->
<g id="edge6_Node000001_Node000007" class="edge">
<title>Node1&#45;&gt;Node7</title>
<g id="a_edge6_Node000001_Node000007"><a xlink:title=" ">
<path fill="none" stroke="#63b8ff" d="M366.86,-146.74C348.24,-142.03 328.49,-137.02 310.44,-132.45"/>
<polygon fill="#63b8ff" stroke="#63b8ff" points="365.95,-150.12 376.51,-149.19 367.67,-143.34 365.95,-150.12"/>
</a>
</g>
</g>
<!-- Node8 -->
<g id="Node000008" class="node">
<title>Node8</title>
<g id="a_Node000008"><a xlink:href="class_data_1_1_hash_function_1_1_blake3_1_1_hasher.html#ac5e786e929a290c54370e4232182652f" target="_top" xlink:title="Add input bytes to the hash state, as with update, but potentially using multi&#45;threading.">
<polygon fill="white" stroke="#666666" points="312.88,-82 176.12,-82 176.12,-50 312.88,-50 312.88,-82"/>
<text text-anchor="start" x="184.12" y="-68.5" font-family="Helvetica,sans-Serif" font-size="10.00">Data.HashFunction.Blake3.</text>
<text text-anchor="middle" x="244.5" y="-56.5" font-family="Helvetica,sans-Serif" font-size="10.00">Hasher.UpdateWithJoin</text>
</a>
</g>
</g>
<!-- Node1&#45;&gt;Node8 -->
<g id="edge7_Node000001_Node000008" class="edge">
<title>Node1&#45;&gt;Node8</title>
<g id="a_edge7_Node000001_Node000008"><a xlink:title=" ">
<path fill="none" stroke="#63b8ff" d="M409.07,-143.51C384.11,-127.53 348.95,-106.28 316.25,-91 309.76,-87.97 302.79,-85.08 295.85,-82.42"/>
<polygon fill="#63b8ff" stroke="#63b8ff" points="406.87,-146.26 417.16,-148.75 410.67,-140.38 406.87,-146.26"/>
</a>
</g>
</g>
<!-- Node9 -->
<g id="Node000009" class="node">
<title>Node9</title>
<g id="a_Node000009"><a xlink:href="class_data_1_1_hash_function_1_1_blake3_1_1_hasher.html#a5fe2f02b0166087fed5c6dd9fa4402fe" target="_top" xlink:title="Add input data span to the hash state, as with update, but potentially using multi&#45;threading.">
<polygon fill="white" stroke="#666666" points="316.25,-32 172.75,-32 172.75,0 316.25,0 316.25,-32"/>
<text text-anchor="start" x="180.75" y="-18.5" font-family="Helvetica,sans-Serif" font-size="10.00">Data.HashFunction.Blake3.</text>
<text text-anchor="middle" x="244.5" y="-6.5" font-family="Helvetica,sans-Serif" font-size="10.00">Hasher.UpdateWithJoin&lt; T &gt;</text>
</a>
</g>
</g>
<!-- Node1&#45;&gt;Node9 -->
<g id="edge8_Node000001_Node000009" class="edge">
<title>Node1&#45;&gt;Node9</title>
<g id="a_edge8_Node000001_Node000009"><a xlink:title=" ">
<path fill="none" stroke="#63b8ff" d="M423.5,-141.16C400.59,-113.28 360.01,-68.39 316.25,-41 311.17,-37.82 305.63,-34.98 299.96,-32.45"/>
<polygon fill="#63b8ff" stroke="#63b8ff" points="420.62,-143.16 429.62,-148.73 426.06,-138.76 420.62,-143.16"/>
</a>
</g>
</g>
<!-- Node3 -->
<g id="Node000003" class="node">
<title>Node3</title>
<g id="a_Node000003"><a xlink:href="class_data_1_1_hash_function_1_1_blake3_1_1_hasher.html#a264f0991add7cd099236d6ac724c0651" target="_top" xlink:title="Finalize the hash state to the output span, which can supply any number of output bytes.">
<polygon fill="white" stroke="#666666" points="136.75,-332 0,-332 0,-300 136.75,-300 136.75,-332"/>
<text text-anchor="start" x="8" y="-318.5" font-family="Helvetica,sans-Serif" font-size="10.00">Data.HashFunction.Blake3.</text>
<text text-anchor="middle" x="68.38" y="-306.5" font-family="Helvetica,sans-Serif" font-size="10.00">Hasher.Finalize</text>
</a>
</g>
</g>
<!-- Node2&#45;&gt;Node3 -->
<g id="edge2_Node000002_Node000003" class="edge">
<title>Node2&#45;&gt;Node3</title>
<g id="a_edge2_Node000002_Node000003"><a xlink:title=" ">
<path fill="none" stroke="#63b8ff" d="M164.25,-316C155.15,-316 145.94,-316 137.01,-316"/>
<polygon fill="#63b8ff" stroke="#63b8ff" points="164.17,-319.5 174.17,-316 164.17,-312.5 164.17,-319.5"/>
</a>
</g>
</g>
</g>
</svg>
