<?xml version="1.0" encoding="UTF-8" standalone="no"?>
<!DOCTYPE svg PUBLIC "-//W3C//DTD SVG 1.1//EN"
 "http://www.w3.org/Graphics/SVG/1.1/DTD/svg11.dtd">
<!-- Generated by graphviz version 12.2.0 (20241103.1931)
 -->
<!-- Title: Data.HashFunction.BuzHash.BuzHash_Implementation.RotateRight Pages: 1 -->
<svg width="632pt" height="289pt"
 viewBox="0.00 0.00 632.00 289.00" xmlns="http://www.w3.org/2000/svg" xmlns:xlink="http://www.w3.org/1999/xlink">
<g id="graph0" class="graph" transform="scale(1 1) rotate(0) translate(4 285)">
<title>Data.HashFunction.BuzHash.BuzHash_Implementation.RotateRight</title>
<!-- Node1 -->
<g id="Node000001" class="node">
<title>Node1</title>
<g id="a_Node000001"><a xlink:title=" ">
<polygon fill="#999999" stroke="#666666" points="624,-107 440,-107 440,-75 624,-75 624,-107"/>
<text text-anchor="start" x="448" y="-93.5" font-family="Helvetica,sans-Serif" font-size="10.00">Data.HashFunction.BuzHash.</text>
<text text-anchor="middle" x="532" y="-81.5" font-family="Helvetica,sans-Serif" font-size="10.00">BuzHash_Implementation.RotateRight</text>
</a>
</g>
</g>
<!-- Node2 -->
<g id="Node000002" class="node">
<title>Node2</title>
<g id="a_Node000002"><a xlink:href="class_data_1_1_hash_function_1_1_buz_hash_1_1_buz_hash___implementation.html#a26c52551b721f45b5671f303ae3da7e6" target="_top" xlink:title=" ">
<polygon fill="white" stroke="#666666" points="404,-182 244.75,-182 244.75,-150 404,-150 404,-182"/>
<text text-anchor="start" x="252.75" y="-168.5" font-family="Helvetica,sans-Serif" font-size="10.00">Data.HashFunction.BuzHash.</text>
<text text-anchor="middle" x="324.38" y="-156.5" font-family="Helvetica,sans-Serif" font-size="10.00">BuzHash_Implementation.CShift</text>
</a>
</g>
</g>
<!-- Node1&#45;&gt;Node2 -->
<g id="edge1_Node000001_Node000002" class="edge">
<title>Node1&#45;&gt;Node2</title>
<g id="a_edge1_Node000001_Node000002"><a xlink:title=" ">
<path fill="none" stroke="#63b8ff" d="M480.59,-111.75C457.4,-121.06 429.44,-131.96 404,-141 395.9,-143.88 387.28,-146.78 378.83,-149.54"/>
<polygon fill="#63b8ff" stroke="#63b8ff" points="481.85,-115.01 489.82,-108.02 479.23,-108.52 481.85,-115.01"/>
</a>
</g>
</g>
<!-- Node7 -->
<g id="Node000007" class="node">
<title>Node7</title>
<g id="a_Node000007"><a xlink:href="class_data_1_1_hash_function_1_1_buz_hash_1_1_buz_hash___implementation.html#ab5ce2d4eef8bfc287063eed71d1f5f2d" target="_top" xlink:title=" ">
<polygon fill="white" stroke="#666666" points="404,-132 244.75,-132 244.75,-100 404,-100 404,-132"/>
<text text-anchor="start" x="252.75" y="-118.5" font-family="Helvetica,sans-Serif" font-size="10.00">Data.HashFunction.BuzHash.</text>
<text text-anchor="middle" x="324.38" y="-106.5" font-family="Helvetica,sans-Serif" font-size="10.00">BuzHash_Implementation.CShift</text>
</a>
</g>
</g>
<!-- Node1&#45;&gt;Node7 -->
<g id="edge6_Node000001_Node000007" class="edge">
<title>Node1&#45;&gt;Node7</title>
<g id="a_edge6_Node000001_Node000007"><a xlink:title=" ">
<path fill="none" stroke="#63b8ff" d="M428.23,-103.49C420.17,-104.47 412.1,-105.46 404.24,-106.41"/>
<polygon fill="#63b8ff" stroke="#63b8ff" points="428.61,-106.98 438.11,-102.29 427.76,-100.03 428.61,-106.98"/>
</a>
</g>
</g>
<!-- Node8 -->
<g id="Node000008" class="node">
<title>Node8</title>
<g id="a_Node000008"><a xlink:href="class_data_1_1_hash_function_1_1_buz_hash_1_1_buz_hash___implementation.html#a82458c61c318cac45ca5189894e05052" target="_top" xlink:title=" ">
<polygon fill="white" stroke="#666666" points="404,-82 244.75,-82 244.75,-50 404,-50 404,-82"/>
<text text-anchor="start" x="252.75" y="-68.5" font-family="Helvetica,sans-Serif" font-size="10.00">Data.HashFunction.BuzHash.</text>
<text text-anchor="middle" x="324.38" y="-56.5" font-family="Helvetica,sans-Serif" font-size="10.00">BuzHash_Implementation.CShift</text>
</a>
</g>
</g>
<!-- Node1&#45;&gt;Node8 -->
<g id="edge7_Node000001_Node000008" class="edge">
<title>Node1&#45;&gt;Node8</title>
<g id="a_edge7_Node000001_Node000008"><a xlink:title=" ">
<path fill="none" stroke="#63b8ff" d="M428.23,-78.51C420.17,-77.53 412.1,-76.54 404.24,-75.59"/>
<polygon fill="#63b8ff" stroke="#63b8ff" points="427.76,-81.97 438.11,-79.71 428.61,-75.02 427.76,-81.97"/>
</a>
</g>
</g>
<!-- Node9 -->
<g id="Node000009" class="node">
<title>Node9</title>
<g id="a_Node000009"><a xlink:href="class_data_1_1_hash_function_1_1_buz_hash_1_1_buz_hash___implementation.html#ac5541a9e61451537856924c86ee8909d" target="_top" xlink:title=" ">
<polygon fill="white" stroke="#666666" points="404,-32 244.75,-32 244.75,0 404,0 404,-32"/>
<text text-anchor="start" x="252.75" y="-18.5" font-family="Helvetica,sans-Serif" font-size="10.00">Data.HashFunction.BuzHash.</text>
<text text-anchor="middle" x="324.38" y="-6.5" font-family="Helvetica,sans-Serif" font-size="10.00">BuzHash_Implementation.CShift</text>
</a>
</g>
</g>
<!-- Node1&#45;&gt;Node9 -->
<g id="edge8_Node000001_Node000009" class="edge">
<title>Node1&#45;&gt;Node9</title>
<g id="a_edge8_Node000001_Node000009"><a xlink:title=" ">
<path fill="none" stroke="#63b8ff" d="M480.59,-70.25C457.4,-60.94 429.44,-50.04 404,-41 395.9,-38.12 387.28,-35.22 378.83,-32.46"/>
<polygon fill="#63b8ff" stroke="#63b8ff" points="479.23,-73.48 489.82,-73.98 481.85,-66.99 479.23,-73.48"/>
</a>
</g>
</g>
<!-- Node3 -->
<g id="Node000003" class="node">
<title>Node3</title>
<g id="a_Node000003"><a xlink:href="class_data_1_1_hash_function_1_1_buz_hash_1_1_buz_hash___implementation_1_1_block_transformer__16_bit.html#a7b7417786e2e8011f07d8bf84e5ba87b" target="_top" xlink:title=" ">
<polygon fill="white" stroke="#666666" points="208.75,-281 0,-281 0,-237 208.75,-237 208.75,-281"/>
<text text-anchor="start" x="8" y="-267.5" font-family="Helvetica,sans-Serif" font-size="10.00">Data.HashFunction.BuzHash.</text>
<text text-anchor="start" x="8" y="-255.5" font-family="Helvetica,sans-Serif" font-size="10.00">BuzHash_Implementation.BlockTransformer</text>
<text text-anchor="middle" x="104.38" y="-243.5" font-family="Helvetica,sans-Serif" font-size="10.00">_16Bit.TransformByteGroupsInternal</text>
</a>
</g>
</g>
<!-- Node2&#45;&gt;Node3 -->
<g id="edge2_Node000002_Node000003" class="edge">
<title>Node2&#45;&gt;Node3</title>
<g id="a_edge2_Node000002_Node000003"><a xlink:title=" ">
<path fill="none" stroke="#63b8ff" d="M287.19,-188.05C265.08,-200.89 235.93,-216.71 208.75,-228 201.48,-231.02 193.82,-233.88 186.08,-236.56"/>
<polygon fill="#63b8ff" stroke="#63b8ff" points="288.66,-191.25 295.51,-183.16 285.11,-185.21 288.66,-191.25"/>
</a>
</g>
</g>
<!-- Node4 -->
<g id="Node000004" class="node">
<title>Node4</title>
<g id="a_Node000004"><a xlink:href="class_data_1_1_hash_function_1_1_buz_hash_1_1_buz_hash___implementation_1_1_block_transformer__32_bit.html#ac5e68020003dcc531ae26c33b8a09b61" target="_top" xlink:title=" ">
<polygon fill="white" stroke="#666666" points="208.75,-219 0,-219 0,-175 208.75,-175 208.75,-219"/>
<text text-anchor="start" x="8" y="-205.5" font-family="Helvetica,sans-Serif" font-size="10.00">Data.HashFunction.BuzHash.</text>
<text text-anchor="start" x="8" y="-193.5" font-family="Helvetica,sans-Serif" font-size="10.00">BuzHash_Implementation.BlockTransformer</text>
<text text-anchor="middle" x="104.38" y="-181.5" font-family="Helvetica,sans-Serif" font-size="10.00">_32Bit.TransformByteGroupsInternal</text>
</a>
</g>
</g>
<!-- Node2&#45;&gt;Node4 -->
<g id="edge3_Node000002_Node000004" class="edge">
<title>Node2&#45;&gt;Node4</title>
<g id="a_edge3_Node000002_Node000004"><a xlink:title=" ">
<path fill="none" stroke="#63b8ff" d="M233.23,-178.82C225.27,-179.95 217.18,-181.1 209.13,-182.25"/>
<polygon fill="#63b8ff" stroke="#63b8ff" points="233.46,-182.32 242.87,-177.45 232.47,-175.39 233.46,-182.32"/>
</a>
</g>
</g>
<!-- Node5 -->
<g id="Node000005" class="node">
<title>Node5</title>
<g id="a_Node000005"><a xlink:href="class_data_1_1_hash_function_1_1_buz_hash_1_1_buz_hash___implementation_1_1_block_transformer__64_bit.html#a5eff472dd4584e86397c7107acd5113a" target="_top" xlink:title=" ">
<polygon fill="white" stroke="#666666" points="208.75,-157 0,-157 0,-113 208.75,-113 208.75,-157"/>
<text text-anchor="start" x="8" y="-143.5" font-family="Helvetica,sans-Serif" font-size="10.00">Data.HashFunction.BuzHash.</text>
<text text-anchor="start" x="8" y="-131.5" font-family="Helvetica,sans-Serif" font-size="10.00">BuzHash_Implementation.BlockTransformer</text>
<text text-anchor="middle" x="104.38" y="-119.5" font-family="Helvetica,sans-Serif" font-size="10.00">_64Bit.TransformByteGroupsInternal</text>
</a>
</g>
</g>
<!-- Node2&#45;&gt;Node5 -->
<g id="edge4_Node000002_Node000005" class="edge">
<title>Node2&#45;&gt;Node5</title>
<g id="a_edge4_Node000002_Node000005"><a xlink:title=" ">
<path fill="none" stroke="#63b8ff" d="M233.23,-153.18C225.27,-152.05 217.18,-150.9 209.13,-149.75"/>
<polygon fill="#63b8ff" stroke="#63b8ff" points="232.47,-156.61 242.87,-154.55 233.46,-149.68 232.47,-156.61"/>
</a>
</g>
</g>
<!-- Node6 -->
<g id="Node000006" class="node">
<title>Node6</title>
<g id="a_Node000006"><a xlink:href="class_data_1_1_hash_function_1_1_buz_hash_1_1_buz_hash___implementation_1_1_block_transformer__8_bit.html#a38975ae0213a64f1e00ecbe537aabe69" target="_top" xlink:title=" ">
<polygon fill="white" stroke="#666666" points="208.75,-95 0,-95 0,-51 208.75,-51 208.75,-95"/>
<text text-anchor="start" x="8" y="-81.5" font-family="Helvetica,sans-Serif" font-size="10.00">Data.HashFunction.BuzHash.</text>
<text text-anchor="start" x="8" y="-69.5" font-family="Helvetica,sans-Serif" font-size="10.00">BuzHash_Implementation.BlockTransformer</text>
<text text-anchor="middle" x="104.38" y="-57.5" font-family="Helvetica,sans-Serif" font-size="10.00">_8Bit.TransformByteGroupsInternal</text>
</a>
</g>
</g>
<!-- Node2&#45;&gt;Node6 -->
<g id="edge5_Node000002_Node000006" class="edge">
<title>Node2&#45;&gt;Node6</title>
<g id="a_edge5_Node000002_Node000006"><a xlink:title=" ">
<path fill="none" stroke="#63b8ff" d="M251.34,-144.76C249.08,-143.57 246.88,-142.32 244.75,-141 225.23,-128.94 228.37,-115.9 208.75,-104 203.54,-100.84 197.99,-97.99 192.27,-95.41"/>
<polygon fill="#63b8ff" stroke="#63b8ff" points="249.64,-147.82 260.17,-148.95 252.64,-141.5 249.64,-147.82"/>
</a>
</g>
</g>
</g>
</svg>
