<?xml version="1.0" encoding="UTF-8" standalone="no"?>
<!DOCTYPE svg PUBLIC "-//W3C//DTD SVG 1.1//EN"
 "http://www.w3.org/Graphics/SVG/1.1/DTD/svg11.dtd">
<!-- Generated by graphviz version 12.2.0 (20241103.1931)
 -->
<!-- Title: Data.HashFunction.CityHash.CityHash_Implementation.Hash32Len5to12 Pages: 1 -->
<svg width="619pt" height="90pt"
 viewBox="0.00 0.00 619.25 90.00" xmlns="http://www.w3.org/2000/svg" xmlns:xlink="http://www.w3.org/1999/xlink">
<g id="graph0" class="graph" transform="scale(1 1) rotate(0) translate(4 86)">
<title>Data.HashFunction.CityHash.CityHash_Implementation.Hash32Len5to12</title>
<!-- Node1 -->
<g id="Node000001" class="node">
<title>Node1</title>
<g id="a_Node000001"><a xlink:title=" ">
<polygon fill="#999999" stroke="#666666" points="205.75,-57 0,-57 0,-25 205.75,-25 205.75,-57"/>
<text text-anchor="start" x="8" y="-43.5" font-family="Helvetica,sans-Serif" font-size="10.00">Data.HashFunction.CityHash.</text>
<text text-anchor="middle" x="102.88" y="-31.5" font-family="Helvetica,sans-Serif" font-size="10.00">CityHash_Implementation.Hash32Len5to12</text>
</a>
</g>
</g>
<!-- Node2 -->
<g id="Node000002" class="node">
<title>Node2</title>
<g id="a_Node000002"><a xlink:href="class_data_1_1_hash_function_1_1_city_hash_1_1_city_hash___implementation.html#ac2fa0ddcbf5ad593d0830669e41bf93c" target="_top" xlink:title=" ">
<polygon fill="white" stroke="#666666" points="390.12,-82 242.12,-82 242.12,-50 390.12,-50 390.12,-82"/>
<text text-anchor="start" x="250.12" y="-68.5" font-family="Helvetica,sans-Serif" font-size="10.00">Data.HashFunction.CityHash.</text>
<text text-anchor="middle" x="316.12" y="-56.5" font-family="Helvetica,sans-Serif" font-size="10.00">CityHash_Implementation.Mix</text>
</a>
</g>
</g>
<!-- Node1&#45;&gt;Node2 -->
<g id="edge1_Node000001_Node000002" class="edge">
<title>Node1&#45;&gt;Node2</title>
<g id="a_edge1_Node000001_Node000002"><a xlink:title=" ">
<path fill="none" stroke="#63b8ff" d="M206.1,-53.1C214.26,-54.06 222.44,-55.03 230.46,-55.98"/>
<polygon fill="#63b8ff" stroke="#63b8ff" points="229.82,-59.43 240.17,-57.13 230.65,-52.48 229.82,-59.43"/>
</a>
</g>
</g>
<!-- Node3 -->
<g id="Node000003" class="node">
<title>Node3</title>
<g id="a_Node000003"><a xlink:href="class_data_1_1_hash_function_1_1_city_hash_1_1_city_hash___implementation.html#a14ecd650e889358aa703defbfcd5f00f" target="_top" xlink:title=" ">
<polygon fill="white" stroke="#666666" points="390.5,-32 241.75,-32 241.75,0 390.5,0 390.5,-32"/>
<text text-anchor="start" x="249.75" y="-18.5" font-family="Helvetica,sans-Serif" font-size="10.00">Data.HashFunction.CityHash.</text>
<text text-anchor="middle" x="316.12" y="-6.5" font-family="Helvetica,sans-Serif" font-size="10.00">CityHash_Implementation.Mur</text>
</a>
</g>
</g>
<!-- Node1&#45;&gt;Node3 -->
<g id="edge2_Node000001_Node000003" class="edge">
<title>Node1&#45;&gt;Node3</title>
<g id="a_edge2_Node000001_Node000003"><a xlink:title=" ">
<path fill="none" stroke="#63b8ff" d="M206.1,-28.9C214.09,-27.96 222.11,-27.01 229.98,-26.08"/>
<polygon fill="#63b8ff" stroke="#63b8ff" points="230.34,-29.56 239.86,-24.91 229.52,-22.61 230.34,-29.56"/>
</a>
</g>
</g>
<!-- Node4 -->
<g id="Node000004" class="node">
<title>Node4</title>
<g id="a_Node000004"><a xlink:href="class_data_1_1_hash_function_1_1_city_hash_1_1_city_hash___implementation.html#a054a2a634a2a60c58844d08986eef674" target="_top" xlink:title=" ">
<polygon fill="white" stroke="#666666" points="611.25,-32 426.5,-32 426.5,0 611.25,0 611.25,-32"/>
<text text-anchor="start" x="434.5" y="-18.5" font-family="Helvetica,sans-Serif" font-size="10.00">Data.HashFunction.CityHash.</text>
<text text-anchor="middle" x="518.88" y="-6.5" font-family="Helvetica,sans-Serif" font-size="10.00">CityHash_Implementation.RotateRight</text>
</a>
</g>
</g>
<!-- Node3&#45;&gt;Node4 -->
<g id="edge3_Node000003_Node000004" class="edge">
<title>Node3&#45;&gt;Node4</title>
<g id="a_edge3_Node000003_Node000004"><a xlink:title=" ">
<path fill="none" stroke="#63b8ff" d="M390.74,-16C398.57,-16 406.64,-16 414.73,-16"/>
<polygon fill="#63b8ff" stroke="#63b8ff" points="414.65,-19.5 424.65,-16 414.65,-12.5 414.65,-19.5"/>
</a>
</g>
</g>
</g>
</svg>
