<?xml version="1.0" encoding="UTF-8" standalone="no"?>
<!DOCTYPE svg PUBLIC "-//W3C//DTD SVG 1.1//EN"
 "http://www.w3.org/Graphics/SVG/1.1/DTD/svg11.dtd">
<!-- Generated by graphviz version 12.2.0 (20241103.1931)
 -->
<!-- Title: Data.HashFunction.CRC.CRC_Implementation.BlockTransformer.BlockTransformer Pages: 1 -->
<svg width="801pt" height="77pt"
 viewBox="0.00 0.00 801.00 77.00" xmlns="http://www.w3.org/2000/svg" xmlns:xlink="http://www.w3.org/1999/xlink">
<g id="graph0" class="graph" transform="scale(1 1) rotate(0) translate(4 73)">
<title>Data.HashFunction.CRC.CRC_Implementation.BlockTransformer.BlockTransformer</title>
<!-- Node1 -->
<g id="Node000001" class="node">
<title>Node1</title>
<g id="a_Node000001"><a xlink:title=" ">
<polygon fill="#999999" stroke="#666666" points="171.25,-44 0,-44 0,0 171.25,0 171.25,-44"/>
<text text-anchor="start" x="8" y="-30.5" font-family="Helvetica,sans-Serif" font-size="10.00">Data.HashFunction.CRC.CRC</text>
<text text-anchor="start" x="8" y="-18.5" font-family="Helvetica,sans-Serif" font-size="10.00">_Implementation.BlockTransformer.</text>
<text text-anchor="middle" x="85.62" y="-6.5" font-family="Helvetica,sans-Serif" font-size="10.00">BlockTransformer</text>
</a>
</g>
</g>
<!-- Node2 -->
<g id="Node000002" class="node">
<title>Node2</title>
<g id="a_Node000002"><a xlink:href="class_data_1_1_hash_function_1_1_c_r_c_1_1_c_r_c___implementation_1_1_block_transformer.html#a80d299434d3e0462cf71afae80448f7f" target="_top" xlink:title="Calculates the data&#45;division table for the CRC parameters provided.">
<polygon fill="white" stroke="#666666" points="378.5,-69 207.25,-69 207.25,-25 378.5,-25 378.5,-69"/>
<text text-anchor="start" x="215.25" y="-55.5" font-family="Helvetica,sans-Serif" font-size="10.00">Data.HashFunction.CRC.CRC</text>
<text text-anchor="start" x="215.25" y="-43.5" font-family="Helvetica,sans-Serif" font-size="10.00">_Implementation.BlockTransformer.</text>
<text text-anchor="middle" x="292.88" y="-31.5" font-family="Helvetica,sans-Serif" font-size="10.00">GetDataDivisionTable</text>
</a>
</g>
</g>
<!-- Node1&#45;&gt;Node2 -->
<g id="edge1_Node000001_Node000002" class="edge">
<title>Node1&#45;&gt;Node2</title>
<g id="a_edge1_Node000001_Node000002"><a xlink:title=" ">
<path fill="none" stroke="#63b8ff" d="M171.59,-32.35C179.54,-33.32 187.63,-34.3 195.67,-35.28"/>
<polygon fill="#63b8ff" stroke="#63b8ff" points="195.12,-38.74 205.47,-36.48 195.97,-31.79 195.12,-38.74"/>
</a>
</g>
</g>
<!-- Node4 -->
<g id="Node000004" class="node">
<title>Node4</title>
<g id="a_Node000004"><a xlink:href="class_data_1_1_hash_function_1_1_c_r_c_1_1_c_r_c___implementation_1_1_block_transformer.html#a2734169c12bfc8a3b1fb07a1f0fec0ab" target="_top" xlink:title=" ">
<polygon fill="white" stroke="#666666" points="793,-44 621.75,-44 621.75,0 793,0 793,-44"/>
<text text-anchor="start" x="629.75" y="-30.5" font-family="Helvetica,sans-Serif" font-size="10.00">Data.HashFunction.CRC.CRC</text>
<text text-anchor="start" x="629.75" y="-18.5" font-family="Helvetica,sans-Serif" font-size="10.00">_Implementation.BlockTransformer.</text>
<text text-anchor="middle" x="707.38" y="-6.5" font-family="Helvetica,sans-Serif" font-size="10.00">ReflectBits</text>
</a>
</g>
</g>
<!-- Node1&#45;&gt;Node4 -->
<g id="edge4_Node000001_Node000004" class="edge">
<title>Node1&#45;&gt;Node4</title>
<g id="a_edge4_Node000001_Node000004"><a xlink:title=" ">
<path fill="none" stroke="#63b8ff" d="M171.62,-17.24C183.58,-16.73 195.72,-16.29 207.25,-16 375.42,-11.82 417.58,-11.82 585.75,-16 593.68,-16.2 601.89,-16.47 610.14,-16.78"/>
<polygon fill="#63b8ff" stroke="#63b8ff" points="609.74,-20.27 619.87,-17.18 610.02,-13.28 609.74,-20.27"/>
</a>
</g>
</g>
<!-- Node3 -->
<g id="Node000003" class="node">
<title>Node3</title>
<g id="a_Node000003"><a xlink:href="class_data_1_1_hash_function_1_1_c_r_c_1_1_c_r_c___implementation_1_1_block_transformer.html#ae42bec7a856b84c5e853176bc58da19a" target="_top" xlink:title=" ">
<polygon fill="white" stroke="#666666" points="585.75,-69 414.5,-69 414.5,-25 585.75,-25 585.75,-69"/>
<text text-anchor="start" x="422.5" y="-55.5" font-family="Helvetica,sans-Serif" font-size="10.00">Data.HashFunction.CRC.CRC</text>
<text text-anchor="start" x="422.5" y="-43.5" font-family="Helvetica,sans-Serif" font-size="10.00">_Implementation.BlockTransformer.</text>
<text text-anchor="middle" x="500.12" y="-31.5" font-family="Helvetica,sans-Serif" font-size="10.00">GetDataDivisionTableInternal</text>
</a>
</g>
</g>
<!-- Node2&#45;&gt;Node3 -->
<g id="edge2_Node000002_Node000003" class="edge">
<title>Node2&#45;&gt;Node3</title>
<g id="a_edge2_Node000002_Node000003"><a xlink:title=" ">
<path fill="none" stroke="#63b8ff" d="M378.84,-47C386.79,-47 394.88,-47 402.92,-47"/>
<polygon fill="#63b8ff" stroke="#63b8ff" points="402.71,-50.5 412.71,-47 402.71,-43.5 402.71,-50.5"/>
</a>
</g>
</g>
<!-- Node3&#45;&gt;Node4 -->
<g id="edge3_Node000003_Node000004" class="edge">
<title>Node3&#45;&gt;Node4</title>
<g id="a_edge3_Node000003_Node000004"><a xlink:title=" ">
<path fill="none" stroke="#63b8ff" d="M586.09,-36.65C594.04,-35.68 602.13,-34.7 610.17,-33.72"/>
<polygon fill="#63b8ff" stroke="#63b8ff" points="610.47,-37.21 619.97,-32.52 609.62,-30.26 610.47,-37.21"/>
</a>
</g>
</g>
</g>
</svg>
