<?xml version="1.0" encoding="UTF-8" standalone="no"?>
<!DOCTYPE svg PUBLIC "-//W3C//DTD SVG 1.1//EN"
 "http://www.w3.org/Graphics/SVG/1.1/DTD/svg11.dtd">
<!-- Generated by graphviz version 12.2.0 (20241103.1931)
 -->
<!-- Title: Data.HashFunction.CityHash.CityHash_Implementation Pages: 1 -->
<svg width="352pt" height="177pt"
 viewBox="0.00 0.00 351.62 177.00" xmlns="http://www.w3.org/2000/svg" xmlns:xlink="http://www.w3.org/1999/xlink">
<g id="graph0" class="graph" transform="scale(1 1) rotate(0) translate(4 173)">
<title>Data.HashFunction.CityHash.CityHash_Implementation</title>
<!-- Node1 -->
<g id="Node000001" class="node">
<title>Node1</title>
<g id="a_Node000001"><a xlink:title=" ">
<polygon fill="#999999" stroke="#666666" points="221.62,-32 73.62,-32 73.62,0 221.62,0 221.62,-32"/>
<text text-anchor="start" x="81.62" y="-18.5" font-family="Helvetica,sans-Serif" font-size="10.00">Data.HashFunction.CityHash.</text>
<text text-anchor="middle" x="147.62" y="-6.5" font-family="Helvetica,sans-Serif" font-size="10.00">CityHash_Implementation</text>
</a>
</g>
</g>
<!-- Node2 -->
<g id="Node000002" class="node">
<title>Node2</title>
<g id="a_Node000002"><a xlink:href="class_data_1_1_hash_function_1_1_core_1_1_hash_function_base.html" target="_top" xlink:title="Abstract implementation of an IHashFunction. Provides convenience checks and ensures a default HashSi...">
<polygon fill="white" stroke="#666666" points="99.25,-106 0,-106 0,-86 99.25,-86 99.25,-106"/>
<text text-anchor="middle" x="49.62" y="-92.5" font-family="Helvetica,sans-Serif" font-size="10.00">HashFunctionBase</text>
</a>
</g>
</g>
<!-- Node2&#45;&gt;Node1 -->
<g id="edge1_Node000001_Node000002" class="edge">
<title>Node2&#45;&gt;Node1</title>
<g id="a_edge1_Node000001_Node000002"><a xlink:title=" ">
<path fill="none" stroke="#63b8ff" d="M69.93,-78.84C87.05,-65.21 111.4,-45.83 128.25,-32.42"/>
<polygon fill="#63b8ff" stroke="#63b8ff" points="68.08,-75.84 62.44,-84.8 72.44,-81.31 68.08,-75.84"/>
</a>
</g>
</g>
<!-- Node3 -->
<g id="Node000003" class="node">
<title>Node3</title>
<g id="a_Node000003"><a xlink:href="interface_data_1_1_hash_function_1_1_i_hash_function.html" target="_top" xlink:title="Common interface to non&#45;cryptographic hash functions.">
<polygon fill="white" stroke="#666666" points="137.5,-169 57.75,-169 57.75,-149 137.5,-149 137.5,-169"/>
<text text-anchor="middle" x="97.62" y="-155.5" font-family="Helvetica,sans-Serif" font-size="10.00">IHashFunction</text>
</a>
</g>
</g>
<!-- Node3&#45;&gt;Node2 -->
<g id="edge2_Node000002_Node000003" class="edge">
<title>Node3&#45;&gt;Node2</title>
<g id="a_edge2_Node000002_Node000003"><a xlink:title=" ">
<path fill="none" stroke="#63b8ff" d="M83.38,-139.9C74.71,-128.88 63.99,-115.25 56.98,-106.35"/>
<polygon fill="#63b8ff" stroke="#63b8ff" points="80.46,-141.85 89.4,-147.55 85.97,-137.52 80.46,-141.85"/>
</a>
</g>
</g>
<!-- Node4 -->
<g id="Node000004" class="node">
<title>Node4</title>
<g id="a_Node000004"><a xlink:href="interface_data_1_1_hash_function_1_1_city_hash_1_1_i_city_hash.html" target="_top" xlink:title="Implementation of CityHash as specified at https://code.google.com/p/cityhash/.">
<polygon fill="white" stroke="#666666" points="177.75,-106 117.5,-106 117.5,-86 177.75,-86 177.75,-106"/>
<text text-anchor="middle" x="147.62" y="-92.5" font-family="Helvetica,sans-Serif" font-size="10.00">ICityHash</text>
</a>
</g>
</g>
<!-- Node3&#45;&gt;Node4 -->
<g id="edge4_Node000004_Node000003" class="edge">
<title>Node3&#45;&gt;Node4</title>
<g id="a_edge4_Node000004_Node000003"><a xlink:title=" ">
<path fill="none" stroke="#63b8ff" d="M112.46,-139.9C121.49,-128.88 132.67,-115.25 139.96,-106.35"/>
<polygon fill="#63b8ff" stroke="#63b8ff" points="109.81,-137.61 106.18,-147.56 115.22,-142.05 109.81,-137.61"/>
</a>
</g>
</g>
<!-- Node4&#45;&gt;Node1 -->
<g id="edge3_Node000001_Node000004" class="edge">
<title>Node4&#45;&gt;Node1</title>
<g id="a_edge3_Node000001_Node000004"><a xlink:title=" ">
<path fill="none" stroke="#63b8ff" d="M147.62,-74.51C147.62,-61.32 147.62,-44.47 147.62,-32.42"/>
<polygon fill="#63b8ff" stroke="#63b8ff" points="144.13,-74.23 147.63,-84.23 151.13,-74.23 144.13,-74.23"/>
</a>
</g>
</g>
<!-- Node5 -->
<g id="Node000005" class="node">
<title>Node5</title>
<g id="a_Node000005"><a xlink:href="interface_data_1_1_hash_function_1_1_city_hash_1_1_i_city_hash_config.html" target="_top" xlink:title="Defines a configuration for a ICityHash implementation.">
<polygon fill="white" stroke="#666666" points="343.62,-112 195.62,-112 195.62,-80 343.62,-80 343.62,-112"/>
<text text-anchor="start" x="203.62" y="-98.5" font-family="Helvetica,sans-Serif" font-size="10.00">Data.HashFunction.CityHash.</text>
<text text-anchor="middle" x="269.62" y="-86.5" font-family="Helvetica,sans-Serif" font-size="10.00">ICityHashConfig</text>
</a>
</g>
</g>
<!-- Node5&#45;&gt;Node1 -->
<g id="edge5_Node000001_Node000005" class="edge">
<title>Node5&#45;&gt;Node1</title>
<g id="a_edge5_Node000001_Node000005"><a xlink:title=" ">
<path fill="none" stroke="#9a32cd" stroke-dasharray="5,2" d="M235.98,-73.49C215.58,-60.45 190.05,-44.12 171.68,-32.38"/>
<polygon fill="#9a32cd" stroke="#9a32cd" points="233.94,-76.34 244.25,-78.77 237.71,-70.44 233.94,-76.34"/>
</a>
</g>
<text text-anchor="middle" x="233.18" y="-52.5" font-family="Helvetica,sans-Serif" font-size="10.00" fill="grey"> _config</text>
</g>
</g>
</svg>
