<?xml version="1.0" encoding="UTF-8" standalone="no"?>
<!DOCTYPE svg PUBLIC "-//W3C//DTD SVG 1.1//EN"
 "http://www.w3.org/Graphics/SVG/1.1/DTD/svg11.dtd">
<!-- Generated by graphviz version 12.2.0 (20241103.1931)
 -->
<!-- Title: Data.HashFunction.CityHash.CityHash_Implementation.ComputeHash64 Pages: 1 -->
<!--zoomable 362 -->

<svg id="main" version="1.1" xmlns="http://www.w3.org/2000/svg" xmlns:xlink="http://www.w3.org/1999/xlink" xml:space="preserve" onload="init(evt)">

<style type="text/css"><![CDATA[
.node, .edge {opacity: 0.7;}
.node.selected, .edge.selected {opacity: 1;}
.edge:hover path { stroke: red; }
.edge:hover polygon { stroke: red; fill: red; }
]]></style>

<defs>
  <circle id="rim" cx="0" cy="0" r="7"/>
  <circle id="rim2" cx="0" cy="0" r="3.5"/>
  <g id="zoomPlus">
    <use xlink:href="#rim" fill="#404040"><set attributeName="fill" to="#808080" begin="zoomplus.mouseover" end="zoomplus.mouseout"/></use>
    <path d="M-4,0h8M0,-4v8" fill="none" stroke="white" stroke-width="1.5" pointer-events="none"/>
  </g>
  <g id="zoomMin">
    <use xlink:href="#rim" fill="#404040"><set attributeName="fill" to="#808080" begin="zoomminus.mouseover" end="zoomminus.mouseout"/></use>
    <path d="M-4,0h8" fill="none" stroke="white" stroke-width="1.5" pointer-events="none"/>
  </g>
  <g id="arrowUp" transform="translate(30 24)">
    <use xlink:href="#rim"/>
    <path pointer-events="none" fill="none" stroke="white" stroke-width="1.5" d="M0,-3.0v7 M-2.5,-0.5L0,-3.0L2.5,-0.5"/>
  </g>
  <g id="arrowRight" transform="rotate(90) translate(36 -43)">
    <use xlink:href="#rim"/>
    <path pointer-events="none" fill="none" stroke="white" stroke-width="1.5" d="M0,-3.0v7 M-2.5,-0.5L0,-3.0L2.5,-0.5"/>
  </g>
  <g id="arrowDown" transform="rotate(180) translate(-30 -48)">
    <use xlink:href="#rim"/>
    <path pointer-events="none" fill="none" stroke="white" stroke-width="1.5" d="M0,-3.0v7 M-2.5,-0.5L0,-3.0L2.5,-0.5"/>
  </g>
  <g id="arrowLeft" transform="rotate(270) translate(-36 17)">
    <use xlink:href="#rim"/>
    <path pointer-events="none" fill="none" stroke="white" stroke-width="1.5" d="M0,-3.0v7 M-2.5,-0.5L0,-3.0L2.5,-0.5"/>
  </g>
  <g id="resetDef">
    <use xlink:href="#rim2" fill="#404040"><set attributeName="fill" to="#808080" begin="reset.mouseover" end="reset.mouseout"/></use>
  </g>
</defs>
<script type="application/ecmascript">
var viewWidth = 882;
var viewHeight = 362;
var sectionId = 'dynsection-11';
</script>
<script type="application/ecmascript" xlink:href="svg.min.js"/>
<svg id="graph" class="graph">
<g id="viewport">
<title>Data.HashFunction.CityHash.CityHash_Implementation.ComputeHash64</title>
<!-- Node1 -->
<g id="Node000001" class="node">
<title>Node1</title>
<g id="a_Node000001"><a xlink:title=" ">
<polygon fill="#999999" stroke="#666666" points="172,-254 0,-254 0,-210 172,-210 172,-254"/>
<text text-anchor="start" x="8" y="-240.5" font-family="Helvetica,sans-Serif" font-size="10.00">Data.HashFunction.CityHash.</text>
<text text-anchor="start" x="8" y="-228.5" font-family="Helvetica,sans-Serif" font-size="10.00">CityHash_Implementation.Compute</text>
<text text-anchor="middle" x="86" y="-216.5" font-family="Helvetica,sans-Serif" font-size="10.00">Hash64</text>
</a>
</g>
</g>
<!-- Node2 -->
<g id="Node000002" class="node">
<title>Node2</title>
<g id="a_Node000002"><a xlink:href="class_data_1_1_hash_function_1_1_city_hash_1_1_city_hash___implementation.html#ace2758fca35c5ac5a5698e2f1a4aa513" target="_top" xlink:title=" ">
<polygon fill="white" stroke="#666666" points="416.75,-273 211,-273 211,-241 416.75,-241 416.75,-273"/>
<text text-anchor="start" x="219" y="-259.5" font-family="Helvetica,sans-Serif" font-size="10.00">Data.HashFunction.CityHash.</text>
<text text-anchor="middle" x="313.88" y="-247.5" font-family="Helvetica,sans-Serif" font-size="10.00">CityHash_Implementation.Hash64Len0to16</text>
</a>
</g>
</g>
<!-- Node1&#45;&gt;Node2 -->
<g id="edge1_Node000001_Node000002" class="edge">
<title>Node1&#45;&gt;Node2</title>
<g id="a_edge1_Node000001_Node000002"><a xlink:title=" ">
<path fill="none" stroke="#63b8ff" d="M172.39,-241.45C181.18,-242.42 190.2,-243.42 199.23,-244.42"/>
<polygon fill="#63b8ff" stroke="#63b8ff" points="198.82,-247.9 209.14,-245.52 199.59,-240.94 198.82,-247.9"/>
</a>
</g>
</g>
<!-- Node7 -->
<g id="Node000007" class="node">
<title>Node7</title>
<g id="a_Node000007"><a xlink:href="class_data_1_1_hash_function_1_1_city_hash_1_1_city_hash___implementation.html#a0b29a1ea9798ffc90ac79ecf0987fc35" target="_top" xlink:title=" ">
<polygon fill="white" stroke="#666666" points="419.38,-323 208.38,-323 208.38,-291 419.38,-291 419.38,-323"/>
<text text-anchor="start" x="216.38" y="-309.5" font-family="Helvetica,sans-Serif" font-size="10.00">Data.HashFunction.CityHash.</text>
<text text-anchor="middle" x="313.88" y="-297.5" font-family="Helvetica,sans-Serif" font-size="10.00">CityHash_Implementation.Hash64Len17to32</text>
</a>
</g>
</g>
<!-- Node1&#45;&gt;Node7 -->
<g id="edge6_Node000001_Node000007" class="edge">
<title>Node1&#45;&gt;Node7</title>
<g id="a_edge6_Node000001_Node000007"><a xlink:title=" ">
<path fill="none" stroke="#63b8ff" d="M136.38,-254.48C158.06,-263.8 184,-274.23 208,-282 214.05,-283.96 220.33,-285.83 226.69,-287.62"/>
<polygon fill="#63b8ff" stroke="#63b8ff" points="225.4,-290.89 235.97,-290.14 227.23,-284.14 225.4,-290.89"/>
</a>
</g>
</g>
<!-- Node8 -->
<g id="Node000008" class="node">
<title>Node8</title>
<g id="a_Node000008"><a xlink:href="class_data_1_1_hash_function_1_1_city_hash_1_1_city_hash___implementation.html#a395c40851843a781d7c3e4c0ceb07983" target="_top" xlink:title=" ">
<polygon fill="white" stroke="#666666" points="419.38,-132 208.38,-132 208.38,-100 419.38,-100 419.38,-132"/>
<text text-anchor="start" x="216.38" y="-118.5" font-family="Helvetica,sans-Serif" font-size="10.00">Data.HashFunction.CityHash.</text>
<text text-anchor="middle" x="313.88" y="-106.5" font-family="Helvetica,sans-Serif" font-size="10.00">CityHash_Implementation.Hash64Len33to64</text>
</a>
</g>
</g>
<!-- Node1&#45;&gt;Node8 -->
<g id="edge9_Node000001_Node000008" class="edge">
<title>Node1&#45;&gt;Node8</title>
<g id="a_edge9_Node000001_Node000008"><a xlink:title=" ">
<path fill="none" stroke="#63b8ff" d="M130.55,-209.63C170.92,-188.9 230.59,-158.26 270.55,-137.73"/>
<polygon fill="#63b8ff" stroke="#63b8ff" points="272.12,-140.86 279.42,-133.18 268.93,-134.64 272.12,-140.86"/>
</a>
</g>
</g>
<!-- Node10 -->
<g id="Node000010" class="node">
<title>Node10</title>
<g id="a_Node000010"><a xlink:href="class_data_1_1_hash_function_1_1_city_hash_1_1_city_hash___implementation.html#a4cf34ecb496d7caf130c96462e5f47b7" target="_top" xlink:title=" ">
<polygon fill="white" stroke="#666666" points="419.75,-223 208,-223 208,-191 419.75,-191 419.75,-223"/>
<text text-anchor="start" x="216" y="-209.5" font-family="Helvetica,sans-Serif" font-size="10.00">Data.HashFunction.CityHash.</text>
<text text-anchor="middle" x="313.88" y="-197.5" font-family="Helvetica,sans-Serif" font-size="10.00">CityHash_Implementation.Hash64Len65Plus</text>
</a>
</g>
</g>
<!-- Node1&#45;&gt;Node10 -->
<g id="edge13_Node000001_Node000010" class="edge">
<title>Node1&#45;&gt;Node10</title>
<g id="a_edge13_Node000001_Node000010"><a xlink:title=" ">
<path fill="none" stroke="#63b8ff" d="M172.39,-222.55C180.21,-221.68 188.2,-220.8 196.23,-219.91"/>
<polygon fill="#63b8ff" stroke="#63b8ff" points="196.51,-223.4 206.07,-218.82 195.74,-216.44 196.51,-223.4"/>
</a>
</g>
</g>
<!-- Node3 -->
<g id="Node000003" class="node">
<title>Node3</title>
<g id="a_Node000003"><a xlink:href="class_data_1_1_hash_function_1_1_city_hash_1_1_city_hash___implementation.html#a44c7f6a47b61dd01499fa3ffd79fba5c" target="_top" xlink:title=" ">
<polygon fill="white" stroke="#666666" points="648,-320 455.75,-320 455.75,-288 648,-288 648,-320"/>
<text text-anchor="start" x="463.75" y="-306.5" font-family="Helvetica,sans-Serif" font-size="10.00">Data.HashFunction.CityHash.</text>
<text text-anchor="middle" x="551.88" y="-294.5" font-family="Helvetica,sans-Serif" font-size="10.00">CityHash_Implementation.Hash64Len16</text>
</a>
</g>
</g>
<!-- Node2&#45;&gt;Node3 -->
<g id="edge2_Node000002_Node000003" class="edge">
<title>Node2&#45;&gt;Node3</title>
<g id="a_edge2_Node000002_Node000003"><a xlink:title=" ">
<path fill="none" stroke="#63b8ff" d="M397.42,-273.44C416.73,-277.28 437.44,-281.41 457.2,-285.34"/>
<polygon fill="#63b8ff" stroke="#63b8ff" points="456.4,-288.75 466.9,-287.28 457.77,-281.89 456.4,-288.75"/>
</a>
</g>
</g>
<!-- Node5 -->
<g id="Node000005" class="node">
<title>Node5</title>
<g id="a_Node000005"><a xlink:href="class_data_1_1_hash_function_1_1_city_hash_1_1_city_hash___implementation.html#ac2fa0ddcbf5ad593d0830669e41bf93c" target="_top" xlink:title=" ">
<polygon fill="white" stroke="#666666" points="625.88,-194 477.88,-194 477.88,-162 625.88,-162 625.88,-194"/>
<text text-anchor="start" x="485.88" y="-180.5" font-family="Helvetica,sans-Serif" font-size="10.00">Data.HashFunction.CityHash.</text>
<text text-anchor="middle" x="551.88" y="-168.5" font-family="Helvetica,sans-Serif" font-size="10.00">CityHash_Implementation.Mix</text>
</a>
</g>
</g>
<!-- Node2&#45;&gt;Node5 -->
<g id="edge4_Node000002_Node000005" class="edge">
<title>Node2&#45;&gt;Node5</title>
<g id="a_edge4_Node000002_Node000005"><a xlink:title=" ">
<path fill="none" stroke="#63b8ff" d="M390.32,-240.52C400.28,-237.91 410.31,-235.05 419.75,-232 448.65,-222.67 480.15,-209.79 505.03,-198.95"/>
<polygon fill="#63b8ff" stroke="#63b8ff" points="506.14,-202.29 513.88,-195.05 503.32,-195.88 506.14,-202.29"/>
</a>
</g>
</g>
<!-- Node6 -->
<g id="Node000006" class="node">
<title>Node6</title>
<g id="a_Node000006"><a xlink:href="class_data_1_1_hash_function_1_1_city_hash_1_1_city_hash___implementation.html#a054a2a634a2a60c58844d08986eef674" target="_top" xlink:title=" ">
<polygon fill="white" stroke="#666666" points="871.38,-238 686.62,-238 686.62,-206 871.38,-206 871.38,-238"/>
<text text-anchor="start" x="694.62" y="-224.5" font-family="Helvetica,sans-Serif" font-size="10.00">Data.HashFunction.CityHash.</text>
<text text-anchor="middle" x="779" y="-212.5" font-family="Helvetica,sans-Serif" font-size="10.00">CityHash_Implementation.RotateRight</text>
</a>
</g>
</g>
<!-- Node2&#45;&gt;Node6 -->
<g id="edge5_Node000002_Node000006" class="edge">
<title>Node2&#45;&gt;Node6</title>
<g id="a_edge5_Node000002_Node000006"><a xlink:title=" ">
<path fill="none" stroke="#63b8ff" d="M417.08,-249.28C493.76,-243.48 598.29,-235.58 675.13,-229.77"/>
<polygon fill="#63b8ff" stroke="#63b8ff" points="675.04,-233.29 684.75,-229.05 674.51,-226.31 675.04,-233.29"/>
</a>
</g>
</g>
<!-- Node4 -->
<g id="Node000004" class="node">
<title>Node4</title>
<g id="a_Node000004"><a xlink:href="class_data_1_1_hash_function_1_1_city_hash_1_1_city_hash___implementation.html#a45aa0a22c0153b96e93044b4becadaff" target="_top" xlink:title=" ">
<polygon fill="white" stroke="#666666" points="874,-320 684,-320 684,-288 874,-288 874,-320"/>
<text text-anchor="start" x="692" y="-306.5" font-family="Helvetica,sans-Serif" font-size="10.00">Data.HashFunction.CityHash.</text>
<text text-anchor="middle" x="779" y="-294.5" font-family="Helvetica,sans-Serif" font-size="10.00">CityHash_Implementation.Hash128to64</text>
</a>
</g>
</g>
<!-- Node3&#45;&gt;Node4 -->
<g id="edge3_Node000003_Node000004" class="edge">
<title>Node3&#45;&gt;Node4</title>
<g id="a_edge3_Node000003_Node000004"><a xlink:title=" ">
<path fill="none" stroke="#63b8ff" d="M648.35,-304C656.33,-304 664.43,-304 672.48,-304"/>
<polygon fill="#63b8ff" stroke="#63b8ff" points="672.3,-307.5 682.3,-304 672.3,-300.5 672.3,-307.5"/>
</a>
</g>
</g>
<!-- Node7&#45;&gt;Node3 -->
<g id="edge7_Node000007_Node000003" class="edge">
<title>Node7&#45;&gt;Node3</title>
<g id="a_edge7_Node000007_Node000003"><a xlink:title=" ">
<path fill="none" stroke="#63b8ff" d="M419.76,-305.67C427.8,-305.56 435.91,-305.46 443.96,-305.36"/>
<polygon fill="#63b8ff" stroke="#63b8ff" points="443.8,-308.86 453.75,-305.23 443.71,-301.86 443.8,-308.86"/>
</a>
</g>
</g>
<!-- Node7&#45;&gt;Node6 -->
<g id="edge8_Node000007_Node000006" class="edge">
<title>Node7&#45;&gt;Node6</title>
<g id="a_edge8_Node000007_Node000006"><a xlink:title=" ">
<path fill="none" stroke="#63b8ff" d="M358.48,-323.42C425,-345.6 553.98,-377.16 648,-329 672.37,-316.52 663.89,-297.58 684,-279 698.88,-265.25 717.59,-253.1 734.38,-243.59"/>
<polygon fill="#63b8ff" stroke="#63b8ff" points="735.6,-246.91 742.68,-239.03 732.23,-240.78 735.6,-246.91"/>
</a>
</g>
</g>
<!-- Node8&#45;&gt;Node5 -->
<g id="edge10_Node000008_Node000005" class="edge">
<title>Node8&#45;&gt;Node5</title>
<g id="a_edge10_Node000008_Node000005"><a xlink:title=" ">
<path fill="none" stroke="#63b8ff" d="M377.5,-132.45C408.16,-140.51 445.27,-150.26 477.28,-158.67"/>
<polygon fill="#63b8ff" stroke="#63b8ff" points="476.34,-162.04 486.9,-161.19 478.12,-155.27 476.34,-162.04"/>
</a>
</g>
</g>
<!-- Node8&#45;&gt;Node6 -->
<g id="edge12_Node000008_Node000006" class="edge">
<title>Node8&#45;&gt;Node6</title>
<g id="a_edge12_Node000008_Node000006"><a xlink:title=" ">
<path fill="none" stroke="#63b8ff" d="M361.7,-99.57C428.18,-79.06 552.43,-51.2 648,-91 698.98,-112.23 740.24,-164.25 761.76,-195.98"/>
<polygon fill="#63b8ff" stroke="#63b8ff" points="758.78,-197.82 767.21,-204.24 764.62,-193.96 758.78,-197.82"/>
</a>
</g>
</g>
<!-- Node9 -->
<g id="Node000009" class="node">
<title>Node9</title>
<g id="a_Node000009"><a xlink:href="class_data_1_1_hash_function_1_1_city_hash_1_1_city_hash___implementation.html#ab22214ef33ce0e9872cac0fc8a214e5f" target="_top" xlink:title=" ">
<polygon fill="white" stroke="#666666" points="636.38,-44 467.38,-44 467.38,0 636.38,0 636.38,-44"/>
<text text-anchor="start" x="475.38" y="-30.5" font-family="Helvetica,sans-Serif" font-size="10.00">Data.HashFunction.CityHash.</text>
<text text-anchor="start" x="475.38" y="-18.5" font-family="Helvetica,sans-Serif" font-size="10.00">CityHash_Implementation.Reverse</text>
<text text-anchor="middle" x="551.88" y="-6.5" font-family="Helvetica,sans-Serif" font-size="10.00">ByteOrder</text>
</a>
</g>
</g>
<!-- Node8&#45;&gt;Node9 -->
<g id="edge11_Node000008_Node000009" class="edge">
<title>Node8&#45;&gt;Node9</title>
<g id="a_edge11_Node000008_Node000009"><a xlink:title=" ">
<path fill="none" stroke="#63b8ff" d="M353.92,-99.57C382.13,-87.79 421.19,-71.65 455.75,-58 463.57,-54.91 471.78,-51.72 479.95,-48.58"/>
<polygon fill="#63b8ff" stroke="#63b8ff" points="481.14,-51.88 489.23,-45.04 478.64,-45.34 481.14,-51.88"/>
</a>
</g>
</g>
<!-- Node10&#45;&gt;Node3 -->
<g id="edge14_Node000010_Node000003" class="edge">
<title>Node10&#45;&gt;Node3</title>
<g id="a_edge14_Node000010_Node000003"><a xlink:title=" ">
<path fill="none" stroke="#63b8ff" d="M394.03,-223.45C402.81,-225.99 411.54,-228.83 419.75,-232 453.98,-245.2 490.35,-265.75 516.09,-281.53"/>
<polygon fill="#63b8ff" stroke="#63b8ff" points="514.12,-284.42 524.46,-286.73 517.81,-278.48 514.12,-284.42"/>
</a>
</g>
</g>
<!-- Node10&#45;&gt;Node5 -->
<g id="edge15_Node000010_Node000005" class="edge">
<title>Node10&#45;&gt;Node5</title>
<g id="a_edge15_Node000010_Node000005"><a xlink:title=" ">
<path fill="none" stroke="#63b8ff" d="M420.11,-194.07C435.58,-192.17 451.35,-190.23 466.34,-188.39"/>
<polygon fill="#63b8ff" stroke="#63b8ff" points="466.63,-191.88 476.13,-187.18 465.78,-184.93 466.63,-191.88"/>
</a>
</g>
</g>
<!-- Node10&#45;&gt;Node6 -->
<g id="edge16_Node000010_Node000006" class="edge">
<title>Node10&#45;&gt;Node6</title>
<g id="a_edge16_Node000010_Node000006"><a xlink:title=" ">
<path fill="none" stroke="#63b8ff" d="M419.97,-210.4C496.25,-212.87 598.94,-216.2 674.78,-218.66"/>
<polygon fill="#63b8ff" stroke="#63b8ff" points="674.62,-222.15 684.73,-218.98 674.85,-215.16 674.62,-222.15"/>
</a>
</g>
</g>
<!-- Node11 -->
<g id="Node000011" class="node">
<title>Node11</title>
<g id="a_Node000011"><a xlink:href="class_data_1_1_hash_function_1_1_city_hash_1_1_city_hash___implementation.html#ad6f6b8fbd54cc87e4cc63bd5b9772bfd" target="_top" xlink:title=" ">
<polygon fill="white" stroke="#666666" points="642,-144 461.75,-144 461.75,-100 642,-100 642,-144"/>
<text text-anchor="start" x="469.75" y="-130.5" font-family="Helvetica,sans-Serif" font-size="10.00">Data.HashFunction.CityHash.</text>
<text text-anchor="start" x="469.75" y="-118.5" font-family="Helvetica,sans-Serif" font-size="10.00">CityHash_Implementation.WeakHash</text>
<text text-anchor="middle" x="551.88" y="-106.5" font-family="Helvetica,sans-Serif" font-size="10.00">Len32WithSeeds</text>
</a>
</g>
</g>
<!-- Node10&#45;&gt;Node11 -->
<g id="edge17_Node000010_Node000011" class="edge">
<title>Node10&#45;&gt;Node11</title>
<g id="a_edge17_Node000010_Node000011"><a xlink:title=" ">
<path fill="none" stroke="#63b8ff" d="M355.97,-190.61C383.96,-179.61 421.93,-164.99 455.75,-153 460.39,-151.36 465.16,-149.7 469.99,-148.05"/>
<polygon fill="#63b8ff" stroke="#63b8ff" points="470.82,-151.46 479.17,-144.94 468.58,-144.83 470.82,-151.46"/>
</a>
</g>
</g>
<!-- Node11&#45;&gt;Node6 -->
<g id="edge18_Node000011_Node000006" class="edge">
<title>Node11&#45;&gt;Node6</title>
<g id="a_edge18_Node000011_Node000006"><a xlink:title=" ">
<path fill="none" stroke="#63b8ff" d="M626.06,-144.42C633.54,-147.14 640.97,-150.01 648,-153 680.29,-166.71 715.33,-185.56 740.89,-200.09"/>
<polygon fill="#63b8ff" stroke="#63b8ff" points="738.81,-202.93 749.22,-204.87 742.29,-196.86 738.81,-202.93"/>
</a>
</g>
</g>
</g>
</svg>

<g id="navigator" transform="translate(0 0)" fill="#404254">
  <rect fill="#f2f5e9" fill-opacity="0.5" stroke="#606060" stroke-width=".5" x="0" y="0" width="60" height="60"/>
  <use id="zoomplus" xlink:href="#zoomPlus" x="17" y="9" onmousedown="handleZoom(evt,'in')"/>
  <use id="zoomminus" xlink:href="#zoomMin" x="42" y="9" onmousedown="handleZoom(evt,'out')"/>
  <use id="reset" xlink:href="#resetDef" x="30" y="36" onmousedown="handleReset()"/>
   <use id="arrowup" xlink:href="#arrowUp" x="0" y="0" onmousedown="handlePan(0,-1)"/>
  <use id="arrowright" xlink:href="#arrowRight" x="0" y="0" onmousedown="handlePan(1,0)"/>
  <use id="arrowdown" xlink:href="#arrowDown" x="0" y="0" onmousedown="handlePan(0,1)"/>
  <use id="arrowleft" xlink:href="#arrowLeft" x="0" y="0" onmousedown="handlePan(-1,0)"/>
</g>
<svg viewBox="0 0 15 15" width="100%" height="30px" preserveAspectRatio="xMaxYMin meet">
 <g id="arrow_out" transform="scale(0.3 0.3)">
  <a xlink:href="class_data_1_1_hash_function_1_1_city_hash_1_1_city_hash___implementation_a51fdde3f82eb15dccb6cdb1b3f47c557_cgraph_org.svg" target="_base">
   <rect id="button" ry="5" rx="5" y="6" x="6" height="38" width="38"
        fill="#f2f5e9" fill-opacity="0.5" stroke="#606060" stroke-width="1.0"/>
   <path id="arrow"
     d="M 11.500037,31.436501 C 11.940474,20.09759 22.043105,11.32322 32.158766,21.979434 L 37.068811,17.246167 C 37.068811,17.246167 37.088388,32 37.088388,32 L 22.160133,31.978069 C 22.160133,31.978069 26.997745,27.140456 26.997745,27.140456 C 18.528582,18.264221 13.291696,25.230495 11.500037,31.436501 z"
     style="fill:#404040;"/>
  </a>
 </g>
</svg>

<style type='text/css'>
<![CDATA[
[data-mouse-over-selected='false'] { opacity: 0.7; }
[data-mouse-over-selected='true']  { opacity: 1.0; }
]]>
</style>
<script type="application/ecmascript"><![CDATA[
document.addEventListener('DOMContentLoaded', (event) => {
  highlightEdges();
  highlightAdjacentNodes();
});
]]></script>
</svg>
