<?xml version="1.0" encoding="UTF-8" standalone="no"?>
<!DOCTYPE svg PUBLIC "-//W3C//DTD SVG 1.1//EN"
 "http://www.w3.org/Graphics/SVG/1.1/DTD/svg11.dtd">
<!-- Generated by graphviz version 12.2.0 (20241103.1931)
 -->
<!-- Title: Data.HashFunction.Blake3.Blake3_Implementation Pages: 1 -->
<svg width="329pt" height="177pt"
 viewBox="0.00 0.00 329.00 177.00" xmlns="http://www.w3.org/2000/svg" xmlns:xlink="http://www.w3.org/1999/xlink">
<g id="graph0" class="graph" transform="scale(1 1) rotate(0) translate(4 173)">
<title>Data.HashFunction.Blake3.Blake3_Implementation</title>
<!-- Node1 -->
<g id="Node000001" class="node">
<title>Node1</title>
<g id="a_Node000001"><a xlink:title=" ">
<polygon fill="#999999" stroke="#666666" points="210,-32 73.25,-32 73.25,0 210,0 210,-32"/>
<text text-anchor="start" x="81.25" y="-18.5" font-family="Helvetica,sans-Serif" font-size="10.00">Data.HashFunction.Blake3.</text>
<text text-anchor="middle" x="141.62" y="-6.5" font-family="Helvetica,sans-Serif" font-size="10.00">Blake3_Implementation</text>
</a>
</g>
</g>
<!-- Node2 -->
<g id="Node000002" class="node">
<title>Node2</title>
<g id="a_Node000002"><a xlink:href="class_data_1_1_hash_function_1_1_core_1_1_hash_function_base.html" target="_top" xlink:title="Abstract implementation of an IHashFunction. Provides convenience checks and ensures a default HashSi...">
<polygon fill="white" stroke="#666666" points="99.25,-106 0,-106 0,-86 99.25,-86 99.25,-106"/>
<text text-anchor="middle" x="49.62" y="-92.5" font-family="Helvetica,sans-Serif" font-size="10.00">HashFunctionBase</text>
</a>
</g>
</g>
<!-- Node2&#45;&gt;Node1 -->
<g id="edge1_Node000001_Node000002" class="edge">
<title>Node2&#45;&gt;Node1</title>
<g id="a_edge1_Node000001_Node000002"><a xlink:title=" ">
<path fill="none" stroke="#63b8ff" d="M69.13,-78.46C85.18,-64.85 107.76,-45.71 123.44,-32.42"/>
<polygon fill="#63b8ff" stroke="#63b8ff" points="67.06,-75.63 61.69,-84.77 71.59,-80.97 67.06,-75.63"/>
</a>
</g>
</g>
<!-- Node3 -->
<g id="Node000003" class="node">
<title>Node3</title>
<g id="a_Node000003"><a xlink:href="interface_data_1_1_hash_function_1_1_i_hash_function.html" target="_top" xlink:title="Common interface to non&#45;cryptographic hash functions.">
<polygon fill="white" stroke="#666666" points="134.5,-169 54.75,-169 54.75,-149 134.5,-149 134.5,-169"/>
<text text-anchor="middle" x="94.62" y="-155.5" font-family="Helvetica,sans-Serif" font-size="10.00">IHashFunction</text>
</a>
</g>
</g>
<!-- Node3&#45;&gt;Node2 -->
<g id="edge2_Node000002_Node000003" class="edge">
<title>Node3&#45;&gt;Node2</title>
<g id="a_edge2_Node000002_Node000003"><a xlink:title=" ">
<path fill="none" stroke="#63b8ff" d="M81.03,-139.57C72.94,-128.6 63.02,-115.16 56.52,-106.35"/>
<polygon fill="#63b8ff" stroke="#63b8ff" points="78.14,-141.55 86.89,-147.52 83.77,-137.39 78.14,-141.55"/>
</a>
</g>
</g>
<!-- Node4 -->
<g id="Node000004" class="node">
<title>Node4</title>
<g id="a_Node000004"><a xlink:href="interface_data_1_1_hash_function_1_1_blake3_1_1_i_blake3.html" target="_top" xlink:title="Implementation of BLAKE3 as specified at https://en.wikipedia.org/wiki/BLAKE_(hash_function)#BLAKE3.">
<polygon fill="white" stroke="#666666" points="166.12,-106 117.12,-106 117.12,-86 166.12,-86 166.12,-106"/>
<text text-anchor="middle" x="141.62" y="-92.5" font-family="Helvetica,sans-Serif" font-size="10.00">IBlake3</text>
</a>
</g>
</g>
<!-- Node3&#45;&gt;Node4 -->
<g id="edge4_Node000004_Node000003" class="edge">
<title>Node3&#45;&gt;Node4</title>
<g id="a_edge4_Node000004_Node000003"><a xlink:title=" ">
<path fill="none" stroke="#63b8ff" d="M108.57,-139.9C117.06,-128.88 127.56,-115.25 134.42,-106.35"/>
<polygon fill="#63b8ff" stroke="#63b8ff" points="106.02,-137.48 102.69,-147.54 111.56,-141.75 106.02,-137.48"/>
</a>
</g>
</g>
<!-- Node4&#45;&gt;Node1 -->
<g id="edge3_Node000001_Node000004" class="edge">
<title>Node4&#45;&gt;Node1</title>
<g id="a_edge3_Node000001_Node000004"><a xlink:title=" ">
<path fill="none" stroke="#63b8ff" d="M141.62,-74.51C141.62,-61.32 141.62,-44.47 141.62,-32.42"/>
<polygon fill="#63b8ff" stroke="#63b8ff" points="138.13,-74.23 141.63,-84.23 145.13,-74.23 138.13,-74.23"/>
</a>
</g>
</g>
<!-- Node5 -->
<g id="Node000005" class="node">
<title>Node5</title>
<g id="a_Node000005"><a xlink:href="interface_data_1_1_hash_function_1_1_blake3_1_1_i_blake3_config.html" target="_top" xlink:title="Defines a configuration for a IBlake3 implementation.">
<polygon fill="white" stroke="#666666" points="321,-112 184.25,-112 184.25,-80 321,-80 321,-112"/>
<text text-anchor="start" x="192.25" y="-98.5" font-family="Helvetica,sans-Serif" font-size="10.00">Data.HashFunction.Blake3.</text>
<text text-anchor="middle" x="252.62" y="-86.5" font-family="Helvetica,sans-Serif" font-size="10.00">IBlake3Config</text>
</a>
</g>
</g>
<!-- Node5&#45;&gt;Node1 -->
<g id="edge5_Node000001_Node000005" class="edge">
<title>Node5&#45;&gt;Node1</title>
<g id="a_edge5_Node000001_Node000005"><a xlink:title=" ">
<path fill="none" stroke="#9a32cd" stroke-dasharray="5,2" d="M221.5,-73.13C203.03,-60.15 180.07,-44.01 163.51,-32.38"/>
<polygon fill="#9a32cd" stroke="#9a32cd" points="219.26,-75.83 229.46,-78.72 223.29,-70.11 219.26,-75.83"/>
</a>
</g>
<text text-anchor="middle" x="221.02" y="-52.5" font-family="Helvetica,sans-Serif" font-size="10.00" fill="grey"> _config</text>
</g>
</g>
</svg>
