<?xml version="1.0" encoding="UTF-8" standalone="no"?>
<!DOCTYPE svg PUBLIC "-//W3C//DTD SVG 1.1//EN"
 "http://www.w3.org/Graphics/SVG/1.1/DTD/svg11.dtd">
<!-- Generated by graphviz version 12.2.0 (20241103.1931)
 -->
<!-- Title: Data.HashFunction.ELF64.ELF64_Implementation Pages: 1 -->
<svg width="263pt" height="208pt"
 viewBox="0.00 0.00 263.00 208.00" xmlns="http://www.w3.org/2000/svg" xmlns:xlink="http://www.w3.org/1999/xlink">
<g id="graph0" class="graph" transform="scale(1 1) rotate(0) translate(4 204)">
<title>Data.HashFunction.ELF64.ELF64_Implementation</title>
<!-- Node1 -->
<g id="Node000001" class="node">
<title>Node1</title>
<g id="a_Node000001"><a xlink:title=" ">
<polygon fill="#999999" stroke="#666666" points="200,-32 64.75,-32 64.75,0 200,0 200,-32"/>
<text text-anchor="start" x="72.75" y="-18.5" font-family="Helvetica,sans-Serif" font-size="10.00">Data.HashFunction.ELF64.</text>
<text text-anchor="middle" x="132.38" y="-6.5" font-family="Helvetica,sans-Serif" font-size="10.00">ELF64_Implementation</text>
</a>
</g>
</g>
<!-- Node2 -->
<g id="Node000002" class="node">
<title>Node2</title>
<g id="a_Node000002"><a xlink:href="class_data_1_1_hash_function_1_1_core_1_1_streamable_hash_function_base.html" target="_top" xlink:title="Common interface to non&#45;cryptographic hash functions that can be computed over a stream of data witho...">
<polygon fill="white" stroke="#666666" points="148.75,-88 0,-88 0,-68 148.75,-68 148.75,-88"/>
<text text-anchor="middle" x="74.38" y="-74.5" font-family="Helvetica,sans-Serif" font-size="10.00">StreamableHashFunctionBase</text>
</a>
</g>
</g>
<!-- Node2&#45;&gt;Node1 -->
<g id="edge1_Node000001_Node000002" class="edge">
<title>Node2&#45;&gt;Node1</title>
<g id="a_edge1_Node000001_Node000002"><a xlink:title=" ">
<path fill="none" stroke="#63b8ff" d="M91.41,-59.37C99.77,-50.73 109.73,-40.42 117.74,-32.14"/>
<polygon fill="#63b8ff" stroke="#63b8ff" points="88.92,-56.91 84.49,-66.54 93.96,-61.78 88.92,-56.91"/>
</a>
</g>
</g>
<!-- Node3 -->
<g id="Node000003" class="node">
<title>Node3</title>
<g id="a_Node000003"><a xlink:href="class_data_1_1_hash_function_1_1_core_1_1_hash_function_base.html" target="_top" xlink:title="Abstract implementation of an IHashFunction. Provides convenience checks and ensures a default HashSi...">
<polygon fill="white" stroke="#666666" points="108,-144 8.75,-144 8.75,-124 108,-124 108,-144"/>
<text text-anchor="middle" x="58.38" y="-130.5" font-family="Helvetica,sans-Serif" font-size="10.00">HashFunctionBase</text>
</a>
</g>
</g>
<!-- Node3&#45;&gt;Node2 -->
<g id="edge2_Node000002_Node000003" class="edge">
<title>Node3&#45;&gt;Node2</title>
<g id="a_edge2_Node000002_Node000003"><a xlink:title=" ">
<path fill="none" stroke="#63b8ff" d="M64.39,-112.71C66.87,-104.32 69.63,-95.01 71.62,-88.3"/>
<polygon fill="#63b8ff" stroke="#63b8ff" points="61.08,-111.56 61.59,-122.14 67.79,-113.55 61.08,-111.56"/>
</a>
</g>
</g>
<!-- Node4 -->
<g id="Node000004" class="node">
<title>Node4</title>
<g id="a_Node000004"><a xlink:href="interface_data_1_1_hash_function_1_1_i_hash_function.html" target="_top" xlink:title="Common interface to non&#45;cryptographic hash functions.">
<polygon fill="white" stroke="#666666" points="164.25,-200 84.5,-200 84.5,-180 164.25,-180 164.25,-200"/>
<text text-anchor="middle" x="124.38" y="-186.5" font-family="Helvetica,sans-Serif" font-size="10.00">IHashFunction</text>
</a>
</g>
</g>
<!-- Node4&#45;&gt;Node3 -->
<g id="edge3_Node000003_Node000004" class="edge">
<title>Node4&#45;&gt;Node3</title>
<g id="a_edge3_Node000003_Node000004"><a xlink:title=" ">
<path fill="none" stroke="#63b8ff" d="M104.09,-172.4C92.8,-163.17 79.16,-152.01 69.74,-144.3"/>
<polygon fill="#63b8ff" stroke="#63b8ff" points="101.75,-175.01 111.71,-178.64 106.18,-169.59 101.75,-175.01"/>
</a>
</g>
</g>
<!-- Node5 -->
<g id="Node000005" class="node">
<title>Node5</title>
<g id="a_Node000005"><a xlink:href="interface_data_1_1_hash_function_1_1_i_streamable_hash_function.html" target="_top" xlink:title="Common interface to non&#45;cryptographic hash functions that can be computed over a stream of data witho...">
<polygon fill="white" stroke="#666666" points="255,-144 125.75,-144 125.75,-124 255,-124 255,-144"/>
<text text-anchor="middle" x="190.38" y="-130.5" font-family="Helvetica,sans-Serif" font-size="10.00">IStreamableHashFunction</text>
</a>
</g>
</g>
<!-- Node4&#45;&gt;Node5 -->
<g id="edge5_Node000005_Node000004" class="edge">
<title>Node4&#45;&gt;Node5</title>
<g id="a_edge5_Node000005_Node000004"><a xlink:title=" ">
<path fill="none" stroke="#63b8ff" d="M144.66,-172.4C155.95,-163.17 169.59,-152.01 179.01,-144.3"/>
<polygon fill="#63b8ff" stroke="#63b8ff" points="142.57,-169.59 137.04,-178.64 147,-175.01 142.57,-169.59"/>
</a>
</g>
</g>
<!-- Node5&#45;&gt;Node2 -->
<g id="edge4_Node000002_Node000005" class="edge">
<title>Node5&#45;&gt;Node2</title>
<g id="a_edge4_Node000002_Node000005"><a xlink:title=" ">
<path fill="none" stroke="#63b8ff" d="M159.75,-118.75C139.21,-109.18 112.73,-96.85 94.74,-88.48"/>
<polygon fill="#63b8ff" stroke="#63b8ff" points="158.25,-121.91 168.8,-122.96 161.21,-115.56 158.25,-121.91"/>
</a>
</g>
</g>
<!-- Node6 -->
<g id="Node000006" class="node">
<title>Node6</title>
<g id="a_Node000006"><a xlink:href="interface_data_1_1_hash_function_1_1_e_l_f64_1_1_i_e_l_f64.html" target="_top" xlink:title="Implementation of the hash function used in the elf64 object file format as specified at http://downl...">
<polygon fill="white" stroke="#666666" points="214.12,-88 166.62,-88 166.62,-68 214.12,-68 214.12,-88"/>
<text text-anchor="middle" x="190.38" y="-74.5" font-family="Helvetica,sans-Serif" font-size="10.00">IELF64</text>
</a>
</g>
</g>
<!-- Node5&#45;&gt;Node6 -->
<g id="edge7_Node000006_Node000005" class="edge">
<title>Node5&#45;&gt;Node6</title>
<g id="a_edge7_Node000006_Node000005"><a xlink:title=" ">
<path fill="none" stroke="#63b8ff" d="M190.38,-112.13C190.38,-103.9 190.38,-94.85 190.38,-88.3"/>
<polygon fill="#63b8ff" stroke="#63b8ff" points="186.88,-112.08 190.38,-122.08 193.88,-112.08 186.88,-112.08"/>
</a>
</g>
</g>
<!-- Node6&#45;&gt;Node1 -->
<g id="edge6_Node000001_Node000006" class="edge">
<title>Node6&#45;&gt;Node1</title>
<g id="a_edge6_Node000001_Node000006"><a xlink:title=" ">
<path fill="none" stroke="#63b8ff" d="M173.34,-59.37C164.98,-50.73 155.02,-40.42 147.01,-32.14"/>
<polygon fill="#63b8ff" stroke="#63b8ff" points="170.79,-61.78 180.26,-66.54 175.83,-56.91 170.79,-61.78"/>
</a>
</g>
</g>
</g>
</svg>
