<?xml version="1.0" encoding="UTF-8" standalone="no"?>
<!DOCTYPE svg PUBLIC "-//W3C//DTD SVG 1.1//EN"
 "http://www.w3.org/Graphics/SVG/1.1/DTD/svg11.dtd">
<!-- Generated by graphviz version 12.2.0 (20241103.1931)
 -->
<!-- Title: Data.HashFunction.CityHash.CityHash_Implementation.Hash32Len13to24 Pages: 1 -->
<svg width="635pt" height="52pt"
 viewBox="0.00 0.00 635.00 52.00" xmlns="http://www.w3.org/2000/svg" xmlns:xlink="http://www.w3.org/1999/xlink">
<g id="graph0" class="graph" transform="scale(1 1) rotate(0) translate(4 48)">
<title>Data.HashFunction.CityHash.CityHash_Implementation.Hash32Len13to24</title>
<!-- Node1 -->
<g id="Node000001" class="node">
<title>Node1</title>
<g id="a_Node000001"><a xlink:title=" ">
<polygon fill="#999999" stroke="#666666" points="627,-38 416,-38 416,-6 627,-6 627,-38"/>
<text text-anchor="start" x="424" y="-24.5" font-family="Helvetica,sans-Serif" font-size="10.00">Data.HashFunction.CityHash.</text>
<text text-anchor="middle" x="521.5" y="-12.5" font-family="Helvetica,sans-Serif" font-size="10.00">CityHash_Implementation.Hash32Len13to24</text>
</a>
</g>
</g>
<!-- Node2 -->
<g id="Node000002" class="node">
<title>Node2</title>
<g id="a_Node000002"><a xlink:href="class_data_1_1_hash_function_1_1_city_hash_1_1_city_hash___implementation.html#af33356b76ad4ef5d565727b377ee65a2" target="_top" xlink:title=" ">
<polygon fill="white" stroke="#666666" points="380,-44 208,-44 208,0 380,0 380,-44"/>
<text text-anchor="start" x="216" y="-30.5" font-family="Helvetica,sans-Serif" font-size="10.00">Data.HashFunction.CityHash.</text>
<text text-anchor="start" x="216" y="-18.5" font-family="Helvetica,sans-Serif" font-size="10.00">CityHash_Implementation.Compute</text>
<text text-anchor="middle" x="294" y="-6.5" font-family="Helvetica,sans-Serif" font-size="10.00">Hash32</text>
</a>
</g>
</g>
<!-- Node1&#45;&gt;Node2 -->
<g id="edge1_Node000001_Node000002" class="edge">
<title>Node1&#45;&gt;Node2</title>
<g id="a_edge1_Node000001_Node000002"><a xlink:title=" ">
<path fill="none" stroke="#63b8ff" d="M404.27,-22C396.2,-22 388.16,-22 380.31,-22"/>
<polygon fill="#63b8ff" stroke="#63b8ff" points="404.16,-25.5 414.16,-22 404.16,-18.5 404.16,-25.5"/>
</a>
</g>
</g>
<!-- Node3 -->
<g id="Node000003" class="node">
<title>Node3</title>
<g id="a_Node000003"><a xlink:href="class_data_1_1_hash_function_1_1_city_hash_1_1_city_hash___implementation.html#ae936ee82719f44aba970a71e22aa5aea" target="_top" xlink:title=" ">
<polygon fill="white" stroke="#666666" points="172,-44 0,-44 0,0 172,0 172,-44"/>
<text text-anchor="start" x="8" y="-30.5" font-family="Helvetica,sans-Serif" font-size="10.00">Data.HashFunction.CityHash.</text>
<text text-anchor="start" x="8" y="-18.5" font-family="Helvetica,sans-Serif" font-size="10.00">CityHash_Implementation.Compute</text>
<text text-anchor="middle" x="86" y="-6.5" font-family="Helvetica,sans-Serif" font-size="10.00">HashInternal</text>
</a>
</g>
</g>
<!-- Node2&#45;&gt;Node3 -->
<g id="edge2_Node000002_Node000003" class="edge">
<title>Node2&#45;&gt;Node3</title>
<g id="a_edge2_Node000002_Node000003"><a xlink:title=" ">
<path fill="none" stroke="#63b8ff" d="M196.37,-22C188.31,-22 180.19,-22 172.21,-22"/>
<polygon fill="#63b8ff" stroke="#63b8ff" points="196.21,-25.5 206.21,-22 196.21,-18.5 196.21,-25.5"/>
</a>
</g>
</g>
</g>
</svg>
