<?xml version="1.0" encoding="UTF-8" standalone="no"?>
<!DOCTYPE svg PUBLIC "-//W3C//DTD SVG 1.1//EN"
 "http://www.w3.org/Graphics/SVG/1.1/DTD/svg11.dtd">
<!-- Generated by graphviz version 12.2.0 (20241103.1931)
 -->
<!-- Title: Data.HashFunction.FNV.Utilities.FNVPrimeOffset.ToUInt32Array Pages: 1 -->
<!--zoomable 534 -->

<svg id="main" version="1.1" xmlns="http://www.w3.org/2000/svg" xmlns:xlink="http://www.w3.org/1999/xlink" xml:space="preserve" onload="init(evt)">

<style type="text/css"><![CDATA[
.node, .edge {opacity: 0.7;}
.node.selected, .edge.selected {opacity: 1;}
.edge:hover path { stroke: red; }
.edge:hover polygon { stroke: red; fill: red; }
]]></style>

<defs>
  <circle id="rim" cx="0" cy="0" r="7"/>
  <circle id="rim2" cx="0" cy="0" r="3.5"/>
  <g id="zoomPlus">
    <use xlink:href="#rim" fill="#404040"><set attributeName="fill" to="#808080" begin="zoomplus.mouseover" end="zoomplus.mouseout"/></use>
    <path d="M-4,0h8M0,-4v8" fill="none" stroke="white" stroke-width="1.5" pointer-events="none"/>
  </g>
  <g id="zoomMin">
    <use xlink:href="#rim" fill="#404040"><set attributeName="fill" to="#808080" begin="zoomminus.mouseover" end="zoomminus.mouseout"/></use>
    <path d="M-4,0h8" fill="none" stroke="white" stroke-width="1.5" pointer-events="none"/>
  </g>
  <g id="arrowUp" transform="translate(30 24)">
    <use xlink:href="#rim"/>
    <path pointer-events="none" fill="none" stroke="white" stroke-width="1.5" d="M0,-3.0v7 M-2.5,-0.5L0,-3.0L2.5,-0.5"/>
  </g>
  <g id="arrowRight" transform="rotate(90) translate(36 -43)">
    <use xlink:href="#rim"/>
    <path pointer-events="none" fill="none" stroke="white" stroke-width="1.5" d="M0,-3.0v7 M-2.5,-0.5L0,-3.0L2.5,-0.5"/>
  </g>
  <g id="arrowDown" transform="rotate(180) translate(-30 -48)">
    <use xlink:href="#rim"/>
    <path pointer-events="none" fill="none" stroke="white" stroke-width="1.5" d="M0,-3.0v7 M-2.5,-0.5L0,-3.0L2.5,-0.5"/>
  </g>
  <g id="arrowLeft" transform="rotate(270) translate(-36 17)">
    <use xlink:href="#rim"/>
    <path pointer-events="none" fill="none" stroke="white" stroke-width="1.5" d="M0,-3.0v7 M-2.5,-0.5L0,-3.0L2.5,-0.5"/>
  </g>
  <g id="resetDef">
    <use xlink:href="#rim2" fill="#404040"><set attributeName="fill" to="#808080" begin="reset.mouseover" end="reset.mouseout"/></use>
  </g>
</defs>
<script type="application/ecmascript">
var viewWidth = 632;
var viewHeight = 534;
var sectionId = 'dynsection-3';
</script>
<script type="application/ecmascript" xlink:href="svg.min.js"/>
<svg id="graph" class="graph">
<g id="viewport">
<title>Data.HashFunction.FNV.Utilities.FNVPrimeOffset.ToUInt32Array</title>
<!-- Node1 -->
<g id="Node000001" class="node">
<title>Node1</title>
<g id="a_Node000001"><a xlink:title=" ">
<polygon fill="#999999" stroke="#666666" points="624,-279 461.75,-279 461.75,-247 624,-247 624,-279"/>
<text text-anchor="start" x="469.75" y="-265.5" font-family="Helvetica,sans-Serif" font-size="10.00">Data.HashFunction.FNV.Utilities.</text>
<text text-anchor="middle" x="542.88" y="-253.5" font-family="Helvetica,sans-Serif" font-size="10.00">FNVPrimeOffset.ToUInt32Array</text>
</a>
</g>
</g>
<!-- Node2 -->
<g id="Node000002" class="node">
<title>Node2</title>
<g id="a_Node000002"><a xlink:href="class_data_1_1_hash_function_1_1_f_n_v_1_1_utilities_1_1_f_n_v_prime_offset.html#a45a37013e88a9fe781b6b78594e8be0c" target="_top" xlink:title=" ">
<polygon fill="white" stroke="#666666" points="425.75,-279 263.5,-279 263.5,-247 425.75,-247 425.75,-279"/>
<text text-anchor="start" x="271.5" y="-265.5" font-family="Helvetica,sans-Serif" font-size="10.00">Data.HashFunction.FNV.Utilities.</text>
<text text-anchor="middle" x="344.62" y="-253.5" font-family="Helvetica,sans-Serif" font-size="10.00">FNVPrimeOffset.Create</text>
</a>
</g>
</g>
<!-- Node1&#45;&gt;Node2 -->
<g id="edge1_Node000001_Node000002" class="edge">
<title>Node1&#45;&gt;Node2</title>
<g id="a_edge1_Node000001_Node000002"><a xlink:title=" ">
<path fill="none" stroke="#63b8ff" d="M450.21,-263C442.2,-263 434.12,-263 426.21,-263"/>
<polygon fill="#63b8ff" stroke="#63b8ff" points="449.97,-266.5 459.97,-263 449.97,-259.5 449.97,-266.5"/>
</a>
</g>
</g>
<!-- Node3 -->
<g id="Node000003" class="node">
<title>Node3</title>
<g id="a_Node000003"><a xlink:href="class_data_1_1_hash_function_1_1_f_n_v_1_1_f_n_v1_base.html#a77c98e3ddc498cebd3948113612ea9a4" target="_top" xlink:title=" ">
<polygon fill="white" stroke="#666666" points="189.62,-526 37.88,-526 37.88,-494 189.62,-494 189.62,-526"/>
<text text-anchor="start" x="45.88" y="-512.5" font-family="Helvetica,sans-Serif" font-size="10.00">Data.HashFunction.FNV.FNV1</text>
<text text-anchor="middle" x="113.75" y="-500.5" font-family="Helvetica,sans-Serif" font-size="10.00">Base.FNV1Base</text>
</a>
</g>
</g>
<!-- Node2&#45;&gt;Node3 -->
<g id="edge2_Node000002_Node000003" class="edge">
<title>Node2&#45;&gt;Node3</title>
<g id="a_edge2_Node000002_Node000003"><a xlink:title=" ">
<path fill="none" stroke="#63b8ff" d="M337.33,-290.4C324.95,-337.85 292.76,-435.02 227.5,-485 216.6,-493.35 203.45,-499.02 190.05,-502.85"/>
<polygon fill="#63b8ff" stroke="#63b8ff" points="340.67,-291.49 339.7,-280.94 333.88,-289.79 340.67,-291.49"/>
</a>
</g>
</g>
<!-- Node4 -->
<g id="Node000004" class="node">
<title>Node4</title>
<g id="a_Node000004"><a xlink:href="class_data_1_1_hash_function_1_1_test_1_1_f_n_v_1_1_utilities_1_1_f_n_v_prime_offset___tests.html#a7724e434b841c7ea63ed6e05c365f086" target="_top" xlink:title=" ">
<polygon fill="white" stroke="#666666" points="191.12,-476 36.38,-476 36.38,-420 191.12,-420 191.12,-476"/>
<text text-anchor="start" x="44.38" y="-462.5" font-family="Helvetica,sans-Serif" font-size="10.00">Data.HashFunction.Test.FNV.</text>
<text text-anchor="start" x="44.38" y="-450.5" font-family="Helvetica,sans-Serif" font-size="10.00">Utilities.FNVPrimeOffset</text>
<text text-anchor="start" x="44.38" y="-438.5" font-family="Helvetica,sans-Serif" font-size="10.00">_Tests.FNVPrimeOffset_Create</text>
<text text-anchor="middle" x="113.75" y="-426.5" font-family="Helvetica,sans-Serif" font-size="10.00">_InvalidBitSize_Throws</text>
</a>
</g>
</g>
<!-- Node2&#45;&gt;Node4 -->
<g id="edge3_Node000002_Node000004" class="edge">
<title>Node2&#45;&gt;Node4</title>
<g id="a_edge3_Node000002_Node000004"><a xlink:title=" ">
<path fill="none" stroke="#63b8ff" d="M329.59,-289.22C310.64,-322.22 273.84,-378.53 227.5,-411 216.62,-418.63 204.06,-424.76 191.37,-429.67"/>
<polygon fill="#63b8ff" stroke="#63b8ff" points="332.53,-291.13 334.37,-280.7 326.43,-287.71 332.53,-291.13"/>
</a>
</g>
</g>
<!-- Node5 -->
<g id="Node000005" class="node">
<title>Node5</title>
<g id="a_Node000005"><a xlink:href="class_data_1_1_hash_function_1_1_test_1_1_f_n_v_1_1_utilities_1_1_f_n_v_prime_offset___tests.html#ada9ada1140c9b811923058042f6aa408" target="_top" xlink:title=" ">
<polygon fill="white" stroke="#666666" points="191.12,-402 36.38,-402 36.38,-346 191.12,-346 191.12,-402"/>
<text text-anchor="start" x="44.38" y="-388.5" font-family="Helvetica,sans-Serif" font-size="10.00">Data.HashFunction.Test.FNV.</text>
<text text-anchor="start" x="44.38" y="-376.5" font-family="Helvetica,sans-Serif" font-size="10.00">Utilities.FNVPrimeOffset</text>
<text text-anchor="start" x="44.38" y="-364.5" font-family="Helvetica,sans-Serif" font-size="10.00">_Tests.FNVPrimeOffset_Create</text>
<text text-anchor="middle" x="113.75" y="-352.5" font-family="Helvetica,sans-Serif" font-size="10.00">_InvalidOffset_Throws</text>
</a>
</g>
</g>
<!-- Node2&#45;&gt;Node5 -->
<g id="edge4_Node000002_Node000005" class="edge">
<title>Node2&#45;&gt;Node5</title>
<g id="a_edge4_Node000002_Node000005"><a xlink:title=" ">
<path fill="none" stroke="#63b8ff" d="M312.76,-285.69C290.04,-301.63 257.94,-322.59 227.5,-337 216.14,-342.38 203.79,-347.29 191.58,-351.66"/>
<polygon fill="#63b8ff" stroke="#63b8ff" points="314.53,-288.73 320.66,-280.08 310.48,-283.02 314.53,-288.73"/>
</a>
</g>
</g>
<!-- Node6 -->
<g id="Node000006" class="node">
<title>Node6</title>
<g id="a_Node000006"><a xlink:href="class_data_1_1_hash_function_1_1_test_1_1_f_n_v_1_1_utilities_1_1_f_n_v_prime_offset___tests.html#ab9b7a3f5b9e841d218c6334cddc84531" target="_top" xlink:title=" ">
<polygon fill="white" stroke="#666666" points="191.12,-328 36.38,-328 36.38,-272 191.12,-272 191.12,-328"/>
<text text-anchor="start" x="44.38" y="-314.5" font-family="Helvetica,sans-Serif" font-size="10.00">Data.HashFunction.Test.FNV.</text>
<text text-anchor="start" x="44.38" y="-302.5" font-family="Helvetica,sans-Serif" font-size="10.00">Utilities.FNVPrimeOffset</text>
<text text-anchor="start" x="44.38" y="-290.5" font-family="Helvetica,sans-Serif" font-size="10.00">_Tests.FNVPrimeOffset_Create</text>
<text text-anchor="middle" x="113.75" y="-278.5" font-family="Helvetica,sans-Serif" font-size="10.00">_InvalidPrime_Throws</text>
</a>
</g>
</g>
<!-- Node2&#45;&gt;Node6 -->
<g id="edge5_Node000002_Node000006" class="edge">
<title>Node2&#45;&gt;Node6</title>
<g id="a_edge5_Node000002_Node000006"><a xlink:title=" ">
<path fill="none" stroke="#63b8ff" d="M251.91,-277.83C231.87,-281.07 210.85,-284.46 191.47,-287.6"/>
<polygon fill="#63b8ff" stroke="#63b8ff" points="252.45,-281.29 261.76,-276.23 251.33,-274.38 252.45,-281.29"/>
</a>
</g>
</g>
<!-- Node7 -->
<g id="Node000007" class="node">
<title>Node7</title>
<g id="a_Node000007"><a xlink:href="class_data_1_1_hash_function_1_1_test_1_1_f_n_v_1_1_utilities_1_1_f_n_v_prime_offset___tests.html#a790c64df4c96223b51a6a797079ee621" target="_top" xlink:title=" ">
<polygon fill="white" stroke="#666666" points="191.12,-254 36.38,-254 36.38,-198 191.12,-198 191.12,-254"/>
<text text-anchor="start" x="44.38" y="-240.5" font-family="Helvetica,sans-Serif" font-size="10.00">Data.HashFunction.Test.FNV.</text>
<text text-anchor="start" x="44.38" y="-228.5" font-family="Helvetica,sans-Serif" font-size="10.00">Utilities.FNVPrimeOffset</text>
<text text-anchor="start" x="44.38" y="-216.5" font-family="Helvetica,sans-Serif" font-size="10.00">_Tests.FNVPrimeOffset_Create</text>
<text text-anchor="middle" x="113.75" y="-204.5" font-family="Helvetica,sans-Serif" font-size="10.00">_ValidBitSize_Throws</text>
</a>
</g>
</g>
<!-- Node2&#45;&gt;Node7 -->
<g id="edge6_Node000002_Node000007" class="edge">
<title>Node2&#45;&gt;Node7</title>
<g id="a_edge6_Node000002_Node000007"><a xlink:title=" ">
<path fill="none" stroke="#63b8ff" d="M251.91,-248.17C231.87,-244.93 210.85,-241.54 191.47,-238.4"/>
<polygon fill="#63b8ff" stroke="#63b8ff" points="251.33,-251.62 261.76,-249.77 252.45,-244.71 251.33,-251.62"/>
</a>
</g>
</g>
<!-- Node8 -->
<g id="Node000008" class="node">
<title>Node8</title>
<g id="a_Node000008"><a xlink:href="class_data_1_1_hash_function_1_1_test_1_1_f_n_v_1_1_utilities_1_1_f_n_v_prime_offset___tests.html#afea1d8e92bfe7ceffd53e5b790c2b203" target="_top" xlink:title=" ">
<polygon fill="white" stroke="#666666" points="207.62,-180 19.88,-180 19.88,-136 207.62,-136 207.62,-180"/>
<text text-anchor="start" x="27.88" y="-166.5" font-family="Helvetica,sans-Serif" font-size="10.00">Data.HashFunction.Test.FNV.</text>
<text text-anchor="start" x="27.88" y="-154.5" font-family="Helvetica,sans-Serif" font-size="10.00">Utilities.FNVPrimeOffset</text>
<text text-anchor="middle" x="113.75" y="-142.5" font-family="Helvetica,sans-Serif" font-size="10.00">_Tests.FNVPrimeOffset_Create_Works</text>
</a>
</g>
</g>
<!-- Node2&#45;&gt;Node8 -->
<g id="edge7_Node000002_Node000008" class="edge">
<title>Node2&#45;&gt;Node8</title>
<g id="a_edge7_Node000002_Node000008"><a xlink:title=" ">
<path fill="none" stroke="#63b8ff" d="M313.39,-240.16C290.75,-223.96 258.47,-202.75 227.5,-189 220.54,-185.91 213.2,-183.06 205.74,-180.45"/>
<polygon fill="#63b8ff" stroke="#63b8ff" points="311.1,-242.82 321.25,-245.86 315.21,-237.15 311.1,-242.82"/>
</a>
</g>
</g>
<!-- Node9 -->
<g id="Node000009" class="node">
<title>Node9</title>
<g id="a_Node000009"><a xlink:href="class_data_1_1_hash_function_1_1_test_1_1_f_n_v_1_1_utilities_1_1_f_n_v_prime_offset___tests.html#aa4c1f4447ccf54fbe319923d3283e2b4" target="_top" xlink:title=" ">
<polygon fill="white" stroke="#666666" points="211,-118 16.5,-118 16.5,-62 211,-62 211,-118"/>
<text text-anchor="start" x="24.5" y="-104.5" font-family="Helvetica,sans-Serif" font-size="10.00">Data.HashFunction.Test.FNV.</text>
<text text-anchor="start" x="24.5" y="-92.5" font-family="Helvetica,sans-Serif" font-size="10.00">Utilities.FNVPrimeOffset</text>
<text text-anchor="start" x="24.5" y="-80.5" font-family="Helvetica,sans-Serif" font-size="10.00">_Tests.FNVPrimeOffset_PrimeAndOffset</text>
<text text-anchor="middle" x="113.75" y="-68.5" font-family="Helvetica,sans-Serif" font-size="10.00">_ResultsAreCached</text>
</a>
</g>
</g>
<!-- Node2&#45;&gt;Node9 -->
<g id="edge8_Node000002_Node000009" class="edge">
<title>Node2&#45;&gt;Node9</title>
<g id="a_edge8_Node000002_Node000009"><a xlink:title=" ">
<path fill="none" stroke="#63b8ff" d="M327.89,-237.11C308.08,-206.6 271.29,-156.36 227.5,-127 222.45,-123.62 217.07,-120.52 211.5,-117.69"/>
<polygon fill="#63b8ff" stroke="#63b8ff" points="324.81,-238.8 333.13,-245.37 330.72,-235.05 324.81,-238.8"/>
</a>
</g>
</g>
<!-- Node10 -->
<g id="Node000010" class="node">
<title>Node10</title>
<g id="a_Node000010"><a xlink:href="class_data_1_1_hash_function_1_1_test_1_1_f_n_v_1_1_utilities_1_1_f_n_v_prime_offset___tests.html#afd3ab64d6289de713eb33b7f883ce392" target="_top" xlink:title=" ">
<polygon fill="white" stroke="#666666" points="227.5,-44 0,-44 0,0 227.5,0 227.5,-44"/>
<text text-anchor="start" x="8" y="-30.5" font-family="Helvetica,sans-Serif" font-size="10.00">Data.HashFunction.Test.FNV.</text>
<text text-anchor="start" x="8" y="-18.5" font-family="Helvetica,sans-Serif" font-size="10.00">Utilities.FNVPrimeOffset</text>
<text text-anchor="middle" x="113.75" y="-6.5" font-family="Helvetica,sans-Serif" font-size="10.00">_Tests.FNVPrimeOffset_PrimeAndOffset_Works</text>
</a>
</g>
</g>
<!-- Node2&#45;&gt;Node10 -->
<g id="edge9_Node000002_Node000010" class="edge">
<title>Node2&#45;&gt;Node10</title>
<g id="a_edge9_Node000002_Node000010"><a xlink:title=" ">
<path fill="none" stroke="#63b8ff" d="M336.16,-235.82C322.39,-190.85 288.65,-101.15 227.5,-53 223.43,-49.8 219.06,-46.93 214.47,-44.35"/>
<polygon fill="#63b8ff" stroke="#63b8ff" points="332.77,-236.69 338.95,-245.29 339.48,-234.71 332.77,-236.69"/>
</a>
</g>
</g>
</g>
</svg>

<g id="navigator" transform="translate(0 0)" fill="#404254">
  <rect fill="#f2f5e9" fill-opacity="0.5" stroke="#606060" stroke-width=".5" x="0" y="0" width="60" height="60"/>
  <use id="zoomplus" xlink:href="#zoomPlus" x="17" y="9" onmousedown="handleZoom(evt,'in')"/>
  <use id="zoomminus" xlink:href="#zoomMin" x="42" y="9" onmousedown="handleZoom(evt,'out')"/>
  <use id="reset" xlink:href="#resetDef" x="30" y="36" onmousedown="handleReset()"/>
   <use id="arrowup" xlink:href="#arrowUp" x="0" y="0" onmousedown="handlePan(0,-1)"/>
  <use id="arrowright" xlink:href="#arrowRight" x="0" y="0" onmousedown="handlePan(1,0)"/>
  <use id="arrowdown" xlink:href="#arrowDown" x="0" y="0" onmousedown="handlePan(0,1)"/>
  <use id="arrowleft" xlink:href="#arrowLeft" x="0" y="0" onmousedown="handlePan(-1,0)"/>
</g>
<svg viewBox="0 0 15 15" width="100%" height="30px" preserveAspectRatio="xMaxYMin meet">
 <g id="arrow_out" transform="scale(0.3 0.3)">
  <a xlink:href="class_data_1_1_hash_function_1_1_f_n_v_1_1_utilities_1_1_f_n_v_prime_offset_af4415eb73b94a036f076a9091c126b3e_icgraph_org.svg" target="_base">
   <rect id="button" ry="5" rx="5" y="6" x="6" height="38" width="38"
        fill="#f2f5e9" fill-opacity="0.5" stroke="#606060" stroke-width="1.0"/>
   <path id="arrow"
     d="M 11.500037,31.436501 C 11.940474,20.09759 22.043105,11.32322 32.158766,21.979434 L 37.068811,17.246167 C 37.068811,17.246167 37.088388,32 37.088388,32 L 22.160133,31.978069 C 22.160133,31.978069 26.997745,27.140456 26.997745,27.140456 C 18.528582,18.264221 13.291696,25.230495 11.500037,31.436501 z"
     style="fill:#404040;"/>
  </a>
 </g>
</svg>

<style type='text/css'>
<![CDATA[
[data-mouse-over-selected='false'] { opacity: 0.7; }
[data-mouse-over-selected='true']  { opacity: 1.0; }
]]>
</style>
<script type="application/ecmascript"><![CDATA[
document.addEventListener('DOMContentLoaded', (event) => {
  highlightEdges();
  highlightAdjacentNodes();
});
]]></script>
</svg>
