<?xml version="1.0" encoding="UTF-8" standalone="no"?>
<!DOCTYPE svg PUBLIC "-//W3C//DTD SVG 1.1//EN"
 "http://www.w3.org/Graphics/SVG/1.1/DTD/svg11.dtd">
<!-- Generated by graphviz version 12.2.0 (20241103.1931)
 -->
<!-- Title: Data.HashFunction.SpookyHash.SpookyHashV1_Implementation.BlockTransformer.FinalizeHashValueInternal Pages: 1 -->
<svg width="911pt" height="235pt"
 viewBox="0.00 0.00 911.25 235.00" xmlns="http://www.w3.org/2000/svg" xmlns:xlink="http://www.w3.org/1999/xlink">
<g id="graph0" class="graph" transform="scale(1 1) rotate(0) translate(4 231)">
<title>Data.HashFunction.SpookyHash.SpookyHashV1_Implementation.BlockTransformer.FinalizeHashValueInternal</title>
<!-- Node1 -->
<g id="Node000001" class="node">
<title>Node1</title>
<g id="a_Node000001"><a xlink:title=" ">
<polygon fill="#999999" stroke="#666666" points="209.5,-106 0,-106 0,-62 209.5,-62 209.5,-106"/>
<text text-anchor="start" x="8" y="-92.5" font-family="Helvetica,sans-Serif" font-size="10.00">Data.HashFunction.Spooky</text>
<text text-anchor="start" x="8" y="-80.5" font-family="Helvetica,sans-Serif" font-size="10.00">Hash.SpookyHashV1_Implementation.</text>
<text text-anchor="middle" x="104.75" y="-68.5" font-family="Helvetica,sans-Serif" font-size="10.00">BlockTransformer.FinalizeHashValueInternal</text>
</a>
</g>
</g>
<!-- Node2 -->
<g id="Node000002" class="node">
<title>Node2</title>
<g id="a_Node000002"><a xlink:href="class_data_1_1_hash_function_1_1_spooky_hash_1_1_spooky_hash_v1___implementation_1_1_block_transformer.html#a9202e9c12c40cb7da4415cf8867b7d72" target="_top" xlink:title=" ">
<polygon fill="white" stroke="#666666" points="460.25,-168 245.5,-168 245.5,-124 460.25,-124 460.25,-168"/>
<text text-anchor="start" x="253.5" y="-154.5" font-family="Helvetica,sans-Serif" font-size="10.00">Data.HashFunction.Spooky</text>
<text text-anchor="start" x="253.5" y="-142.5" font-family="Helvetica,sans-Serif" font-size="10.00">Hash.SpookyHashV1_Implementation.</text>
<text text-anchor="middle" x="352.88" y="-130.5" font-family="Helvetica,sans-Serif" font-size="10.00">BlockTransformer.ComputeShortHashInternal</text>
</a>
</g>
</g>
<!-- Node1&#45;&gt;Node2 -->
<g id="edge1_Node000001_Node000002" class="edge">
<title>Node1&#45;&gt;Node2</title>
<g id="a_edge1_Node000001_Node000002"><a xlink:title=" ">
<path fill="none" stroke="#63b8ff" d="M194.95,-106.47C213.35,-111.11 232.85,-116.02 251.61,-120.74"/>
<polygon fill="#63b8ff" stroke="#63b8ff" points="250.54,-124.08 261.09,-123.13 252.25,-117.3 250.54,-124.08"/>
</a>
</g>
</g>
<!-- Node6 -->
<g id="Node000006" class="node">
<title>Node6</title>
<g id="a_Node000006"><a xlink:href="class_data_1_1_hash_function_1_1_spooky_hash_1_1_spooky_hash_v1___implementation_1_1_block_transformer.html#a96e78ae7106d29acfd2d41530b719f73" target="_top" xlink:title=" ">
<polygon fill="white" stroke="#666666" points="445.62,-106 260.12,-106 260.12,-62 445.62,-62 445.62,-106"/>
<text text-anchor="start" x="268.12" y="-92.5" font-family="Helvetica,sans-Serif" font-size="10.00">Data.HashFunction.Spooky</text>
<text text-anchor="start" x="268.12" y="-80.5" font-family="Helvetica,sans-Serif" font-size="10.00">Hash.SpookyHashV1_Implementation.</text>
<text text-anchor="middle" x="352.88" y="-68.5" font-family="Helvetica,sans-Serif" font-size="10.00">BlockTransformer.End</text>
</a>
</g>
</g>
<!-- Node1&#45;&gt;Node6 -->
<g id="edge6_Node000001_Node000006" class="edge">
<title>Node1&#45;&gt;Node6</title>
<g id="a_edge6_Node000001_Node000006"><a xlink:title=" ">
<path fill="none" stroke="#63b8ff" d="M209.77,-84C222.66,-84 235.83,-84 248.71,-84"/>
<polygon fill="#63b8ff" stroke="#63b8ff" points="248.41,-87.5 258.41,-84 248.41,-80.5 248.41,-87.5"/>
</a>
</g>
</g>
<!-- Node8 -->
<g id="Node000008" class="node">
<title>Node8</title>
<g id="a_Node000008"><a xlink:href="class_data_1_1_hash_function_1_1_spooky_hash_1_1_spooky_hash_v1___implementation_1_1_block_transformer.html#a1aa6026920857b8da5722a79124a1d4d" target="_top" xlink:title=" ">
<polygon fill="white" stroke="#666666" points="445.62,-44 260.12,-44 260.12,0 445.62,0 445.62,-44"/>
<text text-anchor="start" x="268.12" y="-30.5" font-family="Helvetica,sans-Serif" font-size="10.00">Data.HashFunction.Spooky</text>
<text text-anchor="start" x="268.12" y="-18.5" font-family="Helvetica,sans-Serif" font-size="10.00">Hash.SpookyHashV1_Implementation.</text>
<text text-anchor="middle" x="352.88" y="-6.5" font-family="Helvetica,sans-Serif" font-size="10.00">BlockTransformer.Mix</text>
</a>
</g>
</g>
<!-- Node1&#45;&gt;Node8 -->
<g id="edge9_Node000001_Node000008" class="edge">
<title>Node1&#45;&gt;Node8</title>
<g id="a_edge9_Node000001_Node000008"><a xlink:title=" ">
<path fill="none" stroke="#63b8ff" d="M194.95,-61.53C213.35,-56.89 232.85,-51.98 251.61,-47.26"/>
<polygon fill="#63b8ff" stroke="#63b8ff" points="252.25,-50.7 261.09,-44.87 250.54,-43.92 252.25,-50.7"/>
</a>
</g>
</g>
<!-- Node3 -->
<g id="Node000003" class="node">
<title>Node3</title>
<g id="a_Node000003"><a xlink:href="class_data_1_1_hash_function_1_1_spooky_hash_1_1_spooky_hash_v1___implementation_1_1_block_transformer.html#acb71513ac3701ef70a3ecbc860c77688" target="_top" xlink:title=" ">
<polygon fill="white" stroke="#666666" points="681.75,-227 496.25,-227 496.25,-183 681.75,-183 681.75,-227"/>
<text text-anchor="start" x="504.25" y="-213.5" font-family="Helvetica,sans-Serif" font-size="10.00">Data.HashFunction.Spooky</text>
<text text-anchor="start" x="504.25" y="-201.5" font-family="Helvetica,sans-Serif" font-size="10.00">Hash.SpookyHashV1_Implementation.</text>
<text text-anchor="middle" x="589" y="-189.5" font-family="Helvetica,sans-Serif" font-size="10.00">BlockTransformer.ShortEnd</text>
</a>
</g>
</g>
<!-- Node2&#45;&gt;Node3 -->
<g id="edge2_Node000002_Node000003" class="edge">
<title>Node2&#45;&gt;Node3</title>
<g id="a_edge2_Node000002_Node000003"><a xlink:title=" ">
<path fill="none" stroke="#63b8ff" d="M443.06,-168.47C457.82,-172.19 473.22,-176.07 488.22,-179.86"/>
<polygon fill="#63b8ff" stroke="#63b8ff" points="487.05,-183.17 497.6,-182.22 488.76,-176.38 487.05,-183.17"/>
</a>
</g>
</g>
<!-- Node5 -->
<g id="Node000005" class="node">
<title>Node5</title>
<g id="a_Node000005"><a xlink:href="class_data_1_1_hash_function_1_1_spooky_hash_1_1_spooky_hash_v1___implementation_1_1_block_transformer.html#a275bed4dccf1ab75e373cf69111c0a54" target="_top" xlink:title=" ">
<polygon fill="white" stroke="#666666" points="681.75,-165 496.25,-165 496.25,-121 681.75,-121 681.75,-165"/>
<text text-anchor="start" x="504.25" y="-151.5" font-family="Helvetica,sans-Serif" font-size="10.00">Data.HashFunction.Spooky</text>
<text text-anchor="start" x="504.25" y="-139.5" font-family="Helvetica,sans-Serif" font-size="10.00">Hash.SpookyHashV1_Implementation.</text>
<text text-anchor="middle" x="589" y="-127.5" font-family="Helvetica,sans-Serif" font-size="10.00">BlockTransformer.ShortMix</text>
</a>
</g>
</g>
<!-- Node2&#45;&gt;Node5 -->
<g id="edge4_Node000002_Node000005" class="edge">
<title>Node2&#45;&gt;Node5</title>
<g id="a_edge4_Node000002_Node000005"><a xlink:title=" ">
<path fill="none" stroke="#63b8ff" d="M460.66,-144.63C468.69,-144.53 476.79,-144.42 484.8,-144.32"/>
<polygon fill="#63b8ff" stroke="#63b8ff" points="484.59,-147.83 494.54,-144.2 484.5,-140.83 484.59,-147.83"/>
</a>
</g>
</g>
<!-- Node4 -->
<g id="Node000004" class="node">
<title>Node4</title>
<g id="a_Node000004"><a xlink:href="class_data_1_1_hash_function_1_1_spooky_hash_1_1_spooky_hash_v1___implementation_1_1_block_transformer.html#a9866bd63d99a4fb1ed7ce3d1a093f6e9" target="_top" xlink:title=" ">
<polygon fill="white" stroke="#666666" points="903.25,-134 717.75,-134 717.75,-90 903.25,-90 903.25,-134"/>
<text text-anchor="start" x="725.75" y="-120.5" font-family="Helvetica,sans-Serif" font-size="10.00">Data.HashFunction.Spooky</text>
<text text-anchor="start" x="725.75" y="-108.5" font-family="Helvetica,sans-Serif" font-size="10.00">Hash.SpookyHashV1_Implementation.</text>
<text text-anchor="middle" x="810.5" y="-96.5" font-family="Helvetica,sans-Serif" font-size="10.00">BlockTransformer.RotateLeft</text>
</a>
</g>
</g>
<!-- Node3&#45;&gt;Node4 -->
<g id="edge3_Node000003_Node000004" class="edge">
<title>Node3&#45;&gt;Node4</title>
<g id="a_edge3_Node000003_Node000004"><a xlink:title=" ">
<path fill="none" stroke="#63b8ff" d="M659.48,-182.56C667.05,-179.81 674.59,-176.93 681.75,-174 706.78,-163.75 733.81,-150.9 756.54,-139.56"/>
<polygon fill="#63b8ff" stroke="#63b8ff" points="757.94,-142.77 765.3,-135.15 754.8,-136.52 757.94,-142.77"/>
</a>
</g>
</g>
<!-- Node5&#45;&gt;Node4 -->
<g id="edge5_Node000005_Node000004" class="edge">
<title>Node5&#45;&gt;Node4</title>
<g id="a_edge5_Node000005_Node000004"><a xlink:title=" ">
<path fill="none" stroke="#63b8ff" d="M682.13,-129.99C690.03,-128.87 698.05,-127.74 706.02,-126.61"/>
<polygon fill="#63b8ff" stroke="#63b8ff" points="706.34,-130.1 715.75,-125.24 705.36,-123.17 706.34,-130.1"/>
</a>
</g>
</g>
<!-- Node7 -->
<g id="Node000007" class="node">
<title>Node7</title>
<g id="a_Node000007"><a xlink:href="class_data_1_1_hash_function_1_1_spooky_hash_1_1_spooky_hash_v1___implementation_1_1_block_transformer.html#afa7a13d76791dc254a526d8aa1eccc30" target="_top" xlink:title=" ">
<polygon fill="white" stroke="#666666" points="681.75,-103 496.25,-103 496.25,-59 681.75,-59 681.75,-103"/>
<text text-anchor="start" x="504.25" y="-89.5" font-family="Helvetica,sans-Serif" font-size="10.00">Data.HashFunction.Spooky</text>
<text text-anchor="start" x="504.25" y="-77.5" font-family="Helvetica,sans-Serif" font-size="10.00">Hash.SpookyHashV1_Implementation.</text>
<text text-anchor="middle" x="589" y="-65.5" font-family="Helvetica,sans-Serif" font-size="10.00">BlockTransformer.EndPartial</text>
</a>
</g>
</g>
<!-- Node6&#45;&gt;Node7 -->
<g id="edge7_Node000006_Node000007" class="edge">
<title>Node6&#45;&gt;Node7</title>
<g id="a_edge7_Node000006_Node000007"><a xlink:title=" ">
<path fill="none" stroke="#63b8ff" d="M446.07,-82.82C458.74,-82.66 471.82,-82.49 484.67,-82.32"/>
<polygon fill="#63b8ff" stroke="#63b8ff" points="484.42,-85.83 494.37,-82.2 484.33,-78.83 484.42,-85.83"/>
</a>
</g>
</g>
<!-- Node7&#45;&gt;Node4 -->
<g id="edge8_Node000007_Node000004" class="edge">
<title>Node7&#45;&gt;Node4</title>
<g id="a_edge8_Node000007_Node000004"><a xlink:title=" ">
<path fill="none" stroke="#63b8ff" d="M682.13,-94.01C690.03,-95.13 698.05,-96.26 706.02,-97.39"/>
<polygon fill="#63b8ff" stroke="#63b8ff" points="705.36,-100.83 715.75,-98.76 706.34,-93.9 705.36,-100.83"/>
</a>
</g>
</g>
<!-- Node8&#45;&gt;Node4 -->
<g id="edge10_Node000008_Node000004" class="edge">
<title>Node8&#45;&gt;Node4</title>
<g id="a_edge10_Node000008_Node000004"><a xlink:title=" ">
<path fill="none" stroke="#63b8ff" d="M445.9,-20.94C512.51,-22.31 604.08,-28.63 681.75,-50 709.81,-57.72 739.15,-71.5 762.63,-84.11"/>
<polygon fill="#63b8ff" stroke="#63b8ff" points="760.86,-87.14 771.31,-88.88 764.23,-81 760.86,-87.14"/>
</a>
</g>
</g>
</g>
</svg>
