<?xml version="1.0" encoding="UTF-8" standalone="no"?>
<!DOCTYPE svg PUBLIC "-//W3C//DTD SVG 1.1//EN"
 "http://www.w3.org/Graphics/SVG/1.1/DTD/svg11.dtd">
<!-- Generated by graphviz version 12.2.0 (20241103.1931)
 -->
<!-- Title: Data.HashFunction.CRC.CRC_Implementation.BlockTransformer.ReflectBits Pages: 1 -->
<!--zoomable 130 -->

<svg id="main" version="1.1" xmlns="http://www.w3.org/2000/svg" xmlns:xlink="http://www.w3.org/1999/xlink" xml:space="preserve" onload="init(evt)">

<style type="text/css"><![CDATA[
.node, .edge {opacity: 0.7;}
.node.selected, .edge.selected {opacity: 1;}
.edge:hover path { stroke: red; }
.edge:hover polygon { stroke: red; fill: red; }
]]></style>

<defs>
  <circle id="rim" cx="0" cy="0" r="7"/>
  <circle id="rim2" cx="0" cy="0" r="3.5"/>
  <g id="zoomPlus">
    <use xlink:href="#rim" fill="#404040"><set attributeName="fill" to="#808080" begin="zoomplus.mouseover" end="zoomplus.mouseout"/></use>
    <path d="M-4,0h8M0,-4v8" fill="none" stroke="white" stroke-width="1.5" pointer-events="none"/>
  </g>
  <g id="zoomMin">
    <use xlink:href="#rim" fill="#404040"><set attributeName="fill" to="#808080" begin="zoomminus.mouseover" end="zoomminus.mouseout"/></use>
    <path d="M-4,0h8" fill="none" stroke="white" stroke-width="1.5" pointer-events="none"/>
  </g>
  <g id="arrowUp" transform="translate(30 24)">
    <use xlink:href="#rim"/>
    <path pointer-events="none" fill="none" stroke="white" stroke-width="1.5" d="M0,-3.0v7 M-2.5,-0.5L0,-3.0L2.5,-0.5"/>
  </g>
  <g id="arrowRight" transform="rotate(90) translate(36 -43)">
    <use xlink:href="#rim"/>
    <path pointer-events="none" fill="none" stroke="white" stroke-width="1.5" d="M0,-3.0v7 M-2.5,-0.5L0,-3.0L2.5,-0.5"/>
  </g>
  <g id="arrowDown" transform="rotate(180) translate(-30 -48)">
    <use xlink:href="#rim"/>
    <path pointer-events="none" fill="none" stroke="white" stroke-width="1.5" d="M0,-3.0v7 M-2.5,-0.5L0,-3.0L2.5,-0.5"/>
  </g>
  <g id="arrowLeft" transform="rotate(270) translate(-36 17)">
    <use xlink:href="#rim"/>
    <path pointer-events="none" fill="none" stroke="white" stroke-width="1.5" d="M0,-3.0v7 M-2.5,-0.5L0,-3.0L2.5,-0.5"/>
  </g>
  <g id="resetDef">
    <use xlink:href="#rim2" fill="#404040"><set attributeName="fill" to="#808080" begin="reset.mouseover" end="reset.mouseout"/></use>
  </g>
</defs>
<script type="application/ecmascript">
var viewWidth = 801;
var viewHeight = 130;
var sectionId = 'dynsection-8';
</script>
<script type="application/ecmascript" xlink:href="svg.min.js"/>
<svg id="graph" class="graph">
<g id="viewport">
<title>Data.HashFunction.CRC.CRC_Implementation.BlockTransformer.ReflectBits</title>
<!-- Node1 -->
<g id="Node000001" class="node">
<title>Node1</title>
<g id="a_Node000001"><a xlink:title=" ">
<polygon fill="#999999" stroke="#666666" points="793,-106 621.75,-106 621.75,-62 793,-62 793,-106"/>
<text text-anchor="start" x="629.75" y="-92.5" font-family="Helvetica,sans-Serif" font-size="10.00">Data.HashFunction.CRC.CRC</text>
<text text-anchor="start" x="629.75" y="-80.5" font-family="Helvetica,sans-Serif" font-size="10.00">_Implementation.BlockTransformer.</text>
<text text-anchor="middle" x="707.38" y="-68.5" font-family="Helvetica,sans-Serif" font-size="10.00">ReflectBits</text>
</a>
</g>
</g>
<!-- Node2 -->
<g id="Node000002" class="node">
<title>Node2</title>
<g id="a_Node000002"><a xlink:href="class_data_1_1_hash_function_1_1_c_r_c_1_1_c_r_c___implementation_1_1_block_transformer.html#a40a89b216b573712d36a3fb042838ce0" target="_top" xlink:title=" ">
<polygon fill="white" stroke="#666666" points="171.25,-100 0,-100 0,-56 171.25,-56 171.25,-100"/>
<text text-anchor="start" x="8" y="-86.5" font-family="Helvetica,sans-Serif" font-size="10.00">Data.HashFunction.CRC.CRC</text>
<text text-anchor="start" x="8" y="-74.5" font-family="Helvetica,sans-Serif" font-size="10.00">_Implementation.BlockTransformer.</text>
<text text-anchor="middle" x="85.62" y="-62.5" font-family="Helvetica,sans-Serif" font-size="10.00">BlockTransformer</text>
</a>
</g>
</g>
<!-- Node1&#45;&gt;Node2 -->
<g id="edge1_Node000001_Node000002" class="edge">
<title>Node1&#45;&gt;Node2</title>
<g id="a_edge1_Node000001_Node000002"><a xlink:title=" ">
<path fill="none" stroke="#63b8ff" d="M620.1,-108.95C608.63,-111.45 596.97,-113.58 585.75,-115 440.93,-133.31 271.23,-111.65 171.67,-94.6"/>
<polygon fill="#63b8ff" stroke="#63b8ff" points="620.56,-112.44 629.53,-106.8 619.01,-105.61 620.56,-112.44"/>
</a>
</g>
</g>
<!-- Node3 -->
<g id="Node000003" class="node">
<title>Node3</title>
<g id="a_Node000003"><a xlink:href="class_data_1_1_hash_function_1_1_c_r_c_1_1_c_r_c___implementation_1_1_block_transformer.html#a6acc654bed023491dcbf8b6865dba204" target="_top" xlink:title=" ">
<polygon fill="white" stroke="#666666" points="585.75,-106 414.5,-106 414.5,-62 585.75,-62 585.75,-106"/>
<text text-anchor="start" x="422.5" y="-92.5" font-family="Helvetica,sans-Serif" font-size="10.00">Data.HashFunction.CRC.CRC</text>
<text text-anchor="start" x="422.5" y="-80.5" font-family="Helvetica,sans-Serif" font-size="10.00">_Implementation.BlockTransformer.</text>
<text text-anchor="middle" x="500.12" y="-68.5" font-family="Helvetica,sans-Serif" font-size="10.00">FinalizeHashValueInternal</text>
</a>
</g>
</g>
<!-- Node1&#45;&gt;Node3 -->
<g id="edge2_Node000001_Node000003" class="edge">
<title>Node1&#45;&gt;Node3</title>
<g id="a_edge2_Node000001_Node000003"><a xlink:title=" ">
<path fill="none" stroke="#63b8ff" d="M610.1,-84C602.06,-84 593.97,-84 586.03,-84"/>
<polygon fill="#63b8ff" stroke="#63b8ff" points="609.9,-87.5 619.9,-84 609.9,-80.5 609.9,-87.5"/>
</a>
</g>
</g>
<!-- Node4 -->
<g id="Node000004" class="node">
<title>Node4</title>
<g id="a_Node000004"><a xlink:href="class_data_1_1_hash_function_1_1_c_r_c_1_1_c_r_c___implementation_1_1_block_transformer.html#ae42bec7a856b84c5e853176bc58da19a" target="_top" xlink:title=" ">
<polygon fill="white" stroke="#666666" points="585.75,-44 414.5,-44 414.5,0 585.75,0 585.75,-44"/>
<text text-anchor="start" x="422.5" y="-30.5" font-family="Helvetica,sans-Serif" font-size="10.00">Data.HashFunction.CRC.CRC</text>
<text text-anchor="start" x="422.5" y="-18.5" font-family="Helvetica,sans-Serif" font-size="10.00">_Implementation.BlockTransformer.</text>
<text text-anchor="middle" x="500.12" y="-6.5" font-family="Helvetica,sans-Serif" font-size="10.00">GetDataDivisionTableInternal</text>
</a>
</g>
</g>
<!-- Node1&#45;&gt;Node4 -->
<g id="edge3_Node000001_Node000004" class="edge">
<title>Node1&#45;&gt;Node4</title>
<g id="a_edge3_Node000001_Node000004"><a xlink:title=" ">
<path fill="none" stroke="#63b8ff" d="M621.1,-58.24C606,-53.68 590.38,-48.96 575.61,-44.5"/>
<polygon fill="#63b8ff" stroke="#63b8ff" points="619.95,-61.55 630.54,-61.09 621.98,-54.85 619.95,-61.55"/>
</a>
</g>
</g>
<!-- Node5 -->
<g id="Node000005" class="node">
<title>Node5</title>
<g id="a_Node000005"><a xlink:href="class_data_1_1_hash_function_1_1_c_r_c_1_1_c_r_c___implementation_1_1_block_transformer.html#a80d299434d3e0462cf71afae80448f7f" target="_top" xlink:title="Calculates the data&#45;division table for the CRC parameters provided.">
<polygon fill="white" stroke="#666666" points="378.5,-75 207.25,-75 207.25,-31 378.5,-31 378.5,-75"/>
<text text-anchor="start" x="215.25" y="-61.5" font-family="Helvetica,sans-Serif" font-size="10.00">Data.HashFunction.CRC.CRC</text>
<text text-anchor="start" x="215.25" y="-49.5" font-family="Helvetica,sans-Serif" font-size="10.00">_Implementation.BlockTransformer.</text>
<text text-anchor="middle" x="292.88" y="-37.5" font-family="Helvetica,sans-Serif" font-size="10.00">GetDataDivisionTable</text>
</a>
</g>
</g>
<!-- Node4&#45;&gt;Node5 -->
<g id="edge4_Node000004_Node000005" class="edge">
<title>Node4&#45;&gt;Node5</title>
<g id="a_edge4_Node000004_Node000005"><a xlink:title=" ">
<path fill="none" stroke="#63b8ff" d="M402.85,-36.54C394.81,-37.75 386.72,-38.98 378.78,-40.18"/>
<polygon fill="#63b8ff" stroke="#63b8ff" points="403.3,-40.01 412.66,-35.06 402.25,-33.09 403.3,-40.01"/>
</a>
</g>
</g>
<!-- Node5&#45;&gt;Node2 -->
<g id="edge5_Node000005_Node000002" class="edge">
<title>Node5&#45;&gt;Node2</title>
<g id="a_edge5_Node000005_Node000002"><a xlink:title=" ">
<path fill="none" stroke="#63b8ff" d="M195.6,-64.73C187.56,-65.71 179.47,-66.69 171.53,-67.66"/>
<polygon fill="#63b8ff" stroke="#63b8ff" points="195.9,-68.22 205.41,-63.53 195.06,-61.27 195.9,-68.22"/>
</a>
</g>
</g>
</g>
</svg>

<g id="navigator" transform="translate(0 0)" fill="#404254">
  <rect fill="#f2f5e9" fill-opacity="0.5" stroke="#606060" stroke-width=".5" x="0" y="0" width="60" height="60"/>
  <use id="zoomplus" xlink:href="#zoomPlus" x="17" y="9" onmousedown="handleZoom(evt,'in')"/>
  <use id="zoomminus" xlink:href="#zoomMin" x="42" y="9" onmousedown="handleZoom(evt,'out')"/>
  <use id="reset" xlink:href="#resetDef" x="30" y="36" onmousedown="handleReset()"/>
   <use id="arrowup" xlink:href="#arrowUp" x="0" y="0" onmousedown="handlePan(0,-1)"/>
  <use id="arrowright" xlink:href="#arrowRight" x="0" y="0" onmousedown="handlePan(1,0)"/>
  <use id="arrowdown" xlink:href="#arrowDown" x="0" y="0" onmousedown="handlePan(0,1)"/>
  <use id="arrowleft" xlink:href="#arrowLeft" x="0" y="0" onmousedown="handlePan(-1,0)"/>
</g>
<svg viewBox="0 0 15 15" width="100%" height="30px" preserveAspectRatio="xMaxYMin meet">
 <g id="arrow_out" transform="scale(0.3 0.3)">
  <a xlink:href="class_data_1_1_hash_function_1_1_c_r_c_1_1_c_r_c___implementation_1_1_block_transformer_a2734169c12bfc8a3b1fb07a1f0fec0ab_icgraph_org.svg" target="_base">
   <rect id="button" ry="5" rx="5" y="6" x="6" height="38" width="38"
        fill="#f2f5e9" fill-opacity="0.5" stroke="#606060" stroke-width="1.0"/>
   <path id="arrow"
     d="M 11.500037,31.436501 C 11.940474,20.09759 22.043105,11.32322 32.158766,21.979434 L 37.068811,17.246167 C 37.068811,17.246167 37.088388,32 37.088388,32 L 22.160133,31.978069 C 22.160133,31.978069 26.997745,27.140456 26.997745,27.140456 C 18.528582,18.264221 13.291696,25.230495 11.500037,31.436501 z"
     style="fill:#404040;"/>
  </a>
 </g>
</svg>

<style type='text/css'>
<![CDATA[
[data-mouse-over-selected='false'] { opacity: 0.7; }
[data-mouse-over-selected='true']  { opacity: 1.0; }
]]>
</style>
<script type="application/ecmascript"><![CDATA[
document.addEventListener('DOMContentLoaded', (event) => {
  highlightEdges();
  highlightAdjacentNodes();
});
]]></script>
</svg>
