<?xml version="1.0" encoding="UTF-8" standalone="no"?>
<!DOCTYPE svg PUBLIC "-//W3C//DTD SVG 1.1//EN"
 "http://www.w3.org/Graphics/SVG/1.1/DTD/svg11.dtd">
<!-- Generated by graphviz version 12.2.0 (20241103.1931)
 -->
<!-- Title: Data.HashFunction.Blake2.Blake2B_Implementation Pages: 1 -->
<svg width="385pt" height="234pt"
 viewBox="0.00 0.00 384.75 234.00" xmlns="http://www.w3.org/2000/svg" xmlns:xlink="http://www.w3.org/1999/xlink">
<g id="graph0" class="graph" transform="scale(1 1) rotate(0) translate(4 230)">
<title>Data.HashFunction.Blake2.Blake2B_Implementation</title>
<!-- Node1 -->
<g id="Node000001" class="node">
<title>Node1</title>
<g id="a_Node000001"><a xlink:title=" ">
<polygon fill="#999999" stroke="#666666" points="262.75,-32 126,-32 126,0 262.75,0 262.75,-32"/>
<text text-anchor="start" x="134" y="-18.5" font-family="Helvetica,sans-Serif" font-size="10.00">Data.HashFunction.Blake2.</text>
<text text-anchor="middle" x="194.38" y="-6.5" font-family="Helvetica,sans-Serif" font-size="10.00">Blake2B_Implementation</text>
</a>
</g>
</g>
<!-- Node2 -->
<g id="Node000002" class="node">
<title>Node2</title>
<g id="a_Node000002"><a xlink:href="class_data_1_1_hash_function_1_1_core_1_1_streamable_hash_function_base.html" target="_top" xlink:title="Common interface to non&#45;cryptographic hash functions that can be computed over a stream of data witho...">
<polygon fill="white" stroke="#666666" points="148.75,-106 0,-106 0,-86 148.75,-86 148.75,-106"/>
<text text-anchor="middle" x="74.38" y="-92.5" font-family="Helvetica,sans-Serif" font-size="10.00">StreamableHashFunctionBase</text>
</a>
</g>
</g>
<!-- Node2&#45;&gt;Node1 -->
<g id="edge1_Node000001_Node000002" class="edge">
<title>Node2&#45;&gt;Node1</title>
<g id="a_edge1_Node000001_Node000002"><a xlink:title=" ">
<path fill="none" stroke="#63b8ff" d="M98.08,-79.59C119.1,-65.93 149.63,-46.08 170.66,-32.42"/>
<polygon fill="#63b8ff" stroke="#63b8ff" points="96.36,-76.54 89.88,-84.92 100.17,-82.41 96.36,-76.54"/>
</a>
</g>
</g>
<!-- Node3 -->
<g id="Node000003" class="node">
<title>Node3</title>
<g id="a_Node000003"><a xlink:href="class_data_1_1_hash_function_1_1_core_1_1_hash_function_base.html" target="_top" xlink:title="Abstract implementation of an IHashFunction. Provides convenience checks and ensures a default HashSi...">
<polygon fill="white" stroke="#666666" points="112,-169 12.75,-169 12.75,-149 112,-149 112,-169"/>
<text text-anchor="middle" x="62.38" y="-155.5" font-family="Helvetica,sans-Serif" font-size="10.00">HashFunctionBase</text>
</a>
</g>
</g>
<!-- Node3&#45;&gt;Node2 -->
<g id="edge2_Node000002_Node000003" class="edge">
<title>Node3&#45;&gt;Node2</title>
<g id="a_edge2_Node000002_Node000003"><a xlink:title=" ">
<path fill="none" stroke="#63b8ff" d="M66.4,-137.53C68.48,-126.98 70.91,-114.62 72.54,-106.35"/>
<polygon fill="#63b8ff" stroke="#63b8ff" points="62.99,-136.76 64.49,-147.25 69.85,-138.11 62.99,-136.76"/>
</a>
</g>
</g>
<!-- Node4 -->
<g id="Node000004" class="node">
<title>Node4</title>
<g id="a_Node000004"><a xlink:href="interface_data_1_1_hash_function_1_1_i_hash_function.html" target="_top" xlink:title="Common interface to non&#45;cryptographic hash functions.">
<polygon fill="white" stroke="#666666" points="167.25,-226 87.5,-226 87.5,-206 167.25,-206 167.25,-226"/>
<text text-anchor="middle" x="127.38" y="-212.5" font-family="Helvetica,sans-Serif" font-size="10.00">IHashFunction</text>
</a>
</g>
</g>
<!-- Node4&#45;&gt;Node3 -->
<g id="edge3_Node000003_Node000004" class="edge">
<title>Node4&#45;&gt;Node3</title>
<g id="a_edge3_Node000003_Node000004"><a xlink:title=" ">
<path fill="none" stroke="#63b8ff" d="M107.59,-198.26C96.3,-188.71 82.58,-177.1 73.24,-169.19"/>
<polygon fill="#63b8ff" stroke="#63b8ff" points="105.3,-200.9 115.19,-204.69 109.82,-195.56 105.3,-200.9"/>
</a>
</g>
</g>
<!-- Node5 -->
<g id="Node000005" class="node">
<title>Node5</title>
<g id="a_Node000005"><a xlink:href="interface_data_1_1_hash_function_1_1_i_streamable_hash_function.html" target="_top" xlink:title="Common interface to non&#45;cryptographic hash functions that can be computed over a stream of data witho...">
<polygon fill="white" stroke="#666666" points="259,-169 129.75,-169 129.75,-149 259,-149 259,-169"/>
<text text-anchor="middle" x="194.38" y="-155.5" font-family="Helvetica,sans-Serif" font-size="10.00">IStreamableHashFunction</text>
</a>
</g>
</g>
<!-- Node4&#45;&gt;Node5 -->
<g id="edge5_Node000005_Node000004" class="edge">
<title>Node4&#45;&gt;Node5</title>
<g id="a_edge5_Node000005_Node000004"><a xlink:title=" ">
<path fill="none" stroke="#63b8ff" d="M147.42,-198.54C159.12,-188.94 173.45,-177.18 183.18,-169.19"/>
<polygon fill="#63b8ff" stroke="#63b8ff" points="145.42,-195.66 139.91,-204.71 149.86,-201.07 145.42,-195.66"/>
</a>
</g>
</g>
<!-- Node5&#45;&gt;Node2 -->
<g id="edge4_Node000002_Node000005" class="edge">
<title>Node5&#45;&gt;Node2</title>
<g id="a_edge4_Node000002_Node000005"><a xlink:title=" ">
<path fill="none" stroke="#63b8ff" d="M165.83,-143.49C143.16,-131.96 112.14,-116.2 92.69,-106.31"/>
<polygon fill="#63b8ff" stroke="#63b8ff" points="164.04,-146.51 174.54,-147.92 167.21,-140.27 164.04,-146.51"/>
</a>
</g>
</g>
<!-- Node6 -->
<g id="Node000006" class="node">
<title>Node6</title>
<g id="a_Node000006"><a xlink:href="interface_data_1_1_hash_function_1_1_blake2_1_1_i_blake2_b.html" target="_top" xlink:title="Implementation of BLAKE2b as specified at https://blake2.net/. Implementations are expected to suppor...">
<polygon fill="white" stroke="#666666" points="222.25,-106 166.5,-106 166.5,-86 222.25,-86 222.25,-106"/>
<text text-anchor="middle" x="194.38" y="-92.5" font-family="Helvetica,sans-Serif" font-size="10.00">IBlake2B</text>
</a>
</g>
</g>
<!-- Node5&#45;&gt;Node6 -->
<g id="edge7_Node000006_Node000005" class="edge">
<title>Node5&#45;&gt;Node6</title>
<g id="a_edge7_Node000006_Node000005"><a xlink:title=" ">
<path fill="none" stroke="#63b8ff" d="M194.38,-137.53C194.38,-126.98 194.38,-114.62 194.38,-106.35"/>
<polygon fill="#63b8ff" stroke="#63b8ff" points="190.88,-137.22 194.38,-147.22 197.88,-137.22 190.88,-137.22"/>
</a>
</g>
</g>
<!-- Node6&#45;&gt;Node1 -->
<g id="edge6_Node000001_Node000006" class="edge">
<title>Node6&#45;&gt;Node1</title>
<g id="a_edge6_Node000001_Node000006"><a xlink:title=" ">
<path fill="none" stroke="#63b8ff" d="M194.38,-74.51C194.38,-61.32 194.38,-44.47 194.38,-32.42"/>
<polygon fill="#63b8ff" stroke="#63b8ff" points="190.88,-74.23 194.38,-84.23 197.88,-74.23 190.88,-74.23"/>
</a>
</g>
</g>
<!-- Node7 -->
<g id="Node000007" class="node">
<title>Node7</title>
<g id="a_Node000007"><a xlink:href="interface_data_1_1_hash_function_1_1_blake2_1_1_i_blake2_b_config.html" target="_top" xlink:title="Defines a configuration for a IBlake2B implementation.">
<polygon fill="white" stroke="#666666" points="376.75,-112 240,-112 240,-80 376.75,-80 376.75,-112"/>
<text text-anchor="start" x="248" y="-98.5" font-family="Helvetica,sans-Serif" font-size="10.00">Data.HashFunction.Blake2.</text>
<text text-anchor="middle" x="308.38" y="-86.5" font-family="Helvetica,sans-Serif" font-size="10.00">IBlake2BConfig</text>
</a>
</g>
</g>
<!-- Node7&#45;&gt;Node1 -->
<g id="edge8_Node000001_Node000007" class="edge">
<title>Node7&#45;&gt;Node1</title>
<g id="a_edge8_Node000001_Node000007"><a xlink:title=" ">
<path fill="none" stroke="#9a32cd" stroke-dasharray="5,2" d="M276.41,-73.13C257.44,-60.15 233.86,-44.01 216.85,-32.38"/>
<polygon fill="#9a32cd" stroke="#9a32cd" points="274.37,-75.98 284.6,-78.74 278.33,-70.2 274.37,-75.98"/>
</a>
</g>
<text text-anchor="middle" x="275.45" y="-52.5" font-family="Helvetica,sans-Serif" font-size="10.00" fill="grey"> _config</text>
</g>
</g>
</svg>
