<?xml version="1.0" encoding="UTF-8" standalone="no"?>
<!DOCTYPE svg PUBLIC "-//W3C//DTD SVG 1.1//EN"
 "http://www.w3.org/Graphics/SVG/1.1/DTD/svg11.dtd">
<!-- Generated by graphviz version 12.2.0 (20241103.1931)
 -->
<!-- Title: Data.HashFunction.BuzHash.BuzHashConfig.Clone Pages: 1 -->
<svg width="375pt" height="114pt"
 viewBox="0.00 0.00 375.25 114.00" xmlns="http://www.w3.org/2000/svg" xmlns:xlink="http://www.w3.org/1999/xlink">
<g id="graph0" class="graph" transform="scale(1 1) rotate(0) translate(4 110)">
<title>Data.HashFunction.BuzHash.BuzHashConfig.Clone</title>
<!-- Node1 -->
<g id="Node000001" class="node">
<title>Node1</title>
<g id="a_Node000001"><a xlink:title="Makes a deep clone of current instance.">
<polygon fill="#999999" stroke="#666666" points="367.25,-69 220,-69 220,-37 367.25,-37 367.25,-69"/>
<text text-anchor="start" x="228" y="-55.5" font-family="Helvetica,sans-Serif" font-size="10.00">Data.HashFunction.BuzHash.</text>
<text text-anchor="middle" x="293.62" y="-43.5" font-family="Helvetica,sans-Serif" font-size="10.00">BuzHashConfig.Clone</text>
</a>
</g>
</g>
<!-- Node2 -->
<g id="Node000002" class="node">
<title>Node2</title>
<g id="a_Node000002"><a xlink:href="class_data_1_1_hash_function_1_1_test_1_1_buz_hash_1_1_buz_hash_config___tests.html#a6cf6e89f8973f00b6a256eed48ec9c7b" target="_top" xlink:title=" ">
<polygon fill="white" stroke="#666666" points="184,-106 0,-106 0,-62 184,-62 184,-106"/>
<text text-anchor="start" x="8" y="-92.5" font-family="Helvetica,sans-Serif" font-size="10.00">Data.HashFunction.Test.Buz</text>
<text text-anchor="start" x="8" y="-80.5" font-family="Helvetica,sans-Serif" font-size="10.00">Hash.BuzHashConfig_Tests.BuzHash</text>
<text text-anchor="middle" x="92" y="-68.5" font-family="Helvetica,sans-Serif" font-size="10.00">Config_Clone_WithNullArrays_Works</text>
</a>
</g>
</g>
<!-- Node1&#45;&gt;Node2 -->
<g id="edge1_Node000001_Node000002" class="edge">
<title>Node1&#45;&gt;Node2</title>
<g id="a_edge1_Node000001_Node000002"><a xlink:title=" ">
<path fill="none" stroke="#63b8ff" d="M208.55,-66.06C200.58,-67.29 192.46,-68.55 184.43,-69.8"/>
<polygon fill="#63b8ff" stroke="#63b8ff" points="208.87,-69.55 218.21,-64.56 207.79,-62.63 208.87,-69.55"/>
</a>
</g>
</g>
<!-- Node3 -->
<g id="Node000003" class="node">
<title>Node3</title>
<g id="a_Node000003"><a xlink:href="class_data_1_1_hash_function_1_1_test_1_1_buz_hash_1_1_buz_hash_config___tests.html#a13dbf8633f7257ed36e8405aa747f510" target="_top" xlink:title=" ">
<polygon fill="white" stroke="#666666" points="184,-44 0,-44 0,0 184,0 184,-44"/>
<text text-anchor="start" x="8" y="-30.5" font-family="Helvetica,sans-Serif" font-size="10.00">Data.HashFunction.Test.Buz</text>
<text text-anchor="start" x="8" y="-18.5" font-family="Helvetica,sans-Serif" font-size="10.00">Hash.BuzHashConfig_Tests.BuzHash</text>
<text text-anchor="middle" x="92" y="-6.5" font-family="Helvetica,sans-Serif" font-size="10.00">Config_Clone_Works</text>
</a>
</g>
</g>
<!-- Node1&#45;&gt;Node3 -->
<g id="edge2_Node000001_Node000003" class="edge">
<title>Node1&#45;&gt;Node3</title>
<g id="a_edge2_Node000001_Node000003"><a xlink:title=" ">
<path fill="none" stroke="#63b8ff" d="M208.55,-39.94C200.58,-38.71 192.46,-37.45 184.43,-36.2"/>
<polygon fill="#63b8ff" stroke="#63b8ff" points="207.79,-43.37 218.21,-41.44 208.87,-36.45 207.79,-43.37"/>
</a>
</g>
</g>
</g>
</svg>
