<?xml version="1.0" encoding="UTF-8" standalone="no"?>
<!DOCTYPE svg PUBLIC "-//W3C//DTD SVG 1.1//EN"
 "http://www.w3.org/Graphics/SVG/1.1/DTD/svg11.dtd">
<!-- Generated by graphviz version 12.2.0 (20241103.1931)
 -->
<!-- Title: Data.HashFunction.Core.StreamableHashFunctionBase Pages: 1 -->
<svg width="254pt" height="152pt"
 viewBox="0.00 0.00 254.25 152.00" xmlns="http://www.w3.org/2000/svg" xmlns:xlink="http://www.w3.org/1999/xlink">
<g id="graph0" class="graph" transform="scale(1 1) rotate(0) translate(4 148)">
<title>Data.HashFunction.Core.StreamableHashFunctionBase</title>
<!-- Node1 -->
<g id="Node000001" class="node">
<title>Node1</title>
<g id="a_Node000001"><a xlink:title="Common interface to non&#45;cryptographic hash functions that can be computed over a stream of data witho...">
<polygon fill="#999999" stroke="#666666" points="204.25,-32 27,-32 27,0 204.25,0 204.25,-32"/>
<text text-anchor="start" x="35" y="-18.5" font-family="Helvetica,sans-Serif" font-size="10.00">Data.HashFunction.Core.Streamable</text>
<text text-anchor="middle" x="115.62" y="-6.5" font-family="Helvetica,sans-Serif" font-size="10.00">HashFunctionBase</text>
</a>
</g>
</g>
<!-- Node2 -->
<g id="Node000002" class="node">
<title>Node2</title>
<g id="a_Node000002"><a xlink:href="class_data_1_1_hash_function_1_1_core_1_1_hash_function_base.html" target="_top" xlink:title="Abstract implementation of an IHashFunction. Provides convenience checks and ensures a default HashSi...">
<polygon fill="white" stroke="#666666" points="99.25,-88 0,-88 0,-68 99.25,-68 99.25,-88"/>
<text text-anchor="middle" x="49.62" y="-74.5" font-family="Helvetica,sans-Serif" font-size="10.00">HashFunctionBase</text>
</a>
</g>
</g>
<!-- Node2&#45;&gt;Node1 -->
<g id="edge1_Node000001_Node000002" class="edge">
<title>Node2&#45;&gt;Node1</title>
<g id="a_edge1_Node000001_Node000002"><a xlink:title=" ">
<path fill="none" stroke="#63b8ff" d="M68.35,-59.98C77.9,-51.29 89.43,-40.81 98.71,-32.37"/>
<polygon fill="#63b8ff" stroke="#63b8ff" points="66.1,-57.29 61.06,-66.61 70.81,-62.47 66.1,-57.29"/>
</a>
</g>
</g>
<!-- Node3 -->
<g id="Node000003" class="node">
<title>Node3</title>
<g id="a_Node000003"><a xlink:href="interface_data_1_1_hash_function_1_1_i_hash_function.html" target="_top" xlink:title="Common interface to non&#45;cryptographic hash functions.">
<polygon fill="white" stroke="#666666" points="155.5,-144 75.75,-144 75.75,-124 155.5,-124 155.5,-144"/>
<text text-anchor="middle" x="115.62" y="-130.5" font-family="Helvetica,sans-Serif" font-size="10.00">IHashFunction</text>
</a>
</g>
</g>
<!-- Node3&#45;&gt;Node2 -->
<g id="edge2_Node000002_Node000003" class="edge">
<title>Node3&#45;&gt;Node2</title>
<g id="a_edge2_Node000002_Node000003"><a xlink:title=" ">
<path fill="none" stroke="#63b8ff" d="M95.34,-116.4C84.05,-107.17 70.41,-96.01 60.99,-88.3"/>
<polygon fill="#63b8ff" stroke="#63b8ff" points="93,-119.01 102.96,-122.64 97.43,-113.59 93,-119.01"/>
</a>
</g>
</g>
<!-- Node4 -->
<g id="Node000004" class="node">
<title>Node4</title>
<g id="a_Node000004"><a xlink:href="interface_data_1_1_hash_function_1_1_i_streamable_hash_function.html" target="_top" xlink:title="Common interface to non&#45;cryptographic hash functions that can be computed over a stream of data witho...">
<polygon fill="white" stroke="#666666" points="246.25,-88 117,-88 117,-68 246.25,-68 246.25,-88"/>
<text text-anchor="middle" x="181.62" y="-74.5" font-family="Helvetica,sans-Serif" font-size="10.00">IStreamableHashFunction</text>
</a>
</g>
</g>
<!-- Node3&#45;&gt;Node4 -->
<g id="edge4_Node000004_Node000003" class="edge">
<title>Node3&#45;&gt;Node4</title>
<g id="a_edge4_Node000004_Node000003"><a xlink:title=" ">
<path fill="none" stroke="#63b8ff" d="M135.91,-116.4C147.2,-107.17 160.84,-96.01 170.26,-88.3"/>
<polygon fill="#63b8ff" stroke="#63b8ff" points="133.82,-113.59 128.29,-122.64 138.25,-119.01 133.82,-113.59"/>
</a>
</g>
</g>
<!-- Node4&#45;&gt;Node1 -->
<g id="edge3_Node000001_Node000004" class="edge">
<title>Node4&#45;&gt;Node1</title>
<g id="a_edge3_Node000001_Node000004"><a xlink:title=" ">
<path fill="none" stroke="#63b8ff" d="M162.9,-59.98C153.35,-51.29 141.82,-40.81 132.54,-32.37"/>
<polygon fill="#63b8ff" stroke="#63b8ff" points="160.44,-62.47 170.19,-66.61 165.15,-57.29 160.44,-62.47"/>
</a>
</g>
</g>
</g>
</svg>
