<?xml version="1.0" encoding="UTF-8" standalone="no"?>
<!DOCTYPE svg PUBLIC "-//W3C//DTD SVG 1.1//EN"
 "http://www.w3.org/Graphics/SVG/1.1/DTD/svg11.dtd">
<!-- Generated by graphviz version 12.2.0 (20241103.1931)
 -->
<!-- Title: Data.HashFunction.FNV.FNV1Base Pages: 1 -->
<svg width="753pt" height="166pt"
 viewBox="0.00 0.00 752.75 166.00" xmlns="http://www.w3.org/2000/svg" xmlns:xlink="http://www.w3.org/1999/xlink">
<g id="graph0" class="graph" transform="scale(1 1) rotate(0) translate(4 162)">
<title>Data.HashFunction.FNV.FNV1Base</title>
<!-- Node1 -->
<g id="Node000001" class="node">
<title>Node1</title>
<g id="a_Node000001"><a xlink:title=" ">
<polygon fill="#999999" stroke="#666666" points="744.75,-83 570.5,-83 570.5,-63 744.75,-63 744.75,-83"/>
<text text-anchor="middle" x="657.62" y="-69.5" font-family="Helvetica,sans-Serif" font-size="10.00">Data.HashFunction.FNV.FNV1Base</text>
</a>
</g>
</g>
<!-- Node2 -->
<g id="Node000002" class="node">
<title>Node2</title>
<g id="a_Node000002"><a xlink:href="class_data_1_1_hash_function_1_1_core_1_1_streamable_hash_function_base.html" target="_top" xlink:title="Common interface to non&#45;cryptographic hash functions that can be computed over a stream of data witho...">
<polygon fill="white" stroke="#666666" points="446.38,-146 297.62,-146 297.62,-126 446.38,-126 446.38,-146"/>
<text text-anchor="middle" x="372" y="-132.5" font-family="Helvetica,sans-Serif" font-size="10.00">StreamableHashFunctionBase</text>
</a>
</g>
</g>
<!-- Node2&#45;&gt;Node1 -->
<g id="edge1_Node000001_Node000002" class="edge">
<title>Node2&#45;&gt;Node1</title>
<g id="a_edge1_Node000001_Node000002"><a xlink:title=" ">
<path fill="none" stroke="#63b8ff" d="M440.49,-123.39C474.23,-116.85 515.62,-108.47 552.5,-100 574.52,-94.94 598.99,-88.63 618.67,-83.39"/>
<polygon fill="#63b8ff" stroke="#63b8ff" points="440.01,-119.92 430.85,-125.25 441.33,-126.79 440.01,-119.92"/>
</a>
</g>
</g>
<!-- Node3 -->
<g id="Node000003" class="node">
<title>Node3</title>
<g id="a_Node000003"><a xlink:href="class_data_1_1_hash_function_1_1_core_1_1_hash_function_base.html" target="_top" xlink:title="Abstract implementation of an IHashFunction. Provides convenience checks and ensures a default HashSi...">
<polygon fill="white" stroke="#666666" points="231,-158 131.75,-158 131.75,-138 231,-138 231,-158"/>
<text text-anchor="middle" x="181.38" y="-144.5" font-family="Helvetica,sans-Serif" font-size="10.00">HashFunctionBase</text>
</a>
</g>
</g>
<!-- Node3&#45;&gt;Node2 -->
<g id="edge2_Node000002_Node000003" class="edge">
<title>Node3&#45;&gt;Node2</title>
<g id="a_edge2_Node000002_Node000003"><a xlink:title=" ">
<path fill="none" stroke="#63b8ff" d="M242.59,-144.17C259.98,-143.06 279.17,-141.84 297.29,-140.69"/>
<polygon fill="#63b8ff" stroke="#63b8ff" points="242.71,-140.65 232.95,-144.78 243.15,-147.64 242.71,-140.65"/>
</a>
</g>
</g>
<!-- Node4 -->
<g id="Node000004" class="node">
<title>Node4</title>
<g id="a_Node000004"><a xlink:href="interface_data_1_1_hash_function_1_1_i_hash_function.html" target="_top" xlink:title="Common interface to non&#45;cryptographic hash functions.">
<polygon fill="white" stroke="#666666" points="79.75,-138 0,-138 0,-118 79.75,-118 79.75,-138"/>
<text text-anchor="middle" x="39.88" y="-124.5" font-family="Helvetica,sans-Serif" font-size="10.00">IHashFunction</text>
</a>
</g>
</g>
<!-- Node4&#45;&gt;Node3 -->
<g id="edge3_Node000003_Node000004" class="edge">
<title>Node4&#45;&gt;Node3</title>
<g id="a_edge3_Node000003_Node000004"><a xlink:title=" ">
<path fill="none" stroke="#63b8ff" d="M91.31,-135.23C104.4,-137.11 118.48,-139.13 131.5,-140.99"/>
<polygon fill="#63b8ff" stroke="#63b8ff" points="92,-131.79 81.6,-133.84 91.01,-138.72 92,-131.79"/>
</a>
</g>
</g>
<!-- Node5 -->
<g id="Node000005" class="node">
<title>Node5</title>
<g id="a_Node000005"><a xlink:href="interface_data_1_1_hash_function_1_1_i_streamable_hash_function.html" target="_top" xlink:title="Common interface to non&#45;cryptographic hash functions that can be computed over a stream of data witho...">
<polygon fill="white" stroke="#666666" points="246,-120 116.75,-120 116.75,-100 246,-100 246,-120"/>
<text text-anchor="middle" x="181.38" y="-106.5" font-family="Helvetica,sans-Serif" font-size="10.00">IStreamableHashFunction</text>
</a>
</g>
</g>
<!-- Node4&#45;&gt;Node5 -->
<g id="edge5_Node000005_Node000004" class="edge">
<title>Node4&#45;&gt;Node5</title>
<g id="a_edge5_Node000005_Node000004"><a xlink:title=" ">
<path fill="none" stroke="#63b8ff" d="M91.3,-121.49C99.44,-120.44 107.96,-119.34 116.36,-118.26"/>
<polygon fill="#63b8ff" stroke="#63b8ff" points="91.08,-117.99 81.61,-122.74 91.97,-124.94 91.08,-117.99"/>
</a>
</g>
</g>
<!-- Node5&#45;&gt;Node2 -->
<g id="edge4_Node000002_Node000005" class="edge">
<title>Node5&#45;&gt;Node2</title>
<g id="a_edge4_Node000002_Node000005"><a xlink:title=" ">
<path fill="none" stroke="#63b8ff" d="M257.79,-120.39C270.81,-122.19 284.33,-124.05 297.31,-125.84"/>
<polygon fill="#63b8ff" stroke="#63b8ff" points="258.38,-116.94 248,-119.05 257.43,-123.88 258.38,-116.94"/>
</a>
</g>
</g>
<!-- Node6 -->
<g id="Node000006" class="node">
<title>Node6</title>
<g id="a_Node000006"><a xlink:href="interface_data_1_1_hash_function_1_1_f_n_v_1_1_i_f_n_v.html" target="_top" xlink:title="Implementation of Fowler–Noll–Vo hash function (FNV&#45;1 or FNV&#45;1a) as specified at http://www....">
<polygon fill="white" stroke="#666666" points="391.62,-108 352.38,-108 352.38,-88 391.62,-88 391.62,-108"/>
<text text-anchor="middle" x="372" y="-94.5" font-family="Helvetica,sans-Serif" font-size="10.00">IFNV</text>
</a>
</g>
</g>
<!-- Node5&#45;&gt;Node6 -->
<g id="edge7_Node000006_Node000005" class="edge">
<title>Node5&#45;&gt;Node6</title>
<g id="a_edge7_Node000006_Node000005"><a xlink:title=" ">
<path fill="none" stroke="#63b8ff" d="M257.94,-105.19C292.16,-103.02 329.81,-100.62 351.88,-99.22"/>
<polygon fill="#63b8ff" stroke="#63b8ff" points="257.77,-101.7 248.01,-105.82 258.21,-108.68 257.77,-101.7"/>
</a>
</g>
</g>
<!-- Node6&#45;&gt;Node1 -->
<g id="edge6_Node000001_Node000006" class="edge">
<title>Node6&#45;&gt;Node1</title>
<g id="a_edge6_Node000001_Node000006"><a xlink:title=" ">
<path fill="none" stroke="#63b8ff" d="M403.51,-95.31C443.04,-91.83 513.6,-85.61 570.2,-80.62"/>
<polygon fill="#63b8ff" stroke="#63b8ff" points="403.21,-91.82 393.56,-96.19 403.83,-98.8 403.21,-91.82"/>
</a>
</g>
</g>
<!-- Node7 -->
<g id="Node000007" class="node">
<title>Node7</title>
<g id="a_Node000007"><a xlink:href="interface_data_1_1_hash_function_1_1_f_n_v_1_1_i_f_n_v_config.html" target="_top" xlink:title="Defines a configuration for a IFNV implementation.">
<polygon fill="white" stroke="#666666" points="461,-70 283,-70 283,-50 461,-50 461,-70"/>
<text text-anchor="middle" x="372" y="-56.5" font-family="Helvetica,sans-Serif" font-size="10.00">Data.HashFunction.FNV.IFNVConfig</text>
</a>
</g>
</g>
<!-- Node7&#45;&gt;Node1 -->
<g id="edge8_Node000001_Node000007" class="edge">
<title>Node7&#45;&gt;Node1</title>
<g id="a_edge8_Node000001_Node000007"><a xlink:title=" ">
<path fill="none" stroke="#9a32cd" stroke-dasharray="5,2" d="M472.54,-62.73C498.57,-63.61 526.59,-64.7 552.5,-66 558.29,-66.29 564.26,-66.62 570.27,-66.97"/>
<polygon fill="#9a32cd" stroke="#9a32cd" points="472.75,-59.23 462.64,-62.4 472.52,-66.23 472.75,-59.23"/>
</a>
</g>
<text text-anchor="middle" x="515.75" y="-68.5" font-family="Helvetica,sans-Serif" font-size="10.00" fill="grey"> _config</text>
</g>
<!-- Node8 -->
<g id="Node000008" class="node">
<title>Node8</title>
<g id="a_Node000008"><a xlink:href="class_data_1_1_hash_function_1_1_f_n_v_1_1_utilities_1_1_f_n_v_prime_offset.html" target="_top" xlink:title=" ">
<polygon fill="white" stroke="#666666" points="453.12,-32 290.88,-32 290.88,0 453.12,0 453.12,-32"/>
<text text-anchor="start" x="298.88" y="-18.5" font-family="Helvetica,sans-Serif" font-size="10.00">Data.HashFunction.FNV.Utilities.</text>
<text text-anchor="middle" x="372" y="-6.5" font-family="Helvetica,sans-Serif" font-size="10.00">FNVPrimeOffset</text>
</a>
</g>
</g>
<!-- Node8&#45;&gt;Node1 -->
<g id="edge9_Node000001_Node000008" class="edge">
<title>Node8&#45;&gt;Node1</title>
<g id="a_edge9_Node000001_Node000008"><a xlink:title=" ">
<path fill="none" stroke="#9a32cd" stroke-dasharray="5,2" d="M464.33,-30.43C492.67,-35.27 523.95,-40.98 552.5,-47 574.2,-51.58 598.22,-57.52 617.72,-62.56"/>
<polygon fill="#9a32cd" stroke="#9a32cd" points="465.15,-27.02 454.71,-28.81 463.98,-33.93 465.15,-27.02"/>
</a>
</g>
<text text-anchor="middle" x="515.75" y="-49.5" font-family="Helvetica,sans-Serif" font-size="10.00" fill="grey"> _fnvPrimeOffset</text>
</g>
</g>
</svg>
