<?xml version="1.0" encoding="UTF-8" standalone="no"?>
<!DOCTYPE svg PUBLIC "-//W3C//DTD SVG 1.1//EN"
 "http://www.w3.org/Graphics/SVG/1.1/DTD/svg11.dtd">
<!-- Generated by graphviz version 12.2.0 (20241103.1931)
 -->
<!-- Title: Data.HashFunction.Blake3.Hasher.Hash Pages: 1 -->
<svg width="723pt" height="776pt"
 viewBox="0.00 0.00 723.00 776.00" xmlns="http://www.w3.org/2000/svg" xmlns:xlink="http://www.w3.org/1999/xlink">
<g id="graph0" class="graph" transform="scale(1 1) rotate(0) translate(4 772)">
<title>Data.HashFunction.Blake3.Hasher.Hash</title>
<!-- Node1 -->
<g id="Node000001" class="node">
<title>Node1</title>
<g id="a_Node000001"><a xlink:title="The default hash function.">
<polygon fill="#999999" stroke="#666666" points="136.75,-388 0,-388 0,-356 136.75,-356 136.75,-388"/>
<text text-anchor="start" x="8" y="-374.5" font-family="Helvetica,sans-Serif" font-size="10.00">Data.HashFunction.Blake3.</text>
<text text-anchor="middle" x="68.38" y="-362.5" font-family="Helvetica,sans-Serif" font-size="10.00">Hasher.Hash</text>
</a>
</g>
</g>
<!-- Node2 -->
<g id="Node000002" class="node">
<title>Node2</title>
<g id="a_Node000002"><a xlink:href="class_data_1_1_hash_function_1_1_blake3_1_1_hasher.html#aad24929c483c806315660e478d94ef46" target="_top" xlink:title="Construct a new Hasher for the regular hash function.">
<polygon fill="white" stroke="#666666" points="309.5,-388 172.75,-388 172.75,-356 309.5,-356 309.5,-388"/>
<text text-anchor="start" x="180.75" y="-374.5" font-family="Helvetica,sans-Serif" font-size="10.00">Data.HashFunction.Blake3.</text>
<text text-anchor="middle" x="241.12" y="-362.5" font-family="Helvetica,sans-Serif" font-size="10.00">Hasher.New</text>
</a>
</g>
</g>
<!-- Node1&#45;&gt;Node2 -->
<g id="edge1_Node000001_Node000002" class="edge">
<title>Node1&#45;&gt;Node2</title>
<g id="a_edge1_Node000001_Node000002"><a xlink:title=" ">
<path fill="none" stroke="#63b8ff" d="M136.86,-372C144.78,-372 152.91,-372 160.98,-372"/>
<polygon fill="#63b8ff" stroke="#63b8ff" points="160.78,-375.5 170.78,-372 160.78,-368.5 160.78,-375.5"/>
</a>
</g>
</g>
<!-- Node3 -->
<g id="Node000003" class="node">
<title>Node3</title>
<g id="a_Node000003"><a xlink:href="class_data_1_1_hash_function_1_1_blake3_1_1_hasher.html#a1092f2d1065b4228fe942e2d9481222b" target="_top" xlink:title=" ">
<polygon fill="white" stroke="#666666" points="482.25,-388 345.5,-388 345.5,-356 482.25,-356 482.25,-388"/>
<text text-anchor="start" x="353.5" y="-374.5" font-family="Helvetica,sans-Serif" font-size="10.00">Data.HashFunction.Blake3.</text>
<text text-anchor="middle" x="413.88" y="-362.5" font-family="Helvetica,sans-Serif" font-size="10.00">Hasher.Hasher</text>
</a>
</g>
</g>
<!-- Node2&#45;&gt;Node3 -->
<g id="edge2_Node000002_Node000003" class="edge">
<title>Node2&#45;&gt;Node3</title>
<g id="a_edge2_Node000002_Node000003"><a xlink:title=" ">
<path fill="none" stroke="#63b8ff" d="M309.61,-372C317.53,-372 325.66,-372 333.73,-372"/>
<polygon fill="#63b8ff" stroke="#63b8ff" points="333.53,-375.5 343.53,-372 333.53,-368.5 333.53,-375.5"/>
</a>
</g>
</g>
<!-- Node4 -->
<g id="Node000004" class="node">
<title>Node4</title>
<g id="a_Node000004"><a xlink:href="class_data_1_1_hash_function_1_1_blake3_1_1_hasher.html#aeddb6fe433bf75e5aba4e67e629f092f" target="_top" xlink:title=" ">
<polygon fill="white" stroke="#666666" points="685,-768 548.25,-768 548.25,-736 685,-736 685,-768"/>
<text text-anchor="start" x="556.25" y="-754.5" font-family="Helvetica,sans-Serif" font-size="10.00">Data.HashFunction.Blake3.</text>
<text text-anchor="middle" x="616.62" y="-742.5" font-family="Helvetica,sans-Serif" font-size="10.00">Hasher.blake3_delete_del</text>
</a>
</g>
</g>
<!-- Node3&#45;&gt;Node4 -->
<g id="edge3_Node000003_Node000004" class="edge">
<title>Node3&#45;&gt;Node4</title>
<g id="a_edge3_Node000003_Node000004"><a xlink:title=" ">
<path fill="none" stroke="#63b8ff" d="M414.36,-388.23C413.53,-444.13 418.65,-630.54 518.25,-727 523.81,-732.38 530.37,-736.65 537.4,-740.03"/>
<polygon fill="#63b8ff" stroke="#63b8ff" points="536.02,-743.25 546.6,-743.8 538.67,-736.77 536.02,-743.25"/>
</a>
</g>
</g>
<!-- Node5 -->
<g id="Node000005" class="node">
<title>Node5</title>
<g id="a_Node000005"><a xlink:href="class_data_1_1_hash_function_1_1_blake3_1_1_hasher.html#a266c90d1583949e5699abdfbfc193992" target="_top" xlink:title=" ">
<polygon fill="white" stroke="#666666" points="685,-718 548.25,-718 548.25,-686 685,-686 685,-718"/>
<text text-anchor="start" x="556.25" y="-704.5" font-family="Helvetica,sans-Serif" font-size="10.00">Data.HashFunction.Blake3.</text>
<text text-anchor="middle" x="616.62" y="-692.5" font-family="Helvetica,sans-Serif" font-size="10.00">Hasher.blake3_finalize_del</text>
</a>
</g>
</g>
<!-- Node3&#45;&gt;Node5 -->
<g id="edge4_Node000003_Node000005" class="edge">
<title>Node3&#45;&gt;Node5</title>
<g id="a_edge4_Node000003_Node000005"><a xlink:title=" ">
<path fill="none" stroke="#63b8ff" d="M415.27,-388.43C417.41,-439.39 431.13,-596.22 518.25,-677 523.84,-682.18 530.36,-686.32 537.32,-689.63"/>
<polygon fill="#63b8ff" stroke="#63b8ff" points="535.8,-692.79 546.39,-693.33 538.45,-686.31 535.8,-692.79"/>
</a>
</g>
</g>
<!-- Node6 -->
<g id="Node000006" class="node">
<title>Node6</title>
<g id="a_Node000006"><a xlink:href="class_data_1_1_hash_function_1_1_blake3_1_1_hasher.html#a9f5c8238bb1b8c8b5dd827d8c266f0da" target="_top" xlink:title=" ">
<polygon fill="white" stroke="#666666" points="685,-668 548.25,-668 548.25,-624 685,-624 685,-668"/>
<text text-anchor="start" x="556.25" y="-654.5" font-family="Helvetica,sans-Serif" font-size="10.00">Data.HashFunction.Blake3.</text>
<text text-anchor="start" x="556.25" y="-642.5" font-family="Helvetica,sans-Serif" font-size="10.00">Hasher.blake3_finalize</text>
<text text-anchor="middle" x="616.62" y="-630.5" font-family="Helvetica,sans-Serif" font-size="10.00">_seek_xof_del</text>
</a>
</g>
</g>
<!-- Node3&#45;&gt;Node6 -->
<g id="edge5_Node000003_Node000006" class="edge">
<title>Node3&#45;&gt;Node6</title>
<g id="a_edge5_Node000003_Node000006"><a xlink:title=" ">
<path fill="none" stroke="#63b8ff" d="M417.07,-388.28C423.79,-431.67 448.07,-551.12 518.25,-615 523.94,-620.18 530.49,-624.49 537.45,-628.08"/>
<polygon fill="#63b8ff" stroke="#63b8ff" points="535.96,-631.25 546.51,-632.21 538.87,-624.88 535.96,-631.25"/>
</a>
</g>
</g>
<!-- Node7 -->
<g id="Node000007" class="node">
<title>Node7</title>
<g id="a_Node000007"><a xlink:href="class_data_1_1_hash_function_1_1_blake3_1_1_hasher.html#a68a9b9baa0249779cf6c6b5fcc0a0e34" target="_top" xlink:title=" ">
<polygon fill="white" stroke="#666666" points="685,-606 548.25,-606 548.25,-562 685,-562 685,-606"/>
<text text-anchor="start" x="556.25" y="-592.5" font-family="Helvetica,sans-Serif" font-size="10.00">Data.HashFunction.Blake3.</text>
<text text-anchor="start" x="556.25" y="-580.5" font-family="Helvetica,sans-Serif" font-size="10.00">Hasher.blake3_finalize</text>
<text text-anchor="middle" x="616.62" y="-568.5" font-family="Helvetica,sans-Serif" font-size="10.00">_xof_del</text>
</a>
</g>
</g>
<!-- Node3&#45;&gt;Node7 -->
<g id="edge6_Node000003_Node000007" class="edge">
<title>Node3&#45;&gt;Node7</title>
<g id="a_edge6_Node000003_Node000007"><a xlink:title=" ">
<path fill="none" stroke="#63b8ff" d="M419.72,-388.46C431.01,-423.89 462.4,-507.83 518.25,-553 524.09,-557.72 530.66,-561.73 537.56,-565.13"/>
<polygon fill="#63b8ff" stroke="#63b8ff" points="535.91,-568.23 546.47,-569.08 538.75,-561.83 535.91,-568.23"/>
</a>
</g>
</g>
<!-- Node8 -->
<g id="Node000008" class="node">
<title>Node8</title>
<g id="a_Node000008"><a xlink:href="class_data_1_1_hash_function_1_1_blake3_1_1_hasher.html#a5c6e2e883f5f699bb3f1c5efd6329e86" target="_top" xlink:title=" ">
<polygon fill="white" stroke="#666666" points="685,-544 548.25,-544 548.25,-512 685,-512 685,-544"/>
<text text-anchor="start" x="556.25" y="-530.5" font-family="Helvetica,sans-Serif" font-size="10.00">Data.HashFunction.Blake3.</text>
<text text-anchor="middle" x="616.62" y="-518.5" font-family="Helvetica,sans-Serif" font-size="10.00">Hasher.blake3_hash_del</text>
</a>
</g>
</g>
<!-- Node3&#45;&gt;Node8 -->
<g id="edge7_Node000003_Node000008" class="edge">
<title>Node3&#45;&gt;Node8</title>
<g id="a_edge7_Node000003_Node000008"><a xlink:title=" ">
<path fill="none" stroke="#63b8ff" d="M422.98,-388.08C437.88,-415.96 472.36,-473.13 518.25,-503 524.15,-506.84 530.62,-510.1 537.31,-512.85"/>
<polygon fill="#63b8ff" stroke="#63b8ff" points="535.97,-516.08 546.57,-516.25 538.39,-509.51 535.97,-516.08"/>
</a>
</g>
</g>
<!-- Node9 -->
<g id="Node000009" class="node">
<title>Node9</title>
<g id="a_Node000009"><a xlink:href="class_data_1_1_hash_function_1_1_blake3_1_1_hasher.html#ad33b25786ed25911a0e2243e184a01f6" target="_top" xlink:title=" ">
<polygon fill="white" stroke="#666666" points="704.88,-494 528.38,-494 528.38,-462 704.88,-462 704.88,-494"/>
<text text-anchor="start" x="536.38" y="-480.5" font-family="Helvetica,sans-Serif" font-size="10.00">Data.HashFunction.Blake3.</text>
<text text-anchor="middle" x="616.62" y="-468.5" font-family="Helvetica,sans-Serif" font-size="10.00">Hasher.blake3_hash_preemptive_del</text>
</a>
</g>
</g>
<!-- Node3&#45;&gt;Node9 -->
<g id="edge8_Node000003_Node000009" class="edge">
<title>Node3&#45;&gt;Node9</title>
<g id="a_edge8_Node000003_Node000009"><a xlink:title=" ">
<path fill="none" stroke="#63b8ff" d="M431.29,-388.46C450.51,-406.82 484.1,-436.17 518.25,-453 521.5,-454.6 524.86,-456.11 528.3,-457.52"/>
<polygon fill="#63b8ff" stroke="#63b8ff" points="526.77,-460.69 537.37,-460.97 529.26,-454.14 526.77,-460.69"/>
</a>
</g>
</g>
<!-- Node10 -->
<g id="Node000010" class="node">
<title>Node10</title>
<g id="a_Node000010"><a xlink:href="class_data_1_1_hash_function_1_1_blake3_1_1_hasher.html#aea989aefa014224e8779949750fd6ef4" target="_top" xlink:title=" ">
<polygon fill="white" stroke="#666666" points="685,-444 548.25,-444 548.25,-412 685,-412 685,-444"/>
<text text-anchor="start" x="556.25" y="-430.5" font-family="Helvetica,sans-Serif" font-size="10.00">Data.HashFunction.Blake3.</text>
<text text-anchor="middle" x="616.62" y="-418.5" font-family="Helvetica,sans-Serif" font-size="10.00">Hasher.blake3_new_del</text>
</a>
</g>
</g>
<!-- Node3&#45;&gt;Node10 -->
<g id="edge9_Node000003_Node000010" class="edge">
<title>Node3&#45;&gt;Node10</title>
<g id="a_edge9_Node000003_Node000010"><a xlink:title=" ">
<path fill="none" stroke="#63b8ff" d="M468.41,-388.5C484.4,-393.31 502,-398.48 518.25,-403 524.98,-404.87 531.99,-406.77 539.02,-408.64"/>
<polygon fill="#63b8ff" stroke="#63b8ff" points="538.03,-412 548.59,-411.16 539.81,-405.23 538.03,-412"/>
</a>
</g>
</g>
<!-- Node11 -->
<g id="Node000011" class="node">
<title>Node11</title>
<g id="a_Node000011"><a xlink:href="class_data_1_1_hash_function_1_1_blake3_1_1_hasher.html#a5e0bd3fc3b1f1d2230083edd06082e33" target="_top" xlink:title=" ">
<polygon fill="white" stroke="#666666" points="685,-394 548.25,-394 548.25,-350 685,-350 685,-394"/>
<text text-anchor="start" x="556.25" y="-380.5" font-family="Helvetica,sans-Serif" font-size="10.00">Data.HashFunction.Blake3.</text>
<text text-anchor="start" x="556.25" y="-368.5" font-family="Helvetica,sans-Serif" font-size="10.00">Hasher.blake3_new_derive</text>
<text text-anchor="middle" x="616.62" y="-356.5" font-family="Helvetica,sans-Serif" font-size="10.00">_key_del</text>
</a>
</g>
</g>
<!-- Node3&#45;&gt;Node11 -->
<g id="edge10_Node000003_Node000011" class="edge">
<title>Node3&#45;&gt;Node11</title>
<g id="a_edge10_Node000003_Node000011"><a xlink:title=" ">
<path fill="none" stroke="#63b8ff" d="M482.56,-372C499.92,-372 518.74,-372 536.61,-372"/>
<polygon fill="#63b8ff" stroke="#63b8ff" points="536.38,-375.5 546.38,-372 536.38,-368.5 536.38,-375.5"/>
</a>
</g>
</g>
<!-- Node12 -->
<g id="Node000012" class="node">
<title>Node12</title>
<g id="a_Node000012"><a xlink:href="class_data_1_1_hash_function_1_1_blake3_1_1_hasher.html#a4a8335b7fd73916b8690f34ba00d2fa9" target="_top" xlink:title=" ">
<polygon fill="white" stroke="#666666" points="692.5,-332 540.75,-332 540.75,-300 692.5,-300 692.5,-332"/>
<text text-anchor="start" x="548.75" y="-318.5" font-family="Helvetica,sans-Serif" font-size="10.00">Data.HashFunction.Blake3.</text>
<text text-anchor="middle" x="616.62" y="-306.5" font-family="Helvetica,sans-Serif" font-size="10.00">Hasher.blake3_new_keyed_del</text>
</a>
</g>
</g>
<!-- Node3&#45;&gt;Node12 -->
<g id="edge11_Node000003_Node000012" class="edge">
<title>Node3&#45;&gt;Node12</title>
<g id="a_edge11_Node000003_Node000012"><a xlink:title=" ">
<path fill="none" stroke="#63b8ff" d="M468.41,-355.5C484.4,-350.69 502,-345.52 518.25,-341 524.98,-339.13 531.99,-337.23 539.02,-335.36"/>
<polygon fill="#63b8ff" stroke="#63b8ff" points="539.81,-338.77 548.59,-332.84 538.03,-332 539.81,-338.77"/>
</a>
</g>
</g>
<!-- Node13 -->
<g id="Node000013" class="node">
<title>Node13</title>
<g id="a_Node000013"><a xlink:href="class_data_1_1_hash_function_1_1_blake3_1_1_hasher.html#afeaea0d86f16edce6ae92fdb28dd50e3" target="_top" xlink:title=" ">
<polygon fill="white" stroke="#666666" points="685,-282 548.25,-282 548.25,-250 685,-250 685,-282"/>
<text text-anchor="start" x="556.25" y="-268.5" font-family="Helvetica,sans-Serif" font-size="10.00">Data.HashFunction.Blake3.</text>
<text text-anchor="middle" x="616.62" y="-256.5" font-family="Helvetica,sans-Serif" font-size="10.00">Hasher.blake3_reset_del</text>
</a>
</g>
</g>
<!-- Node3&#45;&gt;Node13 -->
<g id="edge12_Node000003_Node000013" class="edge">
<title>Node3&#45;&gt;Node13</title>
<g id="a_edge12_Node000003_Node000013"><a xlink:title=" ">
<path fill="none" stroke="#63b8ff" d="M431.29,-355.54C450.51,-337.18 484.1,-307.83 518.25,-291 524.17,-288.08 530.46,-285.48 536.89,-283.17"/>
<polygon fill="#63b8ff" stroke="#63b8ff" points="537.97,-286.5 546.36,-280.02 535.76,-279.86 537.97,-286.5"/>
</a>
</g>
</g>
<!-- Node14 -->
<g id="Node000014" class="node">
<title>Node14</title>
<g id="a_Node000014"><a xlink:href="class_data_1_1_hash_function_1_1_blake3_1_1_hasher.html#a82c48fb54de5c6bbcacd3ffb1e2ff6d4" target="_top" xlink:title=" ">
<polygon fill="white" stroke="#666666" points="685,-232 548.25,-232 548.25,-200 685,-200 685,-232"/>
<text text-anchor="start" x="556.25" y="-218.5" font-family="Helvetica,sans-Serif" font-size="10.00">Data.HashFunction.Blake3.</text>
<text text-anchor="middle" x="616.62" y="-206.5" font-family="Helvetica,sans-Serif" font-size="10.00">Hasher.blake3_update_del</text>
</a>
</g>
</g>
<!-- Node3&#45;&gt;Node14 -->
<g id="edge13_Node000003_Node000014" class="edge">
<title>Node3&#45;&gt;Node14</title>
<g id="a_edge13_Node000003_Node000014"><a xlink:title=" ">
<path fill="none" stroke="#63b8ff" d="M422.98,-355.92C437.88,-328.04 472.36,-270.87 518.25,-241 524.15,-237.16 530.62,-233.9 537.31,-231.15"/>
<polygon fill="#63b8ff" stroke="#63b8ff" points="538.39,-234.49 546.57,-227.75 535.97,-227.92 538.39,-234.49"/>
</a>
</g>
</g>
<!-- Node15 -->
<g id="Node000015" class="node">
<title>Node15</title>
<g id="a_Node000015"><a xlink:href="class_data_1_1_hash_function_1_1_blake3_1_1_hasher.html#a8b052a85097b1bada787fec22e9a1fdc" target="_top" xlink:title=" ">
<polygon fill="white" stroke="#666666" points="709,-182 524.25,-182 524.25,-150 709,-150 709,-182"/>
<text text-anchor="start" x="532.25" y="-168.5" font-family="Helvetica,sans-Serif" font-size="10.00">Data.HashFunction.Blake3.</text>
<text text-anchor="middle" x="616.62" y="-156.5" font-family="Helvetica,sans-Serif" font-size="10.00">Hasher.blake3_update_preemptive_del</text>
</a>
</g>
</g>
<!-- Node3&#45;&gt;Node15 -->
<g id="edge14_Node000003_Node000015" class="edge">
<title>Node3&#45;&gt;Node15</title>
<g id="a_edge14_Node000003_Node000015"><a xlink:title=" ">
<path fill="none" stroke="#63b8ff" d="M419.45,-355.57C430.29,-319.82 460.99,-234.67 518.25,-191 519.59,-189.97 520.98,-188.99 522.39,-188.05"/>
<polygon fill="#63b8ff" stroke="#63b8ff" points="523.95,-191.19 530.85,-183.14 520.44,-185.13 523.95,-191.19"/>
</a>
</g>
</g>
<!-- Node16 -->
<g id="Node000016" class="node">
<title>Node16</title>
<g id="a_Node000016"><a xlink:href="class_data_1_1_hash_function_1_1_blake3_1_1_hasher.html#af985f5e3c88cb27d88076cc470528c42" target="_top" xlink:title=" ">
<polygon fill="white" stroke="#666666" points="697,-132 536.25,-132 536.25,-100 697,-100 697,-132"/>
<text text-anchor="start" x="544.25" y="-118.5" font-family="Helvetica,sans-Serif" font-size="10.00">Data.HashFunction.Blake3.</text>
<text text-anchor="middle" x="616.62" y="-106.5" font-family="Helvetica,sans-Serif" font-size="10.00">Hasher.blake3_update_rayon_del</text>
</a>
</g>
</g>
<!-- Node3&#45;&gt;Node16 -->
<g id="edge15_Node000003_Node000016" class="edge">
<title>Node3&#45;&gt;Node16</title>
<g id="a_edge15_Node000003_Node000016"><a xlink:title=" ">
<path fill="none" stroke="#63b8ff" d="M417.25,-355.68C424.29,-313.37 449.06,-199.35 518.25,-141 520.75,-138.89 523.41,-136.96 526.19,-135.18"/>
<polygon fill="#63b8ff" stroke="#63b8ff" points="527.65,-138.37 534.71,-130.48 524.27,-132.24 527.65,-138.37"/>
</a>
</g>
</g>
<!-- Node17 -->
<g id="Node000017" class="node">
<title>Node17</title>
<g id="a_Node000017"><a xlink:href="class_data_1_1_hash_function_1_1_core_1_1_library_loader_1_1_native_library_loader.html#ae7fc8592b9e709e52367e2af00e56328" target="_top" xlink:title="Initializes a new instance of NativeLibraryLoader with the given library &#160;parameter.">
<polygon fill="white" stroke="#666666" points="696.25,-82 537,-82 537,-50 696.25,-50 696.25,-82"/>
<text text-anchor="start" x="545" y="-68.5" font-family="Helvetica,sans-Serif" font-size="10.00">Data.HashFunction.Core.Library</text>
<text text-anchor="middle" x="616.62" y="-56.5" font-family="Helvetica,sans-Serif" font-size="10.00">Loader.NativeLibraryLoader.Load</text>
</a>
</g>
</g>
<!-- Node3&#45;&gt;Node17 -->
<g id="edge16_Node000003_Node000017" class="edge">
<title>Node3&#45;&gt;Node17</title>
<g id="a_edge16_Node000003_Node000017"><a xlink:title=" ">
<path fill="none" stroke="#63b8ff" d="M415.79,-355.82C419.41,-307.75 436.87,-164.53 518.25,-91 520.88,-88.62 523.72,-86.46 526.69,-84.5"/>
<polygon fill="#63b8ff" stroke="#63b8ff" points="528.33,-87.59 535.34,-79.64 524.9,-81.49 528.33,-87.59"/>
</a>
</g>
</g>
<!-- Node18 -->
<g id="Node000018" class="node">
<title>Node18</title>
<g id="a_Node000018"><a xlink:href="class_data_1_1_hash_function_1_1_core_1_1_library_loader_1_1_native_library_loader.html#ae43e52670bcb4804edc00b9d59e171f8" target="_top" xlink:title="Tries to load a function with the given name.">
<polygon fill="white" stroke="#666666" points="715,-32 518.25,-32 518.25,0 715,0 715,-32"/>
<text text-anchor="start" x="526.25" y="-18.5" font-family="Helvetica,sans-Serif" font-size="10.00">Data.HashFunction.Core.Library</text>
<text text-anchor="middle" x="616.62" y="-6.5" font-family="Helvetica,sans-Serif" font-size="10.00">Loader.NativeLibraryLoader.LoadFunction</text>
</a>
</g>
</g>
<!-- Node3&#45;&gt;Node18 -->
<g id="edge17_Node000003_Node000018" class="edge">
<title>Node3&#45;&gt;Node18</title>
<g id="a_edge17_Node000003_Node000018"><a xlink:title=" ">
<path fill="none" stroke="#63b8ff" d="M414.76,-355.74C415.32,-302.22 424.62,-129.94 518.25,-41 518.89,-40.39 519.54,-39.8 520.21,-39.22"/>
<polygon fill="#63b8ff" stroke="#63b8ff" points="522.25,-42.06 528.25,-33.33 518.12,-36.41 522.25,-42.06"/>
</a>
</g>
</g>
</g>
</svg>
