<?xml version="1.0" encoding="UTF-8" standalone="no"?>
<!DOCTYPE svg PUBLIC "-//W3C//DTD SVG 1.1//EN"
 "http://www.w3.org/Graphics/SVG/1.1/DTD/svg11.dtd">
<!-- Generated by graphviz version 12.2.0 (20241103.1931)
 -->
<!-- Title: Data.HashFunction.FarmHash.FarmHashFingerprint128_Implementation.ComputeHashInternal Pages: 1 -->
<svg width="1393pt" height="240pt"
 viewBox="0.00 0.00 1393.25 240.00" xmlns="http://www.w3.org/2000/svg" xmlns:xlink="http://www.w3.org/1999/xlink">
<g id="graph0" class="graph" transform="scale(1 1) rotate(0) translate(4 236)">
<title>Data.HashFunction.FarmHash.FarmHashFingerprint128_Implementation.ComputeHashInternal</title>
<!-- Node1 -->
<g id="Node000001" class="node">
<title>Node1</title>
<g id="a_Node000001"><a xlink:title=" ">
<polygon fill="#999999" stroke="#666666" points="198.25,-138 0,-138 0,-94 198.25,-94 198.25,-138"/>
<text text-anchor="start" x="8" y="-124.5" font-family="Helvetica,sans-Serif" font-size="10.00">Data.HashFunction.FarmHash.</text>
<text text-anchor="start" x="8" y="-112.5" font-family="Helvetica,sans-Serif" font-size="10.00">FarmHashFingerprint128_Implementation.</text>
<text text-anchor="middle" x="99.12" y="-100.5" font-family="Helvetica,sans-Serif" font-size="10.00">ComputeHashInternal</text>
</a>
</g>
</g>
<!-- Node2 -->
<g id="Node000002" class="node">
<title>Node2</title>
<g id="a_Node000002"><a xlink:href="class_data_1_1_hash_function_1_1_farm_hash_1_1_farm_hash_fingerprint128___implementation.html#a997239d6ef79f1af91114c8439ab9e33" target="_top" xlink:title=" ">
<polygon fill="white" stroke="#666666" points="432.5,-138 234.25,-138 234.25,-94 432.5,-94 432.5,-138"/>
<text text-anchor="start" x="242.25" y="-124.5" font-family="Helvetica,sans-Serif" font-size="10.00">Data.HashFunction.FarmHash.</text>
<text text-anchor="start" x="242.25" y="-112.5" font-family="Helvetica,sans-Serif" font-size="10.00">FarmHashFingerprint128_Implementation.</text>
<text text-anchor="middle" x="333.38" y="-100.5" font-family="Helvetica,sans-Serif" font-size="10.00">CityHash128WithSeed</text>
</a>
</g>
</g>
<!-- Node1&#45;&gt;Node2 -->
<g id="edge1_Node000001_Node000002" class="edge">
<title>Node1&#45;&gt;Node2</title>
<g id="a_edge1_Node000001_Node000002"><a xlink:title=" ">
<path fill="none" stroke="#63b8ff" d="M198.62,-116C206.6,-116 214.7,-116 222.75,-116"/>
<polygon fill="#63b8ff" stroke="#63b8ff" points="222.58,-119.5 232.58,-116 222.58,-112.5 222.58,-119.5"/>
</a>
</g>
</g>
<!-- Node3 -->
<g id="Node000003" class="node">
<title>Node3</title>
<g id="a_Node000003"><a xlink:href="class_data_1_1_hash_function_1_1_farm_hash_1_1_farm_hash_fingerprint128___implementation.html#a3b5e9226f7941b5e2555b9fb6813f91e" target="_top" xlink:title=" ">
<polygon fill="white" stroke="#666666" points="666.75,-163 468.5,-163 468.5,-119 666.75,-119 666.75,-163"/>
<text text-anchor="start" x="476.5" y="-149.5" font-family="Helvetica,sans-Serif" font-size="10.00">Data.HashFunction.FarmHash.</text>
<text text-anchor="start" x="476.5" y="-137.5" font-family="Helvetica,sans-Serif" font-size="10.00">FarmHashFingerprint128_Implementation.</text>
<text text-anchor="middle" x="567.62" y="-125.5" font-family="Helvetica,sans-Serif" font-size="10.00">CityMurmur</text>
</a>
</g>
</g>
<!-- Node2&#45;&gt;Node3 -->
<g id="edge2_Node000002_Node000003" class="edge">
<title>Node2&#45;&gt;Node3</title>
<g id="a_edge2_Node000002_Node000003"><a xlink:title=" ">
<path fill="none" stroke="#63b8ff" d="M432.87,-126.6C440.85,-127.46 448.95,-128.33 457,-129.2"/>
<polygon fill="#63b8ff" stroke="#63b8ff" points="456.53,-132.67 466.84,-130.26 457.28,-125.71 456.53,-132.67"/>
</a>
</g>
</g>
<!-- Node5 -->
<g id="Node000005" class="node">
<title>Node5</title>
<g id="a_Node000005"><a xlink:href="class_data_1_1_hash_function_1_1_farm_hash_1_1_farm_hash_fingerprint128___implementation.html#ad132c965537a4a280648e5b9067445c0" target="_top" xlink:title=" ">
<polygon fill="white" stroke="#666666" points="1143.12,-232 944.88,-232 944.88,-188 1143.12,-188 1143.12,-232"/>
<text text-anchor="start" x="952.88" y="-218.5" font-family="Helvetica,sans-Serif" font-size="10.00">Data.HashFunction.FarmHash.</text>
<text text-anchor="start" x="952.88" y="-206.5" font-family="Helvetica,sans-Serif" font-size="10.00">FarmHashFingerprint128_Implementation.</text>
<text text-anchor="middle" x="1044" y="-194.5" font-family="Helvetica,sans-Serif" font-size="10.00">HashLen16</text>
</a>
</g>
</g>
<!-- Node2&#45;&gt;Node5 -->
<g id="edge10_Node000002_Node000005" class="edge">
<title>Node2&#45;&gt;Node5</title>
<g id="a_edge10_Node000002_Node000005"><a xlink:title=" ">
<path fill="none" stroke="#63b8ff" d="M381.27,-138.49C406.62,-149.9 438.75,-163.17 468.5,-172 653.68,-226.97 707.86,-218.4 901,-215 911.43,-214.82 922.3,-214.56 933.16,-214.25"/>
<polygon fill="#63b8ff" stroke="#63b8ff" points="933.06,-217.76 942.96,-213.96 932.86,-210.76 933.06,-217.76"/>
</a>
</g>
</g>
<!-- Node8 -->
<g id="Node000008" class="node">
<title>Node8</title>
<g id="a_Node000008"><a xlink:href="class_data_1_1_hash_function_1_1_farm_hash_1_1_farm_hash_fingerprint128___implementation.html#a4aae47bb155fd682694f3890b0b45471" target="_top" xlink:title=" ">
<polygon fill="white" stroke="#666666" points="1143.12,-94 944.88,-94 944.88,-50 1143.12,-50 1143.12,-94"/>
<text text-anchor="start" x="952.88" y="-80.5" font-family="Helvetica,sans-Serif" font-size="10.00">Data.HashFunction.FarmHash.</text>
<text text-anchor="start" x="952.88" y="-68.5" font-family="Helvetica,sans-Serif" font-size="10.00">FarmHashFingerprint128_Implementation.</text>
<text text-anchor="middle" x="1044" y="-56.5" font-family="Helvetica,sans-Serif" font-size="10.00">RotateRight</text>
</a>
</g>
</g>
<!-- Node2&#45;&gt;Node8 -->
<g id="edge11_Node000002_Node000008" class="edge">
<title>Node2&#45;&gt;Node8</title>
<g id="a_edge11_Node000002_Node000008"><a xlink:title=" ">
<path fill="none" stroke="#63b8ff" d="M432.91,-109.88C564.31,-101.72 796.22,-87.32 933.13,-78.82"/>
<polygon fill="#63b8ff" stroke="#63b8ff" points="933.18,-82.33 942.94,-78.21 932.74,-75.34 933.18,-82.33"/>
</a>
</g>
</g>
<!-- Node9 -->
<g id="Node000009" class="node">
<title>Node9</title>
<g id="a_Node000009"><a xlink:href="class_data_1_1_hash_function_1_1_farm_hash_1_1_farm_hash_fingerprint128___implementation.html#abccdf48fc1c3705a21db0dd386e1286a" target="_top" xlink:title=" ">
<polygon fill="white" stroke="#666666" points="901,-44 702.75,-44 702.75,0 901,0 901,-44"/>
<text text-anchor="start" x="710.75" y="-30.5" font-family="Helvetica,sans-Serif" font-size="10.00">Data.HashFunction.FarmHash.</text>
<text text-anchor="start" x="710.75" y="-18.5" font-family="Helvetica,sans-Serif" font-size="10.00">FarmHashFingerprint128_Implementation.</text>
<text text-anchor="middle" x="801.88" y="-6.5" font-family="Helvetica,sans-Serif" font-size="10.00">WeakHashLen32WithSeeds</text>
</a>
</g>
</g>
<!-- Node2&#45;&gt;Node9 -->
<g id="edge12_Node000002_Node000009" class="edge">
<title>Node2&#45;&gt;Node9</title>
<g id="a_edge12_Node000002_Node000009"><a xlink:title=" ">
<path fill="none" stroke="#63b8ff" d="M377.29,-93.51C403.05,-81.01 436.86,-66.35 468.5,-58 541.31,-38.78 625.69,-29.8 691.22,-25.61"/>
<polygon fill="#63b8ff" stroke="#63b8ff" points="691.11,-29.12 700.88,-25.02 690.69,-22.14 691.11,-29.12"/>
</a>
</g>
</g>
<!-- Node4 -->
<g id="Node000004" class="node">
<title>Node4</title>
<g id="a_Node000004"><a xlink:href="class_data_1_1_hash_function_1_1_farm_hash_1_1_farm_hash_fingerprint128___implementation.html#a3fa52690f28233df8ae56cbab00bc542" target="_top" xlink:title=" ">
<polygon fill="white" stroke="#666666" points="901,-182 702.75,-182 702.75,-138 901,-138 901,-182"/>
<text text-anchor="start" x="710.75" y="-168.5" font-family="Helvetica,sans-Serif" font-size="10.00">Data.HashFunction.FarmHash.</text>
<text text-anchor="start" x="710.75" y="-156.5" font-family="Helvetica,sans-Serif" font-size="10.00">FarmHashFingerprint128_Implementation.</text>
<text text-anchor="middle" x="801.88" y="-144.5" font-family="Helvetica,sans-Serif" font-size="10.00">HashLen0to16</text>
</a>
</g>
</g>
<!-- Node3&#45;&gt;Node4 -->
<g id="edge3_Node000003_Node000004" class="edge">
<title>Node3&#45;&gt;Node4</title>
<g id="a_edge3_Node000003_Node000004"><a xlink:title=" ">
<path fill="none" stroke="#63b8ff" d="M667.12,-149.06C675.1,-149.71 683.2,-150.37 691.25,-151.03"/>
<polygon fill="#63b8ff" stroke="#63b8ff" points="690.84,-154.51 701.09,-151.84 691.41,-147.53 690.84,-154.51"/>
</a>
</g>
</g>
<!-- Node3&#45;&gt;Node5 -->
<g id="edge8_Node000003_Node000005" class="edge">
<title>Node3&#45;&gt;Node5</title>
<g id="a_edge8_Node000003_Node000005"><a xlink:title=" ">
<path fill="none" stroke="#63b8ff" d="M617.88,-163.43C642.79,-173.71 673.8,-184.94 702.75,-191 778.57,-206.87 865.83,-211.47 933,-212.19"/>
<polygon fill="#63b8ff" stroke="#63b8ff" points="932.91,-215.69 942.94,-212.26 932.96,-208.69 932.91,-215.69"/>
</a>
</g>
</g>
<!-- Node7 -->
<g id="Node000007" class="node">
<title>Node7</title>
<g id="a_Node000007"><a xlink:href="class_data_1_1_hash_function_1_1_farm_hash_1_1_farm_hash_fingerprint128___implementation.html#a2c7a6aea45808cc7f1ba453136095d02" target="_top" xlink:title=" ">
<polygon fill="white" stroke="#666666" points="1151,-157 937,-157 937,-125 1151,-125 1151,-157"/>
<text text-anchor="start" x="945" y="-143.5" font-family="Helvetica,sans-Serif" font-size="10.00">Data.HashFunction.FarmHash.</text>
<text text-anchor="middle" x="1044" y="-131.5" font-family="Helvetica,sans-Serif" font-size="10.00">FarmHashFingerprint128_Implementation.Mix</text>
</a>
</g>
</g>
<!-- Node3&#45;&gt;Node7 -->
<g id="edge9_Node000003_Node000007" class="edge">
<title>Node3&#45;&gt;Node7</title>
<g id="a_edge9_Node000003_Node000007"><a xlink:title=" ">
<path fill="none" stroke="#63b8ff" d="M667.08,-131.18C679.08,-130.28 691.19,-129.52 702.75,-129 790.77,-125.07 812.97,-125.29 901,-129 908.99,-129.34 917.22,-129.78 925.51,-130.3"/>
<polygon fill="#63b8ff" stroke="#63b8ff" points="925.11,-133.78 935.32,-130.94 925.57,-126.79 925.11,-133.78"/>
</a>
</g>
</g>
<!-- Node4&#45;&gt;Node5 -->
<g id="edge4_Node000004_Node000005" class="edge">
<title>Node4&#45;&gt;Node5</title>
<g id="a_edge4_Node000004_Node000005"><a xlink:title=" ">
<path fill="none" stroke="#63b8ff" d="M901.24,-180.48C911.81,-182.68 922.62,-184.93 933.31,-187.16"/>
<polygon fill="#63b8ff" stroke="#63b8ff" points="932.42,-190.55 942.92,-189.16 933.85,-183.7 932.42,-190.55"/>
</a>
</g>
</g>
<!-- Node4&#45;&gt;Node7 -->
<g id="edge6_Node000004_Node000007" class="edge">
<title>Node4&#45;&gt;Node7</title>
<g id="a_edge6_Node000004_Node000007"><a xlink:title=" ">
<path fill="none" stroke="#63b8ff" d="M901.24,-152.22C909.16,-151.59 917.21,-150.95 925.25,-150.32"/>
<polygon fill="#63b8ff" stroke="#63b8ff" points="925.39,-153.82 935.08,-149.54 924.84,-146.84 925.39,-153.82"/>
</a>
</g>
</g>
<!-- Node4&#45;&gt;Node8 -->
<g id="edge7_Node000004_Node000008" class="edge">
<title>Node4&#45;&gt;Node8</title>
<g id="a_edge7_Node000004_Node000008"><a xlink:title=" ">
<path fill="none" stroke="#63b8ff" d="M864.09,-137.57C896.83,-125.57 937.33,-110.73 971.51,-98.2"/>
<polygon fill="#63b8ff" stroke="#63b8ff" points="972.29,-101.64 980.48,-94.91 969.88,-95.07 972.29,-101.64"/>
</a>
</g>
</g>
<!-- Node6 -->
<g id="Node000006" class="node">
<title>Node6</title>
<g id="a_Node000006"><a xlink:href="class_data_1_1_hash_function_1_1_farm_hash_1_1_farm_hash_fingerprint128___implementation.html#a295eba0ca2e0d495d50ba0976cd6c1bb" target="_top" xlink:title=" ">
<polygon fill="white" stroke="#666666" points="1385.25,-232 1187,-232 1187,-188 1385.25,-188 1385.25,-232"/>
<text text-anchor="start" x="1195" y="-218.5" font-family="Helvetica,sans-Serif" font-size="10.00">Data.HashFunction.FarmHash.</text>
<text text-anchor="start" x="1195" y="-206.5" font-family="Helvetica,sans-Serif" font-size="10.00">FarmHashFingerprint128_Implementation.</text>
<text text-anchor="middle" x="1286.12" y="-194.5" font-family="Helvetica,sans-Serif" font-size="10.00">Hash128to64</text>
</a>
</g>
</g>
<!-- Node5&#45;&gt;Node6 -->
<g id="edge5_Node000005_Node000006" class="edge">
<title>Node5&#45;&gt;Node6</title>
<g id="a_edge5_Node000005_Node000006"><a xlink:title=" ">
<path fill="none" stroke="#63b8ff" d="M1143.36,-210C1153.82,-210 1164.51,-210 1175.1,-210"/>
<polygon fill="#63b8ff" stroke="#63b8ff" points="1175.02,-213.5 1185.01,-210 1175.01,-206.5 1175.02,-213.5"/>
</a>
</g>
</g>
<!-- Node9&#45;&gt;Node8 -->
<g id="edge13_Node000009_Node000008" class="edge">
<title>Node9&#45;&gt;Node8</title>
<g id="a_edge13_Node000009_Node000008"><a xlink:title=" ">
<path fill="none" stroke="#63b8ff" d="M901.24,-42.48C911.81,-44.68 922.62,-46.93 933.31,-49.16"/>
<polygon fill="#63b8ff" stroke="#63b8ff" points="932.42,-52.55 942.92,-51.16 933.85,-45.7 932.42,-52.55"/>
</a>
</g>
</g>
</g>
</svg>
