<?xml version="1.0" encoding="UTF-8" standalone="no"?>
<!DOCTYPE svg PUBLIC "-//W3C//DTD SVG 1.1//EN"
 "http://www.w3.org/Graphics/SVG/1.1/DTD/svg11.dtd">
<!-- Generated by graphviz version 12.2.0 (20241103.1931)
 -->
<!-- Title: Data.HashFunction.CityHash.CityHash_Implementation.ComputeHash128 Pages: 1 -->
<svg width="1321pt" height="222pt"
 viewBox="0.00 0.00 1320.50 222.00" xmlns="http://www.w3.org/2000/svg" xmlns:xlink="http://www.w3.org/1999/xlink">
<g id="graph0" class="graph" transform="scale(1 1) rotate(0) translate(4 218)">
<title>Data.HashFunction.CityHash.CityHash_Implementation.ComputeHash128</title>
<!-- Node1 -->
<g id="Node000001" class="node">
<title>Node1</title>
<g id="a_Node000001"><a xlink:title=" ">
<polygon fill="#999999" stroke="#666666" points="172,-135 0,-135 0,-91 172,-91 172,-135"/>
<text text-anchor="start" x="8" y="-121.5" font-family="Helvetica,sans-Serif" font-size="10.00">Data.HashFunction.CityHash.</text>
<text text-anchor="start" x="8" y="-109.5" font-family="Helvetica,sans-Serif" font-size="10.00">CityHash_Implementation.Compute</text>
<text text-anchor="middle" x="86" y="-97.5" font-family="Helvetica,sans-Serif" font-size="10.00">Hash128</text>
</a>
</g>
</g>
<!-- Node2 -->
<g id="Node000002" class="node">
<title>Node2</title>
<g id="a_Node000002"><a xlink:href="class_data_1_1_hash_function_1_1_city_hash_1_1_city_hash___implementation.html#a92d4c0e8db6ecadfeb5497f3f0fe3efb" target="_top" xlink:title=" ">
<polygon fill="white" stroke="#666666" points="397.25,-135 208,-135 208,-91 397.25,-91 397.25,-135"/>
<text text-anchor="start" x="216" y="-121.5" font-family="Helvetica,sans-Serif" font-size="10.00">Data.HashFunction.CityHash.</text>
<text text-anchor="start" x="216" y="-109.5" font-family="Helvetica,sans-Serif" font-size="10.00">CityHash_Implementation.CityHash128</text>
<text text-anchor="middle" x="302.62" y="-97.5" font-family="Helvetica,sans-Serif" font-size="10.00">WithSeed</text>
</a>
</g>
</g>
<!-- Node1&#45;&gt;Node2 -->
<g id="edge1_Node000001_Node000002" class="edge">
<title>Node1&#45;&gt;Node2</title>
<g id="a_edge1_Node000001_Node000002"><a xlink:title=" ">
<path fill="none" stroke="#63b8ff" d="M172.44,-113C180.31,-113 188.34,-113 196.35,-113"/>
<polygon fill="#63b8ff" stroke="#63b8ff" points="196.14,-116.5 206.14,-113 196.14,-109.5 196.14,-116.5"/>
</a>
</g>
</g>
<!-- Node3 -->
<g id="Node000003" class="node">
<title>Node3</title>
<g id="a_Node000003"><a xlink:href="class_data_1_1_hash_function_1_1_city_hash_1_1_city_hash___implementation.html#ad44ecf3b0ac0c86d3791f37b762f4b39" target="_top" xlink:title=" ">
<polygon fill="white" stroke="#666666" points="616.5,-151 433.25,-151 433.25,-119 616.5,-119 616.5,-151"/>
<text text-anchor="start" x="441.25" y="-137.5" font-family="Helvetica,sans-Serif" font-size="10.00">Data.HashFunction.CityHash.</text>
<text text-anchor="middle" x="524.88" y="-125.5" font-family="Helvetica,sans-Serif" font-size="10.00">CityHash_Implementation.CityMurmur</text>
</a>
</g>
</g>
<!-- Node2&#45;&gt;Node3 -->
<g id="edge2_Node000002_Node000003" class="edge">
<title>Node2&#45;&gt;Node3</title>
<g id="a_edge2_Node000002_Node000003"><a xlink:title=" ">
<path fill="none" stroke="#63b8ff" d="M397.67,-122.39C405.62,-123.19 413.68,-123.99 421.68,-124.79"/>
<polygon fill="#63b8ff" stroke="#63b8ff" points="421.14,-128.26 431.44,-125.77 421.84,-121.29 421.14,-128.26"/>
</a>
</g>
</g>
<!-- Node5 -->
<g id="Node000005" class="node">
<title>Node5</title>
<g id="a_Node000005"><a xlink:href="class_data_1_1_hash_function_1_1_city_hash_1_1_city_hash___implementation.html#a44c7f6a47b61dd01499fa3ffd79fba5c" target="_top" xlink:title=" ">
<polygon fill="white" stroke="#666666" points="1086.5,-214 894.25,-214 894.25,-182 1086.5,-182 1086.5,-214"/>
<text text-anchor="start" x="902.25" y="-200.5" font-family="Helvetica,sans-Serif" font-size="10.00">Data.HashFunction.CityHash.</text>
<text text-anchor="middle" x="990.38" y="-188.5" font-family="Helvetica,sans-Serif" font-size="10.00">CityHash_Implementation.Hash64Len16</text>
</a>
</g>
</g>
<!-- Node2&#45;&gt;Node5 -->
<g id="edge10_Node000002_Node000005" class="edge">
<title>Node2&#45;&gt;Node5</title>
<g id="a_edge10_Node000002_Node000005"><a xlink:title=" ">
<path fill="none" stroke="#63b8ff" d="M359.48,-135.39C382.12,-143.9 408.68,-153.18 433.25,-160 528.93,-186.56 553.66,-193.4 652.5,-203 743.52,-211.84 766.82,-204.74 858.25,-203 866.07,-202.85 874.15,-202.65 882.28,-202.42"/>
<polygon fill="#63b8ff" stroke="#63b8ff" points="882.38,-205.92 892.27,-202.12 882.17,-198.92 882.38,-205.92"/>
</a>
</g>
</g>
<!-- Node8 -->
<g id="Node000008" class="node">
<title>Node8</title>
<g id="a_Node000008"><a xlink:href="class_data_1_1_hash_function_1_1_city_hash_1_1_city_hash___implementation.html#a054a2a634a2a60c58844d08986eef674" target="_top" xlink:title=" ">
<polygon fill="white" stroke="#666666" points="1082.75,-88 898,-88 898,-56 1082.75,-56 1082.75,-88"/>
<text text-anchor="start" x="906" y="-74.5" font-family="Helvetica,sans-Serif" font-size="10.00">Data.HashFunction.CityHash.</text>
<text text-anchor="middle" x="990.38" y="-62.5" font-family="Helvetica,sans-Serif" font-size="10.00">CityHash_Implementation.RotateRight</text>
</a>
</g>
</g>
<!-- Node2&#45;&gt;Node8 -->
<g id="edge11_Node000002_Node000008" class="edge">
<title>Node2&#45;&gt;Node8</title>
<g id="a_edge11_Node000002_Node000008"><a xlink:title=" ">
<path fill="none" stroke="#63b8ff" d="M397.54,-107.39C525.5,-99.73 753.82,-86.08 886.35,-78.16"/>
<polygon fill="#63b8ff" stroke="#63b8ff" points="886.41,-81.66 896.18,-77.57 885.99,-74.68 886.41,-81.66"/>
</a>
</g>
</g>
<!-- Node9 -->
<g id="Node000009" class="node">
<title>Node9</title>
<g id="a_Node000009"><a xlink:href="class_data_1_1_hash_function_1_1_city_hash_1_1_city_hash___implementation.html#ad6f6b8fbd54cc87e4cc63bd5b9772bfd" target="_top" xlink:title=" ">
<polygon fill="white" stroke="#666666" points="845.5,-44 665.25,-44 665.25,0 845.5,0 845.5,-44"/>
<text text-anchor="start" x="673.25" y="-30.5" font-family="Helvetica,sans-Serif" font-size="10.00">Data.HashFunction.CityHash.</text>
<text text-anchor="start" x="673.25" y="-18.5" font-family="Helvetica,sans-Serif" font-size="10.00">CityHash_Implementation.WeakHash</text>
<text text-anchor="middle" x="755.38" y="-6.5" font-family="Helvetica,sans-Serif" font-size="10.00">Len32WithSeeds</text>
</a>
</g>
</g>
<!-- Node2&#45;&gt;Node9 -->
<g id="edge12_Node000002_Node000009" class="edge">
<title>Node2&#45;&gt;Node9</title>
<g id="a_edge12_Node000002_Node000009"><a xlink:title=" ">
<path fill="none" stroke="#63b8ff" d="M347.5,-90.62C372.09,-79.05 403.69,-65.75 433.25,-58 505.56,-39.04 589.59,-30.06 653.56,-25.81"/>
<polygon fill="#63b8ff" stroke="#63b8ff" points="653.59,-29.32 663.35,-25.2 653.14,-22.33 653.59,-29.32"/>
</a>
</g>
</g>
<!-- Node4 -->
<g id="Node000004" class="node">
<title>Node4</title>
<g id="a_Node000004"><a xlink:href="class_data_1_1_hash_function_1_1_city_hash_1_1_city_hash___implementation.html#ace2758fca35c5ac5a5698e2f1a4aa513" target="_top" xlink:title=" ">
<polygon fill="white" stroke="#666666" points="858.25,-170 652.5,-170 652.5,-138 858.25,-138 858.25,-170"/>
<text text-anchor="start" x="660.5" y="-156.5" font-family="Helvetica,sans-Serif" font-size="10.00">Data.HashFunction.CityHash.</text>
<text text-anchor="middle" x="755.38" y="-144.5" font-family="Helvetica,sans-Serif" font-size="10.00">CityHash_Implementation.Hash64Len0to16</text>
</a>
</g>
</g>
<!-- Node3&#45;&gt;Node4 -->
<g id="edge3_Node000003_Node000004" class="edge">
<title>Node3&#45;&gt;Node4</title>
<g id="a_edge3_Node000003_Node000004"><a xlink:title=" ">
<path fill="none" stroke="#63b8ff" d="M616.84,-142.56C624.71,-143.22 632.73,-143.88 640.75,-144.55"/>
<polygon fill="#63b8ff" stroke="#63b8ff" points="640.3,-148.03 650.55,-145.37 640.88,-141.05 640.3,-148.03"/>
</a>
</g>
</g>
<!-- Node3&#45;&gt;Node5 -->
<g id="edge8_Node000003_Node000005" class="edge">
<title>Node3&#45;&gt;Node5</title>
<g id="a_edge8_Node000003_Node000005"><a xlink:title=" ">
<path fill="none" stroke="#63b8ff" d="M564.17,-151.44C588.9,-161.26 622.02,-172.97 652.5,-179 728.55,-194.05 816,-198.62 882.74,-199.52"/>
<polygon fill="#63b8ff" stroke="#63b8ff" points="882.56,-203.02 892.6,-199.62 882.63,-196.02 882.56,-203.02"/>
</a>
</g>
</g>
<!-- Node7 -->
<g id="Node000007" class="node">
<title>Node7</title>
<g id="a_Node000007"><a xlink:href="class_data_1_1_hash_function_1_1_city_hash_1_1_city_hash___implementation.html#ac2fa0ddcbf5ad593d0830669e41bf93c" target="_top" xlink:title=" ">
<polygon fill="white" stroke="#666666" points="1064.38,-151 916.38,-151 916.38,-119 1064.38,-119 1064.38,-151"/>
<text text-anchor="start" x="924.38" y="-137.5" font-family="Helvetica,sans-Serif" font-size="10.00">Data.HashFunction.CityHash.</text>
<text text-anchor="middle" x="990.38" y="-125.5" font-family="Helvetica,sans-Serif" font-size="10.00">CityHash_Implementation.Mix</text>
</a>
</g>
</g>
<!-- Node3&#45;&gt;Node7 -->
<g id="edge9_Node000003_Node000007" class="edge">
<title>Node3&#45;&gt;Node7</title>
<g id="a_edge9_Node000003_Node000007"><a xlink:title=" ">
<path fill="none" stroke="#63b8ff" d="M616.81,-130.17C628.81,-129.69 640.95,-129.27 652.5,-129 743.92,-126.84 766.83,-126.91 858.25,-129 873.28,-129.34 889.28,-129.91 904.74,-130.56"/>
<polygon fill="#63b8ff" stroke="#63b8ff" points="904.23,-134.04 914.37,-130.98 904.53,-127.05 904.23,-134.04"/>
</a>
</g>
</g>
<!-- Node4&#45;&gt;Node5 -->
<g id="edge4_Node000004_Node000005" class="edge">
<title>Node4&#45;&gt;Node5</title>
<g id="a_edge4_Node000004_Node000005"><a xlink:title=" ">
<path fill="none" stroke="#63b8ff" d="M843.47,-170.45C859.01,-173.38 875.3,-176.46 891.13,-179.45"/>
<polygon fill="#63b8ff" stroke="#63b8ff" points="890.04,-182.8 900.51,-181.22 891.34,-175.92 890.04,-182.8"/>
</a>
</g>
</g>
<!-- Node4&#45;&gt;Node7 -->
<g id="edge6_Node000004_Node000007" class="edge">
<title>Node4&#45;&gt;Node7</title>
<g id="a_edge6_Node000004_Node000007"><a xlink:title=" ">
<path fill="none" stroke="#63b8ff" d="M858.57,-145.67C873.97,-144.41 889.7,-143.13 904.67,-141.91"/>
<polygon fill="#63b8ff" stroke="#63b8ff" points="904.77,-145.41 914.45,-141.11 904.2,-138.43 904.77,-145.41"/>
</a>
</g>
</g>
<!-- Node4&#45;&gt;Node8 -->
<g id="edge7_Node000004_Node000008" class="edge">
<title>Node4&#45;&gt;Node8</title>
<g id="a_edge7_Node000004_Node000008"><a xlink:title=" ">
<path fill="none" stroke="#63b8ff" d="M803.25,-137.5C840.29,-124.47 892.18,-106.21 931.76,-92.28"/>
<polygon fill="#63b8ff" stroke="#63b8ff" points="932.88,-95.59 941.15,-88.97 930.56,-88.99 932.88,-95.59"/>
</a>
</g>
</g>
<!-- Node6 -->
<g id="Node000006" class="node">
<title>Node6</title>
<g id="a_Node000006"><a xlink:href="class_data_1_1_hash_function_1_1_city_hash_1_1_city_hash___implementation.html#a45aa0a22c0153b96e93044b4becadaff" target="_top" xlink:title=" ">
<polygon fill="white" stroke="#666666" points="1312.5,-214 1122.5,-214 1122.5,-182 1312.5,-182 1312.5,-214"/>
<text text-anchor="start" x="1130.5" y="-200.5" font-family="Helvetica,sans-Serif" font-size="10.00">Data.HashFunction.CityHash.</text>
<text text-anchor="middle" x="1217.5" y="-188.5" font-family="Helvetica,sans-Serif" font-size="10.00">CityHash_Implementation.Hash128to64</text>
</a>
</g>
</g>
<!-- Node5&#45;&gt;Node6 -->
<g id="edge5_Node000005_Node000006" class="edge">
<title>Node5&#45;&gt;Node6</title>
<g id="a_edge5_Node000005_Node000006"><a xlink:title=" ">
<path fill="none" stroke="#63b8ff" d="M1086.85,-198C1094.83,-198 1102.93,-198 1110.98,-198"/>
<polygon fill="#63b8ff" stroke="#63b8ff" points="1110.8,-201.5 1120.8,-198 1110.8,-194.5 1110.8,-201.5"/>
</a>
</g>
</g>
<!-- Node9&#45;&gt;Node8 -->
<g id="edge13_Node000009_Node000008" class="edge">
<title>Node9&#45;&gt;Node8</title>
<g id="a_edge13_Node000009_Node000008"><a xlink:title=" ">
<path fill="none" stroke="#63b8ff" d="M845.79,-41.19C864.07,-45.11 883.29,-49.24 901.52,-53.15"/>
<polygon fill="#63b8ff" stroke="#63b8ff" points="900.73,-56.56 911.24,-55.23 902.2,-49.71 900.73,-56.56"/>
</a>
</g>
</g>
</g>
</svg>
