<?xml version="1.0" encoding="UTF-8" standalone="no"?>
<!DOCTYPE svg PUBLIC "-//W3C//DTD SVG 1.1//EN"
 "http://www.w3.org/Graphics/SVG/1.1/DTD/svg11.dtd">
<!-- Generated by graphviz version 12.2.0 (20241103.1931)
 -->
<!-- Title: Data.HashFunction.Jenkins.JenkinsLookup2_Implementation Pages: 1 -->
<svg width="266pt" height="264pt"
 viewBox="0.00 0.00 266.00 264.00" xmlns="http://www.w3.org/2000/svg" xmlns:xlink="http://www.w3.org/1999/xlink">
<g id="graph0" class="graph" transform="scale(1 1) rotate(0) translate(4 260)">
<title>Data.HashFunction.Jenkins.JenkinsLookup2_Implementation</title>
<!-- Node1 -->
<g id="Node000001" class="node">
<title>Node1</title>
<g id="a_Node000001"><a xlink:title=" ">
<polygon fill="#999999" stroke="#666666" points="212.62,-32 54.12,-32 54.12,0 212.62,0 212.62,-32"/>
<text text-anchor="start" x="62.12" y="-18.5" font-family="Helvetica,sans-Serif" font-size="10.00">Data.HashFunction.Jenkins.</text>
<text text-anchor="middle" x="133.38" y="-6.5" font-family="Helvetica,sans-Serif" font-size="10.00">JenkinsLookup2_Implementation</text>
</a>
</g>
</g>
<!-- Node2 -->
<g id="Node000002" class="node">
<title>Node2</title>
<g id="a_Node000002"><a xlink:href="class_data_1_1_hash_function_1_1_core_1_1_streamable_hash_function_base.html" target="_top" xlink:title="Common interface to non&#45;cryptographic hash functions that can be computed over a stream of data witho...">
<polygon fill="white" stroke="#666666" points="148.75,-144 0,-144 0,-124 148.75,-124 148.75,-144"/>
<text text-anchor="middle" x="74.38" y="-130.5" font-family="Helvetica,sans-Serif" font-size="10.00">StreamableHashFunctionBase</text>
</a>
</g>
</g>
<!-- Node2&#45;&gt;Node1 -->
<g id="edge1_Node000001_Node000002" class="edge">
<title>Node2&#45;&gt;Node1</title>
<g id="a_edge1_Node000001_Node000002"><a xlink:title=" ">
<path fill="none" stroke="#63b8ff" d="M84.39,-113.3C96.02,-90.45 114.93,-53.26 125.54,-32.41"/>
<polygon fill="#63b8ff" stroke="#63b8ff" points="81.3,-111.66 79.89,-122.16 87.54,-114.83 81.3,-111.66"/>
</a>
</g>
</g>
<!-- Node3 -->
<g id="Node000003" class="node">
<title>Node3</title>
<g id="a_Node000003"><a xlink:href="class_data_1_1_hash_function_1_1_core_1_1_hash_function_base.html" target="_top" xlink:title="Abstract implementation of an IHashFunction. Provides convenience checks and ensures a default HashSi...">
<polygon fill="white" stroke="#666666" points="111,-200 11.75,-200 11.75,-180 111,-180 111,-200"/>
<text text-anchor="middle" x="61.38" y="-186.5" font-family="Helvetica,sans-Serif" font-size="10.00">HashFunctionBase</text>
</a>
</g>
</g>
<!-- Node3&#45;&gt;Node2 -->
<g id="edge2_Node000002_Node000003" class="edge">
<title>Node3&#45;&gt;Node2</title>
<g id="a_edge2_Node000002_Node000003"><a xlink:title=" ">
<path fill="none" stroke="#63b8ff" d="M66.33,-168.43C68.33,-160.11 70.54,-150.93 72.14,-144.3"/>
<polygon fill="#63b8ff" stroke="#63b8ff" points="62.93,-167.58 63.99,-178.12 69.74,-169.22 62.93,-167.58"/>
</a>
</g>
</g>
<!-- Node4 -->
<g id="Node000004" class="node">
<title>Node4</title>
<g id="a_Node000004"><a xlink:href="interface_data_1_1_hash_function_1_1_i_hash_function.html" target="_top" xlink:title="Common interface to non&#45;cryptographic hash functions.">
<polygon fill="white" stroke="#666666" points="167.25,-256 87.5,-256 87.5,-236 167.25,-236 167.25,-256"/>
<text text-anchor="middle" x="127.38" y="-242.5" font-family="Helvetica,sans-Serif" font-size="10.00">IHashFunction</text>
</a>
</g>
</g>
<!-- Node4&#45;&gt;Node3 -->
<g id="edge3_Node000003_Node000004" class="edge">
<title>Node4&#45;&gt;Node3</title>
<g id="a_edge3_Node000003_Node000004"><a xlink:title=" ">
<path fill="none" stroke="#63b8ff" d="M107.09,-228.4C95.8,-219.17 82.16,-208.01 72.74,-200.3"/>
<polygon fill="#63b8ff" stroke="#63b8ff" points="104.75,-231.01 114.71,-234.64 109.18,-225.59 104.75,-231.01"/>
</a>
</g>
</g>
<!-- Node5 -->
<g id="Node000005" class="node">
<title>Node5</title>
<g id="a_Node000005"><a xlink:href="interface_data_1_1_hash_function_1_1_i_streamable_hash_function.html" target="_top" xlink:title="Common interface to non&#45;cryptographic hash functions that can be computed over a stream of data witho...">
<polygon fill="white" stroke="#666666" points="258,-200 128.75,-200 128.75,-180 258,-180 258,-200"/>
<text text-anchor="middle" x="193.38" y="-186.5" font-family="Helvetica,sans-Serif" font-size="10.00">IStreamableHashFunction</text>
</a>
</g>
</g>
<!-- Node4&#45;&gt;Node5 -->
<g id="edge5_Node000005_Node000004" class="edge">
<title>Node4&#45;&gt;Node5</title>
<g id="a_edge5_Node000005_Node000004"><a xlink:title=" ">
<path fill="none" stroke="#63b8ff" d="M147.66,-228.4C158.95,-219.17 172.59,-208.01 182.01,-200.3"/>
<polygon fill="#63b8ff" stroke="#63b8ff" points="145.57,-225.59 140.04,-234.64 150,-231.01 145.57,-225.59"/>
</a>
</g>
</g>
<!-- Node5&#45;&gt;Node2 -->
<g id="edge4_Node000002_Node000005" class="edge">
<title>Node5&#45;&gt;Node2</title>
<g id="a_edge4_Node000002_Node000005"><a xlink:title=" ">
<path fill="none" stroke="#63b8ff" d="M162.25,-174.88C141.14,-165.3 113.8,-152.89 95.26,-144.48"/>
<polygon fill="#63b8ff" stroke="#63b8ff" points="160.72,-178.02 171.27,-178.97 163.61,-171.65 160.72,-178.02"/>
</a>
</g>
</g>
<!-- Node7 -->
<g id="Node000007" class="node">
<title>Node7</title>
<g id="a_Node000007"><a xlink:href="interface_data_1_1_hash_function_1_1_jenkins_1_1_i_jenkins.html" target="_top" xlink:title="Implementation of Bob Jenkins&#39; One at a Time, Lookup2, or Lookup3 hash function as specified at http:...">
<polygon fill="white" stroke="#666666" points="219.75,-144 167,-144 167,-124 219.75,-124 219.75,-144"/>
<text text-anchor="middle" x="193.38" y="-130.5" font-family="Helvetica,sans-Serif" font-size="10.00">IJenkins</text>
</a>
</g>
</g>
<!-- Node5&#45;&gt;Node7 -->
<g id="edge8_Node000007_Node000005" class="edge">
<title>Node5&#45;&gt;Node7</title>
<g id="a_edge8_Node000007_Node000005"><a xlink:title=" ">
<path fill="none" stroke="#63b8ff" d="M193.38,-168.13C193.38,-159.9 193.38,-150.85 193.38,-144.3"/>
<polygon fill="#63b8ff" stroke="#63b8ff" points="189.88,-168.08 193.38,-178.08 196.88,-168.08 189.88,-168.08"/>
</a>
</g>
</g>
<!-- Node6 -->
<g id="Node000006" class="node">
<title>Node6</title>
<g id="a_Node000006"><a xlink:href="interface_data_1_1_hash_function_1_1_jenkins_1_1_i_jenkins_lookup2.html" target="_top" xlink:title="Implementation of Bob Jenkins&#39; Lookup2 hash function as specified at http://burtleburtle....">
<polygon fill="white" stroke="#666666" points="226.12,-88 136.62,-88 136.62,-68 226.12,-68 226.12,-88"/>
<text text-anchor="middle" x="181.38" y="-74.5" font-family="Helvetica,sans-Serif" font-size="10.00">IJenkinsLookup2</text>
</a>
</g>
</g>
<!-- Node6&#45;&gt;Node1 -->
<g id="edge6_Node000001_Node000006" class="edge">
<title>Node6&#45;&gt;Node1</title>
<g id="a_edge6_Node000001_Node000006"><a xlink:title=" ">
<path fill="none" stroke="#63b8ff" d="M166.84,-58.83C160.01,-50.3 151.97,-40.25 145.49,-32.14"/>
<polygon fill="#63b8ff" stroke="#63b8ff" points="163.95,-60.82 172.93,-66.44 169.42,-56.45 163.95,-60.82"/>
</a>
</g>
</g>
<!-- Node7&#45;&gt;Node6 -->
<g id="edge7_Node000006_Node000007" class="edge">
<title>Node7&#45;&gt;Node6</title>
<g id="a_edge7_Node000006_Node000007"><a xlink:title=" ">
<path fill="none" stroke="#63b8ff" d="M188.8,-112.43C186.95,-104.11 184.92,-94.93 183.44,-88.3"/>
<polygon fill="#63b8ff" stroke="#63b8ff" points="185.37,-113.11 190.96,-122.12 192.2,-111.6 185.37,-113.11"/>
</a>
</g>
</g>
</g>
</svg>
