<?xml version="1.0" encoding="UTF-8" standalone="no"?>
<!DOCTYPE svg PUBLIC "-//W3C//DTD SVG 1.1//EN"
 "http://www.w3.org/Graphics/SVG/1.1/DTD/svg11.dtd">
<!-- Generated by graphviz version 12.2.0 (20241103.1931)
 -->
<!-- Title: Data.HashFunction.MetroHash.MetroHash64_Implementation Pages: 1 -->
<svg width="278pt" height="208pt"
 viewBox="0.00 0.00 278.00 208.00" xmlns="http://www.w3.org/2000/svg" xmlns:xlink="http://www.w3.org/1999/xlink">
<g id="graph0" class="graph" transform="scale(1 1) rotate(0) translate(4 204)">
<title>Data.HashFunction.MetroHash.MetroHash64_Implementation</title>
<!-- Node1 -->
<g id="Node000001" class="node">
<title>Node1</title>
<g id="a_Node000001"><a xlink:title=" ">
<polygon fill="#999999" stroke="#666666" points="216.75,-32 62,-32 62,0 216.75,0 216.75,-32"/>
<text text-anchor="start" x="70" y="-18.5" font-family="Helvetica,sans-Serif" font-size="10.00">Data.HashFunction.MetroHash.</text>
<text text-anchor="middle" x="139.38" y="-6.5" font-family="Helvetica,sans-Serif" font-size="10.00">MetroHash64_Implementation</text>
</a>
</g>
</g>
<!-- Node2 -->
<g id="Node000002" class="node">
<title>Node2</title>
<g id="a_Node000002"><a xlink:href="class_data_1_1_hash_function_1_1_core_1_1_streamable_hash_function_base.html" target="_top" xlink:title="Common interface to non&#45;cryptographic hash functions that can be computed over a stream of data witho...">
<polygon fill="white" stroke="#666666" points="148.75,-88 0,-88 0,-68 148.75,-68 148.75,-88"/>
<text text-anchor="middle" x="74.38" y="-74.5" font-family="Helvetica,sans-Serif" font-size="10.00">StreamableHashFunctionBase</text>
</a>
</g>
</g>
<!-- Node2&#45;&gt;Node1 -->
<g id="edge1_Node000001_Node000002" class="edge">
<title>Node2&#45;&gt;Node1</title>
<g id="a_edge1_Node000001_Node000002"><a xlink:title=" ">
<path fill="none" stroke="#63b8ff" d="M92.82,-59.98C102.23,-51.29 113.58,-40.81 122.72,-32.37"/>
<polygon fill="#63b8ff" stroke="#63b8ff" points="90.62,-57.24 85.64,-66.6 95.37,-62.39 90.62,-57.24"/>
</a>
</g>
</g>
<!-- Node3 -->
<g id="Node000003" class="node">
<title>Node3</title>
<g id="a_Node000003"><a xlink:href="class_data_1_1_hash_function_1_1_core_1_1_hash_function_base.html" target="_top" xlink:title="Abstract implementation of an IHashFunction. Provides convenience checks and ensures a default HashSi...">
<polygon fill="white" stroke="#666666" points="123,-144 23.75,-144 23.75,-124 123,-124 123,-144"/>
<text text-anchor="middle" x="73.38" y="-130.5" font-family="Helvetica,sans-Serif" font-size="10.00">HashFunctionBase</text>
</a>
</g>
</g>
<!-- Node3&#45;&gt;Node2 -->
<g id="edge2_Node000002_Node000003" class="edge">
<title>Node3&#45;&gt;Node2</title>
<g id="a_edge2_Node000002_Node000003"><a xlink:title=" ">
<path fill="none" stroke="#63b8ff" d="M73.76,-112.13C73.91,-103.9 74.08,-94.85 74.2,-88.3"/>
<polygon fill="#63b8ff" stroke="#63b8ff" points="70.26,-112.02 73.58,-122.08 77.26,-112.15 70.26,-112.02"/>
</a>
</g>
</g>
<!-- Node4 -->
<g id="Node000004" class="node">
<title>Node4</title>
<g id="a_Node000004"><a xlink:href="interface_data_1_1_hash_function_1_1_i_hash_function.html" target="_top" xlink:title="Common interface to non&#45;cryptographic hash functions.">
<polygon fill="white" stroke="#666666" points="179.25,-200 99.5,-200 99.5,-180 179.25,-180 179.25,-200"/>
<text text-anchor="middle" x="139.38" y="-186.5" font-family="Helvetica,sans-Serif" font-size="10.00">IHashFunction</text>
</a>
</g>
</g>
<!-- Node4&#45;&gt;Node3 -->
<g id="edge3_Node000003_Node000004" class="edge">
<title>Node4&#45;&gt;Node3</title>
<g id="a_edge3_Node000003_Node000004"><a xlink:title=" ">
<path fill="none" stroke="#63b8ff" d="M119.09,-172.4C107.8,-163.17 94.16,-152.01 84.74,-144.3"/>
<polygon fill="#63b8ff" stroke="#63b8ff" points="116.75,-175.01 126.71,-178.64 121.18,-169.59 116.75,-175.01"/>
</a>
</g>
</g>
<!-- Node5 -->
<g id="Node000005" class="node">
<title>Node5</title>
<g id="a_Node000005"><a xlink:href="interface_data_1_1_hash_function_1_1_i_streamable_hash_function.html" target="_top" xlink:title="Common interface to non&#45;cryptographic hash functions that can be computed over a stream of data witho...">
<polygon fill="white" stroke="#666666" points="270,-144 140.75,-144 140.75,-124 270,-124 270,-144"/>
<text text-anchor="middle" x="205.38" y="-130.5" font-family="Helvetica,sans-Serif" font-size="10.00">IStreamableHashFunction</text>
</a>
</g>
</g>
<!-- Node4&#45;&gt;Node5 -->
<g id="edge5_Node000005_Node000004" class="edge">
<title>Node4&#45;&gt;Node5</title>
<g id="a_edge5_Node000005_Node000004"><a xlink:title=" ">
<path fill="none" stroke="#63b8ff" d="M159.66,-172.4C170.95,-163.17 184.59,-152.01 194.01,-144.3"/>
<polygon fill="#63b8ff" stroke="#63b8ff" points="157.57,-169.59 152.04,-178.64 162,-175.01 157.57,-169.59"/>
</a>
</g>
</g>
<!-- Node5&#45;&gt;Node2 -->
<g id="edge4_Node000002_Node000005" class="edge">
<title>Node5&#45;&gt;Node2</title>
<g id="a_edge4_Node000002_Node000005"><a xlink:title=" ">
<path fill="none" stroke="#63b8ff" d="M172.07,-119.27C148.7,-109.64 118.06,-97.01 97.37,-88.48"/>
<polygon fill="#63b8ff" stroke="#63b8ff" points="170.58,-122.44 181.16,-123.02 173.25,-115.97 170.58,-122.44"/>
</a>
</g>
</g>
<!-- Node6 -->
<g id="Node000006" class="node">
<title>Node6</title>
<g id="a_Node000006"><a xlink:href="interface_data_1_1_hash_function_1_1_metro_hash_1_1_i_metro_hash64.html" target="_top" xlink:title="Implementation of MetroHash64 as specified at https://github.com/jandrewrogers/MetroHash.">
<polygon fill="white" stroke="#666666" points="244.12,-88 166.62,-88 166.62,-68 244.12,-68 244.12,-88"/>
<text text-anchor="middle" x="205.38" y="-74.5" font-family="Helvetica,sans-Serif" font-size="10.00">IMetroHash64</text>
</a>
</g>
</g>
<!-- Node5&#45;&gt;Node6 -->
<g id="edge7_Node000006_Node000005" class="edge">
<title>Node5&#45;&gt;Node6</title>
<g id="a_edge7_Node000006_Node000005"><a xlink:title=" ">
<path fill="none" stroke="#63b8ff" d="M205.38,-112.13C205.38,-103.9 205.38,-94.85 205.38,-88.3"/>
<polygon fill="#63b8ff" stroke="#63b8ff" points="201.88,-112.08 205.38,-122.08 208.88,-112.08 201.88,-112.08"/>
</a>
</g>
</g>
<!-- Node6&#45;&gt;Node1 -->
<g id="edge6_Node000001_Node000006" class="edge">
<title>Node6&#45;&gt;Node1</title>
<g id="a_edge6_Node000001_Node000006"><a xlink:title=" ">
<path fill="none" stroke="#63b8ff" d="M186.65,-59.98C177.1,-51.29 165.57,-40.81 156.29,-32.37"/>
<polygon fill="#63b8ff" stroke="#63b8ff" points="184.19,-62.47 193.94,-66.61 188.9,-57.29 184.19,-62.47"/>
</a>
</g>
</g>
</g>
</svg>
