<?xml version="1.0" encoding="UTF-8" standalone="no"?>
<!DOCTYPE svg PUBLIC "-//W3C//DTD SVG 1.1//EN"
 "http://www.w3.org/Graphics/SVG/1.1/DTD/svg11.dtd">
<!-- Generated by graphviz version 12.2.0 (20241103.1931)
 -->
<!-- Title: Data.HashFunction.Core.BlockTransformerBase.ThrowIfCorrupted Pages: 1 -->
<svg width="389pt" height="190pt"
 viewBox="0.00 0.00 388.75 190.00" xmlns="http://www.w3.org/2000/svg" xmlns:xlink="http://www.w3.org/1999/xlink">
<g id="graph0" class="graph" transform="scale(1 1) rotate(0) translate(4 186)">
<title>Data.HashFunction.Core.BlockTransformerBase.ThrowIfCorrupted</title>
<!-- Node1 -->
<g id="Node000001" class="node">
<title>Node1</title>
<g id="a_Node000001"><a xlink:title="Throws an InvalidOperationException if this transformer is marked as being corrupted.">
<polygon fill="#999999" stroke="#666666" points="380.75,-107 211,-107 211,-75 380.75,-75 380.75,-107"/>
<text text-anchor="start" x="219" y="-93.5" font-family="Helvetica,sans-Serif" font-size="10.00">Data.HashFunction.Core.Block</text>
<text text-anchor="middle" x="295.88" y="-81.5" font-family="Helvetica,sans-Serif" font-size="10.00">TransformerBase.ThrowIfCorrupted</text>
</a>
</g>
</g>
<!-- Node2 -->
<g id="Node000002" class="node">
<title>Node2</title>
<g id="a_Node000002"><a xlink:href="class_data_1_1_hash_function_1_1_core_1_1_block_transformer_base.html#a478ee7c40b503878cbe2100eb49b0617" target="_top" xlink:title="Clones this transformer&#39;s internal state to a new, unassociated instance of this transformer.">
<polygon fill="white" stroke="#666666" points="163.75,-182 11.25,-182 11.25,-150 163.75,-150 163.75,-182"/>
<text text-anchor="start" x="19.25" y="-168.5" font-family="Helvetica,sans-Serif" font-size="10.00">Data.HashFunction.Core.Block</text>
<text text-anchor="middle" x="87.5" y="-156.5" font-family="Helvetica,sans-Serif" font-size="10.00">TransformerBase.Clone</text>
</a>
</g>
</g>
<!-- Node1&#45;&gt;Node2 -->
<g id="edge1_Node000001_Node000002" class="edge">
<title>Node1&#45;&gt;Node2</title>
<g id="a_edge1_Node000001_Node000002"><a xlink:title=" ">
<path fill="none" stroke="#63b8ff" d="M248.19,-111.93C226.21,-121.4 199.5,-132.38 175,-141 166.59,-143.96 157.64,-146.84 148.81,-149.53"/>
<polygon fill="#63b8ff" stroke="#63b8ff" points="249.41,-115.21 257.18,-108.02 246.62,-108.79 249.41,-115.21"/>
</a>
</g>
</g>
<!-- Node3 -->
<g id="Node000003" class="node">
<title>Node3</title>
<g id="a_Node000003"><a xlink:href="class_data_1_1_hash_function_1_1_core_1_1_block_transformer_base.html#ac8846ba3bdadaa7c16b943dfc467c3e1" target="_top" xlink:title="Completes any finalization processing and returns the resulting IHashValue.">
<polygon fill="white" stroke="#666666" points="175,-132 0,-132 0,-100 175,-100 175,-132"/>
<text text-anchor="start" x="8" y="-118.5" font-family="Helvetica,sans-Serif" font-size="10.00">Data.HashFunction.Core.Block</text>
<text text-anchor="middle" x="87.5" y="-106.5" font-family="Helvetica,sans-Serif" font-size="10.00">TransformerBase.FinalizeHashValue</text>
</a>
</g>
</g>
<!-- Node1&#45;&gt;Node3 -->
<g id="edge2_Node000001_Node000003" class="edge">
<title>Node1&#45;&gt;Node3</title>
<g id="a_edge2_Node000001_Node000003"><a xlink:title=" ">
<path fill="none" stroke="#63b8ff" d="M199.42,-102.56C191.44,-103.53 183.4,-104.5 175.48,-105.46"/>
<polygon fill="#63b8ff" stroke="#63b8ff" points="199.63,-106.06 209.13,-101.39 198.79,-99.11 199.63,-106.06"/>
</a>
</g>
</g>
<!-- Node4 -->
<g id="Node000004" class="node">
<title>Node4</title>
<g id="a_Node000004"><a xlink:href="class_data_1_1_hash_function_1_1_core_1_1_block_transformer_base.html#ad0623fbb3dbab6fa0fa8526f8019d704" target="_top" xlink:title="Updates the internal state of this transformer with the given data.">
<polygon fill="white" stroke="#666666" points="169.38,-82 5.62,-82 5.62,-50 169.38,-50 169.38,-82"/>
<text text-anchor="start" x="13.62" y="-68.5" font-family="Helvetica,sans-Serif" font-size="10.00">Data.HashFunction.Core.Block</text>
<text text-anchor="middle" x="87.5" y="-56.5" font-family="Helvetica,sans-Serif" font-size="10.00">TransformerBase.TransformBytes</text>
</a>
</g>
</g>
<!-- Node1&#45;&gt;Node4 -->
<g id="edge3_Node000001_Node000004" class="edge">
<title>Node1&#45;&gt;Node4</title>
<g id="a_edge3_Node000001_Node000004"><a xlink:title=" ">
<path fill="none" stroke="#63b8ff" d="M199.49,-79.45C189.57,-78.24 179.55,-77.03 169.8,-75.85"/>
<polygon fill="#63b8ff" stroke="#63b8ff" points="198.79,-82.89 209.13,-80.61 199.63,-75.94 198.79,-82.89"/>
</a>
</g>
</g>
<!-- Node5 -->
<g id="Node000005" class="node">
<title>Node5</title>
<g id="a_Node000005"><a xlink:href="class_data_1_1_hash_function_1_1_core_1_1_block_transformer_base.html#a40e6624bb6c6355e78ed1188e8444ff1" target="_top" xlink:title="Updates the internal state of this transformer with the given data.">
<polygon fill="white" stroke="#666666" points="169.38,-32 5.62,-32 5.62,0 169.38,0 169.38,-32"/>
<text text-anchor="start" x="13.62" y="-18.5" font-family="Helvetica,sans-Serif" font-size="10.00">Data.HashFunction.Core.Block</text>
<text text-anchor="middle" x="87.5" y="-6.5" font-family="Helvetica,sans-Serif" font-size="10.00">TransformerBase.TransformBytes</text>
</a>
</g>
</g>
<!-- Node1&#45;&gt;Node5 -->
<g id="edge4_Node000001_Node000005" class="edge">
<title>Node1&#45;&gt;Node5</title>
<g id="a_edge4_Node000001_Node000005"><a xlink:title=" ">
<path fill="none" stroke="#63b8ff" d="M248.19,-70.07C226.21,-60.6 199.5,-49.62 175,-41 166.59,-38.04 157.64,-35.16 148.81,-32.47"/>
<polygon fill="#63b8ff" stroke="#63b8ff" points="246.62,-73.21 257.18,-73.98 249.41,-66.79 246.62,-73.21"/>
</a>
</g>
</g>
</g>
</svg>
