<?xml version="1.0" encoding="UTF-8" standalone="no"?>
<!DOCTYPE svg PUBLIC "-//W3C//DTD SVG 1.1//EN"
 "http://www.w3.org/Graphics/SVG/1.1/DTD/svg11.dtd">
<!-- Generated by graphviz version 12.2.0 (20241103.1931)
 -->
<!-- Title: Data.HashFunction.Blake3.Blake3_Implementation.ComputeHashInternal Pages: 1 -->
<svg width="943pt" height="776pt"
 viewBox="0.00 0.00 943.00 776.00" xmlns="http://www.w3.org/2000/svg" xmlns:xlink="http://www.w3.org/1999/xlink">
<g id="graph0" class="graph" transform="scale(1 1) rotate(0) translate(4 772)">
<title>Data.HashFunction.Blake3.Blake3_Implementation.ComputeHashInternal</title>
<!-- Node1 -->
<g id="Node000001" class="node">
<title>Node1</title>
<g id="a_Node000001"><a xlink:title=" ">
<polygon fill="#999999" stroke="#666666" points="184,-394 0,-394 0,-350 184,-350 184,-394"/>
<text text-anchor="start" x="8" y="-380.5" font-family="Helvetica,sans-Serif" font-size="10.00">Data.HashFunction.Blake3.</text>
<text text-anchor="start" x="8" y="-368.5" font-family="Helvetica,sans-Serif" font-size="10.00">Blake3_Implementation.ComputeHash</text>
<text text-anchor="middle" x="92" y="-356.5" font-family="Helvetica,sans-Serif" font-size="10.00">Internal</text>
</a>
</g>
</g>
<!-- Node2 -->
<g id="Node000002" class="node">
<title>Node2</title>
<g id="a_Node000002"><a xlink:href="class_data_1_1_hash_function_1_1_blake3_1_1_hasher.html#aac947b8cb06612c856ce00ba6d977208" target="_top" xlink:title="The default hash function.">
<polygon fill="white" stroke="#666666" points="356.75,-388 220,-388 220,-356 356.75,-356 356.75,-388"/>
<text text-anchor="start" x="228" y="-374.5" font-family="Helvetica,sans-Serif" font-size="10.00">Data.HashFunction.Blake3.</text>
<text text-anchor="middle" x="288.38" y="-362.5" font-family="Helvetica,sans-Serif" font-size="10.00">Hasher.Hash</text>
</a>
</g>
</g>
<!-- Node1&#45;&gt;Node2 -->
<g id="edge1_Node000001_Node000002" class="edge">
<title>Node1&#45;&gt;Node2</title>
<g id="a_edge1_Node000001_Node000002"><a xlink:title=" ">
<path fill="none" stroke="#63b8ff" d="M184.5,-372C192.43,-372 200.42,-372 208.25,-372"/>
<polygon fill="#63b8ff" stroke="#63b8ff" points="208.07,-375.5 218.07,-372 208.07,-368.5 208.07,-375.5"/>
</a>
</g>
</g>
<!-- Node3 -->
<g id="Node000003" class="node">
<title>Node3</title>
<g id="a_Node000003"><a xlink:href="class_data_1_1_hash_function_1_1_blake3_1_1_hasher.html#aad24929c483c806315660e478d94ef46" target="_top" xlink:title="Construct a new Hasher for the regular hash function.">
<polygon fill="white" stroke="#666666" points="529.5,-388 392.75,-388 392.75,-356 529.5,-356 529.5,-388"/>
<text text-anchor="start" x="400.75" y="-374.5" font-family="Helvetica,sans-Serif" font-size="10.00">Data.HashFunction.Blake3.</text>
<text text-anchor="middle" x="461.12" y="-362.5" font-family="Helvetica,sans-Serif" font-size="10.00">Hasher.New</text>
</a>
</g>
</g>
<!-- Node2&#45;&gt;Node3 -->
<g id="edge2_Node000002_Node000003" class="edge">
<title>Node2&#45;&gt;Node3</title>
<g id="a_edge2_Node000002_Node000003"><a xlink:title=" ">
<path fill="none" stroke="#63b8ff" d="M356.86,-372C364.78,-372 372.91,-372 380.98,-372"/>
<polygon fill="#63b8ff" stroke="#63b8ff" points="380.78,-375.5 390.78,-372 380.78,-368.5 380.78,-375.5"/>
</a>
</g>
</g>
<!-- Node4 -->
<g id="Node000004" class="node">
<title>Node4</title>
<g id="a_Node000004"><a xlink:href="class_data_1_1_hash_function_1_1_blake3_1_1_hasher.html#a1092f2d1065b4228fe942e2d9481222b" target="_top" xlink:title=" ">
<polygon fill="white" stroke="#666666" points="702.25,-388 565.5,-388 565.5,-356 702.25,-356 702.25,-388"/>
<text text-anchor="start" x="573.5" y="-374.5" font-family="Helvetica,sans-Serif" font-size="10.00">Data.HashFunction.Blake3.</text>
<text text-anchor="middle" x="633.88" y="-362.5" font-family="Helvetica,sans-Serif" font-size="10.00">Hasher.Hasher</text>
</a>
</g>
</g>
<!-- Node3&#45;&gt;Node4 -->
<g id="edge3_Node000003_Node000004" class="edge">
<title>Node3&#45;&gt;Node4</title>
<g id="a_edge3_Node000003_Node000004"><a xlink:title=" ">
<path fill="none" stroke="#63b8ff" d="M529.61,-372C537.53,-372 545.66,-372 553.73,-372"/>
<polygon fill="#63b8ff" stroke="#63b8ff" points="553.53,-375.5 563.53,-372 553.53,-368.5 553.53,-375.5"/>
</a>
</g>
</g>
<!-- Node5 -->
<g id="Node000005" class="node">
<title>Node5</title>
<g id="a_Node000005"><a xlink:href="class_data_1_1_hash_function_1_1_blake3_1_1_hasher.html#aeddb6fe433bf75e5aba4e67e629f092f" target="_top" xlink:title=" ">
<polygon fill="white" stroke="#666666" points="905,-768 768.25,-768 768.25,-736 905,-736 905,-768"/>
<text text-anchor="start" x="776.25" y="-754.5" font-family="Helvetica,sans-Serif" font-size="10.00">Data.HashFunction.Blake3.</text>
<text text-anchor="middle" x="836.62" y="-742.5" font-family="Helvetica,sans-Serif" font-size="10.00">Hasher.blake3_delete_del</text>
</a>
</g>
</g>
<!-- Node4&#45;&gt;Node5 -->
<g id="edge4_Node000004_Node000005" class="edge">
<title>Node4&#45;&gt;Node5</title>
<g id="a_edge4_Node000004_Node000005"><a xlink:title=" ">
<path fill="none" stroke="#63b8ff" d="M634.36,-388.23C633.53,-444.13 638.65,-630.54 738.25,-727 743.81,-732.38 750.37,-736.65 757.4,-740.03"/>
<polygon fill="#63b8ff" stroke="#63b8ff" points="756.02,-743.25 766.6,-743.8 758.67,-736.77 756.02,-743.25"/>
</a>
</g>
</g>
<!-- Node6 -->
<g id="Node000006" class="node">
<title>Node6</title>
<g id="a_Node000006"><a xlink:href="class_data_1_1_hash_function_1_1_blake3_1_1_hasher.html#a266c90d1583949e5699abdfbfc193992" target="_top" xlink:title=" ">
<polygon fill="white" stroke="#666666" points="905,-718 768.25,-718 768.25,-686 905,-686 905,-718"/>
<text text-anchor="start" x="776.25" y="-704.5" font-family="Helvetica,sans-Serif" font-size="10.00">Data.HashFunction.Blake3.</text>
<text text-anchor="middle" x="836.62" y="-692.5" font-family="Helvetica,sans-Serif" font-size="10.00">Hasher.blake3_finalize_del</text>
</a>
</g>
</g>
<!-- Node4&#45;&gt;Node6 -->
<g id="edge5_Node000004_Node000006" class="edge">
<title>Node4&#45;&gt;Node6</title>
<g id="a_edge5_Node000004_Node000006"><a xlink:title=" ">
<path fill="none" stroke="#63b8ff" d="M635.27,-388.43C637.41,-439.39 651.13,-596.22 738.25,-677 743.84,-682.18 750.36,-686.32 757.32,-689.63"/>
<polygon fill="#63b8ff" stroke="#63b8ff" points="755.8,-692.79 766.39,-693.33 758.45,-686.31 755.8,-692.79"/>
</a>
</g>
</g>
<!-- Node7 -->
<g id="Node000007" class="node">
<title>Node7</title>
<g id="a_Node000007"><a xlink:href="class_data_1_1_hash_function_1_1_blake3_1_1_hasher.html#a9f5c8238bb1b8c8b5dd827d8c266f0da" target="_top" xlink:title=" ">
<polygon fill="white" stroke="#666666" points="905,-668 768.25,-668 768.25,-624 905,-624 905,-668"/>
<text text-anchor="start" x="776.25" y="-654.5" font-family="Helvetica,sans-Serif" font-size="10.00">Data.HashFunction.Blake3.</text>
<text text-anchor="start" x="776.25" y="-642.5" font-family="Helvetica,sans-Serif" font-size="10.00">Hasher.blake3_finalize</text>
<text text-anchor="middle" x="836.62" y="-630.5" font-family="Helvetica,sans-Serif" font-size="10.00">_seek_xof_del</text>
</a>
</g>
</g>
<!-- Node4&#45;&gt;Node7 -->
<g id="edge6_Node000004_Node000007" class="edge">
<title>Node4&#45;&gt;Node7</title>
<g id="a_edge6_Node000004_Node000007"><a xlink:title=" ">
<path fill="none" stroke="#63b8ff" d="M637.07,-388.28C643.79,-431.67 668.07,-551.12 738.25,-615 743.94,-620.18 750.49,-624.49 757.45,-628.08"/>
<polygon fill="#63b8ff" stroke="#63b8ff" points="755.96,-631.25 766.51,-632.21 758.87,-624.88 755.96,-631.25"/>
</a>
</g>
</g>
<!-- Node8 -->
<g id="Node000008" class="node">
<title>Node8</title>
<g id="a_Node000008"><a xlink:href="class_data_1_1_hash_function_1_1_blake3_1_1_hasher.html#a68a9b9baa0249779cf6c6b5fcc0a0e34" target="_top" xlink:title=" ">
<polygon fill="white" stroke="#666666" points="905,-606 768.25,-606 768.25,-562 905,-562 905,-606"/>
<text text-anchor="start" x="776.25" y="-592.5" font-family="Helvetica,sans-Serif" font-size="10.00">Data.HashFunction.Blake3.</text>
<text text-anchor="start" x="776.25" y="-580.5" font-family="Helvetica,sans-Serif" font-size="10.00">Hasher.blake3_finalize</text>
<text text-anchor="middle" x="836.62" y="-568.5" font-family="Helvetica,sans-Serif" font-size="10.00">_xof_del</text>
</a>
</g>
</g>
<!-- Node4&#45;&gt;Node8 -->
<g id="edge7_Node000004_Node000008" class="edge">
<title>Node4&#45;&gt;Node8</title>
<g id="a_edge7_Node000004_Node000008"><a xlink:title=" ">
<path fill="none" stroke="#63b8ff" d="M639.72,-388.46C651.01,-423.89 682.4,-507.83 738.25,-553 744.09,-557.72 750.66,-561.73 757.56,-565.13"/>
<polygon fill="#63b8ff" stroke="#63b8ff" points="755.91,-568.23 766.47,-569.08 758.75,-561.83 755.91,-568.23"/>
</a>
</g>
</g>
<!-- Node9 -->
<g id="Node000009" class="node">
<title>Node9</title>
<g id="a_Node000009"><a xlink:href="class_data_1_1_hash_function_1_1_blake3_1_1_hasher.html#a5c6e2e883f5f699bb3f1c5efd6329e86" target="_top" xlink:title=" ">
<polygon fill="white" stroke="#666666" points="905,-544 768.25,-544 768.25,-512 905,-512 905,-544"/>
<text text-anchor="start" x="776.25" y="-530.5" font-family="Helvetica,sans-Serif" font-size="10.00">Data.HashFunction.Blake3.</text>
<text text-anchor="middle" x="836.62" y="-518.5" font-family="Helvetica,sans-Serif" font-size="10.00">Hasher.blake3_hash_del</text>
</a>
</g>
</g>
<!-- Node4&#45;&gt;Node9 -->
<g id="edge8_Node000004_Node000009" class="edge">
<title>Node4&#45;&gt;Node9</title>
<g id="a_edge8_Node000004_Node000009"><a xlink:title=" ">
<path fill="none" stroke="#63b8ff" d="M642.98,-388.08C657.88,-415.96 692.36,-473.13 738.25,-503 744.15,-506.84 750.62,-510.1 757.31,-512.85"/>
<polygon fill="#63b8ff" stroke="#63b8ff" points="755.97,-516.08 766.57,-516.25 758.39,-509.51 755.97,-516.08"/>
</a>
</g>
</g>
<!-- Node10 -->
<g id="Node000010" class="node">
<title>Node10</title>
<g id="a_Node000010"><a xlink:href="class_data_1_1_hash_function_1_1_blake3_1_1_hasher.html#ad33b25786ed25911a0e2243e184a01f6" target="_top" xlink:title=" ">
<polygon fill="white" stroke="#666666" points="924.88,-494 748.38,-494 748.38,-462 924.88,-462 924.88,-494"/>
<text text-anchor="start" x="756.38" y="-480.5" font-family="Helvetica,sans-Serif" font-size="10.00">Data.HashFunction.Blake3.</text>
<text text-anchor="middle" x="836.62" y="-468.5" font-family="Helvetica,sans-Serif" font-size="10.00">Hasher.blake3_hash_preemptive_del</text>
</a>
</g>
</g>
<!-- Node4&#45;&gt;Node10 -->
<g id="edge9_Node000004_Node000010" class="edge">
<title>Node4&#45;&gt;Node10</title>
<g id="a_edge9_Node000004_Node000010"><a xlink:title=" ">
<path fill="none" stroke="#63b8ff" d="M651.29,-388.46C670.51,-406.82 704.1,-436.17 738.25,-453 741.5,-454.6 744.86,-456.11 748.3,-457.52"/>
<polygon fill="#63b8ff" stroke="#63b8ff" points="746.77,-460.69 757.37,-460.97 749.26,-454.14 746.77,-460.69"/>
</a>
</g>
</g>
<!-- Node11 -->
<g id="Node000011" class="node">
<title>Node11</title>
<g id="a_Node000011"><a xlink:href="class_data_1_1_hash_function_1_1_blake3_1_1_hasher.html#aea989aefa014224e8779949750fd6ef4" target="_top" xlink:title=" ">
<polygon fill="white" stroke="#666666" points="905,-444 768.25,-444 768.25,-412 905,-412 905,-444"/>
<text text-anchor="start" x="776.25" y="-430.5" font-family="Helvetica,sans-Serif" font-size="10.00">Data.HashFunction.Blake3.</text>
<text text-anchor="middle" x="836.62" y="-418.5" font-family="Helvetica,sans-Serif" font-size="10.00">Hasher.blake3_new_del</text>
</a>
</g>
</g>
<!-- Node4&#45;&gt;Node11 -->
<g id="edge10_Node000004_Node000011" class="edge">
<title>Node4&#45;&gt;Node11</title>
<g id="a_edge10_Node000004_Node000011"><a xlink:title=" ">
<path fill="none" stroke="#63b8ff" d="M688.41,-388.5C704.4,-393.31 722,-398.48 738.25,-403 744.98,-404.87 751.99,-406.77 759.02,-408.64"/>
<polygon fill="#63b8ff" stroke="#63b8ff" points="758.03,-412 768.59,-411.16 759.81,-405.23 758.03,-412"/>
</a>
</g>
</g>
<!-- Node12 -->
<g id="Node000012" class="node">
<title>Node12</title>
<g id="a_Node000012"><a xlink:href="class_data_1_1_hash_function_1_1_blake3_1_1_hasher.html#a5e0bd3fc3b1f1d2230083edd06082e33" target="_top" xlink:title=" ">
<polygon fill="white" stroke="#666666" points="905,-394 768.25,-394 768.25,-350 905,-350 905,-394"/>
<text text-anchor="start" x="776.25" y="-380.5" font-family="Helvetica,sans-Serif" font-size="10.00">Data.HashFunction.Blake3.</text>
<text text-anchor="start" x="776.25" y="-368.5" font-family="Helvetica,sans-Serif" font-size="10.00">Hasher.blake3_new_derive</text>
<text text-anchor="middle" x="836.62" y="-356.5" font-family="Helvetica,sans-Serif" font-size="10.00">_key_del</text>
</a>
</g>
</g>
<!-- Node4&#45;&gt;Node12 -->
<g id="edge11_Node000004_Node000012" class="edge">
<title>Node4&#45;&gt;Node12</title>
<g id="a_edge11_Node000004_Node000012"><a xlink:title=" ">
<path fill="none" stroke="#63b8ff" d="M702.56,-372C719.92,-372 738.74,-372 756.61,-372"/>
<polygon fill="#63b8ff" stroke="#63b8ff" points="756.38,-375.5 766.38,-372 756.38,-368.5 756.38,-375.5"/>
</a>
</g>
</g>
<!-- Node13 -->
<g id="Node000013" class="node">
<title>Node13</title>
<g id="a_Node000013"><a xlink:href="class_data_1_1_hash_function_1_1_blake3_1_1_hasher.html#a4a8335b7fd73916b8690f34ba00d2fa9" target="_top" xlink:title=" ">
<polygon fill="white" stroke="#666666" points="912.5,-332 760.75,-332 760.75,-300 912.5,-300 912.5,-332"/>
<text text-anchor="start" x="768.75" y="-318.5" font-family="Helvetica,sans-Serif" font-size="10.00">Data.HashFunction.Blake3.</text>
<text text-anchor="middle" x="836.62" y="-306.5" font-family="Helvetica,sans-Serif" font-size="10.00">Hasher.blake3_new_keyed_del</text>
</a>
</g>
</g>
<!-- Node4&#45;&gt;Node13 -->
<g id="edge12_Node000004_Node000013" class="edge">
<title>Node4&#45;&gt;Node13</title>
<g id="a_edge12_Node000004_Node000013"><a xlink:title=" ">
<path fill="none" stroke="#63b8ff" d="M688.41,-355.5C704.4,-350.69 722,-345.52 738.25,-341 744.98,-339.13 751.99,-337.23 759.02,-335.36"/>
<polygon fill="#63b8ff" stroke="#63b8ff" points="759.81,-338.77 768.59,-332.84 758.03,-332 759.81,-338.77"/>
</a>
</g>
</g>
<!-- Node14 -->
<g id="Node000014" class="node">
<title>Node14</title>
<g id="a_Node000014"><a xlink:href="class_data_1_1_hash_function_1_1_blake3_1_1_hasher.html#afeaea0d86f16edce6ae92fdb28dd50e3" target="_top" xlink:title=" ">
<polygon fill="white" stroke="#666666" points="905,-282 768.25,-282 768.25,-250 905,-250 905,-282"/>
<text text-anchor="start" x="776.25" y="-268.5" font-family="Helvetica,sans-Serif" font-size="10.00">Data.HashFunction.Blake3.</text>
<text text-anchor="middle" x="836.62" y="-256.5" font-family="Helvetica,sans-Serif" font-size="10.00">Hasher.blake3_reset_del</text>
</a>
</g>
</g>
<!-- Node4&#45;&gt;Node14 -->
<g id="edge13_Node000004_Node000014" class="edge">
<title>Node4&#45;&gt;Node14</title>
<g id="a_edge13_Node000004_Node000014"><a xlink:title=" ">
<path fill="none" stroke="#63b8ff" d="M651.29,-355.54C670.51,-337.18 704.1,-307.83 738.25,-291 744.17,-288.08 750.46,-285.48 756.89,-283.17"/>
<polygon fill="#63b8ff" stroke="#63b8ff" points="757.97,-286.5 766.36,-280.02 755.76,-279.86 757.97,-286.5"/>
</a>
</g>
</g>
<!-- Node15 -->
<g id="Node000015" class="node">
<title>Node15</title>
<g id="a_Node000015"><a xlink:href="class_data_1_1_hash_function_1_1_blake3_1_1_hasher.html#a82c48fb54de5c6bbcacd3ffb1e2ff6d4" target="_top" xlink:title=" ">
<polygon fill="white" stroke="#666666" points="905,-232 768.25,-232 768.25,-200 905,-200 905,-232"/>
<text text-anchor="start" x="776.25" y="-218.5" font-family="Helvetica,sans-Serif" font-size="10.00">Data.HashFunction.Blake3.</text>
<text text-anchor="middle" x="836.62" y="-206.5" font-family="Helvetica,sans-Serif" font-size="10.00">Hasher.blake3_update_del</text>
</a>
</g>
</g>
<!-- Node4&#45;&gt;Node15 -->
<g id="edge14_Node000004_Node000015" class="edge">
<title>Node4&#45;&gt;Node15</title>
<g id="a_edge14_Node000004_Node000015"><a xlink:title=" ">
<path fill="none" stroke="#63b8ff" d="M642.98,-355.92C657.88,-328.04 692.36,-270.87 738.25,-241 744.15,-237.16 750.62,-233.9 757.31,-231.15"/>
<polygon fill="#63b8ff" stroke="#63b8ff" points="758.39,-234.49 766.57,-227.75 755.97,-227.92 758.39,-234.49"/>
</a>
</g>
</g>
<!-- Node16 -->
<g id="Node000016" class="node">
<title>Node16</title>
<g id="a_Node000016"><a xlink:href="class_data_1_1_hash_function_1_1_blake3_1_1_hasher.html#a8b052a85097b1bada787fec22e9a1fdc" target="_top" xlink:title=" ">
<polygon fill="white" stroke="#666666" points="929,-182 744.25,-182 744.25,-150 929,-150 929,-182"/>
<text text-anchor="start" x="752.25" y="-168.5" font-family="Helvetica,sans-Serif" font-size="10.00">Data.HashFunction.Blake3.</text>
<text text-anchor="middle" x="836.62" y="-156.5" font-family="Helvetica,sans-Serif" font-size="10.00">Hasher.blake3_update_preemptive_del</text>
</a>
</g>
</g>
<!-- Node4&#45;&gt;Node16 -->
<g id="edge15_Node000004_Node000016" class="edge">
<title>Node4&#45;&gt;Node16</title>
<g id="a_edge15_Node000004_Node000016"><a xlink:title=" ">
<path fill="none" stroke="#63b8ff" d="M639.45,-355.57C650.29,-319.82 680.99,-234.67 738.25,-191 739.59,-189.97 740.98,-188.99 742.39,-188.05"/>
<polygon fill="#63b8ff" stroke="#63b8ff" points="743.95,-191.19 750.85,-183.14 740.44,-185.13 743.95,-191.19"/>
</a>
</g>
</g>
<!-- Node17 -->
<g id="Node000017" class="node">
<title>Node17</title>
<g id="a_Node000017"><a xlink:href="class_data_1_1_hash_function_1_1_blake3_1_1_hasher.html#af985f5e3c88cb27d88076cc470528c42" target="_top" xlink:title=" ">
<polygon fill="white" stroke="#666666" points="917,-132 756.25,-132 756.25,-100 917,-100 917,-132"/>
<text text-anchor="start" x="764.25" y="-118.5" font-family="Helvetica,sans-Serif" font-size="10.00">Data.HashFunction.Blake3.</text>
<text text-anchor="middle" x="836.62" y="-106.5" font-family="Helvetica,sans-Serif" font-size="10.00">Hasher.blake3_update_rayon_del</text>
</a>
</g>
</g>
<!-- Node4&#45;&gt;Node17 -->
<g id="edge16_Node000004_Node000017" class="edge">
<title>Node4&#45;&gt;Node17</title>
<g id="a_edge16_Node000004_Node000017"><a xlink:title=" ">
<path fill="none" stroke="#63b8ff" d="M637.25,-355.68C644.29,-313.37 669.06,-199.35 738.25,-141 740.75,-138.89 743.41,-136.96 746.19,-135.18"/>
<polygon fill="#63b8ff" stroke="#63b8ff" points="747.65,-138.37 754.71,-130.48 744.27,-132.24 747.65,-138.37"/>
</a>
</g>
</g>
<!-- Node18 -->
<g id="Node000018" class="node">
<title>Node18</title>
<g id="a_Node000018"><a xlink:href="class_data_1_1_hash_function_1_1_core_1_1_library_loader_1_1_native_library_loader.html#ae7fc8592b9e709e52367e2af00e56328" target="_top" xlink:title="Initializes a new instance of NativeLibraryLoader with the given library &#160;parameter.">
<polygon fill="white" stroke="#666666" points="916.25,-82 757,-82 757,-50 916.25,-50 916.25,-82"/>
<text text-anchor="start" x="765" y="-68.5" font-family="Helvetica,sans-Serif" font-size="10.00">Data.HashFunction.Core.Library</text>
<text text-anchor="middle" x="836.62" y="-56.5" font-family="Helvetica,sans-Serif" font-size="10.00">Loader.NativeLibraryLoader.Load</text>
</a>
</g>
</g>
<!-- Node4&#45;&gt;Node18 -->
<g id="edge17_Node000004_Node000018" class="edge">
<title>Node4&#45;&gt;Node18</title>
<g id="a_edge17_Node000004_Node000018"><a xlink:title=" ">
<path fill="none" stroke="#63b8ff" d="M635.79,-355.82C639.41,-307.75 656.87,-164.53 738.25,-91 740.88,-88.62 743.72,-86.46 746.69,-84.5"/>
<polygon fill="#63b8ff" stroke="#63b8ff" points="748.33,-87.59 755.34,-79.64 744.9,-81.49 748.33,-87.59"/>
</a>
</g>
</g>
<!-- Node19 -->
<g id="Node000019" class="node">
<title>Node19</title>
<g id="a_Node000019"><a xlink:href="class_data_1_1_hash_function_1_1_core_1_1_library_loader_1_1_native_library_loader.html#ae43e52670bcb4804edc00b9d59e171f8" target="_top" xlink:title="Tries to load a function with the given name.">
<polygon fill="white" stroke="#666666" points="935,-32 738.25,-32 738.25,0 935,0 935,-32"/>
<text text-anchor="start" x="746.25" y="-18.5" font-family="Helvetica,sans-Serif" font-size="10.00">Data.HashFunction.Core.Library</text>
<text text-anchor="middle" x="836.62" y="-6.5" font-family="Helvetica,sans-Serif" font-size="10.00">Loader.NativeLibraryLoader.LoadFunction</text>
</a>
</g>
</g>
<!-- Node4&#45;&gt;Node19 -->
<g id="edge18_Node000004_Node000019" class="edge">
<title>Node4&#45;&gt;Node19</title>
<g id="a_edge18_Node000004_Node000019"><a xlink:title=" ">
<path fill="none" stroke="#63b8ff" d="M634.76,-355.74C635.32,-302.22 644.62,-129.94 738.25,-41 738.89,-40.39 739.54,-39.8 740.21,-39.22"/>
<polygon fill="#63b8ff" stroke="#63b8ff" points="742.25,-42.06 748.25,-33.33 738.12,-36.41 742.25,-42.06"/>
</a>
</g>
</g>
</g>
</svg>
