<?xml version="1.0" encoding="UTF-8" standalone="no"?>
<!DOCTYPE svg PUBLIC "-//W3C//DTD SVG 1.1//EN"
 "http://www.w3.org/Graphics/SVG/1.1/DTD/svg11.dtd">
<!-- Generated by graphviz version 12.2.0 (20241103.1931)
 -->
<!-- Title: Data.HashFunction.BuzHash.BuzHash_Implementation.BlockTransformer_16Bit.TransformByteGroupsInternal Pages: 1 -->
<svg width="632pt" height="90pt"
 viewBox="0.00 0.00 632.00 90.00" xmlns="http://www.w3.org/2000/svg" xmlns:xlink="http://www.w3.org/1999/xlink">
<g id="graph0" class="graph" transform="scale(1 1) rotate(0) translate(4 86)">
<title>Data.HashFunction.BuzHash.BuzHash_Implementation.BlockTransformer_16Bit.TransformByteGroupsInternal</title>
<!-- Node1 -->
<g id="Node000001" class="node">
<title>Node1</title>
<g id="a_Node000001"><a xlink:title=" ">
<polygon fill="#999999" stroke="#666666" points="208.75,-63 0,-63 0,-19 208.75,-19 208.75,-63"/>
<text text-anchor="start" x="8" y="-49.5" font-family="Helvetica,sans-Serif" font-size="10.00">Data.HashFunction.BuzHash.</text>
<text text-anchor="start" x="8" y="-37.5" font-family="Helvetica,sans-Serif" font-size="10.00">BuzHash_Implementation.BlockTransformer</text>
<text text-anchor="middle" x="104.38" y="-25.5" font-family="Helvetica,sans-Serif" font-size="10.00">_16Bit.TransformByteGroupsInternal</text>
</a>
</g>
</g>
<!-- Node2 -->
<g id="Node000002" class="node">
<title>Node2</title>
<g id="a_Node000002"><a xlink:href="class_data_1_1_hash_function_1_1_buz_hash_1_1_buz_hash___implementation.html#a26c52551b721f45b5671f303ae3da7e6" target="_top" xlink:title=" ">
<polygon fill="white" stroke="#666666" points="404,-57 244.75,-57 244.75,-25 404,-25 404,-57"/>
<text text-anchor="start" x="252.75" y="-43.5" font-family="Helvetica,sans-Serif" font-size="10.00">Data.HashFunction.BuzHash.</text>
<text text-anchor="middle" x="324.38" y="-31.5" font-family="Helvetica,sans-Serif" font-size="10.00">BuzHash_Implementation.CShift</text>
</a>
</g>
</g>
<!-- Node1&#45;&gt;Node2 -->
<g id="edge1_Node000001_Node000002" class="edge">
<title>Node1&#45;&gt;Node2</title>
<g id="a_edge1_Node000001_Node000002"><a xlink:title=" ">
<path fill="none" stroke="#63b8ff" d="M208.95,-41C217.09,-41 225.27,-41 233.3,-41"/>
<polygon fill="#63b8ff" stroke="#63b8ff" points="233.04,-44.5 243.04,-41 233.04,-37.5 233.04,-44.5"/>
</a>
</g>
</g>
<!-- Node3 -->
<g id="Node000003" class="node">
<title>Node3</title>
<g id="a_Node000003"><a xlink:href="class_data_1_1_hash_function_1_1_buz_hash_1_1_buz_hash___implementation.html#a7d35e42b1881d8a7f4591bf0f082f1aa" target="_top" xlink:title=" ">
<polygon fill="white" stroke="#666666" points="620.62,-82 443.38,-82 443.38,-50 620.62,-50 620.62,-82"/>
<text text-anchor="start" x="451.38" y="-68.5" font-family="Helvetica,sans-Serif" font-size="10.00">Data.HashFunction.BuzHash.</text>
<text text-anchor="middle" x="532" y="-56.5" font-family="Helvetica,sans-Serif" font-size="10.00">BuzHash_Implementation.RotateLeft</text>
</a>
</g>
</g>
<!-- Node2&#45;&gt;Node3 -->
<g id="edge2_Node000002_Node000003" class="edge">
<title>Node2&#45;&gt;Node3</title>
<g id="a_edge2_Node000002_Node000003"><a xlink:title=" ">
<path fill="none" stroke="#63b8ff" d="M404.29,-50.59C413.3,-51.69 422.58,-52.82 431.82,-53.94"/>
<polygon fill="#63b8ff" stroke="#63b8ff" points="431.2,-57.39 441.55,-55.12 432.04,-50.44 431.2,-57.39"/>
</a>
</g>
</g>
<!-- Node4 -->
<g id="Node000004" class="node">
<title>Node4</title>
<g id="a_Node000004"><a xlink:href="class_data_1_1_hash_function_1_1_buz_hash_1_1_buz_hash___implementation.html#a7dca805a345690a8b6749a1ba667f425" target="_top" xlink:title=" ">
<polygon fill="white" stroke="#666666" points="624,-32 440,-32 440,0 624,0 624,-32"/>
<text text-anchor="start" x="448" y="-18.5" font-family="Helvetica,sans-Serif" font-size="10.00">Data.HashFunction.BuzHash.</text>
<text text-anchor="middle" x="532" y="-6.5" font-family="Helvetica,sans-Serif" font-size="10.00">BuzHash_Implementation.RotateRight</text>
</a>
</g>
</g>
<!-- Node2&#45;&gt;Node4 -->
<g id="edge3_Node000002_Node000004" class="edge">
<title>Node2&#45;&gt;Node4</title>
<g id="a_edge3_Node000002_Node000004"><a xlink:title=" ">
<path fill="none" stroke="#63b8ff" d="M404.29,-31.41C412.14,-30.45 420.19,-29.47 428.24,-28.49"/>
<polygon fill="#63b8ff" stroke="#63b8ff" points="428.59,-31.98 438.09,-27.3 427.74,-25.03 428.59,-31.98"/>
</a>
</g>
</g>
</g>
</svg>
