<?xml version="1.0" encoding="UTF-8" standalone="no"?>
<!DOCTYPE svg PUBLIC "-//W3C//DTD SVG 1.1//EN"
 "http://www.w3.org/Graphics/SVG/1.1/DTD/svg11.dtd">
<!-- Generated by graphviz version 12.2.0 (20241103.1931)
 -->
<!-- Title: Data.HashFunction.xxHash.xxHash_Implementation Pages: 1 -->
<svg width="387pt" height="234pt"
 viewBox="0.00 0.00 386.62 234.00" xmlns="http://www.w3.org/2000/svg" xmlns:xlink="http://www.w3.org/1999/xlink">

<svg id="main" version="1.1" xmlns="http://www.w3.org/2000/svg" xmlns:xlink="http://www.w3.org/1999/xlink" xml:space="preserve">

<style type="text/css"><![CDATA[
.node, .edge {opacity: 0.7;}
.node.selected, .edge.selected {opacity: 1;}
.edge:hover path { stroke: red; }
.edge:hover polygon { stroke: red; fill: red; }
]]></style>
<script type="application/ecmascript" xlink:href="svg.min.js"/>
<svg id="graph" class="graph">
<g id="graph0" class="graph" transform="scale(1 1) rotate(0) translate(4 230)">
<title>Data.HashFunction.xxHash.xxHash_Implementation</title>
<!-- Node1 -->
<g id="Node000001" class="node">
<title>Node1</title>
<g id="a_Node000001"><a xlink:title=" ">
<polygon fill="#999999" stroke="#666666" points="268.88,-32 117.88,-32 117.88,0 268.88,0 268.88,-32"/>
<text text-anchor="start" x="125.88" y="-18.5" font-family="Helvetica,sans-Serif" font-size="10.00">Data.HashFunction.xxHash.xx</text>
<text text-anchor="middle" x="193.38" y="-6.5" font-family="Helvetica,sans-Serif" font-size="10.00">Hash_Implementation</text>
</a>
</g>
</g>
<!-- Node2 -->
<g id="Node000002" class="node">
<title>Node2</title>
<g id="a_Node000002"><a xlink:href="class_data_1_1_hash_function_1_1_core_1_1_streamable_hash_function_base.html" target="_top" xlink:title="Common interface to non&#45;cryptographic hash functions that can be computed over a stream of data witho...">
<polygon fill="white" stroke="#666666" points="148.75,-106 0,-106 0,-86 148.75,-86 148.75,-106"/>
<text text-anchor="middle" x="74.38" y="-92.5" font-family="Helvetica,sans-Serif" font-size="10.00">StreamableHashFunctionBase</text>
</a>
</g>
</g>
<!-- Node2&#45;&gt;Node1 -->
<g id="edge1_Node000001_Node000002" class="edge">
<title>Node2&#45;&gt;Node1</title>
<g id="a_edge1_Node000001_Node000002"><a xlink:title=" ">
<path fill="none" stroke="#63b8ff" d="M97.88,-79.59C118.73,-65.93 149.01,-46.08 169.85,-32.42"/>
<polygon fill="#63b8ff" stroke="#63b8ff" points="96.2,-76.51 89.76,-84.92 100.04,-82.36 96.2,-76.51"/>
</a>
</g>
</g>
<!-- Node3 -->
<g id="Node000003" class="node">
<title>Node3</title>
<g id="a_Node000003"><a xlink:href="class_data_1_1_hash_function_1_1_core_1_1_hash_function_base.html" target="_top" xlink:title="Abstract implementation of an IHashFunction. Provides convenience checks and ensures a default HashSi...">
<polygon fill="white" stroke="#666666" points="111,-169 11.75,-169 11.75,-149 111,-149 111,-169"/>
<text text-anchor="middle" x="61.38" y="-155.5" font-family="Helvetica,sans-Serif" font-size="10.00">HashFunctionBase</text>
</a>
</g>
</g>
<!-- Node3&#45;&gt;Node2 -->
<g id="edge2_Node000002_Node000003" class="edge">
<title>Node3&#45;&gt;Node2</title>
<g id="a_edge2_Node000002_Node000003"><a xlink:title=" ">
<path fill="none" stroke="#63b8ff" d="M65.74,-137.53C67.99,-126.98 70.62,-114.62 72.38,-106.35"/>
<polygon fill="#63b8ff" stroke="#63b8ff" points="62.33,-136.75 63.66,-147.26 69.17,-138.2 62.33,-136.75"/>
</a>
</g>
</g>
<!-- Node4 -->
<g id="Node000004" class="node">
<title>Node4</title>
<g id="a_Node000004"><a xlink:href="interface_data_1_1_hash_function_1_1_i_hash_function.html" target="_top" xlink:title="Common interface to non&#45;cryptographic hash functions.">
<polygon fill="white" stroke="#666666" points="166.25,-226 86.5,-226 86.5,-206 166.25,-206 166.25,-226"/>
<text text-anchor="middle" x="126.38" y="-212.5" font-family="Helvetica,sans-Serif" font-size="10.00">IHashFunction</text>
</a>
</g>
</g>
<!-- Node4&#45;&gt;Node3 -->
<g id="edge3_Node000003_Node000004" class="edge">
<title>Node4&#45;&gt;Node3</title>
<g id="a_edge3_Node000003_Node000004"><a xlink:title=" ">
<path fill="none" stroke="#63b8ff" d="M106.59,-198.26C95.3,-188.71 81.58,-177.1 72.24,-169.19"/>
<polygon fill="#63b8ff" stroke="#63b8ff" points="104.3,-200.9 114.19,-204.69 108.82,-195.56 104.3,-200.9"/>
</a>
</g>
</g>
<!-- Node5 -->
<g id="Node000005" class="node">
<title>Node5</title>
<g id="a_Node000005"><a xlink:href="interface_data_1_1_hash_function_1_1_i_streamable_hash_function.html" target="_top" xlink:title="Common interface to non&#45;cryptographic hash functions that can be computed over a stream of data witho...">
<polygon fill="white" stroke="#666666" points="258,-169 128.75,-169 128.75,-149 258,-149 258,-169"/>
<text text-anchor="middle" x="193.38" y="-155.5" font-family="Helvetica,sans-Serif" font-size="10.00">IStreamableHashFunction</text>
</a>
</g>
</g>
<!-- Node4&#45;&gt;Node5 -->
<g id="edge5_Node000005_Node000004" class="edge">
<title>Node4&#45;&gt;Node5</title>
<g id="a_edge5_Node000005_Node000004"><a xlink:title=" ">
<path fill="none" stroke="#63b8ff" d="M146.42,-198.54C158.12,-188.94 172.45,-177.18 182.18,-169.19"/>
<polygon fill="#63b8ff" stroke="#63b8ff" points="144.42,-195.66 138.91,-204.71 148.86,-201.07 144.42,-195.66"/>
</a>
</g>
</g>
<!-- Node5&#45;&gt;Node2 -->
<g id="edge4_Node000002_Node000005" class="edge">
<title>Node5&#45;&gt;Node2</title>
<g id="a_edge4_Node000002_Node000005"><a xlink:title=" ">
<path fill="none" stroke="#63b8ff" d="M165.06,-143.49C142.58,-131.96 111.83,-116.2 92.53,-106.31"/>
<polygon fill="#63b8ff" stroke="#63b8ff" points="163.2,-146.46 173.7,-147.91 166.39,-140.24 163.2,-146.46"/>
</a>
</g>
</g>
<!-- Node6 -->
<g id="Node000006" class="node">
<title>Node6</title>
<g id="a_Node000006"><a xlink:href="interface_data_1_1_hash_function_1_1xx_hash_1_1_ixx_hash.html" target="_top" xlink:title="Implements xxHash as specified at https://github.com/Cyan4973/xxHash/blob/dev/xxhash....">
<polygon fill="white" stroke="#666666" points="219.75,-106 167,-106 167,-86 219.75,-86 219.75,-106"/>
<text text-anchor="middle" x="193.38" y="-92.5" font-family="Helvetica,sans-Serif" font-size="10.00">IxxHash</text>
</a>
</g>
</g>
<!-- Node5&#45;&gt;Node6 -->
<g id="edge7_Node000006_Node000005" class="edge">
<title>Node5&#45;&gt;Node6</title>
<g id="a_edge7_Node000006_Node000005"><a xlink:title=" ">
<path fill="none" stroke="#63b8ff" d="M193.38,-137.53C193.38,-126.98 193.38,-114.62 193.38,-106.35"/>
<polygon fill="#63b8ff" stroke="#63b8ff" points="189.88,-137.22 193.38,-147.22 196.88,-137.22 189.88,-137.22"/>
</a>
</g>
</g>
<!-- Node6&#45;&gt;Node1 -->
<g id="edge6_Node000001_Node000006" class="edge">
<title>Node6&#45;&gt;Node1</title>
<g id="a_edge6_Node000001_Node000006"><a xlink:title=" ">
<path fill="none" stroke="#63b8ff" d="M193.38,-74.51C193.38,-61.32 193.38,-44.47 193.38,-32.42"/>
<polygon fill="#63b8ff" stroke="#63b8ff" points="189.88,-74.23 193.38,-84.23 196.88,-74.23 189.88,-74.23"/>
</a>
</g>
</g>
<!-- Node7 -->
<g id="Node000007" class="node">
<title>Node7</title>
<g id="a_Node000007"><a xlink:href="interface_data_1_1_hash_function_1_1xx_hash_1_1_ixx_hash_config.html" target="_top" xlink:title="Defines a configuration for a IxxHash implementation.">
<polygon fill="white" stroke="#666666" points="378.62,-112 238.12,-112 238.12,-80 378.62,-80 378.62,-112"/>
<text text-anchor="start" x="246.12" y="-98.5" font-family="Helvetica,sans-Serif" font-size="10.00">Data.HashFunction.xxHash.</text>
<text text-anchor="middle" x="308.38" y="-86.5" font-family="Helvetica,sans-Serif" font-size="10.00">IxxHashConfig</text>
</a>
</g>
</g>
<!-- Node7&#45;&gt;Node1 -->
<g id="edge8_Node000001_Node000007" class="edge">
<title>Node7&#45;&gt;Node1</title>
<g id="a_edge8_Node000001_Node000007"><a xlink:title=" ">
<path fill="none" stroke="#9a32cd" stroke-dasharray="5,2" d="M276.13,-73.13C257,-60.15 233.2,-44.01 216.05,-32.38"/>
<polygon fill="#9a32cd" stroke="#9a32cd" points="274.16,-76.02 284.4,-78.74 278.09,-70.23 274.16,-76.02"/>
</a>
</g>
<text text-anchor="middle" x="275.01" y="-52.5" font-family="Helvetica,sans-Serif" font-size="10.00" fill="grey"> _config</text>
</g>
</g>
</svg>
</svg>

<style type='text/css'>
<![CDATA[
[data-mouse-over-selected='false'] { opacity: 0.7; }
[data-mouse-over-selected='true']  { opacity: 1.0; }
]]>
</style>
<script type="application/ecmascript"><![CDATA[
document.addEventListener('DOMContentLoaded', (event) => {
  highlightEdges();
  highlightAdjacentNodes();
});
]]></script>
</svg>
