<?xml version="1.0" encoding="UTF-8" standalone="no"?>
<!DOCTYPE svg PUBLIC "-//W3C//DTD SVG 1.1//EN"
 "http://www.w3.org/Graphics/SVG/1.1/DTD/svg11.dtd">
<!-- Generated by graphviz version 12.2.0 (20241103.1931)
 -->
<!-- Title: Data.HashFunction.SpookyHash.SpookyHashV2_Implementation.BlockTransformer.RotateLeft Pages: 1 -->
<svg width="911pt" height="242pt"
 viewBox="0.00 0.00 911.25 242.00" xmlns="http://www.w3.org/2000/svg" xmlns:xlink="http://www.w3.org/1999/xlink">
<g id="graph0" class="graph" transform="scale(1 1) rotate(0) translate(4 238)">
<title>Data.HashFunction.SpookyHash.SpookyHashV2_Implementation.BlockTransformer.RotateLeft</title>
<!-- Node1 -->
<g id="Node000001" class="node">
<title>Node1</title>
<g id="a_Node000001"><a xlink:title=" ">
<polygon fill="#999999" stroke="#666666" points="903.25,-137 717.75,-137 717.75,-93 903.25,-93 903.25,-137"/>
<text text-anchor="start" x="725.75" y="-123.5" font-family="Helvetica,sans-Serif" font-size="10.00">Data.HashFunction.Spooky</text>
<text text-anchor="start" x="725.75" y="-111.5" font-family="Helvetica,sans-Serif" font-size="10.00">Hash.SpookyHashV2_Implementation.</text>
<text text-anchor="middle" x="810.5" y="-99.5" font-family="Helvetica,sans-Serif" font-size="10.00">BlockTransformer.RotateLeft</text>
</a>
</g>
</g>
<!-- Node2 -->
<g id="Node000002" class="node">
<title>Node2</title>
<g id="a_Node000002"><a xlink:href="class_data_1_1_hash_function_1_1_spooky_hash_1_1_spooky_hash_v2___implementation_1_1_block_transformer.html#afbb40f8826a37112643d95e65738f29b" target="_top" xlink:title=" ">
<polygon fill="white" stroke="#666666" points="681.75,-233 496.25,-233 496.25,-189 681.75,-189 681.75,-233"/>
<text text-anchor="start" x="504.25" y="-219.5" font-family="Helvetica,sans-Serif" font-size="10.00">Data.HashFunction.Spooky</text>
<text text-anchor="start" x="504.25" y="-207.5" font-family="Helvetica,sans-Serif" font-size="10.00">Hash.SpookyHashV2_Implementation.</text>
<text text-anchor="middle" x="589" y="-195.5" font-family="Helvetica,sans-Serif" font-size="10.00">BlockTransformer.EndPartial</text>
</a>
</g>
</g>
<!-- Node1&#45;&gt;Node2 -->
<g id="edge1_Node000001_Node000002" class="edge">
<title>Node1&#45;&gt;Node2</title>
<g id="a_edge1_Node000001_Node000002"><a xlink:title=" ">
<path fill="none" stroke="#63b8ff" d="M755.85,-142.47C733.21,-153.69 706.43,-166.47 681.75,-177 672.53,-180.93 662.69,-184.86 653,-188.57"/>
<polygon fill="#63b8ff" stroke="#63b8ff" points="757.2,-145.71 764.58,-138.12 754.07,-139.45 757.2,-145.71"/>
</a>
</g>
</g>
<!-- Node5 -->
<g id="Node000005" class="node">
<title>Node5</title>
<g id="a_Node000005"><a xlink:href="class_data_1_1_hash_function_1_1_spooky_hash_1_1_spooky_hash_v2___implementation_1_1_block_transformer.html#a4e4509e2299831218cd31248cd99d29b" target="_top" xlink:title=" ">
<polygon fill="white" stroke="#666666" points="681.75,-168 496.25,-168 496.25,-124 681.75,-124 681.75,-168"/>
<text text-anchor="start" x="504.25" y="-154.5" font-family="Helvetica,sans-Serif" font-size="10.00">Data.HashFunction.Spooky</text>
<text text-anchor="start" x="504.25" y="-142.5" font-family="Helvetica,sans-Serif" font-size="10.00">Hash.SpookyHashV2_Implementation.</text>
<text text-anchor="middle" x="589" y="-130.5" font-family="Helvetica,sans-Serif" font-size="10.00">BlockTransformer.Mix</text>
</a>
</g>
</g>
<!-- Node1&#45;&gt;Node5 -->
<g id="edge4_Node000001_Node000005" class="edge">
<title>Node1&#45;&gt;Node5</title>
<g id="a_edge4_Node000001_Node000005"><a xlink:title=" ">
<path fill="none" stroke="#63b8ff" d="M706.14,-129.6C698.17,-130.72 690.15,-131.86 682.25,-132.97"/>
<polygon fill="#63b8ff" stroke="#63b8ff" points="706.46,-133.09 715.87,-128.22 705.48,-126.16 706.46,-133.09"/>
</a>
</g>
</g>
<!-- Node7 -->
<g id="Node000007" class="node">
<title>Node7</title>
<g id="a_Node000007"><a xlink:href="class_data_1_1_hash_function_1_1_spooky_hash_1_1_spooky_hash_v2___implementation_1_1_block_transformer.html#ae381f9a2a036ac6c597f02b1ec68a2ef" target="_top" xlink:title=" ">
<polygon fill="white" stroke="#666666" points="681.75,-106 496.25,-106 496.25,-62 681.75,-62 681.75,-106"/>
<text text-anchor="start" x="504.25" y="-92.5" font-family="Helvetica,sans-Serif" font-size="10.00">Data.HashFunction.Spooky</text>
<text text-anchor="start" x="504.25" y="-80.5" font-family="Helvetica,sans-Serif" font-size="10.00">Hash.SpookyHashV2_Implementation.</text>
<text text-anchor="middle" x="589" y="-68.5" font-family="Helvetica,sans-Serif" font-size="10.00">BlockTransformer.ShortEnd</text>
</a>
</g>
</g>
<!-- Node1&#45;&gt;Node7 -->
<g id="edge6_Node000001_Node000007" class="edge">
<title>Node1&#45;&gt;Node7</title>
<g id="a_edge6_Node000001_Node000007"><a xlink:title=" ">
<path fill="none" stroke="#63b8ff" d="M706.14,-100.4C698.17,-99.28 690.15,-98.14 682.25,-97.03"/>
<polygon fill="#63b8ff" stroke="#63b8ff" points="705.48,-103.84 715.87,-101.78 706.46,-96.91 705.48,-103.84"/>
</a>
</g>
</g>
<!-- Node9 -->
<g id="Node000009" class="node">
<title>Node9</title>
<g id="a_Node000009"><a xlink:href="class_data_1_1_hash_function_1_1_spooky_hash_1_1_spooky_hash_v2___implementation_1_1_block_transformer.html#a87da861b6e599f9648361e01f89e155f" target="_top" xlink:title=" ">
<polygon fill="white" stroke="#666666" points="681.75,-44 496.25,-44 496.25,0 681.75,0 681.75,-44"/>
<text text-anchor="start" x="504.25" y="-30.5" font-family="Helvetica,sans-Serif" font-size="10.00">Data.HashFunction.Spooky</text>
<text text-anchor="start" x="504.25" y="-18.5" font-family="Helvetica,sans-Serif" font-size="10.00">Hash.SpookyHashV2_Implementation.</text>
<text text-anchor="middle" x="589" y="-6.5" font-family="Helvetica,sans-Serif" font-size="10.00">BlockTransformer.ShortMix</text>
</a>
</g>
</g>
<!-- Node1&#45;&gt;Node9 -->
<g id="edge9_Node000001_Node000009" class="edge">
<title>Node1&#45;&gt;Node9</title>
<g id="a_edge9_Node000001_Node000009"><a xlink:title=" ">
<path fill="none" stroke="#63b8ff" d="M756.54,-87.44C733.81,-76.1 706.78,-63.25 681.75,-53 674.59,-50.07 667.05,-47.19 659.48,-44.44"/>
<polygon fill="#63b8ff" stroke="#63b8ff" points="754.8,-90.48 765.3,-91.85 757.94,-84.23 754.8,-90.48"/>
</a>
</g>
</g>
<!-- Node3 -->
<g id="Node000003" class="node">
<title>Node3</title>
<g id="a_Node000003"><a xlink:href="class_data_1_1_hash_function_1_1_spooky_hash_1_1_spooky_hash_v2___implementation_1_1_block_transformer.html#a3838117e74f9c0b76e6254fd8651394b" target="_top" xlink:title=" ">
<polygon fill="white" stroke="#666666" points="445.62,-234 260.12,-234 260.12,-190 445.62,-190 445.62,-234"/>
<text text-anchor="start" x="268.12" y="-220.5" font-family="Helvetica,sans-Serif" font-size="10.00">Data.HashFunction.Spooky</text>
<text text-anchor="start" x="268.12" y="-208.5" font-family="Helvetica,sans-Serif" font-size="10.00">Hash.SpookyHashV2_Implementation.</text>
<text text-anchor="middle" x="352.88" y="-196.5" font-family="Helvetica,sans-Serif" font-size="10.00">BlockTransformer.End</text>
</a>
</g>
</g>
<!-- Node2&#45;&gt;Node3 -->
<g id="edge2_Node000002_Node000003" class="edge">
<title>Node2&#45;&gt;Node3</title>
<g id="a_edge2_Node000002_Node000003"><a xlink:title=" ">
<path fill="none" stroke="#63b8ff" d="M484.58,-211.44C471.73,-211.5 458.65,-211.55 445.99,-211.61"/>
<polygon fill="#63b8ff" stroke="#63b8ff" points="484.31,-214.94 494.29,-211.4 484.28,-207.94 484.31,-214.94"/>
</a>
</g>
</g>
<!-- Node4 -->
<g id="Node000004" class="node">
<title>Node4</title>
<g id="a_Node000004"><a xlink:href="class_data_1_1_hash_function_1_1_spooky_hash_1_1_spooky_hash_v2___implementation_1_1_block_transformer.html#a77873c1047150ce457077bfba5ab5b27" target="_top" xlink:title=" ">
<polygon fill="white" stroke="#666666" points="209.5,-166 0,-166 0,-122 209.5,-122 209.5,-166"/>
<text text-anchor="start" x="8" y="-152.5" font-family="Helvetica,sans-Serif" font-size="10.00">Data.HashFunction.Spooky</text>
<text text-anchor="start" x="8" y="-140.5" font-family="Helvetica,sans-Serif" font-size="10.00">Hash.SpookyHashV2_Implementation.</text>
<text text-anchor="middle" x="104.75" y="-128.5" font-family="Helvetica,sans-Serif" font-size="10.00">BlockTransformer.FinalizeHashValueInternal</text>
</a>
</g>
</g>
<!-- Node3&#45;&gt;Node4 -->
<g id="edge3_Node000003_Node000004" class="edge">
<title>Node3&#45;&gt;Node4</title>
<g id="a_edge3_Node000003_Node000004"><a xlink:title=" ">
<path fill="none" stroke="#63b8ff" d="M259.75,-186.55C235.83,-179.94 210.25,-172.87 186.94,-166.43"/>
<polygon fill="#63b8ff" stroke="#63b8ff" points="258.57,-189.85 269.14,-189.14 260.44,-183.11 258.57,-189.85"/>
</a>
</g>
</g>
<!-- Node6 -->
<g id="Node000006" class="node">
<title>Node6</title>
<g id="a_Node000006"><a xlink:href="class_data_1_1_hash_function_1_1_spooky_hash_1_1_spooky_hash_v2___implementation_1_1_block_transformer.html#a1999e035ded06ffdc5a0d77c77916c3b" target="_top" xlink:title=" ">
<polygon fill="white" stroke="#666666" points="449,-172 256.75,-172 256.75,-116 449,-116 449,-172"/>
<text text-anchor="start" x="264.75" y="-158.5" font-family="Helvetica,sans-Serif" font-size="10.00">Data.HashFunction.Spooky</text>
<text text-anchor="start" x="264.75" y="-146.5" font-family="Helvetica,sans-Serif" font-size="10.00">Hash.SpookyHashV2_Implementation.</text>
<text text-anchor="start" x="264.75" y="-134.5" font-family="Helvetica,sans-Serif" font-size="10.00">BlockTransformer.TransformByteGroups</text>
<text text-anchor="middle" x="352.88" y="-122.5" font-family="Helvetica,sans-Serif" font-size="10.00">Internal</text>
</a>
</g>
</g>
<!-- Node5&#45;&gt;Node6 -->
<g id="edge5_Node000005_Node000006" class="edge">
<title>Node5&#45;&gt;Node6</title>
<g id="a_edge5_Node000005_Node000006"><a xlink:title=" ">
<path fill="none" stroke="#63b8ff" d="M484.65,-145.12C472.94,-145.02 461.05,-144.92 449.45,-144.82"/>
<polygon fill="#63b8ff" stroke="#63b8ff" points="484.26,-148.61 494.29,-145.2 484.32,-141.61 484.26,-148.61"/>
</a>
</g>
</g>
<!-- Node8 -->
<g id="Node000008" class="node">
<title>Node8</title>
<g id="a_Node000008"><a xlink:href="class_data_1_1_hash_function_1_1_spooky_hash_1_1_spooky_hash_v2___implementation_1_1_block_transformer.html#ad7523516a0f08a5d685c2b215f821527" target="_top" xlink:title=" ">
<polygon fill="white" stroke="#666666" points="460.25,-98 245.5,-98 245.5,-54 460.25,-54 460.25,-98"/>
<text text-anchor="start" x="253.5" y="-84.5" font-family="Helvetica,sans-Serif" font-size="10.00">Data.HashFunction.Spooky</text>
<text text-anchor="start" x="253.5" y="-72.5" font-family="Helvetica,sans-Serif" font-size="10.00">Hash.SpookyHashV2_Implementation.</text>
<text text-anchor="middle" x="352.88" y="-60.5" font-family="Helvetica,sans-Serif" font-size="10.00">BlockTransformer.ComputeShortHashInternal</text>
</a>
</g>
</g>
<!-- Node7&#45;&gt;Node8 -->
<g id="edge7_Node000007_Node000008" class="edge">
<title>Node7&#45;&gt;Node8</title>
<g id="a_edge7_Node000007_Node000008"><a xlink:title=" ">
<path fill="none" stroke="#63b8ff" d="M484.37,-80.46C476.52,-80.19 468.59,-79.92 460.72,-79.65"/>
<polygon fill="#63b8ff" stroke="#63b8ff" points="484.18,-83.95 494.29,-80.8 484.42,-76.96 484.18,-83.95"/>
</a>
</g>
</g>
<!-- Node8&#45;&gt;Node4 -->
<g id="edge8_Node000008_Node000004" class="edge">
<title>Node8&#45;&gt;Node4</title>
<g id="a_edge8_Node000008_Node000004"><a xlink:title=" ">
<path fill="none" stroke="#63b8ff" d="M259.75,-101.45C235.83,-108.06 210.25,-115.13 186.94,-121.57"/>
<polygon fill="#63b8ff" stroke="#63b8ff" points="260.44,-104.89 269.14,-98.86 258.57,-98.15 260.44,-104.89"/>
</a>
</g>
</g>
<!-- Node9&#45;&gt;Node8 -->
<g id="edge10_Node000009_Node000008" class="edge">
<title>Node9&#45;&gt;Node8</title>
<g id="a_edge10_Node000009_Node000008"><a xlink:title=" ">
<path fill="none" stroke="#63b8ff" d="M484.78,-45.81C473.68,-48.37 462.41,-50.97 451.38,-53.51"/>
<polygon fill="#63b8ff" stroke="#63b8ff" points="485.37,-49.26 494.33,-43.6 483.8,-42.44 485.37,-49.26"/>
</a>
</g>
</g>
</g>
</svg>
