<?xml version="1.0" encoding="UTF-8" standalone="no"?>
<!DOCTYPE svg PUBLIC "-//W3C//DTD SVG 1.1//EN"
 "http://www.w3.org/Graphics/SVG/1.1/DTD/svg11.dtd">
<!-- Generated by graphviz version 12.2.0 (20241103.1931)
 -->
<!-- Title: Data.HashFunction.Jenkins.JenkinsLookup3_Implementation.ComputeHashInternal Pages: 1 -->
<svg width="586pt" height="90pt"
 viewBox="0.00 0.00 585.50 90.00" xmlns="http://www.w3.org/2000/svg" xmlns:xlink="http://www.w3.org/1999/xlink">
<g id="graph0" class="graph" transform="scale(1 1) rotate(0) translate(4 86)">
<title>Data.HashFunction.Jenkins.JenkinsLookup3_Implementation.ComputeHashInternal</title>
<!-- Node1 -->
<g id="Node000001" class="node">
<title>Node1</title>
<g id="a_Node000001"><a xlink:title=" ">
<polygon fill="#999999" stroke="#666666" points="161.5,-63 0,-63 0,-19 161.5,-19 161.5,-63"/>
<text text-anchor="start" x="8" y="-49.5" font-family="Helvetica,sans-Serif" font-size="10.00">Data.HashFunction.Jenkins.</text>
<text text-anchor="start" x="8" y="-37.5" font-family="Helvetica,sans-Serif" font-size="10.00">JenkinsLookup3_Implementation.</text>
<text text-anchor="middle" x="80.75" y="-25.5" font-family="Helvetica,sans-Serif" font-size="10.00">ComputeHashInternal</text>
</a>
</g>
</g>
<!-- Node2 -->
<g id="Node000002" class="node">
<title>Node2</title>
<g id="a_Node000002"><a xlink:href="class_data_1_1_hash_function_1_1_jenkins_1_1_jenkins_lookup3___implementation.html#ae282252a153d0de31f750c11736d6187" target="_top" xlink:title=" ">
<polygon fill="white" stroke="#666666" points="380,-82 197.5,-82 197.5,-50 380,-50 380,-82"/>
<text text-anchor="start" x="205.5" y="-68.5" font-family="Helvetica,sans-Serif" font-size="10.00">Data.HashFunction.Jenkins.</text>
<text text-anchor="middle" x="288.75" y="-56.5" font-family="Helvetica,sans-Serif" font-size="10.00">JenkinsLookup3_Implementation.Final</text>
</a>
</g>
</g>
<!-- Node1&#45;&gt;Node2 -->
<g id="edge1_Node000001_Node000002" class="edge">
<title>Node1&#45;&gt;Node2</title>
<g id="a_edge1_Node000001_Node000002"><a xlink:title=" ">
<path fill="none" stroke="#63b8ff" d="M161.98,-50.74C169.82,-51.69 177.83,-52.66 185.84,-53.63"/>
<polygon fill="#63b8ff" stroke="#63b8ff" points="185.29,-57.09 195.64,-54.82 186.13,-50.14 185.29,-57.09"/>
</a>
</g>
</g>
<!-- Node4 -->
<g id="Node000004" class="node">
<title>Node4</title>
<g id="a_Node000004"><a xlink:href="class_data_1_1_hash_function_1_1_jenkins_1_1_jenkins_lookup3___implementation.html#a2ec8703073f471458db9233bb920718c" target="_top" xlink:title=" ">
<polygon fill="white" stroke="#666666" points="377.38,-32 200.12,-32 200.12,0 377.38,0 377.38,-32"/>
<text text-anchor="start" x="208.12" y="-18.5" font-family="Helvetica,sans-Serif" font-size="10.00">Data.HashFunction.Jenkins.</text>
<text text-anchor="middle" x="288.75" y="-6.5" font-family="Helvetica,sans-Serif" font-size="10.00">JenkinsLookup3_Implementation.Mix</text>
</a>
</g>
</g>
<!-- Node1&#45;&gt;Node4 -->
<g id="edge3_Node000001_Node000004" class="edge">
<title>Node1&#45;&gt;Node4</title>
<g id="a_edge3_Node000001_Node000004"><a xlink:title=" ">
<path fill="none" stroke="#63b8ff" d="M161.98,-31.26C170.72,-30.2 179.69,-29.11 188.62,-28.03"/>
<polygon fill="#63b8ff" stroke="#63b8ff" points="188.88,-31.52 198.39,-26.85 188.04,-24.58 188.88,-31.52"/>
</a>
</g>
</g>
<!-- Node3 -->
<g id="Node000003" class="node">
<title>Node3</title>
<g id="a_Node000003"><a xlink:href="class_data_1_1_hash_function_1_1_jenkins_1_1_jenkins_lookup3___implementation.html#abdcc66e7826e4e22587225c1066b633a" target="_top" xlink:title=" ">
<polygon fill="white" stroke="#666666" points="577.5,-63 416,-63 416,-19 577.5,-19 577.5,-63"/>
<text text-anchor="start" x="424" y="-49.5" font-family="Helvetica,sans-Serif" font-size="10.00">Data.HashFunction.Jenkins.</text>
<text text-anchor="start" x="424" y="-37.5" font-family="Helvetica,sans-Serif" font-size="10.00">JenkinsLookup3_Implementation.</text>
<text text-anchor="middle" x="496.75" y="-25.5" font-family="Helvetica,sans-Serif" font-size="10.00">RotateLeft</text>
</a>
</g>
</g>
<!-- Node2&#45;&gt;Node3 -->
<g id="edge2_Node000002_Node000003" class="edge">
<title>Node2&#45;&gt;Node3</title>
<g id="a_edge2_Node000002_Node000003"><a xlink:title=" ">
<path fill="none" stroke="#63b8ff" d="M380.4,-55C388.4,-54.03 396.5,-53.04 404.5,-52.07"/>
<polygon fill="#63b8ff" stroke="#63b8ff" points="404.72,-55.57 414.23,-50.89 403.88,-48.62 404.72,-55.57"/>
</a>
</g>
</g>
<!-- Node4&#45;&gt;Node3 -->
<g id="edge4_Node000004_Node000003" class="edge">
<title>Node4&#45;&gt;Node3</title>
<g id="a_edge4_Node000004_Node000003"><a xlink:title=" ">
<path fill="none" stroke="#63b8ff" d="M377.71,-26.67C386.55,-27.75 395.55,-28.84 404.42,-29.92"/>
<polygon fill="#63b8ff" stroke="#63b8ff" points="403.73,-33.36 414.08,-31.09 404.58,-26.41 403.73,-33.36"/>
</a>
</g>
</g>
</g>
</svg>
