<?xml version="1.0" encoding="UTF-8" standalone="no"?>
<!DOCTYPE svg PUBLIC "-//W3C//DTD SVG 1.1//EN"
 "http://www.w3.org/Graphics/SVG/1.1/DTD/svg11.dtd">
<!-- Generated by graphviz version 12.2.0 (20241103.1931)
 -->
<!-- Title: Data.HashFunction.SpookyHash.SpookyHashV1_Implementation.BlockTransformer.RotateLeft Pages: 1 -->
<!--zoomable 238 -->

<svg id="main" version="1.1" xmlns="http://www.w3.org/2000/svg" xmlns:xlink="http://www.w3.org/1999/xlink" xml:space="preserve" onload="init(evt)">

<style type="text/css"><![CDATA[
.node, .edge {opacity: 0.7;}
.node.selected, .edge.selected {opacity: 1;}
.edge:hover path { stroke: red; }
.edge:hover polygon { stroke: red; fill: red; }
]]></style>

<defs>
  <circle id="rim" cx="0" cy="0" r="7"/>
  <circle id="rim2" cx="0" cy="0" r="3.5"/>
  <g id="zoomPlus">
    <use xlink:href="#rim" fill="#404040"><set attributeName="fill" to="#808080" begin="zoomplus.mouseover" end="zoomplus.mouseout"/></use>
    <path d="M-4,0h8M0,-4v8" fill="none" stroke="white" stroke-width="1.5" pointer-events="none"/>
  </g>
  <g id="zoomMin">
    <use xlink:href="#rim" fill="#404040"><set attributeName="fill" to="#808080" begin="zoomminus.mouseover" end="zoomminus.mouseout"/></use>
    <path d="M-4,0h8" fill="none" stroke="white" stroke-width="1.5" pointer-events="none"/>
  </g>
  <g id="arrowUp" transform="translate(30 24)">
    <use xlink:href="#rim"/>
    <path pointer-events="none" fill="none" stroke="white" stroke-width="1.5" d="M0,-3.0v7 M-2.5,-0.5L0,-3.0L2.5,-0.5"/>
  </g>
  <g id="arrowRight" transform="rotate(90) translate(36 -43)">
    <use xlink:href="#rim"/>
    <path pointer-events="none" fill="none" stroke="white" stroke-width="1.5" d="M0,-3.0v7 M-2.5,-0.5L0,-3.0L2.5,-0.5"/>
  </g>
  <g id="arrowDown" transform="rotate(180) translate(-30 -48)">
    <use xlink:href="#rim"/>
    <path pointer-events="none" fill="none" stroke="white" stroke-width="1.5" d="M0,-3.0v7 M-2.5,-0.5L0,-3.0L2.5,-0.5"/>
  </g>
  <g id="arrowLeft" transform="rotate(270) translate(-36 17)">
    <use xlink:href="#rim"/>
    <path pointer-events="none" fill="none" stroke="white" stroke-width="1.5" d="M0,-3.0v7 M-2.5,-0.5L0,-3.0L2.5,-0.5"/>
  </g>
  <g id="resetDef">
    <use xlink:href="#rim2" fill="#404040"><set attributeName="fill" to="#808080" begin="reset.mouseover" end="reset.mouseout"/></use>
  </g>
</defs>
<script type="application/ecmascript">
var viewWidth = 911;
var viewHeight = 238;
var sectionId = 'dynsection-11';
</script>
<script type="application/ecmascript" xlink:href="svg.min.js"/>
<svg id="graph" class="graph">
<g id="viewport">
<title>Data.HashFunction.SpookyHash.SpookyHashV1_Implementation.BlockTransformer.RotateLeft</title>
<!-- Node1 -->
<g id="Node000001" class="node">
<title>Node1</title>
<g id="a_Node000001"><a xlink:title=" ">
<polygon fill="#999999" stroke="#666666" points="903.25,-137 717.75,-137 717.75,-93 903.25,-93 903.25,-137"/>
<text text-anchor="start" x="725.75" y="-123.5" font-family="Helvetica,sans-Serif" font-size="10.00">Data.HashFunction.Spooky</text>
<text text-anchor="start" x="725.75" y="-111.5" font-family="Helvetica,sans-Serif" font-size="10.00">Hash.SpookyHashV1_Implementation.</text>
<text text-anchor="middle" x="810.5" y="-99.5" font-family="Helvetica,sans-Serif" font-size="10.00">BlockTransformer.RotateLeft</text>
</a>
</g>
</g>
<!-- Node2 -->
<g id="Node000002" class="node">
<title>Node2</title>
<g id="a_Node000002"><a xlink:href="class_data_1_1_hash_function_1_1_spooky_hash_1_1_spooky_hash_v1___implementation_1_1_block_transformer.html#afa7a13d76791dc254a526d8aa1eccc30" target="_top" xlink:title=" ">
<polygon fill="white" stroke="#666666" points="681.75,-230 496.25,-230 496.25,-186 681.75,-186 681.75,-230"/>
<text text-anchor="start" x="504.25" y="-216.5" font-family="Helvetica,sans-Serif" font-size="10.00">Data.HashFunction.Spooky</text>
<text text-anchor="start" x="504.25" y="-204.5" font-family="Helvetica,sans-Serif" font-size="10.00">Hash.SpookyHashV1_Implementation.</text>
<text text-anchor="middle" x="589" y="-192.5" font-family="Helvetica,sans-Serif" font-size="10.00">BlockTransformer.EndPartial</text>
</a>
</g>
</g>
<!-- Node1&#45;&gt;Node2 -->
<g id="edge1_Node000001_Node000002" class="edge">
<title>Node1&#45;&gt;Node2</title>
<g id="a_edge1_Node000001_Node000002"><a xlink:title=" ">
<path fill="none" stroke="#63b8ff" d="M756.54,-142.56C733.81,-153.9 706.78,-166.75 681.75,-177 674.59,-179.93 667.05,-182.81 659.48,-185.56"/>
<polygon fill="#63b8ff" stroke="#63b8ff" points="757.94,-145.77 765.3,-138.15 754.8,-139.52 757.94,-145.77"/>
</a>
</g>
</g>
<!-- Node5 -->
<g id="Node000005" class="node">
<title>Node5</title>
<g id="a_Node000005"><a xlink:href="class_data_1_1_hash_function_1_1_spooky_hash_1_1_spooky_hash_v1___implementation_1_1_block_transformer.html#a1aa6026920857b8da5722a79124a1d4d" target="_top" xlink:title=" ">
<polygon fill="white" stroke="#666666" points="681.75,-168 496.25,-168 496.25,-124 681.75,-124 681.75,-168"/>
<text text-anchor="start" x="504.25" y="-154.5" font-family="Helvetica,sans-Serif" font-size="10.00">Data.HashFunction.Spooky</text>
<text text-anchor="start" x="504.25" y="-142.5" font-family="Helvetica,sans-Serif" font-size="10.00">Hash.SpookyHashV1_Implementation.</text>
<text text-anchor="middle" x="589" y="-130.5" font-family="Helvetica,sans-Serif" font-size="10.00">BlockTransformer.Mix</text>
</a>
</g>
</g>
<!-- Node1&#45;&gt;Node5 -->
<g id="edge4_Node000001_Node000005" class="edge">
<title>Node1&#45;&gt;Node5</title>
<g id="a_edge4_Node000001_Node000005"><a xlink:title=" ">
<path fill="none" stroke="#63b8ff" d="M706.14,-129.6C698.17,-130.72 690.15,-131.86 682.25,-132.97"/>
<polygon fill="#63b8ff" stroke="#63b8ff" points="706.46,-133.09 715.87,-128.22 705.48,-126.16 706.46,-133.09"/>
</a>
</g>
</g>
<!-- Node7 -->
<g id="Node000007" class="node">
<title>Node7</title>
<g id="a_Node000007"><a xlink:href="class_data_1_1_hash_function_1_1_spooky_hash_1_1_spooky_hash_v1___implementation_1_1_block_transformer.html#acb71513ac3701ef70a3ecbc860c77688" target="_top" xlink:title=" ">
<polygon fill="white" stroke="#666666" points="681.75,-106 496.25,-106 496.25,-62 681.75,-62 681.75,-106"/>
<text text-anchor="start" x="504.25" y="-92.5" font-family="Helvetica,sans-Serif" font-size="10.00">Data.HashFunction.Spooky</text>
<text text-anchor="start" x="504.25" y="-80.5" font-family="Helvetica,sans-Serif" font-size="10.00">Hash.SpookyHashV1_Implementation.</text>
<text text-anchor="middle" x="589" y="-68.5" font-family="Helvetica,sans-Serif" font-size="10.00">BlockTransformer.ShortEnd</text>
</a>
</g>
</g>
<!-- Node1&#45;&gt;Node7 -->
<g id="edge7_Node000001_Node000007" class="edge">
<title>Node1&#45;&gt;Node7</title>
<g id="a_edge7_Node000001_Node000007"><a xlink:title=" ">
<path fill="none" stroke="#63b8ff" d="M706.14,-100.4C698.17,-99.28 690.15,-98.14 682.25,-97.03"/>
<polygon fill="#63b8ff" stroke="#63b8ff" points="705.48,-103.84 715.87,-101.78 706.46,-96.91 705.48,-103.84"/>
</a>
</g>
</g>
<!-- Node9 -->
<g id="Node000009" class="node">
<title>Node9</title>
<g id="a_Node000009"><a xlink:href="class_data_1_1_hash_function_1_1_spooky_hash_1_1_spooky_hash_v1___implementation_1_1_block_transformer.html#a275bed4dccf1ab75e373cf69111c0a54" target="_top" xlink:title=" ">
<polygon fill="white" stroke="#666666" points="681.75,-44 496.25,-44 496.25,0 681.75,0 681.75,-44"/>
<text text-anchor="start" x="504.25" y="-30.5" font-family="Helvetica,sans-Serif" font-size="10.00">Data.HashFunction.Spooky</text>
<text text-anchor="start" x="504.25" y="-18.5" font-family="Helvetica,sans-Serif" font-size="10.00">Hash.SpookyHashV1_Implementation.</text>
<text text-anchor="middle" x="589" y="-6.5" font-family="Helvetica,sans-Serif" font-size="10.00">BlockTransformer.ShortMix</text>
</a>
</g>
</g>
<!-- Node1&#45;&gt;Node9 -->
<g id="edge10_Node000001_Node000009" class="edge">
<title>Node1&#45;&gt;Node9</title>
<g id="a_edge10_Node000001_Node000009"><a xlink:title=" ">
<path fill="none" stroke="#63b8ff" d="M756.54,-87.44C733.81,-76.1 706.78,-63.25 681.75,-53 674.59,-50.07 667.05,-47.19 659.48,-44.44"/>
<polygon fill="#63b8ff" stroke="#63b8ff" points="754.8,-90.48 765.3,-91.85 757.94,-84.23 754.8,-90.48"/>
</a>
</g>
</g>
<!-- Node3 -->
<g id="Node000003" class="node">
<title>Node3</title>
<g id="a_Node000003"><a xlink:href="class_data_1_1_hash_function_1_1_spooky_hash_1_1_spooky_hash_v1___implementation_1_1_block_transformer.html#a96e78ae7106d29acfd2d41530b719f73" target="_top" xlink:title=" ">
<polygon fill="white" stroke="#666666" points="445.62,-230 260.12,-230 260.12,-186 445.62,-186 445.62,-230"/>
<text text-anchor="start" x="268.12" y="-216.5" font-family="Helvetica,sans-Serif" font-size="10.00">Data.HashFunction.Spooky</text>
<text text-anchor="start" x="268.12" y="-204.5" font-family="Helvetica,sans-Serif" font-size="10.00">Hash.SpookyHashV1_Implementation.</text>
<text text-anchor="middle" x="352.88" y="-192.5" font-family="Helvetica,sans-Serif" font-size="10.00">BlockTransformer.End</text>
</a>
</g>
</g>
<!-- Node2&#45;&gt;Node3 -->
<g id="edge2_Node000002_Node000003" class="edge">
<title>Node2&#45;&gt;Node3</title>
<g id="a_edge2_Node000002_Node000003"><a xlink:title=" ">
<path fill="none" stroke="#63b8ff" d="M484.58,-208C471.73,-208 458.65,-208 445.99,-208"/>
<polygon fill="#63b8ff" stroke="#63b8ff" points="484.29,-211.5 494.29,-208 484.29,-204.5 484.29,-211.5"/>
</a>
</g>
</g>
<!-- Node4 -->
<g id="Node000004" class="node">
<title>Node4</title>
<g id="a_Node000004"><a xlink:href="class_data_1_1_hash_function_1_1_spooky_hash_1_1_spooky_hash_v1___implementation_1_1_block_transformer.html#a46d7380227e4932c23aa8aed1cade26e" target="_top" xlink:title=" ">
<polygon fill="white" stroke="#666666" points="209.5,-180 0,-180 0,-136 209.5,-136 209.5,-180"/>
<text text-anchor="start" x="8" y="-166.5" font-family="Helvetica,sans-Serif" font-size="10.00">Data.HashFunction.Spooky</text>
<text text-anchor="start" x="8" y="-154.5" font-family="Helvetica,sans-Serif" font-size="10.00">Hash.SpookyHashV1_Implementation.</text>
<text text-anchor="middle" x="104.75" y="-142.5" font-family="Helvetica,sans-Serif" font-size="10.00">BlockTransformer.FinalizeHashValueInternal</text>
</a>
</g>
</g>
<!-- Node3&#45;&gt;Node4 -->
<g id="edge3_Node000003_Node000004" class="edge">
<title>Node3&#45;&gt;Node4</title>
<g id="a_edge3_Node000003_Node000004"><a xlink:title=" ">
<path fill="none" stroke="#63b8ff" d="M248.63,-187.03C235.74,-184.41 222.54,-181.73 209.63,-179.1"/>
<polygon fill="#63b8ff" stroke="#63b8ff" points="247.9,-190.45 258.39,-189.01 249.29,-183.59 247.9,-190.45"/>
</a>
</g>
</g>
<!-- Node5&#45;&gt;Node4 -->
<g id="edge5_Node000005_Node000004" class="edge">
<title>Node5&#45;&gt;Node4</title>
<g id="a_edge5_Node000005_Node000004"><a xlink:title=" ">
<path fill="none" stroke="#63b8ff" d="M484.64,-148.57C403.48,-150.59 290.99,-153.39 209.69,-155.41"/>
<polygon fill="#63b8ff" stroke="#63b8ff" points="484.45,-152.08 494.36,-148.33 484.28,-145.08 484.45,-152.08"/>
</a>
</g>
</g>
<!-- Node6 -->
<g id="Node000006" class="node">
<title>Node6</title>
<g id="a_Node000006"><a xlink:href="class_data_1_1_hash_function_1_1_spooky_hash_1_1_spooky_hash_v1___implementation_1_1_block_transformer.html#a9eaa0228bbb192e2d1dfed998af7c1d9" target="_top" xlink:title=" ">
<polygon fill="white" stroke="#666666" points="449,-130 256.75,-130 256.75,-74 449,-74 449,-130"/>
<text text-anchor="start" x="264.75" y="-116.5" font-family="Helvetica,sans-Serif" font-size="10.00">Data.HashFunction.Spooky</text>
<text text-anchor="start" x="264.75" y="-104.5" font-family="Helvetica,sans-Serif" font-size="10.00">Hash.SpookyHashV1_Implementation.</text>
<text text-anchor="start" x="264.75" y="-92.5" font-family="Helvetica,sans-Serif" font-size="10.00">BlockTransformer.TransformByteGroups</text>
<text text-anchor="middle" x="352.88" y="-80.5" font-family="Helvetica,sans-Serif" font-size="10.00">Internal</text>
</a>
</g>
</g>
<!-- Node5&#45;&gt;Node6 -->
<g id="edge6_Node000005_Node000006" class="edge">
<title>Node5&#45;&gt;Node6</title>
<g id="a_edge6_Node000005_Node000006"><a xlink:title=" ">
<path fill="none" stroke="#63b8ff" d="M484.65,-126.58C472.94,-124.38 461.05,-122.14 449.45,-119.96"/>
<polygon fill="#63b8ff" stroke="#63b8ff" points="483.84,-129.99 494.32,-128.39 485.13,-123.11 483.84,-129.99"/>
</a>
</g>
</g>
<!-- Node8 -->
<g id="Node000008" class="node">
<title>Node8</title>
<g id="a_Node000008"><a xlink:href="class_data_1_1_hash_function_1_1_spooky_hash_1_1_spooky_hash_v1___implementation_1_1_block_transformer.html#a9202e9c12c40cb7da4415cf8867b7d72" target="_top" xlink:title=" ">
<polygon fill="white" stroke="#666666" points="460.25,-56 245.5,-56 245.5,-12 460.25,-12 460.25,-56"/>
<text text-anchor="start" x="253.5" y="-42.5" font-family="Helvetica,sans-Serif" font-size="10.00">Data.HashFunction.Spooky</text>
<text text-anchor="start" x="253.5" y="-30.5" font-family="Helvetica,sans-Serif" font-size="10.00">Hash.SpookyHashV1_Implementation.</text>
<text text-anchor="middle" x="352.88" y="-18.5" font-family="Helvetica,sans-Serif" font-size="10.00">BlockTransformer.ComputeShortHashInternal</text>
</a>
</g>
</g>
<!-- Node7&#45;&gt;Node8 -->
<g id="edge8_Node000007_Node000008" class="edge">
<title>Node7&#45;&gt;Node8</title>
<g id="a_edge8_Node000007_Node000008"><a xlink:title=" ">
<path fill="none" stroke="#63b8ff" d="M484.72,-61.94C476.24,-60.13 467.66,-58.3 459.16,-56.48"/>
<polygon fill="#63b8ff" stroke="#63b8ff" points="483.81,-65.33 494.32,-63.99 485.28,-58.48 483.81,-65.33"/>
</a>
</g>
</g>
<!-- Node8&#45;&gt;Node4 -->
<g id="edge9_Node000008_Node000004" class="edge">
<title>Node8&#45;&gt;Node4</title>
<g id="a_edge9_Node000008_Node000004"><a xlink:title=" ">
<path fill="none" stroke="#63b8ff" d="M255.69,-60.55C252.22,-61.98 248.81,-63.46 245.5,-65 204.01,-84.3 160.85,-114.9 133.67,-135.69"/>
<polygon fill="#63b8ff" stroke="#63b8ff" points="256.79,-63.88 264.84,-56.99 254.25,-57.35 256.79,-63.88"/>
</a>
</g>
</g>
<!-- Node9&#45;&gt;Node8 -->
<g id="edge11_Node000009_Node000008" class="edge">
<title>Node9&#45;&gt;Node8</title>
<g id="a_edge11_Node000009_Node000008"><a xlink:title=" ">
<path fill="none" stroke="#63b8ff" d="M484.37,-27.31C476.52,-27.71 468.59,-28.12 460.72,-28.52"/>
<polygon fill="#63b8ff" stroke="#63b8ff" points="484.48,-30.81 494.29,-26.8 484.13,-23.82 484.48,-30.81"/>
</a>
</g>
</g>
</g>
</svg>

<g id="navigator" transform="translate(0 0)" fill="#404254">
  <rect fill="#f2f5e9" fill-opacity="0.5" stroke="#606060" stroke-width=".5" x="0" y="0" width="60" height="60"/>
  <use id="zoomplus" xlink:href="#zoomPlus" x="17" y="9" onmousedown="handleZoom(evt,'in')"/>
  <use id="zoomminus" xlink:href="#zoomMin" x="42" y="9" onmousedown="handleZoom(evt,'out')"/>
  <use id="reset" xlink:href="#resetDef" x="30" y="36" onmousedown="handleReset()"/>
   <use id="arrowup" xlink:href="#arrowUp" x="0" y="0" onmousedown="handlePan(0,-1)"/>
  <use id="arrowright" xlink:href="#arrowRight" x="0" y="0" onmousedown="handlePan(1,0)"/>
  <use id="arrowdown" xlink:href="#arrowDown" x="0" y="0" onmousedown="handlePan(0,1)"/>
  <use id="arrowleft" xlink:href="#arrowLeft" x="0" y="0" onmousedown="handlePan(-1,0)"/>
</g>
<svg viewBox="0 0 15 15" width="100%" height="30px" preserveAspectRatio="xMaxYMin meet">
 <g id="arrow_out" transform="scale(0.3 0.3)">
  <a xlink:href="class_data_1_1_hash_function_1_1_spooky_hash_1_1_spooky_hash_v1___implementation_1_1_block_transformer_a9866bd63d99a4fb1ed7ce3d1a093f6e9_icgraph_org.svg" target="_base">
   <rect id="button" ry="5" rx="5" y="6" x="6" height="38" width="38"
        fill="#f2f5e9" fill-opacity="0.5" stroke="#606060" stroke-width="1.0"/>
   <path id="arrow"
     d="M 11.500037,31.436501 C 11.940474,20.09759 22.043105,11.32322 32.158766,21.979434 L 37.068811,17.246167 C 37.068811,17.246167 37.088388,32 37.088388,32 L 22.160133,31.978069 C 22.160133,31.978069 26.997745,27.140456 26.997745,27.140456 C 18.528582,18.264221 13.291696,25.230495 11.500037,31.436501 z"
     style="fill:#404040;"/>
  </a>
 </g>
</svg>

<style type='text/css'>
<![CDATA[
[data-mouse-over-selected='false'] { opacity: 0.7; }
[data-mouse-over-selected='true']  { opacity: 1.0; }
]]>
</style>
<script type="application/ecmascript"><![CDATA[
document.addEventListener('DOMContentLoaded', (event) => {
  highlightEdges();
  highlightAdjacentNodes();
});
]]></script>
</svg>
