<?xml version="1.0" encoding="UTF-8" standalone="no"?>
<!DOCTYPE svg PUBLIC "-//W3C//DTD SVG 1.1//EN"
 "http://www.w3.org/Graphics/SVG/1.1/DTD/svg11.dtd">
<!-- Generated by graphviz version 12.2.0 (20241103.1931)
 -->
<!-- Title: Data.HashFunction.FarmHash.FarmHashFingerprint64_Implementation.ComputeHashInternal Pages: 1 -->
<svg width="913pt" height="370pt"
 viewBox="0.00 0.00 912.75 370.00" xmlns="http://www.w3.org/2000/svg" xmlns:xlink="http://www.w3.org/1999/xlink">
<g id="graph0" class="graph" transform="scale(1 1) rotate(0) translate(4 366)">
<title>Data.HashFunction.FarmHash.FarmHashFingerprint64_Implementation.ComputeHashInternal</title>
<!-- Node1 -->
<g id="Node000001" class="node">
<title>Node1</title>
<g id="a_Node000001"><a xlink:title=" ">
<polygon fill="#999999" stroke="#666666" points="193,-269 0,-269 0,-225 193,-225 193,-269"/>
<text text-anchor="start" x="8" y="-255.5" font-family="Helvetica,sans-Serif" font-size="10.00">Data.HashFunction.FarmHash.</text>
<text text-anchor="start" x="8" y="-243.5" font-family="Helvetica,sans-Serif" font-size="10.00">FarmHashFingerprint64_Implementation.</text>
<text text-anchor="middle" x="96.5" y="-231.5" font-family="Helvetica,sans-Serif" font-size="10.00">ComputeHashInternal</text>
</a>
</g>
</g>
<!-- Node2 -->
<g id="Node000002" class="node">
<title>Node2</title>
<g id="a_Node000002"><a xlink:href="class_data_1_1_hash_function_1_1_farm_hash_1_1_farm_hash_fingerprint64___implementation.html#aebc3be424bbca859b1d4ba1a37d47588" target="_top" xlink:title=" ">
<polygon fill="white" stroke="#666666" points="422,-238 229,-238 229,-194 422,-194 422,-238"/>
<text text-anchor="start" x="237" y="-224.5" font-family="Helvetica,sans-Serif" font-size="10.00">Data.HashFunction.FarmHash.</text>
<text text-anchor="start" x="237" y="-212.5" font-family="Helvetica,sans-Serif" font-size="10.00">FarmHashFingerprint64_Implementation.</text>
<text text-anchor="middle" x="325.5" y="-200.5" font-family="Helvetica,sans-Serif" font-size="10.00">ComputeHash0To16</text>
</a>
</g>
</g>
<!-- Node1&#45;&gt;Node2 -->
<g id="edge1_Node000001_Node000002" class="edge">
<title>Node1&#45;&gt;Node2</title>
<g id="a_edge1_Node000001_Node000002"><a xlink:title=" ">
<path fill="none" stroke="#63b8ff" d="M193.44,-233.9C201.33,-232.82 209.35,-231.73 217.32,-230.64"/>
<polygon fill="#63b8ff" stroke="#63b8ff" points="217.61,-234.13 227.04,-229.31 216.66,-227.19 217.61,-234.13"/>
</a>
</g>
</g>
<!-- Node6 -->
<g id="Node000006" class="node">
<title>Node6</title>
<g id="a_Node000006"><a xlink:href="class_data_1_1_hash_function_1_1_farm_hash_1_1_farm_hash_fingerprint64___implementation.html#adb3c8555dfe9fb560c9055f0a70ff884" target="_top" xlink:title=" ">
<polygon fill="white" stroke="#666666" points="422,-362 229,-362 229,-318 422,-318 422,-362"/>
<text text-anchor="start" x="237" y="-348.5" font-family="Helvetica,sans-Serif" font-size="10.00">Data.HashFunction.FarmHash.</text>
<text text-anchor="start" x="237" y="-336.5" font-family="Helvetica,sans-Serif" font-size="10.00">FarmHashFingerprint64_Implementation.</text>
<text text-anchor="middle" x="325.5" y="-324.5" font-family="Helvetica,sans-Serif" font-size="10.00">ComputeHash17To32</text>
</a>
</g>
</g>
<!-- Node1&#45;&gt;Node6 -->
<g id="edge5_Node000001_Node000006" class="edge">
<title>Node1&#45;&gt;Node6</title>
<g id="a_edge5_Node000001_Node000006"><a xlink:title=" ">
<path fill="none" stroke="#63b8ff" d="M141.32,-269.37C166.6,-281.84 199.2,-297.19 229,-309 233.03,-310.6 237.18,-312.18 241.39,-313.73"/>
<polygon fill="#63b8ff" stroke="#63b8ff" points="239.92,-316.92 250.51,-317 242.28,-310.33 239.92,-316.92"/>
</a>
</g>
</g>
<!-- Node7 -->
<g id="Node000007" class="node">
<title>Node7</title>
<g id="a_Node000007"><a xlink:href="class_data_1_1_hash_function_1_1_farm_hash_1_1_farm_hash_fingerprint64___implementation.html#a92bd5e6ecc8b5bc0b27deff5e81c5533" target="_top" xlink:title=" ">
<polygon fill="white" stroke="#666666" points="422,-300 229,-300 229,-256 422,-256 422,-300"/>
<text text-anchor="start" x="237" y="-286.5" font-family="Helvetica,sans-Serif" font-size="10.00">Data.HashFunction.FarmHash.</text>
<text text-anchor="start" x="237" y="-274.5" font-family="Helvetica,sans-Serif" font-size="10.00">FarmHashFingerprint64_Implementation.</text>
<text text-anchor="middle" x="325.5" y="-262.5" font-family="Helvetica,sans-Serif" font-size="10.00">ComputeHash33To64</text>
</a>
</g>
</g>
<!-- Node1&#45;&gt;Node7 -->
<g id="edge8_Node000001_Node000007" class="edge">
<title>Node1&#45;&gt;Node7</title>
<g id="a_edge8_Node000001_Node000007"><a xlink:title=" ">
<path fill="none" stroke="#63b8ff" d="M193.44,-260.1C201.33,-261.18 209.35,-262.27 217.32,-263.36"/>
<polygon fill="#63b8ff" stroke="#63b8ff" points="216.66,-266.81 227.04,-264.69 217.61,-259.87 216.66,-266.81"/>
</a>
</g>
</g>
<!-- Node8 -->
<g id="Node000008" class="node">
<title>Node8</title>
<g id="a_Node000008"><a xlink:href="class_data_1_1_hash_function_1_1_farm_hash_1_1_farm_hash_fingerprint64___implementation.html#a64fde0d2f959c75d45d5a42065b1a5e0" target="_top" xlink:title=" ">
<polygon fill="white" stroke="#666666" points="422,-160 229,-160 229,-116 422,-116 422,-160"/>
<text text-anchor="start" x="237" y="-146.5" font-family="Helvetica,sans-Serif" font-size="10.00">Data.HashFunction.FarmHash.</text>
<text text-anchor="start" x="237" y="-134.5" font-family="Helvetica,sans-Serif" font-size="10.00">FarmHashFingerprint64_Implementation.</text>
<text text-anchor="middle" x="325.5" y="-122.5" font-family="Helvetica,sans-Serif" font-size="10.00">ComputeHash65Plus</text>
</a>
</g>
</g>
<!-- Node1&#45;&gt;Node8 -->
<g id="edge11_Node000001_Node000008" class="edge">
<title>Node1&#45;&gt;Node8</title>
<g id="a_edge11_Node000001_Node000008"><a xlink:title=" ">
<path fill="none" stroke="#63b8ff" d="M144.26,-224.55C180.12,-207.33 229.77,-183.49 267.88,-165.19"/>
<polygon fill="#63b8ff" stroke="#63b8ff" points="268.94,-168.56 276.44,-161.08 265.91,-162.25 268.94,-168.56"/>
</a>
</g>
</g>
<!-- Node3 -->
<g id="Node000003" class="node">
<title>Node3</title>
<g id="a_Node000003"><a xlink:href="class_data_1_1_hash_function_1_1_farm_hash_1_1_farm_hash_fingerprint64___implementation.html#a35cf46665f8556a179e97dede39e84e6" target="_top" xlink:title=" ">
<polygon fill="white" stroke="#666666" points="663.38,-294 470.38,-294 470.38,-250 663.38,-250 663.38,-294"/>
<text text-anchor="start" x="478.38" y="-280.5" font-family="Helvetica,sans-Serif" font-size="10.00">Data.HashFunction.FarmHash.</text>
<text text-anchor="start" x="478.38" y="-268.5" font-family="Helvetica,sans-Serif" font-size="10.00">FarmHashFingerprint64_Implementation.</text>
<text text-anchor="middle" x="566.88" y="-256.5" font-family="Helvetica,sans-Serif" font-size="10.00">ComputeHash16</text>
</a>
</g>
</g>
<!-- Node2&#45;&gt;Node3 -->
<g id="edge2_Node000002_Node000003" class="edge">
<title>Node2&#45;&gt;Node3</title>
<g id="a_edge2_Node000002_Node000003"><a xlink:title=" ">
<path fill="none" stroke="#63b8ff" d="M422.48,-238.45C434.53,-241.27 446.92,-244.17 459.12,-247.03"/>
<polygon fill="#63b8ff" stroke="#63b8ff" points="458.25,-250.42 468.79,-249.29 459.85,-243.6 458.25,-250.42"/>
</a>
</g>
</g>
<!-- Node4 -->
<g id="Node000004" class="node">
<title>Node4</title>
<g id="a_Node000004"><a xlink:href="class_data_1_1_hash_function_1_1_farm_hash_1_1_farm_hash_fingerprint64___implementation.html#af606f9f98b6589db379a67cc58089b4c" target="_top" xlink:title=" ">
<polygon fill="white" stroke="#666666" points="904.75,-244 711.75,-244 711.75,-200 904.75,-200 904.75,-244"/>
<text text-anchor="start" x="719.75" y="-230.5" font-family="Helvetica,sans-Serif" font-size="10.00">Data.HashFunction.FarmHash.</text>
<text text-anchor="start" x="719.75" y="-218.5" font-family="Helvetica,sans-Serif" font-size="10.00">FarmHashFingerprint64_Implementation.</text>
<text text-anchor="middle" x="808.25" y="-206.5" font-family="Helvetica,sans-Serif" font-size="10.00">RotateRight</text>
</a>
</g>
</g>
<!-- Node2&#45;&gt;Node4 -->
<g id="edge3_Node000002_Node000004" class="edge">
<title>Node2&#45;&gt;Node4</title>
<g id="a_edge3_Node000002_Node000004"><a xlink:title=" ">
<path fill="none" stroke="#63b8ff" d="M422.34,-217.2C502.61,-218.2 617.08,-219.63 700.31,-220.67"/>
<polygon fill="#63b8ff" stroke="#63b8ff" points="700.02,-224.16 710.07,-220.79 700.11,-217.16 700.02,-224.16"/>
</a>
</g>
</g>
<!-- Node5 -->
<g id="Node000005" class="node">
<title>Node5</title>
<g id="a_Node000005"><a xlink:href="class_data_1_1_hash_function_1_1_farm_hash_1_1_farm_hash_fingerprint64___implementation.html#abf8db1e285ec3425e5047bf89173407d" target="_top" xlink:title=" ">
<polygon fill="white" stroke="#666666" points="663.38,-194 470.38,-194 470.38,-150 663.38,-150 663.38,-194"/>
<text text-anchor="start" x="478.38" y="-180.5" font-family="Helvetica,sans-Serif" font-size="10.00">Data.HashFunction.FarmHash.</text>
<text text-anchor="start" x="478.38" y="-168.5" font-family="Helvetica,sans-Serif" font-size="10.00">FarmHashFingerprint64_Implementation.</text>
<text text-anchor="middle" x="566.88" y="-156.5" font-family="Helvetica,sans-Serif" font-size="10.00">ShiftMix</text>
</a>
</g>
</g>
<!-- Node2&#45;&gt;Node5 -->
<g id="edge4_Node000002_Node000005" class="edge">
<title>Node2&#45;&gt;Node5</title>
<g id="a_edge4_Node000002_Node000005"><a xlink:title=" ">
<path fill="none" stroke="#63b8ff" d="M422.48,-198.36C434.53,-196.14 446.92,-193.87 459.12,-191.62"/>
<polygon fill="#63b8ff" stroke="#63b8ff" points="459.57,-195.1 468.77,-189.85 458.3,-188.21 459.57,-195.1"/>
</a>
</g>
</g>
<!-- Node6&#45;&gt;Node3 -->
<g id="edge6_Node000006_Node000003" class="edge">
<title>Node6&#45;&gt;Node3</title>
<g id="a_edge6_Node000006_Node000003"><a xlink:title=" ">
<path fill="none" stroke="#63b8ff" d="M405.54,-317.55C428.12,-311.13 452.88,-304.1 476.04,-297.52"/>
<polygon fill="#63b8ff" stroke="#63b8ff" points="476.8,-300.94 485.46,-294.84 474.88,-294.21 476.8,-300.94"/>
</a>
</g>
</g>
<!-- Node6&#45;&gt;Node4 -->
<g id="edge7_Node000006_Node000004" class="edge">
<title>Node6&#45;&gt;Node4</title>
<g id="a_edge7_Node000006_Node000004"><a xlink:title=" ">
<path fill="none" stroke="#63b8ff" d="M422.21,-350.88C494.17,-355.48 594.01,-354.09 675.75,-324 716.43,-309.02 754.6,-276.56 779.22,-252.26"/>
<polygon fill="#63b8ff" stroke="#63b8ff" points="781.42,-255.01 785.97,-245.44 776.45,-250.09 781.42,-255.01"/>
</a>
</g>
</g>
<!-- Node7&#45;&gt;Node3 -->
<g id="edge9_Node000007_Node000003" class="edge">
<title>Node7&#45;&gt;Node3</title>
<g id="a_edge9_Node000007_Node000003"><a xlink:title=" ">
<path fill="none" stroke="#63b8ff" d="M422.48,-275.59C434.53,-275.29 446.92,-274.98 459.12,-274.68"/>
<polygon fill="#63b8ff" stroke="#63b8ff" points="458.84,-278.18 468.75,-274.43 458.66,-271.19 458.84,-278.18"/>
</a>
</g>
</g>
<!-- Node7&#45;&gt;Node4 -->
<g id="edge10_Node000007_Node000004" class="edge">
<title>Node7&#45;&gt;Node4</title>
<g id="a_edge10_Node000007_Node000004"><a xlink:title=" ">
<path fill="none" stroke="#63b8ff" d="M413.22,-300.46C484.94,-315.21 588.75,-327.64 675.75,-303 711.44,-292.89 746.95,-270.06 772.06,-251.2"/>
<polygon fill="#63b8ff" stroke="#63b8ff" points="774.16,-254 779.95,-245.13 769.89,-248.45 774.16,-254"/>
</a>
</g>
</g>
<!-- Node8&#45;&gt;Node3 -->
<g id="edge12_Node000008_Node000003" class="edge">
<title>Node8&#45;&gt;Node3</title>
<g id="a_edge12_Node000008_Node000003"><a xlink:title=" ">
<path fill="none" stroke="#63b8ff" d="M374.03,-160.39C389.48,-167.93 406.6,-176.57 422,-185 455.9,-203.55 493.22,-226.18 521.35,-243.71"/>
<polygon fill="#63b8ff" stroke="#63b8ff" points="519.28,-246.54 529.61,-248.88 522.99,-240.61 519.28,-246.54"/>
</a>
</g>
</g>
<!-- Node8&#45;&gt;Node4 -->
<g id="edge13_Node000008_Node000004" class="edge">
<title>Node8&#45;&gt;Node4</title>
<g id="a_edge13_Node000008_Node000004"><a xlink:title=" ">
<path fill="none" stroke="#63b8ff" d="M377.16,-115.52C447.02,-87.95 575.66,-49.65 675.75,-91 724.06,-110.96 763.95,-158.22 786.69,-190.18"/>
<polygon fill="#63b8ff" stroke="#63b8ff" points="783.75,-192.08 792.32,-198.31 789.51,-188.1 783.75,-192.08"/>
</a>
</g>
</g>
<!-- Node8&#45;&gt;Node5 -->
<g id="edge14_Node000008_Node000005" class="edge">
<title>Node8&#45;&gt;Node5</title>
<g id="a_edge14_Node000008_Node000005"><a xlink:title=" ">
<path fill="none" stroke="#63b8ff" d="M422.48,-151.63C434.53,-153.34 446.92,-155.1 459.12,-156.84"/>
<polygon fill="#63b8ff" stroke="#63b8ff" points="458.37,-160.27 468.76,-158.21 459.35,-153.33 458.37,-160.27"/>
</a>
</g>
</g>
<!-- Node9 -->
<g id="Node000009" class="node">
<title>Node9</title>
<g id="a_Node000009"><a xlink:href="class_data_1_1_hash_function_1_1_farm_hash_1_1_farm_hash_fingerprint64___implementation.html#aa648b19b6f141be882067f7d275b645f" target="_top" xlink:title=" ">
<polygon fill="white" stroke="#666666" points="675.75,-132 458,-132 458,-100 675.75,-100 675.75,-132"/>
<text text-anchor="start" x="466" y="-118.5" font-family="Helvetica,sans-Serif" font-size="10.00">Data.HashFunction.FarmHash.</text>
<text text-anchor="middle" x="566.88" y="-106.5" font-family="Helvetica,sans-Serif" font-size="10.00">FarmHashFingerprint64_Implementation.Swap</text>
</a>
</g>
</g>
<!-- Node8&#45;&gt;Node9 -->
<g id="edge15_Node000008_Node000009" class="edge">
<title>Node8&#45;&gt;Node9</title>
<g id="a_edge15_Node000008_Node000009"><a xlink:title=" ">
<path fill="none" stroke="#63b8ff" d="M422.48,-129.18C430.35,-128.46 438.36,-127.72 446.37,-126.98"/>
<polygon fill="#63b8ff" stroke="#63b8ff" points="446.54,-130.48 456.17,-126.08 445.89,-123.51 446.54,-130.48"/>
</a>
</g>
</g>
<!-- Node10 -->
<g id="Node000010" class="node">
<title>Node10</title>
<g id="a_Node000010"><a xlink:href="class_data_1_1_hash_function_1_1_farm_hash_1_1_farm_hash_fingerprint64___implementation.html#a8e4491cc5ce3075985c959537a3cbd04" target="_top" xlink:title=" ">
<polygon fill="white" stroke="#666666" points="663.38,-44 470.38,-44 470.38,0 663.38,0 663.38,-44"/>
<text text-anchor="start" x="478.38" y="-30.5" font-family="Helvetica,sans-Serif" font-size="10.00">Data.HashFunction.FarmHash.</text>
<text text-anchor="start" x="478.38" y="-18.5" font-family="Helvetica,sans-Serif" font-size="10.00">FarmHashFingerprint64_Implementation.</text>
<text text-anchor="middle" x="566.88" y="-6.5" font-family="Helvetica,sans-Serif" font-size="10.00">WeakHashLen32WithSeeds</text>
</a>
</g>
</g>
<!-- Node8&#45;&gt;Node10 -->
<g id="edge16_Node000008_Node000010" class="edge">
<title>Node8&#45;&gt;Node10</title>
<g id="a_edge16_Node000008_Node000010"><a xlink:title=" ">
<path fill="none" stroke="#63b8ff" d="M358.6,-115.65C384.55,-98.29 422.49,-74.47 458,-58 465.26,-54.63 472.94,-51.42 480.7,-48.42"/>
<polygon fill="#63b8ff" stroke="#63b8ff" points="481.77,-51.75 489.9,-44.97 479.31,-45.2 481.77,-51.75"/>
</a>
</g>
</g>
<!-- Node10&#45;&gt;Node4 -->
<g id="edge17_Node000010_Node000004" class="edge">
<title>Node10&#45;&gt;Node4</title>
<g id="a_edge17_Node000010_Node000004"><a xlink:title=" ">
<path fill="none" stroke="#63b8ff" d="M651.51,-44.45C660.04,-48.32 668.3,-52.81 675.75,-58 726.25,-93.18 767.28,-153.18 789.4,-190.03"/>
<polygon fill="#63b8ff" stroke="#63b8ff" points="786.28,-191.63 794.37,-198.47 792.31,-188.08 786.28,-191.63"/>
</a>
</g>
</g>
</g>
</svg>
