<?xml version="1.0" encoding="UTF-8" standalone="no"?>
<!DOCTYPE svg PUBLIC "-//W3C//DTD SVG 1.1//EN"
 "http://www.w3.org/Graphics/SVG/1.1/DTD/svg11.dtd">
<!-- Generated by graphviz version 12.2.0 (20241103.1931)
 -->
<!-- Title: Data.HashFunction.SpookyHash.SpookyHashV2_Implementation.BlockTransformer.ComputeShortHashInternal Pages: 1 -->
<svg width="666pt" height="114pt"
 viewBox="0.00 0.00 665.75 114.00" xmlns="http://www.w3.org/2000/svg" xmlns:xlink="http://www.w3.org/1999/xlink">
<g id="graph0" class="graph" transform="scale(1 1) rotate(0) translate(4 110)">
<title>Data.HashFunction.SpookyHash.SpookyHashV2_Implementation.BlockTransformer.ComputeShortHashInternal</title>
<!-- Node1 -->
<g id="Node000001" class="node">
<title>Node1</title>
<g id="a_Node000001"><a xlink:title=" ">
<polygon fill="#999999" stroke="#666666" points="214.75,-75 0,-75 0,-31 214.75,-31 214.75,-75"/>
<text text-anchor="start" x="8" y="-61.5" font-family="Helvetica,sans-Serif" font-size="10.00">Data.HashFunction.Spooky</text>
<text text-anchor="start" x="8" y="-49.5" font-family="Helvetica,sans-Serif" font-size="10.00">Hash.SpookyHashV2_Implementation.</text>
<text text-anchor="middle" x="107.38" y="-37.5" font-family="Helvetica,sans-Serif" font-size="10.00">BlockTransformer.ComputeShortHashInternal</text>
</a>
</g>
</g>
<!-- Node2 -->
<g id="Node000002" class="node">
<title>Node2</title>
<g id="a_Node000002"><a xlink:href="class_data_1_1_hash_function_1_1_spooky_hash_1_1_spooky_hash_v2___implementation_1_1_block_transformer.html#ae381f9a2a036ac6c597f02b1ec68a2ef" target="_top" xlink:title=" ">
<polygon fill="white" stroke="#666666" points="436.25,-106 250.75,-106 250.75,-62 436.25,-62 436.25,-106"/>
<text text-anchor="start" x="258.75" y="-92.5" font-family="Helvetica,sans-Serif" font-size="10.00">Data.HashFunction.Spooky</text>
<text text-anchor="start" x="258.75" y="-80.5" font-family="Helvetica,sans-Serif" font-size="10.00">Hash.SpookyHashV2_Implementation.</text>
<text text-anchor="middle" x="343.5" y="-68.5" font-family="Helvetica,sans-Serif" font-size="10.00">BlockTransformer.ShortEnd</text>
</a>
</g>
</g>
<!-- Node1&#45;&gt;Node2 -->
<g id="edge1_Node000001_Node000002" class="edge">
<title>Node1&#45;&gt;Node2</title>
<g id="a_edge1_Node000001_Node000002"><a xlink:title=" ">
<path fill="none" stroke="#63b8ff" d="M215.16,-67.14C223.19,-68.2 231.29,-69.28 239.3,-70.34"/>
<polygon fill="#63b8ff" stroke="#63b8ff" points="238.68,-73.78 249.05,-71.63 239.6,-66.84 238.68,-73.78"/>
</a>
</g>
</g>
<!-- Node4 -->
<g id="Node000004" class="node">
<title>Node4</title>
<g id="a_Node000004"><a xlink:href="class_data_1_1_hash_function_1_1_spooky_hash_1_1_spooky_hash_v2___implementation_1_1_block_transformer.html#a87da861b6e599f9648361e01f89e155f" target="_top" xlink:title=" ">
<polygon fill="white" stroke="#666666" points="436.25,-44 250.75,-44 250.75,0 436.25,0 436.25,-44"/>
<text text-anchor="start" x="258.75" y="-30.5" font-family="Helvetica,sans-Serif" font-size="10.00">Data.HashFunction.Spooky</text>
<text text-anchor="start" x="258.75" y="-18.5" font-family="Helvetica,sans-Serif" font-size="10.00">Hash.SpookyHashV2_Implementation.</text>
<text text-anchor="middle" x="343.5" y="-6.5" font-family="Helvetica,sans-Serif" font-size="10.00">BlockTransformer.ShortMix</text>
</a>
</g>
</g>
<!-- Node1&#45;&gt;Node4 -->
<g id="edge3_Node000001_Node000004" class="edge">
<title>Node1&#45;&gt;Node4</title>
<g id="a_edge3_Node000001_Node000004"><a xlink:title=" ">
<path fill="none" stroke="#63b8ff" d="M215.16,-38.86C223.19,-37.8 231.29,-36.72 239.3,-35.66"/>
<polygon fill="#63b8ff" stroke="#63b8ff" points="239.6,-39.16 249.05,-34.37 238.68,-32.22 239.6,-39.16"/>
</a>
</g>
</g>
<!-- Node3 -->
<g id="Node000003" class="node">
<title>Node3</title>
<g id="a_Node000003"><a xlink:href="class_data_1_1_hash_function_1_1_spooky_hash_1_1_spooky_hash_v2___implementation_1_1_block_transformer.html#a91d47b4eacbadc7d18ab224a2cd4d331" target="_top" xlink:title=" ">
<polygon fill="white" stroke="#666666" points="657.75,-75 472.25,-75 472.25,-31 657.75,-31 657.75,-75"/>
<text text-anchor="start" x="480.25" y="-61.5" font-family="Helvetica,sans-Serif" font-size="10.00">Data.HashFunction.Spooky</text>
<text text-anchor="start" x="480.25" y="-49.5" font-family="Helvetica,sans-Serif" font-size="10.00">Hash.SpookyHashV2_Implementation.</text>
<text text-anchor="middle" x="565" y="-37.5" font-family="Helvetica,sans-Serif" font-size="10.00">BlockTransformer.RotateLeft</text>
</a>
</g>
</g>
<!-- Node2&#45;&gt;Node3 -->
<g id="edge2_Node000002_Node000003" class="edge">
<title>Node2&#45;&gt;Node3</title>
<g id="a_edge2_Node000002_Node000003"><a xlink:title=" ">
<path fill="none" stroke="#63b8ff" d="M436.63,-70.99C444.53,-69.87 452.55,-68.74 460.52,-67.61"/>
<polygon fill="#63b8ff" stroke="#63b8ff" points="460.84,-71.1 470.25,-66.24 459.86,-64.17 460.84,-71.1"/>
</a>
</g>
</g>
<!-- Node4&#45;&gt;Node3 -->
<g id="edge4_Node000004_Node000003" class="edge">
<title>Node4&#45;&gt;Node3</title>
<g id="a_edge4_Node000004_Node000003"><a xlink:title=" ">
<path fill="none" stroke="#63b8ff" d="M436.63,-35.01C444.53,-36.13 452.55,-37.26 460.52,-38.39"/>
<polygon fill="#63b8ff" stroke="#63b8ff" points="459.86,-41.83 470.25,-39.76 460.84,-34.9 459.86,-41.83"/>
</a>
</g>
</g>
</g>
</svg>
