<?xml version="1.0" encoding="UTF-8" standalone="no"?>
<!DOCTYPE svg PUBLIC "-//W3C//DTD SVG 1.1//EN"
 "http://www.w3.org/Graphics/SVG/1.1/DTD/svg11.dtd">
<!-- Generated by graphviz version 12.2.0 (20241103.1931)
 -->
<!-- Title: Data.HashFunction.FarmHash.FarmHashFingerprint32_Implementation.ComputeHashInternal Pages: 1 -->
<!--zoomable 238 -->

<svg id="main" version="1.1" xmlns="http://www.w3.org/2000/svg" xmlns:xlink="http://www.w3.org/1999/xlink" xml:space="preserve" onload="init(evt)">

<style type="text/css"><![CDATA[
.node, .edge {opacity: 0.7;}
.node.selected, .edge.selected {opacity: 1;}
.edge:hover path { stroke: red; }
.edge:hover polygon { stroke: red; fill: red; }
]]></style>

<defs>
  <circle id="rim" cx="0" cy="0" r="7"/>
  <circle id="rim2" cx="0" cy="0" r="3.5"/>
  <g id="zoomPlus">
    <use xlink:href="#rim" fill="#404040"><set attributeName="fill" to="#808080" begin="zoomplus.mouseover" end="zoomplus.mouseout"/></use>
    <path d="M-4,0h8M0,-4v8" fill="none" stroke="white" stroke-width="1.5" pointer-events="none"/>
  </g>
  <g id="zoomMin">
    <use xlink:href="#rim" fill="#404040"><set attributeName="fill" to="#808080" begin="zoomminus.mouseover" end="zoomminus.mouseout"/></use>
    <path d="M-4,0h8" fill="none" stroke="white" stroke-width="1.5" pointer-events="none"/>
  </g>
  <g id="arrowUp" transform="translate(30 24)">
    <use xlink:href="#rim"/>
    <path pointer-events="none" fill="none" stroke="white" stroke-width="1.5" d="M0,-3.0v7 M-2.5,-0.5L0,-3.0L2.5,-0.5"/>
  </g>
  <g id="arrowRight" transform="rotate(90) translate(36 -43)">
    <use xlink:href="#rim"/>
    <path pointer-events="none" fill="none" stroke="white" stroke-width="1.5" d="M0,-3.0v7 M-2.5,-0.5L0,-3.0L2.5,-0.5"/>
  </g>
  <g id="arrowDown" transform="rotate(180) translate(-30 -48)">
    <use xlink:href="#rim"/>
    <path pointer-events="none" fill="none" stroke="white" stroke-width="1.5" d="M0,-3.0v7 M-2.5,-0.5L0,-3.0L2.5,-0.5"/>
  </g>
  <g id="arrowLeft" transform="rotate(270) translate(-36 17)">
    <use xlink:href="#rim"/>
    <path pointer-events="none" fill="none" stroke="white" stroke-width="1.5" d="M0,-3.0v7 M-2.5,-0.5L0,-3.0L2.5,-0.5"/>
  </g>
  <g id="resetDef">
    <use xlink:href="#rim2" fill="#404040"><set attributeName="fill" to="#808080" begin="reset.mouseover" end="reset.mouseout"/></use>
  </g>
</defs>
<script type="application/ecmascript">
var viewWidth = 910;
var viewHeight = 238;
var sectionId = 'dynsection-10';
</script>
<script type="application/ecmascript" xlink:href="svg.min.js"/>
<svg id="graph" class="graph">
<g id="viewport">
<title>Data.HashFunction.FarmHash.FarmHashFingerprint32_Implementation.ComputeHashInternal</title>
<!-- Node1 -->
<g id="Node000001" class="node">
<title>Node1</title>
<g id="a_Node000001"><a xlink:title=" ">
<polygon fill="#999999" stroke="#666666" points="193,-137 0,-137 0,-93 193,-93 193,-137"/>
<text text-anchor="start" x="8" y="-123.5" font-family="Helvetica,sans-Serif" font-size="10.00">Data.HashFunction.FarmHash.</text>
<text text-anchor="start" x="8" y="-111.5" font-family="Helvetica,sans-Serif" font-size="10.00">FarmHashFingerprint32_Implementation.</text>
<text text-anchor="middle" x="96.5" y="-99.5" font-family="Helvetica,sans-Serif" font-size="10.00">ComputeHashInternal</text>
</a>
</g>
</g>
<!-- Node2 -->
<g id="Node000002" class="node">
<title>Node2</title>
<g id="a_Node000002"><a xlink:href="class_data_1_1_hash_function_1_1_farm_hash_1_1_farm_hash_fingerprint32___implementation.html#a88ef8742f9a89f23d9bbbd777d8933dd" target="_top" xlink:title=" ">
<polygon fill="white" stroke="#666666" points="422,-230 229,-230 229,-186 422,-186 422,-230"/>
<text text-anchor="start" x="237" y="-216.5" font-family="Helvetica,sans-Serif" font-size="10.00">Data.HashFunction.FarmHash.</text>
<text text-anchor="start" x="237" y="-204.5" font-family="Helvetica,sans-Serif" font-size="10.00">FarmHashFingerprint32_Implementation.</text>
<text text-anchor="middle" x="325.5" y="-192.5" font-family="Helvetica,sans-Serif" font-size="10.00">ComputeHash0To4</text>
</a>
</g>
</g>
<!-- Node1&#45;&gt;Node2 -->
<g id="edge1_Node000001_Node000002" class="edge">
<title>Node1&#45;&gt;Node2</title>
<g id="a_edge1_Node000001_Node000002"><a xlink:title=" ">
<path fill="none" stroke="#63b8ff" d="M141.32,-137.37C166.6,-149.84 199.2,-165.19 229,-177 233.03,-178.6 237.18,-180.18 241.39,-181.73"/>
<polygon fill="#63b8ff" stroke="#63b8ff" points="239.92,-184.92 250.51,-185 242.28,-178.33 239.92,-184.92"/>
</a>
</g>
</g>
<!-- Node6 -->
<g id="Node000006" class="node">
<title>Node6</title>
<g id="a_Node000006"><a xlink:href="class_data_1_1_hash_function_1_1_farm_hash_1_1_farm_hash_fingerprint32___implementation.html#a473b3c4fa0816ff5e7ce6392676a5e41" target="_top" xlink:title=" ">
<polygon fill="white" stroke="#666666" points="422,-106 229,-106 229,-62 422,-62 422,-106"/>
<text text-anchor="start" x="237" y="-92.5" font-family="Helvetica,sans-Serif" font-size="10.00">Data.HashFunction.FarmHash.</text>
<text text-anchor="start" x="237" y="-80.5" font-family="Helvetica,sans-Serif" font-size="10.00">FarmHashFingerprint32_Implementation.</text>
<text text-anchor="middle" x="325.5" y="-68.5" font-family="Helvetica,sans-Serif" font-size="10.00">ComputeHash13To24</text>
</a>
</g>
</g>
<!-- Node1&#45;&gt;Node6 -->
<g id="edge5_Node000001_Node000006" class="edge">
<title>Node1&#45;&gt;Node6</title>
<g id="a_edge5_Node000001_Node000006"><a xlink:title=" ">
<path fill="none" stroke="#63b8ff" d="M193.44,-101.9C201.33,-100.82 209.35,-99.73 217.32,-98.64"/>
<polygon fill="#63b8ff" stroke="#63b8ff" points="217.61,-102.13 227.04,-97.31 216.66,-95.19 217.61,-102.13"/>
</a>
</g>
</g>
<!-- Node7 -->
<g id="Node000007" class="node">
<title>Node7</title>
<g id="a_Node000007"><a xlink:href="class_data_1_1_hash_function_1_1_farm_hash_1_1_farm_hash_fingerprint32___implementation.html#a374840e50b5ce18b25898420905c18f0" target="_top" xlink:title=" ">
<polygon fill="white" stroke="#666666" points="422,-44 229,-44 229,0 422,0 422,-44"/>
<text text-anchor="start" x="237" y="-30.5" font-family="Helvetica,sans-Serif" font-size="10.00">Data.HashFunction.FarmHash.</text>
<text text-anchor="start" x="237" y="-18.5" font-family="Helvetica,sans-Serif" font-size="10.00">FarmHashFingerprint32_Implementation.</text>
<text text-anchor="middle" x="325.5" y="-6.5" font-family="Helvetica,sans-Serif" font-size="10.00">ComputeHash25Plus</text>
</a>
</g>
</g>
<!-- Node1&#45;&gt;Node7 -->
<g id="edge9_Node000001_Node000007" class="edge">
<title>Node1&#45;&gt;Node7</title>
<g id="a_edge9_Node000001_Node000007"><a xlink:title=" ">
<path fill="none" stroke="#63b8ff" d="M141.32,-92.63C166.6,-80.16 199.2,-64.81 229,-53 233.03,-51.4 237.18,-49.82 241.39,-48.27"/>
<polygon fill="#63b8ff" stroke="#63b8ff" points="242.28,-51.67 250.51,-45 239.92,-45.08 242.28,-51.67"/>
</a>
</g>
</g>
<!-- Node8 -->
<g id="Node000008" class="node">
<title>Node8</title>
<g id="a_Node000008"><a xlink:href="class_data_1_1_hash_function_1_1_farm_hash_1_1_farm_hash_fingerprint32___implementation.html#af789b1639bfad6b93d44b84481dcfa68" target="_top" xlink:title=" ">
<polygon fill="white" stroke="#666666" points="422,-168 229,-168 229,-124 422,-124 422,-168"/>
<text text-anchor="start" x="237" y="-154.5" font-family="Helvetica,sans-Serif" font-size="10.00">Data.HashFunction.FarmHash.</text>
<text text-anchor="start" x="237" y="-142.5" font-family="Helvetica,sans-Serif" font-size="10.00">FarmHashFingerprint32_Implementation.</text>
<text text-anchor="middle" x="325.5" y="-130.5" font-family="Helvetica,sans-Serif" font-size="10.00">ComputeHash5To12</text>
</a>
</g>
</g>
<!-- Node1&#45;&gt;Node8 -->
<g id="edge12_Node000001_Node000008" class="edge">
<title>Node1&#45;&gt;Node8</title>
<g id="a_edge12_Node000001_Node000008"><a xlink:title=" ">
<path fill="none" stroke="#63b8ff" d="M193.44,-128.1C201.33,-129.18 209.35,-130.27 217.32,-131.36"/>
<polygon fill="#63b8ff" stroke="#63b8ff" points="216.66,-134.81 227.04,-132.69 217.61,-127.87 216.66,-134.81"/>
</a>
</g>
</g>
<!-- Node3 -->
<g id="Node000003" class="node">
<title>Node3</title>
<g id="a_Node000003"><a xlink:href="class_data_1_1_hash_function_1_1_farm_hash_1_1_farm_hash_fingerprint32___implementation.html#a3e5bd4da13e9cb6f65a1188fa8f32a87" target="_top" xlink:title=" ">
<polygon fill="white" stroke="#666666" points="672.75,-170 458,-170 458,-138 672.75,-138 672.75,-170"/>
<text text-anchor="start" x="466" y="-156.5" font-family="Helvetica,sans-Serif" font-size="10.00">Data.HashFunction.FarmHash.</text>
<text text-anchor="middle" x="565.38" y="-144.5" font-family="Helvetica,sans-Serif" font-size="10.00">FarmHashFingerprint32_Implementation.FMix</text>
</a>
</g>
</g>
<!-- Node2&#45;&gt;Node3 -->
<g id="edge2_Node000002_Node000003" class="edge">
<title>Node2&#45;&gt;Node3</title>
<g id="a_edge2_Node000002_Node000003"><a xlink:title=" ">
<path fill="none" stroke="#63b8ff" d="M422.22,-186.27C441.65,-181.86 461.94,-177.25 480.9,-172.95"/>
<polygon fill="#63b8ff" stroke="#63b8ff" points="481.44,-176.42 490.42,-170.79 479.89,-169.59 481.44,-176.42"/>
</a>
</g>
</g>
<!-- Node4 -->
<g id="Node000004" class="node">
<title>Node4</title>
<g id="a_Node000004"><a xlink:href="class_data_1_1_hash_function_1_1_farm_hash_1_1_farm_hash_fingerprint32___implementation.html#a8227f28aaeab0238e61f8b97026648f7" target="_top" xlink:title=" ">
<polygon fill="white" stroke="#666666" points="670.12,-120 460.62,-120 460.62,-88 670.12,-88 670.12,-120"/>
<text text-anchor="start" x="468.62" y="-106.5" font-family="Helvetica,sans-Serif" font-size="10.00">Data.HashFunction.FarmHash.</text>
<text text-anchor="middle" x="565.38" y="-94.5" font-family="Helvetica,sans-Serif" font-size="10.00">FarmHashFingerprint32_Implementation.Mur</text>
</a>
</g>
</g>
<!-- Node2&#45;&gt;Node4 -->
<g id="edge3_Node000002_Node000004" class="edge">
<title>Node2&#45;&gt;Node4</title>
<g id="a_edge3_Node000002_Node000004"><a xlink:title=" ">
<path fill="none" stroke="#63b8ff" d="M407.95,-185.54C412.87,-182.98 417.6,-180.14 422,-177 443.69,-161.49 435.68,-143.59 458,-129 459.88,-127.77 461.8,-126.61 463.78,-125.5"/>
<polygon fill="#63b8ff" stroke="#63b8ff" points="465.23,-128.68 472.62,-121.09 462.11,-122.42 465.23,-128.68"/>
</a>
</g>
</g>
<!-- Node5 -->
<g id="Node000005" class="node">
<title>Node5</title>
<g id="a_Node000005"><a xlink:href="class_data_1_1_hash_function_1_1_farm_hash_1_1_farm_hash_fingerprint32___implementation.html#a21d57c514523c6c665da36acab007585" target="_top" xlink:title=" ">
<polygon fill="white" stroke="#666666" points="901.75,-82 708.75,-82 708.75,-38 901.75,-38 901.75,-82"/>
<text text-anchor="start" x="716.75" y="-68.5" font-family="Helvetica,sans-Serif" font-size="10.00">Data.HashFunction.FarmHash.</text>
<text text-anchor="start" x="716.75" y="-56.5" font-family="Helvetica,sans-Serif" font-size="10.00">FarmHashFingerprint32_Implementation.</text>
<text text-anchor="middle" x="805.25" y="-44.5" font-family="Helvetica,sans-Serif" font-size="10.00">RotateRight</text>
</a>
</g>
</g>
<!-- Node4&#45;&gt;Node5 -->
<g id="edge4_Node000004_Node000005" class="edge">
<title>Node4&#45;&gt;Node5</title>
<g id="a_edge4_Node000004_Node000005"><a xlink:title=" ">
<path fill="none" stroke="#63b8ff" d="M655.29,-87.55C668.93,-85.03 683.13,-82.4 697.12,-79.82"/>
<polygon fill="#63b8ff" stroke="#63b8ff" points="697.59,-83.29 706.78,-78.03 696.31,-76.41 697.59,-83.29"/>
</a>
</g>
</g>
<!-- Node6&#45;&gt;Node3 -->
<g id="edge6_Node000006_Node000003" class="edge">
<title>Node6&#45;&gt;Node3</title>
<g id="a_edge6_Node000006_Node000003"><a xlink:title=" ">
<path fill="none" stroke="#63b8ff" d="M397.32,-106.49C405.66,-109.29 414.04,-112.16 422,-115 438.17,-120.76 441.6,-123.91 458,-129 464.27,-130.94 470.78,-132.82 477.37,-134.61"/>
<polygon fill="#63b8ff" stroke="#63b8ff" points="476.45,-137.99 487.01,-137.15 478.24,-131.22 476.45,-137.99"/>
</a>
</g>
</g>
<!-- Node6&#45;&gt;Node4 -->
<g id="edge7_Node000006_Node000004" class="edge">
<title>Node6&#45;&gt;Node4</title>
<g id="a_edge7_Node000006_Node000004"><a xlink:title=" ">
<path fill="none" stroke="#63b8ff" d="M422.22,-92.05C431.03,-92.79 440.01,-93.54 448.97,-94.3"/>
<polygon fill="#63b8ff" stroke="#63b8ff" points="448.51,-97.77 458.77,-95.12 449.1,-90.8 448.51,-97.77"/>
</a>
</g>
</g>
<!-- Node6&#45;&gt;Node5 -->
<g id="edge8_Node000006_Node000005" class="edge">
<title>Node6&#45;&gt;Node5</title>
<g id="a_edge8_Node000006_Node000005"><a xlink:title=" ">
<path fill="none" stroke="#63b8ff" d="M422.32,-79.19C501.8,-75.19 614.72,-69.52 697.17,-65.38"/>
<polygon fill="#63b8ff" stroke="#63b8ff" points="697.27,-68.88 707.08,-64.88 696.92,-61.89 697.27,-68.88"/>
</a>
</g>
</g>
<!-- Node7&#45;&gt;Node4 -->
<g id="edge10_Node000007_Node000004" class="edge">
<title>Node7&#45;&gt;Node4</title>
<g id="a_edge10_Node000007_Node000004"><a xlink:title=" ">
<path fill="none" stroke="#63b8ff" d="M396.47,-44.45C405.08,-47.29 413.75,-50.18 422,-53 450.83,-62.84 482.77,-74.24 509.08,-83.76"/>
<polygon fill="#63b8ff" stroke="#63b8ff" points="507.59,-86.94 518.19,-87.06 509.98,-80.36 507.59,-86.94"/>
</a>
</g>
</g>
<!-- Node7&#45;&gt;Node5 -->
<g id="edge11_Node000007_Node000005" class="edge">
<title>Node7&#45;&gt;Node5</title>
<g id="a_edge11_Node000007_Node000005"><a xlink:title=" ">
<path fill="none" stroke="#63b8ff" d="M422.32,-29.62C501.8,-35.94 614.72,-44.93 697.17,-51.48"/>
<polygon fill="#63b8ff" stroke="#63b8ff" points="696.84,-54.97 707.08,-52.27 697.39,-47.99 696.84,-54.97"/>
</a>
</g>
</g>
<!-- Node8&#45;&gt;Node3 -->
<g id="edge13_Node000008_Node000003" class="edge">
<title>Node8&#45;&gt;Node3</title>
<g id="a_edge13_Node000008_Node000003"><a xlink:title=" ">
<path fill="none" stroke="#63b8ff" d="M422.22,-149.22C430.12,-149.48 438.16,-149.76 446.2,-150.03"/>
<polygon fill="#63b8ff" stroke="#63b8ff" points="445.91,-153.52 456.02,-150.36 446.15,-146.52 445.91,-153.52"/>
</a>
</g>
</g>
<!-- Node8&#45;&gt;Node4 -->
<g id="edge14_Node000008_Node000004" class="edge">
<title>Node8&#45;&gt;Node4</title>
<g id="a_edge14_Node000008_Node000004"><a xlink:title=" ">
<path fill="none" stroke="#63b8ff" d="M422.22,-129.1C434.71,-126.89 447.54,-124.63 460.15,-122.4"/>
<polygon fill="#63b8ff" stroke="#63b8ff" points="460.44,-125.91 469.67,-120.72 459.22,-119.01 460.44,-125.91"/>
</a>
</g>
</g>
</g>
</svg>

<g id="navigator" transform="translate(0 0)" fill="#404254">
  <rect fill="#f2f5e9" fill-opacity="0.5" stroke="#606060" stroke-width=".5" x="0" y="0" width="60" height="60"/>
  <use id="zoomplus" xlink:href="#zoomPlus" x="17" y="9" onmousedown="handleZoom(evt,'in')"/>
  <use id="zoomminus" xlink:href="#zoomMin" x="42" y="9" onmousedown="handleZoom(evt,'out')"/>
  <use id="reset" xlink:href="#resetDef" x="30" y="36" onmousedown="handleReset()"/>
   <use id="arrowup" xlink:href="#arrowUp" x="0" y="0" onmousedown="handlePan(0,-1)"/>
  <use id="arrowright" xlink:href="#arrowRight" x="0" y="0" onmousedown="handlePan(1,0)"/>
  <use id="arrowdown" xlink:href="#arrowDown" x="0" y="0" onmousedown="handlePan(0,1)"/>
  <use id="arrowleft" xlink:href="#arrowLeft" x="0" y="0" onmousedown="handlePan(-1,0)"/>
</g>
<svg viewBox="0 0 15 15" width="100%" height="30px" preserveAspectRatio="xMaxYMin meet">
 <g id="arrow_out" transform="scale(0.3 0.3)">
  <a xlink:href="class_data_1_1_hash_function_1_1_farm_hash_1_1_farm_hash_fingerprint32___implementation_a13076db1601a07f441694e06ae7120e8_cgraph_org.svg" target="_base">
   <rect id="button" ry="5" rx="5" y="6" x="6" height="38" width="38"
        fill="#f2f5e9" fill-opacity="0.5" stroke="#606060" stroke-width="1.0"/>
   <path id="arrow"
     d="M 11.500037,31.436501 C 11.940474,20.09759 22.043105,11.32322 32.158766,21.979434 L 37.068811,17.246167 C 37.068811,17.246167 37.088388,32 37.088388,32 L 22.160133,31.978069 C 22.160133,31.978069 26.997745,27.140456 26.997745,27.140456 C 18.528582,18.264221 13.291696,25.230495 11.500037,31.436501 z"
     style="fill:#404040;"/>
  </a>
 </g>
</svg>

<style type='text/css'>
<![CDATA[
[data-mouse-over-selected='false'] { opacity: 0.7; }
[data-mouse-over-selected='true']  { opacity: 1.0; }
]]>
</style>
<script type="application/ecmascript"><![CDATA[
document.addEventListener('DOMContentLoaded', (event) => {
  highlightEdges();
  highlightAdjacentNodes();
});
]]></script>
</svg>
