<?xml version="1.0" encoding="UTF-8" standalone="no"?>
<!DOCTYPE svg PUBLIC "-//W3C//DTD SVG 1.1//EN"
 "http://www.w3.org/Graphics/SVG/1.1/DTD/svg11.dtd">
<!-- Generated by graphviz version 12.2.0 (20241103.1931)
 -->
<!-- Title: Data.HashFunction.FarmHash.FarmHashFingerprint64_Implementation.RotateRight Pages: 1 -->
<svg width="888pt" height="228pt"
 viewBox="0.00 0.00 888.00 228.00" xmlns="http://www.w3.org/2000/svg" xmlns:xlink="http://www.w3.org/1999/xlink">
<g id="graph0" class="graph" transform="scale(1 1) rotate(0) translate(4 224)">
<title>Data.HashFunction.FarmHash.FarmHashFingerprint64_Implementation.RotateRight</title>
<!-- Node1 -->
<g id="Node000001" class="node">
<title>Node1</title>
<g id="a_Node000001"><a xlink:title=" ">
<polygon fill="#999999" stroke="#666666" points="880,-132 687,-132 687,-88 880,-88 880,-132"/>
<text text-anchor="start" x="695" y="-118.5" font-family="Helvetica,sans-Serif" font-size="10.00">Data.HashFunction.FarmHash.</text>
<text text-anchor="start" x="695" y="-106.5" font-family="Helvetica,sans-Serif" font-size="10.00">FarmHashFingerprint64_Implementation.</text>
<text text-anchor="middle" x="783.5" y="-94.5" font-family="Helvetica,sans-Serif" font-size="10.00">RotateRight</text>
</a>
</g>
</g>
<!-- Node2 -->
<g id="Node000002" class="node">
<title>Node2</title>
<g id="a_Node000002"><a xlink:href="class_data_1_1_hash_function_1_1_farm_hash_1_1_farm_hash_fingerprint64___implementation.html#aebc3be424bbca859b1d4ba1a37d47588" target="_top" xlink:title=" ">
<polygon fill="white" stroke="#666666" points="651,-220 458,-220 458,-176 651,-176 651,-220"/>
<text text-anchor="start" x="466" y="-206.5" font-family="Helvetica,sans-Serif" font-size="10.00">Data.HashFunction.FarmHash.</text>
<text text-anchor="start" x="466" y="-194.5" font-family="Helvetica,sans-Serif" font-size="10.00">FarmHashFingerprint64_Implementation.</text>
<text text-anchor="middle" x="554.5" y="-182.5" font-family="Helvetica,sans-Serif" font-size="10.00">ComputeHash0To16</text>
</a>
</g>
</g>
<!-- Node1&#45;&gt;Node2 -->
<g id="edge1_Node000001_Node000002" class="edge">
<title>Node1&#45;&gt;Node2</title>
<g id="a_edge1_Node000001_Node000002"><a xlink:title=" ">
<path fill="none" stroke="#63b8ff" d="M715.66,-136.67C694.96,-144.87 672.06,-153.87 651,-162 639.51,-166.44 627.22,-171.12 615.41,-175.58"/>
<polygon fill="#63b8ff" stroke="#63b8ff" points="716.85,-139.96 724.86,-133.02 714.27,-133.46 716.85,-139.96"/>
</a>
</g>
</g>
<!-- Node4 -->
<g id="Node000004" class="node">
<title>Node4</title>
<g id="a_Node000004"><a xlink:href="class_data_1_1_hash_function_1_1_farm_hash_1_1_farm_hash_fingerprint64___implementation.html#adb3c8555dfe9fb560c9055f0a70ff884" target="_top" xlink:title=" ">
<polygon fill="white" stroke="#666666" points="422,-170 229,-170 229,-126 422,-126 422,-170"/>
<text text-anchor="start" x="237" y="-156.5" font-family="Helvetica,sans-Serif" font-size="10.00">Data.HashFunction.FarmHash.</text>
<text text-anchor="start" x="237" y="-144.5" font-family="Helvetica,sans-Serif" font-size="10.00">FarmHashFingerprint64_Implementation.</text>
<text text-anchor="middle" x="325.5" y="-132.5" font-family="Helvetica,sans-Serif" font-size="10.00">ComputeHash17To32</text>
</a>
</g>
</g>
<!-- Node1&#45;&gt;Node4 -->
<g id="edge3_Node000001_Node000004" class="edge">
<title>Node1&#45;&gt;Node4</title>
<g id="a_edge3_Node000001_Node000004"><a xlink:title=" ">
<path fill="none" stroke="#63b8ff" d="M675.5,-118.92C598.76,-125.31 496.28,-133.85 422.24,-140.02"/>
<polygon fill="#63b8ff" stroke="#63b8ff" points="675.45,-122.43 685.12,-118.11 674.87,-115.46 675.45,-122.43"/>
</a>
</g>
</g>
<!-- Node5 -->
<g id="Node000005" class="node">
<title>Node5</title>
<g id="a_Node000005"><a xlink:href="class_data_1_1_hash_function_1_1_farm_hash_1_1_farm_hash_fingerprint64___implementation.html#a92bd5e6ecc8b5bc0b27deff5e81c5533" target="_top" xlink:title=" ">
<polygon fill="white" stroke="#666666" points="422,-108 229,-108 229,-64 422,-64 422,-108"/>
<text text-anchor="start" x="237" y="-94.5" font-family="Helvetica,sans-Serif" font-size="10.00">Data.HashFunction.FarmHash.</text>
<text text-anchor="start" x="237" y="-82.5" font-family="Helvetica,sans-Serif" font-size="10.00">FarmHashFingerprint64_Implementation.</text>
<text text-anchor="middle" x="325.5" y="-70.5" font-family="Helvetica,sans-Serif" font-size="10.00">ComputeHash33To64</text>
</a>
</g>
</g>
<!-- Node1&#45;&gt;Node5 -->
<g id="edge5_Node000001_Node000005" class="edge">
<title>Node1&#45;&gt;Node5</title>
<g id="a_edge5_Node000001_Node000005"><a xlink:title=" ">
<path fill="none" stroke="#63b8ff" d="M675.5,-104.37C598.76,-100.33 496.28,-94.94 422.24,-91.04"/>
<polygon fill="#63b8ff" stroke="#63b8ff" points="674.95,-107.84 685.12,-104.87 675.32,-100.85 674.95,-107.84"/>
</a>
</g>
</g>
<!-- Node6 -->
<g id="Node000006" class="node">
<title>Node6</title>
<g id="a_Node000006"><a xlink:href="class_data_1_1_hash_function_1_1_farm_hash_1_1_farm_hash_fingerprint64___implementation.html#a64fde0d2f959c75d45d5a42065b1a5e0" target="_top" xlink:title=" ">
<polygon fill="white" stroke="#666666" points="422,-46 229,-46 229,-2 422,-2 422,-46"/>
<text text-anchor="start" x="237" y="-32.5" font-family="Helvetica,sans-Serif" font-size="10.00">Data.HashFunction.FarmHash.</text>
<text text-anchor="start" x="237" y="-20.5" font-family="Helvetica,sans-Serif" font-size="10.00">FarmHashFingerprint64_Implementation.</text>
<text text-anchor="middle" x="325.5" y="-8.5" font-family="Helvetica,sans-Serif" font-size="10.00">ComputeHash65Plus</text>
</a>
</g>
</g>
<!-- Node1&#45;&gt;Node6 -->
<g id="edge7_Node000001_Node000006" class="edge">
<title>Node1&#45;&gt;Node6</title>
<g id="a_edge7_Node000001_Node000006"><a xlink:title=" ">
<path fill="none" stroke="#63b8ff" d="M675.6,-92.42C612.22,-81.69 530.38,-67.33 458,-53 446.42,-50.71 434.29,-48.19 422.28,-45.63"/>
<polygon fill="#63b8ff" stroke="#63b8ff" points="674.87,-95.84 685.32,-94.06 676.04,-88.94 674.87,-95.84"/>
</a>
</g>
</g>
<!-- Node7 -->
<g id="Node000007" class="node">
<title>Node7</title>
<g id="a_Node000007"><a xlink:href="class_data_1_1_hash_function_1_1_farm_hash_1_1_farm_hash_fingerprint64___implementation.html#a8e4491cc5ce3075985c959537a3cbd04" target="_top" xlink:title=" ">
<polygon fill="white" stroke="#666666" points="651,-44 458,-44 458,0 651,0 651,-44"/>
<text text-anchor="start" x="466" y="-30.5" font-family="Helvetica,sans-Serif" font-size="10.00">Data.HashFunction.FarmHash.</text>
<text text-anchor="start" x="466" y="-18.5" font-family="Helvetica,sans-Serif" font-size="10.00">FarmHashFingerprint64_Implementation.</text>
<text text-anchor="middle" x="554.5" y="-6.5" font-family="Helvetica,sans-Serif" font-size="10.00">WeakHashLen32WithSeeds</text>
</a>
</g>
</g>
<!-- Node1&#45;&gt;Node7 -->
<g id="edge9_Node000001_Node000007" class="edge">
<title>Node1&#45;&gt;Node7</title>
<g id="a_edge9_Node000001_Node000007"><a xlink:title=" ">
<path fill="none" stroke="#63b8ff" d="M715.66,-83.33C694.96,-75.13 672.06,-66.13 651,-58 639.51,-53.56 627.22,-48.88 615.41,-44.42"/>
<polygon fill="#63b8ff" stroke="#63b8ff" points="714.27,-86.54 724.86,-86.98 716.85,-80.04 714.27,-86.54"/>
</a>
</g>
</g>
<!-- Node3 -->
<g id="Node000003" class="node">
<title>Node3</title>
<g id="a_Node000003"><a xlink:href="class_data_1_1_hash_function_1_1_farm_hash_1_1_farm_hash_fingerprint64___implementation.html#a80461f7e504d1e4000f6df1460447da6" target="_top" xlink:title=" ">
<polygon fill="white" stroke="#666666" points="193,-139 0,-139 0,-95 193,-95 193,-139"/>
<text text-anchor="start" x="8" y="-125.5" font-family="Helvetica,sans-Serif" font-size="10.00">Data.HashFunction.FarmHash.</text>
<text text-anchor="start" x="8" y="-113.5" font-family="Helvetica,sans-Serif" font-size="10.00">FarmHashFingerprint64_Implementation.</text>
<text text-anchor="middle" x="96.5" y="-101.5" font-family="Helvetica,sans-Serif" font-size="10.00">ComputeHashInternal</text>
</a>
</g>
</g>
<!-- Node2&#45;&gt;Node3 -->
<g id="edge2_Node000002_Node000003" class="edge">
<title>Node2&#45;&gt;Node3</title>
<g id="a_edge2_Node000002_Node000003"><a xlink:title=" ">
<path fill="none" stroke="#63b8ff" d="M446.29,-201.89C382.29,-201.71 299.93,-197.08 229,-179 195.61,-170.49 160.45,-153.43 134.89,-139.35"/>
<polygon fill="#63b8ff" stroke="#63b8ff" points="446.1,-205.39 456.1,-201.88 446.1,-198.39 446.1,-205.39"/>
</a>
</g>
</g>
<!-- Node4&#45;&gt;Node3 -->
<g id="edge4_Node000004_Node000003" class="edge">
<title>Node4&#45;&gt;Node3</title>
<g id="a_edge4_Node000004_Node000003"><a xlink:title=" ">
<path fill="none" stroke="#63b8ff" d="M217.34,-133.37C209.37,-132.28 201.36,-131.18 193.46,-130.1"/>
<polygon fill="#63b8ff" stroke="#63b8ff" points="216.68,-136.81 227.06,-134.69 217.63,-129.87 216.68,-136.81"/>
</a>
</g>
</g>
<!-- Node5&#45;&gt;Node3 -->
<g id="edge6_Node000005_Node000003" class="edge">
<title>Node5&#45;&gt;Node3</title>
<g id="a_edge6_Node000005_Node000003"><a xlink:title=" ">
<path fill="none" stroke="#63b8ff" d="M217.34,-100.63C209.37,-101.72 201.36,-102.82 193.46,-103.9"/>
<polygon fill="#63b8ff" stroke="#63b8ff" points="217.63,-104.13 227.06,-99.31 216.68,-97.19 217.63,-104.13"/>
</a>
</g>
</g>
<!-- Node6&#45;&gt;Node3 -->
<g id="edge8_Node000006_Node000003" class="edge">
<title>Node6&#45;&gt;Node3</title>
<g id="a_edge8_Node000006_Node000003"><a xlink:title=" ">
<path fill="none" stroke="#63b8ff" d="M241.39,-50.27C237.18,-51.82 233.03,-53.4 229,-55 199.2,-66.81 166.6,-82.16 141.32,-94.63"/>
<polygon fill="#63b8ff" stroke="#63b8ff" points="242.28,-53.67 250.51,-47 239.92,-47.08 242.28,-53.67"/>
</a>
</g>
</g>
<!-- Node7&#45;&gt;Node6 -->
<g id="edge10_Node000007_Node000006" class="edge">
<title>Node7&#45;&gt;Node6</title>
<g id="a_edge10_Node000007_Node000006"><a xlink:title=" ">
<path fill="none" stroke="#63b8ff" d="M446.06,-22.95C438.18,-23.02 430.26,-23.09 422.46,-23.15"/>
<polygon fill="#63b8ff" stroke="#63b8ff" points="446.08,-26.45 456.05,-22.86 446.02,-19.45 446.08,-26.45"/>
</a>
</g>
</g>
</g>
</svg>
