<?xml version="1.0" encoding="UTF-8" standalone="no"?>
<!DOCTYPE svg PUBLIC "-//W3C//DTD SVG 1.1//EN"
 "http://www.w3.org/Graphics/SVG/1.1/DTD/svg11.dtd">
<!-- Generated by graphviz version 12.2.0 (20241103.1931)
 -->
<!-- Title: Data.HashFunction.CityHash.CityHash_Implementation.CityMurmur Pages: 1 -->
<svg width="887pt" height="140pt"
 viewBox="0.00 0.00 887.25 140.00" xmlns="http://www.w3.org/2000/svg" xmlns:xlink="http://www.w3.org/1999/xlink">
<g id="graph0" class="graph" transform="scale(1 1) rotate(0) translate(4 136)">
<title>Data.HashFunction.CityHash.CityHash_Implementation.CityMurmur</title>
<!-- Node1 -->
<g id="Node000001" class="node">
<title>Node1</title>
<g id="a_Node000001"><a xlink:title=" ">
<polygon fill="#999999" stroke="#666666" points="183.25,-82 0,-82 0,-50 183.25,-50 183.25,-82"/>
<text text-anchor="start" x="8" y="-68.5" font-family="Helvetica,sans-Serif" font-size="10.00">Data.HashFunction.CityHash.</text>
<text text-anchor="middle" x="91.62" y="-56.5" font-family="Helvetica,sans-Serif" font-size="10.00">CityHash_Implementation.CityMurmur</text>
</a>
</g>
</g>
<!-- Node2 -->
<g id="Node000002" class="node">
<title>Node2</title>
<g id="a_Node000002"><a xlink:href="class_data_1_1_hash_function_1_1_city_hash_1_1_city_hash___implementation.html#ace2758fca35c5ac5a5698e2f1a4aa513" target="_top" xlink:title=" ">
<polygon fill="white" stroke="#666666" points="425,-82 219.25,-82 219.25,-50 425,-50 425,-82"/>
<text text-anchor="start" x="227.25" y="-68.5" font-family="Helvetica,sans-Serif" font-size="10.00">Data.HashFunction.CityHash.</text>
<text text-anchor="middle" x="322.12" y="-56.5" font-family="Helvetica,sans-Serif" font-size="10.00">CityHash_Implementation.Hash64Len0to16</text>
</a>
</g>
</g>
<!-- Node1&#45;&gt;Node2 -->
<g id="edge1_Node000001_Node000002" class="edge">
<title>Node1&#45;&gt;Node2</title>
<g id="a_edge1_Node000001_Node000002"><a xlink:title=" ">
<path fill="none" stroke="#63b8ff" d="M183.59,-66C191.46,-66 199.48,-66 207.5,-66"/>
<polygon fill="#63b8ff" stroke="#63b8ff" points="207.3,-69.5 217.3,-66 207.3,-62.5 207.3,-69.5"/>
</a>
</g>
</g>
<!-- Node3 -->
<g id="Node000003" class="node">
<title>Node3</title>
<g id="a_Node000003"><a xlink:href="class_data_1_1_hash_function_1_1_city_hash_1_1_city_hash___implementation.html#a44c7f6a47b61dd01499fa3ffd79fba5c" target="_top" xlink:title=" ">
<polygon fill="white" stroke="#666666" points="653.25,-132 461,-132 461,-100 653.25,-100 653.25,-132"/>
<text text-anchor="start" x="469" y="-118.5" font-family="Helvetica,sans-Serif" font-size="10.00">Data.HashFunction.CityHash.</text>
<text text-anchor="middle" x="557.12" y="-106.5" font-family="Helvetica,sans-Serif" font-size="10.00">CityHash_Implementation.Hash64Len16</text>
</a>
</g>
</g>
<!-- Node1&#45;&gt;Node3 -->
<g id="edge6_Node000001_Node000003" class="edge">
<title>Node1&#45;&gt;Node3</title>
<g id="a_edge6_Node000001_Node000003"><a xlink:title=" ">
<path fill="none" stroke="#63b8ff" d="M168.04,-82.44C184.83,-85.67 202.6,-88.75 219.25,-91 295.89,-101.37 382.96,-107.69 449.38,-111.38"/>
<polygon fill="#63b8ff" stroke="#63b8ff" points="449.01,-114.87 459.18,-111.91 449.39,-107.88 449.01,-114.87"/>
</a>
</g>
</g>
<!-- Node5 -->
<g id="Node000005" class="node">
<title>Node5</title>
<g id="a_Node000005"><a xlink:href="class_data_1_1_hash_function_1_1_city_hash_1_1_city_hash___implementation.html#ac2fa0ddcbf5ad593d0830669e41bf93c" target="_top" xlink:title=" ">
<polygon fill="white" stroke="#666666" points="631.12,-32 483.12,-32 483.12,0 631.12,0 631.12,-32"/>
<text text-anchor="start" x="491.12" y="-18.5" font-family="Helvetica,sans-Serif" font-size="10.00">Data.HashFunction.CityHash.</text>
<text text-anchor="middle" x="557.12" y="-6.5" font-family="Helvetica,sans-Serif" font-size="10.00">CityHash_Implementation.Mix</text>
</a>
</g>
</g>
<!-- Node1&#45;&gt;Node5 -->
<g id="edge7_Node000001_Node000005" class="edge">
<title>Node1&#45;&gt;Node5</title>
<g id="a_edge7_Node000001_Node000005"><a xlink:title=" ">
<path fill="none" stroke="#63b8ff" d="M168.04,-49.56C184.83,-46.33 202.6,-43.25 219.25,-41 304.86,-29.42 403.48,-22.89 471.8,-19.43"/>
<polygon fill="#63b8ff" stroke="#63b8ff" points="471.59,-22.94 481.41,-18.95 471.25,-15.95 471.59,-22.94"/>
</a>
</g>
</g>
<!-- Node2&#45;&gt;Node3 -->
<g id="edge2_Node000002_Node000003" class="edge">
<title>Node2&#45;&gt;Node3</title>
<g id="a_edge2_Node000002_Node000003"><a xlink:title=" ">
<path fill="none" stroke="#63b8ff" d="M399.74,-82.44C421.74,-87.16 445.9,-92.35 468.51,-97.2"/>
<polygon fill="#63b8ff" stroke="#63b8ff" points="467.47,-100.56 477.98,-99.23 468.94,-93.71 467.47,-100.56"/>
</a>
</g>
</g>
<!-- Node2&#45;&gt;Node5 -->
<g id="edge4_Node000002_Node000005" class="edge">
<title>Node2&#45;&gt;Node5</title>
<g id="a_edge4_Node000002_Node000005"><a xlink:title=" ">
<path fill="none" stroke="#63b8ff" d="M399.74,-49.56C422.76,-44.62 448.13,-39.17 471.63,-34.13"/>
<polygon fill="#63b8ff" stroke="#63b8ff" points="472.11,-37.61 481.15,-32.09 470.64,-30.76 472.11,-37.61"/>
</a>
</g>
</g>
<!-- Node6 -->
<g id="Node000006" class="node">
<title>Node6</title>
<g id="a_Node000006"><a xlink:href="class_data_1_1_hash_function_1_1_city_hash_1_1_city_hash___implementation.html#a054a2a634a2a60c58844d08986eef674" target="_top" xlink:title=" ">
<polygon fill="white" stroke="#666666" points="649.5,-82 464.75,-82 464.75,-50 649.5,-50 649.5,-82"/>
<text text-anchor="start" x="472.75" y="-68.5" font-family="Helvetica,sans-Serif" font-size="10.00">Data.HashFunction.CityHash.</text>
<text text-anchor="middle" x="557.12" y="-56.5" font-family="Helvetica,sans-Serif" font-size="10.00">CityHash_Implementation.RotateRight</text>
</a>
</g>
</g>
<!-- Node2&#45;&gt;Node6 -->
<g id="edge5_Node000002_Node000006" class="edge">
<title>Node2&#45;&gt;Node6</title>
<g id="a_edge5_Node000002_Node000006"><a xlink:title=" ">
<path fill="none" stroke="#63b8ff" d="M425.32,-66C434.44,-66 443.67,-66 452.79,-66"/>
<polygon fill="#63b8ff" stroke="#63b8ff" points="452.76,-69.5 462.76,-66 452.76,-62.5 452.76,-69.5"/>
</a>
</g>
</g>
<!-- Node4 -->
<g id="Node000004" class="node">
<title>Node4</title>
<g id="a_Node000004"><a xlink:href="class_data_1_1_hash_function_1_1_city_hash_1_1_city_hash___implementation.html#a45aa0a22c0153b96e93044b4becadaff" target="_top" xlink:title=" ">
<polygon fill="white" stroke="#666666" points="879.25,-132 689.25,-132 689.25,-100 879.25,-100 879.25,-132"/>
<text text-anchor="start" x="697.25" y="-118.5" font-family="Helvetica,sans-Serif" font-size="10.00">Data.HashFunction.CityHash.</text>
<text text-anchor="middle" x="784.25" y="-106.5" font-family="Helvetica,sans-Serif" font-size="10.00">CityHash_Implementation.Hash128to64</text>
</a>
</g>
</g>
<!-- Node3&#45;&gt;Node4 -->
<g id="edge3_Node000003_Node000004" class="edge">
<title>Node3&#45;&gt;Node4</title>
<g id="a_edge3_Node000003_Node000004"><a xlink:title=" ">
<path fill="none" stroke="#63b8ff" d="M653.6,-116C661.58,-116 669.68,-116 677.73,-116"/>
<polygon fill="#63b8ff" stroke="#63b8ff" points="677.55,-119.5 687.55,-116 677.55,-112.5 677.55,-119.5"/>
</a>
</g>
</g>
</g>
</svg>
