<?xml version="1.0" encoding="UTF-8" standalone="no"?>
<!DOCTYPE svg PUBLIC "-//W3C//DTD SVG 1.1//EN"
 "http://www.w3.org/Graphics/SVG/1.1/DTD/svg11.dtd">
<!-- Generated by graphviz version 12.2.0 (20241103.1931)
 -->
<!-- Title: Data.HashFunction.SpookyHash.SpookyHashV2_Implementation.BlockTransformer.FinalizeHashValueInternal Pages: 1 -->
<svg width="911pt" height="176pt"
 viewBox="0.00 0.00 911.25 176.00" xmlns="http://www.w3.org/2000/svg" xmlns:xlink="http://www.w3.org/1999/xlink">
<g id="graph0" class="graph" transform="scale(1 1) rotate(0) translate(4 172)">
<title>Data.HashFunction.SpookyHash.SpookyHashV2_Implementation.BlockTransformer.FinalizeHashValueInternal</title>
<!-- Node1 -->
<g id="Node000001" class="node">
<title>Node1</title>
<g id="a_Node000001"><a xlink:title=" ">
<polygon fill="#999999" stroke="#666666" points="209.5,-75 0,-75 0,-31 209.5,-31 209.5,-75"/>
<text text-anchor="start" x="8" y="-61.5" font-family="Helvetica,sans-Serif" font-size="10.00">Data.HashFunction.Spooky</text>
<text text-anchor="start" x="8" y="-49.5" font-family="Helvetica,sans-Serif" font-size="10.00">Hash.SpookyHashV2_Implementation.</text>
<text text-anchor="middle" x="104.75" y="-37.5" font-family="Helvetica,sans-Serif" font-size="10.00">BlockTransformer.FinalizeHashValueInternal</text>
</a>
</g>
</g>
<!-- Node2 -->
<g id="Node000002" class="node">
<title>Node2</title>
<g id="a_Node000002"><a xlink:href="class_data_1_1_hash_function_1_1_spooky_hash_1_1_spooky_hash_v2___implementation_1_1_block_transformer.html#ad7523516a0f08a5d685c2b215f821527" target="_top" xlink:title=" ">
<polygon fill="white" stroke="#666666" points="460.25,-106 245.5,-106 245.5,-62 460.25,-62 460.25,-106"/>
<text text-anchor="start" x="253.5" y="-92.5" font-family="Helvetica,sans-Serif" font-size="10.00">Data.HashFunction.Spooky</text>
<text text-anchor="start" x="253.5" y="-80.5" font-family="Helvetica,sans-Serif" font-size="10.00">Hash.SpookyHashV2_Implementation.</text>
<text text-anchor="middle" x="352.88" y="-68.5" font-family="Helvetica,sans-Serif" font-size="10.00">BlockTransformer.ComputeShortHashInternal</text>
</a>
</g>
</g>
<!-- Node1&#45;&gt;Node2 -->
<g id="edge1_Node000001_Node000002" class="edge">
<title>Node1&#45;&gt;Node2</title>
<g id="a_edge1_Node000001_Node000002"><a xlink:title=" ">
<path fill="none" stroke="#63b8ff" d="M209.77,-66.1C217.71,-67.1 225.75,-68.11 233.77,-69.12"/>
<polygon fill="#63b8ff" stroke="#63b8ff" points="233.21,-72.58 243.57,-70.36 234.09,-65.64 233.21,-72.58"/>
</a>
</g>
</g>
<!-- Node6 -->
<g id="Node000006" class="node">
<title>Node6</title>
<g id="a_Node000006"><a xlink:href="class_data_1_1_hash_function_1_1_spooky_hash_1_1_spooky_hash_v2___implementation_1_1_block_transformer.html#a3838117e74f9c0b76e6254fd8651394b" target="_top" xlink:title=" ">
<polygon fill="white" stroke="#666666" points="445.62,-44 260.12,-44 260.12,0 445.62,0 445.62,-44"/>
<text text-anchor="start" x="268.12" y="-30.5" font-family="Helvetica,sans-Serif" font-size="10.00">Data.HashFunction.Spooky</text>
<text text-anchor="start" x="268.12" y="-18.5" font-family="Helvetica,sans-Serif" font-size="10.00">Hash.SpookyHashV2_Implementation.</text>
<text text-anchor="middle" x="352.88" y="-6.5" font-family="Helvetica,sans-Serif" font-size="10.00">BlockTransformer.End</text>
</a>
</g>
</g>
<!-- Node1&#45;&gt;Node6 -->
<g id="edge6_Node000001_Node000006" class="edge">
<title>Node1&#45;&gt;Node6</title>
<g id="a_edge6_Node000001_Node000006"><a xlink:title=" ">
<path fill="none" stroke="#63b8ff" d="M209.77,-39.9C222.66,-38.27 235.83,-36.62 248.71,-34.99"/>
<polygon fill="#63b8ff" stroke="#63b8ff" points="248.94,-38.49 258.43,-33.77 248.07,-31.55 248.94,-38.49"/>
</a>
</g>
</g>
<!-- Node3 -->
<g id="Node000003" class="node">
<title>Node3</title>
<g id="a_Node000003"><a xlink:href="class_data_1_1_hash_function_1_1_spooky_hash_1_1_spooky_hash_v2___implementation_1_1_block_transformer.html#ae381f9a2a036ac6c597f02b1ec68a2ef" target="_top" xlink:title=" ">
<polygon fill="white" stroke="#666666" points="681.75,-168 496.25,-168 496.25,-124 681.75,-124 681.75,-168"/>
<text text-anchor="start" x="504.25" y="-154.5" font-family="Helvetica,sans-Serif" font-size="10.00">Data.HashFunction.Spooky</text>
<text text-anchor="start" x="504.25" y="-142.5" font-family="Helvetica,sans-Serif" font-size="10.00">Hash.SpookyHashV2_Implementation.</text>
<text text-anchor="middle" x="589" y="-130.5" font-family="Helvetica,sans-Serif" font-size="10.00">BlockTransformer.ShortEnd</text>
</a>
</g>
</g>
<!-- Node2&#45;&gt;Node3 -->
<g id="edge2_Node000002_Node000003" class="edge">
<title>Node2&#45;&gt;Node3</title>
<g id="a_edge2_Node000002_Node000003"><a xlink:title=" ">
<path fill="none" stroke="#63b8ff" d="M438.73,-106.47C456.07,-111.06 474.43,-115.93 492.13,-120.61"/>
<polygon fill="#63b8ff" stroke="#63b8ff" points="491.02,-123.94 501.58,-123.11 492.81,-117.17 491.02,-123.94"/>
</a>
</g>
</g>
<!-- Node5 -->
<g id="Node000005" class="node">
<title>Node5</title>
<g id="a_Node000005"><a xlink:href="class_data_1_1_hash_function_1_1_spooky_hash_1_1_spooky_hash_v2___implementation_1_1_block_transformer.html#a87da861b6e599f9648361e01f89e155f" target="_top" xlink:title=" ">
<polygon fill="white" stroke="#666666" points="681.75,-106 496.25,-106 496.25,-62 681.75,-62 681.75,-106"/>
<text text-anchor="start" x="504.25" y="-92.5" font-family="Helvetica,sans-Serif" font-size="10.00">Data.HashFunction.Spooky</text>
<text text-anchor="start" x="504.25" y="-80.5" font-family="Helvetica,sans-Serif" font-size="10.00">Hash.SpookyHashV2_Implementation.</text>
<text text-anchor="middle" x="589" y="-68.5" font-family="Helvetica,sans-Serif" font-size="10.00">BlockTransformer.ShortMix</text>
</a>
</g>
</g>
<!-- Node2&#45;&gt;Node5 -->
<g id="edge4_Node000002_Node000005" class="edge">
<title>Node2&#45;&gt;Node5</title>
<g id="a_edge4_Node000002_Node000005"><a xlink:title=" ">
<path fill="none" stroke="#63b8ff" d="M460.66,-84C468.69,-84 476.79,-84 484.8,-84"/>
<polygon fill="#63b8ff" stroke="#63b8ff" points="484.54,-87.5 494.54,-84 484.54,-80.5 484.54,-87.5"/>
</a>
</g>
</g>
<!-- Node4 -->
<g id="Node000004" class="node">
<title>Node4</title>
<g id="a_Node000004"><a xlink:href="class_data_1_1_hash_function_1_1_spooky_hash_1_1_spooky_hash_v2___implementation_1_1_block_transformer.html#a91d47b4eacbadc7d18ab224a2cd4d331" target="_top" xlink:title=" ">
<polygon fill="white" stroke="#666666" points="903.25,-106 717.75,-106 717.75,-62 903.25,-62 903.25,-106"/>
<text text-anchor="start" x="725.75" y="-92.5" font-family="Helvetica,sans-Serif" font-size="10.00">Data.HashFunction.Spooky</text>
<text text-anchor="start" x="725.75" y="-80.5" font-family="Helvetica,sans-Serif" font-size="10.00">Hash.SpookyHashV2_Implementation.</text>
<text text-anchor="middle" x="810.5" y="-68.5" font-family="Helvetica,sans-Serif" font-size="10.00">BlockTransformer.RotateLeft</text>
</a>
</g>
</g>
<!-- Node3&#45;&gt;Node4 -->
<g id="edge3_Node000003_Node000004" class="edge">
<title>Node3&#45;&gt;Node4</title>
<g id="a_edge3_Node000003_Node000004"><a xlink:title=" ">
<path fill="none" stroke="#63b8ff" d="M669.55,-123.53C685.66,-118.98 702.7,-114.17 719.14,-109.52"/>
<polygon fill="#63b8ff" stroke="#63b8ff" points="719.72,-113 728.39,-106.91 717.82,-106.26 719.72,-113"/>
</a>
</g>
</g>
<!-- Node5&#45;&gt;Node4 -->
<g id="edge5_Node000005_Node000004" class="edge">
<title>Node5&#45;&gt;Node4</title>
<g id="a_edge5_Node000005_Node000004"><a xlink:title=" ">
<path fill="none" stroke="#63b8ff" d="M682.13,-84C689.94,-84 697.86,-84 705.75,-84"/>
<polygon fill="#63b8ff" stroke="#63b8ff" points="705.74,-87.5 715.74,-84 705.74,-80.5 705.74,-87.5"/>
</a>
</g>
</g>
<!-- Node7 -->
<g id="Node000007" class="node">
<title>Node7</title>
<g id="a_Node000007"><a xlink:href="class_data_1_1_hash_function_1_1_spooky_hash_1_1_spooky_hash_v2___implementation_1_1_block_transformer.html#afbb40f8826a37112643d95e65738f29b" target="_top" xlink:title=" ">
<polygon fill="white" stroke="#666666" points="681.75,-44 496.25,-44 496.25,0 681.75,0 681.75,-44"/>
<text text-anchor="start" x="504.25" y="-30.5" font-family="Helvetica,sans-Serif" font-size="10.00">Data.HashFunction.Spooky</text>
<text text-anchor="start" x="504.25" y="-18.5" font-family="Helvetica,sans-Serif" font-size="10.00">Hash.SpookyHashV2_Implementation.</text>
<text text-anchor="middle" x="589" y="-6.5" font-family="Helvetica,sans-Serif" font-size="10.00">BlockTransformer.EndPartial</text>
</a>
</g>
</g>
<!-- Node6&#45;&gt;Node7 -->
<g id="edge7_Node000006_Node000007" class="edge">
<title>Node6&#45;&gt;Node7</title>
<g id="a_edge7_Node000006_Node000007"><a xlink:title=" ">
<path fill="none" stroke="#63b8ff" d="M446.07,-22C458.74,-22 471.82,-22 484.67,-22"/>
<polygon fill="#63b8ff" stroke="#63b8ff" points="484.37,-25.5 494.37,-22 484.37,-18.5 484.37,-25.5"/>
</a>
</g>
</g>
<!-- Node7&#45;&gt;Node4 -->
<g id="edge8_Node000007_Node000004" class="edge">
<title>Node7&#45;&gt;Node4</title>
<g id="a_edge8_Node000007_Node000004"><a xlink:title=" ">
<path fill="none" stroke="#63b8ff" d="M669.55,-44.47C685.66,-49.02 702.7,-53.83 719.14,-58.48"/>
<polygon fill="#63b8ff" stroke="#63b8ff" points="717.82,-61.74 728.39,-61.09 719.72,-55 717.82,-61.74"/>
</a>
</g>
</g>
</g>
</svg>
