<?xml version="1.0" encoding="UTF-8" standalone="no"?>
<!DOCTYPE svg PUBLIC "-//W3C//DTD SVG 1.1//EN"
 "http://www.w3.org/Graphics/SVG/1.1/DTD/svg11.dtd">
<!-- Generated by graphviz version 12.2.0 (20241103.1931)
 -->
<!-- Title: Data.HashFunction.CityHash.CityHash_Implementation.Mix Pages: 1 -->
<svg width="1264pt" height="328pt"
 viewBox="0.00 0.00 1264.25 328.00" xmlns="http://www.w3.org/2000/svg" xmlns:xlink="http://www.w3.org/1999/xlink">
<g id="graph0" class="graph" transform="scale(1 1) rotate(0) translate(4 324)">
<title>Data.HashFunction.CityHash.CityHash_Implementation.Mix</title>
<!-- Node1 -->
<g id="Node000001" class="node">
<title>Node1</title>
<g id="a_Node000001"><a xlink:title=" ">
<polygon fill="#999999" stroke="#666666" points="1256.25,-176 1108.25,-176 1108.25,-144 1256.25,-144 1256.25,-176"/>
<text text-anchor="start" x="1116.25" y="-162.5" font-family="Helvetica,sans-Serif" font-size="10.00">Data.HashFunction.CityHash.</text>
<text text-anchor="middle" x="1182.25" y="-150.5" font-family="Helvetica,sans-Serif" font-size="10.00">CityHash_Implementation.Mix</text>
</a>
</g>
</g>
<!-- Node2 -->
<g id="Node000002" class="node">
<title>Node2</title>
<g id="a_Node000002"><a xlink:href="class_data_1_1_hash_function_1_1_city_hash_1_1_city_hash___implementation.html#ad44ecf3b0ac0c86d3791f37b762f4b39" target="_top" xlink:title=" ">
<polygon fill="white" stroke="#666666" points="824.5,-167 641.25,-167 641.25,-135 824.5,-135 824.5,-167"/>
<text text-anchor="start" x="649.25" y="-153.5" font-family="Helvetica,sans-Serif" font-size="10.00">Data.HashFunction.CityHash.</text>
<text text-anchor="middle" x="732.88" y="-141.5" font-family="Helvetica,sans-Serif" font-size="10.00">CityHash_Implementation.CityMurmur</text>
</a>
</g>
</g>
<!-- Node1&#45;&gt;Node2 -->
<g id="edge1_Node000001_Node000002" class="edge">
<title>Node1&#45;&gt;Node2</title>
<g id="a_edge1_Node000001_Node000002"><a xlink:title=" ">
<path fill="none" stroke="#63b8ff" d="M1096.7,-158.3C1019.04,-156.74 904.27,-154.43 824.69,-152.83"/>
<polygon fill="#63b8ff" stroke="#63b8ff" points="1096.29,-161.79 1106.36,-158.49 1096.44,-154.79 1096.29,-161.79"/>
</a>
</g>
</g>
<!-- Node6 -->
<g id="Node000006" class="node">
<title>Node6</title>
<g id="a_Node000006"><a xlink:href="class_data_1_1_hash_function_1_1_city_hash_1_1_city_hash___implementation.html#a4b79a115075541321d2687daaf1efc7b" target="_top" xlink:title=" ">
<polygon fill="white" stroke="#666666" points="1066.62,-320 866.12,-320 866.12,-288 1066.62,-288 1066.62,-320"/>
<text text-anchor="start" x="874.12" y="-306.5" font-family="Helvetica,sans-Serif" font-size="10.00">Data.HashFunction.CityHash.</text>
<text text-anchor="middle" x="966.38" y="-294.5" font-family="Helvetica,sans-Serif" font-size="10.00">CityHash_Implementation.Hash32Len0to4</text>
</a>
</g>
</g>
<!-- Node1&#45;&gt;Node6 -->
<g id="edge5_Node000001_Node000006" class="edge">
<title>Node1&#45;&gt;Node6</title>
<g id="a_edge5_Node000001_Node000006"><a xlink:title=" ">
<path fill="none" stroke="#63b8ff" d="M1164.75,-185.65C1145.76,-213.03 1112.04,-255.6 1072.25,-279 1066.68,-282.27 1060.71,-285.12 1054.55,-287.59"/>
<polygon fill="#63b8ff" stroke="#63b8ff" points="1167.51,-187.82 1170.21,-177.57 1161.71,-183.9 1167.51,-187.82"/>
</a>
</g>
</g>
<!-- Node8 -->
<g id="Node000008" class="node">
<title>Node8</title>
<g id="a_Node000008"><a xlink:href="class_data_1_1_hash_function_1_1_city_hash_1_1_city_hash___implementation.html#a233e906310a9faef162a4a9749f3f846" target="_top" xlink:title=" ">
<polygon fill="white" stroke="#666666" points="1071.88,-270 860.88,-270 860.88,-238 1071.88,-238 1071.88,-270"/>
<text text-anchor="start" x="868.88" y="-256.5" font-family="Helvetica,sans-Serif" font-size="10.00">Data.HashFunction.CityHash.</text>
<text text-anchor="middle" x="966.38" y="-244.5" font-family="Helvetica,sans-Serif" font-size="10.00">CityHash_Implementation.Hash32Len13to24</text>
</a>
</g>
</g>
<!-- Node1&#45;&gt;Node8 -->
<g id="edge8_Node000001_Node000008" class="edge">
<title>Node1&#45;&gt;Node8</title>
<g id="a_edge8_Node000001_Node000008"><a xlink:title=" ">
<path fill="none" stroke="#63b8ff" d="M1151.22,-182.85C1130.13,-197.91 1100.7,-217 1072.25,-229 1064.66,-232.2 1056.58,-235.04 1048.41,-237.55"/>
<polygon fill="#63b8ff" stroke="#63b8ff" points="1153.04,-185.85 1159.07,-177.14 1148.92,-180.19 1153.04,-185.85"/>
</a>
</g>
</g>
<!-- Node9 -->
<g id="Node000009" class="node">
<title>Node9</title>
<g id="a_Node000009"><a xlink:href="class_data_1_1_hash_function_1_1_city_hash_1_1_city_hash___implementation.html#a40769fc2a4242c2337664fac2f97af9e" target="_top" xlink:title=" ">
<polygon fill="white" stroke="#666666" points="1069.25,-220 863.5,-220 863.5,-188 1069.25,-188 1069.25,-220"/>
<text text-anchor="start" x="871.5" y="-206.5" font-family="Helvetica,sans-Serif" font-size="10.00">Data.HashFunction.CityHash.</text>
<text text-anchor="middle" x="966.38" y="-194.5" font-family="Helvetica,sans-Serif" font-size="10.00">CityHash_Implementation.Hash32Len5to12</text>
</a>
</g>
</g>
<!-- Node1&#45;&gt;Node9 -->
<g id="edge10_Node000001_Node000009" class="edge">
<title>Node1&#45;&gt;Node9</title>
<g id="a_edge10_Node000001_Node000009"><a xlink:title=" ">
<path fill="none" stroke="#63b8ff" d="M1096.84,-177.37C1080.6,-180.71 1063.64,-184.2 1047.54,-187.51"/>
<polygon fill="#63b8ff" stroke="#63b8ff" points="1097.37,-180.83 1106.46,-175.39 1095.96,-173.97 1097.37,-180.83"/>
</a>
</g>
</g>
<!-- Node10 -->
<g id="Node000010" class="node">
<title>Node10</title>
<g id="a_Node000010"><a xlink:href="class_data_1_1_hash_function_1_1_city_hash_1_1_city_hash___implementation.html#ace2758fca35c5ac5a5698e2f1a4aa513" target="_top" xlink:title=" ">
<polygon fill="white" stroke="#666666" points="1069.25,-132 863.5,-132 863.5,-100 1069.25,-100 1069.25,-132"/>
<text text-anchor="start" x="871.5" y="-118.5" font-family="Helvetica,sans-Serif" font-size="10.00">Data.HashFunction.CityHash.</text>
<text text-anchor="middle" x="966.38" y="-106.5" font-family="Helvetica,sans-Serif" font-size="10.00">CityHash_Implementation.Hash64Len0to16</text>
</a>
</g>
</g>
<!-- Node1&#45;&gt;Node10 -->
<g id="edge12_Node000001_Node000010" class="edge">
<title>Node1&#45;&gt;Node10</title>
<g id="a_edge12_Node000001_Node000010"><a xlink:title=" ">
<path fill="none" stroke="#63b8ff" d="M1096.84,-142.63C1080.6,-139.29 1063.64,-135.8 1047.54,-132.49"/>
<polygon fill="#63b8ff" stroke="#63b8ff" points="1095.96,-146.03 1106.46,-144.61 1097.37,-139.17 1095.96,-146.03"/>
</a>
</g>
</g>
<!-- Node12 -->
<g id="Node000012" class="node">
<title>Node12</title>
<g id="a_Node000012"><a xlink:href="class_data_1_1_hash_function_1_1_city_hash_1_1_city_hash___implementation.html#a395c40851843a781d7c3e4c0ceb07983" target="_top" xlink:title=" ">
<polygon fill="white" stroke="#666666" points="1071.88,-82 860.88,-82 860.88,-50 1071.88,-50 1071.88,-82"/>
<text text-anchor="start" x="868.88" y="-68.5" font-family="Helvetica,sans-Serif" font-size="10.00">Data.HashFunction.CityHash.</text>
<text text-anchor="middle" x="966.38" y="-56.5" font-family="Helvetica,sans-Serif" font-size="10.00">CityHash_Implementation.Hash64Len33to64</text>
</a>
</g>
</g>
<!-- Node1&#45;&gt;Node12 -->
<g id="edge16_Node000001_Node000012" class="edge">
<title>Node1&#45;&gt;Node12</title>
<g id="a_edge16_Node000001_Node000012"><a xlink:title=" ">
<path fill="none" stroke="#63b8ff" d="M1151.22,-137.15C1130.13,-122.09 1100.7,-103 1072.25,-91 1064.66,-87.8 1056.58,-84.96 1048.41,-82.45"/>
<polygon fill="#63b8ff" stroke="#63b8ff" points="1148.92,-139.81 1159.07,-142.86 1153.04,-134.15 1148.92,-139.81"/>
</a>
</g>
</g>
<!-- Node13 -->
<g id="Node000013" class="node">
<title>Node13</title>
<g id="a_Node000013"><a xlink:href="class_data_1_1_hash_function_1_1_city_hash_1_1_city_hash___implementation.html#a4cf34ecb496d7caf130c96462e5f47b7" target="_top" xlink:title=" ">
<polygon fill="white" stroke="#666666" points="1072.25,-32 860.5,-32 860.5,0 1072.25,0 1072.25,-32"/>
<text text-anchor="start" x="868.5" y="-18.5" font-family="Helvetica,sans-Serif" font-size="10.00">Data.HashFunction.CityHash.</text>
<text text-anchor="middle" x="966.38" y="-6.5" font-family="Helvetica,sans-Serif" font-size="10.00">CityHash_Implementation.Hash64Len65Plus</text>
</a>
</g>
</g>
<!-- Node1&#45;&gt;Node13 -->
<g id="edge18_Node000001_Node000013" class="edge">
<title>Node1&#45;&gt;Node13</title>
<g id="a_edge18_Node000001_Node000013"><a xlink:title=" ">
<path fill="none" stroke="#63b8ff" d="M1164.75,-134.35C1145.76,-106.97 1112.04,-64.4 1072.25,-41 1066.68,-37.73 1060.71,-34.88 1054.55,-32.41"/>
<polygon fill="#63b8ff" stroke="#63b8ff" points="1161.71,-136.1 1170.21,-142.43 1167.51,-132.18 1161.71,-136.1"/>
</a>
</g>
</g>
<!-- Node3 -->
<g id="Node000003" class="node">
<title>Node3</title>
<g id="a_Node000003"><a xlink:href="class_data_1_1_hash_function_1_1_city_hash_1_1_city_hash___implementation.html#a92d4c0e8db6ecadfeb5497f3f0fe3efb" target="_top" xlink:title=" ">
<polygon fill="white" stroke="#666666" points="605.25,-173 416,-173 416,-129 605.25,-129 605.25,-173"/>
<text text-anchor="start" x="424" y="-159.5" font-family="Helvetica,sans-Serif" font-size="10.00">Data.HashFunction.CityHash.</text>
<text text-anchor="start" x="424" y="-147.5" font-family="Helvetica,sans-Serif" font-size="10.00">CityHash_Implementation.CityHash128</text>
<text text-anchor="middle" x="510.62" y="-135.5" font-family="Helvetica,sans-Serif" font-size="10.00">WithSeed</text>
</a>
</g>
</g>
<!-- Node2&#45;&gt;Node3 -->
<g id="edge2_Node000002_Node000003" class="edge">
<title>Node2&#45;&gt;Node3</title>
<g id="a_edge2_Node000002_Node000003"><a xlink:title=" ">
<path fill="none" stroke="#63b8ff" d="M629.67,-151C621.61,-151 613.48,-151 605.48,-151"/>
<polygon fill="#63b8ff" stroke="#63b8ff" points="629.51,-154.5 639.51,-151 629.51,-147.5 629.51,-154.5"/>
</a>
</g>
</g>
<!-- Node4 -->
<g id="Node000004" class="node">
<title>Node4</title>
<g id="a_Node000004"><a xlink:href="class_data_1_1_hash_function_1_1_city_hash_1_1_city_hash___implementation.html#ade0382cabc2ec27c01cf6cdc9b833590" target="_top" xlink:title=" ">
<polygon fill="white" stroke="#666666" points="380,-173 208,-173 208,-129 380,-129 380,-173"/>
<text text-anchor="start" x="216" y="-159.5" font-family="Helvetica,sans-Serif" font-size="10.00">Data.HashFunction.CityHash.</text>
<text text-anchor="start" x="216" y="-147.5" font-family="Helvetica,sans-Serif" font-size="10.00">CityHash_Implementation.Compute</text>
<text text-anchor="middle" x="294" y="-135.5" font-family="Helvetica,sans-Serif" font-size="10.00">Hash128</text>
</a>
</g>
</g>
<!-- Node3&#45;&gt;Node4 -->
<g id="edge3_Node000003_Node000004" class="edge">
<title>Node3&#45;&gt;Node4</title>
<g id="a_edge3_Node000003_Node000004"><a xlink:title=" ">
<path fill="none" stroke="#63b8ff" d="M404.37,-151C396.26,-151 388.14,-151 380.19,-151"/>
<polygon fill="#63b8ff" stroke="#63b8ff" points="404.29,-154.5 414.29,-151 404.29,-147.5 404.29,-154.5"/>
</a>
</g>
</g>
<!-- Node5 -->
<g id="Node000005" class="node">
<title>Node5</title>
<g id="a_Node000005"><a xlink:href="class_data_1_1_hash_function_1_1_city_hash_1_1_city_hash___implementation.html#ae936ee82719f44aba970a71e22aa5aea" target="_top" xlink:title=" ">
<polygon fill="white" stroke="#666666" points="172,-173 0,-173 0,-129 172,-129 172,-173"/>
<text text-anchor="start" x="8" y="-159.5" font-family="Helvetica,sans-Serif" font-size="10.00">Data.HashFunction.CityHash.</text>
<text text-anchor="start" x="8" y="-147.5" font-family="Helvetica,sans-Serif" font-size="10.00">CityHash_Implementation.Compute</text>
<text text-anchor="middle" x="86" y="-135.5" font-family="Helvetica,sans-Serif" font-size="10.00">HashInternal</text>
</a>
</g>
</g>
<!-- Node4&#45;&gt;Node5 -->
<g id="edge4_Node000004_Node000005" class="edge">
<title>Node4&#45;&gt;Node5</title>
<g id="a_edge4_Node000004_Node000005"><a xlink:title=" ">
<path fill="none" stroke="#63b8ff" d="M196.37,-151C188.31,-151 180.19,-151 172.21,-151"/>
<polygon fill="#63b8ff" stroke="#63b8ff" points="196.21,-154.5 206.21,-151 196.21,-147.5 196.21,-154.5"/>
</a>
</g>
</g>
<!-- Node7 -->
<g id="Node000007" class="node">
<title>Node7</title>
<g id="a_Node000007"><a xlink:href="class_data_1_1_hash_function_1_1_city_hash_1_1_city_hash___implementation.html#af33356b76ad4ef5d565727b377ee65a2" target="_top" xlink:title=" ">
<polygon fill="white" stroke="#666666" points="818.88,-235 646.88,-235 646.88,-191 818.88,-191 818.88,-235"/>
<text text-anchor="start" x="654.88" y="-221.5" font-family="Helvetica,sans-Serif" font-size="10.00">Data.HashFunction.CityHash.</text>
<text text-anchor="start" x="654.88" y="-209.5" font-family="Helvetica,sans-Serif" font-size="10.00">CityHash_Implementation.Compute</text>
<text text-anchor="middle" x="732.88" y="-197.5" font-family="Helvetica,sans-Serif" font-size="10.00">Hash32</text>
</a>
</g>
</g>
<!-- Node6&#45;&gt;Node7 -->
<g id="edge6_Node000006_Node000007" class="edge">
<title>Node6&#45;&gt;Node7</title>
<g id="a_edge6_Node000006_Node000007"><a xlink:title=" ">
<path fill="none" stroke="#63b8ff" d="M875.95,-284.28C870.68,-282.63 865.5,-280.87 860.5,-279 829.15,-267.3 795.65,-249.58 770.99,-235.45"/>
<polygon fill="#63b8ff" stroke="#63b8ff" points="874.81,-287.59 885.4,-287.1 876.81,-280.89 874.81,-287.59"/>
</a>
</g>
</g>
<!-- Node7&#45;&gt;Node5 -->
<g id="edge7_Node000007_Node000005" class="edge">
<title>Node7&#45;&gt;Node5</title>
<g id="a_edge7_Node000007_Node000005"><a xlink:title=" ">
<path fill="none" stroke="#63b8ff" d="M635.24,-212.81C529.67,-211.32 355.87,-205.1 208,-182 194.18,-179.84 179.64,-176.8 165.63,-173.46"/>
<polygon fill="#63b8ff" stroke="#63b8ff" points="634.94,-216.31 644.99,-212.93 635.04,-209.31 634.94,-216.31"/>
</a>
</g>
</g>
<!-- Node8&#45;&gt;Node7 -->
<g id="edge9_Node000008_Node000007" class="edge">
<title>Node8&#45;&gt;Node7</title>
<g id="a_edge9_Node000008_Node000007"><a xlink:title=" ">
<path fill="none" stroke="#63b8ff" d="M861.08,-235.53C847.13,-233.06 832.94,-230.55 819.36,-228.14"/>
<polygon fill="#63b8ff" stroke="#63b8ff" points="860.27,-238.94 870.73,-237.24 861.49,-232.05 860.27,-238.94"/>
</a>
</g>
</g>
<!-- Node9&#45;&gt;Node7 -->
<g id="edge11_Node000009_Node000007" class="edge">
<title>Node9&#45;&gt;Node7</title>
<g id="a_edge11_Node000009_Node000007"><a xlink:title=" ">
<path fill="none" stroke="#63b8ff" d="M851.78,-208.42C840.84,-208.84 829.87,-209.27 819.27,-209.68"/>
<polygon fill="#63b8ff" stroke="#63b8ff" points="851.79,-211.92 861.65,-208.03 851.52,-204.92 851.79,-211.92"/>
</a>
</g>
</g>
<!-- Node10&#45;&gt;Node2 -->
<g id="edge13_Node000010_Node000002" class="edge">
<title>Node10&#45;&gt;Node2</title>
<g id="a_edge13_Node000010_Node000002"><a xlink:title=" ">
<path fill="none" stroke="#63b8ff" d="M851.79,-133.17C842.8,-134.53 833.78,-135.9 824.97,-137.23"/>
<polygon fill="#63b8ff" stroke="#63b8ff" points="852.3,-136.64 861.67,-131.68 851.25,-129.71 852.3,-136.64"/>
</a>
</g>
</g>
<!-- Node11 -->
<g id="Node000011" class="node">
<title>Node11</title>
<g id="a_Node000011"><a xlink:href="class_data_1_1_hash_function_1_1_city_hash_1_1_city_hash___implementation.html#a51fdde3f82eb15dccb6cdb1b3f47c557" target="_top" xlink:title=" ">
<polygon fill="white" stroke="#666666" points="818.88,-104 646.88,-104 646.88,-60 818.88,-60 818.88,-104"/>
<text text-anchor="start" x="654.88" y="-90.5" font-family="Helvetica,sans-Serif" font-size="10.00">Data.HashFunction.CityHash.</text>
<text text-anchor="start" x="654.88" y="-78.5" font-family="Helvetica,sans-Serif" font-size="10.00">CityHash_Implementation.Compute</text>
<text text-anchor="middle" x="732.88" y="-66.5" font-family="Helvetica,sans-Serif" font-size="10.00">Hash64</text>
</a>
</g>
</g>
<!-- Node10&#45;&gt;Node11 -->
<g id="edge14_Node000010_Node000011" class="edge">
<title>Node10&#45;&gt;Node11</title>
<g id="a_edge14_Node000010_Node000011"><a xlink:title=" ">
<path fill="none" stroke="#63b8ff" d="M851.78,-99.32C840.84,-97.71 829.87,-96.1 819.27,-94.54"/>
<polygon fill="#63b8ff" stroke="#63b8ff" points="851.26,-102.78 861.66,-100.77 852.28,-95.85 851.26,-102.78"/>
</a>
</g>
</g>
<!-- Node11&#45;&gt;Node5 -->
<g id="edge15_Node000011_Node000005" class="edge">
<title>Node11&#45;&gt;Node5</title>
<g id="a_edge15_Node000011_Node000005"><a xlink:title=" ">
<path fill="none" stroke="#63b8ff" d="M635.23,-83.86C529.65,-87.08 355.84,-95.9 208,-120 194.41,-122.22 180.12,-125.24 166.3,-128.53"/>
<polygon fill="#63b8ff" stroke="#63b8ff" points="635.09,-87.36 644.98,-83.57 634.88,-80.37 635.09,-87.36"/>
</a>
</g>
</g>
<!-- Node12&#45;&gt;Node11 -->
<g id="edge17_Node000012_Node000011" class="edge">
<title>Node12&#45;&gt;Node11</title>
<g id="a_edge17_Node000012_Node000011"><a xlink:title=" ">
<path fill="none" stroke="#63b8ff" d="M849.15,-74.03C839.11,-74.73 829.08,-75.42 819.36,-76.09"/>
<polygon fill="#63b8ff" stroke="#63b8ff" points="849.22,-77.54 858.95,-73.36 848.73,-70.55 849.22,-77.54"/>
</a>
</g>
</g>
<!-- Node13&#45;&gt;Node11 -->
<g id="edge19_Node000013_Node000011" class="edge">
<title>Node13&#45;&gt;Node11</title>
<g id="a_edge19_Node000013_Node000011"><a xlink:title=" ">
<path fill="none" stroke="#63b8ff" d="M881.94,-35.26C874.67,-37.12 867.44,-39.05 860.5,-41 840.7,-46.56 819.36,-53.2 799.95,-59.51"/>
<polygon fill="#63b8ff" stroke="#63b8ff" points="882.66,-38.68 891.5,-32.84 880.95,-31.89 882.66,-38.68"/>
</a>
</g>
</g>
</g>
</svg>
