<?xml version="1.0" encoding="UTF-8" standalone="no"?>
<!DOCTYPE svg PUBLIC "-//W3C//DTD SVG 1.1//EN"
 "http://www.w3.org/Graphics/SVG/1.1/DTD/svg11.dtd">
<!-- Generated by graphviz version 12.2.0 (20241103.1931)
 -->
<!-- Title: Data.HashFunction.FNV.FNV1Factory.Create Pages: 1 -->
<svg width="374pt" height="58pt"
 viewBox="0.00 0.00 373.75 58.00" xmlns="http://www.w3.org/2000/svg" xmlns:xlink="http://www.w3.org/1999/xlink">
<g id="graph0" class="graph" transform="scale(1 1) rotate(0) translate(4 54)">
<title>Data.HashFunction.FNV.FNV1Factory.Create</title>
<!-- Node1 -->
<g id="Node000001" class="node">
<title>Node1</title>
<g id="a_Node000001"><a xlink:title="Creates a new IFNV1 instance with the default configuration.">
<polygon fill="#999999" stroke="#666666" points="151.75,-32 0,-32 0,0 151.75,0 151.75,-32"/>
<text text-anchor="start" x="8" y="-18.5" font-family="Helvetica,sans-Serif" font-size="10.00">Data.HashFunction.FNV.FNV1</text>
<text text-anchor="middle" x="75.88" y="-6.5" font-family="Helvetica,sans-Serif" font-size="10.00">Factory.Create</text>
</a>
</g>
</g>
<!-- Node1&#45;&gt;Node1 -->
<g id="edge1_Node000001_Node000001" class="edge">
<title>Node1&#45;&gt;Node1</title>
<g id="a_edge1_Node000001_Node000001"><a xlink:title=" ">
<path fill="none" stroke="#63b8ff" d="M40.01,-32.44C33.32,-41.58 45.27,-50 75.88,-50 93.09,-50 104.4,-47.34 109.81,-43.38"/>
<polygon fill="#63b8ff" stroke="#63b8ff" points="113.19,-44.39 111.47,-33.93 106.3,-43.18 113.19,-44.39"/>
</a>
</g>
</g>
<!-- Node2 -->
<g id="Node000002" class="node">
<title>Node2</title>
<g id="a_Node000002"><a xlink:href="class_data_1_1_hash_function_1_1_f_n_v_1_1_f_n_v_config.html#ad1b98ea4bd2f0c9e3b230b18723b5650" target="_top" xlink:title="Gets one of the predefined configurations as defined at http://www.isthe.com/chongo/tech/comp/fnv/ind...">
<polygon fill="white" stroke="#666666" points="365.75,-32 187.75,-32 187.75,0 365.75,0 365.75,-32"/>
<text text-anchor="start" x="195.75" y="-18.5" font-family="Helvetica,sans-Serif" font-size="10.00">Data.HashFunction.FNV.FNVConfig.</text>
<text text-anchor="middle" x="276.75" y="-6.5" font-family="Helvetica,sans-Serif" font-size="10.00">GetPredefinedConfig</text>
</a>
</g>
</g>
<!-- Node1&#45;&gt;Node2 -->
<g id="edge2_Node000001_Node000002" class="edge">
<title>Node1&#45;&gt;Node2</title>
<g id="a_edge2_Node000001_Node000002"><a xlink:title=" ">
<path fill="none" stroke="#63b8ff" d="M152.06,-16C159.91,-16 167.98,-16 176.04,-16"/>
<polygon fill="#63b8ff" stroke="#63b8ff" points="175.91,-19.5 185.91,-16 175.91,-12.5 175.91,-19.5"/>
</a>
</g>
</g>
</g>
</svg>
