<?xml version="1.0" encoding="UTF-8" standalone="no"?>
<!DOCTYPE svg PUBLIC "-//W3C//DTD SVG 1.1//EN"
 "http://www.w3.org/Graphics/SVG/1.1/DTD/svg11.dtd">
<!-- Generated by graphviz version 12.2.0 (20241103.1931)
 -->
<!-- Title: Data.HashFunction.CityHash.CityHash_Implementation.Hash64Len17to32 Pages: 1 -->
<svg width="673pt" height="90pt"
 viewBox="0.00 0.00 673.25 90.00" xmlns="http://www.w3.org/2000/svg" xmlns:xlink="http://www.w3.org/1999/xlink">
<g id="graph0" class="graph" transform="scale(1 1) rotate(0) translate(4 86)">
<title>Data.HashFunction.CityHash.CityHash_Implementation.Hash64Len17to32</title>
<!-- Node1 -->
<g id="Node000001" class="node">
<title>Node1</title>
<g id="a_Node000001"><a xlink:title=" ">
<polygon fill="#999999" stroke="#666666" points="211,-57 0,-57 0,-25 211,-25 211,-57"/>
<text text-anchor="start" x="8" y="-43.5" font-family="Helvetica,sans-Serif" font-size="10.00">Data.HashFunction.CityHash.</text>
<text text-anchor="middle" x="105.5" y="-31.5" font-family="Helvetica,sans-Serif" font-size="10.00">CityHash_Implementation.Hash64Len17to32</text>
</a>
</g>
</g>
<!-- Node2 -->
<g id="Node000002" class="node">
<title>Node2</title>
<g id="a_Node000002"><a xlink:href="class_data_1_1_hash_function_1_1_city_hash_1_1_city_hash___implementation.html#a44c7f6a47b61dd01499fa3ffd79fba5c" target="_top" xlink:title=" ">
<polygon fill="white" stroke="#666666" points="439.25,-82 247,-82 247,-50 439.25,-50 439.25,-82"/>
<text text-anchor="start" x="255" y="-68.5" font-family="Helvetica,sans-Serif" font-size="10.00">Data.HashFunction.CityHash.</text>
<text text-anchor="middle" x="343.12" y="-56.5" font-family="Helvetica,sans-Serif" font-size="10.00">CityHash_Implementation.Hash64Len16</text>
</a>
</g>
</g>
<!-- Node1&#45;&gt;Node2 -->
<g id="edge1_Node000001_Node000002" class="edge">
<title>Node1&#45;&gt;Node2</title>
<g id="a_edge1_Node000001_Node000002"><a xlink:title=" ">
<path fill="none" stroke="#63b8ff" d="M211.22,-52.11C219.24,-52.96 227.34,-53.82 235.37,-54.67"/>
<polygon fill="#63b8ff" stroke="#63b8ff" points="234.85,-58.14 245.16,-55.71 235.59,-51.18 234.85,-58.14"/>
</a>
</g>
</g>
<!-- Node4 -->
<g id="Node000004" class="node">
<title>Node4</title>
<g id="a_Node000004"><a xlink:href="class_data_1_1_hash_function_1_1_city_hash_1_1_city_hash___implementation.html#a054a2a634a2a60c58844d08986eef674" target="_top" xlink:title=" ">
<polygon fill="white" stroke="#666666" points="435.5,-32 250.75,-32 250.75,0 435.5,0 435.5,-32"/>
<text text-anchor="start" x="258.75" y="-18.5" font-family="Helvetica,sans-Serif" font-size="10.00">Data.HashFunction.CityHash.</text>
<text text-anchor="middle" x="343.12" y="-6.5" font-family="Helvetica,sans-Serif" font-size="10.00">CityHash_Implementation.RotateRight</text>
</a>
</g>
</g>
<!-- Node1&#45;&gt;Node4 -->
<g id="edge3_Node000001_Node000004" class="edge">
<title>Node1&#45;&gt;Node4</title>
<g id="a_edge3_Node000001_Node000004"><a xlink:title=" ">
<path fill="none" stroke="#63b8ff" d="M211.22,-29.89C220.48,-28.91 229.85,-27.91 239.1,-26.93"/>
<polygon fill="#63b8ff" stroke="#63b8ff" points="239.23,-30.44 248.8,-25.9 238.49,-23.48 239.23,-30.44"/>
</a>
</g>
</g>
<!-- Node3 -->
<g id="Node000003" class="node">
<title>Node3</title>
<g id="a_Node000003"><a xlink:href="class_data_1_1_hash_function_1_1_city_hash_1_1_city_hash___implementation.html#a45aa0a22c0153b96e93044b4becadaff" target="_top" xlink:title=" ">
<polygon fill="white" stroke="#666666" points="665.25,-82 475.25,-82 475.25,-50 665.25,-50 665.25,-82"/>
<text text-anchor="start" x="483.25" y="-68.5" font-family="Helvetica,sans-Serif" font-size="10.00">Data.HashFunction.CityHash.</text>
<text text-anchor="middle" x="570.25" y="-56.5" font-family="Helvetica,sans-Serif" font-size="10.00">CityHash_Implementation.Hash128to64</text>
</a>
</g>
</g>
<!-- Node2&#45;&gt;Node3 -->
<g id="edge2_Node000002_Node000003" class="edge">
<title>Node2&#45;&gt;Node3</title>
<g id="a_edge2_Node000002_Node000003"><a xlink:title=" ">
<path fill="none" stroke="#63b8ff" d="M439.6,-66C447.58,-66 455.68,-66 463.73,-66"/>
<polygon fill="#63b8ff" stroke="#63b8ff" points="463.55,-69.5 473.55,-66 463.55,-62.5 463.55,-69.5"/>
</a>
</g>
</g>
</g>
</svg>
