<?xml version="1.0" encoding="UTF-8" standalone="no"?>
<!DOCTYPE svg PUBLIC "-//W3C//DTD SVG 1.1//EN"
 "http://www.w3.org/Graphics/SVG/1.1/DTD/svg11.dtd">
<!-- Generated by graphviz version 12.2.0 (20241103.1931)
 -->
<!-- Title: Data.HashFunction.Blake3.Hasher.New Pages: 1 -->
<svg width="538pt" height="52pt"
 viewBox="0.00 0.00 537.50 52.00" xmlns="http://www.w3.org/2000/svg" xmlns:xlink="http://www.w3.org/1999/xlink">
<g id="graph0" class="graph" transform="scale(1 1) rotate(0) translate(4 48)">
<title>Data.HashFunction.Blake3.Hasher.New</title>
<!-- Node1 -->
<g id="Node000001" class="node">
<title>Node1</title>
<g id="a_Node000001"><a xlink:title="Construct a new Hasher for the regular hash function.">
<polygon fill="#999999" stroke="#666666" points="529.5,-38 392.75,-38 392.75,-6 529.5,-6 529.5,-38"/>
<text text-anchor="start" x="400.75" y="-24.5" font-family="Helvetica,sans-Serif" font-size="10.00">Data.HashFunction.Blake3.</text>
<text text-anchor="middle" x="461.12" y="-12.5" font-family="Helvetica,sans-Serif" font-size="10.00">Hasher.New</text>
</a>
</g>
</g>
<!-- Node2 -->
<g id="Node000002" class="node">
<title>Node2</title>
<g id="a_Node000002"><a xlink:href="class_data_1_1_hash_function_1_1_blake3_1_1_hasher.html#aac947b8cb06612c856ce00ba6d977208" target="_top" xlink:title="The default hash function.">
<polygon fill="white" stroke="#666666" points="356.75,-38 220,-38 220,-6 356.75,-6 356.75,-38"/>
<text text-anchor="start" x="228" y="-24.5" font-family="Helvetica,sans-Serif" font-size="10.00">Data.HashFunction.Blake3.</text>
<text text-anchor="middle" x="288.38" y="-12.5" font-family="Helvetica,sans-Serif" font-size="10.00">Hasher.Hash</text>
</a>
</g>
</g>
<!-- Node1&#45;&gt;Node2 -->
<g id="edge1_Node000001_Node000002" class="edge">
<title>Node1&#45;&gt;Node2</title>
<g id="a_edge1_Node000001_Node000002"><a xlink:title=" ">
<path fill="none" stroke="#63b8ff" d="M381.33,-22C373.27,-22 365.13,-22 357.21,-22"/>
<polygon fill="#63b8ff" stroke="#63b8ff" points="381.13,-25.5 391.13,-22 381.13,-18.5 381.13,-25.5"/>
</a>
</g>
</g>
<!-- Node3 -->
<g id="Node000003" class="node">
<title>Node3</title>
<g id="a_Node000003"><a xlink:href="class_data_1_1_hash_function_1_1_blake3_1_1_blake3___implementation.html#acf9fb5e2e6ac2dc31721218947dc5451" target="_top" xlink:title=" ">
<polygon fill="white" stroke="#666666" points="184,-44 0,-44 0,0 184,0 184,-44"/>
<text text-anchor="start" x="8" y="-30.5" font-family="Helvetica,sans-Serif" font-size="10.00">Data.HashFunction.Blake3.</text>
<text text-anchor="start" x="8" y="-18.5" font-family="Helvetica,sans-Serif" font-size="10.00">Blake3_Implementation.ComputeHash</text>
<text text-anchor="middle" x="92" y="-6.5" font-family="Helvetica,sans-Serif" font-size="10.00">Internal</text>
</a>
</g>
</g>
<!-- Node2&#45;&gt;Node3 -->
<g id="edge2_Node000002_Node000003" class="edge">
<title>Node2&#45;&gt;Node3</title>
<g id="a_edge2_Node000002_Node000003"><a xlink:title=" ">
<path fill="none" stroke="#63b8ff" d="M208.28,-22C200.41,-22 192.38,-22 184.4,-22"/>
<polygon fill="#63b8ff" stroke="#63b8ff" points="208.15,-25.5 218.15,-22 208.15,-18.5 208.15,-25.5"/>
</a>
</g>
</g>
</g>
</svg>
