<?xml version="1.0" encoding="UTF-8" standalone="no"?>
<!DOCTYPE svg PUBLIC "-//W3C//DTD SVG 1.1//EN"
 "http://www.w3.org/Graphics/SVG/1.1/DTD/svg11.dtd">
<!-- Generated by graphviz version 12.2.0 (20241103.1931)
 -->
<!-- Title: Data.HashFunction.Core.StreamableHashFunctionBase Pages: 1 -->
<svg width="878pt" height="790pt"
 viewBox="0.00 0.00 877.75 790.00" xmlns="http://www.w3.org/2000/svg" xmlns:xlink="http://www.w3.org/1999/xlink">
<g id="graph0" class="graph" transform="scale(1 1) rotate(0) translate(4 786)">
<title>Data.HashFunction.Core.StreamableHashFunctionBase</title>
<!-- Node1 -->
<g id="Node000001" class="node">
<title>Node1</title>
<g id="a_Node000001"><a xlink:title="Common interface to non&#45;cryptographic hash functions that can be computed over a stream of data witho...">
<polygon fill="#999999" stroke="#666666" points="458.25,-407 281,-407 281,-375 458.25,-375 458.25,-407"/>
<text text-anchor="start" x="289" y="-393.5" font-family="Helvetica,sans-Serif" font-size="10.00">Data.HashFunction.Core.Streamable</text>
<text text-anchor="middle" x="369.62" y="-381.5" font-family="Helvetica,sans-Serif" font-size="10.00">HashFunctionBase</text>
</a>
</g>
</g>
<!-- Node5 -->
<g id="Node000005" class="node">
<title>Node5</title>
<g id="a_Node000005"><a xlink:href="class_data_1_1_hash_function_1_1_bernstein_hash_1_1_bernstein_hash___implementation.html" target="_top" xlink:title=" ">
<polygon fill="white" stroke="#666666" points="674.88,-782 496.12,-782 496.12,-750 674.88,-750 674.88,-782"/>
<text text-anchor="start" x="504.12" y="-768.5" font-family="Helvetica,sans-Serif" font-size="10.00">Data.HashFunction.Bernstein</text>
<text text-anchor="middle" x="585.5" y="-756.5" font-family="Helvetica,sans-Serif" font-size="10.00">Hash.BernsteinHash_Implementation</text>
</a>
</g>
</g>
<!-- Node1&#45;&gt;Node5 -->
<g id="edge5_Node000001_Node000005" class="edge">
<title>Node1&#45;&gt;Node5</title>
<g id="a_edge5_Node000001_Node000005"><a xlink:title=" ">
<path fill="none" stroke="#63b8ff" d="M372.07,-418.85C377.03,-484.87 398.86,-652 494.25,-741 497.82,-744.33 501.79,-747.22 506.02,-749.73"/>
<polygon fill="#63b8ff" stroke="#63b8ff" points="375.56,-418.65 371.4,-408.9 368.58,-419.12 375.56,-418.65"/>
</a>
</g>
</g>
<!-- Node6 -->
<g id="Node000006" class="node">
<title>Node6</title>
<g id="a_Node000006"><a xlink:href="class_data_1_1_hash_function_1_1_bernstein_hash_1_1_modified_bernstein_hash___implementation.html" target="_top" xlink:title=" ">
<polygon fill="white" stroke="#666666" points="658,-732 513,-732 513,-688 658,-688 658,-732"/>
<text text-anchor="start" x="521" y="-718.5" font-family="Helvetica,sans-Serif" font-size="10.00">Data.HashFunction.Bernstein</text>
<text text-anchor="start" x="521" y="-706.5" font-family="Helvetica,sans-Serif" font-size="10.00">Hash.ModifiedBernsteinHash</text>
<text text-anchor="middle" x="585.5" y="-694.5" font-family="Helvetica,sans-Serif" font-size="10.00">_Implementation</text>
</a>
</g>
</g>
<!-- Node1&#45;&gt;Node6 -->
<g id="edge6_Node000001_Node000006" class="edge">
<title>Node1&#45;&gt;Node6</title>
<g id="a_edge6_Node000001_Node000006"><a xlink:title=" ">
<path fill="none" stroke="#63b8ff" d="M374.84,-418.59C384.96,-475.41 415.85,-606.24 494.25,-679 499.71,-684.07 506.05,-688.32 512.77,-691.87"/>
<polygon fill="#63b8ff" stroke="#63b8ff" points="378.31,-418.1 373.19,-408.82 371.41,-419.26 378.31,-418.1"/>
</a>
</g>
</g>
<!-- Node7 -->
<g id="Node000007" class="node">
<title>Node7</title>
<g id="a_Node000007"><a xlink:href="class_data_1_1_hash_function_1_1_blake2_1_1_blake2_b___implementation.html" target="_top" xlink:title=" ">
<polygon fill="white" stroke="#666666" points="653.88,-670 517.12,-670 517.12,-638 653.88,-638 653.88,-670"/>
<text text-anchor="start" x="525.12" y="-656.5" font-family="Helvetica,sans-Serif" font-size="10.00">Data.HashFunction.Blake2.</text>
<text text-anchor="middle" x="585.5" y="-644.5" font-family="Helvetica,sans-Serif" font-size="10.00">Blake2B_Implementation</text>
</a>
</g>
</g>
<!-- Node1&#45;&gt;Node7 -->
<g id="edge7_Node000001_Node000007" class="edge">
<title>Node1&#45;&gt;Node7</title>
<g id="a_edge7_Node000001_Node000007"><a xlink:title=" ">
<path fill="none" stroke="#63b8ff" d="M377.17,-418.59C390.43,-468.34 425.24,-573.08 494.25,-629 500.95,-634.42 508.74,-638.68 516.88,-642"/>
<polygon fill="#63b8ff" stroke="#63b8ff" points="380.57,-417.75 374.7,-408.93 373.79,-419.49 380.57,-417.75"/>
</a>
</g>
</g>
<!-- Node8 -->
<g id="Node000008" class="node">
<title>Node8</title>
<g id="a_Node000008"><a xlink:href="class_data_1_1_hash_function_1_1_buz_hash_1_1_buz_hash___implementation.html" target="_top" xlink:title=" ">
<polygon fill="white" stroke="#666666" points="659.12,-620 511.88,-620 511.88,-588 659.12,-588 659.12,-620"/>
<text text-anchor="start" x="519.88" y="-606.5" font-family="Helvetica,sans-Serif" font-size="10.00">Data.HashFunction.BuzHash.</text>
<text text-anchor="middle" x="585.5" y="-594.5" font-family="Helvetica,sans-Serif" font-size="10.00">BuzHash_Implementation</text>
</a>
</g>
</g>
<!-- Node1&#45;&gt;Node8 -->
<g id="edge8_Node000001_Node000008" class="edge">
<title>Node1&#45;&gt;Node8</title>
<g id="a_edge8_Node000001_Node000008"><a xlink:title=" ">
<path fill="none" stroke="#63b8ff" d="M381.01,-418C398.21,-459.08 436.53,-536.95 494.25,-579 499.51,-582.83 505.32,-586.07 511.4,-588.82"/>
<polygon fill="#63b8ff" stroke="#63b8ff" points="384.3,-416.8 377.29,-408.85 377.81,-419.43 384.3,-416.8"/>
</a>
</g>
</g>
<!-- Node9 -->
<g id="Node000009" class="node">
<title>Node9</title>
<g id="a_Node000009"><a xlink:href="class_data_1_1_hash_function_1_1_c_r_c_1_1_c_r_c___implementation.html" target="_top" xlink:title=" ">
<polygon fill="white" stroke="#666666" points="661.38,-570 509.62,-570 509.62,-538 661.38,-538 661.38,-570"/>
<text text-anchor="start" x="517.62" y="-556.5" font-family="Helvetica,sans-Serif" font-size="10.00">Data.HashFunction.CRC.CRC</text>
<text text-anchor="middle" x="585.5" y="-544.5" font-family="Helvetica,sans-Serif" font-size="10.00">_Implementation</text>
</a>
</g>
</g>
<!-- Node1&#45;&gt;Node9 -->
<g id="edge9_Node000001_Node000009" class="edge">
<title>Node1&#45;&gt;Node9</title>
<g id="a_edge9_Node000001_Node000009"><a xlink:title=" ">
<path fill="none" stroke="#63b8ff" d="M386.84,-416.7C407.85,-447.9 447.39,-499.93 494.25,-529 499.5,-532.26 505.18,-535.1 511.05,-537.57"/>
<polygon fill="#63b8ff" stroke="#63b8ff" points="389.94,-415.05 381.52,-408.63 384.1,-418.9 389.94,-415.05"/>
</a>
</g>
</g>
<!-- Node10 -->
<g id="Node000010" class="node">
<title>Node10</title>
<g id="a_Node000010"><a xlink:href="class_data_1_1_hash_function_1_1_e_l_f64_1_1_e_l_f64___implementation.html" target="_top" xlink:title=" ">
<polygon fill="white" stroke="#666666" points="653.12,-520 517.88,-520 517.88,-488 653.12,-488 653.12,-520"/>
<text text-anchor="start" x="525.88" y="-506.5" font-family="Helvetica,sans-Serif" font-size="10.00">Data.HashFunction.ELF64.</text>
<text text-anchor="middle" x="585.5" y="-494.5" font-family="Helvetica,sans-Serif" font-size="10.00">ELF64_Implementation</text>
</a>
</g>
</g>
<!-- Node1&#45;&gt;Node10 -->
<g id="edge10_Node000001_Node000010" class="edge">
<title>Node1&#45;&gt;Node10</title>
<g id="a_edge10_Node000001_Node000010"><a xlink:title=" ">
<path fill="none" stroke="#63b8ff" d="M397.53,-414.39C421.47,-434.12 458.18,-461.83 494.25,-479 501.59,-482.5 509.5,-485.58 517.49,-488.28"/>
<polygon fill="#63b8ff" stroke="#63b8ff" points="400.08,-411.96 390.17,-408.23 395.59,-417.33 400.08,-411.96"/>
</a>
</g>
</g>
<!-- Node11 -->
<g id="Node000011" class="node">
<title>Node11</title>
<g id="a_Node000011"><a xlink:href="class_data_1_1_hash_function_1_1_f_n_v_1_1_f_n_v1_base.html" target="_top" xlink:title=" ">
<polygon fill="white" stroke="#666666" points="672.62,-470 498.38,-470 498.38,-450 672.62,-450 672.62,-470"/>
<text text-anchor="middle" x="585.5" y="-456.5" font-family="Helvetica,sans-Serif" font-size="10.00">Data.HashFunction.FNV.FNV1Base</text>
</a>
</g>
</g>
<!-- Node1&#45;&gt;Node11 -->
<g id="edge11_Node000001_Node000011" class="edge">
<title>Node1&#45;&gt;Node11</title>
<g id="a_edge11_Node000001_Node000011"><a xlink:title=" ">
<path fill="none" stroke="#63b8ff" d="M416.98,-412.02C439.89,-421.82 468.15,-433.04 494.25,-441 504.82,-444.22 516.25,-447.09 527.3,-449.55"/>
<polygon fill="#63b8ff" stroke="#63b8ff" points="418.49,-408.86 407.92,-408.09 415.7,-415.28 418.49,-408.86"/>
</a>
</g>
</g>
<!-- Node15 -->
<g id="Node000015" class="node">
<title>Node15</title>
<g id="a_Node000015"><a xlink:href="class_data_1_1_hash_function_1_1_jenkins_1_1_jenkins_lookup2___implementation.html" target="_top" xlink:title=" ">
<polygon fill="white" stroke="#666666" points="664.75,-432 506.25,-432 506.25,-400 664.75,-400 664.75,-432"/>
<text text-anchor="start" x="514.25" y="-418.5" font-family="Helvetica,sans-Serif" font-size="10.00">Data.HashFunction.Jenkins.</text>
<text text-anchor="middle" x="585.5" y="-406.5" font-family="Helvetica,sans-Serif" font-size="10.00">JenkinsLookup2_Implementation</text>
</a>
</g>
</g>
<!-- Node1&#45;&gt;Node15 -->
<g id="edge15_Node000001_Node000015" class="edge">
<title>Node1&#45;&gt;Node15</title>
<g id="a_edge15_Node000001_Node000015"><a xlink:title=" ">
<path fill="none" stroke="#63b8ff" d="M469.63,-402.57C481.77,-403.99 494.05,-405.43 505.83,-406.8"/>
<polygon fill="#63b8ff" stroke="#63b8ff" points="470.38,-399.14 460.05,-401.45 469.57,-406.09 470.38,-399.14"/>
</a>
</g>
</g>
<!-- Node16 -->
<g id="Node000016" class="node">
<title>Node16</title>
<g id="a_Node000016"><a xlink:href="class_data_1_1_hash_function_1_1_jenkins_1_1_jenkins_one_at_a_time___implementation.html" target="_top" xlink:title=" ">
<polygon fill="white" stroke="#666666" points="674.12,-382 496.88,-382 496.88,-350 674.12,-350 674.12,-382"/>
<text text-anchor="start" x="504.88" y="-368.5" font-family="Helvetica,sans-Serif" font-size="10.00">Data.HashFunction.Jenkins.</text>
<text text-anchor="middle" x="585.5" y="-356.5" font-family="Helvetica,sans-Serif" font-size="10.00">JenkinsOneAtATime_Implementation</text>
</a>
</g>
</g>
<!-- Node1&#45;&gt;Node16 -->
<g id="edge16_Node000001_Node000016" class="edge">
<title>Node1&#45;&gt;Node16</title>
<g id="a_edge16_Node000001_Node000016"><a xlink:title=" ">
<path fill="none" stroke="#63b8ff" d="M469.8,-379.41C478.74,-378.36 487.75,-377.31 496.58,-376.28"/>
<polygon fill="#63b8ff" stroke="#63b8ff" points="469.57,-375.91 460.05,-380.55 470.38,-382.86 469.57,-375.91"/>
</a>
</g>
</g>
<!-- Node17 -->
<g id="Node000017" class="node">
<title>Node17</title>
<g id="a_Node000017"><a xlink:href="class_data_1_1_hash_function_1_1_metro_hash_1_1_metro_hash128___implementation.html" target="_top" xlink:title=" ">
<polygon fill="white" stroke="#666666" points="662.88,-332 508.12,-332 508.12,-300 662.88,-300 662.88,-332"/>
<text text-anchor="start" x="516.12" y="-318.5" font-family="Helvetica,sans-Serif" font-size="10.00">Data.HashFunction.MetroHash.</text>
<text text-anchor="middle" x="585.5" y="-306.5" font-family="Helvetica,sans-Serif" font-size="10.00">MetroHash128_Implementation</text>
</a>
</g>
</g>
<!-- Node1&#45;&gt;Node17 -->
<g id="edge17_Node000001_Node000017" class="edge">
<title>Node1&#45;&gt;Node17</title>
<g id="a_edge17_Node000001_Node000017"><a xlink:title=" ">
<path fill="none" stroke="#63b8ff" d="M418.48,-370.16C441.21,-360.65 468.89,-349.61 494.25,-341 503.03,-338.02 512.37,-335.13 521.59,-332.43"/>
<polygon fill="#63b8ff" stroke="#63b8ff" points="417.32,-366.85 409.47,-373.96 420.05,-373.3 417.32,-366.85"/>
</a>
</g>
</g>
<!-- Node18 -->
<g id="Node000018" class="node">
<title>Node18</title>
<g id="a_Node000018"><a xlink:href="class_data_1_1_hash_function_1_1_metro_hash_1_1_metro_hash64___implementation.html" target="_top" xlink:title=" ">
<polygon fill="white" stroke="#666666" points="662.88,-282 508.12,-282 508.12,-250 662.88,-250 662.88,-282"/>
<text text-anchor="start" x="516.12" y="-268.5" font-family="Helvetica,sans-Serif" font-size="10.00">Data.HashFunction.MetroHash.</text>
<text text-anchor="middle" x="585.5" y="-256.5" font-family="Helvetica,sans-Serif" font-size="10.00">MetroHash64_Implementation</text>
</a>
</g>
</g>
<!-- Node1&#45;&gt;Node18 -->
<g id="edge18_Node000001_Node000018" class="edge">
<title>Node1&#45;&gt;Node18</title>
<g id="a_edge18_Node000001_Node000018"><a xlink:title=" ">
<path fill="none" stroke="#63b8ff" d="M394.21,-366.87C417.64,-344.22 455.55,-310.91 494.25,-291 500.47,-287.8 507.14,-284.97 513.94,-282.48"/>
<polygon fill="#63b8ff" stroke="#63b8ff" points="392.02,-364.13 387.34,-373.63 396.93,-369.11 392.02,-364.13"/>
</a>
</g>
</g>
<!-- Node19 -->
<g id="Node000019" class="node">
<title>Node19</title>
<g id="a_Node000019"><a xlink:href="class_data_1_1_hash_function_1_1_murmur_hash_1_1_murmur_hash3___implementation.html" target="_top" xlink:title=" ">
<polygon fill="white" stroke="#666666" points="673.38,-232 497.62,-232 497.62,-200 673.38,-200 673.38,-232"/>
<text text-anchor="start" x="505.62" y="-218.5" font-family="Helvetica,sans-Serif" font-size="10.00">Data.HashFunction.Murmur</text>
<text text-anchor="middle" x="585.5" y="-206.5" font-family="Helvetica,sans-Serif" font-size="10.00">Hash.MurmurHash3_Implementation</text>
</a>
</g>
</g>
<!-- Node1&#45;&gt;Node19 -->
<g id="edge19_Node000001_Node000019" class="edge">
<title>Node1&#45;&gt;Node19</title>
<g id="a_edge19_Node000001_Node000019"><a xlink:title=" ">
<path fill="none" stroke="#63b8ff" d="M385.08,-365.06C405.18,-331.38 444.74,-273.14 494.25,-241 499.3,-237.72 504.77,-234.87 510.44,-232.39"/>
<polygon fill="#63b8ff" stroke="#63b8ff" points="382.25,-362.95 380.24,-373.35 388.3,-366.48 382.25,-362.95"/>
</a>
</g>
</g>
<!-- Node20 -->
<g id="Node000020" class="node">
<title>Node20</title>
<g id="a_Node000020"><a xlink:href="class_data_1_1_hash_function_1_1_pearson_1_1_pearson___implementation.html" target="_top" xlink:title=" ">
<polygon fill="white" stroke="#666666" points="656.88,-182 514.12,-182 514.12,-150 656.88,-150 656.88,-182"/>
<text text-anchor="start" x="522.12" y="-168.5" font-family="Helvetica,sans-Serif" font-size="10.00">Data.HashFunction.Pearson.</text>
<text text-anchor="middle" x="585.5" y="-156.5" font-family="Helvetica,sans-Serif" font-size="10.00">Pearson_Implementation</text>
</a>
</g>
</g>
<!-- Node1&#45;&gt;Node20 -->
<g id="edge20_Node000001_Node000020" class="edge">
<title>Node1&#45;&gt;Node20</title>
<g id="a_edge20_Node000001_Node000020"><a xlink:title=" ">
<path fill="none" stroke="#63b8ff" d="M379.93,-363.86C396.17,-320.62 433.83,-236.33 494.25,-191 500.23,-186.51 506.98,-182.83 514.02,-179.81"/>
<polygon fill="#63b8ff" stroke="#63b8ff" points="376.65,-362.65 376.52,-373.24 383.23,-365.04 376.65,-362.65"/>
</a>
</g>
</g>
<!-- Node21 -->
<g id="Node000021" class="node">
<title>Node21</title>
<g id="a_Node000021"><a xlink:href="class_data_1_1_hash_function_1_1_spooky_hash_1_1_spooky_hash_v1___implementation.html" target="_top" xlink:title=" ">
<polygon fill="white" stroke="#666666" points="676.75,-132 494.25,-132 494.25,-100 676.75,-100 676.75,-132"/>
<text text-anchor="start" x="502.25" y="-118.5" font-family="Helvetica,sans-Serif" font-size="10.00">Data.HashFunction.Spooky</text>
<text text-anchor="middle" x="585.5" y="-106.5" font-family="Helvetica,sans-Serif" font-size="10.00">Hash.SpookyHashV1_Implementation</text>
</a>
</g>
</g>
<!-- Node1&#45;&gt;Node21 -->
<g id="edge21_Node000001_Node000021" class="edge">
<title>Node1&#45;&gt;Node21</title>
<g id="a_edge21_Node000001_Node000021"><a xlink:title=" ">
<path fill="none" stroke="#63b8ff" d="M376.4,-363.5C388.69,-311.9 422.39,-200.41 494.25,-141 498.26,-137.68 502.68,-134.81 507.34,-132.31"/>
<polygon fill="#63b8ff" stroke="#63b8ff" points="372.99,-362.69 374.18,-373.22 379.82,-364.25 372.99,-362.69"/>
</a>
</g>
</g>
<!-- Node22 -->
<g id="Node000022" class="node">
<title>Node22</title>
<g id="a_Node000022"><a xlink:href="class_data_1_1_hash_function_1_1_spooky_hash_1_1_spooky_hash_v2___implementation.html" target="_top" xlink:title=" ">
<polygon fill="white" stroke="#666666" points="676.75,-82 494.25,-82 494.25,-50 676.75,-50 676.75,-82"/>
<text text-anchor="start" x="502.25" y="-68.5" font-family="Helvetica,sans-Serif" font-size="10.00">Data.HashFunction.Spooky</text>
<text text-anchor="middle" x="585.5" y="-56.5" font-family="Helvetica,sans-Serif" font-size="10.00">Hash.SpookyHashV2_Implementation</text>
</a>
</g>
</g>
<!-- Node1&#45;&gt;Node22 -->
<g id="edge22_Node000001_Node000022" class="edge">
<title>Node1&#45;&gt;Node22</title>
<g id="a_edge22_Node000001_Node000022"><a xlink:title=" ">
<path fill="none" stroke="#63b8ff" d="M373.88,-363.52C382.36,-304.53 410.61,-165.12 494.25,-91 497.9,-87.77 501.93,-84.95 506.21,-82.49"/>
<polygon fill="#63b8ff" stroke="#63b8ff" points="370.43,-362.96 372.56,-373.33 377.36,-363.89 370.43,-362.96"/>
</a>
</g>
</g>
<!-- Node23 -->
<g id="Node000023" class="node">
<title>Node23</title>
<g id="a_Node000023"><a xlink:href="class_data_1_1_hash_function_1_1xx_hash_1_1xx_hash___implementation.html" target="_top" xlink:title=" ">
<polygon fill="white" stroke="#666666" points="661,-32 510,-32 510,0 661,0 661,-32"/>
<text text-anchor="start" x="518" y="-18.5" font-family="Helvetica,sans-Serif" font-size="10.00">Data.HashFunction.xxHash.xx</text>
<text text-anchor="middle" x="585.5" y="-6.5" font-family="Helvetica,sans-Serif" font-size="10.00">Hash_Implementation</text>
</a>
</g>
</g>
<!-- Node1&#45;&gt;Node23 -->
<g id="edge23_Node000001_Node000023" class="edge">
<title>Node1&#45;&gt;Node23</title>
<g id="a_edge23_Node000001_Node000023"><a xlink:title=" ">
<path fill="none" stroke="#63b8ff" d="M372.07,-363.15C377.03,-297.13 398.86,-130 494.25,-41 498.89,-36.67 504.2,-33.09 509.89,-30.11"/>
<polygon fill="#63b8ff" stroke="#63b8ff" points="368.58,-362.88 371.4,-373.1 375.56,-363.35 368.58,-362.88"/>
</a>
</g>
</g>
<!-- Node2 -->
<g id="Node000002" class="node">
<title>Node2</title>
<g id="a_Node000002"><a xlink:href="class_data_1_1_hash_function_1_1_core_1_1_hash_function_base.html" target="_top" xlink:title="Abstract implementation of an IHashFunction. Provides convenience checks and ensures a default HashSi...">
<polygon fill="white" stroke="#666666" points="230,-420 130.75,-420 130.75,-400 230,-400 230,-420"/>
<text text-anchor="middle" x="180.38" y="-406.5" font-family="Helvetica,sans-Serif" font-size="10.00">HashFunctionBase</text>
</a>
</g>
</g>
<!-- Node2&#45;&gt;Node1 -->
<g id="edge1_Node000001_Node000002" class="edge">
<title>Node2&#45;&gt;Node1</title>
<g id="a_edge1_Node000001_Node000002"><a xlink:title=" ">
<path fill="none" stroke="#63b8ff" d="M241.3,-403.92C253.84,-402.65 267.3,-401.28 280.61,-399.93"/>
<polygon fill="#63b8ff" stroke="#63b8ff" points="241.19,-400.41 231.59,-404.9 241.89,-407.38 241.19,-400.41"/>
</a>
</g>
</g>
<!-- Node3 -->
<g id="Node000003" class="node">
<title>Node3</title>
<g id="a_Node000003"><a xlink:href="interface_data_1_1_hash_function_1_1_i_hash_function.html" target="_top" xlink:title="Common interface to non&#45;cryptographic hash functions.">
<polygon fill="white" stroke="#666666" points="79.75,-401 0,-401 0,-381 79.75,-381 79.75,-401"/>
<text text-anchor="middle" x="39.88" y="-387.5" font-family="Helvetica,sans-Serif" font-size="10.00">IHashFunction</text>
</a>
</g>
</g>
<!-- Node3&#45;&gt;Node2 -->
<g id="edge2_Node000002_Node000003" class="edge">
<title>Node3&#45;&gt;Node2</title>
<g id="a_edge2_Node000002_Node000003"><a xlink:title=" ">
<path fill="none" stroke="#63b8ff" d="M91.52,-397.95C104.18,-399.68 117.74,-401.55 130.33,-403.27"/>
<polygon fill="#63b8ff" stroke="#63b8ff" points="92.08,-394.49 81.69,-396.6 91.12,-401.43 92.08,-394.49"/>
</a>
</g>
</g>
<!-- Node4 -->
<g id="Node000004" class="node">
<title>Node4</title>
<g id="a_Node000004"><a xlink:href="interface_data_1_1_hash_function_1_1_i_streamable_hash_function.html" target="_top" xlink:title="Common interface to non&#45;cryptographic hash functions that can be computed over a stream of data witho...">
<polygon fill="white" stroke="#666666" points="245,-382 115.75,-382 115.75,-362 245,-362 245,-382"/>
<text text-anchor="middle" x="180.38" y="-368.5" font-family="Helvetica,sans-Serif" font-size="10.00">IStreamableHashFunction</text>
</a>
</g>
</g>
<!-- Node3&#45;&gt;Node4 -->
<g id="edge4_Node000004_Node000003" class="edge">
<title>Node3&#45;&gt;Node4</title>
<g id="a_edge4_Node000004_Node000003"><a xlink:title=" ">
<path fill="none" stroke="#63b8ff" d="M91.6,-384.04C99.32,-382.98 107.37,-381.88 115.33,-380.79"/>
<polygon fill="#63b8ff" stroke="#63b8ff" points="91.12,-380.57 81.69,-385.4 92.08,-387.51 91.12,-380.57"/>
</a>
</g>
</g>
<!-- Node4&#45;&gt;Node1 -->
<g id="edge3_Node000001_Node000004" class="edge">
<title>Node4&#45;&gt;Node1</title>
<g id="a_edge3_Node000001_Node000004"><a xlink:title=" ">
<path fill="none" stroke="#63b8ff" d="M256.74,-379.65C264.66,-380.45 272.77,-381.27 280.81,-382.09"/>
<polygon fill="#63b8ff" stroke="#63b8ff" points="257.1,-376.17 246.8,-378.64 256.39,-383.13 257.1,-376.17"/>
</a>
</g>
</g>
<!-- Node12 -->
<g id="Node000012" class="node">
<title>Node12</title>
<g id="a_Node000012"><a xlink:href="class_data_1_1_hash_function_1_1_f_n_v_1_1_f_n_v1___implementation.html" target="_top" xlink:title=" ">
<polygon fill="white" stroke="#666666" points="867.12,-526 715.38,-526 715.38,-494 867.12,-494 867.12,-526"/>
<text text-anchor="start" x="723.38" y="-512.5" font-family="Helvetica,sans-Serif" font-size="10.00">Data.HashFunction.FNV.FNV1</text>
<text text-anchor="middle" x="791.25" y="-500.5" font-family="Helvetica,sans-Serif" font-size="10.00">_Implementation</text>
</a>
</g>
</g>
<!-- Node11&#45;&gt;Node12 -->
<g id="edge12_Node000011_Node000012" class="edge">
<title>Node11&#45;&gt;Node12</title>
<g id="a_edge12_Node000011_Node000012"><a xlink:title=" ">
<path fill="none" stroke="#63b8ff" d="M649.64,-472.8C658.76,-474.79 668.01,-476.89 676.75,-479 695.02,-483.41 714.81,-488.66 732.68,-493.57"/>
<polygon fill="#63b8ff" stroke="#63b8ff" points="650.63,-469.43 640.12,-470.75 649.16,-476.27 650.63,-469.43"/>
</a>
</g>
</g>
<!-- Node13 -->
<g id="Node000013" class="node">
<title>Node13</title>
<g id="a_Node000013"><a xlink:href="class_data_1_1_hash_function_1_1_f_n_v_1_1_f_n_v1a___implementation.html" target="_top" xlink:title=" ">
<polygon fill="white" stroke="#666666" points="869.75,-476 712.75,-476 712.75,-444 869.75,-444 869.75,-476"/>
<text text-anchor="start" x="720.75" y="-462.5" font-family="Helvetica,sans-Serif" font-size="10.00">Data.HashFunction.FNV.FNV1a</text>
<text text-anchor="middle" x="791.25" y="-450.5" font-family="Helvetica,sans-Serif" font-size="10.00">_Implementation</text>
</a>
</g>
</g>
<!-- Node11&#45;&gt;Node13 -->
<g id="edge13_Node000011_Node000013" class="edge">
<title>Node11&#45;&gt;Node13</title>
<g id="a_edge13_Node000011_Node000013"><a xlink:title=" ">
<path fill="none" stroke="#63b8ff" d="M684.36,-460C693.78,-460 703.24,-460 712.43,-460"/>
<polygon fill="#63b8ff" stroke="#63b8ff" points="684.42,-456.5 674.42,-460 684.42,-463.5 684.42,-456.5"/>
</a>
</g>
</g>
<!-- Node14 -->
<g id="Node000014" class="node">
<title>Node14</title>
<g id="a_Node000014"><a xlink:href="class_data_1_1_hash_function_1_1_test_1_1_f_n_v_1_1_f_n_v1_base___tests_1_1_f_n_v1_impl.html" target="_top" xlink:title=" ">
<polygon fill="white" stroke="#666666" points="865.25,-426 717.25,-426 717.25,-394 865.25,-394 865.25,-426"/>
<text text-anchor="start" x="725.25" y="-412.5" font-family="Helvetica,sans-Serif" font-size="10.00">Data.HashFunction.Test.FNV.</text>
<text text-anchor="middle" x="791.25" y="-400.5" font-family="Helvetica,sans-Serif" font-size="10.00">FNV1Base_Tests.FNV1Impl</text>
</a>
</g>
</g>
<!-- Node11&#45;&gt;Node14 -->
<g id="edge14_Node000011_Node000014" class="edge">
<title>Node11&#45;&gt;Node14</title>
<g id="a_edge14_Node000011_Node000014"><a xlink:title=" ">
<path fill="none" stroke="#63b8ff" d="M649.64,-447.2C658.76,-445.21 668.01,-443.11 676.75,-441 695.02,-436.59 714.81,-431.34 732.68,-426.43"/>
<polygon fill="#63b8ff" stroke="#63b8ff" points="649.16,-443.73 640.12,-449.25 650.63,-450.57 649.16,-443.73"/>
</a>
</g>
</g>
</g>
</svg>
