<?xml version="1.0" encoding="UTF-8" standalone="no"?>
<!DOCTYPE svg PUBLIC "-//W3C//DTD SVG 1.1//EN"
 "http://www.w3.org/Graphics/SVG/1.1/DTD/svg11.dtd">
<!-- Generated by graphviz version 12.2.0 (20241103.1931)
 -->
<!-- Title: Data.HashFunction.FNV.FNV1Base.FNV1Base Pages: 1 -->
<svg width="576pt" height="115pt"
 viewBox="0.00 0.00 575.75 115.00" xmlns="http://www.w3.org/2000/svg" xmlns:xlink="http://www.w3.org/1999/xlink">
<g id="graph0" class="graph" transform="scale(1 1) rotate(0) translate(4 111)">
<title>Data.HashFunction.FNV.FNV1Base.FNV1Base</title>
<!-- Node1 -->
<g id="Node000001" class="node">
<title>Node1</title>
<g id="a_Node000001"><a xlink:title=" ">
<polygon fill="#999999" stroke="#666666" points="151.75,-82 0,-82 0,-50 151.75,-50 151.75,-82"/>
<text text-anchor="start" x="8" y="-68.5" font-family="Helvetica,sans-Serif" font-size="10.00">Data.HashFunction.FNV.FNV1</text>
<text text-anchor="middle" x="75.88" y="-56.5" font-family="Helvetica,sans-Serif" font-size="10.00">Base.FNV1Base</text>
</a>
</g>
</g>
<!-- Node2 -->
<g id="Node000002" class="node">
<title>Node2</title>
<g id="a_Node000002"><a xlink:href="interface_data_1_1_hash_function_1_1_f_n_v_1_1_i_f_n_v_config.html#a5c715622ce0bddd9a85f8ceaabdd7d61" target="_top" xlink:title="Makes a deep clone of current instance.">
<polygon fill="white" stroke="#666666" points="368.75,-107 187.75,-107 187.75,-75 368.75,-75 368.75,-107"/>
<text text-anchor="start" x="195.75" y="-93.5" font-family="Helvetica,sans-Serif" font-size="10.00">Data.HashFunction.FNV.IFNVConfig.</text>
<text text-anchor="middle" x="278.25" y="-81.5" font-family="Helvetica,sans-Serif" font-size="10.00">Clone</text>
</a>
</g>
</g>
<!-- Node1&#45;&gt;Node2 -->
<g id="edge1_Node000001_Node000002" class="edge">
<title>Node1&#45;&gt;Node2</title>
<g id="a_edge1_Node000001_Node000002"><a xlink:title=" ">
<path fill="none" stroke="#63b8ff" d="M152.06,-75.38C159.91,-76.36 167.98,-77.37 176.05,-78.37"/>
<polygon fill="#63b8ff" stroke="#63b8ff" points="175.6,-81.84 185.95,-79.61 176.46,-74.9 175.6,-81.84"/>
</a>
</g>
</g>
<!-- Node3 -->
<g id="Node000003" class="node">
<title>Node3</title>
<g id="a_Node000003"><a xlink:href="class_data_1_1_hash_function_1_1_f_n_v_1_1_utilities_1_1_f_n_v_prime_offset.html#a45a37013e88a9fe781b6b78594e8be0c" target="_top" xlink:title=" ">
<polygon fill="white" stroke="#666666" points="359.38,-57 197.12,-57 197.12,-25 359.38,-25 359.38,-57"/>
<text text-anchor="start" x="205.12" y="-43.5" font-family="Helvetica,sans-Serif" font-size="10.00">Data.HashFunction.FNV.Utilities.</text>
<text text-anchor="middle" x="278.25" y="-31.5" font-family="Helvetica,sans-Serif" font-size="10.00">FNVPrimeOffset.Create</text>
</a>
</g>
</g>
<!-- Node1&#45;&gt;Node3 -->
<g id="edge2_Node000001_Node000003" class="edge">
<title>Node1&#45;&gt;Node3</title>
<g id="a_edge2_Node000001_Node000003"><a xlink:title=" ">
<path fill="none" stroke="#63b8ff" d="M152.06,-56.62C163.05,-55.25 174.47,-53.82 185.75,-52.42"/>
<polygon fill="#63b8ff" stroke="#63b8ff" points="185.96,-55.92 195.45,-51.21 185.1,-48.97 185.96,-55.92"/>
</a>
</g>
</g>
<!-- Node4 -->
<g id="Node000004" class="node">
<title>Node4</title>
<g id="a_Node000004"><a xlink:href="class_data_1_1_hash_function_1_1_f_n_v_1_1_utilities_1_1_f_n_v_prime_offset.html#ae79d293c9cf432832cced78c00985329" target="_top" xlink:title=" ">
<polygon fill="white" stroke="#666666" points="567.75,-82 404.75,-82 404.75,-50 567.75,-50 567.75,-82"/>
<text text-anchor="start" x="412.75" y="-68.5" font-family="Helvetica,sans-Serif" font-size="10.00">Data.HashFunction.FNV.Utilities.</text>
<text text-anchor="middle" x="486.25" y="-56.5" font-family="Helvetica,sans-Serif" font-size="10.00">FNVPrimeOffset.FNVPrimeOffset</text>
</a>
</g>
</g>
<!-- Node3&#45;&gt;Node4 -->
<g id="edge3_Node000003_Node000004" class="edge">
<title>Node3&#45;&gt;Node4</title>
<g id="a_edge3_Node000003_Node000004"><a xlink:title=" ">
<path fill="none" stroke="#63b8ff" d="M359.78,-50.77C370.78,-52.11 382.14,-53.49 393.33,-54.84"/>
<polygon fill="#63b8ff" stroke="#63b8ff" points="392.59,-58.28 402.93,-56.01 393.43,-51.33 392.59,-58.28"/>
</a>
</g>
</g>
<!-- Node5 -->
<g id="Node000005" class="node">
<title>Node5</title>
<g id="a_Node000005"><a xlink:href="class_data_1_1_hash_function_1_1_f_n_v_1_1_utilities_1_1_f_n_v_prime_offset.html#af4415eb73b94a036f076a9091c126b3e" target="_top" xlink:title=" ">
<polygon fill="white" stroke="#666666" points="567.38,-32 405.12,-32 405.12,0 567.38,0 567.38,-32"/>
<text text-anchor="start" x="413.12" y="-18.5" font-family="Helvetica,sans-Serif" font-size="10.00">Data.HashFunction.FNV.Utilities.</text>
<text text-anchor="middle" x="486.25" y="-6.5" font-family="Helvetica,sans-Serif" font-size="10.00">FNVPrimeOffset.ToUInt32Array</text>
</a>
</g>
</g>
<!-- Node3&#45;&gt;Node5 -->
<g id="edge4_Node000003_Node000005" class="edge">
<title>Node3&#45;&gt;Node5</title>
<g id="a_edge4_Node000003_Node000005"><a xlink:title=" ">
<path fill="none" stroke="#63b8ff" d="M359.78,-31.23C370.87,-29.88 382.32,-28.49 393.59,-27.12"/>
<polygon fill="#63b8ff" stroke="#63b8ff" points="393.77,-30.63 403.27,-25.95 392.92,-23.68 393.77,-30.63"/>
</a>
</g>
</g>
</g>
</svg>
