<?xml version="1.0" encoding="UTF-8" standalone="no"?>
<!DOCTYPE svg PUBLIC "-//W3C//DTD SVG 1.1//EN"
 "http://www.w3.org/Graphics/SVG/1.1/DTD/svg11.dtd">
<!-- Generated by graphviz version 12.2.0 (20241103.1931)
 -->
<!-- Title: Data.HashFunction.FarmHash.FarmHashFingerprint64_Implementation.ComputeHash65Plus Pages: 1 -->
<!--zoomable 264 -->

<svg id="main" version="1.1" xmlns="http://www.w3.org/2000/svg" xmlns:xlink="http://www.w3.org/1999/xlink" xml:space="preserve" onload="init(evt)">

<style type="text/css"><![CDATA[
.node, .edge {opacity: 0.7;}
.node.selected, .edge.selected {opacity: 1;}
.edge:hover path { stroke: red; }
.edge:hover polygon { stroke: red; fill: red; }
]]></style>

<defs>
  <circle id="rim" cx="0" cy="0" r="7"/>
  <circle id="rim2" cx="0" cy="0" r="3.5"/>
  <g id="zoomPlus">
    <use xlink:href="#rim" fill="#404040"><set attributeName="fill" to="#808080" begin="zoomplus.mouseover" end="zoomplus.mouseout"/></use>
    <path d="M-4,0h8M0,-4v8" fill="none" stroke="white" stroke-width="1.5" pointer-events="none"/>
  </g>
  <g id="zoomMin">
    <use xlink:href="#rim" fill="#404040"><set attributeName="fill" to="#808080" begin="zoomminus.mouseover" end="zoomminus.mouseout"/></use>
    <path d="M-4,0h8" fill="none" stroke="white" stroke-width="1.5" pointer-events="none"/>
  </g>
  <g id="arrowUp" transform="translate(30 24)">
    <use xlink:href="#rim"/>
    <path pointer-events="none" fill="none" stroke="white" stroke-width="1.5" d="M0,-3.0v7 M-2.5,-0.5L0,-3.0L2.5,-0.5"/>
  </g>
  <g id="arrowRight" transform="rotate(90) translate(36 -43)">
    <use xlink:href="#rim"/>
    <path pointer-events="none" fill="none" stroke="white" stroke-width="1.5" d="M0,-3.0v7 M-2.5,-0.5L0,-3.0L2.5,-0.5"/>
  </g>
  <g id="arrowDown" transform="rotate(180) translate(-30 -48)">
    <use xlink:href="#rim"/>
    <path pointer-events="none" fill="none" stroke="white" stroke-width="1.5" d="M0,-3.0v7 M-2.5,-0.5L0,-3.0L2.5,-0.5"/>
  </g>
  <g id="arrowLeft" transform="rotate(270) translate(-36 17)">
    <use xlink:href="#rim"/>
    <path pointer-events="none" fill="none" stroke="white" stroke-width="1.5" d="M0,-3.0v7 M-2.5,-0.5L0,-3.0L2.5,-0.5"/>
  </g>
  <g id="resetDef">
    <use xlink:href="#rim2" fill="#404040"><set attributeName="fill" to="#808080" begin="reset.mouseover" end="reset.mouseout"/></use>
  </g>
</defs>
<script type="application/ecmascript">
var viewWidth = 684;
var viewHeight = 264;
var sectionId = 'dynsection-9';
</script>
<script type="application/ecmascript" xlink:href="svg.min.js"/>
<svg id="graph" class="graph">
<g id="viewport">
<title>Data.HashFunction.FarmHash.FarmHashFingerprint64_Implementation.ComputeHash65Plus</title>
<!-- Node1 -->
<g id="Node000001" class="node">
<title>Node1</title>
<g id="a_Node000001"><a xlink:title=" ">
<polygon fill="#999999" stroke="#666666" points="193,-156 0,-156 0,-112 193,-112 193,-156"/>
<text text-anchor="start" x="8" y="-142.5" font-family="Helvetica,sans-Serif" font-size="10.00">Data.HashFunction.FarmHash.</text>
<text text-anchor="start" x="8" y="-130.5" font-family="Helvetica,sans-Serif" font-size="10.00">FarmHashFingerprint64_Implementation.</text>
<text text-anchor="middle" x="96.5" y="-118.5" font-family="Helvetica,sans-Serif" font-size="10.00">ComputeHash65Plus</text>
</a>
</g>
</g>
<!-- Node2 -->
<g id="Node000002" class="node">
<title>Node2</title>
<g id="a_Node000002"><a xlink:href="class_data_1_1_hash_function_1_1_farm_hash_1_1_farm_hash_fingerprint64___implementation.html#a35cf46665f8556a179e97dede39e84e6" target="_top" xlink:title=" ">
<polygon fill="white" stroke="#666666" points="434.38,-256 241.38,-256 241.38,-212 434.38,-212 434.38,-256"/>
<text text-anchor="start" x="249.38" y="-242.5" font-family="Helvetica,sans-Serif" font-size="10.00">Data.HashFunction.FarmHash.</text>
<text text-anchor="start" x="249.38" y="-230.5" font-family="Helvetica,sans-Serif" font-size="10.00">FarmHashFingerprint64_Implementation.</text>
<text text-anchor="middle" x="337.88" y="-218.5" font-family="Helvetica,sans-Serif" font-size="10.00">ComputeHash16</text>
</a>
</g>
</g>
<!-- Node1&#45;&gt;Node2 -->
<g id="edge1_Node000001_Node000002" class="edge">
<title>Node1&#45;&gt;Node2</title>
<g id="a_edge1_Node000001_Node000002"><a xlink:title=" ">
<path fill="none" stroke="#63b8ff" d="M140.09,-156.49C165.52,-169.47 198.68,-185.62 229,-198 237.25,-201.37 245.95,-204.67 254.68,-207.82"/>
<polygon fill="#63b8ff" stroke="#63b8ff" points="253.29,-211.04 263.88,-211.08 255.62,-204.44 253.29,-211.04"/>
</a>
</g>
</g>
<!-- Node3 -->
<g id="Node000003" class="node">
<title>Node3</title>
<g id="a_Node000003"><a xlink:href="class_data_1_1_hash_function_1_1_farm_hash_1_1_farm_hash_fingerprint64___implementation.html#af606f9f98b6589db379a67cc58089b4c" target="_top" xlink:title=" ">
<polygon fill="white" stroke="#666666" points="675.75,-125 482.75,-125 482.75,-81 675.75,-81 675.75,-125"/>
<text text-anchor="start" x="490.75" y="-111.5" font-family="Helvetica,sans-Serif" font-size="10.00">Data.HashFunction.FarmHash.</text>
<text text-anchor="start" x="490.75" y="-99.5" font-family="Helvetica,sans-Serif" font-size="10.00">FarmHashFingerprint64_Implementation.</text>
<text text-anchor="middle" x="579.25" y="-87.5" font-family="Helvetica,sans-Serif" font-size="10.00">RotateRight</text>
</a>
</g>
</g>
<!-- Node1&#45;&gt;Node3 -->
<g id="edge2_Node000001_Node000003" class="edge">
<title>Node1&#45;&gt;Node3</title>
<g id="a_edge2_Node000001_Node000003"><a xlink:title=" ">
<path fill="none" stroke="#63b8ff" d="M179.76,-156.47C195.96,-160.02 212.92,-163.13 229,-165 325.13,-176.18 352.31,-186.15 446.75,-165 476.6,-158.32 507.66,-144.07 532.09,-130.91"/>
<polygon fill="#63b8ff" stroke="#63b8ff" points="533.74,-134 540.81,-126.1 530.36,-127.87 533.74,-134"/>
</a>
</g>
</g>
<!-- Node4 -->
<g id="Node000004" class="node">
<title>Node4</title>
<g id="a_Node000004"><a xlink:href="class_data_1_1_hash_function_1_1_farm_hash_1_1_farm_hash_fingerprint64___implementation.html#abf8db1e285ec3425e5047bf89173407d" target="_top" xlink:title=" ">
<polygon fill="white" stroke="#666666" points="434.38,-156 241.38,-156 241.38,-112 434.38,-112 434.38,-156"/>
<text text-anchor="start" x="249.38" y="-142.5" font-family="Helvetica,sans-Serif" font-size="10.00">Data.HashFunction.FarmHash.</text>
<text text-anchor="start" x="249.38" y="-130.5" font-family="Helvetica,sans-Serif" font-size="10.00">FarmHashFingerprint64_Implementation.</text>
<text text-anchor="middle" x="337.88" y="-118.5" font-family="Helvetica,sans-Serif" font-size="10.00">ShiftMix</text>
</a>
</g>
</g>
<!-- Node1&#45;&gt;Node4 -->
<g id="edge3_Node000001_Node000004" class="edge">
<title>Node1&#45;&gt;Node4</title>
<g id="a_edge3_Node000001_Node000004"><a xlink:title=" ">
<path fill="none" stroke="#63b8ff" d="M193.48,-134C205.53,-134 217.92,-134 230.12,-134"/>
<polygon fill="#63b8ff" stroke="#63b8ff" points="229.75,-137.5 239.75,-134 229.75,-130.5 229.75,-137.5"/>
</a>
</g>
</g>
<!-- Node5 -->
<g id="Node000005" class="node">
<title>Node5</title>
<g id="a_Node000005"><a xlink:href="class_data_1_1_hash_function_1_1_farm_hash_1_1_farm_hash_fingerprint64___implementation.html#aa648b19b6f141be882067f7d275b645f" target="_top" xlink:title=" ">
<polygon fill="white" stroke="#666666" points="446.75,-94 229,-94 229,-62 446.75,-62 446.75,-94"/>
<text text-anchor="start" x="237" y="-80.5" font-family="Helvetica,sans-Serif" font-size="10.00">Data.HashFunction.FarmHash.</text>
<text text-anchor="middle" x="337.88" y="-68.5" font-family="Helvetica,sans-Serif" font-size="10.00">FarmHashFingerprint64_Implementation.Swap</text>
</a>
</g>
</g>
<!-- Node1&#45;&gt;Node5 -->
<g id="edge4_Node000001_Node000005" class="edge">
<title>Node1&#45;&gt;Node5</title>
<g id="a_edge4_Node000001_Node000005"><a xlink:title=" ">
<path fill="none" stroke="#63b8ff" d="M192.66,-111.52C204.89,-108.65 217.24,-105.75 229,-103 237.36,-101.05 246.08,-99.01 254.79,-96.99"/>
<polygon fill="#63b8ff" stroke="#63b8ff" points="255.36,-100.45 264.31,-94.78 253.78,-93.63 255.36,-100.45"/>
</a>
</g>
</g>
<!-- Node6 -->
<g id="Node000006" class="node">
<title>Node6</title>
<g id="a_Node000006"><a xlink:href="class_data_1_1_hash_function_1_1_farm_hash_1_1_farm_hash_fingerprint64___implementation.html#a8e4491cc5ce3075985c959537a3cbd04" target="_top" xlink:title=" ">
<polygon fill="white" stroke="#666666" points="434.38,-44 241.38,-44 241.38,0 434.38,0 434.38,-44"/>
<text text-anchor="start" x="249.38" y="-30.5" font-family="Helvetica,sans-Serif" font-size="10.00">Data.HashFunction.FarmHash.</text>
<text text-anchor="start" x="249.38" y="-18.5" font-family="Helvetica,sans-Serif" font-size="10.00">FarmHashFingerprint64_Implementation.</text>
<text text-anchor="middle" x="337.88" y="-6.5" font-family="Helvetica,sans-Serif" font-size="10.00">WeakHashLen32WithSeeds</text>
</a>
</g>
</g>
<!-- Node1&#45;&gt;Node6 -->
<g id="edge5_Node000001_Node000006" class="edge">
<title>Node1&#45;&gt;Node6</title>
<g id="a_edge5_Node000001_Node000006"><a xlink:title=" ">
<path fill="none" stroke="#63b8ff" d="M128.32,-111.66C154.16,-93.77 192.58,-69.09 229,-53 232.58,-51.42 236.27,-49.89 240.02,-48.42"/>
<polygon fill="#63b8ff" stroke="#63b8ff" points="241.16,-51.73 249.31,-44.97 238.72,-45.17 241.16,-51.73"/>
</a>
</g>
</g>
<!-- Node6&#45;&gt;Node3 -->
<g id="edge6_Node000006_Node000003" class="edge">
<title>Node6&#45;&gt;Node3</title>
<g id="a_edge6_Node000006_Node000003"><a xlink:title=" ">
<path fill="none" stroke="#63b8ff" d="M419.8,-44.46C428.93,-47.23 438.06,-50.11 446.75,-53 468.06,-60.1 491.03,-68.55 511.72,-76.47"/>
<polygon fill="#63b8ff" stroke="#63b8ff" points="510.31,-79.67 520.9,-80 512.82,-73.14 510.31,-79.67"/>
</a>
</g>
</g>
</g>
</svg>

<g id="navigator" transform="translate(0 0)" fill="#404254">
  <rect fill="#f2f5e9" fill-opacity="0.5" stroke="#606060" stroke-width=".5" x="0" y="0" width="60" height="60"/>
  <use id="zoomplus" xlink:href="#zoomPlus" x="17" y="9" onmousedown="handleZoom(evt,'in')"/>
  <use id="zoomminus" xlink:href="#zoomMin" x="42" y="9" onmousedown="handleZoom(evt,'out')"/>
  <use id="reset" xlink:href="#resetDef" x="30" y="36" onmousedown="handleReset()"/>
   <use id="arrowup" xlink:href="#arrowUp" x="0" y="0" onmousedown="handlePan(0,-1)"/>
  <use id="arrowright" xlink:href="#arrowRight" x="0" y="0" onmousedown="handlePan(1,0)"/>
  <use id="arrowdown" xlink:href="#arrowDown" x="0" y="0" onmousedown="handlePan(0,1)"/>
  <use id="arrowleft" xlink:href="#arrowLeft" x="0" y="0" onmousedown="handlePan(-1,0)"/>
</g>
<svg viewBox="0 0 15 15" width="100%" height="30px" preserveAspectRatio="xMaxYMin meet">
 <g id="arrow_out" transform="scale(0.3 0.3)">
  <a xlink:href="class_data_1_1_hash_function_1_1_farm_hash_1_1_farm_hash_fingerprint64___implementation_a64fde0d2f959c75d45d5a42065b1a5e0_cgraph_org.svg" target="_base">
   <rect id="button" ry="5" rx="5" y="6" x="6" height="38" width="38"
        fill="#f2f5e9" fill-opacity="0.5" stroke="#606060" stroke-width="1.0"/>
   <path id="arrow"
     d="M 11.500037,31.436501 C 11.940474,20.09759 22.043105,11.32322 32.158766,21.979434 L 37.068811,17.246167 C 37.068811,17.246167 37.088388,32 37.088388,32 L 22.160133,31.978069 C 22.160133,31.978069 26.997745,27.140456 26.997745,27.140456 C 18.528582,18.264221 13.291696,25.230495 11.500037,31.436501 z"
     style="fill:#404040;"/>
  </a>
 </g>
</svg>

<style type='text/css'>
<![CDATA[
[data-mouse-over-selected='false'] { opacity: 0.7; }
[data-mouse-over-selected='true']  { opacity: 1.0; }
]]>
</style>
<script type="application/ecmascript"><![CDATA[
document.addEventListener('DOMContentLoaded', (event) => {
  highlightEdges();
  highlightAdjacentNodes();
});
]]></script>
</svg>
