<?xml version="1.0" encoding="UTF-8" standalone="no"?>
<!DOCTYPE svg PUBLIC "-//W3C//DTD SVG 1.1//EN"
 "http://www.w3.org/Graphics/SVG/1.1/DTD/svg11.dtd">
<!-- Generated by graphviz version 12.2.0 (20241103.1931)
 -->
<!-- Title: Data.HashFunction.FarmHash.FarmHashFingerprint128_Implementation.CityHash128WithSeed Pages: 1 -->
<!--zoomable 240 -->

<svg id="main" version="1.1" xmlns="http://www.w3.org/2000/svg" xmlns:xlink="http://www.w3.org/1999/xlink" xml:space="preserve" onload="init(evt)">

<style type="text/css"><![CDATA[
.node, .edge {opacity: 0.7;}
.node.selected, .edge.selected {opacity: 1;}
.edge:hover path { stroke: red; }
.edge:hover polygon { stroke: red; fill: red; }
]]></style>

<defs>
  <circle id="rim" cx="0" cy="0" r="7"/>
  <circle id="rim2" cx="0" cy="0" r="3.5"/>
  <g id="zoomPlus">
    <use xlink:href="#rim" fill="#404040"><set attributeName="fill" to="#808080" begin="zoomplus.mouseover" end="zoomplus.mouseout"/></use>
    <path d="M-4,0h8M0,-4v8" fill="none" stroke="white" stroke-width="1.5" pointer-events="none"/>
  </g>
  <g id="zoomMin">
    <use xlink:href="#rim" fill="#404040"><set attributeName="fill" to="#808080" begin="zoomminus.mouseover" end="zoomminus.mouseout"/></use>
    <path d="M-4,0h8" fill="none" stroke="white" stroke-width="1.5" pointer-events="none"/>
  </g>
  <g id="arrowUp" transform="translate(30 24)">
    <use xlink:href="#rim"/>
    <path pointer-events="none" fill="none" stroke="white" stroke-width="1.5" d="M0,-3.0v7 M-2.5,-0.5L0,-3.0L2.5,-0.5"/>
  </g>
  <g id="arrowRight" transform="rotate(90) translate(36 -43)">
    <use xlink:href="#rim"/>
    <path pointer-events="none" fill="none" stroke="white" stroke-width="1.5" d="M0,-3.0v7 M-2.5,-0.5L0,-3.0L2.5,-0.5"/>
  </g>
  <g id="arrowDown" transform="rotate(180) translate(-30 -48)">
    <use xlink:href="#rim"/>
    <path pointer-events="none" fill="none" stroke="white" stroke-width="1.5" d="M0,-3.0v7 M-2.5,-0.5L0,-3.0L2.5,-0.5"/>
  </g>
  <g id="arrowLeft" transform="rotate(270) translate(-36 17)">
    <use xlink:href="#rim"/>
    <path pointer-events="none" fill="none" stroke="white" stroke-width="1.5" d="M0,-3.0v7 M-2.5,-0.5L0,-3.0L2.5,-0.5"/>
  </g>
  <g id="resetDef">
    <use xlink:href="#rim2" fill="#404040"><set attributeName="fill" to="#808080" begin="reset.mouseover" end="reset.mouseout"/></use>
  </g>
</defs>
<script type="application/ecmascript">
var viewWidth = 1159;
var viewHeight = 240;
var sectionId = 'dynsection-2';
</script>
<script type="application/ecmascript" xlink:href="svg.min.js"/>
<svg id="graph" class="graph">
<g id="viewport">
<title>Data.HashFunction.FarmHash.FarmHashFingerprint128_Implementation.CityHash128WithSeed</title>
<!-- Node1 -->
<g id="Node000001" class="node">
<title>Node1</title>
<g id="a_Node000001"><a xlink:title=" ">
<polygon fill="#999999" stroke="#666666" points="198.25,-138 0,-138 0,-94 198.25,-94 198.25,-138"/>
<text text-anchor="start" x="8" y="-124.5" font-family="Helvetica,sans-Serif" font-size="10.00">Data.HashFunction.FarmHash.</text>
<text text-anchor="start" x="8" y="-112.5" font-family="Helvetica,sans-Serif" font-size="10.00">FarmHashFingerprint128_Implementation.</text>
<text text-anchor="middle" x="99.12" y="-100.5" font-family="Helvetica,sans-Serif" font-size="10.00">CityHash128WithSeed</text>
</a>
</g>
</g>
<!-- Node2 -->
<g id="Node000002" class="node">
<title>Node2</title>
<g id="a_Node000002"><a xlink:href="class_data_1_1_hash_function_1_1_farm_hash_1_1_farm_hash_fingerprint128___implementation.html#a3b5e9226f7941b5e2555b9fb6813f91e" target="_top" xlink:title=" ">
<polygon fill="white" stroke="#666666" points="432.5,-163 234.25,-163 234.25,-119 432.5,-119 432.5,-163"/>
<text text-anchor="start" x="242.25" y="-149.5" font-family="Helvetica,sans-Serif" font-size="10.00">Data.HashFunction.FarmHash.</text>
<text text-anchor="start" x="242.25" y="-137.5" font-family="Helvetica,sans-Serif" font-size="10.00">FarmHashFingerprint128_Implementation.</text>
<text text-anchor="middle" x="333.38" y="-125.5" font-family="Helvetica,sans-Serif" font-size="10.00">CityMurmur</text>
</a>
</g>
</g>
<!-- Node1&#45;&gt;Node2 -->
<g id="edge1_Node000001_Node000002" class="edge">
<title>Node1&#45;&gt;Node2</title>
<g id="a_edge1_Node000001_Node000002"><a xlink:title=" ">
<path fill="none" stroke="#63b8ff" d="M198.62,-126.6C206.6,-127.46 214.7,-128.33 222.75,-129.2"/>
<polygon fill="#63b8ff" stroke="#63b8ff" points="222.28,-132.67 232.59,-130.26 223.03,-125.71 222.28,-132.67"/>
</a>
</g>
</g>
<!-- Node4 -->
<g id="Node000004" class="node">
<title>Node4</title>
<g id="a_Node000004"><a xlink:href="class_data_1_1_hash_function_1_1_farm_hash_1_1_farm_hash_fingerprint128___implementation.html#ad132c965537a4a280648e5b9067445c0" target="_top" xlink:title=" ">
<polygon fill="white" stroke="#666666" points="908.88,-232 710.62,-232 710.62,-188 908.88,-188 908.88,-232"/>
<text text-anchor="start" x="718.62" y="-218.5" font-family="Helvetica,sans-Serif" font-size="10.00">Data.HashFunction.FarmHash.</text>
<text text-anchor="start" x="718.62" y="-206.5" font-family="Helvetica,sans-Serif" font-size="10.00">FarmHashFingerprint128_Implementation.</text>
<text text-anchor="middle" x="809.75" y="-194.5" font-family="Helvetica,sans-Serif" font-size="10.00">HashLen16</text>
</a>
</g>
</g>
<!-- Node1&#45;&gt;Node4 -->
<g id="edge9_Node000001_Node000004" class="edge">
<title>Node1&#45;&gt;Node4</title>
<g id="a_edge9_Node000001_Node000004"><a xlink:title=" ">
<path fill="none" stroke="#63b8ff" d="M147.02,-138.49C172.37,-149.9 204.5,-163.17 234.25,-172 419.43,-226.97 473.61,-218.4 666.75,-215 677.18,-214.82 688.05,-214.56 698.91,-214.25"/>
<polygon fill="#63b8ff" stroke="#63b8ff" points="698.81,-217.76 708.71,-213.96 698.61,-210.76 698.81,-217.76"/>
</a>
</g>
</g>
<!-- Node7 -->
<g id="Node000007" class="node">
<title>Node7</title>
<g id="a_Node000007"><a xlink:href="class_data_1_1_hash_function_1_1_farm_hash_1_1_farm_hash_fingerprint128___implementation.html#a4aae47bb155fd682694f3890b0b45471" target="_top" xlink:title=" ">
<polygon fill="white" stroke="#666666" points="908.88,-94 710.62,-94 710.62,-50 908.88,-50 908.88,-94"/>
<text text-anchor="start" x="718.62" y="-80.5" font-family="Helvetica,sans-Serif" font-size="10.00">Data.HashFunction.FarmHash.</text>
<text text-anchor="start" x="718.62" y="-68.5" font-family="Helvetica,sans-Serif" font-size="10.00">FarmHashFingerprint128_Implementation.</text>
<text text-anchor="middle" x="809.75" y="-56.5" font-family="Helvetica,sans-Serif" font-size="10.00">RotateRight</text>
</a>
</g>
</g>
<!-- Node1&#45;&gt;Node7 -->
<g id="edge10_Node000001_Node000007" class="edge">
<title>Node1&#45;&gt;Node7</title>
<g id="a_edge10_Node000001_Node000007"><a xlink:title=" ">
<path fill="none" stroke="#63b8ff" d="M198.66,-109.88C330.06,-101.72 561.97,-87.32 698.88,-78.82"/>
<polygon fill="#63b8ff" stroke="#63b8ff" points="698.93,-82.33 708.69,-78.21 698.49,-75.34 698.93,-82.33"/>
</a>
</g>
</g>
<!-- Node8 -->
<g id="Node000008" class="node">
<title>Node8</title>
<g id="a_Node000008"><a xlink:href="class_data_1_1_hash_function_1_1_farm_hash_1_1_farm_hash_fingerprint128___implementation.html#abccdf48fc1c3705a21db0dd386e1286a" target="_top" xlink:title=" ">
<polygon fill="white" stroke="#666666" points="666.75,-44 468.5,-44 468.5,0 666.75,0 666.75,-44"/>
<text text-anchor="start" x="476.5" y="-30.5" font-family="Helvetica,sans-Serif" font-size="10.00">Data.HashFunction.FarmHash.</text>
<text text-anchor="start" x="476.5" y="-18.5" font-family="Helvetica,sans-Serif" font-size="10.00">FarmHashFingerprint128_Implementation.</text>
<text text-anchor="middle" x="567.62" y="-6.5" font-family="Helvetica,sans-Serif" font-size="10.00">WeakHashLen32WithSeeds</text>
</a>
</g>
</g>
<!-- Node1&#45;&gt;Node8 -->
<g id="edge11_Node000001_Node000008" class="edge">
<title>Node1&#45;&gt;Node8</title>
<g id="a_edge11_Node000001_Node000008"><a xlink:title=" ">
<path fill="none" stroke="#63b8ff" d="M143.04,-93.51C168.8,-81.01 202.61,-66.35 234.25,-58 307.06,-38.78 391.44,-29.8 456.97,-25.61"/>
<polygon fill="#63b8ff" stroke="#63b8ff" points="456.86,-29.12 466.63,-25.02 456.44,-22.14 456.86,-29.12"/>
</a>
</g>
</g>
<!-- Node3 -->
<g id="Node000003" class="node">
<title>Node3</title>
<g id="a_Node000003"><a xlink:href="class_data_1_1_hash_function_1_1_farm_hash_1_1_farm_hash_fingerprint128___implementation.html#a3fa52690f28233df8ae56cbab00bc542" target="_top" xlink:title=" ">
<polygon fill="white" stroke="#666666" points="666.75,-182 468.5,-182 468.5,-138 666.75,-138 666.75,-182"/>
<text text-anchor="start" x="476.5" y="-168.5" font-family="Helvetica,sans-Serif" font-size="10.00">Data.HashFunction.FarmHash.</text>
<text text-anchor="start" x="476.5" y="-156.5" font-family="Helvetica,sans-Serif" font-size="10.00">FarmHashFingerprint128_Implementation.</text>
<text text-anchor="middle" x="567.62" y="-144.5" font-family="Helvetica,sans-Serif" font-size="10.00">HashLen0to16</text>
</a>
</g>
</g>
<!-- Node2&#45;&gt;Node3 -->
<g id="edge2_Node000002_Node000003" class="edge">
<title>Node2&#45;&gt;Node3</title>
<g id="a_edge2_Node000002_Node000003"><a xlink:title=" ">
<path fill="none" stroke="#63b8ff" d="M432.87,-149.06C440.85,-149.71 448.95,-150.37 457,-151.03"/>
<polygon fill="#63b8ff" stroke="#63b8ff" points="456.59,-154.51 466.84,-151.84 457.16,-147.53 456.59,-154.51"/>
</a>
</g>
</g>
<!-- Node2&#45;&gt;Node4 -->
<g id="edge7_Node000002_Node000004" class="edge">
<title>Node2&#45;&gt;Node4</title>
<g id="a_edge7_Node000002_Node000004"><a xlink:title=" ">
<path fill="none" stroke="#63b8ff" d="M383.63,-163.43C408.54,-173.71 439.55,-184.94 468.5,-191 544.32,-206.87 631.58,-211.47 698.75,-212.19"/>
<polygon fill="#63b8ff" stroke="#63b8ff" points="698.66,-215.69 708.69,-212.26 698.71,-208.69 698.66,-215.69"/>
</a>
</g>
</g>
<!-- Node6 -->
<g id="Node000006" class="node">
<title>Node6</title>
<g id="a_Node000006"><a xlink:href="class_data_1_1_hash_function_1_1_farm_hash_1_1_farm_hash_fingerprint128___implementation.html#a2c7a6aea45808cc7f1ba453136095d02" target="_top" xlink:title=" ">
<polygon fill="white" stroke="#666666" points="916.75,-157 702.75,-157 702.75,-125 916.75,-125 916.75,-157"/>
<text text-anchor="start" x="710.75" y="-143.5" font-family="Helvetica,sans-Serif" font-size="10.00">Data.HashFunction.FarmHash.</text>
<text text-anchor="middle" x="809.75" y="-131.5" font-family="Helvetica,sans-Serif" font-size="10.00">FarmHashFingerprint128_Implementation.Mix</text>
</a>
</g>
</g>
<!-- Node2&#45;&gt;Node6 -->
<g id="edge8_Node000002_Node000006" class="edge">
<title>Node2&#45;&gt;Node6</title>
<g id="a_edge8_Node000002_Node000006"><a xlink:title=" ">
<path fill="none" stroke="#63b8ff" d="M432.83,-131.18C444.83,-130.28 456.94,-129.52 468.5,-129 556.52,-125.07 578.72,-125.29 666.75,-129 674.74,-129.34 682.97,-129.78 691.26,-130.3"/>
<polygon fill="#63b8ff" stroke="#63b8ff" points="690.86,-133.78 701.07,-130.94 691.32,-126.79 690.86,-133.78"/>
</a>
</g>
</g>
<!-- Node3&#45;&gt;Node4 -->
<g id="edge3_Node000003_Node000004" class="edge">
<title>Node3&#45;&gt;Node4</title>
<g id="a_edge3_Node000003_Node000004"><a xlink:title=" ">
<path fill="none" stroke="#63b8ff" d="M666.99,-180.48C677.56,-182.68 688.37,-184.93 699.06,-187.16"/>
<polygon fill="#63b8ff" stroke="#63b8ff" points="698.17,-190.55 708.67,-189.16 699.6,-183.7 698.17,-190.55"/>
</a>
</g>
</g>
<!-- Node3&#45;&gt;Node6 -->
<g id="edge5_Node000003_Node000006" class="edge">
<title>Node3&#45;&gt;Node6</title>
<g id="a_edge5_Node000003_Node000006"><a xlink:title=" ">
<path fill="none" stroke="#63b8ff" d="M666.99,-152.22C674.91,-151.59 682.96,-150.95 691,-150.32"/>
<polygon fill="#63b8ff" stroke="#63b8ff" points="691.14,-153.82 700.83,-149.54 690.59,-146.84 691.14,-153.82"/>
</a>
</g>
</g>
<!-- Node3&#45;&gt;Node7 -->
<g id="edge6_Node000003_Node000007" class="edge">
<title>Node3&#45;&gt;Node7</title>
<g id="a_edge6_Node000003_Node000007"><a xlink:title=" ">
<path fill="none" stroke="#63b8ff" d="M629.84,-137.57C662.58,-125.57 703.08,-110.73 737.26,-98.2"/>
<polygon fill="#63b8ff" stroke="#63b8ff" points="738.04,-101.64 746.23,-94.91 735.63,-95.07 738.04,-101.64"/>
</a>
</g>
</g>
<!-- Node5 -->
<g id="Node000005" class="node">
<title>Node5</title>
<g id="a_Node000005"><a xlink:href="class_data_1_1_hash_function_1_1_farm_hash_1_1_farm_hash_fingerprint128___implementation.html#a295eba0ca2e0d495d50ba0976cd6c1bb" target="_top" xlink:title=" ">
<polygon fill="white" stroke="#666666" points="1151,-232 952.75,-232 952.75,-188 1151,-188 1151,-232"/>
<text text-anchor="start" x="960.75" y="-218.5" font-family="Helvetica,sans-Serif" font-size="10.00">Data.HashFunction.FarmHash.</text>
<text text-anchor="start" x="960.75" y="-206.5" font-family="Helvetica,sans-Serif" font-size="10.00">FarmHashFingerprint128_Implementation.</text>
<text text-anchor="middle" x="1051.88" y="-194.5" font-family="Helvetica,sans-Serif" font-size="10.00">Hash128to64</text>
</a>
</g>
</g>
<!-- Node4&#45;&gt;Node5 -->
<g id="edge4_Node000004_Node000005" class="edge">
<title>Node4&#45;&gt;Node5</title>
<g id="a_edge4_Node000004_Node000005"><a xlink:title=" ">
<path fill="none" stroke="#63b8ff" d="M909.11,-210C919.57,-210 930.26,-210 940.85,-210"/>
<polygon fill="#63b8ff" stroke="#63b8ff" points="940.77,-213.5 950.76,-210 940.76,-206.5 940.77,-213.5"/>
</a>
</g>
</g>
<!-- Node8&#45;&gt;Node7 -->
<g id="edge12_Node000008_Node000007" class="edge">
<title>Node8&#45;&gt;Node7</title>
<g id="a_edge12_Node000008_Node000007"><a xlink:title=" ">
<path fill="none" stroke="#63b8ff" d="M666.99,-42.48C677.56,-44.68 688.37,-46.93 699.06,-49.16"/>
<polygon fill="#63b8ff" stroke="#63b8ff" points="698.17,-52.55 708.67,-51.16 699.6,-45.7 698.17,-52.55"/>
</a>
</g>
</g>
</g>
</svg>

<g id="navigator" transform="translate(0 0)" fill="#404254">
  <rect fill="#f2f5e9" fill-opacity="0.5" stroke="#606060" stroke-width=".5" x="0" y="0" width="60" height="60"/>
  <use id="zoomplus" xlink:href="#zoomPlus" x="17" y="9" onmousedown="handleZoom(evt,'in')"/>
  <use id="zoomminus" xlink:href="#zoomMin" x="42" y="9" onmousedown="handleZoom(evt,'out')"/>
  <use id="reset" xlink:href="#resetDef" x="30" y="36" onmousedown="handleReset()"/>
   <use id="arrowup" xlink:href="#arrowUp" x="0" y="0" onmousedown="handlePan(0,-1)"/>
  <use id="arrowright" xlink:href="#arrowRight" x="0" y="0" onmousedown="handlePan(1,0)"/>
  <use id="arrowdown" xlink:href="#arrowDown" x="0" y="0" onmousedown="handlePan(0,1)"/>
  <use id="arrowleft" xlink:href="#arrowLeft" x="0" y="0" onmousedown="handlePan(-1,0)"/>
</g>
<svg viewBox="0 0 15 15" width="100%" height="30px" preserveAspectRatio="xMaxYMin meet">
 <g id="arrow_out" transform="scale(0.3 0.3)">
  <a xlink:href="class_data_1_1_hash_function_1_1_farm_hash_1_1_farm_hash_fingerprint128___implementation_a997239d6ef79f1af91114c8439ab9e33_cgraph_org.svg" target="_base">
   <rect id="button" ry="5" rx="5" y="6" x="6" height="38" width="38"
        fill="#f2f5e9" fill-opacity="0.5" stroke="#606060" stroke-width="1.0"/>
   <path id="arrow"
     d="M 11.500037,31.436501 C 11.940474,20.09759 22.043105,11.32322 32.158766,21.979434 L 37.068811,17.246167 C 37.068811,17.246167 37.088388,32 37.088388,32 L 22.160133,31.978069 C 22.160133,31.978069 26.997745,27.140456 26.997745,27.140456 C 18.528582,18.264221 13.291696,25.230495 11.500037,31.436501 z"
     style="fill:#404040;"/>
  </a>
 </g>
</svg>

<style type='text/css'>
<![CDATA[
[data-mouse-over-selected='false'] { opacity: 0.7; }
[data-mouse-over-selected='true']  { opacity: 1.0; }
]]>
</style>
<script type="application/ecmascript"><![CDATA[
document.addEventListener('DOMContentLoaded', (event) => {
  highlightEdges();
  highlightAdjacentNodes();
});
]]></script>
</svg>
