<?xml version="1.0" encoding="UTF-8" standalone="no"?>
<!DOCTYPE svg PUBLIC "-//W3C//DTD SVG 1.1//EN"
 "http://www.w3.org/Graphics/SVG/1.1/DTD/svg11.dtd">
<!-- Generated by graphviz version 12.2.0 (20241103.1931)
 -->
<!-- Title: Data.HashFunction.FarmHash.FarmHashFingerprint128_Implementation.HashLen16 Pages: 1 -->
<!--zoomable 115 -->

<svg id="main" version="1.1" xmlns="http://www.w3.org/2000/svg" xmlns:xlink="http://www.w3.org/1999/xlink" xml:space="preserve" onload="init(evt)">

<style type="text/css"><![CDATA[
.node, .edge {opacity: 0.7;}
.node.selected, .edge.selected {opacity: 1;}
.edge:hover path { stroke: red; }
.edge:hover polygon { stroke: red; fill: red; }
]]></style>

<defs>
  <circle id="rim" cx="0" cy="0" r="7"/>
  <circle id="rim2" cx="0" cy="0" r="3.5"/>
  <g id="zoomPlus">
    <use xlink:href="#rim" fill="#404040"><set attributeName="fill" to="#808080" begin="zoomplus.mouseover" end="zoomplus.mouseout"/></use>
    <path d="M-4,0h8M0,-4v8" fill="none" stroke="white" stroke-width="1.5" pointer-events="none"/>
  </g>
  <g id="zoomMin">
    <use xlink:href="#rim" fill="#404040"><set attributeName="fill" to="#808080" begin="zoomminus.mouseover" end="zoomminus.mouseout"/></use>
    <path d="M-4,0h8" fill="none" stroke="white" stroke-width="1.5" pointer-events="none"/>
  </g>
  <g id="arrowUp" transform="translate(30 24)">
    <use xlink:href="#rim"/>
    <path pointer-events="none" fill="none" stroke="white" stroke-width="1.5" d="M0,-3.0v7 M-2.5,-0.5L0,-3.0L2.5,-0.5"/>
  </g>
  <g id="arrowRight" transform="rotate(90) translate(36 -43)">
    <use xlink:href="#rim"/>
    <path pointer-events="none" fill="none" stroke="white" stroke-width="1.5" d="M0,-3.0v7 M-2.5,-0.5L0,-3.0L2.5,-0.5"/>
  </g>
  <g id="arrowDown" transform="rotate(180) translate(-30 -48)">
    <use xlink:href="#rim"/>
    <path pointer-events="none" fill="none" stroke="white" stroke-width="1.5" d="M0,-3.0v7 M-2.5,-0.5L0,-3.0L2.5,-0.5"/>
  </g>
  <g id="arrowLeft" transform="rotate(270) translate(-36 17)">
    <use xlink:href="#rim"/>
    <path pointer-events="none" fill="none" stroke="white" stroke-width="1.5" d="M0,-3.0v7 M-2.5,-0.5L0,-3.0L2.5,-0.5"/>
  </g>
  <g id="resetDef">
    <use xlink:href="#rim2" fill="#404040"><set attributeName="fill" to="#808080" begin="reset.mouseover" end="reset.mouseout"/></use>
  </g>
</defs>
<script type="application/ecmascript">
var viewWidth = 1143;
var viewHeight = 115;
var sectionId = 'dynsection-11';
</script>
<script type="application/ecmascript" xlink:href="svg.min.js"/>
<svg id="graph" class="graph">
<g id="viewport">
<title>Data.HashFunction.FarmHash.FarmHashFingerprint128_Implementation.HashLen16</title>
<!-- Node1 -->
<g id="Node000001" class="node">
<title>Node1</title>
<g id="a_Node000001"><a xlink:title=" ">
<polygon fill="#999999" stroke="#666666" points="1135.25,-94 937,-94 937,-50 1135.25,-50 1135.25,-94"/>
<text text-anchor="start" x="945" y="-80.5" font-family="Helvetica,sans-Serif" font-size="10.00">Data.HashFunction.FarmHash.</text>
<text text-anchor="start" x="945" y="-68.5" font-family="Helvetica,sans-Serif" font-size="10.00">FarmHashFingerprint128_Implementation.</text>
<text text-anchor="middle" x="1036.12" y="-56.5" font-family="Helvetica,sans-Serif" font-size="10.00">HashLen16</text>
</a>
</g>
</g>
<!-- Node2 -->
<g id="Node000002" class="node">
<title>Node2</title>
<g id="a_Node000002"><a xlink:href="class_data_1_1_hash_function_1_1_farm_hash_1_1_farm_hash_fingerprint128___implementation.html#a997239d6ef79f1af91114c8439ab9e33" target="_top" xlink:title=" ">
<polygon fill="white" stroke="#666666" points="432.5,-107 234.25,-107 234.25,-63 432.5,-63 432.5,-107"/>
<text text-anchor="start" x="242.25" y="-93.5" font-family="Helvetica,sans-Serif" font-size="10.00">Data.HashFunction.FarmHash.</text>
<text text-anchor="start" x="242.25" y="-81.5" font-family="Helvetica,sans-Serif" font-size="10.00">FarmHashFingerprint128_Implementation.</text>
<text text-anchor="middle" x="333.38" y="-69.5" font-family="Helvetica,sans-Serif" font-size="10.00">CityHash128WithSeed</text>
</a>
</g>
</g>
<!-- Node1&#45;&gt;Node2 -->
<g id="edge1_Node000001_Node000002" class="edge">
<title>Node1&#45;&gt;Node2</title>
<g id="a_edge1_Node000001_Node000002"><a xlink:title=" ">
<path fill="none" stroke="#63b8ff" d="M925.36,-78.66C917.12,-79.13 908.93,-79.58 901,-80 708.99,-90.23 660.74,-95.3 468.5,-91 456.96,-90.74 444.88,-90.36 432.88,-89.91"/>
<polygon fill="#63b8ff" stroke="#63b8ff" points="925.32,-82.17 935.1,-78.1 924.92,-75.18 925.32,-82.17"/>
</a>
</g>
</g>
<!-- Node4 -->
<g id="Node000004" class="node">
<title>Node4</title>
<g id="a_Node000004"><a xlink:href="class_data_1_1_hash_function_1_1_farm_hash_1_1_farm_hash_fingerprint128___implementation.html#a3b5e9226f7941b5e2555b9fb6813f91e" target="_top" xlink:title=" ">
<polygon fill="white" stroke="#666666" points="666.75,-82 468.5,-82 468.5,-38 666.75,-38 666.75,-82"/>
<text text-anchor="start" x="476.5" y="-68.5" font-family="Helvetica,sans-Serif" font-size="10.00">Data.HashFunction.FarmHash.</text>
<text text-anchor="start" x="476.5" y="-56.5" font-family="Helvetica,sans-Serif" font-size="10.00">FarmHashFingerprint128_Implementation.</text>
<text text-anchor="middle" x="567.62" y="-44.5" font-family="Helvetica,sans-Serif" font-size="10.00">CityMurmur</text>
</a>
</g>
</g>
<!-- Node1&#45;&gt;Node4 -->
<g id="edge3_Node000001_Node000004" class="edge">
<title>Node1&#45;&gt;Node4</title>
<g id="a_edge3_Node000001_Node000004"><a xlink:title=" ">
<path fill="none" stroke="#63b8ff" d="M925.39,-69.18C847.02,-67.16 742.49,-64.47 666.85,-62.53"/>
<polygon fill="#63b8ff" stroke="#63b8ff" points="925.16,-72.67 935.25,-69.43 925.34,-65.67 925.16,-72.67"/>
</a>
</g>
</g>
<!-- Node5 -->
<g id="Node000005" class="node">
<title>Node5</title>
<g id="a_Node000005"><a xlink:href="class_data_1_1_hash_function_1_1_farm_hash_1_1_farm_hash_fingerprint128___implementation.html#a3fa52690f28233df8ae56cbab00bc542" target="_top" xlink:title=" ">
<polygon fill="white" stroke="#666666" points="901,-44 702.75,-44 702.75,0 901,0 901,-44"/>
<text text-anchor="start" x="710.75" y="-30.5" font-family="Helvetica,sans-Serif" font-size="10.00">Data.HashFunction.FarmHash.</text>
<text text-anchor="start" x="710.75" y="-18.5" font-family="Helvetica,sans-Serif" font-size="10.00">FarmHashFingerprint128_Implementation.</text>
<text text-anchor="middle" x="801.88" y="-6.5" font-family="Helvetica,sans-Serif" font-size="10.00">HashLen0to16</text>
</a>
</g>
</g>
<!-- Node1&#45;&gt;Node5 -->
<g id="edge5_Node000001_Node000005" class="edge">
<title>Node1&#45;&gt;Node5</title>
<g id="a_edge5_Node000001_Node000005"><a xlink:title=" ">
<path fill="none" stroke="#63b8ff" d="M925.56,-48.41C917.41,-46.66 909.22,-44.9 901.15,-43.16"/>
<polygon fill="#63b8ff" stroke="#63b8ff" points="924.64,-51.79 935.15,-50.48 926.11,-44.95 924.64,-51.79"/>
</a>
</g>
</g>
<!-- Node3 -->
<g id="Node000003" class="node">
<title>Node3</title>
<g id="a_Node000003"><a xlink:href="class_data_1_1_hash_function_1_1_farm_hash_1_1_farm_hash_fingerprint128___implementation.html#aded0f2edc326e8372bfed7dd690b44ad" target="_top" xlink:title=" ">
<polygon fill="white" stroke="#666666" points="198.25,-107 0,-107 0,-63 198.25,-63 198.25,-107"/>
<text text-anchor="start" x="8" y="-93.5" font-family="Helvetica,sans-Serif" font-size="10.00">Data.HashFunction.FarmHash.</text>
<text text-anchor="start" x="8" y="-81.5" font-family="Helvetica,sans-Serif" font-size="10.00">FarmHashFingerprint128_Implementation.</text>
<text text-anchor="middle" x="99.12" y="-69.5" font-family="Helvetica,sans-Serif" font-size="10.00">ComputeHashInternal</text>
</a>
</g>
</g>
<!-- Node2&#45;&gt;Node3 -->
<g id="edge2_Node000002_Node000003" class="edge">
<title>Node2&#45;&gt;Node3</title>
<g id="a_edge2_Node000002_Node000003"><a xlink:title=" ">
<path fill="none" stroke="#63b8ff" d="M222.53,-85C214.48,-85 206.38,-85 198.4,-85"/>
<polygon fill="#63b8ff" stroke="#63b8ff" points="222.37,-88.5 232.37,-85 222.37,-81.5 222.37,-88.5"/>
</a>
</g>
</g>
<!-- Node4&#45;&gt;Node2 -->
<g id="edge4_Node000004_Node000002" class="edge">
<title>Node4&#45;&gt;Node2</title>
<g id="a_edge4_Node000004_Node000002"><a xlink:title=" ">
<path fill="none" stroke="#63b8ff" d="M456.78,-71.82C448.73,-72.69 440.63,-73.56 432.65,-74.42"/>
<polygon fill="#63b8ff" stroke="#63b8ff" points="457.06,-75.31 466.63,-70.76 456.31,-68.35 457.06,-75.31"/>
</a>
</g>
</g>
<!-- Node5&#45;&gt;Node4 -->
<g id="edge6_Node000005_Node000004" class="edge">
<title>Node5&#45;&gt;Node4</title>
<g id="a_edge6_Node000005_Node000004"><a xlink:title=" ">
<path fill="none" stroke="#63b8ff" d="M691.03,-39.97C682.98,-41.29 674.88,-42.61 666.9,-43.92"/>
<polygon fill="#63b8ff" stroke="#63b8ff" points="691.58,-43.43 700.89,-38.36 690.45,-36.52 691.58,-43.43"/>
</a>
</g>
</g>
</g>
</svg>

<g id="navigator" transform="translate(0 0)" fill="#404254">
  <rect fill="#f2f5e9" fill-opacity="0.5" stroke="#606060" stroke-width=".5" x="0" y="0" width="60" height="60"/>
  <use id="zoomplus" xlink:href="#zoomPlus" x="17" y="9" onmousedown="handleZoom(evt,'in')"/>
  <use id="zoomminus" xlink:href="#zoomMin" x="42" y="9" onmousedown="handleZoom(evt,'out')"/>
  <use id="reset" xlink:href="#resetDef" x="30" y="36" onmousedown="handleReset()"/>
   <use id="arrowup" xlink:href="#arrowUp" x="0" y="0" onmousedown="handlePan(0,-1)"/>
  <use id="arrowright" xlink:href="#arrowRight" x="0" y="0" onmousedown="handlePan(1,0)"/>
  <use id="arrowdown" xlink:href="#arrowDown" x="0" y="0" onmousedown="handlePan(0,1)"/>
  <use id="arrowleft" xlink:href="#arrowLeft" x="0" y="0" onmousedown="handlePan(-1,0)"/>
</g>
<svg viewBox="0 0 15 15" width="100%" height="30px" preserveAspectRatio="xMaxYMin meet">
 <g id="arrow_out" transform="scale(0.3 0.3)">
  <a xlink:href="class_data_1_1_hash_function_1_1_farm_hash_1_1_farm_hash_fingerprint128___implementation_ad132c965537a4a280648e5b9067445c0_icgraph_org.svg" target="_base">
   <rect id="button" ry="5" rx="5" y="6" x="6" height="38" width="38"
        fill="#f2f5e9" fill-opacity="0.5" stroke="#606060" stroke-width="1.0"/>
   <path id="arrow"
     d="M 11.500037,31.436501 C 11.940474,20.09759 22.043105,11.32322 32.158766,21.979434 L 37.068811,17.246167 C 37.068811,17.246167 37.088388,32 37.088388,32 L 22.160133,31.978069 C 22.160133,31.978069 26.997745,27.140456 26.997745,27.140456 C 18.528582,18.264221 13.291696,25.230495 11.500037,31.436501 z"
     style="fill:#404040;"/>
  </a>
 </g>
</svg>

<style type='text/css'>
<![CDATA[
[data-mouse-over-selected='false'] { opacity: 0.7; }
[data-mouse-over-selected='true']  { opacity: 1.0; }
]]>
</style>
<script type="application/ecmascript"><![CDATA[
document.addEventListener('DOMContentLoaded', (event) => {
  highlightEdges();
  highlightAdjacentNodes();
});
]]></script>
</svg>
