<?xml version="1.0" encoding="UTF-8" standalone="no"?>
<!DOCTYPE svg PUBLIC "-//W3C//DTD SVG 1.1//EN"
 "http://www.w3.org/Graphics/SVG/1.1/DTD/svg11.dtd">
<!-- Generated by graphviz version 12.2.0 (20241103.1931)
 -->
<!-- Title: Data.HashFunction.SpookyHash.SpookyHashV2_Implementation Pages: 1 -->
<svg width="693pt" height="128pt"
 viewBox="0.00 0.00 692.75 128.00" xmlns="http://www.w3.org/2000/svg" xmlns:xlink="http://www.w3.org/1999/xlink">
<g id="graph0" class="graph" transform="scale(1 1) rotate(0) translate(4 124)">
<title>Data.HashFunction.SpookyHash.SpookyHashV2_Implementation</title>
<!-- Node1 -->
<g id="Node000001" class="node">
<title>Node1</title>
<g id="a_Node000001"><a xlink:title=" ">
<polygon fill="#999999" stroke="#666666" points="684.75,-76 502.25,-76 502.25,-44 684.75,-44 684.75,-76"/>
<text text-anchor="start" x="510.25" y="-62.5" font-family="Helvetica,sans-Serif" font-size="10.00">Data.HashFunction.Spooky</text>
<text text-anchor="middle" x="593.5" y="-50.5" font-family="Helvetica,sans-Serif" font-size="10.00">Hash.SpookyHashV2_Implementation</text>
</a>
</g>
</g>
<!-- Node2 -->
<g id="Node000002" class="node">
<title>Node2</title>
<g id="a_Node000002"><a xlink:href="class_data_1_1_hash_function_1_1_core_1_1_streamable_hash_function_base.html" target="_top" xlink:title="Common interface to non&#45;cryptographic hash functions that can be computed over a stream of data witho...">
<polygon fill="white" stroke="#666666" points="431.75,-108 283,-108 283,-88 431.75,-88 431.75,-108"/>
<text text-anchor="middle" x="357.38" y="-94.5" font-family="Helvetica,sans-Serif" font-size="10.00">StreamableHashFunctionBase</text>
</a>
</g>
</g>
<!-- Node2&#45;&gt;Node1 -->
<g id="edge1_Node000001_Node000002" class="edge">
<title>Node2&#45;&gt;Node1</title>
<g id="a_edge1_Node000001_Node000002"><a xlink:title=" ">
<path fill="none" stroke="#63b8ff" d="M434.05,-85.72C455.66,-82.21 479.42,-78.35 501.83,-74.72"/>
<polygon fill="#63b8ff" stroke="#63b8ff" points="433.77,-82.22 424.46,-87.27 434.9,-89.13 433.77,-82.22"/>
</a>
</g>
</g>
<!-- Node3 -->
<g id="Node000003" class="node">
<title>Node3</title>
<g id="a_Node000003"><a xlink:href="class_data_1_1_hash_function_1_1_core_1_1_hash_function_base.html" target="_top" xlink:title="Abstract implementation of an IHashFunction. Provides convenience checks and ensures a default HashSi...">
<polygon fill="white" stroke="#666666" points="231,-120 131.75,-120 131.75,-100 231,-100 231,-120"/>
<text text-anchor="middle" x="181.38" y="-106.5" font-family="Helvetica,sans-Serif" font-size="10.00">HashFunctionBase</text>
</a>
</g>
</g>
<!-- Node3&#45;&gt;Node2 -->
<g id="edge2_Node000002_Node000003" class="edge">
<title>Node3&#45;&gt;Node2</title>
<g id="a_edge2_Node000002_Node000003"><a xlink:title=" ">
<path fill="none" stroke="#63b8ff" d="M242.47,-105.86C255.46,-104.96 269.35,-104 282.79,-103.07"/>
<polygon fill="#63b8ff" stroke="#63b8ff" points="242.55,-102.34 232.82,-106.52 243.03,-109.32 242.55,-102.34"/>
</a>
</g>
</g>
<!-- Node4 -->
<g id="Node000004" class="node">
<title>Node4</title>
<g id="a_Node000004"><a xlink:href="interface_data_1_1_hash_function_1_1_i_hash_function.html" target="_top" xlink:title="Common interface to non&#45;cryptographic hash functions.">
<polygon fill="white" stroke="#666666" points="79.75,-100 0,-100 0,-80 79.75,-80 79.75,-100"/>
<text text-anchor="middle" x="39.88" y="-86.5" font-family="Helvetica,sans-Serif" font-size="10.00">IHashFunction</text>
</a>
</g>
</g>
<!-- Node4&#45;&gt;Node3 -->
<g id="edge3_Node000003_Node000004" class="edge">
<title>Node4&#45;&gt;Node3</title>
<g id="a_edge3_Node000003_Node000004"><a xlink:title=" ">
<path fill="none" stroke="#63b8ff" d="M91.31,-97.23C104.4,-99.11 118.48,-101.13 131.5,-102.99"/>
<polygon fill="#63b8ff" stroke="#63b8ff" points="92,-93.79 81.6,-95.84 91.01,-100.72 92,-93.79"/>
</a>
</g>
</g>
<!-- Node5 -->
<g id="Node000005" class="node">
<title>Node5</title>
<g id="a_Node000005"><a xlink:href="interface_data_1_1_hash_function_1_1_i_streamable_hash_function.html" target="_top" xlink:title="Common interface to non&#45;cryptographic hash functions that can be computed over a stream of data witho...">
<polygon fill="white" stroke="#666666" points="246,-82 116.75,-82 116.75,-62 246,-62 246,-82"/>
<text text-anchor="middle" x="181.38" y="-68.5" font-family="Helvetica,sans-Serif" font-size="10.00">IStreamableHashFunction</text>
</a>
</g>
</g>
<!-- Node4&#45;&gt;Node5 -->
<g id="edge5_Node000005_Node000004" class="edge">
<title>Node4&#45;&gt;Node5</title>
<g id="a_edge5_Node000005_Node000004"><a xlink:title=" ">
<path fill="none" stroke="#63b8ff" d="M91.3,-83.49C99.44,-82.44 107.96,-81.34 116.36,-80.26"/>
<polygon fill="#63b8ff" stroke="#63b8ff" points="91.08,-79.99 81.61,-84.74 91.97,-86.94 91.08,-79.99"/>
</a>
</g>
</g>
<!-- Node5&#45;&gt;Node2 -->
<g id="edge4_Node000002_Node000005" class="edge">
<title>Node5&#45;&gt;Node2</title>
<g id="a_edge4_Node000002_Node000005"><a xlink:title=" ">
<path fill="none" stroke="#63b8ff" d="M257.29,-83.19C266.86,-84.62 276.63,-86.08 286.12,-87.5"/>
<polygon fill="#63b8ff" stroke="#63b8ff" points="258.08,-79.77 247.68,-81.76 257.05,-86.7 258.08,-79.77"/>
</a>
</g>
</g>
<!-- Node6 -->
<g id="Node000006" class="node">
<title>Node6</title>
<g id="a_Node000006"><a xlink:href="interface_data_1_1_hash_function_1_1_spooky_hash_1_1_i_spooky_hash_v2.html" target="_top" xlink:title="Implements SpookyHash V2 as specified at http://burtleburtle.net/bob/hash/spooky.html.">
<polygon fill="white" stroke="#666666" points="401,-70 313.75,-70 313.75,-50 401,-50 401,-70"/>
<text text-anchor="middle" x="357.38" y="-56.5" font-family="Helvetica,sans-Serif" font-size="10.00">ISpookyHashV2</text>
</a>
</g>
</g>
<!-- Node5&#45;&gt;Node6 -->
<g id="edge7_Node000006_Node000005" class="edge">
<title>Node5&#45;&gt;Node6</title>
<g id="a_edge7_Node000006_Node000005"><a xlink:title=" ">
<path fill="none" stroke="#63b8ff" d="M257.62,-66.81C276.73,-65.49 296.61,-64.12 313.48,-62.96"/>
<polygon fill="#63b8ff" stroke="#63b8ff" points="257.42,-63.32 247.69,-67.5 257.91,-70.3 257.42,-63.32"/>
</a>
</g>
</g>
<!-- Node6&#45;&gt;Node1 -->
<g id="edge6_Node000001_Node000006" class="edge">
<title>Node6&#45;&gt;Node1</title>
<g id="a_edge6_Node000001_Node000006"><a xlink:title=" ">
<path fill="none" stroke="#63b8ff" d="M412.65,-60C439.13,-60 471.7,-60 501.82,-60"/>
<polygon fill="#63b8ff" stroke="#63b8ff" points="412.83,-56.5 402.83,-60 412.83,-63.5 412.83,-56.5"/>
</a>
</g>
</g>
<!-- Node7 -->
<g id="Node000007" class="node">
<title>Node7</title>
<g id="a_Node000007"><a xlink:href="interface_data_1_1_hash_function_1_1_spooky_hash_1_1_i_spooky_hash_config.html" target="_top" xlink:title="Defines a configuration for a ISpookyHash implementation.">
<polygon fill="white" stroke="#666666" points="425.75,-32 289,-32 289,0 425.75,0 425.75,-32"/>
<text text-anchor="start" x="297" y="-18.5" font-family="Helvetica,sans-Serif" font-size="10.00">Data.HashFunction.Spooky</text>
<text text-anchor="middle" x="357.38" y="-6.5" font-family="Helvetica,sans-Serif" font-size="10.00">Hash.ISpookyHashConfig</text>
</a>
</g>
</g>
<!-- Node7&#45;&gt;Node1 -->
<g id="edge8_Node000001_Node000007" class="edge">
<title>Node7&#45;&gt;Node1</title>
<g id="a_edge8_Node000001_Node000007"><a xlink:title=" ">
<path fill="none" stroke="#9a32cd" stroke-dasharray="5,2" d="M437.26,-30.82C458.98,-34.91 482.67,-39.36 504.86,-43.53"/>
<polygon fill="#9a32cd" stroke="#9a32cd" points="438.06,-27.41 427.58,-29.01 436.76,-34.29 438.06,-27.41"/>
</a>
</g>
<text text-anchor="middle" x="467" y="-41.82" font-family="Helvetica,sans-Serif" font-size="10.00" fill="grey"> _config</text>
</g>
</g>
</svg>
