<?xml version="1.0" encoding="UTF-8" standalone="no"?>
<!DOCTYPE svg PUBLIC "-//W3C//DTD SVG 1.1//EN"
 "http://www.w3.org/Graphics/SVG/1.1/DTD/svg11.dtd">
<!-- Generated by graphviz version 12.2.0 (20241103.1931)
 -->
<!-- Title: Data.HashFunction.HashAlgorithm.HashAlgorithmWrapper_Implementation Pages: 1 -->
<svg width="244pt" height="152pt"
 viewBox="0.00 0.00 244.38 152.00" xmlns="http://www.w3.org/2000/svg" xmlns:xlink="http://www.w3.org/1999/xlink">
<g id="graph0" class="graph" transform="scale(1 1) rotate(0) translate(4 148)">
<title>Data.HashFunction.HashAlgorithm.HashAlgorithmWrapper_Implementation</title>
<!-- Node1 -->
<g id="Node000001" class="node">
<title>Node1</title>
<g id="a_Node000001"><a xlink:title=" ">
<polygon fill="#999999" stroke="#666666" points="206.88,-32 18.38,-32 18.38,0 206.88,0 206.88,-32"/>
<text text-anchor="start" x="26.38" y="-18.5" font-family="Helvetica,sans-Serif" font-size="10.00">Data.HashFunction.HashAlgorithm.</text>
<text text-anchor="middle" x="112.62" y="-6.5" font-family="Helvetica,sans-Serif" font-size="10.00">HashAlgorithmWrapper_Implementation</text>
</a>
</g>
</g>
<!-- Node2 -->
<g id="Node000002" class="node">
<title>Node2</title>
<g id="a_Node000002"><a xlink:href="class_data_1_1_hash_function_1_1_core_1_1_hash_function_base.html" target="_top" xlink:title="Abstract implementation of an IHashFunction. Provides convenience checks and ensures a default HashSi...">
<polygon fill="white" stroke="#666666" points="99.25,-88 0,-88 0,-68 99.25,-68 99.25,-88"/>
<text text-anchor="middle" x="49.62" y="-74.5" font-family="Helvetica,sans-Serif" font-size="10.00">HashFunctionBase</text>
</a>
</g>
</g>
<!-- Node2&#45;&gt;Node1 -->
<g id="edge1_Node000001_Node000002" class="edge">
<title>Node2&#45;&gt;Node1</title>
<g id="a_edge1_Node000001_Node000002"><a xlink:title=" ">
<path fill="none" stroke="#63b8ff" d="M67.56,-59.92C76.75,-51.16 87.85,-40.6 96.73,-32.14"/>
<polygon fill="#63b8ff" stroke="#63b8ff" points="65.39,-57.15 60.56,-66.58 70.22,-62.22 65.39,-57.15"/>
</a>
</g>
</g>
<!-- Node3 -->
<g id="Node000003" class="node">
<title>Node3</title>
<g id="a_Node000003"><a xlink:href="interface_data_1_1_hash_function_1_1_i_hash_function.html" target="_top" xlink:title="Common interface to non&#45;cryptographic hash functions.">
<polygon fill="white" stroke="#666666" points="152.5,-144 72.75,-144 72.75,-124 152.5,-124 152.5,-144"/>
<text text-anchor="middle" x="112.62" y="-130.5" font-family="Helvetica,sans-Serif" font-size="10.00">IHashFunction</text>
</a>
</g>
</g>
<!-- Node3&#45;&gt;Node2 -->
<g id="edge2_Node000002_Node000003" class="edge">
<title>Node3&#45;&gt;Node2</title>
<g id="a_edge2_Node000002_Node000003"><a xlink:title=" ">
<path fill="none" stroke="#63b8ff" d="M92.94,-116.13C82.22,-106.94 69.38,-95.93 60.47,-88.3"/>
<polygon fill="#63b8ff" stroke="#63b8ff" points="90.63,-118.76 100.5,-122.61 95.19,-113.44 90.63,-118.76"/>
</a>
</g>
</g>
<!-- Node4 -->
<g id="Node000004" class="node">
<title>Node4</title>
<g id="a_Node000004"><a xlink:href="interface_data_1_1_hash_function_1_1_hash_algorithm_1_1_i_hash_algorithm_wrapper.html" target="_top" xlink:title="Implementation of IHashFunction that wraps cryptographic hash functions known as System....">
<polygon fill="white" stroke="#666666" points="236.38,-88 116.88,-88 116.88,-68 236.38,-68 236.38,-88"/>
<text text-anchor="middle" x="176.62" y="-74.5" font-family="Helvetica,sans-Serif" font-size="10.00">IHashAlgorithmWrapper</text>
</a>
</g>
</g>
<!-- Node3&#45;&gt;Node4 -->
<g id="edge4_Node000004_Node000003" class="edge">
<title>Node3&#45;&gt;Node4</title>
<g id="a_edge4_Node000004_Node000003"><a xlink:title=" ">
<path fill="none" stroke="#63b8ff" d="M132.3,-116.4C143.24,-107.17 156.47,-96.01 165.6,-88.3"/>
<polygon fill="#63b8ff" stroke="#63b8ff" points="130.32,-113.49 124.93,-122.62 134.83,-118.84 130.32,-113.49"/>
</a>
</g>
</g>
<!-- Node4&#45;&gt;Node1 -->
<g id="edge3_Node000001_Node000004" class="edge">
<title>Node4&#45;&gt;Node1</title>
<g id="a_edge3_Node000001_Node000004"><a xlink:title=" ">
<path fill="none" stroke="#63b8ff" d="M158.47,-59.98C149.2,-51.29 138.02,-40.81 129.02,-32.37"/>
<polygon fill="#63b8ff" stroke="#63b8ff" points="155.83,-62.3 165.52,-66.59 160.62,-57.2 155.83,-62.3"/>
</a>
</g>
</g>
</g>
</svg>
