<?xml version="1.0" encoding="UTF-8" standalone="no"?>
<!DOCTYPE svg PUBLIC "-//W3C//DTD SVG 1.1//EN"
 "http://www.w3.org/Graphics/SVG/1.1/DTD/svg11.dtd">
<!-- Generated by graphviz version 12.2.0 (20241103.1931)
 -->
<!-- Title: Data.HashFunction.xxHash.xxHash_Implementation Pages: 1 -->
<svg width="266pt" height="208pt"
 viewBox="0.00 0.00 266.00 208.00" xmlns="http://www.w3.org/2000/svg" xmlns:xlink="http://www.w3.org/1999/xlink">

<svg id="main" version="1.1" xmlns="http://www.w3.org/2000/svg" xmlns:xlink="http://www.w3.org/1999/xlink" xml:space="preserve">

<style type="text/css"><![CDATA[
.node, .edge {opacity: 0.7;}
.node.selected, .edge.selected {opacity: 1;}
.edge:hover path { stroke: red; }
.edge:hover polygon { stroke: red; fill: red; }
]]></style>
<script type="application/ecmascript" xlink:href="svg.min.js"/>
<svg id="graph" class="graph">
<g id="graph0" class="graph" transform="scale(1 1) rotate(0) translate(4 204)">
<title>Data.HashFunction.xxHash.xxHash_Implementation</title>
<!-- Node1 -->
<g id="Node000001" class="node">
<title>Node1</title>
<g id="a_Node000001"><a xlink:title=" ">
<polygon fill="#999999" stroke="#666666" points="208.88,-32 57.88,-32 57.88,0 208.88,0 208.88,-32"/>
<text text-anchor="start" x="65.88" y="-18.5" font-family="Helvetica,sans-Serif" font-size="10.00">Data.HashFunction.xxHash.xx</text>
<text text-anchor="middle" x="133.38" y="-6.5" font-family="Helvetica,sans-Serif" font-size="10.00">Hash_Implementation</text>
</a>
</g>
</g>
<!-- Node2 -->
<g id="Node000002" class="node">
<title>Node2</title>
<g id="a_Node000002"><a xlink:href="class_data_1_1_hash_function_1_1_core_1_1_streamable_hash_function_base.html" target="_top" xlink:title="Common interface to non&#45;cryptographic hash functions that can be computed over a stream of data witho...">
<polygon fill="white" stroke="#666666" points="148.75,-88 0,-88 0,-68 148.75,-68 148.75,-88"/>
<text text-anchor="middle" x="74.38" y="-74.5" font-family="Helvetica,sans-Serif" font-size="10.00">StreamableHashFunctionBase</text>
</a>
</g>
</g>
<!-- Node2&#45;&gt;Node1 -->
<g id="edge1_Node000001_Node000002" class="edge">
<title>Node2&#45;&gt;Node1</title>
<g id="a_edge1_Node000001_Node000002"><a xlink:title=" ">
<path fill="none" stroke="#63b8ff" d="M91.44,-59.65C99.99,-50.95 110.26,-40.51 118.49,-32.14"/>
<polygon fill="#63b8ff" stroke="#63b8ff" points="89.17,-56.96 84.65,-66.55 94.16,-61.87 89.17,-56.96"/>
</a>
</g>
</g>
<!-- Node3 -->
<g id="Node000003" class="node">
<title>Node3</title>
<g id="a_Node000003"><a xlink:href="class_data_1_1_hash_function_1_1_core_1_1_hash_function_base.html" target="_top" xlink:title="Abstract implementation of an IHashFunction. Provides convenience checks and ensures a default HashSi...">
<polygon fill="white" stroke="#666666" points="111,-144 11.75,-144 11.75,-124 111,-124 111,-144"/>
<text text-anchor="middle" x="61.38" y="-130.5" font-family="Helvetica,sans-Serif" font-size="10.00">HashFunctionBase</text>
</a>
</g>
</g>
<!-- Node3&#45;&gt;Node2 -->
<g id="edge2_Node000002_Node000003" class="edge">
<title>Node3&#45;&gt;Node2</title>
<g id="a_edge2_Node000002_Node000003"><a xlink:title=" ">
<path fill="none" stroke="#63b8ff" d="M66.33,-112.43C68.33,-104.11 70.54,-94.93 72.14,-88.3"/>
<polygon fill="#63b8ff" stroke="#63b8ff" points="62.93,-111.58 63.99,-122.12 69.74,-113.22 62.93,-111.58"/>
</a>
</g>
</g>
<!-- Node4 -->
<g id="Node000004" class="node">
<title>Node4</title>
<g id="a_Node000004"><a xlink:href="interface_data_1_1_hash_function_1_1_i_hash_function.html" target="_top" xlink:title="Common interface to non&#45;cryptographic hash functions.">
<polygon fill="white" stroke="#666666" points="167.25,-200 87.5,-200 87.5,-180 167.25,-180 167.25,-200"/>
<text text-anchor="middle" x="127.38" y="-186.5" font-family="Helvetica,sans-Serif" font-size="10.00">IHashFunction</text>
</a>
</g>
</g>
<!-- Node4&#45;&gt;Node3 -->
<g id="edge3_Node000003_Node000004" class="edge">
<title>Node4&#45;&gt;Node3</title>
<g id="a_edge3_Node000003_Node000004"><a xlink:title=" ">
<path fill="none" stroke="#63b8ff" d="M107.09,-172.4C95.8,-163.17 82.16,-152.01 72.74,-144.3"/>
<polygon fill="#63b8ff" stroke="#63b8ff" points="104.75,-175.01 114.71,-178.64 109.18,-169.59 104.75,-175.01"/>
</a>
</g>
</g>
<!-- Node5 -->
<g id="Node000005" class="node">
<title>Node5</title>
<g id="a_Node000005"><a xlink:href="interface_data_1_1_hash_function_1_1_i_streamable_hash_function.html" target="_top" xlink:title="Common interface to non&#45;cryptographic hash functions that can be computed over a stream of data witho...">
<polygon fill="white" stroke="#666666" points="258,-144 128.75,-144 128.75,-124 258,-124 258,-144"/>
<text text-anchor="middle" x="193.38" y="-130.5" font-family="Helvetica,sans-Serif" font-size="10.00">IStreamableHashFunction</text>
</a>
</g>
</g>
<!-- Node4&#45;&gt;Node5 -->
<g id="edge5_Node000005_Node000004" class="edge">
<title>Node4&#45;&gt;Node5</title>
<g id="a_edge5_Node000005_Node000004"><a xlink:title=" ">
<path fill="none" stroke="#63b8ff" d="M147.66,-172.4C158.95,-163.17 172.59,-152.01 182.01,-144.3"/>
<polygon fill="#63b8ff" stroke="#63b8ff" points="145.57,-169.59 140.04,-178.64 150,-175.01 145.57,-169.59"/>
</a>
</g>
</g>
<!-- Node5&#45;&gt;Node2 -->
<g id="edge4_Node000002_Node000005" class="edge">
<title>Node5&#45;&gt;Node2</title>
<g id="a_edge4_Node000002_Node000005"><a xlink:title=" ">
<path fill="none" stroke="#63b8ff" d="M162.25,-118.88C141.14,-109.3 113.8,-96.89 95.26,-88.48"/>
<polygon fill="#63b8ff" stroke="#63b8ff" points="160.72,-122.02 171.27,-122.97 163.61,-115.65 160.72,-122.02"/>
</a>
</g>
</g>
<!-- Node6 -->
<g id="Node000006" class="node">
<title>Node6</title>
<g id="a_Node000006"><a xlink:href="interface_data_1_1_hash_function_1_1xx_hash_1_1_ixx_hash.html" target="_top" xlink:title="Implements xxHash as specified at https://github.com/Cyan4973/xxHash/blob/dev/xxhash....">
<polygon fill="white" stroke="#666666" points="219.75,-88 167,-88 167,-68 219.75,-68 219.75,-88"/>
<text text-anchor="middle" x="193.38" y="-74.5" font-family="Helvetica,sans-Serif" font-size="10.00">IxxHash</text>
</a>
</g>
</g>
<!-- Node5&#45;&gt;Node6 -->
<g id="edge7_Node000006_Node000005" class="edge">
<title>Node5&#45;&gt;Node6</title>
<g id="a_edge7_Node000006_Node000005"><a xlink:title=" ">
<path fill="none" stroke="#63b8ff" d="M193.38,-112.13C193.38,-103.9 193.38,-94.85 193.38,-88.3"/>
<polygon fill="#63b8ff" stroke="#63b8ff" points="189.88,-112.08 193.38,-122.08 196.88,-112.08 189.88,-112.08"/>
</a>
</g>
</g>
<!-- Node6&#45;&gt;Node1 -->
<g id="edge6_Node000001_Node000006" class="edge">
<title>Node6&#45;&gt;Node1</title>
<g id="a_edge6_Node000001_Node000006"><a xlink:title=" ">
<path fill="none" stroke="#63b8ff" d="M176.02,-59.65C167.32,-50.95 156.89,-40.51 148.52,-32.14"/>
<polygon fill="#63b8ff" stroke="#63b8ff" points="173.38,-61.96 182.93,-66.55 178.33,-57.01 173.38,-61.96"/>
</a>
</g>
</g>
</g>
</svg>
</svg>

<style type='text/css'>
<![CDATA[
[data-mouse-over-selected='false'] { opacity: 0.7; }
[data-mouse-over-selected='true']  { opacity: 1.0; }
]]>
</style>
<script type="application/ecmascript"><![CDATA[
document.addEventListener('DOMContentLoaded', (event) => {
  highlightEdges();
  highlightAdjacentNodes();
});
]]></script>
</svg>
