<?xml version="1.0" encoding="UTF-8" standalone="no"?>
<!DOCTYPE svg PUBLIC "-//W3C//DTD SVG 1.1//EN"
 "http://www.w3.org/Graphics/SVG/1.1/DTD/svg11.dtd">
<!-- Generated by graphviz version 12.2.0 (20241103.1931)
 -->
<!-- Title: Data.HashFunction.FNV.Utilities.FNVPrimeOffset.Create Pages: 1 -->
<svg width="369pt" height="90pt"
 viewBox="0.00 0.00 369.25 90.00" xmlns="http://www.w3.org/2000/svg" xmlns:xlink="http://www.w3.org/1999/xlink">
<g id="graph0" class="graph" transform="scale(1 1) rotate(0) translate(4 86)">
<title>Data.HashFunction.FNV.Utilities.FNVPrimeOffset.Create</title>
<!-- Node1 -->
<g id="Node000001" class="node">
<title>Node1</title>
<g id="a_Node000001"><a xlink:title=" ">
<polygon fill="#999999" stroke="#666666" points="162.25,-57 0,-57 0,-25 162.25,-25 162.25,-57"/>
<text text-anchor="start" x="8" y="-43.5" font-family="Helvetica,sans-Serif" font-size="10.00">Data.HashFunction.FNV.Utilities.</text>
<text text-anchor="middle" x="81.12" y="-31.5" font-family="Helvetica,sans-Serif" font-size="10.00">FNVPrimeOffset.Create</text>
</a>
</g>
</g>
<!-- Node2 -->
<g id="Node000002" class="node">
<title>Node2</title>
<g id="a_Node000002"><a xlink:href="class_data_1_1_hash_function_1_1_f_n_v_1_1_utilities_1_1_f_n_v_prime_offset.html#ae79d293c9cf432832cced78c00985329" target="_top" xlink:title=" ">
<polygon fill="white" stroke="#666666" points="361.25,-82 198.25,-82 198.25,-50 361.25,-50 361.25,-82"/>
<text text-anchor="start" x="206.25" y="-68.5" font-family="Helvetica,sans-Serif" font-size="10.00">Data.HashFunction.FNV.Utilities.</text>
<text text-anchor="middle" x="279.75" y="-56.5" font-family="Helvetica,sans-Serif" font-size="10.00">FNVPrimeOffset.FNVPrimeOffset</text>
</a>
</g>
</g>
<!-- Node1&#45;&gt;Node2 -->
<g id="edge1_Node000001_Node000002" class="edge">
<title>Node1&#45;&gt;Node2</title>
<g id="a_edge1_Node000001_Node000002"><a xlink:title=" ">
<path fill="none" stroke="#63b8ff" d="M162.67,-51.24C170.6,-52.25 178.69,-53.28 186.72,-54.3"/>
<polygon fill="#63b8ff" stroke="#63b8ff" points="186.15,-57.75 196.51,-55.54 187.03,-50.81 186.15,-57.75"/>
</a>
</g>
</g>
<!-- Node3 -->
<g id="Node000003" class="node">
<title>Node3</title>
<g id="a_Node000003"><a xlink:href="class_data_1_1_hash_function_1_1_f_n_v_1_1_utilities_1_1_f_n_v_prime_offset.html#af4415eb73b94a036f076a9091c126b3e" target="_top" xlink:title=" ">
<polygon fill="white" stroke="#666666" points="360.88,-32 198.62,-32 198.62,0 360.88,0 360.88,-32"/>
<text text-anchor="start" x="206.62" y="-18.5" font-family="Helvetica,sans-Serif" font-size="10.00">Data.HashFunction.FNV.Utilities.</text>
<text text-anchor="middle" x="279.75" y="-6.5" font-family="Helvetica,sans-Serif" font-size="10.00">FNVPrimeOffset.ToUInt32Array</text>
</a>
</g>
</g>
<!-- Node1&#45;&gt;Node3 -->
<g id="edge2_Node000001_Node000003" class="edge">
<title>Node1&#45;&gt;Node3</title>
<g id="a_edge2_Node000001_Node000003"><a xlink:title=" ">
<path fill="none" stroke="#63b8ff" d="M162.67,-30.76C170.67,-29.74 178.83,-28.7 186.94,-27.67"/>
<polygon fill="#63b8ff" stroke="#63b8ff" points="187.35,-31.15 196.83,-26.42 186.47,-24.2 187.35,-31.15"/>
</a>
</g>
</g>
</g>
</svg>
