<?xml version="1.0" encoding="UTF-8" standalone="no"?>
<!DOCTYPE svg PUBLIC "-//W3C//DTD SVG 1.1//EN"
 "http://www.w3.org/Graphics/SVG/1.1/DTD/svg11.dtd">
<!-- Generated by graphviz version 12.2.0 (20241103.1931)
 -->
<!-- Title: Data.HashFunction.Core.HashFunctionBase Pages: 1 -->
<!--zoomable 815 -->

<svg id="main" version="1.1" xmlns="http://www.w3.org/2000/svg" xmlns:xlink="http://www.w3.org/1999/xlink" xml:space="preserve" onload="init(evt)">

<style type="text/css"><![CDATA[
.node, .edge {opacity: 0.7;}
.node.selected, .edge.selected {opacity: 1;}
.edge:hover path { stroke: red; }
.edge:hover polygon { stroke: red; fill: red; }
]]></style>

<defs>
  <circle id="rim" cx="0" cy="0" r="7"/>
  <circle id="rim2" cx="0" cy="0" r="3.5"/>
  <g id="zoomPlus">
    <use xlink:href="#rim" fill="#404040"><set attributeName="fill" to="#808080" begin="zoomplus.mouseover" end="zoomplus.mouseout"/></use>
    <path d="M-4,0h8M0,-4v8" fill="none" stroke="white" stroke-width="1.5" pointer-events="none"/>
  </g>
  <g id="zoomMin">
    <use xlink:href="#rim" fill="#404040"><set attributeName="fill" to="#808080" begin="zoomminus.mouseover" end="zoomminus.mouseout"/></use>
    <path d="M-4,0h8" fill="none" stroke="white" stroke-width="1.5" pointer-events="none"/>
  </g>
  <g id="arrowUp" transform="translate(30 24)">
    <use xlink:href="#rim"/>
    <path pointer-events="none" fill="none" stroke="white" stroke-width="1.5" d="M0,-3.0v7 M-2.5,-0.5L0,-3.0L2.5,-0.5"/>
  </g>
  <g id="arrowRight" transform="rotate(90) translate(36 -43)">
    <use xlink:href="#rim"/>
    <path pointer-events="none" fill="none" stroke="white" stroke-width="1.5" d="M0,-3.0v7 M-2.5,-0.5L0,-3.0L2.5,-0.5"/>
  </g>
  <g id="arrowDown" transform="rotate(180) translate(-30 -48)">
    <use xlink:href="#rim"/>
    <path pointer-events="none" fill="none" stroke="white" stroke-width="1.5" d="M0,-3.0v7 M-2.5,-0.5L0,-3.0L2.5,-0.5"/>
  </g>
  <g id="arrowLeft" transform="rotate(270) translate(-36 17)">
    <use xlink:href="#rim"/>
    <path pointer-events="none" fill="none" stroke="white" stroke-width="1.5" d="M0,-3.0v7 M-2.5,-0.5L0,-3.0L2.5,-0.5"/>
  </g>
  <g id="resetDef">
    <use xlink:href="#rim2" fill="#404040"><set attributeName="fill" to="#808080" begin="reset.mouseover" end="reset.mouseout"/></use>
  </g>
</defs>
<script type="application/ecmascript">
var viewWidth = 918;
var viewHeight = 815;
var sectionId = 'dynsection-0';
</script>
<script type="application/ecmascript" xlink:href="svg.min.js"/>
<svg id="graph" class="graph">
<g id="viewport">
<title>Data.HashFunction.Core.HashFunctionBase</title>
<!-- Node1 -->
<g id="Node000001" class="node">
<title>Node1</title>
<g id="a_Node000001"><a xlink:title="Abstract implementation of an IHashFunction. Provides convenience checks and ensures a default HashSi...">
<polygon fill="#999999" stroke="#666666" points="266.75,-282 115.75,-282 115.75,-250 266.75,-250 266.75,-282"/>
<text text-anchor="start" x="123.75" y="-268.5" font-family="Helvetica,sans-Serif" font-size="10.00">Data.HashFunction.Core.Hash</text>
<text text-anchor="middle" x="191.25" y="-256.5" font-family="Helvetica,sans-Serif" font-size="10.00">FunctionBase</text>
</a>
</g>
</g>
<!-- Node3 -->
<g id="Node000003" class="node">
<title>Node3</title>
<g id="a_Node000003"><a xlink:href="class_data_1_1_hash_function_1_1_blake3_1_1_blake3___implementation.html" target="_top" xlink:title=" ">
<polygon fill="white" stroke="#666666" points="468.75,-532 332,-532 332,-500 468.75,-500 468.75,-532"/>
<text text-anchor="start" x="340" y="-518.5" font-family="Helvetica,sans-Serif" font-size="10.00">Data.HashFunction.Blake3.</text>
<text text-anchor="middle" x="400.38" y="-506.5" font-family="Helvetica,sans-Serif" font-size="10.00">Blake3_Implementation</text>
</a>
</g>
</g>
<!-- Node1&#45;&gt;Node3 -->
<g id="edge2_Node000001_Node000003" class="edge">
<title>Node1&#45;&gt;Node3</title>
<g id="a_edge2_Node000001_Node000003"><a xlink:title=" ">
<path fill="none" stroke="#63b8ff" d="M197.81,-293.16C209,-340.7 238.84,-438.92 302.75,-491 311.21,-497.9 321.36,-502.91 331.86,-506.56"/>
<polygon fill="#63b8ff" stroke="#63b8ff" points="201.29,-292.69 195.69,-283.69 194.46,-294.22 201.29,-292.69"/>
</a>
</g>
</g>
<!-- Node4 -->
<g id="Node000004" class="node">
<title>Node4</title>
<g id="a_Node000004"><a xlink:href="class_data_1_1_hash_function_1_1_city_hash_1_1_city_hash___implementation.html" target="_top" xlink:title=" ">
<polygon fill="white" stroke="#666666" points="474.38,-482 326.38,-482 326.38,-450 474.38,-450 474.38,-482"/>
<text text-anchor="start" x="334.38" y="-468.5" font-family="Helvetica,sans-Serif" font-size="10.00">Data.HashFunction.CityHash.</text>
<text text-anchor="middle" x="400.38" y="-456.5" font-family="Helvetica,sans-Serif" font-size="10.00">CityHash_Implementation</text>
</a>
</g>
</g>
<!-- Node1&#45;&gt;Node4 -->
<g id="edge3_Node000001_Node000004" class="edge">
<title>Node1&#45;&gt;Node4</title>
<g id="a_edge3_Node000001_Node000004"><a xlink:title=" ">
<path fill="none" stroke="#63b8ff" d="M201.82,-292.9C217.02,-331.68 250.44,-402.83 302.75,-441 309.75,-446.11 317.7,-450.17 325.96,-453.41"/>
<polygon fill="#63b8ff" stroke="#63b8ff" points="205.2,-291.95 198.38,-283.84 198.65,-294.43 205.2,-291.95"/>
</a>
</g>
</g>
<!-- Node5 -->
<g id="Node000005" class="node">
<title>Node5</title>
<g id="a_Node000005"><a xlink:href="class_data_1_1_hash_function_1_1_core_1_1_streamable_hash_function_base.html" target="_top" xlink:title="Common interface to non&#45;cryptographic hash functions that can be computed over a stream of data witho...">
<polygon fill="white" stroke="#666666" points="489,-432 311.75,-432 311.75,-400 489,-400 489,-432"/>
<text text-anchor="start" x="319.75" y="-418.5" font-family="Helvetica,sans-Serif" font-size="10.00">Data.HashFunction.Core.Streamable</text>
<text text-anchor="middle" x="400.38" y="-406.5" font-family="Helvetica,sans-Serif" font-size="10.00">HashFunctionBase</text>
</a>
</g>
</g>
<!-- Node1&#45;&gt;Node5 -->
<g id="edge4_Node000001_Node000005" class="edge">
<title>Node1&#45;&gt;Node5</title>
<g id="a_edge4_Node000001_Node000005"><a xlink:title=" ">
<path fill="none" stroke="#63b8ff" d="M207.98,-291.51C226.94,-320.07 261.44,-365.67 302.75,-391 308.07,-394.26 313.8,-397.1 319.73,-399.57"/>
<polygon fill="#63b8ff" stroke="#63b8ff" points="211.14,-289.94 202.76,-283.45 205.26,-293.74 211.14,-289.94"/>
</a>
</g>
</g>
<!-- Node25 -->
<g id="Node000025" class="node">
<title>Node25</title>
<g id="a_Node000025"><a xlink:href="class_data_1_1_hash_function_1_1_farm_hash_1_1_farm_hash_fingerprint128___implementation.html" target="_top" xlink:title=" ">
<polygon fill="white" stroke="#666666" points="498,-382 302.75,-382 302.75,-350 498,-350 498,-382"/>
<text text-anchor="start" x="310.75" y="-368.5" font-family="Helvetica,sans-Serif" font-size="10.00">Data.HashFunction.FarmHash.</text>
<text text-anchor="middle" x="400.38" y="-356.5" font-family="Helvetica,sans-Serif" font-size="10.00">FarmHashFingerprint128_Implementation</text>
</a>
</g>
</g>
<!-- Node1&#45;&gt;Node25 -->
<g id="edge24_Node000001_Node000025" class="edge">
<title>Node1&#45;&gt;Node25</title>
<g id="a_edge24_Node000001_Node000025"><a xlink:title=" ">
<path fill="none" stroke="#63b8ff" d="M220.63,-289.3C242.04,-305.84 272.75,-327.43 302.75,-341 309.78,-344.18 317.28,-347.01 324.88,-349.51"/>
<polygon fill="#63b8ff" stroke="#63b8ff" points="222.98,-286.7 212.96,-283.27 218.66,-292.21 222.98,-286.7"/>
</a>
</g>
</g>
<!-- Node26 -->
<g id="Node000026" class="node">
<title>Node26</title>
<g id="a_Node000026"><a xlink:href="class_data_1_1_hash_function_1_1_farm_hash_1_1_farm_hash_fingerprint32___implementation.html" target="_top" xlink:title=" ">
<polygon fill="white" stroke="#666666" points="495.38,-332 305.38,-332 305.38,-300 495.38,-300 495.38,-332"/>
<text text-anchor="start" x="313.38" y="-318.5" font-family="Helvetica,sans-Serif" font-size="10.00">Data.HashFunction.FarmHash.</text>
<text text-anchor="middle" x="400.38" y="-306.5" font-family="Helvetica,sans-Serif" font-size="10.00">FarmHashFingerprint32_Implementation</text>
</a>
</g>
</g>
<!-- Node1&#45;&gt;Node26 -->
<g id="edge25_Node000001_Node000026" class="edge">
<title>Node1&#45;&gt;Node26</title>
<g id="a_edge25_Node000001_Node000026"><a xlink:title=" ">
<path fill="none" stroke="#63b8ff" d="M271.47,-285.12C291.17,-289.88 312.11,-294.93 331.23,-299.55"/>
<polygon fill="#63b8ff" stroke="#63b8ff" points="272.37,-281.74 261.83,-282.8 270.73,-288.55 272.37,-281.74"/>
</a>
</g>
</g>
<!-- Node27 -->
<g id="Node000027" class="node">
<title>Node27</title>
<g id="a_Node000027"><a xlink:href="class_data_1_1_hash_function_1_1_farm_hash_1_1_farm_hash_fingerprint64___implementation.html" target="_top" xlink:title=" ">
<polygon fill="white" stroke="#666666" points="495.38,-282 305.38,-282 305.38,-250 495.38,-250 495.38,-282"/>
<text text-anchor="start" x="313.38" y="-268.5" font-family="Helvetica,sans-Serif" font-size="10.00">Data.HashFunction.FarmHash.</text>
<text text-anchor="middle" x="400.38" y="-256.5" font-family="Helvetica,sans-Serif" font-size="10.00">FarmHashFingerprint64_Implementation</text>
</a>
</g>
</g>
<!-- Node1&#45;&gt;Node27 -->
<g id="edge26_Node000001_Node000027" class="edge">
<title>Node1&#45;&gt;Node27</title>
<g id="a_edge26_Node000001_Node000027"><a xlink:title=" ">
<path fill="none" stroke="#63b8ff" d="M278.5,-266C287.33,-266 296.32,-266 305.23,-266"/>
<polygon fill="#63b8ff" stroke="#63b8ff" points="278.54,-262.5 268.54,-266 278.54,-269.5 278.54,-262.5"/>
</a>
</g>
</g>
<!-- Node28 -->
<g id="Node000028" class="node">
<title>Node28</title>
<g id="a_Node000028"><a xlink:href="class_data_1_1_hash_function_1_1_hash_algorithm_1_1_hash_algorithm_wrapper___implementation.html" target="_top" xlink:title=" ">
<polygon fill="white" stroke="#666666" points="494.62,-232 306.12,-232 306.12,-200 494.62,-200 494.62,-232"/>
<text text-anchor="start" x="314.12" y="-218.5" font-family="Helvetica,sans-Serif" font-size="10.00">Data.HashFunction.HashAlgorithm.</text>
<text text-anchor="middle" x="400.38" y="-206.5" font-family="Helvetica,sans-Serif" font-size="10.00">HashAlgorithmWrapper_Implementation</text>
</a>
</g>
</g>
<!-- Node1&#45;&gt;Node28 -->
<g id="edge27_Node000001_Node000028" class="edge">
<title>Node1&#45;&gt;Node28</title>
<g id="a_edge27_Node000001_Node000028"><a xlink:title=" ">
<path fill="none" stroke="#63b8ff" d="M271.47,-246.88C291.17,-242.12 312.11,-237.07 331.23,-232.45"/>
<polygon fill="#63b8ff" stroke="#63b8ff" points="270.73,-243.45 261.83,-249.2 272.37,-250.26 270.73,-243.45"/>
</a>
</g>
</g>
<!-- Node29 -->
<g id="Node000029" class="node">
<title>Node29</title>
<g id="a_Node000029"><a xlink:href="class_data_1_1_hash_function_1_1_jenkins_1_1_jenkins_lookup3___implementation.html" target="_top" xlink:title=" ">
<polygon fill="white" stroke="#666666" points="479.62,-182 321.12,-182 321.12,-150 479.62,-150 479.62,-182"/>
<text text-anchor="start" x="329.12" y="-168.5" font-family="Helvetica,sans-Serif" font-size="10.00">Data.HashFunction.Jenkins.</text>
<text text-anchor="middle" x="400.38" y="-156.5" font-family="Helvetica,sans-Serif" font-size="10.00">JenkinsLookup3_Implementation</text>
</a>
</g>
</g>
<!-- Node1&#45;&gt;Node29 -->
<g id="edge28_Node000001_Node000029" class="edge">
<title>Node1&#45;&gt;Node29</title>
<g id="a_edge28_Node000001_Node000029"><a xlink:title=" ">
<path fill="none" stroke="#63b8ff" d="M220.63,-242.7C242.04,-226.16 272.75,-204.57 302.75,-191 309.78,-187.82 317.28,-184.99 324.88,-182.49"/>
<polygon fill="#63b8ff" stroke="#63b8ff" points="218.66,-239.79 212.96,-248.73 222.98,-245.3 218.66,-239.79"/>
</a>
</g>
</g>
<!-- Node30 -->
<g id="Node000030" class="node">
<title>Node30</title>
<g id="a_Node000030"><a xlink:href="class_data_1_1_hash_function_1_1_murmur_hash_1_1_murmur_hash1___implementation.html" target="_top" xlink:title=" ">
<polygon fill="white" stroke="#666666" points="488.25,-132 312.5,-132 312.5,-100 488.25,-100 488.25,-132"/>
<text text-anchor="start" x="320.5" y="-118.5" font-family="Helvetica,sans-Serif" font-size="10.00">Data.HashFunction.Murmur</text>
<text text-anchor="middle" x="400.38" y="-106.5" font-family="Helvetica,sans-Serif" font-size="10.00">Hash.MurmurHash1_Implementation</text>
</a>
</g>
</g>
<!-- Node1&#45;&gt;Node30 -->
<g id="edge29_Node000001_Node000030" class="edge">
<title>Node1&#45;&gt;Node30</title>
<g id="a_edge29_Node000001_Node000030"><a xlink:title=" ">
<path fill="none" stroke="#63b8ff" d="M207.98,-240.49C226.94,-211.93 261.44,-166.33 302.75,-141 308.07,-137.74 313.8,-134.9 319.73,-132.43"/>
<polygon fill="#63b8ff" stroke="#63b8ff" points="205.26,-238.26 202.76,-248.55 211.14,-242.06 205.26,-238.26"/>
</a>
</g>
</g>
<!-- Node31 -->
<g id="Node000031" class="node">
<title>Node31</title>
<g id="a_Node000031"><a xlink:href="class_data_1_1_hash_function_1_1_murmur_hash_1_1_murmur_hash2___implementation.html" target="_top" xlink:title=" ">
<polygon fill="white" stroke="#666666" points="488.25,-82 312.5,-82 312.5,-50 488.25,-50 488.25,-82"/>
<text text-anchor="start" x="320.5" y="-68.5" font-family="Helvetica,sans-Serif" font-size="10.00">Data.HashFunction.Murmur</text>
<text text-anchor="middle" x="400.38" y="-56.5" font-family="Helvetica,sans-Serif" font-size="10.00">Hash.MurmurHash2_Implementation</text>
</a>
</g>
</g>
<!-- Node1&#45;&gt;Node31 -->
<g id="edge30_Node000001_Node000031" class="edge">
<title>Node1&#45;&gt;Node31</title>
<g id="a_edge30_Node000001_Node000031"><a xlink:title=" ">
<path fill="none" stroke="#63b8ff" d="M201.82,-239.1C217.02,-200.32 250.44,-129.17 302.75,-91 307.23,-87.73 312.1,-84.89 317.19,-82.42"/>
<polygon fill="#63b8ff" stroke="#63b8ff" points="198.65,-237.57 198.38,-248.16 205.2,-240.05 198.65,-237.57"/>
</a>
</g>
</g>
<!-- Node32 -->
<g id="Node000032" class="node">
<title>Node32</title>
<g id="a_Node000032"><a xlink:href="class_data_1_1_hash_function_1_1_test_1_1___mocks_1_1_hash_function_impl.html" target="_top" xlink:title=" ">
<polygon fill="white" stroke="#666666" points="466.88,-32 333.88,-32 333.88,0 466.88,0 466.88,-32"/>
<text text-anchor="start" x="341.88" y="-18.5" font-family="Helvetica,sans-Serif" font-size="10.00">Data.HashFunction.Test.</text>
<text text-anchor="middle" x="400.38" y="-6.5" font-family="Helvetica,sans-Serif" font-size="10.00">_Mocks.HashFunctionImpl</text>
</a>
</g>
</g>
<!-- Node1&#45;&gt;Node32 -->
<g id="edge31_Node000001_Node000032" class="edge">
<title>Node1&#45;&gt;Node32</title>
<g id="a_edge31_Node000001_Node000032"><a xlink:title=" ">
<path fill="none" stroke="#63b8ff" d="M197.81,-238.84C209,-191.3 238.84,-93.08 302.75,-41 311.68,-33.72 322.49,-28.54 333.61,-24.85"/>
<polygon fill="#63b8ff" stroke="#63b8ff" points="194.46,-237.78 195.69,-248.31 201.29,-239.31 194.46,-237.78"/>
</a>
</g>
</g>
<!-- Node2 -->
<g id="Node000002" class="node">
<title>Node2</title>
<g id="a_Node000002"><a xlink:href="interface_data_1_1_hash_function_1_1_i_hash_function.html" target="_top" xlink:title="Common interface to non&#45;cryptographic hash functions.">
<polygon fill="white" stroke="#666666" points="79.75,-276 0,-276 0,-256 79.75,-256 79.75,-276"/>
<text text-anchor="middle" x="39.88" y="-262.5" font-family="Helvetica,sans-Serif" font-size="10.00">IHashFunction</text>
</a>
</g>
</g>
<!-- Node2&#45;&gt;Node1 -->
<g id="edge1_Node000001_Node000002" class="edge">
<title>Node2&#45;&gt;Node1</title>
<g id="a_edge1_Node000001_Node000002"><a xlink:title=" ">
<path fill="none" stroke="#63b8ff" d="M91.49,-266C99.21,-266 107.31,-266 115.42,-266"/>
<polygon fill="#63b8ff" stroke="#63b8ff" points="91.64,-262.5 81.64,-266 91.64,-269.5 91.64,-262.5"/>
</a>
</g>
</g>
<!-- Node6 -->
<g id="Node000006" class="node">
<title>Node6</title>
<g id="a_Node000006"><a xlink:href="class_data_1_1_hash_function_1_1_bernstein_hash_1_1_bernstein_hash___implementation.html" target="_top" xlink:title=" ">
<polygon fill="white" stroke="#666666" points="714.62,-807 535.88,-807 535.88,-775 714.62,-775 714.62,-807"/>
<text text-anchor="start" x="543.88" y="-793.5" font-family="Helvetica,sans-Serif" font-size="10.00">Data.HashFunction.Bernstein</text>
<text text-anchor="middle" x="625.25" y="-781.5" font-family="Helvetica,sans-Serif" font-size="10.00">Hash.BernsteinHash_Implementation</text>
</a>
</g>
</g>
<!-- Node5&#45;&gt;Node6 -->
<g id="edge5_Node000005_Node000006" class="edge">
<title>Node5&#45;&gt;Node6</title>
<g id="a_edge5_Node000005_Node000006"><a xlink:title=" ">
<path fill="none" stroke="#63b8ff" d="M496.92,-439.79C497.29,-440.19 497.65,-440.59 498,-441 593.17,-550.83 439.77,-655.36 534,-766 536.74,-769.22 539.86,-772.04 543.24,-774.51"/>
<polygon fill="#63b8ff" stroke="#63b8ff" points="499.43,-437.34 489.62,-433.34 494.79,-442.58 499.43,-437.34"/>
</a>
</g>
</g>
<!-- Node7 -->
<g id="Node000007" class="node">
<title>Node7</title>
<g id="a_Node000007"><a xlink:href="class_data_1_1_hash_function_1_1_bernstein_hash_1_1_modified_bernstein_hash___implementation.html" target="_top" xlink:title=" ">
<polygon fill="white" stroke="#666666" points="697.75,-757 552.75,-757 552.75,-713 697.75,-713 697.75,-757"/>
<text text-anchor="start" x="560.75" y="-743.5" font-family="Helvetica,sans-Serif" font-size="10.00">Data.HashFunction.Bernstein</text>
<text text-anchor="start" x="560.75" y="-731.5" font-family="Helvetica,sans-Serif" font-size="10.00">Hash.ModifiedBernsteinHash</text>
<text text-anchor="middle" x="625.25" y="-719.5" font-family="Helvetica,sans-Serif" font-size="10.00">_Implementation</text>
</a>
</g>
</g>
<!-- Node5&#45;&gt;Node7 -->
<g id="edge6_Node000005_Node000007" class="edge">
<title>Node5&#45;&gt;Node7</title>
<g id="a_edge6_Node000005_Node000007"><a xlink:title=" ">
<path fill="none" stroke="#63b8ff" d="M496.9,-439.8C497.27,-440.2 497.64,-440.6 498,-441 576.4,-529.16 459.09,-612.86 534,-704 539.05,-710.14 545.38,-715.07 552.33,-719.03"/>
<polygon fill="#63b8ff" stroke="#63b8ff" points="499.38,-437.32 489.53,-433.41 494.79,-442.61 499.38,-437.32"/>
</a>
</g>
</g>
<!-- Node8 -->
<g id="Node000008" class="node">
<title>Node8</title>
<g id="a_Node000008"><a xlink:href="class_data_1_1_hash_function_1_1_blake2_1_1_blake2_b___implementation.html" target="_top" xlink:title=" ">
<polygon fill="white" stroke="#666666" points="693.62,-695 556.88,-695 556.88,-663 693.62,-663 693.62,-695"/>
<text text-anchor="start" x="564.88" y="-681.5" font-family="Helvetica,sans-Serif" font-size="10.00">Data.HashFunction.Blake2.</text>
<text text-anchor="middle" x="625.25" y="-669.5" font-family="Helvetica,sans-Serif" font-size="10.00">Blake2B_Implementation</text>
</a>
</g>
</g>
<!-- Node5&#45;&gt;Node8 -->
<g id="edge7_Node000005_Node000008" class="edge">
<title>Node5&#45;&gt;Node8</title>
<g id="a_edge7_Node000005_Node000008"><a xlink:title=" ">
<path fill="none" stroke="#63b8ff" d="M496.54,-439.47C497.04,-439.97 497.52,-440.48 498,-441 562.92,-511.74 469.69,-582.71 534,-654 540.21,-660.88 548.13,-665.94 556.68,-669.64"/>
<polygon fill="#63b8ff" stroke="#63b8ff" points="498.93,-436.9 489,-433.21 494.46,-442.29 498.93,-436.9"/>
</a>
</g>
</g>
<!-- Node9 -->
<g id="Node000009" class="node">
<title>Node9</title>
<g id="a_Node000009"><a xlink:href="class_data_1_1_hash_function_1_1_buz_hash_1_1_buz_hash___implementation.html" target="_top" xlink:title=" ">
<polygon fill="white" stroke="#666666" points="698.88,-645 551.62,-645 551.62,-613 698.88,-613 698.88,-645"/>
<text text-anchor="start" x="559.62" y="-631.5" font-family="Helvetica,sans-Serif" font-size="10.00">Data.HashFunction.BuzHash.</text>
<text text-anchor="middle" x="625.25" y="-619.5" font-family="Helvetica,sans-Serif" font-size="10.00">BuzHash_Implementation</text>
</a>
</g>
</g>
<!-- Node5&#45;&gt;Node9 -->
<g id="edge8_Node000005_Node000009" class="edge">
<title>Node5&#45;&gt;Node9</title>
<g id="a_edge8_Node000005_Node000009"><a xlink:title=" ">
<path fill="none" stroke="#63b8ff" d="M496.51,-439.51C497.01,-440 497.51,-440.49 498,-441 549.51,-494.39 482.94,-550.17 534,-604 538.92,-609.19 544.82,-613.34 551.21,-616.64"/>
<polygon fill="#63b8ff" stroke="#63b8ff" points="498.82,-436.88 488.82,-433.37 494.45,-442.35 498.82,-436.88"/>
</a>
</g>
</g>
<!-- Node10 -->
<g id="Node000010" class="node">
<title>Node10</title>
<g id="a_Node000010"><a xlink:href="class_data_1_1_hash_function_1_1_c_r_c_1_1_c_r_c___implementation.html" target="_top" xlink:title=" ">
<polygon fill="white" stroke="#666666" points="701.12,-595 549.38,-595 549.38,-563 701.12,-563 701.12,-595"/>
<text text-anchor="start" x="557.38" y="-581.5" font-family="Helvetica,sans-Serif" font-size="10.00">Data.HashFunction.CRC.CRC</text>
<text text-anchor="middle" x="625.25" y="-569.5" font-family="Helvetica,sans-Serif" font-size="10.00">_Implementation</text>
</a>
</g>
</g>
<!-- Node5&#45;&gt;Node10 -->
<g id="edge9_Node000005_Node000010" class="edge">
<title>Node5&#45;&gt;Node10</title>
<g id="a_edge9_Node000005_Node000010"><a xlink:title=" ">
<path fill="none" stroke="#63b8ff" d="M495.63,-438.87C496.44,-439.56 497.23,-440.27 498,-441 536.29,-477.23 496.02,-517.45 534,-554 538.45,-558.28 543.57,-561.85 549.06,-564.81"/>
<polygon fill="#63b8ff" stroke="#63b8ff" points="497.79,-436.11 487.63,-433.12 493.7,-441.8 497.79,-436.11"/>
</a>
</g>
</g>
<!-- Node11 -->
<g id="Node000011" class="node">
<title>Node11</title>
<g id="a_Node000011"><a xlink:href="class_data_1_1_hash_function_1_1_e_l_f64_1_1_e_l_f64___implementation.html" target="_top" xlink:title=" ">
<polygon fill="white" stroke="#666666" points="692.88,-545 557.62,-545 557.62,-513 692.88,-513 692.88,-545"/>
<text text-anchor="start" x="565.62" y="-531.5" font-family="Helvetica,sans-Serif" font-size="10.00">Data.HashFunction.ELF64.</text>
<text text-anchor="middle" x="625.25" y="-519.5" font-family="Helvetica,sans-Serif" font-size="10.00">ELF64_Implementation</text>
</a>
</g>
</g>
<!-- Node5&#45;&gt;Node11 -->
<g id="edge10_Node000005_Node000011" class="edge">
<title>Node5&#45;&gt;Node11</title>
<g id="a_edge10_Node000005_Node000011"><a xlink:title=" ">
<path fill="none" stroke="#63b8ff" d="M493.89,-438.07C495.29,-439 496.67,-439.98 498,-441 523.63,-460.58 508.54,-484.2 534,-504 540.93,-509.39 548.95,-513.62 557.3,-516.93"/>
<polygon fill="#63b8ff" stroke="#63b8ff" points="495.91,-435.19 485.51,-433.19 492.4,-441.24 495.91,-435.19"/>
</a>
</g>
</g>
<!-- Node12 -->
<g id="Node000012" class="node">
<title>Node12</title>
<g id="a_Node000012"><a xlink:href="class_data_1_1_hash_function_1_1_f_n_v_1_1_f_n_v1_base.html" target="_top" xlink:title=" ">
<polygon fill="white" stroke="#666666" points="712.38,-495 538.12,-495 538.12,-475 712.38,-475 712.38,-495"/>
<text text-anchor="middle" x="625.25" y="-481.5" font-family="Helvetica,sans-Serif" font-size="10.00">Data.HashFunction.FNV.FNV1Base</text>
</a>
</g>
</g>
<!-- Node5&#45;&gt;Node12 -->
<g id="edge11_Node000005_Node000012" class="edge">
<title>Node5&#45;&gt;Node12</title>
<g id="a_edge11_Node000005_Node000012"><a xlink:title=" ">
<path fill="none" stroke="#63b8ff" d="M486.95,-436.36C490.73,-437.82 494.43,-439.36 498,-441 515.71,-449.12 516.11,-458.28 534,-466 541.94,-469.42 550.54,-472.25 559.18,-474.58"/>
<polygon fill="#63b8ff" stroke="#63b8ff" points="488.18,-433.08 477.59,-433.01 485.82,-439.67 488.18,-433.08"/>
</a>
</g>
</g>
<!-- Node16 -->
<g id="Node000016" class="node">
<title>Node16</title>
<g id="a_Node000016"><a xlink:href="class_data_1_1_hash_function_1_1_jenkins_1_1_jenkins_lookup2___implementation.html" target="_top" xlink:title=" ">
<polygon fill="white" stroke="#666666" points="704.5,-457 546,-457 546,-425 704.5,-425 704.5,-457"/>
<text text-anchor="start" x="554" y="-443.5" font-family="Helvetica,sans-Serif" font-size="10.00">Data.HashFunction.Jenkins.</text>
<text text-anchor="middle" x="625.25" y="-431.5" font-family="Helvetica,sans-Serif" font-size="10.00">JenkinsLookup2_Implementation</text>
</a>
</g>
</g>
<!-- Node5&#45;&gt;Node16 -->
<g id="edge15_Node000005_Node000016" class="edge">
<title>Node5&#45;&gt;Node16</title>
<g id="a_edge15_Node000005_Node000016"><a xlink:title=" ">
<path fill="none" stroke="#63b8ff" d="M500.9,-427.16C515.96,-428.85 531.31,-430.57 545.83,-432.2"/>
<polygon fill="#63b8ff" stroke="#63b8ff" points="501.29,-423.69 490.97,-426.05 500.51,-430.64 501.29,-423.69"/>
</a>
</g>
</g>
<!-- Node17 -->
<g id="Node000017" class="node">
<title>Node17</title>
<g id="a_Node000017"><a xlink:href="class_data_1_1_hash_function_1_1_jenkins_1_1_jenkins_one_at_a_time___implementation.html" target="_top" xlink:title=" ">
<polygon fill="white" stroke="#666666" points="713.88,-407 536.62,-407 536.62,-375 713.88,-375 713.88,-407"/>
<text text-anchor="start" x="544.62" y="-393.5" font-family="Helvetica,sans-Serif" font-size="10.00">Data.HashFunction.Jenkins.</text>
<text text-anchor="middle" x="625.25" y="-381.5" font-family="Helvetica,sans-Serif" font-size="10.00">JenkinsOneAtATime_Implementation</text>
</a>
</g>
</g>
<!-- Node5&#45;&gt;Node17 -->
<g id="edge16_Node000005_Node000017" class="edge">
<title>Node5&#45;&gt;Node17</title>
<g id="a_edge16_Node000005_Node000017"><a xlink:title=" ">
<path fill="none" stroke="#63b8ff" d="M500.78,-404.85C512.67,-403.52 524.73,-402.16 536.44,-400.85"/>
<polygon fill="#63b8ff" stroke="#63b8ff" points="500.51,-401.36 490.97,-405.95 501.29,-408.31 500.51,-401.36"/>
</a>
</g>
</g>
<!-- Node18 -->
<g id="Node000018" class="node">
<title>Node18</title>
<g id="a_Node000018"><a xlink:href="class_data_1_1_hash_function_1_1_metro_hash_1_1_metro_hash128___implementation.html" target="_top" xlink:title=" ">
<polygon fill="white" stroke="#666666" points="702.62,-357 547.88,-357 547.88,-325 702.62,-325 702.62,-357"/>
<text text-anchor="start" x="555.88" y="-343.5" font-family="Helvetica,sans-Serif" font-size="10.00">Data.HashFunction.MetroHash.</text>
<text text-anchor="middle" x="625.25" y="-331.5" font-family="Helvetica,sans-Serif" font-size="10.00">MetroHash128_Implementation</text>
</a>
</g>
</g>
<!-- Node5&#45;&gt;Node18 -->
<g id="edge17_Node000005_Node000018" class="edge">
<title>Node5&#45;&gt;Node18</title>
<g id="a_edge17_Node000005_Node000018"><a xlink:title=" ">
<path fill="none" stroke="#63b8ff" d="M486.95,-395.64C490.73,-394.18 494.43,-392.64 498,-391 515.71,-382.88 516.36,-374.27 534,-366 540.77,-362.82 548.02,-359.98 555.36,-357.46"/>
<polygon fill="#63b8ff" stroke="#63b8ff" points="485.82,-392.33 477.59,-398.99 488.18,-398.92 485.82,-392.33"/>
</a>
</g>
</g>
<!-- Node19 -->
<g id="Node000019" class="node">
<title>Node19</title>
<g id="a_Node000019"><a xlink:href="class_data_1_1_hash_function_1_1_metro_hash_1_1_metro_hash64___implementation.html" target="_top" xlink:title=" ">
<polygon fill="white" stroke="#666666" points="702.62,-307 547.88,-307 547.88,-275 702.62,-275 702.62,-307"/>
<text text-anchor="start" x="555.88" y="-293.5" font-family="Helvetica,sans-Serif" font-size="10.00">Data.HashFunction.MetroHash.</text>
<text text-anchor="middle" x="625.25" y="-281.5" font-family="Helvetica,sans-Serif" font-size="10.00">MetroHash64_Implementation</text>
</a>
</g>
</g>
<!-- Node5&#45;&gt;Node19 -->
<g id="edge18_Node000005_Node000019" class="edge">
<title>Node5&#45;&gt;Node19</title>
<g id="a_edge18_Node000005_Node000019"><a xlink:title=" ">
<path fill="none" stroke="#63b8ff" d="M494.52,-393.68C495.71,-392.82 496.87,-391.93 498,-391 526.56,-367.51 505.64,-339.73 534,-316 538.11,-312.56 542.67,-309.59 547.48,-307.02"/>
<polygon fill="#63b8ff" stroke="#63b8ff" points="492.85,-390.6 486.23,-398.87 496.56,-396.54 492.85,-390.6"/>
</a>
</g>
</g>
<!-- Node20 -->
<g id="Node000020" class="node">
<title>Node20</title>
<g id="a_Node000020"><a xlink:href="class_data_1_1_hash_function_1_1_murmur_hash_1_1_murmur_hash3___implementation.html" target="_top" xlink:title=" ">
<polygon fill="white" stroke="#666666" points="713.12,-257 537.38,-257 537.38,-225 713.12,-225 713.12,-257"/>
<text text-anchor="start" x="545.38" y="-243.5" font-family="Helvetica,sans-Serif" font-size="10.00">Data.HashFunction.Murmur</text>
<text text-anchor="middle" x="625.25" y="-231.5" font-family="Helvetica,sans-Serif" font-size="10.00">Hash.MurmurHash3_Implementation</text>
</a>
</g>
</g>
<!-- Node5&#45;&gt;Node20 -->
<g id="edge19_Node000005_Node000020" class="edge">
<title>Node5&#45;&gt;Node20</title>
<g id="a_edge19_Node000005_Node000020"><a xlink:title=" ">
<path fill="none" stroke="#63b8ff" d="M496.08,-392.79C496.73,-392.21 497.37,-391.61 498,-391 539.43,-350.68 492.91,-306.67 534,-266 537.35,-262.68 541.1,-259.8 545.12,-257.29"/>
<polygon fill="#63b8ff" stroke="#63b8ff" points="494.08,-389.91 488.17,-398.7 498.27,-395.52 494.08,-389.91"/>
</a>
</g>
</g>
<!-- Node21 -->
<g id="Node000021" class="node">
<title>Node21</title>
<g id="a_Node000021"><a xlink:href="class_data_1_1_hash_function_1_1_pearson_1_1_pearson___implementation.html" target="_top" xlink:title=" ">
<polygon fill="white" stroke="#666666" points="696.62,-207 553.88,-207 553.88,-175 696.62,-175 696.62,-207"/>
<text text-anchor="start" x="561.88" y="-193.5" font-family="Helvetica,sans-Serif" font-size="10.00">Data.HashFunction.Pearson.</text>
<text text-anchor="middle" x="625.25" y="-181.5" font-family="Helvetica,sans-Serif" font-size="10.00">Pearson_Implementation</text>
</a>
</g>
</g>
<!-- Node5&#45;&gt;Node21 -->
<g id="edge20_Node000005_Node000021" class="edge">
<title>Node5&#45;&gt;Node21</title>
<g id="a_edge20_Node000005_Node000021"><a xlink:title=" ">
<path fill="none" stroke="#63b8ff" d="M496.52,-392.5C497.02,-392.01 497.51,-391.51 498,-391 552.72,-333.46 479.77,-274.01 534,-216 539.55,-210.06 546.38,-205.49 553.77,-201.98"/>
<polygon fill="#63b8ff" stroke="#63b8ff" points="494.45,-389.67 488.87,-398.68 498.85,-395.12 494.45,-389.67"/>
</a>
</g>
</g>
<!-- Node22 -->
<g id="Node000022" class="node">
<title>Node22</title>
<g id="a_Node000022"><a xlink:href="class_data_1_1_hash_function_1_1_spooky_hash_1_1_spooky_hash_v1___implementation.html" target="_top" xlink:title=" ">
<polygon fill="white" stroke="#666666" points="716.5,-157 534,-157 534,-125 716.5,-125 716.5,-157"/>
<text text-anchor="start" x="542" y="-143.5" font-family="Helvetica,sans-Serif" font-size="10.00">Data.HashFunction.Spooky</text>
<text text-anchor="middle" x="625.25" y="-131.5" font-family="Helvetica,sans-Serif" font-size="10.00">Hash.SpookyHashV1_Implementation</text>
</a>
</g>
</g>
<!-- Node5&#45;&gt;Node22 -->
<g id="edge21_Node000005_Node000022" class="edge">
<title>Node5&#45;&gt;Node22</title>
<g id="a_edge21_Node000005_Node000022"><a xlink:title=" ">
<path fill="none" stroke="#63b8ff" d="M496.55,-392.53C497.04,-392.03 497.53,-391.52 498,-391 566.15,-316.09 466.49,-241.49 534,-166 536.93,-162.73 540.24,-159.87 543.82,-157.37"/>
<polygon fill="#63b8ff" stroke="#63b8ff" points="494.46,-389.72 489.03,-398.82 498.95,-395.09 494.46,-389.72"/>
</a>
</g>
</g>
<!-- Node23 -->
<g id="Node000023" class="node">
<title>Node23</title>
<g id="a_Node000023"><a xlink:href="class_data_1_1_hash_function_1_1_spooky_hash_1_1_spooky_hash_v2___implementation.html" target="_top" xlink:title=" ">
<polygon fill="white" stroke="#666666" points="716.5,-107 534,-107 534,-75 716.5,-75 716.5,-107"/>
<text text-anchor="start" x="542" y="-93.5" font-family="Helvetica,sans-Serif" font-size="10.00">Data.HashFunction.Spooky</text>
<text text-anchor="middle" x="625.25" y="-81.5" font-family="Helvetica,sans-Serif" font-size="10.00">Hash.SpookyHashV2_Implementation</text>
</a>
</g>
</g>
<!-- Node5&#45;&gt;Node23 -->
<g id="edge22_Node000005_Node000023" class="edge">
<title>Node5&#45;&gt;Node23</title>
<g id="a_edge22_Node000005_Node000023"><a xlink:title=" ">
<path fill="none" stroke="#63b8ff" d="M496.91,-392.2C497.28,-391.81 497.64,-391.41 498,-391 579.64,-298.65 453.15,-209.05 534,-116 536.88,-112.69 540.16,-109.79 543.71,-107.27"/>
<polygon fill="#63b8ff" stroke="#63b8ff" points="494.79,-389.4 489.55,-398.6 499.39,-394.68 494.79,-389.4"/>
</a>
</g>
</g>
<!-- Node24 -->
<g id="Node000024" class="node">
<title>Node24</title>
<g id="a_Node000024"><a xlink:href="class_data_1_1_hash_function_1_1xx_hash_1_1xx_hash___implementation.html" target="_top" xlink:title=" ">
<polygon fill="white" stroke="#666666" points="700.75,-57 549.75,-57 549.75,-25 700.75,-25 700.75,-57"/>
<text text-anchor="start" x="557.75" y="-43.5" font-family="Helvetica,sans-Serif" font-size="10.00">Data.HashFunction.xxHash.xx</text>
<text text-anchor="middle" x="625.25" y="-31.5" font-family="Helvetica,sans-Serif" font-size="10.00">Hash_Implementation</text>
</a>
</g>
</g>
<!-- Node5&#45;&gt;Node24 -->
<g id="edge23_Node000005_Node000024" class="edge">
<title>Node5&#45;&gt;Node24</title>
<g id="a_edge23_Node000005_Node000024"><a xlink:title=" ">
<path fill="none" stroke="#63b8ff" d="M496.92,-392.21C497.29,-391.81 497.65,-391.41 498,-391 593.17,-281.17 439.77,-176.64 534,-66 538.32,-60.93 543.57,-56.83 549.35,-53.54"/>
<polygon fill="#63b8ff" stroke="#63b8ff" points="494.79,-389.42 489.62,-398.66 499.43,-394.66 494.79,-389.42"/>
</a>
</g>
</g>
<!-- Node13 -->
<g id="Node000013" class="node">
<title>Node13</title>
<g id="a_Node000013"><a xlink:href="class_data_1_1_hash_function_1_1_f_n_v_1_1_f_n_v1___implementation.html" target="_top" xlink:title=" ">
<polygon fill="white" stroke="#666666" points="906.88,-551 755.12,-551 755.12,-519 906.88,-519 906.88,-551"/>
<text text-anchor="start" x="763.12" y="-537.5" font-family="Helvetica,sans-Serif" font-size="10.00">Data.HashFunction.FNV.FNV1</text>
<text text-anchor="middle" x="831" y="-525.5" font-family="Helvetica,sans-Serif" font-size="10.00">_Implementation</text>
</a>
</g>
</g>
<!-- Node12&#45;&gt;Node13 -->
<g id="edge12_Node000012_Node000013" class="edge">
<title>Node12&#45;&gt;Node13</title>
<g id="a_edge12_Node000012_Node000013"><a xlink:title=" ">
<path fill="none" stroke="#63b8ff" d="M689.39,-497.8C698.51,-499.79 707.76,-501.89 716.5,-504 734.77,-508.41 754.56,-513.66 772.43,-518.57"/>
<polygon fill="#63b8ff" stroke="#63b8ff" points="690.38,-494.43 679.87,-495.75 688.91,-501.27 690.38,-494.43"/>
</a>
</g>
</g>
<!-- Node14 -->
<g id="Node000014" class="node">
<title>Node14</title>
<g id="a_Node000014"><a xlink:href="class_data_1_1_hash_function_1_1_f_n_v_1_1_f_n_v1a___implementation.html" target="_top" xlink:title=" ">
<polygon fill="white" stroke="#666666" points="909.5,-501 752.5,-501 752.5,-469 909.5,-469 909.5,-501"/>
<text text-anchor="start" x="760.5" y="-487.5" font-family="Helvetica,sans-Serif" font-size="10.00">Data.HashFunction.FNV.FNV1a</text>
<text text-anchor="middle" x="831" y="-475.5" font-family="Helvetica,sans-Serif" font-size="10.00">_Implementation</text>
</a>
</g>
</g>
<!-- Node12&#45;&gt;Node14 -->
<g id="edge13_Node000012_Node000014" class="edge">
<title>Node12&#45;&gt;Node14</title>
<g id="a_edge13_Node000012_Node000014"><a xlink:title=" ">
<path fill="none" stroke="#63b8ff" d="M724.11,-485C733.53,-485 742.99,-485 752.18,-485"/>
<polygon fill="#63b8ff" stroke="#63b8ff" points="724.17,-481.5 714.17,-485 724.17,-488.5 724.17,-481.5"/>
</a>
</g>
</g>
<!-- Node15 -->
<g id="Node000015" class="node">
<title>Node15</title>
<g id="a_Node000015"><a xlink:href="class_data_1_1_hash_function_1_1_test_1_1_f_n_v_1_1_f_n_v1_base___tests_1_1_f_n_v1_impl.html" target="_top" xlink:title=" ">
<polygon fill="white" stroke="#666666" points="905,-451 757,-451 757,-419 905,-419 905,-451"/>
<text text-anchor="start" x="765" y="-437.5" font-family="Helvetica,sans-Serif" font-size="10.00">Data.HashFunction.Test.FNV.</text>
<text text-anchor="middle" x="831" y="-425.5" font-family="Helvetica,sans-Serif" font-size="10.00">FNV1Base_Tests.FNV1Impl</text>
</a>
</g>
</g>
<!-- Node12&#45;&gt;Node15 -->
<g id="edge14_Node000012_Node000015" class="edge">
<title>Node12&#45;&gt;Node15</title>
<g id="a_edge14_Node000012_Node000015"><a xlink:title=" ">
<path fill="none" stroke="#63b8ff" d="M689.39,-472.2C698.51,-470.21 707.76,-468.11 716.5,-466 734.77,-461.59 754.56,-456.34 772.43,-451.43"/>
<polygon fill="#63b8ff" stroke="#63b8ff" points="688.91,-468.73 679.87,-474.25 690.38,-475.57 688.91,-468.73"/>
</a>
</g>
</g>
</g>
</svg>

<g id="navigator" transform="translate(0 0)" fill="#404254">
  <rect fill="#f2f5e9" fill-opacity="0.5" stroke="#606060" stroke-width=".5" x="0" y="0" width="60" height="60"/>
  <use id="zoomplus" xlink:href="#zoomPlus" x="17" y="9" onmousedown="handleZoom(evt,'in')"/>
  <use id="zoomminus" xlink:href="#zoomMin" x="42" y="9" onmousedown="handleZoom(evt,'out')"/>
  <use id="reset" xlink:href="#resetDef" x="30" y="36" onmousedown="handleReset()"/>
   <use id="arrowup" xlink:href="#arrowUp" x="0" y="0" onmousedown="handlePan(0,-1)"/>
  <use id="arrowright" xlink:href="#arrowRight" x="0" y="0" onmousedown="handlePan(1,0)"/>
  <use id="arrowdown" xlink:href="#arrowDown" x="0" y="0" onmousedown="handlePan(0,1)"/>
  <use id="arrowleft" xlink:href="#arrowLeft" x="0" y="0" onmousedown="handlePan(-1,0)"/>
</g>
<svg viewBox="0 0 15 15" width="100%" height="30px" preserveAspectRatio="xMaxYMin meet">
 <g id="arrow_out" transform="scale(0.3 0.3)">
  <a xlink:href="class_data_1_1_hash_function_1_1_core_1_1_hash_function_base__inherit__graph_org.svg" target="_base">
   <rect id="button" ry="5" rx="5" y="6" x="6" height="38" width="38"
        fill="#f2f5e9" fill-opacity="0.5" stroke="#606060" stroke-width="1.0"/>
   <path id="arrow"
     d="M 11.500037,31.436501 C 11.940474,20.09759 22.043105,11.32322 32.158766,21.979434 L 37.068811,17.246167 C 37.068811,17.246167 37.088388,32 37.088388,32 L 22.160133,31.978069 C 22.160133,31.978069 26.997745,27.140456 26.997745,27.140456 C 18.528582,18.264221 13.291696,25.230495 11.500037,31.436501 z"
     style="fill:#404040;"/>
  </a>
 </g>
</svg>

<style type='text/css'>
<![CDATA[
[data-mouse-over-selected='false'] { opacity: 0.7; }
[data-mouse-over-selected='true']  { opacity: 1.0; }
]]>
</style>
<script type="application/ecmascript"><![CDATA[
document.addEventListener('DOMContentLoaded', (event) => {
  highlightEdges();
  highlightAdjacentNodes();
});
]]></script>
</svg>
