<?xml version="1.0" encoding="UTF-8" standalone="no"?>
<!DOCTYPE svg PUBLIC "-//W3C//DTD SVG 1.1//EN"
 "http://www.w3.org/Graphics/SVG/1.1/DTD/svg11.dtd">
<!-- Generated by graphviz version 12.2.0 (20241103.1931)
 -->
<!-- Title: Data.HashFunction.CityHash.CityHash_Implementation.ComputeHash32 Pages: 1 -->
<svg width="859pt" height="252pt"
 viewBox="0.00 0.00 858.75 252.00" xmlns="http://www.w3.org/2000/svg" xmlns:xlink="http://www.w3.org/1999/xlink">
<g id="graph0" class="graph" transform="scale(1 1) rotate(0) translate(4 248)">
<title>Data.HashFunction.CityHash.CityHash_Implementation.ComputeHash32</title>
<!-- Node1 -->
<g id="Node000001" class="node">
<title>Node1</title>
<g id="a_Node000001"><a xlink:title=" ">
<polygon fill="#999999" stroke="#666666" points="172,-113 0,-113 0,-69 172,-69 172,-113"/>
<text text-anchor="start" x="8" y="-99.5" font-family="Helvetica,sans-Serif" font-size="10.00">Data.HashFunction.CityHash.</text>
<text text-anchor="start" x="8" y="-87.5" font-family="Helvetica,sans-Serif" font-size="10.00">CityHash_Implementation.Compute</text>
<text text-anchor="middle" x="86" y="-75.5" font-family="Helvetica,sans-Serif" font-size="10.00">Hash32</text>
</a>
</g>
</g>
<!-- Node2 -->
<g id="Node000002" class="node">
<title>Node2</title>
<g id="a_Node000002"><a xlink:href="class_data_1_1_hash_function_1_1_city_hash_1_1_city_hash___implementation.html#a4b79a115075541321d2687daaf1efc7b" target="_top" xlink:title=" ">
<polygon fill="white" stroke="#666666" points="414.12,-82 213.62,-82 213.62,-50 414.12,-50 414.12,-82"/>
<text text-anchor="start" x="221.62" y="-68.5" font-family="Helvetica,sans-Serif" font-size="10.00">Data.HashFunction.CityHash.</text>
<text text-anchor="middle" x="313.88" y="-56.5" font-family="Helvetica,sans-Serif" font-size="10.00">CityHash_Implementation.Hash32Len0to4</text>
</a>
</g>
</g>
<!-- Node1&#45;&gt;Node2 -->
<g id="edge1_Node000001_Node000002" class="edge">
<title>Node1&#45;&gt;Node2</title>
<g id="a_edge1_Node000001_Node000002"><a xlink:title=" ">
<path fill="none" stroke="#63b8ff" d="M172.39,-81.55C182.11,-80.47 192.11,-79.37 202.09,-78.26"/>
<polygon fill="#63b8ff" stroke="#63b8ff" points="202.27,-81.76 211.82,-77.18 201.5,-74.81 202.27,-81.76"/>
</a>
</g>
</g>
<!-- Node6 -->
<g id="Node000006" class="node">
<title>Node6</title>
<g id="a_Node000006"><a xlink:href="class_data_1_1_hash_function_1_1_city_hash_1_1_city_hash___implementation.html#a233e906310a9faef162a4a9749f3f846" target="_top" xlink:title=" ">
<polygon fill="white" stroke="#666666" points="419.38,-32 208.38,-32 208.38,0 419.38,0 419.38,-32"/>
<text text-anchor="start" x="216.38" y="-18.5" font-family="Helvetica,sans-Serif" font-size="10.00">Data.HashFunction.CityHash.</text>
<text text-anchor="middle" x="313.88" y="-6.5" font-family="Helvetica,sans-Serif" font-size="10.00">CityHash_Implementation.Hash32Len13to24</text>
</a>
</g>
</g>
<!-- Node1&#45;&gt;Node6 -->
<g id="edge5_Node000001_Node000006" class="edge">
<title>Node1&#45;&gt;Node6</title>
<g id="a_edge5_Node000001_Node000006"><a xlink:title=" ">
<path fill="none" stroke="#63b8ff" d="M136.38,-68.52C158.06,-59.2 184,-48.77 208,-41 214.05,-39.04 220.33,-37.17 226.69,-35.38"/>
<polygon fill="#63b8ff" stroke="#63b8ff" points="227.23,-38.86 235.97,-32.86 225.4,-32.11 227.23,-38.86"/>
</a>
</g>
</g>
<!-- Node7 -->
<g id="Node000007" class="node">
<title>Node7</title>
<g id="a_Node000007"><a xlink:href="class_data_1_1_hash_function_1_1_city_hash_1_1_city_hash___implementation.html#ad8892efa23c2496e411cad38be0766f9" target="_top" xlink:title=" ">
<polygon fill="white" stroke="#666666" points="419.75,-182 208,-182 208,-150 419.75,-150 419.75,-182"/>
<text text-anchor="start" x="216" y="-168.5" font-family="Helvetica,sans-Serif" font-size="10.00">Data.HashFunction.CityHash.</text>
<text text-anchor="middle" x="313.88" y="-156.5" font-family="Helvetica,sans-Serif" font-size="10.00">CityHash_Implementation.Hash32Len25Plus</text>
</a>
</g>
</g>
<!-- Node1&#45;&gt;Node7 -->
<g id="edge8_Node000001_Node000007" class="edge">
<title>Node1&#45;&gt;Node7</title>
<g id="a_edge8_Node000001_Node000007"><a xlink:title=" ">
<path fill="none" stroke="#63b8ff" d="M136.38,-113.48C158.06,-122.8 184,-133.23 208,-141 214.05,-142.96 220.33,-144.83 226.69,-146.62"/>
<polygon fill="#63b8ff" stroke="#63b8ff" points="225.4,-149.89 235.97,-149.14 227.23,-143.14 225.4,-149.89"/>
</a>
</g>
</g>
<!-- Node10 -->
<g id="Node000010" class="node">
<title>Node10</title>
<g id="a_Node000010"><a xlink:href="class_data_1_1_hash_function_1_1_city_hash_1_1_city_hash___implementation.html#a40769fc2a4242c2337664fac2f97af9e" target="_top" xlink:title=" ">
<polygon fill="white" stroke="#666666" points="416.75,-132 211,-132 211,-100 416.75,-100 416.75,-132"/>
<text text-anchor="start" x="219" y="-118.5" font-family="Helvetica,sans-Serif" font-size="10.00">Data.HashFunction.CityHash.</text>
<text text-anchor="middle" x="313.88" y="-106.5" font-family="Helvetica,sans-Serif" font-size="10.00">CityHash_Implementation.Hash32Len5to12</text>
</a>
</g>
</g>
<!-- Node1&#45;&gt;Node10 -->
<g id="edge12_Node000001_Node000010" class="edge">
<title>Node1&#45;&gt;Node10</title>
<g id="a_edge12_Node000001_Node000010"><a xlink:title=" ">
<path fill="none" stroke="#63b8ff" d="M172.39,-100.45C181.18,-101.42 190.2,-102.42 199.23,-103.42"/>
<polygon fill="#63b8ff" stroke="#63b8ff" points="198.82,-106.9 209.14,-104.52 199.59,-99.94 198.82,-106.9"/>
</a>
</g>
</g>
<!-- Node3 -->
<g id="Node000003" class="node">
<title>Node3</title>
<g id="a_Node000003"><a xlink:href="class_data_1_1_hash_function_1_1_city_hash_1_1_city_hash___implementation.html#ac2fa0ddcbf5ad593d0830669e41bf93c" target="_top" xlink:title=" ">
<polygon fill="white" stroke="#666666" points="616.88,-44 468.88,-44 468.88,-12 616.88,-12 616.88,-44"/>
<text text-anchor="start" x="476.88" y="-30.5" font-family="Helvetica,sans-Serif" font-size="10.00">Data.HashFunction.CityHash.</text>
<text text-anchor="middle" x="542.88" y="-18.5" font-family="Helvetica,sans-Serif" font-size="10.00">CityHash_Implementation.Mix</text>
</a>
</g>
</g>
<!-- Node2&#45;&gt;Node3 -->
<g id="edge2_Node000002_Node000003" class="edge">
<title>Node2&#45;&gt;Node3</title>
<g id="a_edge2_Node000002_Node000003"><a xlink:title=" ">
<path fill="none" stroke="#63b8ff" d="M413.12,-49.55C427.78,-47.1 442.78,-44.59 457.12,-42.19"/>
<polygon fill="#63b8ff" stroke="#63b8ff" points="457.69,-45.64 466.97,-40.54 456.53,-38.74 457.69,-45.64"/>
</a>
</g>
</g>
<!-- Node4 -->
<g id="Node000004" class="node">
<title>Node4</title>
<g id="a_Node000004"><a xlink:href="class_data_1_1_hash_function_1_1_city_hash_1_1_city_hash___implementation.html#a14ecd650e889358aa703defbfcd5f00f" target="_top" xlink:title=" ">
<polygon fill="white" stroke="#666666" points="617.25,-94 468.5,-94 468.5,-62 617.25,-62 617.25,-94"/>
<text text-anchor="start" x="476.5" y="-80.5" font-family="Helvetica,sans-Serif" font-size="10.00">Data.HashFunction.CityHash.</text>
<text text-anchor="middle" x="542.88" y="-68.5" font-family="Helvetica,sans-Serif" font-size="10.00">CityHash_Implementation.Mur</text>
</a>
</g>
</g>
<!-- Node2&#45;&gt;Node4 -->
<g id="edge3_Node000002_Node000004" class="edge">
<title>Node2&#45;&gt;Node4</title>
<g id="a_edge3_Node000002_Node000004"><a xlink:title=" ">
<path fill="none" stroke="#63b8ff" d="M414.44,-71.26C428.59,-72.01 443.03,-72.77 456.86,-73.51"/>
<polygon fill="#63b8ff" stroke="#63b8ff" points="456.64,-77 466.81,-74.03 457.01,-70.01 456.64,-77"/>
</a>
</g>
</g>
<!-- Node5 -->
<g id="Node000005" class="node">
<title>Node5</title>
<g id="a_Node000005"><a xlink:href="class_data_1_1_hash_function_1_1_city_hash_1_1_city_hash___implementation.html#a054a2a634a2a60c58844d08986eef674" target="_top" xlink:title=" ">
<polygon fill="white" stroke="#666666" points="850.75,-116 666,-116 666,-84 850.75,-84 850.75,-116"/>
<text text-anchor="start" x="674" y="-102.5" font-family="Helvetica,sans-Serif" font-size="10.00">Data.HashFunction.CityHash.</text>
<text text-anchor="middle" x="758.38" y="-90.5" font-family="Helvetica,sans-Serif" font-size="10.00">CityHash_Implementation.RotateRight</text>
</a>
</g>
</g>
<!-- Node4&#45;&gt;Node5 -->
<g id="edge4_Node000004_Node000005" class="edge">
<title>Node4&#45;&gt;Node5</title>
<g id="a_edge4_Node000004_Node000005"><a xlink:title=" ">
<path fill="none" stroke="#63b8ff" d="M617.65,-85.6C629.46,-86.82 641.87,-88.1 654.21,-89.37"/>
<polygon fill="#63b8ff" stroke="#63b8ff" points="653.7,-92.84 664.01,-90.38 654.42,-85.87 653.7,-92.84"/>
</a>
</g>
</g>
<!-- Node6&#45;&gt;Node3 -->
<g id="edge6_Node000006_Node000003" class="edge">
<title>Node6&#45;&gt;Node3</title>
<g id="a_edge6_Node000006_Node000003"><a xlink:title=" ">
<path fill="none" stroke="#63b8ff" d="M419.74,-21.54C432.37,-22.21 445.14,-22.89 457.43,-23.54"/>
<polygon fill="#63b8ff" stroke="#63b8ff" points="456.87,-27.01 467.04,-24.04 457.24,-20.02 456.87,-27.01"/>
</a>
</g>
</g>
<!-- Node6&#45;&gt;Node4 -->
<g id="edge7_Node000006_Node000004" class="edge">
<title>Node6&#45;&gt;Node4</title>
<g id="a_edge7_Node000006_Node000004"><a xlink:title=" ">
<path fill="none" stroke="#63b8ff" d="M387.59,-32.46C398.41,-35.16 409.4,-38.05 419.75,-41 435.97,-45.63 439.65,-47.98 455.75,-53 461.42,-54.77 467.31,-56.56 473.23,-58.34"/>
<polygon fill="#63b8ff" stroke="#63b8ff" points="471.84,-61.58 482.42,-61.07 473.83,-54.87 471.84,-61.58"/>
</a>
</g>
</g>
<!-- Node7&#45;&gt;Node5 -->
<g id="edge11_Node000007_Node000005" class="edge">
<title>Node7&#45;&gt;Node5</title>
<g id="a_edge11_Node000007_Node000005"><a xlink:title=" ">
<path fill="none" stroke="#63b8ff" d="M404.59,-149.52C421.56,-146.56 439.19,-143.59 455.75,-141 521.84,-130.65 596.33,-120.51 654.74,-112.9"/>
<polygon fill="#63b8ff" stroke="#63b8ff" points="654.86,-116.42 664.33,-111.66 653.96,-109.47 654.86,-116.42"/>
</a>
</g>
</g>
<!-- Node8 -->
<g id="Node000008" class="node">
<title>Node8</title>
<g id="a_Node000008"><a xlink:href="class_data_1_1_hash_function_1_1_city_hash_1_1_city_hash___implementation.html#a64572cac46377280ca301b79594e205f" target="_top" xlink:title=" ">
<polygon fill="white" stroke="#666666" points="630,-182 455.75,-182 455.75,-150 630,-150 630,-182"/>
<text text-anchor="start" x="463.75" y="-168.5" font-family="Helvetica,sans-Serif" font-size="10.00">Data.HashFunction.CityHash.</text>
<text text-anchor="middle" x="542.88" y="-156.5" font-family="Helvetica,sans-Serif" font-size="10.00">CityHash_Implementation.Permute3</text>
</a>
</g>
</g>
<!-- Node7&#45;&gt;Node8 -->
<g id="edge9_Node000007_Node000008" class="edge">
<title>Node7&#45;&gt;Node8</title>
<g id="a_edge9_Node000007_Node000008"><a xlink:title=" ">
<path fill="none" stroke="#63b8ff" d="M420.07,-166C428.02,-166 436.02,-166 443.92,-166"/>
<polygon fill="#63b8ff" stroke="#63b8ff" points="443.89,-169.5 453.89,-166 443.89,-162.5 443.89,-169.5"/>
</a>
</g>
</g>
<!-- Node9 -->
<g id="Node000009" class="node">
<title>Node9</title>
<g id="a_Node000009"><a xlink:href="class_data_1_1_hash_function_1_1_city_hash_1_1_city_hash___implementation.html#ab22214ef33ce0e9872cac0fc8a214e5f" target="_top" xlink:title=" ">
<polygon fill="white" stroke="#666666" points="627.38,-244 458.38,-244 458.38,-200 627.38,-200 627.38,-244"/>
<text text-anchor="start" x="466.38" y="-230.5" font-family="Helvetica,sans-Serif" font-size="10.00">Data.HashFunction.CityHash.</text>
<text text-anchor="start" x="466.38" y="-218.5" font-family="Helvetica,sans-Serif" font-size="10.00">CityHash_Implementation.Reverse</text>
<text text-anchor="middle" x="542.88" y="-206.5" font-family="Helvetica,sans-Serif" font-size="10.00">ByteOrder</text>
</a>
</g>
</g>
<!-- Node7&#45;&gt;Node9 -->
<g id="edge10_Node000007_Node000009" class="edge">
<title>Node7&#45;&gt;Node9</title>
<g id="a_edge10_Node000007_Node000009"><a xlink:title=" ">
<path fill="none" stroke="#63b8ff" d="M381.75,-182.5C402.23,-187.55 425.15,-193.2 447.11,-198.62"/>
<polygon fill="#63b8ff" stroke="#63b8ff" points="446.13,-201.98 456.68,-200.98 447.8,-195.19 446.13,-201.98"/>
</a>
</g>
</g>
<!-- Node10&#45;&gt;Node3 -->
<g id="edge13_Node000010_Node000003" class="edge">
<title>Node10&#45;&gt;Node3</title>
<g id="a_edge13_Node000010_Node000003"><a xlink:title=" ">
<path fill="none" stroke="#63b8ff" d="M401.72,-99.59C407.99,-97.12 414.08,-94.27 419.75,-91 439.9,-79.38 435.89,-65.11 455.75,-53 457.91,-51.68 460.14,-50.43 462.43,-49.25"/>
<polygon fill="#63b8ff" stroke="#63b8ff" points="463.8,-52.47 471.39,-45.08 460.84,-46.12 463.8,-52.47"/>
</a>
</g>
</g>
<!-- Node10&#45;&gt;Node4 -->
<g id="edge14_Node000010_Node000004" class="edge">
<title>Node10&#45;&gt;Node4</title>
<g id="a_edge14_Node000010_Node000004"><a xlink:title=" ">
<path fill="none" stroke="#63b8ff" d="M413.12,-99.55C427.68,-97.12 442.58,-94.62 456.84,-92.23"/>
<polygon fill="#63b8ff" stroke="#63b8ff" points="457.35,-95.7 466.63,-90.6 456.19,-88.8 457.35,-95.7"/>
</a>
</g>
</g>
</g>
</svg>
