<?xml version="1.0" encoding="UTF-8" standalone="no"?>
<!DOCTYPE svg PUBLIC "-//W3C//DTD SVG 1.1//EN"
 "http://www.w3.org/Graphics/SVG/1.1/DTD/svg11.dtd">
<!-- Generated by graphviz version 12.2.0 (20241103.1931)
 -->
<!-- Title: Data.HashFunction.FarmHash.FarmHashFingerprint32_Implementation.RotateRight Pages: 1 -->
<svg width="905pt" height="238pt"
 viewBox="0.00 0.00 904.50 238.00" xmlns="http://www.w3.org/2000/svg" xmlns:xlink="http://www.w3.org/1999/xlink">
<g id="graph0" class="graph" transform="scale(1 1) rotate(0) translate(4 234)">
<title>Data.HashFunction.FarmHash.FarmHashFingerprint32_Implementation.RotateRight</title>
<!-- Node1 -->
<g id="Node000001" class="node">
<title>Node1</title>
<g id="a_Node000001"><a xlink:title=" ">
<polygon fill="#999999" stroke="#666666" points="896.5,-180 703.5,-180 703.5,-136 896.5,-136 896.5,-180"/>
<text text-anchor="start" x="711.5" y="-166.5" font-family="Helvetica,sans-Serif" font-size="10.00">Data.HashFunction.FarmHash.</text>
<text text-anchor="start" x="711.5" y="-154.5" font-family="Helvetica,sans-Serif" font-size="10.00">FarmHashFingerprint32_Implementation.</text>
<text text-anchor="middle" x="800" y="-142.5" font-family="Helvetica,sans-Serif" font-size="10.00">RotateRight</text>
</a>
</g>
</g>
<!-- Node2 -->
<g id="Node000002" class="node">
<title>Node2</title>
<g id="a_Node000002"><a xlink:href="class_data_1_1_hash_function_1_1_farm_hash_1_1_farm_hash_fingerprint32___implementation.html#a473b3c4fa0816ff5e7ce6392676a5e41" target="_top" xlink:title=" ">
<polygon fill="white" stroke="#666666" points="422,-230 229,-230 229,-186 422,-186 422,-230"/>
<text text-anchor="start" x="237" y="-216.5" font-family="Helvetica,sans-Serif" font-size="10.00">Data.HashFunction.FarmHash.</text>
<text text-anchor="start" x="237" y="-204.5" font-family="Helvetica,sans-Serif" font-size="10.00">FarmHashFingerprint32_Implementation.</text>
<text text-anchor="middle" x="325.5" y="-192.5" font-family="Helvetica,sans-Serif" font-size="10.00">ComputeHash13To24</text>
</a>
</g>
</g>
<!-- Node1&#45;&gt;Node2 -->
<g id="edge1_Node000001_Node000002" class="edge">
<title>Node1&#45;&gt;Node2</title>
<g id="a_edge1_Node000001_Node000002"><a xlink:title=" ">
<path fill="none" stroke="#63b8ff" d="M691.86,-169.34C610.78,-177.92 500.42,-189.6 422.26,-197.87"/>
<polygon fill="#63b8ff" stroke="#63b8ff" points="692.02,-172.84 701.59,-168.31 691.28,-165.88 692.02,-172.84"/>
</a>
</g>
</g>
<!-- Node4 -->
<g id="Node000004" class="node">
<title>Node4</title>
<g id="a_Node000004"><a xlink:href="class_data_1_1_hash_function_1_1_farm_hash_1_1_farm_hash_fingerprint32___implementation.html#a374840e50b5ce18b25898420905c18f0" target="_top" xlink:title=" ">
<polygon fill="white" stroke="#666666" points="422,-168 229,-168 229,-124 422,-124 422,-168"/>
<text text-anchor="start" x="237" y="-154.5" font-family="Helvetica,sans-Serif" font-size="10.00">Data.HashFunction.FarmHash.</text>
<text text-anchor="start" x="237" y="-142.5" font-family="Helvetica,sans-Serif" font-size="10.00">FarmHashFingerprint32_Implementation.</text>
<text text-anchor="middle" x="325.5" y="-130.5" font-family="Helvetica,sans-Serif" font-size="10.00">ComputeHash25Plus</text>
</a>
</g>
</g>
<!-- Node1&#45;&gt;Node4 -->
<g id="edge3_Node000001_Node000004" class="edge">
<title>Node1&#45;&gt;Node4</title>
<g id="a_edge3_Node000001_Node000004"><a xlink:title=" ">
<path fill="none" stroke="#63b8ff" d="M691.86,-155.28C610.78,-153.22 500.42,-150.42 422.26,-148.43"/>
<polygon fill="#63b8ff" stroke="#63b8ff" points="691.5,-158.77 701.58,-155.53 691.68,-151.77 691.5,-158.77"/>
</a>
</g>
</g>
<!-- Node5 -->
<g id="Node000005" class="node">
<title>Node5</title>
<g id="a_Node000005"><a xlink:href="class_data_1_1_hash_function_1_1_farm_hash_1_1_farm_hash_fingerprint32___implementation.html#a8227f28aaeab0238e61f8b97026648f7" target="_top" xlink:title=" ">
<polygon fill="white" stroke="#666666" points="667.5,-130 458,-130 458,-98 667.5,-98 667.5,-130"/>
<text text-anchor="start" x="466" y="-116.5" font-family="Helvetica,sans-Serif" font-size="10.00">Data.HashFunction.FarmHash.</text>
<text text-anchor="middle" x="562.75" y="-104.5" font-family="Helvetica,sans-Serif" font-size="10.00">FarmHashFingerprint32_Implementation.Mur</text>
</a>
</g>
</g>
<!-- Node1&#45;&gt;Node5 -->
<g id="edge5_Node000001_Node000005" class="edge">
<title>Node1&#45;&gt;Node5</title>
<g id="a_edge5_Node000001_Node000005"><a xlink:title=" ">
<path fill="none" stroke="#63b8ff" d="M692.05,-138C678.57,-135.48 664.91,-132.92 651.77,-130.46"/>
<polygon fill="#63b8ff" stroke="#63b8ff" points="691.35,-141.43 701.83,-139.83 692.64,-134.55 691.35,-141.43"/>
</a>
</g>
</g>
<!-- Node3 -->
<g id="Node000003" class="node">
<title>Node3</title>
<g id="a_Node000003"><a xlink:href="class_data_1_1_hash_function_1_1_farm_hash_1_1_farm_hash_fingerprint32___implementation.html#a13076db1601a07f441694e06ae7120e8" target="_top" xlink:title=" ">
<polygon fill="white" stroke="#666666" points="193,-137 0,-137 0,-93 193,-93 193,-137"/>
<text text-anchor="start" x="8" y="-123.5" font-family="Helvetica,sans-Serif" font-size="10.00">Data.HashFunction.FarmHash.</text>
<text text-anchor="start" x="8" y="-111.5" font-family="Helvetica,sans-Serif" font-size="10.00">FarmHashFingerprint32_Implementation.</text>
<text text-anchor="middle" x="96.5" y="-99.5" font-family="Helvetica,sans-Serif" font-size="10.00">ComputeHashInternal</text>
</a>
</g>
</g>
<!-- Node2&#45;&gt;Node3 -->
<g id="edge2_Node000002_Node000003" class="edge">
<title>Node2&#45;&gt;Node3</title>
<g id="a_edge2_Node000002_Node000003"><a xlink:title=" ">
<path fill="none" stroke="#63b8ff" d="M241.39,-181.73C237.18,-180.18 233.03,-178.6 229,-177 199.2,-165.19 166.6,-149.84 141.32,-137.37"/>
<polygon fill="#63b8ff" stroke="#63b8ff" points="239.92,-184.92 250.51,-185 242.28,-178.33 239.92,-184.92"/>
</a>
</g>
</g>
<!-- Node4&#45;&gt;Node3 -->
<g id="edge4_Node000004_Node000003" class="edge">
<title>Node4&#45;&gt;Node3</title>
<g id="a_edge4_Node000004_Node000003"><a xlink:title=" ">
<path fill="none" stroke="#63b8ff" d="M217.34,-131.37C209.37,-130.28 201.36,-129.18 193.46,-128.1"/>
<polygon fill="#63b8ff" stroke="#63b8ff" points="216.68,-134.81 227.06,-132.69 217.63,-127.87 216.68,-134.81"/>
</a>
</g>
</g>
<!-- Node5&#45;&gt;Node2 -->
<g id="edge8_Node000005_Node000002" class="edge">
<title>Node5&#45;&gt;Node2</title>
<g id="a_edge8_Node000005_Node000002"><a xlink:title=" ">
<path fill="none" stroke="#63b8ff" d="M517.65,-135.38C490.41,-148.21 454.55,-164.43 422,-177 414.44,-179.92 406.47,-182.8 398.5,-185.57"/>
<polygon fill="#63b8ff" stroke="#63b8ff" points="519.12,-138.56 526.65,-131.11 516.12,-132.23 519.12,-138.56"/>
</a>
</g>
</g>
<!-- Node5&#45;&gt;Node4 -->
<g id="edge9_Node000005_Node000004" class="edge">
<title>Node5&#45;&gt;Node4</title>
<g id="a_edge9_Node000005_Node000004"><a xlink:title=" ">
<path fill="none" stroke="#63b8ff" d="M446.28,-129.71C438.3,-130.79 430.3,-131.88 422.44,-132.95"/>
<polygon fill="#63b8ff" stroke="#63b8ff" points="446.6,-133.2 456.04,-128.38 445.66,-126.26 446.6,-133.2"/>
</a>
</g>
</g>
<!-- Node6 -->
<g id="Node000006" class="node">
<title>Node6</title>
<g id="a_Node000006"><a xlink:href="class_data_1_1_hash_function_1_1_farm_hash_1_1_farm_hash_fingerprint32___implementation.html#a88ef8742f9a89f23d9bbbd777d8933dd" target="_top" xlink:title=" ">
<polygon fill="white" stroke="#666666" points="422,-106 229,-106 229,-62 422,-62 422,-106"/>
<text text-anchor="start" x="237" y="-92.5" font-family="Helvetica,sans-Serif" font-size="10.00">Data.HashFunction.FarmHash.</text>
<text text-anchor="start" x="237" y="-80.5" font-family="Helvetica,sans-Serif" font-size="10.00">FarmHashFingerprint32_Implementation.</text>
<text text-anchor="middle" x="325.5" y="-68.5" font-family="Helvetica,sans-Serif" font-size="10.00">ComputeHash0To4</text>
</a>
</g>
</g>
<!-- Node5&#45;&gt;Node6 -->
<g id="edge6_Node000005_Node000006" class="edge">
<title>Node5&#45;&gt;Node6</title>
<g id="a_edge6_Node000005_Node000006"><a xlink:title=" ">
<path fill="none" stroke="#63b8ff" d="M446.28,-99.27C438.3,-98.26 430.3,-97.24 422.44,-96.24"/>
<polygon fill="#63b8ff" stroke="#63b8ff" points="445.67,-102.73 456.04,-100.52 446.56,-95.78 445.67,-102.73"/>
</a>
</g>
</g>
<!-- Node7 -->
<g id="Node000007" class="node">
<title>Node7</title>
<g id="a_Node000007"><a xlink:href="class_data_1_1_hash_function_1_1_farm_hash_1_1_farm_hash_fingerprint32___implementation.html#af789b1639bfad6b93d44b84481dcfa68" target="_top" xlink:title=" ">
<polygon fill="white" stroke="#666666" points="422,-44 229,-44 229,0 422,0 422,-44"/>
<text text-anchor="start" x="237" y="-30.5" font-family="Helvetica,sans-Serif" font-size="10.00">Data.HashFunction.FarmHash.</text>
<text text-anchor="start" x="237" y="-18.5" font-family="Helvetica,sans-Serif" font-size="10.00">FarmHashFingerprint32_Implementation.</text>
<text text-anchor="middle" x="325.5" y="-6.5" font-family="Helvetica,sans-Serif" font-size="10.00">ComputeHash5To12</text>
</a>
</g>
</g>
<!-- Node5&#45;&gt;Node7 -->
<g id="edge10_Node000005_Node000007" class="edge">
<title>Node5&#45;&gt;Node7</title>
<g id="a_edge10_Node000005_Node000007"><a xlink:title=" ">
<path fill="none" stroke="#63b8ff" d="M516.48,-92.9C489.35,-80.59 454.01,-65.15 422,-53 414.34,-50.09 406.27,-47.21 398.21,-44.44"/>
<polygon fill="#63b8ff" stroke="#63b8ff" points="514.89,-96.02 525.44,-96.99 517.8,-89.65 514.89,-96.02"/>
</a>
</g>
</g>
<!-- Node6&#45;&gt;Node3 -->
<g id="edge7_Node000006_Node000003" class="edge">
<title>Node6&#45;&gt;Node3</title>
<g id="a_edge7_Node000006_Node000003"><a xlink:title=" ">
<path fill="none" stroke="#63b8ff" d="M217.34,-98.63C209.37,-99.72 201.36,-100.82 193.46,-101.9"/>
<polygon fill="#63b8ff" stroke="#63b8ff" points="217.63,-102.13 227.06,-97.31 216.68,-95.19 217.63,-102.13"/>
</a>
</g>
</g>
<!-- Node7&#45;&gt;Node3 -->
<g id="edge11_Node000007_Node000003" class="edge">
<title>Node7&#45;&gt;Node3</title>
<g id="a_edge11_Node000007_Node000003"><a xlink:title=" ">
<path fill="none" stroke="#63b8ff" d="M241.39,-48.27C237.18,-49.82 233.03,-51.4 229,-53 199.2,-64.81 166.6,-80.16 141.32,-92.63"/>
<polygon fill="#63b8ff" stroke="#63b8ff" points="242.28,-51.67 250.51,-45 239.92,-45.08 242.28,-51.67"/>
</a>
</g>
</g>
</g>
</svg>
