<?xml version="1.0" encoding="UTF-8" standalone="no"?>
<!DOCTYPE svg PUBLIC "-//W3C//DTD SVG 1.1//EN"
 "http://www.w3.org/Graphics/SVG/1.1/DTD/svg11.dtd">
<!-- Generated by graphviz version 12.2.0 (20241103.1931)
 -->
<!-- Title: Data.HashFunction.FarmHash.FarmHashFingerprint32_Implementation.ComputeHash25Plus Pages: 1 -->
<svg width="676pt" height="68pt"
 viewBox="0.00 0.00 675.50 68.00" xmlns="http://www.w3.org/2000/svg" xmlns:xlink="http://www.w3.org/1999/xlink">
<g id="graph0" class="graph" transform="scale(1 1) rotate(0) translate(4 64)">
<title>Data.HashFunction.FarmHash.FarmHashFingerprint32_Implementation.ComputeHash25Plus</title>
<!-- Node1 -->
<g id="Node000001" class="node">
<title>Node1</title>
<g id="a_Node000001"><a xlink:title=" ">
<polygon fill="#999999" stroke="#666666" points="193,-44 0,-44 0,0 193,0 193,-44"/>
<text text-anchor="start" x="8" y="-30.5" font-family="Helvetica,sans-Serif" font-size="10.00">Data.HashFunction.FarmHash.</text>
<text text-anchor="start" x="8" y="-18.5" font-family="Helvetica,sans-Serif" font-size="10.00">FarmHashFingerprint32_Implementation.</text>
<text text-anchor="middle" x="96.5" y="-6.5" font-family="Helvetica,sans-Serif" font-size="10.00">ComputeHash25Plus</text>
</a>
</g>
</g>
<!-- Node2 -->
<g id="Node000002" class="node">
<title>Node2</title>
<g id="a_Node000002"><a xlink:href="class_data_1_1_hash_function_1_1_farm_hash_1_1_farm_hash_fingerprint32___implementation.html#a8227f28aaeab0238e61f8b97026648f7" target="_top" xlink:title=" ">
<polygon fill="white" stroke="#666666" points="438.5,-60 229,-60 229,-28 438.5,-28 438.5,-60"/>
<text text-anchor="start" x="237" y="-46.5" font-family="Helvetica,sans-Serif" font-size="10.00">Data.HashFunction.FarmHash.</text>
<text text-anchor="middle" x="333.75" y="-34.5" font-family="Helvetica,sans-Serif" font-size="10.00">FarmHashFingerprint32_Implementation.Mur</text>
</a>
</g>
</g>
<!-- Node1&#45;&gt;Node2 -->
<g id="edge1_Node000001_Node000002" class="edge">
<title>Node1&#45;&gt;Node2</title>
<g id="a_edge1_Node000001_Node000002"><a xlink:title=" ">
<path fill="none" stroke="#63b8ff" d="M193.19,-30.95C201.14,-31.69 209.23,-32.45 217.31,-33.2"/>
<polygon fill="#63b8ff" stroke="#63b8ff" points="216.92,-36.68 227.2,-34.13 217.57,-29.71 216.92,-36.68"/>
</a>
</g>
</g>
<!-- Node3 -->
<g id="Node000003" class="node">
<title>Node3</title>
<g id="a_Node000003"><a xlink:href="class_data_1_1_hash_function_1_1_farm_hash_1_1_farm_hash_fingerprint32___implementation.html#a21d57c514523c6c665da36acab007585" target="_top" xlink:title=" ">
<polygon fill="white" stroke="#666666" points="667.5,-44 474.5,-44 474.5,0 667.5,0 667.5,-44"/>
<text text-anchor="start" x="482.5" y="-30.5" font-family="Helvetica,sans-Serif" font-size="10.00">Data.HashFunction.FarmHash.</text>
<text text-anchor="start" x="482.5" y="-18.5" font-family="Helvetica,sans-Serif" font-size="10.00">FarmHashFingerprint32_Implementation.</text>
<text text-anchor="middle" x="571" y="-6.5" font-family="Helvetica,sans-Serif" font-size="10.00">RotateRight</text>
</a>
</g>
</g>
<!-- Node1&#45;&gt;Node3 -->
<g id="edge3_Node000001_Node000003" class="edge">
<title>Node1&#45;&gt;Node3</title>
<g id="a_edge3_Node000001_Node000003"><a xlink:title=" ">
<path fill="none" stroke="#63b8ff" d="M193.38,-19.56C205.37,-19.33 217.47,-19.13 229,-19 322.11,-17.94 345.39,-17.94 438.5,-19 446.43,-19.09 454.62,-19.21 462.87,-19.35"/>
<polygon fill="#63b8ff" stroke="#63b8ff" points="462.55,-22.85 472.61,-19.53 462.68,-15.85 462.55,-22.85"/>
</a>
</g>
</g>
<!-- Node2&#45;&gt;Node3 -->
<g id="edge2_Node000002_Node000003" class="edge">
<title>Node2&#45;&gt;Node3</title>
<g id="a_edge2_Node000002_Node000003"><a xlink:title=" ">
<path fill="none" stroke="#63b8ff" d="M438.96,-34.25C446.81,-33.52 454.73,-32.78 462.59,-32.04"/>
<polygon fill="#63b8ff" stroke="#63b8ff" points="462.92,-35.53 472.55,-31.11 462.27,-28.56 462.92,-35.53"/>
</a>
</g>
</g>
</g>
</svg>
