<?xml version="1.0" encoding="UTF-8" standalone="no"?>
<!DOCTYPE svg PUBLIC "-//W3C//DTD SVG 1.1//EN"
 "http://www.w3.org/Graphics/SVG/1.1/DTD/svg11.dtd">
<!-- Generated by graphviz version 12.2.0 (20241103.1931)
 -->
<!-- Title: Data.HashFunction.FNV.FNVConfig.GetPredefinedConfig Pages: 1 -->
<!--zoomable 498 -->

<svg id="main" version="1.1" xmlns="http://www.w3.org/2000/svg" xmlns:xlink="http://www.w3.org/1999/xlink" xml:space="preserve" onload="init(evt)">

<style type="text/css"><![CDATA[
.node, .edge {opacity: 0.7;}
.node.selected, .edge.selected {opacity: 1;}
.edge:hover path { stroke: red; }
.edge:hover polygon { stroke: red; fill: red; }
]]></style>

<defs>
  <circle id="rim" cx="0" cy="0" r="7"/>
  <circle id="rim2" cx="0" cy="0" r="3.5"/>
  <g id="zoomPlus">
    <use xlink:href="#rim" fill="#404040"><set attributeName="fill" to="#808080" begin="zoomplus.mouseover" end="zoomplus.mouseout"/></use>
    <path d="M-4,0h8M0,-4v8" fill="none" stroke="white" stroke-width="1.5" pointer-events="none"/>
  </g>
  <g id="zoomMin">
    <use xlink:href="#rim" fill="#404040"><set attributeName="fill" to="#808080" begin="zoomminus.mouseover" end="zoomminus.mouseout"/></use>
    <path d="M-4,0h8" fill="none" stroke="white" stroke-width="1.5" pointer-events="none"/>
  </g>
  <g id="arrowUp" transform="translate(30 24)">
    <use xlink:href="#rim"/>
    <path pointer-events="none" fill="none" stroke="white" stroke-width="1.5" d="M0,-3.0v7 M-2.5,-0.5L0,-3.0L2.5,-0.5"/>
  </g>
  <g id="arrowRight" transform="rotate(90) translate(36 -43)">
    <use xlink:href="#rim"/>
    <path pointer-events="none" fill="none" stroke="white" stroke-width="1.5" d="M0,-3.0v7 M-2.5,-0.5L0,-3.0L2.5,-0.5"/>
  </g>
  <g id="arrowDown" transform="rotate(180) translate(-30 -48)">
    <use xlink:href="#rim"/>
    <path pointer-events="none" fill="none" stroke="white" stroke-width="1.5" d="M0,-3.0v7 M-2.5,-0.5L0,-3.0L2.5,-0.5"/>
  </g>
  <g id="arrowLeft" transform="rotate(270) translate(-36 17)">
    <use xlink:href="#rim"/>
    <path pointer-events="none" fill="none" stroke="white" stroke-width="1.5" d="M0,-3.0v7 M-2.5,-0.5L0,-3.0L2.5,-0.5"/>
  </g>
  <g id="resetDef">
    <use xlink:href="#rim2" fill="#404040"><set attributeName="fill" to="#808080" begin="reset.mouseover" end="reset.mouseout"/></use>
  </g>
</defs>
<script type="application/ecmascript">
var viewWidth = 438;
var viewHeight = 498;
var sectionId = 'dynsection-3';
</script>
<script type="application/ecmascript" xlink:href="svg.min.js"/>
<svg id="graph" class="graph">
<g id="viewport">
<title>Data.HashFunction.FNV.FNVConfig.GetPredefinedConfig</title>
<!-- Node1 -->
<g id="Node000001" class="node">
<title>Node1</title>
<g id="a_Node000001"><a xlink:title="Gets one of the predefined configurations as defined at http://www.isthe.com/chongo/tech/comp/fnv/ind...">
<polygon fill="#999999" stroke="#666666" points="429.5,-255 251.5,-255 251.5,-223 429.5,-223 429.5,-255"/>
<text text-anchor="start" x="259.5" y="-241.5" font-family="Helvetica,sans-Serif" font-size="10.00">Data.HashFunction.FNV.FNVConfig.</text>
<text text-anchor="middle" x="340.5" y="-229.5" font-family="Helvetica,sans-Serif" font-size="10.00">GetPredefinedConfig</text>
</a>
</g>
</g>
<!-- Node2 -->
<g id="Node000002" class="node">
<title>Node2</title>
<g id="a_Node000002"><a xlink:href="class_data_1_1_hash_function_1_1_f_n_v_1_1_f_n_v1a_factory.html#ae46ed05cdfeb94ff7f9e6b89fc1bb922" target="_top" xlink:title="Creates a new IFNV1a instance with the default configuration.">
<polygon fill="white" stroke="#666666" points="186.25,-472 29.25,-472 29.25,-440 186.25,-440 186.25,-472"/>
<text text-anchor="start" x="37.25" y="-458.5" font-family="Helvetica,sans-Serif" font-size="10.00">Data.HashFunction.FNV.FNV1a</text>
<text text-anchor="middle" x="107.75" y="-446.5" font-family="Helvetica,sans-Serif" font-size="10.00">Factory.Create</text>
</a>
</g>
</g>
<!-- Node1&#45;&gt;Node2 -->
<g id="edge1_Node000001_Node000002" class="edge">
<title>Node1&#45;&gt;Node2</title>
<g id="a_edge1_Node000001_Node000002"><a xlink:title=" ">
<path fill="none" stroke="#63b8ff" d="M329.79,-265.96C313.18,-308.06 275.23,-388.93 215.5,-431 206.86,-437.08 196.95,-441.7 186.73,-445.21"/>
<polygon fill="#63b8ff" stroke="#63b8ff" points="332.98,-267.42 333.28,-256.83 326.44,-264.92 332.98,-267.42"/>
</a>
</g>
</g>
<!-- Node3 -->
<g id="Node000003" class="node">
<title>Node3</title>
<g id="a_Node000003"><a xlink:href="class_data_1_1_hash_function_1_1_f_n_v_1_1_f_n_v1_factory.html#ae74592cac110db60554aeff327b357d6" target="_top" xlink:title="Creates a new IFNV1 instance with the default configuration.">
<polygon fill="white" stroke="#666666" points="183.62,-404 31.88,-404 31.88,-372 183.62,-372 183.62,-404"/>
<text text-anchor="start" x="39.88" y="-390.5" font-family="Helvetica,sans-Serif" font-size="10.00">Data.HashFunction.FNV.FNV1</text>
<text text-anchor="middle" x="107.75" y="-378.5" font-family="Helvetica,sans-Serif" font-size="10.00">Factory.Create</text>
</a>
</g>
</g>
<!-- Node1&#45;&gt;Node3 -->
<g id="edge3_Node000001_Node000003" class="edge">
<title>Node1&#45;&gt;Node3</title>
<g id="a_edge3_Node000001_Node000003"><a xlink:title=" ">
<path fill="none" stroke="#63b8ff" d="M321.46,-264.06C299.63,-292.5 260.2,-338.13 215.5,-363 205.77,-368.41 194.91,-372.66 183.95,-375.99"/>
<polygon fill="#63b8ff" stroke="#63b8ff" points="324.05,-266.44 327.26,-256.35 318.46,-262.24 324.05,-266.44"/>
</a>
</g>
</g>
<!-- Node4 -->
<g id="Node000004" class="node">
<title>Node4</title>
<g id="a_Node000004"><a xlink:href="class_data_1_1_hash_function_1_1_test_1_1_f_n_v_1_1_f_n_v1a_factory___tests.html#aad6897eb5658bf8c9704cfd8ffd99ce0" target="_top" xlink:title=" ">
<polygon fill="white" stroke="#666666" points="195.62,-354 19.88,-354 19.88,-310 195.62,-310 195.62,-354"/>
<text text-anchor="start" x="27.88" y="-340.5" font-family="Helvetica,sans-Serif" font-size="10.00">Data.HashFunction.Test.FNV.</text>
<text text-anchor="start" x="27.88" y="-328.5" font-family="Helvetica,sans-Serif" font-size="10.00">FNV1aFactory_Tests.FNV1aFactory</text>
<text text-anchor="middle" x="107.75" y="-316.5" font-family="Helvetica,sans-Serif" font-size="10.00">_Create_Config_Works</text>
</a>
</g>
</g>
<!-- Node1&#45;&gt;Node4 -->
<g id="edge5_Node000001_Node000004" class="edge">
<title>Node1&#45;&gt;Node4</title>
<g id="a_edge5_Node000001_Node000004"><a xlink:title=" ">
<path fill="none" stroke="#63b8ff" d="M300.49,-260.79C276.48,-273.62 244.79,-289.54 215.5,-301 207.86,-303.99 199.82,-306.84 191.71,-309.52"/>
<polygon fill="#63b8ff" stroke="#63b8ff" points="302.15,-263.87 309.29,-256.04 298.83,-257.71 302.15,-263.87"/>
</a>
</g>
</g>
<!-- Node5 -->
<g id="Node000005" class="node">
<title>Node5</title>
<g id="a_Node000005"><a xlink:href="class_data_1_1_hash_function_1_1_test_1_1_f_n_v_1_1_f_n_v1a_factory___tests.html#af4bedff970a7092ebaef5309cc185744" target="_top" xlink:title=" ">
<polygon fill="white" stroke="#666666" points="195.62,-292 19.88,-292 19.88,-248 195.62,-248 195.62,-292"/>
<text text-anchor="start" x="27.88" y="-278.5" font-family="Helvetica,sans-Serif" font-size="10.00">Data.HashFunction.Test.FNV.</text>
<text text-anchor="start" x="27.88" y="-266.5" font-family="Helvetica,sans-Serif" font-size="10.00">FNV1aFactory_Tests.FNV1aFactory</text>
<text text-anchor="middle" x="107.75" y="-254.5" font-family="Helvetica,sans-Serif" font-size="10.00">_Create_Works</text>
</a>
</g>
</g>
<!-- Node1&#45;&gt;Node5 -->
<g id="edge6_Node000001_Node000005" class="edge">
<title>Node1&#45;&gt;Node5</title>
<g id="a_edge6_Node000001_Node000005"><a xlink:title=" ">
<path fill="none" stroke="#63b8ff" d="M240.09,-252.36C225.34,-254.34 210.25,-256.36 195.78,-258.31"/>
<polygon fill="#63b8ff" stroke="#63b8ff" points="240.33,-255.85 249.78,-251.05 239.4,-248.92 240.33,-255.85"/>
</a>
</g>
</g>
<!-- Node6 -->
<g id="Node000006" class="node">
<title>Node6</title>
<g id="a_Node000006"><a xlink:href="class_data_1_1_hash_function_1_1_test_1_1_f_n_v_1_1_f_n_v1_factory___tests.html#a5e6108a4c353c6f5f41943ee321242d3" target="_top" xlink:title=" ">
<polygon fill="white" stroke="#666666" points="190.38,-230 25.12,-230 25.12,-186 190.38,-186 190.38,-230"/>
<text text-anchor="start" x="33.12" y="-216.5" font-family="Helvetica,sans-Serif" font-size="10.00">Data.HashFunction.Test.FNV.</text>
<text text-anchor="start" x="33.12" y="-204.5" font-family="Helvetica,sans-Serif" font-size="10.00">FNV1Factory_Tests.FNV1Factory</text>
<text text-anchor="middle" x="107.75" y="-192.5" font-family="Helvetica,sans-Serif" font-size="10.00">_Create_Config_Works</text>
</a>
</g>
</g>
<!-- Node1&#45;&gt;Node6 -->
<g id="edge7_Node000001_Node000006" class="edge">
<title>Node1&#45;&gt;Node6</title>
<g id="a_edge7_Node000001_Node000006"><a xlink:title=" ">
<path fill="none" stroke="#63b8ff" d="M240.01,-225.63C223.61,-223.43 206.77,-221.17 190.86,-219.03"/>
<polygon fill="#63b8ff" stroke="#63b8ff" points="239.4,-229.08 249.78,-226.95 240.33,-222.15 239.4,-229.08"/>
</a>
</g>
</g>
<!-- Node7 -->
<g id="Node000007" class="node">
<title>Node7</title>
<g id="a_Node000007"><a xlink:href="class_data_1_1_hash_function_1_1_test_1_1_f_n_v_1_1_f_n_v1_factory___tests.html#aec801218cf096ed9784b79174de2cd2f" target="_top" xlink:title=" ">
<polygon fill="white" stroke="#666666" points="190.38,-168 25.12,-168 25.12,-124 190.38,-124 190.38,-168"/>
<text text-anchor="start" x="33.12" y="-154.5" font-family="Helvetica,sans-Serif" font-size="10.00">Data.HashFunction.Test.FNV.</text>
<text text-anchor="start" x="33.12" y="-142.5" font-family="Helvetica,sans-Serif" font-size="10.00">FNV1Factory_Tests.FNV1Factory</text>
<text text-anchor="middle" x="107.75" y="-130.5" font-family="Helvetica,sans-Serif" font-size="10.00">_Create_Works</text>
</a>
</g>
</g>
<!-- Node1&#45;&gt;Node7 -->
<g id="edge8_Node000001_Node000007" class="edge">
<title>Node1&#45;&gt;Node7</title>
<g id="a_edge8_Node000001_Node000007"><a xlink:title=" ">
<path fill="none" stroke="#63b8ff" d="M300.49,-217.21C276.48,-204.38 244.79,-188.46 215.5,-177 207.59,-173.9 199.25,-170.96 190.86,-168.2"/>
<polygon fill="#63b8ff" stroke="#63b8ff" points="298.83,-220.29 309.29,-221.96 302.15,-214.13 298.83,-220.29"/>
</a>
</g>
</g>
<!-- Node8 -->
<g id="Node000008" class="node">
<title>Node8</title>
<g id="a_Node000008"><a xlink:href="class_data_1_1_hash_function_1_1_test_1_1_f_n_v_1_1_f_n_v_config___tests.html#a911431fbcf69e887b1f31517d69db6c3" target="_top" xlink:title=" ">
<polygon fill="white" stroke="#666666" points="215.5,-106 0,-106 0,-62 215.5,-62 215.5,-106"/>
<text text-anchor="start" x="8" y="-92.5" font-family="Helvetica,sans-Serif" font-size="10.00">Data.HashFunction.Test.FNV.</text>
<text text-anchor="start" x="8" y="-80.5" font-family="Helvetica,sans-Serif" font-size="10.00">FNVConfig_Tests.FNVConfig</text>
<text text-anchor="middle" x="107.75" y="-68.5" font-family="Helvetica,sans-Serif" font-size="10.00">_GetPredefinedConfig_ExpectedValues_Work</text>
</a>
</g>
</g>
<!-- Node1&#45;&gt;Node8 -->
<g id="edge9_Node000001_Node000008" class="edge">
<title>Node1&#45;&gt;Node8</title>
<g id="a_edge9_Node000001_Node000008"><a xlink:title=" ">
<path fill="none" stroke="#63b8ff" d="M320.87,-213.9C298.75,-185.82 259.29,-140.9 215.5,-115 210.18,-111.86 204.53,-109.01 198.7,-106.45"/>
<polygon fill="#63b8ff" stroke="#63b8ff" points="317.88,-215.75 326.76,-221.52 323.42,-211.47 317.88,-215.75"/>
</a>
</g>
</g>
<!-- Node9 -->
<g id="Node000009" class="node">
<title>Node9</title>
<g id="a_Node000009"><a xlink:href="class_data_1_1_hash_function_1_1_test_1_1_f_n_v_1_1_f_n_v_config___tests.html#a2f89c0dfc1563b991207e82810265310" target="_top" xlink:title=" ">
<polygon fill="white" stroke="#666666" points="209.12,-44 6.38,-44 6.38,0 209.12,0 209.12,-44"/>
<text text-anchor="start" x="14.38" y="-30.5" font-family="Helvetica,sans-Serif" font-size="10.00">Data.HashFunction.Test.FNV.</text>
<text text-anchor="start" x="14.38" y="-18.5" font-family="Helvetica,sans-Serif" font-size="10.00">FNVConfig_Tests.FNVConfig</text>
<text text-anchor="middle" x="107.75" y="-6.5" font-family="Helvetica,sans-Serif" font-size="10.00">_GetPredefinedConfig_InvalidSizes_Throw</text>
</a>
</g>
</g>
<!-- Node1&#45;&gt;Node9 -->
<g id="edge10_Node000001_Node000009" class="edge">
<title>Node1&#45;&gt;Node9</title>
<g id="a_edge10_Node000001_Node000009"><a xlink:title=" ">
<path fill="none" stroke="#63b8ff" d="M328.79,-212.07C311.26,-171.46 272.57,-94.85 215.5,-53 211.14,-49.8 206.46,-46.94 201.58,-44.36"/>
<polygon fill="#63b8ff" stroke="#63b8ff" points="325.49,-213.25 332.58,-221.11 331.94,-210.54 325.49,-213.25"/>
</a>
</g>
</g>
<!-- Node2&#45;&gt;Node2 -->
<g id="edge2_Node000002_Node000002" class="edge">
<title>Node2&#45;&gt;Node2</title>
<g id="a_edge2_Node000002_Node000002"><a xlink:title=" ">
<path fill="none" stroke="#63b8ff" d="M146.81,-483.54C140.44,-487.41 127.42,-490 107.75,-490 72.29,-490 58.44,-481.58 66.2,-472.44"/>
<polygon fill="#63b8ff" stroke="#63b8ff" points="150.2,-484.44 148.97,-473.92 143.37,-482.91 150.2,-484.44"/>
</a>
</g>
</g>
<!-- Node3&#45;&gt;Node3 -->
<g id="edge4_Node000003_Node000003" class="edge">
<title>Node3&#45;&gt;Node3</title>
<g id="a_edge4_Node000003_Node000003"><a xlink:title=" ">
<path fill="none" stroke="#63b8ff" d="M146.81,-415.54C140.44,-419.41 127.42,-422 107.75,-422 72.29,-422 58.44,-413.58 66.2,-404.44"/>
<polygon fill="#63b8ff" stroke="#63b8ff" points="150.2,-416.44 148.97,-405.92 143.37,-414.91 150.2,-416.44"/>
</a>
</g>
</g>
</g>
</svg>

<g id="navigator" transform="translate(0 0)" fill="#404254">
  <rect fill="#f2f5e9" fill-opacity="0.5" stroke="#606060" stroke-width=".5" x="0" y="0" width="60" height="60"/>
  <use id="zoomplus" xlink:href="#zoomPlus" x="17" y="9" onmousedown="handleZoom(evt,'in')"/>
  <use id="zoomminus" xlink:href="#zoomMin" x="42" y="9" onmousedown="handleZoom(evt,'out')"/>
  <use id="reset" xlink:href="#resetDef" x="30" y="36" onmousedown="handleReset()"/>
   <use id="arrowup" xlink:href="#arrowUp" x="0" y="0" onmousedown="handlePan(0,-1)"/>
  <use id="arrowright" xlink:href="#arrowRight" x="0" y="0" onmousedown="handlePan(1,0)"/>
  <use id="arrowdown" xlink:href="#arrowDown" x="0" y="0" onmousedown="handlePan(0,1)"/>
  <use id="arrowleft" xlink:href="#arrowLeft" x="0" y="0" onmousedown="handlePan(-1,0)"/>
</g>
<svg viewBox="0 0 15 15" width="100%" height="30px" preserveAspectRatio="xMaxYMin meet">
 <g id="arrow_out" transform="scale(0.3 0.3)">
  <a xlink:href="class_data_1_1_hash_function_1_1_f_n_v_1_1_f_n_v_config_ad1b98ea4bd2f0c9e3b230b18723b5650_icgraph_org.svg" target="_base">
   <rect id="button" ry="5" rx="5" y="6" x="6" height="38" width="38"
        fill="#f2f5e9" fill-opacity="0.5" stroke="#606060" stroke-width="1.0"/>
   <path id="arrow"
     d="M 11.500037,31.436501 C 11.940474,20.09759 22.043105,11.32322 32.158766,21.979434 L 37.068811,17.246167 C 37.068811,17.246167 37.088388,32 37.088388,32 L 22.160133,31.978069 C 22.160133,31.978069 26.997745,27.140456 26.997745,27.140456 C 18.528582,18.264221 13.291696,25.230495 11.500037,31.436501 z"
     style="fill:#404040;"/>
  </a>
 </g>
</svg>

<style type='text/css'>
<![CDATA[
[data-mouse-over-selected='false'] { opacity: 0.7; }
[data-mouse-over-selected='true']  { opacity: 1.0; }
]]>
</style>
<script type="application/ecmascript"><![CDATA[
document.addEventListener('DOMContentLoaded', (event) => {
  highlightEdges();
  highlightAdjacentNodes();
});
]]></script>
</svg>
