<?xml version="1.0" encoding="UTF-8" standalone="no"?>
<!DOCTYPE svg PUBLIC "-//W3C//DTD SVG 1.1//EN"
 "http://www.w3.org/Graphics/SVG/1.1/DTD/svg11.dtd">
<!-- Generated by graphviz version 12.2.0 (20241103.1931)
 -->
<!-- Title: Data.HashFunction.Blake3.Hasher.Hasher Pages: 1 -->
<svg width="710pt" height="146pt"
 viewBox="0.00 0.00 710.25 146.00" xmlns="http://www.w3.org/2000/svg" xmlns:xlink="http://www.w3.org/1999/xlink">
<g id="graph0" class="graph" transform="scale(1 1) rotate(0) translate(4 142)">
<title>Data.HashFunction.Blake3.Hasher.Hasher</title>
<!-- Node1 -->
<g id="Node000001" class="node">
<title>Node1</title>
<g id="a_Node000001"><a xlink:title=" ">
<polygon fill="#999999" stroke="#666666" points="702.25,-82 565.5,-82 565.5,-50 702.25,-50 702.25,-82"/>
<text text-anchor="start" x="573.5" y="-68.5" font-family="Helvetica,sans-Serif" font-size="10.00">Data.HashFunction.Blake3.</text>
<text text-anchor="middle" x="633.88" y="-56.5" font-family="Helvetica,sans-Serif" font-size="10.00">Hasher.Hasher</text>
</a>
</g>
</g>
<!-- Node2 -->
<g id="Node000002" class="node">
<title>Node2</title>
<g id="a_Node000002"><a xlink:href="class_data_1_1_hash_function_1_1_blake3_1_1_hasher.html#aad24929c483c806315660e478d94ef46" target="_top" xlink:title="Construct a new Hasher for the regular hash function.">
<polygon fill="white" stroke="#666666" points="529.5,-132 392.75,-132 392.75,-100 529.5,-100 529.5,-132"/>
<text text-anchor="start" x="400.75" y="-118.5" font-family="Helvetica,sans-Serif" font-size="10.00">Data.HashFunction.Blake3.</text>
<text text-anchor="middle" x="461.12" y="-106.5" font-family="Helvetica,sans-Serif" font-size="10.00">Hasher.New</text>
</a>
</g>
</g>
<!-- Node1&#45;&gt;Node2 -->
<g id="edge1_Node000001_Node000002" class="edge">
<title>Node1&#45;&gt;Node2</title>
<g id="a_edge1_Node000001_Node000002"><a xlink:title=" ">
<path fill="none" stroke="#63b8ff" d="M566.21,-85.52C550.42,-90.15 533.73,-95.03 518.45,-99.51"/>
<polygon fill="#63b8ff" stroke="#63b8ff" points="566.9,-88.97 575.51,-82.8 564.93,-82.25 566.9,-88.97"/>
</a>
</g>
</g>
<!-- Node5 -->
<g id="Node000005" class="node">
<title>Node5</title>
<g id="a_Node000005"><a xlink:href="class_data_1_1_hash_function_1_1_blake3_1_1_hasher.html#a357db3327bc95a6a6bf396129a2f1a96" target="_top" xlink:title="Construct a new Hasher for the key derivation function.">
<polygon fill="white" stroke="#666666" points="529.5,-82 392.75,-82 392.75,-50 529.5,-50 529.5,-82"/>
<text text-anchor="start" x="400.75" y="-68.5" font-family="Helvetica,sans-Serif" font-size="10.00">Data.HashFunction.Blake3.</text>
<text text-anchor="middle" x="461.12" y="-56.5" font-family="Helvetica,sans-Serif" font-size="10.00">Hasher.NewDeriveKey</text>
</a>
</g>
</g>
<!-- Node1&#45;&gt;Node5 -->
<g id="edge4_Node000001_Node000005" class="edge">
<title>Node1&#45;&gt;Node5</title>
<g id="a_edge4_Node000001_Node000005"><a xlink:title=" ">
<path fill="none" stroke="#63b8ff" d="M554.08,-66C546.02,-66 537.88,-66 529.96,-66"/>
<polygon fill="#63b8ff" stroke="#63b8ff" points="553.88,-69.5 563.88,-66 553.88,-62.5 553.88,-69.5"/>
</a>
</g>
</g>
<!-- Node6 -->
<g id="Node000006" class="node">
<title>Node6</title>
<g id="a_Node000006"><a xlink:href="class_data_1_1_hash_function_1_1_blake3_1_1_hasher.html#afb4cb051739f7f05d0efc0f3a76055ff" target="_top" xlink:title="Construct a new Hasher for the keyed hash function.">
<polygon fill="white" stroke="#666666" points="529.5,-32 392.75,-32 392.75,0 529.5,0 529.5,-32"/>
<text text-anchor="start" x="400.75" y="-18.5" font-family="Helvetica,sans-Serif" font-size="10.00">Data.HashFunction.Blake3.</text>
<text text-anchor="middle" x="461.12" y="-6.5" font-family="Helvetica,sans-Serif" font-size="10.00">Hasher.NewKeyed</text>
</a>
</g>
</g>
<!-- Node1&#45;&gt;Node6 -->
<g id="edge5_Node000001_Node000006" class="edge">
<title>Node1&#45;&gt;Node6</title>
<g id="a_edge5_Node000001_Node000006"><a xlink:title=" ">
<path fill="none" stroke="#63b8ff" d="M566.21,-46.48C550.42,-41.85 533.73,-36.97 518.45,-32.49"/>
<polygon fill="#63b8ff" stroke="#63b8ff" points="564.93,-49.75 575.51,-49.2 566.9,-43.03 564.93,-49.75"/>
</a>
</g>
</g>
<!-- Node3 -->
<g id="Node000003" class="node">
<title>Node3</title>
<g id="a_Node000003"><a xlink:href="class_data_1_1_hash_function_1_1_blake3_1_1_hasher.html#aac947b8cb06612c856ce00ba6d977208" target="_top" xlink:title="The default hash function.">
<polygon fill="white" stroke="#666666" points="356.75,-132 220,-132 220,-100 356.75,-100 356.75,-132"/>
<text text-anchor="start" x="228" y="-118.5" font-family="Helvetica,sans-Serif" font-size="10.00">Data.HashFunction.Blake3.</text>
<text text-anchor="middle" x="288.38" y="-106.5" font-family="Helvetica,sans-Serif" font-size="10.00">Hasher.Hash</text>
</a>
</g>
</g>
<!-- Node2&#45;&gt;Node3 -->
<g id="edge2_Node000002_Node000003" class="edge">
<title>Node2&#45;&gt;Node3</title>
<g id="a_edge2_Node000002_Node000003"><a xlink:title=" ">
<path fill="none" stroke="#63b8ff" d="M381.33,-116C373.27,-116 365.13,-116 357.21,-116"/>
<polygon fill="#63b8ff" stroke="#63b8ff" points="381.13,-119.5 391.13,-116 381.13,-112.5 381.13,-119.5"/>
</a>
</g>
</g>
<!-- Node4 -->
<g id="Node000004" class="node">
<title>Node4</title>
<g id="a_Node000004"><a xlink:href="class_data_1_1_hash_function_1_1_blake3_1_1_blake3___implementation.html#acf9fb5e2e6ac2dc31721218947dc5451" target="_top" xlink:title=" ">
<polygon fill="white" stroke="#666666" points="184,-138 0,-138 0,-94 184,-94 184,-138"/>
<text text-anchor="start" x="8" y="-124.5" font-family="Helvetica,sans-Serif" font-size="10.00">Data.HashFunction.Blake3.</text>
<text text-anchor="start" x="8" y="-112.5" font-family="Helvetica,sans-Serif" font-size="10.00">Blake3_Implementation.ComputeHash</text>
<text text-anchor="middle" x="92" y="-100.5" font-family="Helvetica,sans-Serif" font-size="10.00">Internal</text>
</a>
</g>
</g>
<!-- Node3&#45;&gt;Node4 -->
<g id="edge3_Node000003_Node000004" class="edge">
<title>Node3&#45;&gt;Node4</title>
<g id="a_edge3_Node000003_Node000004"><a xlink:title=" ">
<path fill="none" stroke="#63b8ff" d="M208.28,-116C200.41,-116 192.38,-116 184.4,-116"/>
<polygon fill="#63b8ff" stroke="#63b8ff" points="208.15,-119.5 218.15,-116 208.15,-112.5 208.15,-119.5"/>
</a>
</g>
</g>
</g>
</svg>
