<?xml version="1.0" encoding="UTF-8" standalone="no"?>
<!DOCTYPE svg PUBLIC "-//W3C//DTD SVG 1.1//EN"
 "http://www.w3.org/Graphics/SVG/1.1/DTD/svg11.dtd">
<!-- Generated by graphviz version 12.2.0 (20241103.1931)
 -->
<!-- Title: Data.HashFunction.Blake3.Hasher Pages: 1 -->
<svg width="246pt" height="177pt"
 viewBox="0.00 0.00 245.88 177.00" xmlns="http://www.w3.org/2000/svg" xmlns:xlink="http://www.w3.org/1999/xlink">
<g id="graph0" class="graph" transform="scale(1 1) rotate(0) translate(4 173)">
<title>Data.HashFunction.Blake3.Hasher</title>
<!-- Node1 -->
<g id="Node000001" class="node">
<title>Node1</title>
<g id="a_Node000001"><a xlink:title="An incremental hash state that can accept any number of writes.">
<polygon fill="#999999" stroke="#666666" points="136.75,-32 0,-32 0,0 136.75,0 136.75,-32"/>
<text text-anchor="start" x="8" y="-18.5" font-family="Helvetica,sans-Serif" font-size="10.00">Data.HashFunction.Blake3.</text>
<text text-anchor="middle" x="68.38" y="-6.5" font-family="Helvetica,sans-Serif" font-size="10.00">Hasher</text>
</a>
</g>
</g>
<!-- Node2 -->
<g id="Node000002" class="node">
<title>Node2</title>
<g id="a_Node000002"><a xlink:title=" ">
<polygon fill="white" stroke="#666666" points="98.25,-169 30.5,-169 30.5,-149 98.25,-149 98.25,-169"/>
<text text-anchor="middle" x="64.38" y="-155.5" font-family="Helvetica,sans-Serif" font-size="10.00">IDisposable</text>
</a>
</g>
</g>
<!-- Node2&#45;&gt;Node1 -->
<g id="edge1_Node000001_Node000002" class="edge">
<title>Node2&#45;&gt;Node1</title>
<g id="a_edge1_Node000001_Node000002"><a xlink:title=" ">
<path fill="none" stroke="#63b8ff" d="M64.96,-137.35C65.77,-108.74 67.22,-57.68 67.94,-32.26"/>
<polygon fill="#63b8ff" stroke="#63b8ff" points="61.47,-137.14 64.68,-147.24 68.46,-137.34 61.47,-137.14"/>
</a>
</g>
</g>
<!-- Node3 -->
<g id="Node000003" class="node">
<title>Node3</title>
<g id="a_Node000003"><a xlink:href="class_data_1_1_hash_function_1_1_core_1_1_library_loader_1_1_native_library_loader.html" target="_top" xlink:title="Native library loader for fast native parts of some hash algorithms.">
<polygon fill="white" stroke="#666666" points="237.88,-112 80.88,-112 80.88,-80 237.88,-80 237.88,-112"/>
<text text-anchor="start" x="88.88" y="-98.5" font-family="Helvetica,sans-Serif" font-size="10.00">Data.HashFunction.Core.Library</text>
<text text-anchor="middle" x="159.38" y="-86.5" font-family="Helvetica,sans-Serif" font-size="10.00">Loader.NativeLibraryLoader</text>
</a>
</g>
</g>
<!-- Node2&#45;&gt;Node3 -->
<g id="edge3_Node000003_Node000002" class="edge">
<title>Node2&#45;&gt;Node3</title>
<g id="a_edge3_Node000003_Node000002"><a xlink:title=" ">
<path fill="none" stroke="#63b8ff" d="M88.1,-142.77C102.59,-133.46 121.05,-121.61 135.56,-112.29"/>
<polygon fill="#63b8ff" stroke="#63b8ff" points="86.6,-139.57 80.08,-147.92 90.38,-145.46 86.6,-139.57"/>
</a>
</g>
</g>
<!-- Node3&#45;&gt;Node1 -->
<g id="edge2_Node000001_Node000003" class="edge">
<title>Node3&#45;&gt;Node1</title>
<g id="a_edge2_Node000001_Node000003"><a xlink:title=" ">
<path fill="none" stroke="#9a32cd" stroke-dasharray="5,2" d="M133.02,-72.41C118.03,-59.56 99.64,-43.8 86.32,-32.38"/>
<polygon fill="#9a32cd" stroke="#9a32cd" points="130.38,-74.75 140.25,-78.6 134.93,-69.44 130.38,-74.75"/>
</a>
</g>
<text text-anchor="middle" x="141.45" y="-52.5" font-family="Helvetica,sans-Serif" font-size="10.00" fill="grey"> lib_loader</text>
</g>
</g>
</svg>
