<?xml version="1.0" encoding="UTF-8" standalone="no"?>
<!DOCTYPE svg PUBLIC "-//W3C//DTD SVG 1.1//EN"
 "http://www.w3.org/Graphics/SVG/1.1/DTD/svg11.dtd">
<!-- Generated by graphviz version 12.2.0 (20241103.1931)
 -->
<!-- Title: Data.HashFunction.CRC.CRC_Implementation.BlockTransformer.ReflectBits Pages: 1 -->
<svg width="801pt" height="130pt"
 viewBox="0.00 0.00 801.00 130.21" xmlns="http://www.w3.org/2000/svg" xmlns:xlink="http://www.w3.org/1999/xlink">
<g id="graph0" class="graph" transform="scale(1 1) rotate(0) translate(4 126.21)">
<title>Data.HashFunction.CRC.CRC_Implementation.BlockTransformer.ReflectBits</title>
<!-- Node1 -->
<g id="Node000001" class="node">
<title>Node1</title>
<g id="a_Node000001"><a xlink:title=" ">
<polygon fill="#999999" stroke="#666666" points="793,-106 621.75,-106 621.75,-62 793,-62 793,-106"/>
<text text-anchor="start" x="629.75" y="-92.5" font-family="Helvetica,sans-Serif" font-size="10.00">Data.HashFunction.CRC.CRC</text>
<text text-anchor="start" x="629.75" y="-80.5" font-family="Helvetica,sans-Serif" font-size="10.00">_Implementation.BlockTransformer.</text>
<text text-anchor="middle" x="707.38" y="-68.5" font-family="Helvetica,sans-Serif" font-size="10.00">ReflectBits</text>
</a>
</g>
</g>
<!-- Node2 -->
<g id="Node000002" class="node">
<title>Node2</title>
<g id="a_Node000002"><a xlink:href="class_data_1_1_hash_function_1_1_c_r_c_1_1_c_r_c___implementation_1_1_block_transformer.html#a40a89b216b573712d36a3fb042838ce0" target="_top" xlink:title=" ">
<polygon fill="white" stroke="#666666" points="171.25,-100 0,-100 0,-56 171.25,-56 171.25,-100"/>
<text text-anchor="start" x="8" y="-86.5" font-family="Helvetica,sans-Serif" font-size="10.00">Data.HashFunction.CRC.CRC</text>
<text text-anchor="start" x="8" y="-74.5" font-family="Helvetica,sans-Serif" font-size="10.00">_Implementation.BlockTransformer.</text>
<text text-anchor="middle" x="85.62" y="-62.5" font-family="Helvetica,sans-Serif" font-size="10.00">BlockTransformer</text>
</a>
</g>
</g>
<!-- Node1&#45;&gt;Node2 -->
<g id="edge1_Node000001_Node000002" class="edge">
<title>Node1&#45;&gt;Node2</title>
<g id="a_edge1_Node000001_Node000002"><a xlink:title=" ">
<path fill="none" stroke="#63b8ff" d="M620.1,-108.95C608.63,-111.45 596.97,-113.58 585.75,-115 440.93,-133.31 271.23,-111.65 171.67,-94.6"/>
<polygon fill="#63b8ff" stroke="#63b8ff" points="620.56,-112.44 629.53,-106.8 619.01,-105.61 620.56,-112.44"/>
</a>
</g>
</g>
<!-- Node3 -->
<g id="Node000003" class="node">
<title>Node3</title>
<g id="a_Node000003"><a xlink:href="class_data_1_1_hash_function_1_1_c_r_c_1_1_c_r_c___implementation_1_1_block_transformer.html#a6acc654bed023491dcbf8b6865dba204" target="_top" xlink:title=" ">
<polygon fill="white" stroke="#666666" points="585.75,-106 414.5,-106 414.5,-62 585.75,-62 585.75,-106"/>
<text text-anchor="start" x="422.5" y="-92.5" font-family="Helvetica,sans-Serif" font-size="10.00">Data.HashFunction.CRC.CRC</text>
<text text-anchor="start" x="422.5" y="-80.5" font-family="Helvetica,sans-Serif" font-size="10.00">_Implementation.BlockTransformer.</text>
<text text-anchor="middle" x="500.12" y="-68.5" font-family="Helvetica,sans-Serif" font-size="10.00">FinalizeHashValueInternal</text>
</a>
</g>
</g>
<!-- Node1&#45;&gt;Node3 -->
<g id="edge2_Node000001_Node000003" class="edge">
<title>Node1&#45;&gt;Node3</title>
<g id="a_edge2_Node000001_Node000003"><a xlink:title=" ">
<path fill="none" stroke="#63b8ff" d="M610.1,-84C602.06,-84 593.97,-84 586.03,-84"/>
<polygon fill="#63b8ff" stroke="#63b8ff" points="609.9,-87.5 619.9,-84 609.9,-80.5 609.9,-87.5"/>
</a>
</g>
</g>
<!-- Node4 -->
<g id="Node000004" class="node">
<title>Node4</title>
<g id="a_Node000004"><a xlink:href="class_data_1_1_hash_function_1_1_c_r_c_1_1_c_r_c___implementation_1_1_block_transformer.html#ae42bec7a856b84c5e853176bc58da19a" target="_top" xlink:title=" ">
<polygon fill="white" stroke="#666666" points="585.75,-44 414.5,-44 414.5,0 585.75,0 585.75,-44"/>
<text text-anchor="start" x="422.5" y="-30.5" font-family="Helvetica,sans-Serif" font-size="10.00">Data.HashFunction.CRC.CRC</text>
<text text-anchor="start" x="422.5" y="-18.5" font-family="Helvetica,sans-Serif" font-size="10.00">_Implementation.BlockTransformer.</text>
<text text-anchor="middle" x="500.12" y="-6.5" font-family="Helvetica,sans-Serif" font-size="10.00">GetDataDivisionTableInternal</text>
</a>
</g>
</g>
<!-- Node1&#45;&gt;Node4 -->
<g id="edge3_Node000001_Node000004" class="edge">
<title>Node1&#45;&gt;Node4</title>
<g id="a_edge3_Node000001_Node000004"><a xlink:title=" ">
<path fill="none" stroke="#63b8ff" d="M621.1,-58.24C606,-53.68 590.38,-48.96 575.61,-44.5"/>
<polygon fill="#63b8ff" stroke="#63b8ff" points="619.95,-61.55 630.54,-61.09 621.98,-54.85 619.95,-61.55"/>
</a>
</g>
</g>
<!-- Node5 -->
<g id="Node000005" class="node">
<title>Node5</title>
<g id="a_Node000005"><a xlink:href="class_data_1_1_hash_function_1_1_c_r_c_1_1_c_r_c___implementation_1_1_block_transformer.html#a80d299434d3e0462cf71afae80448f7f" target="_top" xlink:title="Calculates the data&#45;division table for the CRC parameters provided.">
<polygon fill="white" stroke="#666666" points="378.5,-75 207.25,-75 207.25,-31 378.5,-31 378.5,-75"/>
<text text-anchor="start" x="215.25" y="-61.5" font-family="Helvetica,sans-Serif" font-size="10.00">Data.HashFunction.CRC.CRC</text>
<text text-anchor="start" x="215.25" y="-49.5" font-family="Helvetica,sans-Serif" font-size="10.00">_Implementation.BlockTransformer.</text>
<text text-anchor="middle" x="292.88" y="-37.5" font-family="Helvetica,sans-Serif" font-size="10.00">GetDataDivisionTable</text>
</a>
</g>
</g>
<!-- Node4&#45;&gt;Node5 -->
<g id="edge4_Node000004_Node000005" class="edge">
<title>Node4&#45;&gt;Node5</title>
<g id="a_edge4_Node000004_Node000005"><a xlink:title=" ">
<path fill="none" stroke="#63b8ff" d="M402.85,-36.54C394.81,-37.75 386.72,-38.98 378.78,-40.18"/>
<polygon fill="#63b8ff" stroke="#63b8ff" points="403.3,-40.01 412.66,-35.06 402.25,-33.09 403.3,-40.01"/>
</a>
</g>
</g>
<!-- Node5&#45;&gt;Node2 -->
<g id="edge5_Node000005_Node000002" class="edge">
<title>Node5&#45;&gt;Node2</title>
<g id="a_edge5_Node000005_Node000002"><a xlink:title=" ">
<path fill="none" stroke="#63b8ff" d="M195.6,-64.73C187.56,-65.71 179.47,-66.69 171.53,-67.66"/>
<polygon fill="#63b8ff" stroke="#63b8ff" points="195.9,-68.22 205.41,-63.53 195.06,-61.27 195.9,-68.22"/>
</a>
</g>
</g>
</g>
</svg>
