<?xml version="1.0" encoding="UTF-8" standalone="no"?>
<!DOCTYPE svg PUBLIC "-//W3C//DTD SVG 1.1//EN"
 "http://www.w3.org/Graphics/SVG/1.1/DTD/svg11.dtd">
<!-- Generated by graphviz version 12.2.0 (20241103.1931)
 -->
<!-- Title: Data.HashFunction.FarmHash.FarmHashFingerprint128_Implementation.CityMurmur Pages: 1 -->
<svg width="925pt" height="164pt"
 viewBox="0.00 0.00 924.75 164.00" xmlns="http://www.w3.org/2000/svg" xmlns:xlink="http://www.w3.org/1999/xlink">
<g id="graph0" class="graph" transform="scale(1 1) rotate(0) translate(4 160)">
<title>Data.HashFunction.FarmHash.FarmHashFingerprint128_Implementation.CityMurmur</title>
<!-- Node1 -->
<g id="Node000001" class="node">
<title>Node1</title>
<g id="a_Node000001"><a xlink:title=" ">
<polygon fill="#999999" stroke="#666666" points="198.25,-94 0,-94 0,-50 198.25,-50 198.25,-94"/>
<text text-anchor="start" x="8" y="-80.5" font-family="Helvetica,sans-Serif" font-size="10.00">Data.HashFunction.FarmHash.</text>
<text text-anchor="start" x="8" y="-68.5" font-family="Helvetica,sans-Serif" font-size="10.00">FarmHashFingerprint128_Implementation.</text>
<text text-anchor="middle" x="99.12" y="-56.5" font-family="Helvetica,sans-Serif" font-size="10.00">CityMurmur</text>
</a>
</g>
</g>
<!-- Node2 -->
<g id="Node000002" class="node">
<title>Node2</title>
<g id="a_Node000002"><a xlink:href="class_data_1_1_hash_function_1_1_farm_hash_1_1_farm_hash_fingerprint128___implementation.html#a3fa52690f28233df8ae56cbab00bc542" target="_top" xlink:title=" ">
<polygon fill="white" stroke="#666666" points="432.5,-94 234.25,-94 234.25,-50 432.5,-50 432.5,-94"/>
<text text-anchor="start" x="242.25" y="-80.5" font-family="Helvetica,sans-Serif" font-size="10.00">Data.HashFunction.FarmHash.</text>
<text text-anchor="start" x="242.25" y="-68.5" font-family="Helvetica,sans-Serif" font-size="10.00">FarmHashFingerprint128_Implementation.</text>
<text text-anchor="middle" x="333.38" y="-56.5" font-family="Helvetica,sans-Serif" font-size="10.00">HashLen0to16</text>
</a>
</g>
</g>
<!-- Node1&#45;&gt;Node2 -->
<g id="edge1_Node000001_Node000002" class="edge">
<title>Node1&#45;&gt;Node2</title>
<g id="a_edge1_Node000001_Node000002"><a xlink:title=" ">
<path fill="none" stroke="#63b8ff" d="M198.62,-72C206.6,-72 214.7,-72 222.75,-72"/>
<polygon fill="#63b8ff" stroke="#63b8ff" points="222.58,-75.5 232.58,-72 222.58,-68.5 222.58,-75.5"/>
</a>
</g>
</g>
<!-- Node3 -->
<g id="Node000003" class="node">
<title>Node3</title>
<g id="a_Node000003"><a xlink:href="class_data_1_1_hash_function_1_1_farm_hash_1_1_farm_hash_fingerprint128___implementation.html#ad132c965537a4a280648e5b9067445c0" target="_top" xlink:title=" ">
<polygon fill="white" stroke="#666666" points="674.62,-156 476.38,-156 476.38,-112 674.62,-112 674.62,-156"/>
<text text-anchor="start" x="484.38" y="-142.5" font-family="Helvetica,sans-Serif" font-size="10.00">Data.HashFunction.FarmHash.</text>
<text text-anchor="start" x="484.38" y="-130.5" font-family="Helvetica,sans-Serif" font-size="10.00">FarmHashFingerprint128_Implementation.</text>
<text text-anchor="middle" x="575.5" y="-118.5" font-family="Helvetica,sans-Serif" font-size="10.00">HashLen16</text>
</a>
</g>
</g>
<!-- Node1&#45;&gt;Node3 -->
<g id="edge6_Node000001_Node000003" class="edge">
<title>Node1&#45;&gt;Node3</title>
<g id="a_edge6_Node000001_Node000003"><a xlink:title=" ">
<path fill="none" stroke="#63b8ff" d="M189.61,-94.46C204.46,-97.67 219.74,-100.67 234.25,-103 310.79,-115.27 397.86,-123.09 464.76,-127.81"/>
<polygon fill="#63b8ff" stroke="#63b8ff" points="464.43,-131.3 474.65,-128.49 464.91,-124.31 464.43,-131.3"/>
</a>
</g>
</g>
<!-- Node5 -->
<g id="Node000005" class="node">
<title>Node5</title>
<g id="a_Node000005"><a xlink:href="class_data_1_1_hash_function_1_1_farm_hash_1_1_farm_hash_fingerprint128___implementation.html#a2c7a6aea45808cc7f1ba453136095d02" target="_top" xlink:title=" ">
<polygon fill="white" stroke="#666666" points="682.5,-32 468.5,-32 468.5,0 682.5,0 682.5,-32"/>
<text text-anchor="start" x="476.5" y="-18.5" font-family="Helvetica,sans-Serif" font-size="10.00">Data.HashFunction.FarmHash.</text>
<text text-anchor="middle" x="575.5" y="-6.5" font-family="Helvetica,sans-Serif" font-size="10.00">FarmHashFingerprint128_Implementation.Mix</text>
</a>
</g>
</g>
<!-- Node1&#45;&gt;Node5 -->
<g id="edge7_Node000001_Node000005" class="edge">
<title>Node1&#45;&gt;Node5</title>
<g id="a_edge7_Node000001_Node000005"><a xlink:title=" ">
<path fill="none" stroke="#63b8ff" d="M188.5,-49.55C203.68,-46.28 219.36,-43.25 234.25,-41 307.88,-29.85 391.25,-23.63 457.04,-20.17"/>
<polygon fill="#63b8ff" stroke="#63b8ff" points="456.96,-23.68 466.77,-19.68 456.6,-16.69 456.96,-23.68"/>
</a>
</g>
</g>
<!-- Node2&#45;&gt;Node3 -->
<g id="edge2_Node000002_Node000003" class="edge">
<title>Node2&#45;&gt;Node3</title>
<g id="a_edge2_Node000002_Node000003"><a xlink:title=" ">
<path fill="none" stroke="#63b8ff" d="M421.41,-94.47C439.27,-99.08 458.2,-103.97 476.43,-108.68"/>
<polygon fill="#63b8ff" stroke="#63b8ff" points="475.34,-112.01 485.9,-111.12 477.09,-105.23 475.34,-112.01"/>
</a>
</g>
</g>
<!-- Node2&#45;&gt;Node5 -->
<g id="edge4_Node000002_Node000005" class="edge">
<title>Node2&#45;&gt;Node5</title>
<g id="a_edge4_Node000002_Node000005"><a xlink:title=" ">
<path fill="none" stroke="#63b8ff" d="M430.66,-49.55C451.36,-44.72 473.04,-39.66 493.1,-34.98"/>
<polygon fill="#63b8ff" stroke="#63b8ff" points="493.65,-38.45 502.59,-32.77 492.06,-31.63 493.65,-38.45"/>
</a>
</g>
</g>
<!-- Node6 -->
<g id="Node000006" class="node">
<title>Node6</title>
<g id="a_Node000006"><a xlink:href="class_data_1_1_hash_function_1_1_farm_hash_1_1_farm_hash_fingerprint128___implementation.html#a4aae47bb155fd682694f3890b0b45471" target="_top" xlink:title=" ">
<polygon fill="white" stroke="#666666" points="674.62,-94 476.38,-94 476.38,-50 674.62,-50 674.62,-94"/>
<text text-anchor="start" x="484.38" y="-80.5" font-family="Helvetica,sans-Serif" font-size="10.00">Data.HashFunction.FarmHash.</text>
<text text-anchor="start" x="484.38" y="-68.5" font-family="Helvetica,sans-Serif" font-size="10.00">FarmHashFingerprint128_Implementation.</text>
<text text-anchor="middle" x="575.5" y="-56.5" font-family="Helvetica,sans-Serif" font-size="10.00">RotateRight</text>
</a>
</g>
</g>
<!-- Node2&#45;&gt;Node6 -->
<g id="edge5_Node000002_Node000006" class="edge">
<title>Node2&#45;&gt;Node6</title>
<g id="a_edge5_Node000002_Node000006"><a xlink:title=" ">
<path fill="none" stroke="#63b8ff" d="M432.74,-72C443.2,-72 453.89,-72 464.47,-72"/>
<polygon fill="#63b8ff" stroke="#63b8ff" points="464.39,-75.5 474.39,-72 464.39,-68.5 464.39,-75.5"/>
</a>
</g>
</g>
<!-- Node4 -->
<g id="Node000004" class="node">
<title>Node4</title>
<g id="a_Node000004"><a xlink:href="class_data_1_1_hash_function_1_1_farm_hash_1_1_farm_hash_fingerprint128___implementation.html#a295eba0ca2e0d495d50ba0976cd6c1bb" target="_top" xlink:title=" ">
<polygon fill="white" stroke="#666666" points="916.75,-156 718.5,-156 718.5,-112 916.75,-112 916.75,-156"/>
<text text-anchor="start" x="726.5" y="-142.5" font-family="Helvetica,sans-Serif" font-size="10.00">Data.HashFunction.FarmHash.</text>
<text text-anchor="start" x="726.5" y="-130.5" font-family="Helvetica,sans-Serif" font-size="10.00">FarmHashFingerprint128_Implementation.</text>
<text text-anchor="middle" x="817.62" y="-118.5" font-family="Helvetica,sans-Serif" font-size="10.00">Hash128to64</text>
</a>
</g>
</g>
<!-- Node3&#45;&gt;Node4 -->
<g id="edge3_Node000003_Node000004" class="edge">
<title>Node3&#45;&gt;Node4</title>
<g id="a_edge3_Node000003_Node000004"><a xlink:title=" ">
<path fill="none" stroke="#63b8ff" d="M674.86,-134C685.32,-134 696.01,-134 706.6,-134"/>
<polygon fill="#63b8ff" stroke="#63b8ff" points="706.52,-137.5 716.51,-134 706.51,-130.5 706.52,-137.5"/>
</a>
</g>
</g>
</g>
</svg>
