<?xml version="1.0" encoding="UTF-8" standalone="no"?>
<!DOCTYPE svg PUBLIC "-//W3C//DTD SVG 1.1//EN"
 "http://www.w3.org/Graphics/SVG/1.1/DTD/svg11.dtd">
<!-- Generated by graphviz version 12.2.0 (20241103.1931)
 -->
<!-- Title: Data.HashFunction.MetroHash.MetroHash64_Implementation Pages: 1 -->
<svg width="671pt" height="128pt"
 viewBox="0.00 0.00 671.00 128.00" xmlns="http://www.w3.org/2000/svg" xmlns:xlink="http://www.w3.org/1999/xlink">
<g id="graph0" class="graph" transform="scale(1 1) rotate(0) translate(4 124)">
<title>Data.HashFunction.MetroHash.MetroHash64_Implementation</title>
<!-- Node1 -->
<g id="Node000001" class="node">
<title>Node1</title>
<g id="a_Node000001"><a xlink:title=" ">
<polygon fill="#999999" stroke="#666666" points="663,-76 508.25,-76 508.25,-44 663,-44 663,-76"/>
<text text-anchor="start" x="516.25" y="-62.5" font-family="Helvetica,sans-Serif" font-size="10.00">Data.HashFunction.MetroHash.</text>
<text text-anchor="middle" x="585.62" y="-50.5" font-family="Helvetica,sans-Serif" font-size="10.00">MetroHash64_Implementation</text>
</a>
</g>
</g>
<!-- Node2 -->
<g id="Node000002" class="node">
<title>Node2</title>
<g id="a_Node000002"><a xlink:href="class_data_1_1_hash_function_1_1_core_1_1_streamable_hash_function_base.html" target="_top" xlink:title="Common interface to non&#45;cryptographic hash functions that can be computed over a stream of data witho...">
<polygon fill="white" stroke="#666666" points="434.75,-108 286,-108 286,-88 434.75,-88 434.75,-108"/>
<text text-anchor="middle" x="360.38" y="-94.5" font-family="Helvetica,sans-Serif" font-size="10.00">StreamableHashFunctionBase</text>
</a>
</g>
</g>
<!-- Node2&#45;&gt;Node1 -->
<g id="edge1_Node000001_Node000002" class="edge">
<title>Node2&#45;&gt;Node1</title>
<g id="a_edge1_Node000001_Node000002"><a xlink:title=" ">
<path fill="none" stroke="#63b8ff" d="M434.01,-85.64C457.72,-81.6 484.11,-77.11 508.09,-73.03"/>
<polygon fill="#63b8ff" stroke="#63b8ff" points="433.73,-82.13 424.46,-87.26 434.91,-89.03 433.73,-82.13"/>
</a>
</g>
</g>
<!-- Node3 -->
<g id="Node000003" class="node">
<title>Node3</title>
<g id="a_Node000003"><a xlink:href="class_data_1_1_hash_function_1_1_core_1_1_hash_function_base.html" target="_top" xlink:title="Abstract implementation of an IHashFunction. Provides convenience checks and ensures a default HashSi...">
<polygon fill="white" stroke="#666666" points="231,-120 131.75,-120 131.75,-100 231,-100 231,-120"/>
<text text-anchor="middle" x="181.38" y="-106.5" font-family="Helvetica,sans-Serif" font-size="10.00">HashFunctionBase</text>
</a>
</g>
</g>
<!-- Node3&#45;&gt;Node2 -->
<g id="edge2_Node000002_Node000003" class="edge">
<title>Node3&#45;&gt;Node2</title>
<g id="a_edge2_Node000002_Node000003"><a xlink:title=" ">
<path fill="none" stroke="#63b8ff" d="M242.6,-105.92C256.5,-104.97 271.44,-103.96 285.83,-102.99"/>
<polygon fill="#63b8ff" stroke="#63b8ff" points="242.46,-102.42 232.72,-106.59 242.93,-109.4 242.46,-102.42"/>
</a>
</g>
</g>
<!-- Node4 -->
<g id="Node000004" class="node">
<title>Node4</title>
<g id="a_Node000004"><a xlink:href="interface_data_1_1_hash_function_1_1_i_hash_function.html" target="_top" xlink:title="Common interface to non&#45;cryptographic hash functions.">
<polygon fill="white" stroke="#666666" points="79.75,-100 0,-100 0,-80 79.75,-80 79.75,-100"/>
<text text-anchor="middle" x="39.88" y="-86.5" font-family="Helvetica,sans-Serif" font-size="10.00">IHashFunction</text>
</a>
</g>
</g>
<!-- Node4&#45;&gt;Node3 -->
<g id="edge3_Node000003_Node000004" class="edge">
<title>Node4&#45;&gt;Node3</title>
<g id="a_edge3_Node000003_Node000004"><a xlink:title=" ">
<path fill="none" stroke="#63b8ff" d="M91.31,-97.23C104.4,-99.11 118.48,-101.13 131.5,-102.99"/>
<polygon fill="#63b8ff" stroke="#63b8ff" points="92,-93.79 81.6,-95.84 91.01,-100.72 92,-93.79"/>
</a>
</g>
</g>
<!-- Node5 -->
<g id="Node000005" class="node">
<title>Node5</title>
<g id="a_Node000005"><a xlink:href="interface_data_1_1_hash_function_1_1_i_streamable_hash_function.html" target="_top" xlink:title="Common interface to non&#45;cryptographic hash functions that can be computed over a stream of data witho...">
<polygon fill="white" stroke="#666666" points="246,-82 116.75,-82 116.75,-62 246,-62 246,-82"/>
<text text-anchor="middle" x="181.38" y="-68.5" font-family="Helvetica,sans-Serif" font-size="10.00">IStreamableHashFunction</text>
</a>
</g>
</g>
<!-- Node4&#45;&gt;Node5 -->
<g id="edge5_Node000005_Node000004" class="edge">
<title>Node4&#45;&gt;Node5</title>
<g id="a_edge5_Node000005_Node000004"><a xlink:title=" ">
<path fill="none" stroke="#63b8ff" d="M91.3,-83.49C99.44,-82.44 107.96,-81.34 116.36,-80.26"/>
<polygon fill="#63b8ff" stroke="#63b8ff" points="91.08,-79.99 81.61,-84.74 91.97,-86.94 91.08,-79.99"/>
</a>
</g>
</g>
<!-- Node5&#45;&gt;Node2 -->
<g id="edge4_Node000002_Node000005" class="edge">
<title>Node5&#45;&gt;Node2</title>
<g id="a_edge4_Node000002_Node000005"><a xlink:title=" ">
<path fill="none" stroke="#63b8ff" d="M257.56,-83.04C267.68,-84.53 278.03,-86.05 288.07,-87.53"/>
<polygon fill="#63b8ff" stroke="#63b8ff" points="258.18,-79.6 247.77,-81.61 257.16,-86.52 258.18,-79.6"/>
</a>
</g>
</g>
<!-- Node6 -->
<g id="Node000006" class="node">
<title>Node6</title>
<g id="a_Node000006"><a xlink:href="interface_data_1_1_hash_function_1_1_metro_hash_1_1_i_metro_hash64.html" target="_top" xlink:title="Implementation of MetroHash64 as specified at https://github.com/jandrewrogers/MetroHash.">
<polygon fill="white" stroke="#666666" points="399.12,-70 321.62,-70 321.62,-50 399.12,-50 399.12,-70"/>
<text text-anchor="middle" x="360.38" y="-56.5" font-family="Helvetica,sans-Serif" font-size="10.00">IMetroHash64</text>
</a>
</g>
</g>
<!-- Node5&#45;&gt;Node6 -->
<g id="edge7_Node000006_Node000005" class="edge">
<title>Node5&#45;&gt;Node6</title>
<g id="a_edge7_Node000006_Node000005"><a xlink:title=" ">
<path fill="none" stroke="#63b8ff" d="M257.64,-66.9C279.61,-65.41 302.7,-63.84 321.32,-62.58"/>
<polygon fill="#63b8ff" stroke="#63b8ff" points="257.53,-63.4 247.79,-67.57 258,-70.38 257.53,-63.4"/>
</a>
</g>
</g>
<!-- Node6&#45;&gt;Node1 -->
<g id="edge6_Node000001_Node000006" class="edge">
<title>Node6&#45;&gt;Node1</title>
<g id="a_edge6_Node000001_Node000006"><a xlink:title=" ">
<path fill="none" stroke="#63b8ff" d="M410.78,-60C439.25,-60 475.65,-60 507.78,-60"/>
<polygon fill="#63b8ff" stroke="#63b8ff" points="411.01,-56.5 401.01,-60 411.01,-63.5 411.01,-56.5"/>
</a>
</g>
</g>
<!-- Node7 -->
<g id="Node000007" class="node">
<title>Node7</title>
<g id="a_Node000007"><a xlink:href="interface_data_1_1_hash_function_1_1_metro_hash_1_1_i_metro_hash_config.html" target="_top" xlink:title="Defines a configuration for a MetroHash implementation.">
<polygon fill="white" stroke="#666666" points="437.75,-32 283,-32 283,0 437.75,0 437.75,-32"/>
<text text-anchor="start" x="291" y="-18.5" font-family="Helvetica,sans-Serif" font-size="10.00">Data.HashFunction.MetroHash.</text>
<text text-anchor="middle" x="360.38" y="-6.5" font-family="Helvetica,sans-Serif" font-size="10.00">IMetroHashConfig</text>
</a>
</g>
</g>
<!-- Node7&#45;&gt;Node1 -->
<g id="edge8_Node000001_Node000007" class="edge">
<title>Node7&#45;&gt;Node1</title>
<g id="a_edge8_Node000001_Node000007"><a xlink:title=" ">
<path fill="none" stroke="#9a32cd" stroke-dasharray="5,2" d="M449.47,-33.36C468.83,-37.18 489.17,-41.19 508.03,-44.9"/>
<polygon fill="#9a32cd" stroke="#9a32cd" points="450.18,-29.93 439.69,-31.43 448.82,-36.8 450.18,-29.93"/>
</a>
</g>
<text text-anchor="middle" x="473" y="-43.13" font-family="Helvetica,sans-Serif" font-size="10.00" fill="grey"> _config</text>
</g>
</g>
</svg>
