<?xml version="1.0" encoding="UTF-8" standalone="no"?>
<!DOCTYPE svg PUBLIC "-//W3C//DTD SVG 1.1//EN"
 "http://www.w3.org/Graphics/SVG/1.1/DTD/svg11.dtd">
<!-- Generated by graphviz version 12.2.0 (20241103.1931)
 -->
<!-- Title: Data.HashFunction.FNV.FNV1a_Implementation Pages: 1 -->
<!--zoomable 166 -->

<svg id="main" version="1.1" xmlns="http://www.w3.org/2000/svg" xmlns:xlink="http://www.w3.org/1999/xlink" xml:space="preserve" onload="init(evt)">

<style type="text/css"><![CDATA[
.node, .edge {opacity: 0.7;}
.node.selected, .edge.selected {opacity: 1;}
.edge:hover path { stroke: red; }
.edge:hover polygon { stroke: red; fill: red; }
]]></style>

<defs>
  <circle id="rim" cx="0" cy="0" r="7"/>
  <circle id="rim2" cx="0" cy="0" r="3.5"/>
  <g id="zoomPlus">
    <use xlink:href="#rim" fill="#404040"><set attributeName="fill" to="#808080" begin="zoomplus.mouseover" end="zoomplus.mouseout"/></use>
    <path d="M-4,0h8M0,-4v8" fill="none" stroke="white" stroke-width="1.5" pointer-events="none"/>
  </g>
  <g id="zoomMin">
    <use xlink:href="#rim" fill="#404040"><set attributeName="fill" to="#808080" begin="zoomminus.mouseover" end="zoomminus.mouseout"/></use>
    <path d="M-4,0h8" fill="none" stroke="white" stroke-width="1.5" pointer-events="none"/>
  </g>
  <g id="arrowUp" transform="translate(30 24)">
    <use xlink:href="#rim"/>
    <path pointer-events="none" fill="none" stroke="white" stroke-width="1.5" d="M0,-3.0v7 M-2.5,-0.5L0,-3.0L2.5,-0.5"/>
  </g>
  <g id="arrowRight" transform="rotate(90) translate(36 -43)">
    <use xlink:href="#rim"/>
    <path pointer-events="none" fill="none" stroke="white" stroke-width="1.5" d="M0,-3.0v7 M-2.5,-0.5L0,-3.0L2.5,-0.5"/>
  </g>
  <g id="arrowDown" transform="rotate(180) translate(-30 -48)">
    <use xlink:href="#rim"/>
    <path pointer-events="none" fill="none" stroke="white" stroke-width="1.5" d="M0,-3.0v7 M-2.5,-0.5L0,-3.0L2.5,-0.5"/>
  </g>
  <g id="arrowLeft" transform="rotate(270) translate(-36 17)">
    <use xlink:href="#rim"/>
    <path pointer-events="none" fill="none" stroke="white" stroke-width="1.5" d="M0,-3.0v7 M-2.5,-0.5L0,-3.0L2.5,-0.5"/>
  </g>
  <g id="resetDef">
    <use xlink:href="#rim2" fill="#404040"><set attributeName="fill" to="#808080" begin="reset.mouseover" end="reset.mouseout"/></use>
  </g>
</defs>
<script type="application/ecmascript">
var viewWidth = 837;
var viewHeight = 166;
var sectionId = 'dynsection-1';
</script>
<script type="application/ecmascript" xlink:href="svg.min.js"/>
<svg id="graph" class="graph">
<g id="viewport">
<title>Data.HashFunction.FNV.FNV1a_Implementation</title>
<!-- Node1 -->
<g id="Node000001" class="node">
<title>Node1</title>
<g id="a_Node000001"><a xlink:title=" ">
<polygon fill="#999999" stroke="#666666" points="828.5,-102 671.5,-102 671.5,-70 828.5,-70 828.5,-102"/>
<text text-anchor="start" x="679.5" y="-88.5" font-family="Helvetica,sans-Serif" font-size="10.00">Data.HashFunction.FNV.FNV1a</text>
<text text-anchor="middle" x="750" y="-76.5" font-family="Helvetica,sans-Serif" font-size="10.00">_Implementation</text>
</a>
</g>
</g>
<!-- Node2 -->
<g id="Node000002" class="node">
<title>Node2</title>
<g id="a_Node000002"><a xlink:href="class_data_1_1_hash_function_1_1_f_n_v_1_1_f_n_v1_base.html" target="_top" xlink:title=" ">
<polygon fill="white" stroke="#666666" points="634.5,-78 570.5,-78 570.5,-58 634.5,-58 634.5,-78"/>
<text text-anchor="middle" x="602.5" y="-64.5" font-family="Helvetica,sans-Serif" font-size="10.00">FNV1Base</text>
</a>
</g>
</g>
<!-- Node2&#45;&gt;Node1 -->
<g id="edge1_Node000001_Node000002" class="edge">
<title>Node2&#45;&gt;Node1</title>
<g id="a_edge1_Node000001_Node000002"><a xlink:title=" ">
<path fill="none" stroke="#63b8ff" d="M645.94,-73.25C653.93,-74.24 662.52,-75.3 671.2,-76.38"/>
<polygon fill="#63b8ff" stroke="#63b8ff" points="646.57,-69.8 636.22,-72.05 645.71,-76.75 646.57,-69.8"/>
</a>
</g>
</g>
<!-- Node3 -->
<g id="Node000003" class="node">
<title>Node3</title>
<g id="a_Node000003"><a xlink:href="class_data_1_1_hash_function_1_1_core_1_1_streamable_hash_function_base.html" target="_top" xlink:title="Common interface to non&#45;cryptographic hash functions that can be computed over a stream of data witho...">
<polygon fill="white" stroke="#666666" points="446.38,-146 297.62,-146 297.62,-126 446.38,-126 446.38,-146"/>
<text text-anchor="middle" x="372" y="-132.5" font-family="Helvetica,sans-Serif" font-size="10.00">StreamableHashFunctionBase</text>
</a>
</g>
</g>
<!-- Node3&#45;&gt;Node2 -->
<g id="edge2_Node000002_Node000003" class="edge">
<title>Node3&#45;&gt;Node2</title>
<g id="a_edge2_Node000002_Node000003"><a xlink:title=" ">
<path fill="none" stroke="#63b8ff" d="M444.65,-123.26C478.03,-116.21 517.93,-106.18 552.5,-93 563.03,-88.99 574.26,-83.36 583.31,-78.46"/>
<polygon fill="#63b8ff" stroke="#63b8ff" points="444.16,-119.79 435.07,-125.23 445.57,-126.65 444.16,-119.79"/>
</a>
</g>
</g>
<!-- Node4 -->
<g id="Node000004" class="node">
<title>Node4</title>
<g id="a_Node000004"><a xlink:href="class_data_1_1_hash_function_1_1_core_1_1_hash_function_base.html" target="_top" xlink:title="Abstract implementation of an IHashFunction. Provides convenience checks and ensures a default HashSi...">
<polygon fill="white" stroke="#666666" points="231,-158 131.75,-158 131.75,-138 231,-138 231,-158"/>
<text text-anchor="middle" x="181.38" y="-144.5" font-family="Helvetica,sans-Serif" font-size="10.00">HashFunctionBase</text>
</a>
</g>
</g>
<!-- Node4&#45;&gt;Node3 -->
<g id="edge3_Node000003_Node000004" class="edge">
<title>Node4&#45;&gt;Node3</title>
<g id="a_edge3_Node000003_Node000004"><a xlink:title=" ">
<path fill="none" stroke="#63b8ff" d="M242.59,-144.17C259.98,-143.06 279.17,-141.84 297.29,-140.69"/>
<polygon fill="#63b8ff" stroke="#63b8ff" points="242.71,-140.65 232.95,-144.78 243.15,-147.64 242.71,-140.65"/>
</a>
</g>
</g>
<!-- Node5 -->
<g id="Node000005" class="node">
<title>Node5</title>
<g id="a_Node000005"><a xlink:href="interface_data_1_1_hash_function_1_1_i_hash_function.html" target="_top" xlink:title="Common interface to non&#45;cryptographic hash functions.">
<polygon fill="white" stroke="#666666" points="79.75,-138 0,-138 0,-118 79.75,-118 79.75,-138"/>
<text text-anchor="middle" x="39.88" y="-124.5" font-family="Helvetica,sans-Serif" font-size="10.00">IHashFunction</text>
</a>
</g>
</g>
<!-- Node5&#45;&gt;Node4 -->
<g id="edge4_Node000004_Node000005" class="edge">
<title>Node5&#45;&gt;Node4</title>
<g id="a_edge4_Node000004_Node000005"><a xlink:title=" ">
<path fill="none" stroke="#63b8ff" d="M91.31,-135.23C104.4,-137.11 118.48,-139.13 131.5,-140.99"/>
<polygon fill="#63b8ff" stroke="#63b8ff" points="92,-131.79 81.6,-133.84 91.01,-138.72 92,-131.79"/>
</a>
</g>
</g>
<!-- Node6 -->
<g id="Node000006" class="node">
<title>Node6</title>
<g id="a_Node000006"><a xlink:href="interface_data_1_1_hash_function_1_1_i_streamable_hash_function.html" target="_top" xlink:title="Common interface to non&#45;cryptographic hash functions that can be computed over a stream of data witho...">
<polygon fill="white" stroke="#666666" points="246,-120 116.75,-120 116.75,-100 246,-100 246,-120"/>
<text text-anchor="middle" x="181.38" y="-106.5" font-family="Helvetica,sans-Serif" font-size="10.00">IStreamableHashFunction</text>
</a>
</g>
</g>
<!-- Node5&#45;&gt;Node6 -->
<g id="edge6_Node000006_Node000005" class="edge">
<title>Node5&#45;&gt;Node6</title>
<g id="a_edge6_Node000006_Node000005"><a xlink:title=" ">
<path fill="none" stroke="#63b8ff" d="M91.3,-121.49C99.44,-120.44 107.96,-119.34 116.36,-118.26"/>
<polygon fill="#63b8ff" stroke="#63b8ff" points="91.08,-117.99 81.61,-122.74 91.97,-124.94 91.08,-117.99"/>
</a>
</g>
</g>
<!-- Node6&#45;&gt;Node3 -->
<g id="edge5_Node000003_Node000006" class="edge">
<title>Node6&#45;&gt;Node3</title>
<g id="a_edge5_Node000003_Node000006"><a xlink:title=" ">
<path fill="none" stroke="#63b8ff" d="M257.79,-120.39C270.81,-122.19 284.33,-124.05 297.31,-125.84"/>
<polygon fill="#63b8ff" stroke="#63b8ff" points="258.38,-116.94 248,-119.05 257.43,-123.88 258.38,-116.94"/>
</a>
</g>
</g>
<!-- Node7 -->
<g id="Node000007" class="node">
<title>Node7</title>
<g id="a_Node000007"><a xlink:href="interface_data_1_1_hash_function_1_1_f_n_v_1_1_i_f_n_v.html" target="_top" xlink:title="Implementation of Fowler–Noll–Vo hash function (FNV&#45;1 or FNV&#45;1a) as specified at http://www....">
<polygon fill="white" stroke="#666666" points="391.62,-108 352.38,-108 352.38,-88 391.62,-88 391.62,-108"/>
<text text-anchor="middle" x="372" y="-94.5" font-family="Helvetica,sans-Serif" font-size="10.00">IFNV</text>
</a>
</g>
</g>
<!-- Node6&#45;&gt;Node7 -->
<g id="edge8_Node000007_Node000006" class="edge">
<title>Node6&#45;&gt;Node7</title>
<g id="a_edge8_Node000007_Node000006"><a xlink:title=" ">
<path fill="none" stroke="#63b8ff" d="M257.94,-105.19C292.16,-103.02 329.81,-100.62 351.88,-99.22"/>
<polygon fill="#63b8ff" stroke="#63b8ff" points="257.77,-101.7 248.01,-105.82 258.21,-108.68 257.77,-101.7"/>
</a>
</g>
</g>
<!-- Node7&#45;&gt;Node2 -->
<g id="edge7_Node000002_Node000007" class="edge">
<title>Node7&#45;&gt;Node2</title>
<g id="a_edge7_Node000002_Node000007"><a xlink:title=" ">
<path fill="none" stroke="#63b8ff" d="M403.31,-94.02C446.7,-88.32 526.12,-77.9 570.1,-72.12"/>
<polygon fill="#63b8ff" stroke="#63b8ff" points="403.05,-90.52 393.59,-95.3 403.96,-97.47 403.05,-90.52"/>
</a>
</g>
</g>
<!-- Node10 -->
<g id="Node000010" class="node">
<title>Node10</title>
<g id="a_Node000010"><a xlink:href="interface_data_1_1_hash_function_1_1_f_n_v_1_1_i_f_n_v1a.html" target="_top" xlink:title="Implementation of Fowler–Noll–Vo hash function (FNV&#45;1a) as specified at http://www....">
<polygon fill="white" stroke="#666666" points="627.38,-116 577.62,-116 577.62,-96 627.38,-96 627.38,-116"/>
<text text-anchor="middle" x="602.5" y="-102.5" font-family="Helvetica,sans-Serif" font-size="10.00">IFNV1a</text>
</a>
</g>
</g>
<!-- Node7&#45;&gt;Node10 -->
<g id="edge12_Node000010_Node000007" class="edge">
<title>Node7&#45;&gt;Node10</title>
<g id="a_edge12_Node000010_Node000007"><a xlink:title=" ">
<path fill="none" stroke="#63b8ff" d="M403.36,-99.06C449.22,-100.67 535.24,-103.68 577.22,-105.15"/>
<polygon fill="#63b8ff" stroke="#63b8ff" points="403.72,-95.57 393.6,-98.72 403.47,-102.57 403.72,-95.57"/>
</a>
</g>
</g>
<!-- Node8 -->
<g id="Node000008" class="node">
<title>Node8</title>
<g id="a_Node000008"><a xlink:href="interface_data_1_1_hash_function_1_1_f_n_v_1_1_i_f_n_v_config.html" target="_top" xlink:title="Defines a configuration for a IFNV implementation.">
<polygon fill="white" stroke="#666666" points="461,-20 283,-20 283,0 461,0 461,-20"/>
<text text-anchor="middle" x="372" y="-6.5" font-family="Helvetica,sans-Serif" font-size="10.00">Data.HashFunction.FNV.IFNVConfig</text>
</a>
</g>
</g>
<!-- Node8&#45;&gt;Node2 -->
<g id="edge9_Node000002_Node000008" class="edge">
<title>Node8&#45;&gt;Node2</title>
<g id="a_edge9_Node000002_Node000008"><a xlink:title=" ">
<path fill="none" stroke="#9a32cd" stroke-dasharray="5,2" d="M472.63,-14.85C499.21,-18.41 527.49,-24.31 552.5,-34 566.6,-39.46 580.55,-49.75 589.94,-57.59"/>
<polygon fill="#9a32cd" stroke="#9a32cd" points="473.21,-11.4 462.85,-13.65 472.35,-18.35 473.21,-11.4"/>
</a>
</g>
<text text-anchor="middle" x="515.75" y="-36.5" font-family="Helvetica,sans-Serif" font-size="10.00" fill="grey"> _config</text>
</g>
<!-- Node9 -->
<g id="Node000009" class="node">
<title>Node9</title>
<g id="a_Node000009"><a xlink:href="class_data_1_1_hash_function_1_1_f_n_v_1_1_utilities_1_1_f_n_v_prime_offset.html" target="_top" xlink:title=" ">
<polygon fill="white" stroke="#666666" points="453.12,-70 290.88,-70 290.88,-38 453.12,-38 453.12,-70"/>
<text text-anchor="start" x="298.88" y="-56.5" font-family="Helvetica,sans-Serif" font-size="10.00">Data.HashFunction.FNV.Utilities.</text>
<text text-anchor="middle" x="372" y="-44.5" font-family="Helvetica,sans-Serif" font-size="10.00">FNVPrimeOffset</text>
</a>
</g>
</g>
<!-- Node9&#45;&gt;Node2 -->
<g id="edge10_Node000002_Node000009" class="edge">
<title>Node9&#45;&gt;Node2</title>
<g id="a_edge10_Node000002_Node000009"><a xlink:title=" ">
<path fill="none" stroke="#9a32cd" stroke-dasharray="5,2" d="M464.77,-50.04C493.01,-50.02 524.13,-51.22 552.5,-55 558.26,-55.77 564.3,-57 570.11,-58.41"/>
<polygon fill="#9a32cd" stroke="#9a32cd" points="464.76,-46.54 454.79,-50.11 464.81,-53.54 464.76,-46.54"/>
</a>
</g>
<text text-anchor="middle" x="515.75" y="-57.5" font-family="Helvetica,sans-Serif" font-size="10.00" fill="grey"> _fnvPrimeOffset</text>
</g>
<!-- Node10&#45;&gt;Node1 -->
<g id="edge11_Node000001_Node000010" class="edge">
<title>Node10&#45;&gt;Node1</title>
<g id="a_edge11_Node000001_Node000010"><a xlink:title=" ">
<path fill="none" stroke="#63b8ff" d="M639.13,-101.1C648.93,-99.76 659.96,-98.24 671.15,-96.7"/>
<polygon fill="#63b8ff" stroke="#63b8ff" points="638.78,-97.62 629.35,-102.45 639.74,-104.55 638.78,-97.62"/>
</a>
</g>
</g>
</g>
</svg>

<g id="navigator" transform="translate(0 0)" fill="#404254">
  <rect fill="#f2f5e9" fill-opacity="0.5" stroke="#606060" stroke-width=".5" x="0" y="0" width="60" height="60"/>
  <use id="zoomplus" xlink:href="#zoomPlus" x="17" y="9" onmousedown="handleZoom(evt,'in')"/>
  <use id="zoomminus" xlink:href="#zoomMin" x="42" y="9" onmousedown="handleZoom(evt,'out')"/>
  <use id="reset" xlink:href="#resetDef" x="30" y="36" onmousedown="handleReset()"/>
   <use id="arrowup" xlink:href="#arrowUp" x="0" y="0" onmousedown="handlePan(0,-1)"/>
  <use id="arrowright" xlink:href="#arrowRight" x="0" y="0" onmousedown="handlePan(1,0)"/>
  <use id="arrowdown" xlink:href="#arrowDown" x="0" y="0" onmousedown="handlePan(0,1)"/>
  <use id="arrowleft" xlink:href="#arrowLeft" x="0" y="0" onmousedown="handlePan(-1,0)"/>
</g>
<svg viewBox="0 0 15 15" width="100%" height="30px" preserveAspectRatio="xMaxYMin meet">
 <g id="arrow_out" transform="scale(0.3 0.3)">
  <a xlink:href="class_data_1_1_hash_function_1_1_f_n_v_1_1_f_n_v1a___implementation__coll__graph_org.svg" target="_base">
   <rect id="button" ry="5" rx="5" y="6" x="6" height="38" width="38"
        fill="#f2f5e9" fill-opacity="0.5" stroke="#606060" stroke-width="1.0"/>
   <path id="arrow"
     d="M 11.500037,31.436501 C 11.940474,20.09759 22.043105,11.32322 32.158766,21.979434 L 37.068811,17.246167 C 37.068811,17.246167 37.088388,32 37.088388,32 L 22.160133,31.978069 C 22.160133,31.978069 26.997745,27.140456 26.997745,27.140456 C 18.528582,18.264221 13.291696,25.230495 11.500037,31.436501 z"
     style="fill:#404040;"/>
  </a>
 </g>
</svg>

<style type='text/css'>
<![CDATA[
[data-mouse-over-selected='false'] { opacity: 0.7; }
[data-mouse-over-selected='true']  { opacity: 1.0; }
]]>
</style>
<script type="application/ecmascript"><![CDATA[
document.addEventListener('DOMContentLoaded', (event) => {
  highlightEdges();
  highlightAdjacentNodes();
});
]]></script>
</svg>
