<?xml version="1.0" encoding="UTF-8" standalone="no"?>
<!DOCTYPE svg PUBLIC "-//W3C//DTD SVG 1.1//EN"
 "http://www.w3.org/Graphics/SVG/1.1/DTD/svg11.dtd">
<!-- Generated by graphviz version 12.2.0 (20241103.1931)
 -->
<!-- Title: Data.HashFunction.CityHash.CityHash_Implementation.Hash128to64 Pages: 1 -->
<svg width="1535pt" height="193pt"
 viewBox="0.00 0.00 1534.50 193.35" xmlns="http://www.w3.org/2000/svg" xmlns:xlink="http://www.w3.org/1999/xlink">
<g id="graph0" class="graph" transform="scale(1 1) rotate(0) translate(4 189.35)">
<title>Data.HashFunction.CityHash.CityHash_Implementation.Hash128to64</title>
<!-- Node1 -->
<g id="Node000001" class="node">
<title>Node1</title>
<g id="a_Node000001"><a xlink:title=" ">
<polygon fill="#999999" stroke="#666666" points="1526.5,-132 1336.5,-132 1336.5,-100 1526.5,-100 1526.5,-132"/>
<text text-anchor="start" x="1344.5" y="-118.5" font-family="Helvetica,sans-Serif" font-size="10.00">Data.HashFunction.CityHash.</text>
<text text-anchor="middle" x="1431.5" y="-106.5" font-family="Helvetica,sans-Serif" font-size="10.00">CityHash_Implementation.Hash128to64</text>
</a>
</g>
</g>
<!-- Node2 -->
<g id="Node000002" class="node">
<title>Node2</title>
<g id="a_Node000002"><a xlink:href="class_data_1_1_hash_function_1_1_city_hash_1_1_city_hash___implementation.html#a44c7f6a47b61dd01499fa3ffd79fba5c" target="_top" xlink:title=" ">
<polygon fill="white" stroke="#666666" points="1300.5,-132 1108.25,-132 1108.25,-100 1300.5,-100 1300.5,-132"/>
<text text-anchor="start" x="1116.25" y="-118.5" font-family="Helvetica,sans-Serif" font-size="10.00">Data.HashFunction.CityHash.</text>
<text text-anchor="middle" x="1204.38" y="-106.5" font-family="Helvetica,sans-Serif" font-size="10.00">CityHash_Implementation.Hash64Len16</text>
</a>
</g>
</g>
<!-- Node1&#45;&gt;Node2 -->
<g id="edge1_Node000001_Node000002" class="edge">
<title>Node1&#45;&gt;Node2</title>
<g id="a_edge1_Node000001_Node000002"><a xlink:title=" ">
<path fill="none" stroke="#63b8ff" d="M1324.72,-116C1316.71,-116 1308.65,-116 1300.71,-116"/>
<polygon fill="#63b8ff" stroke="#63b8ff" points="1324.49,-119.5 1334.49,-116 1324.49,-112.5 1324.49,-119.5"/>
</a>
</g>
</g>
<!-- Node3 -->
<g id="Node000003" class="node">
<title>Node3</title>
<g id="a_Node000003"><a xlink:href="class_data_1_1_hash_function_1_1_city_hash_1_1_city_hash___implementation.html#a92d4c0e8db6ecadfeb5497f3f0fe3efb" target="_top" xlink:title=" ">
<polygon fill="white" stroke="#666666" points="605.25,-168 416,-168 416,-124 605.25,-124 605.25,-168"/>
<text text-anchor="start" x="424" y="-154.5" font-family="Helvetica,sans-Serif" font-size="10.00">Data.HashFunction.CityHash.</text>
<text text-anchor="start" x="424" y="-142.5" font-family="Helvetica,sans-Serif" font-size="10.00">CityHash_Implementation.CityHash128</text>
<text text-anchor="middle" x="510.62" y="-130.5" font-family="Helvetica,sans-Serif" font-size="10.00">WithSeed</text>
</a>
</g>
</g>
<!-- Node2&#45;&gt;Node3 -->
<g id="edge2_Node000002_Node000003" class="edge">
<title>Node2&#45;&gt;Node3</title>
<g id="a_edge2_Node000002_Node000003"><a xlink:title=" ">
<path fill="none" stroke="#63b8ff" d="M1152.18,-136.33C1128.29,-144.9 1099.22,-154.02 1072.25,-159 883.81,-193.8 832.01,-189.23 641.25,-171 629.61,-169.89 617.47,-168.23 605.48,-166.28"/>
<polygon fill="#63b8ff" stroke="#63b8ff" points="1153.17,-139.7 1161.35,-132.97 1150.76,-133.12 1153.17,-139.7"/>
</a>
</g>
</g>
<!-- Node6 -->
<g id="Node000006" class="node">
<title>Node6</title>
<g id="a_Node000006"><a xlink:href="class_data_1_1_hash_function_1_1_city_hash_1_1_city_hash___implementation.html#ad44ecf3b0ac0c86d3791f37b762f4b39" target="_top" xlink:title=" ">
<polygon fill="white" stroke="#666666" points="824.5,-162 641.25,-162 641.25,-130 824.5,-130 824.5,-162"/>
<text text-anchor="start" x="649.25" y="-148.5" font-family="Helvetica,sans-Serif" font-size="10.00">Data.HashFunction.CityHash.</text>
<text text-anchor="middle" x="732.88" y="-136.5" font-family="Helvetica,sans-Serif" font-size="10.00">CityHash_Implementation.CityMurmur</text>
</a>
</g>
</g>
<!-- Node2&#45;&gt;Node6 -->
<g id="edge5_Node000002_Node000006" class="edge">
<title>Node2&#45;&gt;Node6</title>
<g id="a_edge5_Node000002_Node000006"><a xlink:title=" ">
<path fill="none" stroke="#63b8ff" d="M1118.19,-134.46C1102.96,-137.12 1087.18,-139.48 1072.25,-141 988.81,-149.51 893.22,-150.08 824.96,-148.92"/>
<polygon fill="#63b8ff" stroke="#63b8ff" points="1118.46,-137.97 1127.67,-132.74 1117.21,-131.08 1118.46,-137.97"/>
</a>
</g>
</g>
<!-- Node7 -->
<g id="Node000007" class="node">
<title>Node7</title>
<g id="a_Node000007"><a xlink:href="class_data_1_1_hash_function_1_1_city_hash_1_1_city_hash___implementation.html#ace2758fca35c5ac5a5698e2f1a4aa513" target="_top" xlink:title=" ">
<polygon fill="white" stroke="#666666" points="1069.25,-132 863.5,-132 863.5,-100 1069.25,-100 1069.25,-132"/>
<text text-anchor="start" x="871.5" y="-118.5" font-family="Helvetica,sans-Serif" font-size="10.00">Data.HashFunction.CityHash.</text>
<text text-anchor="middle" x="966.38" y="-106.5" font-family="Helvetica,sans-Serif" font-size="10.00">CityHash_Implementation.Hash64Len0to16</text>
</a>
</g>
</g>
<!-- Node2&#45;&gt;Node7 -->
<g id="edge7_Node000002_Node000007" class="edge">
<title>Node2&#45;&gt;Node7</title>
<g id="a_edge7_Node000002_Node000007"><a xlink:title=" ">
<path fill="none" stroke="#63b8ff" d="M1096.71,-116C1087.69,-116 1078.58,-116 1069.6,-116"/>
<polygon fill="#63b8ff" stroke="#63b8ff" points="1096.55,-119.5 1106.55,-116 1096.55,-112.5 1096.55,-119.5"/>
</a>
</g>
</g>
<!-- Node9 -->
<g id="Node000009" class="node">
<title>Node9</title>
<g id="a_Node000009"><a xlink:href="class_data_1_1_hash_function_1_1_city_hash_1_1_city_hash___implementation.html#a0b29a1ea9798ffc90ac79ecf0987fc35" target="_top" xlink:title=" ">
<polygon fill="white" stroke="#666666" points="1071.88,-82 860.88,-82 860.88,-50 1071.88,-50 1071.88,-82"/>
<text text-anchor="start" x="868.88" y="-68.5" font-family="Helvetica,sans-Serif" font-size="10.00">Data.HashFunction.CityHash.</text>
<text text-anchor="middle" x="966.38" y="-56.5" font-family="Helvetica,sans-Serif" font-size="10.00">CityHash_Implementation.Hash64Len17to32</text>
</a>
</g>
</g>
<!-- Node2&#45;&gt;Node9 -->
<g id="edge11_Node000002_Node000009" class="edge">
<title>Node2&#45;&gt;Node9</title>
<g id="a_edge11_Node000002_Node000009"><a xlink:title=" ">
<path fill="none" stroke="#63b8ff" d="M1114.68,-97.21C1091.78,-92.36 1067.31,-87.17 1045.02,-82.45"/>
<polygon fill="#63b8ff" stroke="#63b8ff" points="1113.78,-100.6 1124.29,-99.25 1115.23,-93.75 1113.78,-100.6"/>
</a>
</g>
</g>
<!-- Node10 -->
<g id="Node000010" class="node">
<title>Node10</title>
<g id="a_Node000010"><a xlink:href="class_data_1_1_hash_function_1_1_city_hash_1_1_city_hash___implementation.html#a4cf34ecb496d7caf130c96462e5f47b7" target="_top" xlink:title=" ">
<polygon fill="white" stroke="#666666" points="1072.25,-32 860.5,-32 860.5,0 1072.25,0 1072.25,-32"/>
<text text-anchor="start" x="868.5" y="-18.5" font-family="Helvetica,sans-Serif" font-size="10.00">Data.HashFunction.CityHash.</text>
<text text-anchor="middle" x="966.38" y="-6.5" font-family="Helvetica,sans-Serif" font-size="10.00">CityHash_Implementation.Hash64Len65Plus</text>
</a>
</g>
</g>
<!-- Node2&#45;&gt;Node10 -->
<g id="edge13_Node000002_Node000010" class="edge">
<title>Node2&#45;&gt;Node10</title>
<g id="a_edge13_Node000002_Node000010"><a xlink:title=" ">
<path fill="none" stroke="#63b8ff" d="M1170.15,-93.44C1144.41,-76.86 1107.34,-54.89 1072.25,-41 1064.24,-37.83 1055.73,-35 1047.15,-32.47"/>
<polygon fill="#63b8ff" stroke="#63b8ff" points="1168.22,-96.36 1178.5,-98.9 1172.05,-90.5 1168.22,-96.36"/>
</a>
</g>
</g>
<!-- Node4 -->
<g id="Node000004" class="node">
<title>Node4</title>
<g id="a_Node000004"><a xlink:href="class_data_1_1_hash_function_1_1_city_hash_1_1_city_hash___implementation.html#ade0382cabc2ec27c01cf6cdc9b833590" target="_top" xlink:title=" ">
<polygon fill="white" stroke="#666666" points="380,-167 208,-167 208,-123 380,-123 380,-167"/>
<text text-anchor="start" x="216" y="-153.5" font-family="Helvetica,sans-Serif" font-size="10.00">Data.HashFunction.CityHash.</text>
<text text-anchor="start" x="216" y="-141.5" font-family="Helvetica,sans-Serif" font-size="10.00">CityHash_Implementation.Compute</text>
<text text-anchor="middle" x="294" y="-129.5" font-family="Helvetica,sans-Serif" font-size="10.00">Hash128</text>
</a>
</g>
</g>
<!-- Node3&#45;&gt;Node4 -->
<g id="edge3_Node000003_Node000004" class="edge">
<title>Node3&#45;&gt;Node4</title>
<g id="a_edge3_Node000003_Node000004"><a xlink:title=" ">
<path fill="none" stroke="#63b8ff" d="M404.37,-145.51C396.26,-145.47 388.14,-145.43 380.19,-145.4"/>
<polygon fill="#63b8ff" stroke="#63b8ff" points="404.27,-149.01 414.29,-145.56 404.3,-142.01 404.27,-149.01"/>
</a>
</g>
</g>
<!-- Node5 -->
<g id="Node000005" class="node">
<title>Node5</title>
<g id="a_Node000005"><a xlink:href="class_data_1_1_hash_function_1_1_city_hash_1_1_city_hash___implementation.html#ae936ee82719f44aba970a71e22aa5aea" target="_top" xlink:title=" ">
<polygon fill="white" stroke="#666666" points="172,-139 0,-139 0,-95 172,-95 172,-139"/>
<text text-anchor="start" x="8" y="-125.5" font-family="Helvetica,sans-Serif" font-size="10.00">Data.HashFunction.CityHash.</text>
<text text-anchor="start" x="8" y="-113.5" font-family="Helvetica,sans-Serif" font-size="10.00">CityHash_Implementation.Compute</text>
<text text-anchor="middle" x="86" y="-101.5" font-family="Helvetica,sans-Serif" font-size="10.00">HashInternal</text>
</a>
</g>
</g>
<!-- Node4&#45;&gt;Node5 -->
<g id="edge4_Node000004_Node000005" class="edge">
<title>Node4&#45;&gt;Node5</title>
<g id="a_edge4_Node000004_Node000005"><a xlink:title=" ">
<path fill="none" stroke="#63b8ff" d="M196.37,-131.87C188.31,-130.77 180.19,-129.67 172.21,-128.58"/>
<polygon fill="#63b8ff" stroke="#63b8ff" points="195.84,-135.33 206.23,-133.21 196.79,-128.39 195.84,-135.33"/>
</a>
</g>
</g>
<!-- Node6&#45;&gt;Node3 -->
<g id="edge6_Node000006_Node000003" class="edge">
<title>Node6&#45;&gt;Node3</title>
<g id="a_edge6_Node000006_Node000003"><a xlink:title=" ">
<path fill="none" stroke="#63b8ff" d="M629.67,-146C621.61,-146 613.48,-146 605.48,-146"/>
<polygon fill="#63b8ff" stroke="#63b8ff" points="629.51,-149.5 639.51,-146 629.51,-142.5 629.51,-149.5"/>
</a>
</g>
</g>
<!-- Node7&#45;&gt;Node6 -->
<g id="edge8_Node000007_Node000006" class="edge">
<title>Node7&#45;&gt;Node6</title>
<g id="a_edge8_Node000007_Node000006"><a xlink:title=" ">
<path fill="none" stroke="#63b8ff" d="M851.79,-130.72C842.8,-131.88 833.78,-133.05 824.97,-134.2"/>
<polygon fill="#63b8ff" stroke="#63b8ff" points="852.19,-134.2 861.66,-129.44 851.29,-127.25 852.19,-134.2"/>
</a>
</g>
</g>
<!-- Node8 -->
<g id="Node000008" class="node">
<title>Node8</title>
<g id="a_Node000008"><a xlink:href="class_data_1_1_hash_function_1_1_city_hash_1_1_city_hash___implementation.html#a51fdde3f82eb15dccb6cdb1b3f47c557" target="_top" xlink:title=" ">
<polygon fill="white" stroke="#666666" points="818.88,-96 646.88,-96 646.88,-52 818.88,-52 818.88,-96"/>
<text text-anchor="start" x="654.88" y="-82.5" font-family="Helvetica,sans-Serif" font-size="10.00">Data.HashFunction.CityHash.</text>
<text text-anchor="start" x="654.88" y="-70.5" font-family="Helvetica,sans-Serif" font-size="10.00">CityHash_Implementation.Compute</text>
<text text-anchor="middle" x="732.88" y="-58.5" font-family="Helvetica,sans-Serif" font-size="10.00">Hash64</text>
</a>
</g>
</g>
<!-- Node7&#45;&gt;Node8 -->
<g id="edge9_Node000007_Node000008" class="edge">
<title>Node7&#45;&gt;Node8</title>
<g id="a_edge9_Node000007_Node000008"><a xlink:title=" ">
<path fill="none" stroke="#63b8ff" d="M863.34,-97.49C848.59,-94.81 833.53,-92.08 819.15,-89.47"/>
<polygon fill="#63b8ff" stroke="#63b8ff" points="862.59,-100.91 873.06,-99.25 863.84,-94.02 862.59,-100.91"/>
</a>
</g>
</g>
<!-- Node8&#45;&gt;Node5 -->
<g id="edge10_Node000008_Node000005" class="edge">
<title>Node8&#45;&gt;Node5</title>
<g id="a_edge10_Node000008_Node000005"><a xlink:title=" ">
<path fill="none" stroke="#63b8ff" d="M635.46,-80.43C509.86,-88.8 292.2,-103.32 172.32,-111.31"/>
<polygon fill="#63b8ff" stroke="#63b8ff" points="635.32,-83.95 645.06,-79.79 634.85,-76.96 635.32,-83.95"/>
</a>
</g>
</g>
<!-- Node9&#45;&gt;Node8 -->
<g id="edge12_Node000009_Node000008" class="edge">
<title>Node9&#45;&gt;Node8</title>
<g id="a_edge12_Node000009_Node000008"><a xlink:title=" ">
<path fill="none" stroke="#63b8ff" d="M849.15,-70.02C839.11,-70.36 829.08,-70.71 819.36,-71.05"/>
<polygon fill="#63b8ff" stroke="#63b8ff" points="849.08,-73.52 858.95,-69.68 848.83,-66.53 849.08,-73.52"/>
</a>
</g>
</g>
<!-- Node10&#45;&gt;Node8 -->
<g id="edge14_Node000010_Node000008" class="edge">
<title>Node10&#45;&gt;Node8</title>
<g id="a_edge14_Node000010_Node000008"><a xlink:title=" ">
<path fill="none" stroke="#63b8ff" d="M884.39,-35.13C876.31,-37.09 868.24,-39.07 860.5,-41 847.05,-44.35 832.83,-47.98 818.95,-51.57"/>
<polygon fill="#63b8ff" stroke="#63b8ff" points="885,-38.58 893.9,-32.83 883.36,-31.77 885,-38.58"/>
</a>
</g>
</g>
</g>
</svg>
