<?xml version="1.0" encoding="UTF-8" standalone="no"?>
<!DOCTYPE svg PUBLIC "-//W3C//DTD SVG 1.1//EN"
 "http://www.w3.org/Graphics/SVG/1.1/DTD/svg11.dtd">
<!-- Generated by graphviz version 12.2.0 (20241103.1931)
 -->
<!-- Title: Data.HashFunction.BuzHash.BuzHash_Implementation.CShift Pages: 1 -->
<svg width="387pt" height="90pt"
 viewBox="0.00 0.00 387.25 90.00" xmlns="http://www.w3.org/2000/svg" xmlns:xlink="http://www.w3.org/1999/xlink">
<g id="graph0" class="graph" transform="scale(1 1) rotate(0) translate(4 86)">
<title>Data.HashFunction.BuzHash.BuzHash_Implementation.CShift</title>
<!-- Node1 -->
<g id="Node000001" class="node">
<title>Node1</title>
<g id="a_Node000001"><a xlink:title=" ">
<polygon fill="#999999" stroke="#666666" points="159.25,-57 0,-57 0,-25 159.25,-25 159.25,-57"/>
<text text-anchor="start" x="8" y="-43.5" font-family="Helvetica,sans-Serif" font-size="10.00">Data.HashFunction.BuzHash.</text>
<text text-anchor="middle" x="79.62" y="-31.5" font-family="Helvetica,sans-Serif" font-size="10.00">BuzHash_Implementation.CShift</text>
</a>
</g>
</g>
<!-- Node2 -->
<g id="Node000002" class="node">
<title>Node2</title>
<g id="a_Node000002"><a xlink:href="class_data_1_1_hash_function_1_1_buz_hash_1_1_buz_hash___implementation.html#a7d35e42b1881d8a7f4591bf0f082f1aa" target="_top" xlink:title=" ">
<polygon fill="white" stroke="#666666" points="375.88,-82 198.62,-82 198.62,-50 375.88,-50 375.88,-82"/>
<text text-anchor="start" x="206.62" y="-68.5" font-family="Helvetica,sans-Serif" font-size="10.00">Data.HashFunction.BuzHash.</text>
<text text-anchor="middle" x="287.25" y="-56.5" font-family="Helvetica,sans-Serif" font-size="10.00">BuzHash_Implementation.RotateLeft</text>
</a>
</g>
</g>
<!-- Node1&#45;&gt;Node2 -->
<g id="edge1_Node000001_Node000002" class="edge">
<title>Node1&#45;&gt;Node2</title>
<g id="a_edge1_Node000001_Node000002"><a xlink:title=" ">
<path fill="none" stroke="#63b8ff" d="M159.54,-50.59C168.55,-51.69 177.83,-52.82 187.07,-53.94"/>
<polygon fill="#63b8ff" stroke="#63b8ff" points="186.45,-57.39 196.8,-55.12 187.29,-50.44 186.45,-57.39"/>
</a>
</g>
</g>
<!-- Node3 -->
<g id="Node000003" class="node">
<title>Node3</title>
<g id="a_Node000003"><a xlink:href="class_data_1_1_hash_function_1_1_buz_hash_1_1_buz_hash___implementation.html#a7dca805a345690a8b6749a1ba667f425" target="_top" xlink:title=" ">
<polygon fill="white" stroke="#666666" points="379.25,-32 195.25,-32 195.25,0 379.25,0 379.25,-32"/>
<text text-anchor="start" x="203.25" y="-18.5" font-family="Helvetica,sans-Serif" font-size="10.00">Data.HashFunction.BuzHash.</text>
<text text-anchor="middle" x="287.25" y="-6.5" font-family="Helvetica,sans-Serif" font-size="10.00">BuzHash_Implementation.RotateRight</text>
</a>
</g>
</g>
<!-- Node1&#45;&gt;Node3 -->
<g id="edge2_Node000001_Node000003" class="edge">
<title>Node1&#45;&gt;Node3</title>
<g id="a_edge2_Node000001_Node000003"><a xlink:title=" ">
<path fill="none" stroke="#63b8ff" d="M159.54,-31.41C167.39,-30.45 175.44,-29.47 183.49,-28.49"/>
<polygon fill="#63b8ff" stroke="#63b8ff" points="183.84,-31.98 193.34,-27.3 182.99,-25.03 183.84,-31.98"/>
</a>
</g>
</g>
</g>
</svg>
