<?xml version="1.0" encoding="UTF-8" standalone="no"?>
<!DOCTYPE svg PUBLIC "-//W3C//DTD SVG 1.1//EN"
 "http://www.w3.org/Graphics/SVG/1.1/DTD/svg11.dtd">
<!-- Generated by graphviz version 12.2.0 (20241103.1931)
 -->
<!-- Title: Data.HashFunction.FNV.FNV1Base.BlockTransformer_ExtendedBase&lt; TSelf &gt; Pages: 1 -->
<svg width="173pt" height="176pt"
 viewBox="0.00 0.00 173.25 176.00" xmlns="http://www.w3.org/2000/svg" xmlns:xlink="http://www.w3.org/1999/xlink">
<g id="graph0" class="graph" transform="scale(1 1) rotate(0) translate(4 172)">
<title>Data.HashFunction.FNV.FNV1Base.BlockTransformer_ExtendedBase&lt; TSelf &gt;</title>
<!-- Node1 -->
<g id="Node000001" class="node">
<title>Node1</title>
<g id="a_Node000001"><a xlink:title=" ">
<polygon fill="#999999" stroke="#666666" points="165.25,-44 0,-44 0,0 165.25,0 165.25,-44"/>
<text text-anchor="start" x="8" y="-30.5" font-family="Helvetica,sans-Serif" font-size="10.00">Data.HashFunction.FNV.FNV1</text>
<text text-anchor="start" x="8" y="-18.5" font-family="Helvetica,sans-Serif" font-size="10.00">Base.BlockTransformer_Extended</text>
<text text-anchor="middle" x="82.62" y="-6.5" font-family="Helvetica,sans-Serif" font-size="10.00">Base&lt; TSelf &gt;</text>
</a>
</g>
</g>
<!-- Node2 -->
<g id="Node000002" class="node">
<title>Node2</title>
<g id="a_Node000002"><a xlink:href="class_data_1_1_hash_function_1_1_core_1_1_block_transformer_base.html" target="_top" xlink:title="Base implementation for an internal state of an iteratively computable hash function value.">
<polygon fill="white" stroke="#666666" points="140.5,-112 24.75,-112 24.75,-80 140.5,-80 140.5,-112"/>
<text text-anchor="start" x="32.75" y="-98.5" font-family="Helvetica,sans-Serif" font-size="10.00">BlockTransformerBase</text>
<text text-anchor="middle" x="82.62" y="-86.5" font-family="Helvetica,sans-Serif" font-size="10.00">&lt; TSelf &gt;</text>
</a>
</g>
</g>
<!-- Node2&#45;&gt;Node1 -->
<g id="edge1_Node000001_Node000002" class="edge">
<title>Node2&#45;&gt;Node1</title>
<g id="a_edge1_Node000001_Node000002"><a xlink:title=" ">
<path fill="none" stroke="#63b8ff" d="M82.62,-68.38C82.62,-60.43 82.62,-51.82 82.62,-44.26"/>
<polygon fill="#63b8ff" stroke="#63b8ff" points="79.13,-68.22 82.63,-78.22 86.13,-68.22 79.13,-68.22"/>
</a>
</g>
</g>
<!-- Node3 -->
<g id="Node000003" class="node">
<title>Node3</title>
<g id="a_Node000003"><a xlink:href="interface_data_1_1_hash_function_1_1_i_block_transformer.html" target="_top" xlink:title="An internal state of an iteratively computable hash function value.">
<polygon fill="white" stroke="#666666" points="130.75,-168 34.5,-168 34.5,-148 130.75,-148 130.75,-168"/>
<text text-anchor="middle" x="82.62" y="-154.5" font-family="Helvetica,sans-Serif" font-size="10.00">IBlockTransformer</text>
</a>
</g>
</g>
<!-- Node3&#45;&gt;Node2 -->
<g id="edge2_Node000002_Node000003" class="edge">
<title>Node3&#45;&gt;Node2</title>
<g id="a_edge2_Node000002_Node000003"><a xlink:title=" ">
<path fill="none" stroke="#63b8ff" d="M82.62,-136.31C82.62,-128.37 82.62,-119.46 82.62,-112.14"/>
<polygon fill="#63b8ff" stroke="#63b8ff" points="79.13,-136.11 82.63,-146.11 86.13,-136.11 79.13,-136.11"/>
</a>
</g>
</g>
</g>
</svg>
