<?xml version="1.0" encoding="UTF-8" standalone="no"?>
<!DOCTYPE svg PUBLIC "-//W3C//DTD SVG 1.1//EN"
 "http://www.w3.org/Graphics/SVG/1.1/DTD/svg11.dtd">
<!-- Generated by graphviz version 12.2.0 (20241103.1931)
 -->
<!-- Title: Data.HashFunction.FNV.FNV1a_Implementation Pages: 1 -->
<svg width="259pt" height="264pt"
 viewBox="0.00 0.00 259.00 264.00" xmlns="http://www.w3.org/2000/svg" xmlns:xlink="http://www.w3.org/1999/xlink">

<svg id="main" version="1.1" xmlns="http://www.w3.org/2000/svg" xmlns:xlink="http://www.w3.org/1999/xlink" xml:space="preserve">

<style type="text/css"><![CDATA[
.node, .edge {opacity: 0.7;}
.node.selected, .edge.selected {opacity: 1;}
.edge:hover path { stroke: red; }
.edge:hover polygon { stroke: red; fill: red; }
]]></style>
<script type="application/ecmascript" xlink:href="svg.min.js"/>
<svg id="graph" class="graph">
<g id="graph0" class="graph" transform="scale(1 1) rotate(0) translate(4 260)">
<title>Data.HashFunction.FNV.FNV1a_Implementation</title>
<!-- Node1 -->
<g id="Node000001" class="node">
<title>Node1</title>
<g id="a_Node000001"><a xlink:title=" ">
<polygon fill="#999999" stroke="#666666" points="226.88,-32 69.88,-32 69.88,0 226.88,0 226.88,-32"/>
<text text-anchor="start" x="77.88" y="-18.5" font-family="Helvetica,sans-Serif" font-size="10.00">Data.HashFunction.FNV.FNV1a</text>
<text text-anchor="middle" x="148.38" y="-6.5" font-family="Helvetica,sans-Serif" font-size="10.00">_Implementation</text>
</a>
</g>
</g>
<!-- Node2 -->
<g id="Node000002" class="node">
<title>Node2</title>
<g id="a_Node000002"><a xlink:href="class_data_1_1_hash_function_1_1_f_n_v_1_1_f_n_v1_base.html" target="_top" xlink:title=" ">
<polygon fill="white" stroke="#666666" points="143.38,-88 79.38,-88 79.38,-68 143.38,-68 143.38,-88"/>
<text text-anchor="middle" x="111.38" y="-74.5" font-family="Helvetica,sans-Serif" font-size="10.00">FNV1Base</text>
</a>
</g>
</g>
<!-- Node2&#45;&gt;Node1 -->
<g id="edge1_Node000001_Node000002" class="edge">
<title>Node2&#45;&gt;Node1</title>
<g id="a_edge1_Node000001_Node000002"><a xlink:title=" ">
<path fill="none" stroke="#63b8ff" d="M123.09,-58C128.24,-49.65 134.2,-39.99 139.04,-32.14"/>
<polygon fill="#63b8ff" stroke="#63b8ff" points="120.22,-55.99 117.95,-66.34 126.18,-59.66 120.22,-55.99"/>
</a>
</g>
</g>
<!-- Node3 -->
<g id="Node000003" class="node">
<title>Node3</title>
<g id="a_Node000003"><a xlink:href="class_data_1_1_hash_function_1_1_core_1_1_streamable_hash_function_base.html" target="_top" xlink:title="Common interface to non&#45;cryptographic hash functions that can be computed over a stream of data witho...">
<polygon fill="white" stroke="#666666" points="148.75,-144 0,-144 0,-124 148.75,-124 148.75,-144"/>
<text text-anchor="middle" x="74.38" y="-130.5" font-family="Helvetica,sans-Serif" font-size="10.00">StreamableHashFunctionBase</text>
</a>
</g>
</g>
<!-- Node3&#45;&gt;Node2 -->
<g id="edge2_Node000002_Node000003" class="edge">
<title>Node3&#45;&gt;Node2</title>
<g id="a_edge2_Node000002_Node000003"><a xlink:title=" ">
<path fill="none" stroke="#63b8ff" d="M87.29,-114.15C93.28,-105.4 100.14,-95.39 105,-88.3"/>
<polygon fill="#63b8ff" stroke="#63b8ff" points="84.44,-112.12 81.68,-122.35 90.22,-116.07 84.44,-112.12"/>
</a>
</g>
</g>
<!-- Node4 -->
<g id="Node000004" class="node">
<title>Node4</title>
<g id="a_Node000004"><a xlink:href="class_data_1_1_hash_function_1_1_core_1_1_hash_function_base.html" target="_top" xlink:title="Abstract implementation of an IHashFunction. Provides convenience checks and ensures a default HashSi...">
<polygon fill="white" stroke="#666666" points="104,-200 4.75,-200 4.75,-180 104,-180 104,-200"/>
<text text-anchor="middle" x="54.38" y="-186.5" font-family="Helvetica,sans-Serif" font-size="10.00">HashFunctionBase</text>
</a>
</g>
</g>
<!-- Node4&#45;&gt;Node3 -->
<g id="edge3_Node000003_Node000004" class="edge">
<title>Node4&#45;&gt;Node3</title>
<g id="a_edge3_Node000003_Node000004"><a xlink:title=" ">
<path fill="none" stroke="#63b8ff" d="M61.78,-169C64.92,-160.54 68.42,-151.08 70.93,-144.3"/>
<polygon fill="#63b8ff" stroke="#63b8ff" points="58.58,-167.58 58.38,-178.17 65.14,-170.01 58.58,-167.58"/>
</a>
</g>
</g>
<!-- Node5 -->
<g id="Node000005" class="node">
<title>Node5</title>
<g id="a_Node000005"><a xlink:href="interface_data_1_1_hash_function_1_1_i_hash_function.html" target="_top" xlink:title="Common interface to non&#45;cryptographic hash functions.">
<polygon fill="white" stroke="#666666" points="160.25,-256 80.5,-256 80.5,-236 160.25,-236 160.25,-256"/>
<text text-anchor="middle" x="120.38" y="-242.5" font-family="Helvetica,sans-Serif" font-size="10.00">IHashFunction</text>
</a>
</g>
</g>
<!-- Node5&#45;&gt;Node4 -->
<g id="edge4_Node000004_Node000005" class="edge">
<title>Node5&#45;&gt;Node4</title>
<g id="a_edge4_Node000004_Node000005"><a xlink:title=" ">
<path fill="none" stroke="#63b8ff" d="M100.09,-228.4C88.8,-219.17 75.16,-208.01 65.74,-200.3"/>
<polygon fill="#63b8ff" stroke="#63b8ff" points="97.75,-231.01 107.71,-234.64 102.18,-225.59 97.75,-231.01"/>
</a>
</g>
</g>
<!-- Node6 -->
<g id="Node000006" class="node">
<title>Node6</title>
<g id="a_Node000006"><a xlink:href="interface_data_1_1_hash_function_1_1_i_streamable_hash_function.html" target="_top" xlink:title="Common interface to non&#45;cryptographic hash functions that can be computed over a stream of data witho...">
<polygon fill="white" stroke="#666666" points="251,-200 121.75,-200 121.75,-180 251,-180 251,-200"/>
<text text-anchor="middle" x="186.38" y="-186.5" font-family="Helvetica,sans-Serif" font-size="10.00">IStreamableHashFunction</text>
</a>
</g>
</g>
<!-- Node5&#45;&gt;Node6 -->
<g id="edge6_Node000006_Node000005" class="edge">
<title>Node5&#45;&gt;Node6</title>
<g id="a_edge6_Node000006_Node000005"><a xlink:title=" ">
<path fill="none" stroke="#63b8ff" d="M140.66,-228.4C151.95,-219.17 165.59,-208.01 175.01,-200.3"/>
<polygon fill="#63b8ff" stroke="#63b8ff" points="138.57,-225.59 133.04,-234.64 143,-231.01 138.57,-225.59"/>
</a>
</g>
</g>
<!-- Node6&#45;&gt;Node3 -->
<g id="edge5_Node000003_Node000006" class="edge">
<title>Node6&#45;&gt;Node3</title>
<g id="a_edge5_Node000003_Node000006"><a xlink:title=" ">
<path fill="none" stroke="#63b8ff" d="M156.54,-174.61C136.74,-165.07 111.32,-152.81 94.04,-144.48"/>
<polygon fill="#63b8ff" stroke="#63b8ff" points="154.97,-177.75 165.5,-178.94 158.02,-171.44 154.97,-177.75"/>
</a>
</g>
</g>
<!-- Node7 -->
<g id="Node000007" class="node">
<title>Node7</title>
<g id="a_Node000007"><a xlink:href="interface_data_1_1_hash_function_1_1_f_n_v_1_1_i_f_n_v.html" target="_top" xlink:title="Implementation of Fowler–Noll–Vo hash function (FNV&#45;1 or FNV&#45;1a) as specified at http://www....">
<polygon fill="white" stroke="#666666" points="206,-144 166.75,-144 166.75,-124 206,-124 206,-144"/>
<text text-anchor="middle" x="186.38" y="-130.5" font-family="Helvetica,sans-Serif" font-size="10.00">IFNV</text>
</a>
</g>
</g>
<!-- Node6&#45;&gt;Node7 -->
<g id="edge8_Node000007_Node000006" class="edge">
<title>Node6&#45;&gt;Node7</title>
<g id="a_edge8_Node000007_Node000006"><a xlink:title=" ">
<path fill="none" stroke="#63b8ff" d="M186.38,-168.13C186.38,-159.9 186.38,-150.85 186.38,-144.3"/>
<polygon fill="#63b8ff" stroke="#63b8ff" points="182.88,-168.08 186.38,-178.08 189.88,-168.08 182.88,-168.08"/>
</a>
</g>
</g>
<!-- Node7&#45;&gt;Node2 -->
<g id="edge7_Node000002_Node000007" class="edge">
<title>Node7&#45;&gt;Node2</title>
<g id="a_edge7_Node000002_Node000007"><a xlink:title=" ">
<path fill="none" stroke="#63b8ff" d="M164.15,-117C151.26,-107.72 135.47,-96.35 124.54,-88.48"/>
<polygon fill="#63b8ff" stroke="#63b8ff" points="161.92,-119.71 172.08,-122.71 166.01,-114.03 161.92,-119.71"/>
</a>
</g>
</g>
<!-- Node8 -->
<g id="Node000008" class="node">
<title>Node8</title>
<g id="a_Node000008"><a xlink:href="interface_data_1_1_hash_function_1_1_f_n_v_1_1_i_f_n_v1a.html" target="_top" xlink:title="Implementation of Fowler–Noll–Vo hash function (FNV&#45;1a) as specified at http://www....">
<polygon fill="white" stroke="#666666" points="211.25,-88 161.5,-88 161.5,-68 211.25,-68 211.25,-88"/>
<text text-anchor="middle" x="186.38" y="-74.5" font-family="Helvetica,sans-Serif" font-size="10.00">IFNV1a</text>
</a>
</g>
</g>
<!-- Node7&#45;&gt;Node8 -->
<g id="edge10_Node000008_Node000007" class="edge">
<title>Node7&#45;&gt;Node8</title>
<g id="a_edge10_Node000008_Node000007"><a xlink:title=" ">
<path fill="none" stroke="#63b8ff" d="M186.38,-112.13C186.38,-103.9 186.38,-94.85 186.38,-88.3"/>
<polygon fill="#63b8ff" stroke="#63b8ff" points="182.88,-112.08 186.38,-122.08 189.88,-112.08 182.88,-112.08"/>
</a>
</g>
</g>
<!-- Node8&#45;&gt;Node1 -->
<g id="edge9_Node000001_Node000008" class="edge">
<title>Node8&#45;&gt;Node1</title>
<g id="a_edge9_Node000001_Node000008"><a xlink:title=" ">
<path fill="none" stroke="#63b8ff" d="M174.34,-58C169.05,-49.65 162.93,-39.99 157.96,-32.14"/>
<polygon fill="#63b8ff" stroke="#63b8ff" points="171.32,-59.77 179.63,-66.35 177.23,-56.03 171.32,-59.77"/>
</a>
</g>
</g>
</g>
</svg>
</svg>

<style type='text/css'>
<![CDATA[
[data-mouse-over-selected='false'] { opacity: 0.7; }
[data-mouse-over-selected='true']  { opacity: 1.0; }
]]>
</style>
<script type="application/ecmascript"><![CDATA[
document.addEventListener('DOMContentLoaded', (event) => {
  highlightEdges();
  highlightAdjacentNodes();
});
]]></script>
</svg>
