<?xml version="1.0" encoding="UTF-8" standalone="no"?>
<!DOCTYPE svg PUBLIC "-//W3C//DTD SVG 1.1//EN"
 "http://www.w3.org/Graphics/SVG/1.1/DTD/svg11.dtd">
<!-- Generated by graphviz version 12.2.0 (20241103.1931)
 -->
<!-- Title: Data.HashFunction.Jenkins.JenkinsLookup3_Implementation Pages: 1 -->
<svg width="373pt" height="177pt"
 viewBox="0.00 0.00 372.88 177.00" xmlns="http://www.w3.org/2000/svg" xmlns:xlink="http://www.w3.org/1999/xlink">
<g id="graph0" class="graph" transform="scale(1 1) rotate(0) translate(4 173)">
<title>Data.HashFunction.Jenkins.JenkinsLookup3_Implementation</title>
<!-- Node1 -->
<g id="Node000001" class="node">
<title>Node1</title>
<g id="a_Node000001"><a xlink:title=" ">
<polygon fill="#999999" stroke="#666666" points="240.88,-32 82.38,-32 82.38,0 240.88,0 240.88,-32"/>
<text text-anchor="start" x="90.38" y="-18.5" font-family="Helvetica,sans-Serif" font-size="10.00">Data.HashFunction.Jenkins.</text>
<text text-anchor="middle" x="161.62" y="-6.5" font-family="Helvetica,sans-Serif" font-size="10.00">JenkinsLookup3_Implementation</text>
</a>
</g>
</g>
<!-- Node2 -->
<g id="Node000002" class="node">
<title>Node2</title>
<g id="a_Node000002"><a xlink:href="class_data_1_1_hash_function_1_1_core_1_1_hash_function_base.html" target="_top" xlink:title="Abstract implementation of an IHashFunction. Provides convenience checks and ensures a default HashSi...">
<polygon fill="white" stroke="#666666" points="99.25,-106 0,-106 0,-86 99.25,-86 99.25,-106"/>
<text text-anchor="middle" x="49.62" y="-92.5" font-family="Helvetica,sans-Serif" font-size="10.00">HashFunctionBase</text>
</a>
</g>
</g>
<!-- Node2&#45;&gt;Node1 -->
<g id="edge1_Node000001_Node000002" class="edge">
<title>Node2&#45;&gt;Node1</title>
<g id="a_edge1_Node000001_Node000002"><a xlink:title=" ">
<path fill="none" stroke="#63b8ff" d="M72.29,-79.22C91.88,-65.57 120.05,-45.96 139.49,-32.42"/>
<polygon fill="#63b8ff" stroke="#63b8ff" points="70.36,-76.29 64.15,-84.88 74.36,-82.04 70.36,-76.29"/>
</a>
</g>
</g>
<!-- Node3 -->
<g id="Node000003" class="node">
<title>Node3</title>
<g id="a_Node000003"><a xlink:href="interface_data_1_1_hash_function_1_1_i_hash_function.html" target="_top" xlink:title="Common interface to non&#45;cryptographic hash functions.">
<polygon fill="white" stroke="#666666" points="144.5,-169 64.75,-169 64.75,-149 144.5,-149 144.5,-169"/>
<text text-anchor="middle" x="104.62" y="-155.5" font-family="Helvetica,sans-Serif" font-size="10.00">IHashFunction</text>
</a>
</g>
</g>
<!-- Node3&#45;&gt;Node2 -->
<g id="edge2_Node000002_Node000003" class="edge">
<title>Node3&#45;&gt;Node2</title>
<g id="a_edge2_Node000002_Node000003"><a xlink:title=" ">
<path fill="none" stroke="#63b8ff" d="M88.61,-140.24C78.62,-129.16 66.16,-115.34 58.06,-106.35"/>
<polygon fill="#63b8ff" stroke="#63b8ff" points="85.96,-142.53 95.26,-147.61 91.16,-137.84 85.96,-142.53"/>
</a>
</g>
</g>
<!-- Node4 -->
<g id="Node000004" class="node">
<title>Node4</title>
<g id="a_Node000004"><a xlink:href="interface_data_1_1_hash_function_1_1_jenkins_1_1_i_jenkins_lookup3.html" target="_top" xlink:title="Implementation of Bob Jenkins&#39; Lookup3 hash function as specified at http://burtleburtle....">
<polygon fill="white" stroke="#666666" points="206.38,-106 116.88,-106 116.88,-86 206.38,-86 206.38,-106"/>
<text text-anchor="middle" x="161.62" y="-92.5" font-family="Helvetica,sans-Serif" font-size="10.00">IJenkinsLookup3</text>
</a>
</g>
</g>
<!-- Node3&#45;&gt;Node4 -->
<g id="edge4_Node000004_Node000003" class="edge">
<title>Node3&#45;&gt;Node4</title>
<g id="a_edge4_Node000004_Node000003"><a xlink:title=" ">
<path fill="none" stroke="#63b8ff" d="M120.91,-140.57C131.32,-129.43 144.4,-115.43 152.89,-106.35"/>
<polygon fill="#63b8ff" stroke="#63b8ff" points="118.59,-137.93 114.32,-147.63 123.7,-142.71 118.59,-137.93"/>
</a>
</g>
</g>
<!-- Node4&#45;&gt;Node1 -->
<g id="edge3_Node000001_Node000004" class="edge">
<title>Node4&#45;&gt;Node1</title>
<g id="a_edge3_Node000001_Node000004"><a xlink:title=" ">
<path fill="none" stroke="#63b8ff" d="M161.62,-74.51C161.62,-61.32 161.62,-44.47 161.62,-32.42"/>
<polygon fill="#63b8ff" stroke="#63b8ff" points="158.13,-74.23 161.63,-84.23 165.13,-74.23 158.13,-74.23"/>
</a>
</g>
</g>
<!-- Node5 -->
<g id="Node000005" class="node">
<title>Node5</title>
<g id="a_Node000005"><a xlink:href="interface_data_1_1_hash_function_1_1_jenkins_1_1_i_jenkins_lookup3_config.html" target="_top" xlink:title="Defines a configuration for a IJenkinsLookup3 implementation.">
<polygon fill="white" stroke="#666666" points="364.88,-112 224.38,-112 224.38,-80 364.88,-80 364.88,-112"/>
<text text-anchor="start" x="232.38" y="-98.5" font-family="Helvetica,sans-Serif" font-size="10.00">Data.HashFunction.Jenkins.</text>
<text text-anchor="middle" x="294.62" y="-86.5" font-family="Helvetica,sans-Serif" font-size="10.00">IJenkinsLookup3Config</text>
</a>
</g>
</g>
<!-- Node5&#45;&gt;Node1 -->
<g id="edge5_Node000001_Node000005" class="edge">
<title>Node5&#45;&gt;Node1</title>
<g id="a_edge5_Node000001_Node000005"><a xlink:title=" ">
<path fill="none" stroke="#9a32cd" stroke-dasharray="5,2" d="M258.55,-73.84C236.22,-60.75 208.05,-44.23 187.85,-32.38"/>
<polygon fill="#9a32cd" stroke="#9a32cd" points="256.65,-76.78 267.04,-78.82 260.19,-70.75 256.65,-76.78"/>
</a>
</g>
<text text-anchor="middle" x="253.34" y="-52.5" font-family="Helvetica,sans-Serif" font-size="10.00" fill="grey"> _config</text>
</g>
</g>
</svg>
