<?xml version="1.0" encoding="UTF-8" standalone="no"?>
<!DOCTYPE svg PUBLIC "-//W3C//DTD SVG 1.1//EN"
 "http://www.w3.org/Graphics/SVG/1.1/DTD/svg11.dtd">
<!-- Generated by graphviz version 12.2.0 (20241103.1931)
 -->
<!-- Title: Data.HashFunction.CityHash.CityHash_Implementation.ReverseByteOrder Pages: 1 -->
<svg width="841pt" height="114pt"
 viewBox="0.00 0.00 840.75 114.00" xmlns="http://www.w3.org/2000/svg" xmlns:xlink="http://www.w3.org/1999/xlink">
<g id="graph0" class="graph" transform="scale(1 1) rotate(0) translate(4 110)">
<title>Data.HashFunction.CityHash.CityHash_Implementation.ReverseByteOrder</title>
<!-- Node1 -->
<g id="Node000001" class="node">
<title>Node1</title>
<g id="a_Node000001"><a xlink:title=" ">
<polygon fill="#999999" stroke="#666666" points="832.75,-75 663.75,-75 663.75,-31 832.75,-31 832.75,-75"/>
<text text-anchor="start" x="671.75" y="-61.5" font-family="Helvetica,sans-Serif" font-size="10.00">Data.HashFunction.CityHash.</text>
<text text-anchor="start" x="671.75" y="-49.5" font-family="Helvetica,sans-Serif" font-size="10.00">CityHash_Implementation.Reverse</text>
<text text-anchor="middle" x="748.25" y="-37.5" font-family="Helvetica,sans-Serif" font-size="10.00">ByteOrder</text>
</a>
</g>
</g>
<!-- Node2 -->
<g id="Node000002" class="node">
<title>Node2</title>
<g id="a_Node000002"><a xlink:href="class_data_1_1_hash_function_1_1_city_hash_1_1_city_hash___implementation.html#ad8892efa23c2496e411cad38be0766f9" target="_top" xlink:title=" ">
<polygon fill="white" stroke="#666666" points="627.75,-97 416,-97 416,-65 627.75,-65 627.75,-97"/>
<text text-anchor="start" x="424" y="-83.5" font-family="Helvetica,sans-Serif" font-size="10.00">Data.HashFunction.CityHash.</text>
<text text-anchor="middle" x="521.88" y="-71.5" font-family="Helvetica,sans-Serif" font-size="10.00">CityHash_Implementation.Hash32Len25Plus</text>
</a>
</g>
</g>
<!-- Node1&#45;&gt;Node2 -->
<g id="edge1_Node000001_Node000002" class="edge">
<title>Node1&#45;&gt;Node2</title>
<g id="a_edge1_Node000001_Node000002"><a xlink:title=" ">
<path fill="none" stroke="#63b8ff" d="M652.14,-64.87C644.13,-65.87 635.99,-66.88 627.9,-67.89"/>
<polygon fill="#63b8ff" stroke="#63b8ff" points="652.39,-68.36 661.88,-63.65 651.52,-61.42 652.39,-68.36"/>
</a>
</g>
</g>
<!-- Node5 -->
<g id="Node000005" class="node">
<title>Node5</title>
<g id="a_Node000005"><a xlink:href="class_data_1_1_hash_function_1_1_city_hash_1_1_city_hash___implementation.html#a395c40851843a781d7c3e4c0ceb07983" target="_top" xlink:title=" ">
<polygon fill="white" stroke="#666666" points="627.38,-44 416.38,-44 416.38,-12 627.38,-12 627.38,-44"/>
<text text-anchor="start" x="424.38" y="-30.5" font-family="Helvetica,sans-Serif" font-size="10.00">Data.HashFunction.CityHash.</text>
<text text-anchor="middle" x="521.88" y="-18.5" font-family="Helvetica,sans-Serif" font-size="10.00">CityHash_Implementation.Hash64Len33to64</text>
</a>
</g>
</g>
<!-- Node1&#45;&gt;Node5 -->
<g id="edge4_Node000001_Node000005" class="edge">
<title>Node1&#45;&gt;Node5</title>
<g id="a_edge4_Node000001_Node000005"><a xlink:title=" ">
<path fill="none" stroke="#63b8ff" d="M652.02,-42.39C643.92,-41.49 635.69,-40.57 627.52,-39.66"/>
<polygon fill="#63b8ff" stroke="#63b8ff" points="651.55,-45.86 661.88,-43.49 652.33,-38.9 651.55,-45.86"/>
</a>
</g>
</g>
<!-- Node3 -->
<g id="Node000003" class="node">
<title>Node3</title>
<g id="a_Node000003"><a xlink:href="class_data_1_1_hash_function_1_1_city_hash_1_1_city_hash___implementation.html#af33356b76ad4ef5d565727b377ee65a2" target="_top" xlink:title=" ">
<polygon fill="white" stroke="#666666" points="380,-106 208,-106 208,-62 380,-62 380,-106"/>
<text text-anchor="start" x="216" y="-92.5" font-family="Helvetica,sans-Serif" font-size="10.00">Data.HashFunction.CityHash.</text>
<text text-anchor="start" x="216" y="-80.5" font-family="Helvetica,sans-Serif" font-size="10.00">CityHash_Implementation.Compute</text>
<text text-anchor="middle" x="294" y="-68.5" font-family="Helvetica,sans-Serif" font-size="10.00">Hash32</text>
</a>
</g>
</g>
<!-- Node2&#45;&gt;Node3 -->
<g id="edge2_Node000002_Node000003" class="edge">
<title>Node2&#45;&gt;Node3</title>
<g id="a_edge2_Node000002_Node000003"><a xlink:title=" ">
<path fill="none" stroke="#63b8ff" d="M404.14,-82.55C396.08,-82.66 388.04,-82.76 380.19,-82.87"/>
<polygon fill="#63b8ff" stroke="#63b8ff" points="404.08,-86.05 414.03,-82.42 403.98,-79.05 404.08,-86.05"/>
</a>
</g>
</g>
<!-- Node4 -->
<g id="Node000004" class="node">
<title>Node4</title>
<g id="a_Node000004"><a xlink:href="class_data_1_1_hash_function_1_1_city_hash_1_1_city_hash___implementation.html#ae936ee82719f44aba970a71e22aa5aea" target="_top" xlink:title=" ">
<polygon fill="white" stroke="#666666" points="172,-75 0,-75 0,-31 172,-31 172,-75"/>
<text text-anchor="start" x="8" y="-61.5" font-family="Helvetica,sans-Serif" font-size="10.00">Data.HashFunction.CityHash.</text>
<text text-anchor="start" x="8" y="-49.5" font-family="Helvetica,sans-Serif" font-size="10.00">CityHash_Implementation.Compute</text>
<text text-anchor="middle" x="86" y="-37.5" font-family="Helvetica,sans-Serif" font-size="10.00">HashInternal</text>
</a>
</g>
</g>
<!-- Node3&#45;&gt;Node4 -->
<g id="edge3_Node000003_Node000004" class="edge">
<title>Node3&#45;&gt;Node4</title>
<g id="a_edge3_Node000003_Node000004"><a xlink:title=" ">
<path fill="none" stroke="#63b8ff" d="M196.37,-69.46C188.31,-68.25 180.19,-67.02 172.21,-65.82"/>
<polygon fill="#63b8ff" stroke="#63b8ff" points="195.82,-72.91 206.23,-70.94 196.86,-65.99 195.82,-72.91"/>
</a>
</g>
</g>
<!-- Node6 -->
<g id="Node000006" class="node">
<title>Node6</title>
<g id="a_Node000006"><a xlink:href="class_data_1_1_hash_function_1_1_city_hash_1_1_city_hash___implementation.html#a51fdde3f82eb15dccb6cdb1b3f47c557" target="_top" xlink:title=" ">
<polygon fill="white" stroke="#666666" points="380,-44 208,-44 208,0 380,0 380,-44"/>
<text text-anchor="start" x="216" y="-30.5" font-family="Helvetica,sans-Serif" font-size="10.00">Data.HashFunction.CityHash.</text>
<text text-anchor="start" x="216" y="-18.5" font-family="Helvetica,sans-Serif" font-size="10.00">CityHash_Implementation.Compute</text>
<text text-anchor="middle" x="294" y="-6.5" font-family="Helvetica,sans-Serif" font-size="10.00">Hash64</text>
</a>
</g>
</g>
<!-- Node5&#45;&gt;Node6 -->
<g id="edge5_Node000005_Node000006" class="edge">
<title>Node5&#45;&gt;Node6</title>
<g id="a_edge5_Node000005_Node000006"><a xlink:title=" ">
<path fill="none" stroke="#63b8ff" d="M404.93,-24.92C396.66,-24.7 388.42,-24.48 380.37,-24.27"/>
<polygon fill="#63b8ff" stroke="#63b8ff" points="404.6,-28.41 414.69,-25.18 404.79,-21.41 404.6,-28.41"/>
</a>
</g>
</g>
<!-- Node6&#45;&gt;Node4 -->
<g id="edge6_Node000006_Node000004" class="edge">
<title>Node6&#45;&gt;Node4</title>
<g id="a_edge6_Node000006_Node000004"><a xlink:title=" ">
<path fill="none" stroke="#63b8ff" d="M196.37,-36.54C188.31,-37.75 180.19,-38.98 172.21,-40.18"/>
<polygon fill="#63b8ff" stroke="#63b8ff" points="196.86,-40.01 206.23,-35.06 195.82,-33.09 196.86,-40.01"/>
</a>
</g>
</g>
</g>
</svg>
