<?xml version="1.0" encoding="UTF-8" standalone="no"?>
<!DOCTYPE svg PUBLIC "-//W3C//DTD SVG 1.1//EN"
 "http://www.w3.org/Graphics/SVG/1.1/DTD/svg11.dtd">
<!-- Generated by graphviz version 12.2.0 (20241103.1931)
 -->
<!-- Title: Data.HashFunction.FarmHash.FarmHashFingerprint128_Implementation.HashLen0to16 Pages: 1 -->
<svg width="909pt" height="52pt"
 viewBox="0.00 0.00 909.00 52.00" xmlns="http://www.w3.org/2000/svg" xmlns:xlink="http://www.w3.org/1999/xlink">
<g id="graph0" class="graph" transform="scale(1 1) rotate(0) translate(4 48)">
<title>Data.HashFunction.FarmHash.FarmHashFingerprint128_Implementation.HashLen0to16</title>
<!-- Node1 -->
<g id="Node000001" class="node">
<title>Node1</title>
<g id="a_Node000001"><a xlink:title=" ">
<polygon fill="#999999" stroke="#666666" points="901,-44 702.75,-44 702.75,0 901,0 901,-44"/>
<text text-anchor="start" x="710.75" y="-30.5" font-family="Helvetica,sans-Serif" font-size="10.00">Data.HashFunction.FarmHash.</text>
<text text-anchor="start" x="710.75" y="-18.5" font-family="Helvetica,sans-Serif" font-size="10.00">FarmHashFingerprint128_Implementation.</text>
<text text-anchor="middle" x="801.88" y="-6.5" font-family="Helvetica,sans-Serif" font-size="10.00">HashLen0to16</text>
</a>
</g>
</g>
<!-- Node2 -->
<g id="Node000002" class="node">
<title>Node2</title>
<g id="a_Node000002"><a xlink:href="class_data_1_1_hash_function_1_1_farm_hash_1_1_farm_hash_fingerprint128___implementation.html#a3b5e9226f7941b5e2555b9fb6813f91e" target="_top" xlink:title=" ">
<polygon fill="white" stroke="#666666" points="666.75,-44 468.5,-44 468.5,0 666.75,0 666.75,-44"/>
<text text-anchor="start" x="476.5" y="-30.5" font-family="Helvetica,sans-Serif" font-size="10.00">Data.HashFunction.FarmHash.</text>
<text text-anchor="start" x="476.5" y="-18.5" font-family="Helvetica,sans-Serif" font-size="10.00">FarmHashFingerprint128_Implementation.</text>
<text text-anchor="middle" x="567.62" y="-6.5" font-family="Helvetica,sans-Serif" font-size="10.00">CityMurmur</text>
</a>
</g>
</g>
<!-- Node1&#45;&gt;Node2 -->
<g id="edge1_Node000001_Node000002" class="edge">
<title>Node1&#45;&gt;Node2</title>
<g id="a_edge1_Node000001_Node000002"><a xlink:title=" ">
<path fill="none" stroke="#63b8ff" d="M691.03,-22C682.98,-22 674.88,-22 666.9,-22"/>
<polygon fill="#63b8ff" stroke="#63b8ff" points="690.87,-25.5 700.87,-22 690.87,-18.5 690.87,-25.5"/>
</a>
</g>
</g>
<!-- Node3 -->
<g id="Node000003" class="node">
<title>Node3</title>
<g id="a_Node000003"><a xlink:href="class_data_1_1_hash_function_1_1_farm_hash_1_1_farm_hash_fingerprint128___implementation.html#a997239d6ef79f1af91114c8439ab9e33" target="_top" xlink:title=" ">
<polygon fill="white" stroke="#666666" points="432.5,-44 234.25,-44 234.25,0 432.5,0 432.5,-44"/>
<text text-anchor="start" x="242.25" y="-30.5" font-family="Helvetica,sans-Serif" font-size="10.00">Data.HashFunction.FarmHash.</text>
<text text-anchor="start" x="242.25" y="-18.5" font-family="Helvetica,sans-Serif" font-size="10.00">FarmHashFingerprint128_Implementation.</text>
<text text-anchor="middle" x="333.38" y="-6.5" font-family="Helvetica,sans-Serif" font-size="10.00">CityHash128WithSeed</text>
</a>
</g>
</g>
<!-- Node2&#45;&gt;Node3 -->
<g id="edge2_Node000002_Node000003" class="edge">
<title>Node2&#45;&gt;Node3</title>
<g id="a_edge2_Node000002_Node000003"><a xlink:title=" ">
<path fill="none" stroke="#63b8ff" d="M456.78,-22C448.73,-22 440.63,-22 432.65,-22"/>
<polygon fill="#63b8ff" stroke="#63b8ff" points="456.62,-25.5 466.62,-22 456.62,-18.5 456.62,-25.5"/>
</a>
</g>
</g>
<!-- Node4 -->
<g id="Node000004" class="node">
<title>Node4</title>
<g id="a_Node000004"><a xlink:href="class_data_1_1_hash_function_1_1_farm_hash_1_1_farm_hash_fingerprint128___implementation.html#aded0f2edc326e8372bfed7dd690b44ad" target="_top" xlink:title=" ">
<polygon fill="white" stroke="#666666" points="198.25,-44 0,-44 0,0 198.25,0 198.25,-44"/>
<text text-anchor="start" x="8" y="-30.5" font-family="Helvetica,sans-Serif" font-size="10.00">Data.HashFunction.FarmHash.</text>
<text text-anchor="start" x="8" y="-18.5" font-family="Helvetica,sans-Serif" font-size="10.00">FarmHashFingerprint128_Implementation.</text>
<text text-anchor="middle" x="99.12" y="-6.5" font-family="Helvetica,sans-Serif" font-size="10.00">ComputeHashInternal</text>
</a>
</g>
</g>
<!-- Node3&#45;&gt;Node4 -->
<g id="edge3_Node000003_Node000004" class="edge">
<title>Node3&#45;&gt;Node4</title>
<g id="a_edge3_Node000003_Node000004"><a xlink:title=" ">
<path fill="none" stroke="#63b8ff" d="M222.53,-22C214.48,-22 206.38,-22 198.4,-22"/>
<polygon fill="#63b8ff" stroke="#63b8ff" points="222.37,-25.5 232.37,-22 222.37,-18.5 222.37,-25.5"/>
</a>
</g>
</g>
</g>
</svg>
