<?xml version="1.0" encoding="UTF-8" standalone="no"?>
<!DOCTYPE svg PUBLIC "-//W3C//DTD SVG 1.1//EN"
 "http://www.w3.org/Graphics/SVG/1.1/DTD/svg11.dtd">
<!-- Generated by graphviz version 12.2.0 (20241103.1931)
 -->
<!-- Title: Data.HashFunction.Test Pages: 1 -->
<!--zoomable 128 -->

<svg id="main" version="1.1" xmlns="http://www.w3.org/2000/svg" xmlns:xlink="http://www.w3.org/1999/xlink" xml:space="preserve" onload="init(evt)">

<style type="text/css"><![CDATA[
.node, .edge {opacity: 0.7;}
.node.selected, .edge.selected {opacity: 1;}
.edge:hover path { stroke: red; }
.edge:hover polygon { stroke: red; fill: red; }
]]></style>

<defs>
  <circle id="rim" cx="0" cy="0" r="7"/>
  <circle id="rim2" cx="0" cy="0" r="3.5"/>
  <g id="zoomPlus">
    <use xlink:href="#rim" fill="#404040"><set attributeName="fill" to="#808080" begin="zoomplus.mouseover" end="zoomplus.mouseout"/></use>
    <path d="M-4,0h8M0,-4v8" fill="none" stroke="white" stroke-width="1.5" pointer-events="none"/>
  </g>
  <g id="zoomMin">
    <use xlink:href="#rim" fill="#404040"><set attributeName="fill" to="#808080" begin="zoomminus.mouseover" end="zoomminus.mouseout"/></use>
    <path d="M-4,0h8" fill="none" stroke="white" stroke-width="1.5" pointer-events="none"/>
  </g>
  <g id="arrowUp" transform="translate(30 24)">
    <use xlink:href="#rim"/>
    <path pointer-events="none" fill="none" stroke="white" stroke-width="1.5" d="M0,-3.0v7 M-2.5,-0.5L0,-3.0L2.5,-0.5"/>
  </g>
  <g id="arrowRight" transform="rotate(90) translate(36 -43)">
    <use xlink:href="#rim"/>
    <path pointer-events="none" fill="none" stroke="white" stroke-width="1.5" d="M0,-3.0v7 M-2.5,-0.5L0,-3.0L2.5,-0.5"/>
  </g>
  <g id="arrowDown" transform="rotate(180) translate(-30 -48)">
    <use xlink:href="#rim"/>
    <path pointer-events="none" fill="none" stroke="white" stroke-width="1.5" d="M0,-3.0v7 M-2.5,-0.5L0,-3.0L2.5,-0.5"/>
  </g>
  <g id="arrowLeft" transform="rotate(270) translate(-36 17)">
    <use xlink:href="#rim"/>
    <path pointer-events="none" fill="none" stroke="white" stroke-width="1.5" d="M0,-3.0v7 M-2.5,-0.5L0,-3.0L2.5,-0.5"/>
  </g>
  <g id="resetDef">
    <use xlink:href="#rim2" fill="#404040"><set attributeName="fill" to="#808080" begin="reset.mouseover" end="reset.mouseout"/></use>
  </g>
</defs>
<script type="application/ecmascript">
var viewWidth = 2334;
var viewHeight = 128;
var sectionId = 'dynsection-0';
</script>
<script type="application/ecmascript" xlink:href="svg.min.js"/>
<svg id="graph" class="graph">
<g id="viewport">
<title>Data.HashFunction.Test</title>
<g id="clust1" class="cluster">
<title>clusterdir_68267d1309a1af8e8297ef4c3efbcdba</title>
<g id="a_clust1"><a xlink:href="dir_68267d1309a1af8e8297ef4c3efbcdba.html" target="_top" xlink:title="src">
<polygon fill="#edf0f7" stroke="#404040" stroke-dasharray="5,2" points="8,-8 8,-112 2318,-112 2318,-8 8,-8"/>
<text text-anchor="middle" x="1163" y="-98.5" font-family="Helvetica,sans-Serif" font-size="10.00">src</text>
</a>
</g>
</g>
<g id="clust2" class="cluster">
<title>clusterdir_d518e754daaec3082ee61a9497da04ef</title>
<g id="a_clust2"><a xlink:href="dir_d518e754daaec3082ee61a9497da04ef.html" target="_top">
<polygon fill="#edf0f7" stroke="#404040" stroke-width="2" points="16,-16 16,-84 2310,-84 2310,-16 16,-16"/>
</a>
</g>
</g>
<g id="clust3" class="cluster">
<title>clusterdir_fcf791b4e49aff9a3263efc33646689d</title>
<g id="a_clust3"><a xlink:href="dir_fcf791b4e49aff9a3263efc33646689d.html" target="_top">
<polygon fill="#dae1ef" stroke="#404040" points="24,-32 24,-68 154,-68 154,-32 24,-32"/>
</a>
</g>
</g>
<g id="clust4" class="cluster">
<title>clusterdir_40cb7ce793cf355eb780a1584d285d0b</title>
<g id="a_clust4"><a xlink:href="dir_40cb7ce793cf355eb780a1584d285d0b.html" target="_top">
<polygon fill="#dae1ef" stroke="#404040" points="162,-32 162,-68 303,-68 303,-32 162,-32"/>
</a>
</g>
</g>
<g id="clust5" class="cluster">
<title>clusterdir_f8e6bee13b3d8ee95e47c6a3cb03773c</title>
<g id="a_clust5"><a xlink:href="dir_f8e6bee13b3d8ee95e47c6a3cb03773c.html" target="_top">
<polygon fill="#dae1ef" stroke="#404040" points="311,-32 311,-68 432,-68 432,-32 311,-32"/>
</a>
</g>
</g>
<g id="clust6" class="cluster">
<title>clusterdir_083f1e4df850d417a1089de060f4faf0</title>
<g id="a_clust6"><a xlink:href="dir_083f1e4df850d417a1089de060f4faf0.html" target="_top">
<polygon fill="#dae1ef" stroke="#404040" points="440,-32 440,-68 585,-68 585,-32 440,-32"/>
</a>
</g>
</g>
<g id="clust7" class="cluster">
<title>clusterdir_49ab0222e4ff82c46bbef562875f8d62</title>
<g id="a_clust7"><a xlink:href="dir_49ab0222e4ff82c46bbef562875f8d62.html" target="_top">
<polygon fill="#dae1ef" stroke="#404040" points="593,-32 593,-68 713,-68 713,-32 593,-32"/>
</a>
</g>
</g>
<g id="clust8" class="cluster">
<title>clusterdir_576dc941431127b1708f4b9d2cda33ea</title>
<g id="a_clust8"><a xlink:href="dir_576dc941431127b1708f4b9d2cda33ea.html" target="_top">
<polygon fill="#dae1ef" stroke="#404040" points="721,-24 721,-76 897,-76 897,-24 721,-24"/>
</a>
</g>
</g>
<g id="clust9" class="cluster">
<title>clusterdir_a7821ab323b02f441aafca89dd27fc78</title>
<g id="a_clust9"><a xlink:href="dir_a7821ab323b02f441aafca89dd27fc78.html" target="_top">
<polygon fill="#c8d2e7" stroke="#404040" points="729,-32 729,-68 851,-68 851,-32 729,-32"/>
</a>
</g>
</g>
<g id="clust10" class="cluster">
<title>clusterdir_3d635cc372fc3292bafeb0b2341e7295</title>
<g id="a_clust10"><a xlink:href="dir_3d635cc372fc3292bafeb0b2341e7295.html" target="_top">
<polygon fill="#dae1ef" stroke="#404040" points="905,-32 905,-68 1028,-68 1028,-32 905,-32"/>
</a>
</g>
</g>
<!-- dir_d518e754daaec3082ee61a9497da04ef -->
<g id="node1" class="node">
<title>dir_d518e754daaec3082ee61a9497da04ef</title>
<text text-anchor="middle" x="1099" y="-46.5" font-family="Helvetica,sans-Serif" font-size="10.00">Data.HashFunction.Test</text>
</g>
<!-- dir_4875cc2e766fdaec685debac3f23c4a6 -->
<g id="node2" class="node">
<title>dir_4875cc2e766fdaec685debac3f23c4a6</title>
<g id="a_node2"><a xlink:href="dir_4875cc2e766fdaec685debac3f23c4a6.html" target="_top" xlink:title="_Mocks">
<polygon fill="#dae1ef" stroke="#404040" points="1229.25,-60 1178.75,-60 1178.75,-40 1229.25,-40 1229.25,-60"/>
<text text-anchor="middle" x="1204" y="-46.5" font-family="Helvetica,sans-Serif" font-size="10.00">_Mocks</text>
</a>
</g>
</g>
<!-- dir_a9c1b2669ce98ed60d1c200e937f4130 -->
<g id="node3" class="node">
<title>dir_a9c1b2669ce98ed60d1c200e937f4130</title>
<g id="a_node3"><a xlink:href="dir_a9c1b2669ce98ed60d1c200e937f4130.html" target="_top" xlink:title="_Utilities">
<polygon fill="#dae1ef" stroke="#404040" points="1301.12,-60 1246.88,-60 1246.88,-40 1301.12,-40 1301.12,-60"/>
<text text-anchor="middle" x="1274" y="-46.5" font-family="Helvetica,sans-Serif" font-size="10.00">_Utilities</text>
</a>
</g>
</g>
<!-- dir_a9c9dfbde2d0777153555a931fb2ce35 -->
<g id="node4" class="node">
<title>dir_a9c9dfbde2d0777153555a931fb2ce35</title>
<g id="a_node4"><a xlink:href="dir_a9c9dfbde2d0777153555a931fb2ce35.html" target="_top" xlink:title="BernsteinHash">
<polygon fill="#dae1ef" stroke="#404040" points="1399.25,-60 1318.75,-60 1318.75,-40 1399.25,-40 1399.25,-60"/>
<text text-anchor="middle" x="1359" y="-46.5" font-family="Helvetica,sans-Serif" font-size="10.00">BernsteinHash</text>
</a>
</g>
</g>
<!-- dir_fcf791b4e49aff9a3263efc33646689d -->
<g id="node5" class="node">
<title>dir_fcf791b4e49aff9a3263efc33646689d</title>
<text text-anchor="middle" x="55" y="-46.5" font-family="Helvetica,sans-Serif" font-size="10.00">Blake2</text>
</g>
<!-- dir_88a7c07203a22bc15324b8b9174ff599 -->
<g id="node6" class="node">
<title>dir_88a7c07203a22bc15324b8b9174ff599</title>
<g id="a_node6"><a xlink:href="dir_88a7c07203a22bc15324b8b9174ff599.html" target="_top" xlink:title="Utilities">
<polygon fill="#c8d2e7" stroke="#404040" points="145.5,-60 96.5,-60 96.5,-40 145.5,-40 145.5,-60"/>
<text text-anchor="middle" x="121" y="-46.5" font-family="Helvetica,sans-Serif" font-size="10.00">Utilities</text>
</a>
</g>
</g>
<!-- dir_e6bf6743bd089e03e7a5919583523d66 -->
<g id="node7" class="node">
<title>dir_e6bf6743bd089e03e7a5919583523d66</title>
<g id="a_node7"><a xlink:href="dir_e6bf6743bd089e03e7a5919583523d66.html" target="_top" xlink:title="Blake3">
<polygon fill="#dae1ef" stroke="#404040" points="1463,-60 1417,-60 1417,-40 1463,-40 1463,-60"/>
<text text-anchor="middle" x="1440" y="-46.5" font-family="Helvetica,sans-Serif" font-size="10.00">Blake3</text>
</a>
</g>
</g>
<!-- dir_b412d3f3872e795ce4dbd51d4868e6bf -->
<g id="node8" class="node">
<title>dir_b412d3f3872e795ce4dbd51d4868e6bf</title>
<g id="a_node8"><a xlink:href="dir_b412d3f3872e795ce4dbd51d4868e6bf.html" target="_top" xlink:title="BuzHash">
<polygon fill="#dae1ef" stroke="#404040" points="1537.25,-60 1480.75,-60 1480.75,-40 1537.25,-40 1537.25,-60"/>
<text text-anchor="middle" x="1509" y="-46.5" font-family="Helvetica,sans-Serif" font-size="10.00">BuzHash</text>
</a>
</g>
</g>
<!-- dir_40cb7ce793cf355eb780a1584d285d0b -->
<g id="node9" class="node">
<title>dir_40cb7ce793cf355eb780a1584d285d0b</title>
<text text-anchor="middle" x="199" y="-46.5" font-family="Helvetica,sans-Serif" font-size="10.00">CityHash</text>
</g>
<!-- dir_46fbb714178f70f20d64c260b8bcac2a -->
<g id="node10" class="node">
<title>dir_46fbb714178f70f20d64c260b8bcac2a</title>
<g id="a_node10"><a xlink:href="dir_46fbb714178f70f20d64c260b8bcac2a.html" target="_top" xlink:title="Utilities">
<polygon fill="#c8d2e7" stroke="#404040" points="294.5,-60 245.5,-60 245.5,-40 294.5,-40 294.5,-60"/>
<text text-anchor="middle" x="270" y="-46.5" font-family="Helvetica,sans-Serif" font-size="10.00">Utilities</text>
</a>
</g>
</g>
<!-- dir_f8e6bee13b3d8ee95e47c6a3cb03773c -->
<g id="node11" class="node">
<title>dir_f8e6bee13b3d8ee95e47c6a3cb03773c</title>
<text text-anchor="middle" x="338" y="-46.5" font-family="Helvetica,sans-Serif" font-size="10.00">Core</text>
</g>
<!-- dir_eded13080d9e8cd7ef9db4a555317aa7 -->
<g id="node12" class="node">
<title>dir_eded13080d9e8cd7ef9db4a555317aa7</title>
<g id="a_node12"><a xlink:href="dir_eded13080d9e8cd7ef9db4a555317aa7.html" target="_top" xlink:title="Utilities">
<polygon fill="#c8d2e7" stroke="#404040" points="423.5,-60 374.5,-60 374.5,-40 423.5,-40 423.5,-60"/>
<text text-anchor="middle" x="399" y="-46.5" font-family="Helvetica,sans-Serif" font-size="10.00">Utilities</text>
</a>
</g>
</g>
<!-- dir_098836c7c2e4882edf257269dd7f8ecd -->
<g id="node13" class="node">
<title>dir_098836c7c2e4882edf257269dd7f8ecd</title>
<g id="a_node13"><a xlink:href="dir_098836c7c2e4882edf257269dd7f8ecd.html" target="_top" xlink:title="CRC">
<polygon fill="#dae1ef" stroke="#404040" points="1594.25,-60 1555.75,-60 1555.75,-40 1594.25,-40 1594.25,-60"/>
<text text-anchor="middle" x="1575" y="-46.5" font-family="Helvetica,sans-Serif" font-size="10.00">CRC</text>
</a>
</g>
</g>
<!-- dir_7d53353a221b6bae758e678dd6ff31c4 -->
<g id="node14" class="node">
<title>dir_7d53353a221b6bae758e678dd6ff31c4</title>
<g id="a_node14"><a xlink:href="dir_7d53353a221b6bae758e678dd6ff31c4.html" target="_top" xlink:title="ELF64">
<polygon fill="#dae1ef" stroke="#404040" points="1657.25,-60 1612.75,-60 1612.75,-40 1657.25,-40 1657.25,-60"/>
<text text-anchor="middle" x="1635" y="-46.5" font-family="Helvetica,sans-Serif" font-size="10.00">ELF64</text>
</a>
</g>
</g>
<!-- dir_083f1e4df850d417a1089de060f4faf0 -->
<g id="node15" class="node">
<title>dir_083f1e4df850d417a1089de060f4faf0</title>
<text text-anchor="middle" x="479" y="-46.5" font-family="Helvetica,sans-Serif" font-size="10.00">FarmHash</text>
</g>
<!-- dir_2e095682f3c75af836a87086190ff47a -->
<g id="node16" class="node">
<title>dir_2e095682f3c75af836a87086190ff47a</title>
<g id="a_node16"><a xlink:href="dir_2e095682f3c75af836a87086190ff47a.html" target="_top" xlink:title="Utilities">
<polygon fill="#c8d2e7" stroke="#404040" points="576.5,-60 527.5,-60 527.5,-40 576.5,-40 576.5,-60"/>
<text text-anchor="middle" x="552" y="-46.5" font-family="Helvetica,sans-Serif" font-size="10.00">Utilities</text>
</a>
</g>
</g>
<!-- dir_49ab0222e4ff82c46bbef562875f8d62 -->
<g id="node17" class="node">
<title>dir_49ab0222e4ff82c46bbef562875f8d62</title>
<text text-anchor="middle" x="619" y="-46.5" font-family="Helvetica,sans-Serif" font-size="10.00">FNV</text>
</g>
<!-- dir_437f5efc02540496193766ee52554609 -->
<g id="node18" class="node">
<title>dir_437f5efc02540496193766ee52554609</title>
<g id="a_node18"><a xlink:href="dir_437f5efc02540496193766ee52554609.html" target="_top" xlink:title="Utilities">
<polygon fill="#c8d2e7" stroke="#404040" points="704.5,-60 655.5,-60 655.5,-40 704.5,-40 704.5,-60"/>
<text text-anchor="middle" x="680" y="-46.5" font-family="Helvetica,sans-Serif" font-size="10.00">Utilities</text>
</a>
</g>
</g>
<!-- dir_63dfc1fe7b81c9735734dadb2bbdc552 -->
<g id="node19" class="node">
<title>dir_63dfc1fe7b81c9735734dadb2bbdc552</title>
<g id="a_node19"><a xlink:href="dir_63dfc1fe7b81c9735734dadb2bbdc552.html" target="_top" xlink:title="HashAlgorithm">
<polygon fill="#dae1ef" stroke="#404040" points="1756.25,-60 1675.75,-60 1675.75,-40 1756.25,-40 1756.25,-60"/>
<text text-anchor="middle" x="1716" y="-46.5" font-family="Helvetica,sans-Serif" font-size="10.00">HashAlgorithm</text>
</a>
</g>
</g>
<!-- dir_7cbd25fdb6f04b326e43915e93377fb1 -->
<g id="node20" class="node">
<title>dir_7cbd25fdb6f04b326e43915e93377fb1</title>
<g id="a_node20"><a xlink:href="dir_7cbd25fdb6f04b326e43915e93377fb1.html" target="_top" xlink:title="Jenkins">
<polygon fill="#dae1ef" stroke="#404040" points="1823.88,-60 1774.12,-60 1774.12,-40 1823.88,-40 1823.88,-60"/>
<text text-anchor="middle" x="1799" y="-46.5" font-family="Helvetica,sans-Serif" font-size="10.00">Jenkins</text>
</a>
</g>
</g>
<!-- dir_4054301a84892507c8f48a09be045df9 -->
<g id="node21" class="node">
<title>dir_4054301a84892507c8f48a09be045df9</title>
<g id="a_node21"><a xlink:href="dir_4054301a84892507c8f48a09be045df9.html" target="_top" xlink:title="MetroHash">
<polygon fill="#dae1ef" stroke="#404040" points="1906,-60 1842,-60 1842,-40 1906,-40 1906,-60"/>
<text text-anchor="middle" x="1874" y="-46.5" font-family="Helvetica,sans-Serif" font-size="10.00">MetroHash</text>
</a>
</g>
</g>
<!-- dir_42025255234f851f60e90fd445b4ae8a -->
<g id="node22" class="node">
<title>dir_42025255234f851f60e90fd445b4ae8a</title>
<g id="a_node22"><a xlink:href="dir_42025255234f851f60e90fd445b4ae8a.html" target="_top" xlink:title="MurmurHash">
<polygon fill="#dae1ef" stroke="#404040" points="1996.12,-60 1923.88,-60 1923.88,-40 1996.12,-40 1996.12,-60"/>
<text text-anchor="middle" x="1960" y="-46.5" font-family="Helvetica,sans-Serif" font-size="10.00">MurmurHash</text>
</a>
</g>
</g>
<!-- dir_576dc941431127b1708f4b9d2cda33ea -->
<g id="node23" class="node">
<title>dir_576dc941431127b1708f4b9d2cda33ea</title>
<text text-anchor="middle" x="875" y="-46.5" font-family="Helvetica,sans-Serif" font-size="10.00">obj</text>
</g>
<!-- dir_a7821ab323b02f441aafca89dd27fc78 -->
<g id="node24" class="node">
<title>dir_a7821ab323b02f441aafca89dd27fc78</title>
<text text-anchor="middle" x="759" y="-46.5" font-family="Helvetica,sans-Serif" font-size="10.00">Debug</text>
</g>
<!-- dir_377a1386b88abc5314fe7df5f3917b89 -->
<g id="node25" class="node">
<title>dir_377a1386b88abc5314fe7df5f3917b89</title>
<g id="a_node25"><a xlink:href="dir_377a1386b88abc5314fe7df5f3917b89.html" target="_top" xlink:title="net6.0">
<polygon fill="#b5c3df" stroke="#404040" points="842.5,-60 799.5,-60 799.5,-40 842.5,-40 842.5,-60"/>
<text text-anchor="middle" x="821" y="-46.5" font-family="Helvetica,sans-Serif" font-size="10.00">net6.0</text>
</a>
</g>
</g>
<!-- dir_a3699c41ff45b258f776fc61a8a0ecbd -->
<g id="node26" class="node">
<title>dir_a3699c41ff45b258f776fc61a8a0ecbd</title>
<g id="a_node26"><a xlink:href="dir_a3699c41ff45b258f776fc61a8a0ecbd.html" target="_top" xlink:title="Pearson">
<polygon fill="#dae1ef" stroke="#404040" points="2066,-60 2014,-60 2014,-40 2066,-40 2066,-60"/>
<text text-anchor="middle" x="2040" y="-46.5" font-family="Helvetica,sans-Serif" font-size="10.00">Pearson</text>
</a>
</g>
</g>
<!-- dir_68aea5bfaa55dde8f43e825da5f2021a -->
<g id="node27" class="node">
<title>dir_68aea5bfaa55dde8f43e825da5f2021a</title>
<g id="a_node27"><a xlink:href="dir_68aea5bfaa55dde8f43e825da5f2021a.html" target="_top" xlink:title="Properties">
<polygon fill="#dae1ef" stroke="#404040" points="2144.12,-60 2083.88,-60 2083.88,-40 2144.12,-40 2144.12,-60"/>
<text text-anchor="middle" x="2114" y="-46.5" font-family="Helvetica,sans-Serif" font-size="10.00">Properties</text>
</a>
</g>
</g>
<!-- dir_c74a8a502d54fbe1780faa870a169c18 -->
<g id="node28" class="node">
<title>dir_c74a8a502d54fbe1780faa870a169c18</title>
<g id="a_node28"><a xlink:href="dir_c74a8a502d54fbe1780faa870a169c18.html" target="_top" xlink:title="SpookyHash">
<polygon fill="#dae1ef" stroke="#404040" points="2234.12,-60 2161.88,-60 2161.88,-40 2234.12,-40 2234.12,-60"/>
<text text-anchor="middle" x="2198" y="-46.5" font-family="Helvetica,sans-Serif" font-size="10.00">SpookyHash</text>
</a>
</g>
</g>
<!-- dir_3d635cc372fc3292bafeb0b2341e7295 -->
<g id="node29" class="node">
<title>dir_3d635cc372fc3292bafeb0b2341e7295</title>
<text text-anchor="middle" x="930" y="-46.5" font-family="Helvetica,sans-Serif" font-size="10.00">Test</text>
</g>
<!-- dir_eb98ade933126cf65238147000925a32 -->
<g id="node30" class="node">
<title>dir_eb98ade933126cf65238147000925a32</title>
<g id="a_node30"><a xlink:href="dir_eb98ade933126cf65238147000925a32.html" target="_top" xlink:title="_Utilities">
<polygon fill="#c8d2e7" stroke="#404040" points="1020.12,-60 965.88,-60 965.88,-40 1020.12,-40 1020.12,-60"/>
<text text-anchor="middle" x="993" y="-46.5" font-family="Helvetica,sans-Serif" font-size="10.00">_Utilities</text>
</a>
</g>
</g>
<!-- dir_41a3466991282957de6707e74a5b6957 -->
<g id="node31" class="node">
<title>dir_41a3466991282957de6707e74a5b6957</title>
<g id="a_node31"><a xlink:href="dir_41a3466991282957de6707e74a5b6957.html" target="_top" xlink:title="xxHash">
<polygon fill="#dae1ef" stroke="#404040" points="2301.88,-60 2252.12,-60 2252.12,-40 2301.88,-40 2301.88,-60"/>
<text text-anchor="middle" x="2277" y="-46.5" font-family="Helvetica,sans-Serif" font-size="10.00">xxHash</text>
</a>
</g>
</g>
</g>
</svg>

<g id="navigator" transform="translate(0 0)" fill="#404254">
  <rect fill="#f2f5e9" fill-opacity="0.5" stroke="#606060" stroke-width=".5" x="0" y="0" width="60" height="60"/>
  <use id="zoomplus" xlink:href="#zoomPlus" x="17" y="9" onmousedown="handleZoom(evt,'in')"/>
  <use id="zoomminus" xlink:href="#zoomMin" x="42" y="9" onmousedown="handleZoom(evt,'out')"/>
  <use id="reset" xlink:href="#resetDef" x="30" y="36" onmousedown="handleReset()"/>
   <use id="arrowup" xlink:href="#arrowUp" x="0" y="0" onmousedown="handlePan(0,-1)"/>
  <use id="arrowright" xlink:href="#arrowRight" x="0" y="0" onmousedown="handlePan(1,0)"/>
  <use id="arrowdown" xlink:href="#arrowDown" x="0" y="0" onmousedown="handlePan(0,1)"/>
  <use id="arrowleft" xlink:href="#arrowLeft" x="0" y="0" onmousedown="handlePan(-1,0)"/>
</g>
<svg viewBox="0 0 15 15" width="100%" height="30px" preserveAspectRatio="xMaxYMin meet">
 <g id="arrow_out" transform="scale(0.3 0.3)">
  <a xlink:href="dir_d518e754daaec3082ee61a9497da04ef_dep_org.svg" target="_base">
   <rect id="button" ry="5" rx="5" y="6" x="6" height="38" width="38"
        fill="#f2f5e9" fill-opacity="0.5" stroke="#606060" stroke-width="1.0"/>
   <path id="arrow"
     d="M 11.500037,31.436501 C 11.940474,20.09759 22.043105,11.32322 32.158766,21.979434 L 37.068811,17.246167 C 37.068811,17.246167 37.088388,32 37.088388,32 L 22.160133,31.978069 C 22.160133,31.978069 26.997745,27.140456 26.997745,27.140456 C 18.528582,18.264221 13.291696,25.230495 11.500037,31.436501 z"
     style="fill:#404040;"/>
  </a>
 </g>
</svg>

<style type='text/css'>
<![CDATA[
[data-mouse-over-selected='false'] { opacity: 0.7; }
[data-mouse-over-selected='true']  { opacity: 1.0; }
]]>
</style>
<script type="application/ecmascript"><![CDATA[
document.addEventListener('DOMContentLoaded', (event) => {
  highlightEdges();
  highlightAdjacentNodes();
});
]]></script>
</svg>
