<?xml version="1.0" encoding="UTF-8" standalone="no"?>
<!DOCTYPE svg PUBLIC "-//W3C//DTD SVG 1.1//EN"
 "http://www.w3.org/Graphics/SVG/1.1/DTD/svg11.dtd">
<!-- Generated by graphviz version 12.2.0 (20241103.1931)
 -->
<!-- Title: Data.HashFunction.Interfaces Pages: 1 -->
<!--zoomable 128 -->

<svg id="main" version="1.1" xmlns="http://www.w3.org/2000/svg" xmlns:xlink="http://www.w3.org/1999/xlink" xml:space="preserve" onload="init(evt)">

<style type="text/css"><![CDATA[
.node, .edge {opacity: 0.7;}
.node.selected, .edge.selected {opacity: 1;}
.edge:hover path { stroke: red; }
.edge:hover polygon { stroke: red; fill: red; }
]]></style>

<defs>
  <circle id="rim" cx="0" cy="0" r="7"/>
  <circle id="rim2" cx="0" cy="0" r="3.5"/>
  <g id="zoomPlus">
    <use xlink:href="#rim" fill="#404040"><set attributeName="fill" to="#808080" begin="zoomplus.mouseover" end="zoomplus.mouseout"/></use>
    <path d="M-4,0h8M0,-4v8" fill="none" stroke="white" stroke-width="1.5" pointer-events="none"/>
  </g>
  <g id="zoomMin">
    <use xlink:href="#rim" fill="#404040"><set attributeName="fill" to="#808080" begin="zoomminus.mouseover" end="zoomminus.mouseout"/></use>
    <path d="M-4,0h8" fill="none" stroke="white" stroke-width="1.5" pointer-events="none"/>
  </g>
  <g id="arrowUp" transform="translate(30 24)">
    <use xlink:href="#rim"/>
    <path pointer-events="none" fill="none" stroke="white" stroke-width="1.5" d="M0,-3.0v7 M-2.5,-0.5L0,-3.0L2.5,-0.5"/>
  </g>
  <g id="arrowRight" transform="rotate(90) translate(36 -43)">
    <use xlink:href="#rim"/>
    <path pointer-events="none" fill="none" stroke="white" stroke-width="1.5" d="M0,-3.0v7 M-2.5,-0.5L0,-3.0L2.5,-0.5"/>
  </g>
  <g id="arrowDown" transform="rotate(180) translate(-30 -48)">
    <use xlink:href="#rim"/>
    <path pointer-events="none" fill="none" stroke="white" stroke-width="1.5" d="M0,-3.0v7 M-2.5,-0.5L0,-3.0L2.5,-0.5"/>
  </g>
  <g id="arrowLeft" transform="rotate(270) translate(-36 17)">
    <use xlink:href="#rim"/>
    <path pointer-events="none" fill="none" stroke="white" stroke-width="1.5" d="M0,-3.0v7 M-2.5,-0.5L0,-3.0L2.5,-0.5"/>
  </g>
  <g id="resetDef">
    <use xlink:href="#rim2" fill="#404040"><set attributeName="fill" to="#808080" begin="reset.mouseover" end="reset.mouseout"/></use>
  </g>
</defs>
<script type="application/ecmascript">
var viewWidth = 506;
var viewHeight = 128;
var sectionId = 'dynsection-0';
</script>
<script type="application/ecmascript" xlink:href="svg.min.js"/>
<svg id="graph" class="graph">
<g id="viewport">
<title>Data.HashFunction.Interfaces</title>
<g id="clust1" class="cluster">
<title>clusterdir_68267d1309a1af8e8297ef4c3efbcdba</title>
<g id="a_clust1"><a xlink:href="dir_68267d1309a1af8e8297ef4c3efbcdba.html" target="_top" xlink:title="src">
<polygon fill="#edf0f7" stroke="#404040" stroke-dasharray="5,2" points="8,-8 8,-112 490,-112 490,-8 8,-8"/>
<text text-anchor="middle" x="249" y="-98.5" font-family="Helvetica,sans-Serif" font-size="10.00">src</text>
</a>
</g>
</g>
<g id="clust2" class="cluster">
<title>clusterdir_3e1ee96dfc508547d9f845725f03d00b</title>
<g id="a_clust2"><a xlink:href="dir_3e1ee96dfc508547d9f845725f03d00b.html" target="_top">
<polygon fill="#edf0f7" stroke="#404040" stroke-width="2" points="16,-16 16,-84 482,-84 482,-16 16,-16"/>
</a>
</g>
</g>
<g id="clust3" class="cluster">
<title>clusterdir_540c567f112fd7d8e2253cb1a739c5b9</title>
<g id="a_clust3"><a xlink:href="dir_540c567f112fd7d8e2253cb1a739c5b9.html" target="_top">
<polygon fill="#dae1ef" stroke="#404040" points="24,-24 24,-76 238,-76 238,-24 24,-24"/>
</a>
</g>
</g>
<g id="clust4" class="cluster">
<title>clusterdir_70f797266495218b5270f6d60f837cf3</title>
<g id="a_clust4"><a xlink:href="dir_70f797266495218b5270f6d60f837cf3.html" target="_top">
<polygon fill="#c8d2e7" stroke="#404040" points="32,-32 32,-68 191,-68 191,-32 32,-32"/>
</a>
</g>
</g>
<!-- dir_3e1ee96dfc508547d9f845725f03d00b -->
<g id="node1" class="node">
<title>dir_3e1ee96dfc508547d9f845725f03d00b</title>
<text text-anchor="middle" x="322" y="-46.5" font-family="Helvetica,sans-Serif" font-size="10.00">Data.HashFunction.Interfaces</text>
</g>
<!-- dir_540c567f112fd7d8e2253cb1a739c5b9 -->
<g id="node2" class="node">
<title>dir_540c567f112fd7d8e2253cb1a739c5b9</title>
<text text-anchor="middle" x="216" y="-46.5" font-family="Helvetica,sans-Serif" font-size="10.00">obj</text>
</g>
<!-- dir_70f797266495218b5270f6d60f837cf3 -->
<g id="node3" class="node">
<title>dir_70f797266495218b5270f6d60f837cf3</title>
<text text-anchor="middle" x="62" y="-46.5" font-family="Helvetica,sans-Serif" font-size="10.00">Debug</text>
</g>
<!-- dir_71de77ce812c9815ab75cf2c547d74f7 -->
<g id="node4" class="node">
<title>dir_71de77ce812c9815ab75cf2c547d74f7</title>
<g id="a_node4"><a xlink:href="dir_71de77ce812c9815ab75cf2c547d74f7.html" target="_top" xlink:title="netstandard2.0">
<polygon fill="#b5c3df" stroke="#404040" points="183.25,-60 102.75,-60 102.75,-40 183.25,-40 183.25,-60"/>
<text text-anchor="middle" x="143" y="-46.5" font-family="Helvetica,sans-Serif" font-size="10.00">netstandard2.0</text>
</a>
</g>
</g>
<!-- dir_edcec4e7d815f6534bdc5b49ceb88bb7 -->
<g id="node5" class="node">
<title>dir_edcec4e7d815f6534bdc5b49ceb88bb7</title>
<g id="a_node5"><a xlink:href="dir_edcec4e7d815f6534bdc5b49ceb88bb7.html" target="_top" xlink:title="Properties">
<polygon fill="#dae1ef" stroke="#404040" points="474.12,-60 413.88,-60 413.88,-40 474.12,-40 474.12,-60"/>
<text text-anchor="middle" x="444" y="-46.5" font-family="Helvetica,sans-Serif" font-size="10.00">Properties</text>
</a>
</g>
</g>
</g>
</svg>

<g id="navigator" transform="translate(0 0)" fill="#404254">
  <rect fill="#f2f5e9" fill-opacity="0.5" stroke="#606060" stroke-width=".5" x="0" y="0" width="60" height="60"/>
  <use id="zoomplus" xlink:href="#zoomPlus" x="17" y="9" onmousedown="handleZoom(evt,'in')"/>
  <use id="zoomminus" xlink:href="#zoomMin" x="42" y="9" onmousedown="handleZoom(evt,'out')"/>
  <use id="reset" xlink:href="#resetDef" x="30" y="36" onmousedown="handleReset()"/>
   <use id="arrowup" xlink:href="#arrowUp" x="0" y="0" onmousedown="handlePan(0,-1)"/>
  <use id="arrowright" xlink:href="#arrowRight" x="0" y="0" onmousedown="handlePan(1,0)"/>
  <use id="arrowdown" xlink:href="#arrowDown" x="0" y="0" onmousedown="handlePan(0,1)"/>
  <use id="arrowleft" xlink:href="#arrowLeft" x="0" y="0" onmousedown="handlePan(-1,0)"/>
</g>
<svg viewBox="0 0 15 15" width="100%" height="30px" preserveAspectRatio="xMaxYMin meet">
 <g id="arrow_out" transform="scale(0.3 0.3)">
  <a xlink:href="dir_3e1ee96dfc508547d9f845725f03d00b_dep_org.svg" target="_base">
   <rect id="button" ry="5" rx="5" y="6" x="6" height="38" width="38"
        fill="#f2f5e9" fill-opacity="0.5" stroke="#606060" stroke-width="1.0"/>
   <path id="arrow"
     d="M 11.500037,31.436501 C 11.940474,20.09759 22.043105,11.32322 32.158766,21.979434 L 37.068811,17.246167 C 37.068811,17.246167 37.088388,32 37.088388,32 L 22.160133,31.978069 C 22.160133,31.978069 26.997745,27.140456 26.997745,27.140456 C 18.528582,18.264221 13.291696,25.230495 11.500037,31.436501 z"
     style="fill:#404040;"/>
  </a>
 </g>
</svg>

<style type='text/css'>
<![CDATA[
[data-mouse-over-selected='false'] { opacity: 0.7; }
[data-mouse-over-selected='true']  { opacity: 1.0; }
]]>
</style>
<script type="application/ecmascript"><![CDATA[
document.addEventListener('DOMContentLoaded', (event) => {
  highlightEdges();
  highlightAdjacentNodes();
});
]]></script>
</svg>
