<?xml version="1.0" encoding="UTF-8" standalone="no"?>
<!DOCTYPE svg PUBLIC "-//W3C//DTD SVG 1.1//EN"
 "http://www.w3.org/Graphics/SVG/1.1/DTD/svg11.dtd">
<!-- Generated by graphviz version 12.2.0 (20241103.1931)
 -->
<!-- Title: Graphical Class Hierarchy Pages: 1 -->
<svg width="765pt" height="314pt"
 viewBox="0.00 0.00 765.00 314.00" xmlns="http://www.w3.org/2000/svg" xmlns:xlink="http://www.w3.org/1999/xlink">
<g id="graph0" class="graph" transform="scale(1 1) rotate(0) translate(4 310)">
<title>Graphical Class Hierarchy</title>
<!-- Node0 -->
<g id="Node000000" class="node">
<title>Node0</title>
<g id="a_Node000000"><a xlink:href="interface_data_1_1_hash_function_1_1_i_block_transformer.html" target="_top" xlink:title="An internal state of an iteratively computable hash function value.">
<polygon fill="white" stroke="#666666" points="131.5,-178 0,-178 0,-146 131.5,-146 131.5,-178"/>
<text text-anchor="start" x="8" y="-164.5" font-family="Helvetica,sans-Serif" font-size="10.00">Data.HashFunction.IBlock</text>
<text text-anchor="middle" x="65.75" y="-152.5" font-family="Helvetica,sans-Serif" font-size="10.00">Transformer</text>
</a>
</g>
</g>
<!-- Node1 -->
<g id="Node000001" class="node">
<title>Node1</title>
<g id="a_Node000001"><a xlink:href="class_data_1_1_hash_function_1_1_core_1_1_block_transformer_base.html" target="_top" xlink:title="Base implementation for an internal state of an iteratively computable hash function value.">
<polygon fill="white" stroke="#666666" points="320,-178 167.5,-178 167.5,-146 320,-146 320,-178"/>
<text text-anchor="start" x="175.5" y="-164.5" font-family="Helvetica,sans-Serif" font-size="10.00">Data.HashFunction.Core.Block</text>
<text text-anchor="middle" x="243.75" y="-152.5" font-family="Helvetica,sans-Serif" font-size="10.00">TransformerBase&lt; TSelf &gt;</text>
</a>
</g>
</g>
<!-- Node0&#45;&gt;Node1 -->
<g id="edge43_Node000000_Node000001" class="edge">
<title>Node0&#45;&gt;Node1</title>
<g id="a_edge43_Node000000_Node000001"><a xlink:title=" ">
<path fill="none" stroke="#63b8ff" d="M143.04,-162C151.08,-162 159.25,-162 167.28,-162"/>
<polygon fill="#63b8ff" stroke="#63b8ff" points="143.3,-158.5 133.3,-162 143.3,-165.5 143.3,-158.5"/>
</a>
</g>
</g>
<!-- Node2 -->
<g id="Node000002" class="node">
<title>Node2</title>
<g id="a_Node000002"><a xlink:href="class_data_1_1_hash_function_1_1_f_n_v_1_1_f_n_v1_base_1_1_block_transformer__32_bit_base.html" target="_top" xlink:title=" ">
<polygon fill="white" stroke="#666666" points="525,-262 356,-262 356,-218 525,-218 525,-262"/>
<text text-anchor="start" x="364" y="-248.5" font-family="Helvetica,sans-Serif" font-size="10.00">Data.HashFunction.FNV.FNV1</text>
<text text-anchor="start" x="364" y="-236.5" font-family="Helvetica,sans-Serif" font-size="10.00">Base.BlockTransformer_32BitBase</text>
<text text-anchor="middle" x="440.5" y="-224.5" font-family="Helvetica,sans-Serif" font-size="10.00">&lt; TSelf &gt;</text>
</a>
</g>
</g>
<!-- Node1&#45;&gt;Node2 -->
<g id="edge44_Node000001_Node000002" class="edge">
<title>Node1&#45;&gt;Node2</title>
<g id="a_edge44_Node000001_Node000002"><a xlink:title=" ">
<path fill="none" stroke="#63b8ff" d="M295.95,-182.51C322.9,-193.3 355.98,-206.55 383.59,-217.61"/>
<polygon fill="#63b8ff" stroke="#63b8ff" points="297.57,-179.38 286.98,-178.91 294.96,-185.88 297.57,-179.38"/>
</a>
</g>
</g>
<!-- Node5 -->
<g id="Node000005" class="node">
<title>Node5</title>
<g id="a_Node000005"><a xlink:href="class_data_1_1_hash_function_1_1_f_n_v_1_1_f_n_v1_base_1_1_block_transformer__64_bit_base.html" target="_top" xlink:title=" ">
<polygon fill="white" stroke="#666666" points="525,-184 356,-184 356,-140 525,-140 525,-184"/>
<text text-anchor="start" x="364" y="-170.5" font-family="Helvetica,sans-Serif" font-size="10.00">Data.HashFunction.FNV.FNV1</text>
<text text-anchor="start" x="364" y="-158.5" font-family="Helvetica,sans-Serif" font-size="10.00">Base.BlockTransformer_64BitBase</text>
<text text-anchor="middle" x="440.5" y="-146.5" font-family="Helvetica,sans-Serif" font-size="10.00">&lt; TSelf &gt;</text>
</a>
</g>
</g>
<!-- Node1&#45;&gt;Node5 -->
<g id="edge47_Node000001_Node000005" class="edge">
<title>Node1&#45;&gt;Node5</title>
<g id="a_edge47_Node000001_Node000005"><a xlink:title=" ">
<path fill="none" stroke="#63b8ff" d="M331.81,-162C339.7,-162 347.69,-162 355.56,-162"/>
<polygon fill="#63b8ff" stroke="#63b8ff" points="331.84,-158.5 321.84,-162 331.84,-165.5 331.84,-158.5"/>
</a>
</g>
</g>
<!-- Node8 -->
<g id="Node000008" class="node">
<title>Node8</title>
<g id="a_Node000008"><a xlink:href="class_data_1_1_hash_function_1_1_f_n_v_1_1_f_n_v1_base_1_1_block_transformer___extended_base.html" target="_top" xlink:title=" ">
<polygon fill="white" stroke="#666666" points="523.12,-106 357.88,-106 357.88,-62 523.12,-62 523.12,-106"/>
<text text-anchor="start" x="365.88" y="-92.5" font-family="Helvetica,sans-Serif" font-size="10.00">Data.HashFunction.FNV.FNV1</text>
<text text-anchor="start" x="365.88" y="-80.5" font-family="Helvetica,sans-Serif" font-size="10.00">Base.BlockTransformer_Extended</text>
<text text-anchor="middle" x="440.5" y="-68.5" font-family="Helvetica,sans-Serif" font-size="10.00">Base&lt; TSelf &gt;</text>
</a>
</g>
</g>
<!-- Node1&#45;&gt;Node8 -->
<g id="edge50_Node000001_Node000008" class="edge">
<title>Node1&#45;&gt;Node8</title>
<g id="a_edge50_Node000001_Node000008"><a xlink:title=" ">
<path fill="none" stroke="#63b8ff" d="M295.95,-141.49C322.9,-130.7 355.98,-117.45 383.59,-106.39"/>
<polygon fill="#63b8ff" stroke="#63b8ff" points="294.96,-138.12 286.98,-145.09 297.57,-144.62 294.96,-138.12"/>
</a>
</g>
</g>
<!-- Node3 -->
<g id="Node000003" class="node">
<title>Node3</title>
<g id="a_Node000003"><a xlink:href="class_data_1_1_hash_function_1_1_f_n_v_1_1_f_n_v1___implementation_1_1_block_transformer__32_bit.html" target="_top" xlink:title=" ">
<polygon fill="white" stroke="#666666" points="757,-306 561,-306 561,-274 757,-274 757,-306"/>
<text text-anchor="start" x="569" y="-292.5" font-family="Helvetica,sans-Serif" font-size="10.00">Data.HashFunction.FNV.FNV1</text>
<text text-anchor="middle" x="659" y="-280.5" font-family="Helvetica,sans-Serif" font-size="10.00">_Implementation.BlockTransformer_32Bit</text>
</a>
</g>
</g>
<!-- Node2&#45;&gt;Node3 -->
<g id="edge45_Node000002_Node000003" class="edge">
<title>Node2&#45;&gt;Node3</title>
<g id="a_edge45_Node000002_Node000003"><a xlink:title=" ">
<path fill="none" stroke="#63b8ff" d="M536.27,-261.89C553.24,-265.81 570.66,-269.83 586.83,-273.56"/>
<polygon fill="#63b8ff" stroke="#63b8ff" points="537.21,-258.51 526.68,-259.67 535.64,-265.33 537.21,-258.51"/>
</a>
</g>
</g>
<!-- Node4 -->
<g id="Node000004" class="node">
<title>Node4</title>
<g id="a_Node000004"><a xlink:href="class_data_1_1_hash_function_1_1_f_n_v_1_1_f_n_v1a___implementation_1_1_block_transformer__32_bit.html" target="_top" xlink:title=" ">
<polygon fill="white" stroke="#666666" points="757,-256 561,-256 561,-224 757,-224 757,-256"/>
<text text-anchor="start" x="569" y="-242.5" font-family="Helvetica,sans-Serif" font-size="10.00">Data.HashFunction.FNV.FNV1a</text>
<text text-anchor="middle" x="659" y="-230.5" font-family="Helvetica,sans-Serif" font-size="10.00">_Implementation.BlockTransformer_32Bit</text>
</a>
</g>
</g>
<!-- Node2&#45;&gt;Node4 -->
<g id="edge46_Node000002_Node000004" class="edge">
<title>Node2&#45;&gt;Node4</title>
<g id="a_edge46_Node000002_Node000004"><a xlink:title=" ">
<path fill="none" stroke="#63b8ff" d="M536.51,-240C544.57,-240 552.73,-240 560.81,-240"/>
<polygon fill="#63b8ff" stroke="#63b8ff" points="536.72,-236.5 526.72,-240 536.72,-243.5 536.72,-236.5"/>
</a>
</g>
</g>
<!-- Node6 -->
<g id="Node000006" class="node">
<title>Node6</title>
<g id="a_Node000006"><a xlink:href="class_data_1_1_hash_function_1_1_f_n_v_1_1_f_n_v1___implementation_1_1_block_transformer__64_bit.html" target="_top" xlink:title=" ">
<polygon fill="white" stroke="#666666" points="757,-206 561,-206 561,-174 757,-174 757,-206"/>
<text text-anchor="start" x="569" y="-192.5" font-family="Helvetica,sans-Serif" font-size="10.00">Data.HashFunction.FNV.FNV1</text>
<text text-anchor="middle" x="659" y="-180.5" font-family="Helvetica,sans-Serif" font-size="10.00">_Implementation.BlockTransformer_64Bit</text>
</a>
</g>
</g>
<!-- Node5&#45;&gt;Node6 -->
<g id="edge48_Node000005_Node000006" class="edge">
<title>Node5&#45;&gt;Node6</title>
<g id="a_edge48_Node000005_Node000006"><a xlink:title=" ">
<path fill="none" stroke="#63b8ff" d="M536.51,-174.29C544.57,-175.33 552.73,-176.39 560.81,-177.43"/>
<polygon fill="#63b8ff" stroke="#63b8ff" points="537.07,-170.83 526.71,-173.02 536.17,-177.77 537.07,-170.83"/>
</a>
</g>
</g>
<!-- Node7 -->
<g id="Node000007" class="node">
<title>Node7</title>
<g id="a_Node000007"><a xlink:href="class_data_1_1_hash_function_1_1_f_n_v_1_1_f_n_v1a___implementation_1_1_block_transformer__64_bit.html" target="_top" xlink:title=" ">
<polygon fill="white" stroke="#666666" points="757,-156 561,-156 561,-124 757,-124 757,-156"/>
<text text-anchor="start" x="569" y="-142.5" font-family="Helvetica,sans-Serif" font-size="10.00">Data.HashFunction.FNV.FNV1a</text>
<text text-anchor="middle" x="659" y="-130.5" font-family="Helvetica,sans-Serif" font-size="10.00">_Implementation.BlockTransformer_64Bit</text>
</a>
</g>
</g>
<!-- Node5&#45;&gt;Node7 -->
<g id="edge49_Node000005_Node000007" class="edge">
<title>Node5&#45;&gt;Node7</title>
<g id="a_edge49_Node000005_Node000007"><a xlink:title=" ">
<path fill="none" stroke="#63b8ff" d="M536.51,-152.34C544.57,-151.53 552.73,-150.7 560.81,-149.88"/>
<polygon fill="#63b8ff" stroke="#63b8ff" points="536.31,-148.85 526.71,-153.34 537.01,-155.81 536.31,-148.85"/>
</a>
</g>
</g>
<!-- Node9 -->
<g id="Node000009" class="node">
<title>Node9</title>
<g id="a_Node000009"><a xlink:href="class_data_1_1_hash_function_1_1_f_n_v_1_1_f_n_v1___implementation_1_1_block_transformer___extended.html" target="_top" xlink:title=" ">
<polygon fill="white" stroke="#666666" points="743.12,-106 574.88,-106 574.88,-62 743.12,-62 743.12,-106"/>
<text text-anchor="start" x="582.88" y="-92.5" font-family="Helvetica,sans-Serif" font-size="10.00">Data.HashFunction.FNV.FNV1</text>
<text text-anchor="start" x="582.88" y="-80.5" font-family="Helvetica,sans-Serif" font-size="10.00">_Implementation.BlockTransformer</text>
<text text-anchor="middle" x="659" y="-68.5" font-family="Helvetica,sans-Serif" font-size="10.00">_Extended</text>
</a>
</g>
</g>
<!-- Node8&#45;&gt;Node9 -->
<g id="edge51_Node000008_Node000009" class="edge">
<title>Node8&#45;&gt;Node9</title>
<g id="a_edge51_Node000008_Node000009"><a xlink:title=" ">
<path fill="none" stroke="#63b8ff" d="M534.86,-84C548.07,-84 561.59,-84 574.6,-84"/>
<polygon fill="#63b8ff" stroke="#63b8ff" points="534.86,-80.5 524.86,-84 534.86,-87.5 534.86,-80.5"/>
</a>
</g>
</g>
<!-- Node10 -->
<g id="Node000010" class="node">
<title>Node10</title>
<g id="a_Node000010"><a xlink:href="class_data_1_1_hash_function_1_1_f_n_v_1_1_f_n_v1a___implementation_1_1_block_transformer___extended.html" target="_top" xlink:title=" ">
<polygon fill="white" stroke="#666666" points="743.12,-44 574.88,-44 574.88,0 743.12,0 743.12,-44"/>
<text text-anchor="start" x="582.88" y="-30.5" font-family="Helvetica,sans-Serif" font-size="10.00">Data.HashFunction.FNV.FNV1a</text>
<text text-anchor="start" x="582.88" y="-18.5" font-family="Helvetica,sans-Serif" font-size="10.00">_Implementation.BlockTransformer</text>
<text text-anchor="middle" x="659" y="-6.5" font-family="Helvetica,sans-Serif" font-size="10.00">_Extended</text>
</a>
</g>
</g>
<!-- Node8&#45;&gt;Node10 -->
<g id="edge52_Node000008_Node000010" class="edge">
<title>Node8&#45;&gt;Node10</title>
<g id="a_edge52_Node000008_Node000010"><a xlink:title=" ">
<path fill="none" stroke="#63b8ff" d="M530.99,-58.37C547.06,-53.77 563.7,-49 579.44,-44.5"/>
<polygon fill="#63b8ff" stroke="#63b8ff" points="530.07,-54.99 521.42,-61.11 532,-61.72 530.07,-54.99"/>
</a>
</g>
</g>
</g>
</svg>
