<?xml version="1.0" encoding="UTF-8" standalone="no"?>
<!DOCTYPE svg PUBLIC "-//W3C//DTD SVG 1.1//EN"
 "http://www.w3.org/Graphics/SVG/1.1/DTD/svg11.dtd">
<!-- Generated by graphviz version 12.2.0 (20241103.1931)
 -->
<!-- Title: Graphical Class Hierarchy Pages: 1 -->
<svg width="330pt" height="90pt"
 viewBox="0.00 0.00 329.50 90.00" xmlns="http://www.w3.org/2000/svg" xmlns:xlink="http://www.w3.org/1999/xlink">
<g id="graph0" class="graph" transform="scale(1 1) rotate(0) translate(4 86)">
<title>Graphical Class Hierarchy</title>
<!-- Node0 -->
<g id="Node000000" class="node">
<title>Node0</title>
<g id="a_Node000000"><a xlink:href="interface_data_1_1_hash_function_1_1_pearson_1_1_i_pearson_config.html" target="_top" xlink:title="Defines a configuration for a IPearson implementation.">
<polygon fill="white" stroke="#666666" points="142.75,-57 0,-57 0,-25 142.75,-25 142.75,-57"/>
<text text-anchor="start" x="8" y="-43.5" font-family="Helvetica,sans-Serif" font-size="10.00">Data.HashFunction.Pearson.</text>
<text text-anchor="middle" x="71.38" y="-31.5" font-family="Helvetica,sans-Serif" font-size="10.00">IPearsonConfig</text>
</a>
</g>
</g>
<!-- Node1 -->
<g id="Node000001" class="node">
<title>Node1</title>
<g id="a_Node000001"><a xlink:href="class_data_1_1_hash_function_1_1_pearson_1_1_pearson_config.html" target="_top" xlink:title="Defines a configuration for a IPearson implementation.">
<polygon fill="white" stroke="#666666" points="321.5,-82 178.75,-82 178.75,-50 321.5,-50 321.5,-82"/>
<text text-anchor="start" x="186.75" y="-68.5" font-family="Helvetica,sans-Serif" font-size="10.00">Data.HashFunction.Pearson.</text>
<text text-anchor="middle" x="250.12" y="-56.5" font-family="Helvetica,sans-Serif" font-size="10.00">PearsonConfig</text>
</a>
</g>
</g>
<!-- Node0&#45;&gt;Node1 -->
<g id="edge155_Node000000_Node000001" class="edge">
<title>Node0&#45;&gt;Node1</title>
<g id="a_edge155_Node000000_Node000001"><a xlink:title=" ">
<path fill="none" stroke="#63b8ff" d="M154.52,-52.62C162.54,-53.75 170.63,-54.9 178.52,-56.01"/>
<polygon fill="#63b8ff" stroke="#63b8ff" points="155.14,-49.17 144.75,-51.24 154.16,-56.1 155.14,-49.17"/>
</a>
</g>
</g>
<!-- Node2 -->
<g id="Node000002" class="node">
<title>Node2</title>
<g id="a_Node000002"><a xlink:href="class_data_1_1_hash_function_1_1_pearson_1_1_wikipedia_pearson_config.html" target="_top" xlink:title="Defines a configuration for a IPearson implementation.">
<polygon fill="white" stroke="#666666" points="321.5,-32 178.75,-32 178.75,0 321.5,0 321.5,-32"/>
<text text-anchor="start" x="186.75" y="-18.5" font-family="Helvetica,sans-Serif" font-size="10.00">Data.HashFunction.Pearson.</text>
<text text-anchor="middle" x="250.12" y="-6.5" font-family="Helvetica,sans-Serif" font-size="10.00">WikipediaPearsonConfig</text>
</a>
</g>
</g>
<!-- Node0&#45;&gt;Node2 -->
<g id="edge156_Node000000_Node000002" class="edge">
<title>Node0&#45;&gt;Node2</title>
<g id="a_edge156_Node000000_Node000002"><a xlink:title=" ">
<path fill="none" stroke="#63b8ff" d="M154.52,-29.38C162.54,-28.25 170.63,-27.1 178.52,-25.99"/>
<polygon fill="#63b8ff" stroke="#63b8ff" points="154.16,-25.9 144.75,-30.76 155.14,-32.83 154.16,-25.9"/>
</a>
</g>
</g>
</g>
</svg>
