<?xml version="1.0" encoding="UTF-8" standalone="no"?>
<!DOCTYPE svg PUBLIC "-//W3C//DTD SVG 1.1//EN"
 "http://www.w3.org/Graphics/SVG/1.1/DTD/svg11.dtd">
<!-- Generated by graphviz version 12.2.0 (20241103.1931)
 -->
<!-- Title: Graphical Class Hierarchy Pages: 1 -->
<svg width="435pt" height="686pt"
 viewBox="0.00 0.00 435.25 686.00" xmlns="http://www.w3.org/2000/svg" xmlns:xlink="http://www.w3.org/1999/xlink">
<g id="graph0" class="graph" transform="scale(1 1) rotate(0) translate(4 682)">
<title>Graphical Class Hierarchy</title>
<!-- Node0 -->
<g id="Node000000" class="node">
<title>Node0</title>
<g id="a_Node000000"><a xlink:href="class_data_1_1_hash_function_1_1_core_1_1_block_transformer_base.html" target="_top" xlink:title=" ">
<polygon fill="white" stroke="#666666" points="186.25,-367 0,-367 0,-335 186.25,-335 186.25,-367"/>
<text text-anchor="start" x="8" y="-353.5" font-family="Helvetica,sans-Serif" font-size="10.00">Data.HashFunction.Core.Block</text>
<text text-anchor="middle" x="93.12" y="-341.5" font-family="Helvetica,sans-Serif" font-size="10.00">TransformerBase&lt; BlockTransformer &gt;</text>
</a>
</g>
</g>
<!-- Node1 -->
<g id="Node000001" class="node">
<title>Node1</title>
<g id="a_Node000001"><a xlink:href="class_data_1_1_hash_function_1_1_bernstein_hash_1_1_bernstein_hash___implementation_1_1_block_transformer.html" target="_top" xlink:title=" ">
<polygon fill="white" stroke="#666666" points="415.62,-678 233.88,-678 233.88,-634 415.62,-634 415.62,-678"/>
<text text-anchor="start" x="241.88" y="-664.5" font-family="Helvetica,sans-Serif" font-size="10.00">Data.HashFunction.Bernstein</text>
<text text-anchor="start" x="241.88" y="-652.5" font-family="Helvetica,sans-Serif" font-size="10.00">Hash.BernsteinHash_Implementation.</text>
<text text-anchor="middle" x="324.75" y="-640.5" font-family="Helvetica,sans-Serif" font-size="10.00">BlockTransformer</text>
</a>
</g>
</g>
<!-- Node0&#45;&gt;Node1 -->
<g id="edge12_Node000000_Node000001" class="edge">
<title>Node0&#45;&gt;Node1</title>
<g id="a_edge12_Node000000_Node000001"><a xlink:title=" ">
<path fill="none" stroke="#63b8ff" d="M99.27,-378.62C110.98,-433.73 144.83,-557.79 222.25,-625 226.01,-628.26 230.1,-631.18 234.42,-633.79"/>
<polygon fill="#63b8ff" stroke="#63b8ff" points="102.7,-377.95 97.28,-368.84 95.84,-379.34 102.7,-377.95"/>
</a>
</g>
</g>
<!-- Node2 -->
<g id="Node000002" class="node">
<title>Node2</title>
<g id="a_Node000002"><a xlink:href="class_data_1_1_hash_function_1_1_bernstein_hash_1_1_modified_bernstein_hash___implementation_1_1_block_transformer.html" target="_top" xlink:title=" ">
<polygon fill="white" stroke="#666666" points="408.88,-616 240.62,-616 240.62,-572 408.88,-572 408.88,-616"/>
<text text-anchor="start" x="248.62" y="-602.5" font-family="Helvetica,sans-Serif" font-size="10.00">Data.HashFunction.Bernstein</text>
<text text-anchor="start" x="248.62" y="-590.5" font-family="Helvetica,sans-Serif" font-size="10.00">Hash.ModifiedBernsteinHash</text>
<text text-anchor="middle" x="324.75" y="-578.5" font-family="Helvetica,sans-Serif" font-size="10.00">_Implementation.BlockTransformer</text>
</a>
</g>
</g>
<!-- Node0&#45;&gt;Node2 -->
<g id="edge13_Node000000_Node000002" class="edge">
<title>Node0&#45;&gt;Node2</title>
<g id="a_edge13_Node000000_Node000002"><a xlink:title=" ">
<path fill="none" stroke="#63b8ff" d="M103.15,-377.98C119.6,-423.04 158.74,-513.53 222.25,-563 227.77,-567.3 233.89,-571.01 240.31,-574.21"/>
<polygon fill="#63b8ff" stroke="#63b8ff" points="106.51,-376.99 99.87,-368.73 99.91,-379.33 106.51,-376.99"/>
</a>
</g>
</g>
<!-- Node3 -->
<g id="Node000003" class="node">
<title>Node3</title>
<g id="a_Node000003"><a xlink:href="class_data_1_1_hash_function_1_1_blake2_1_1_blake2_b___implementation_1_1_block_transformer.html" target="_top" xlink:title=" ">
<polygon fill="white" stroke="#666666" points="427.25,-554 222.25,-554 222.25,-522 427.25,-522 427.25,-554"/>
<text text-anchor="start" x="230.25" y="-540.5" font-family="Helvetica,sans-Serif" font-size="10.00">Data.HashFunction.Blake2.</text>
<text text-anchor="middle" x="324.75" y="-528.5" font-family="Helvetica,sans-Serif" font-size="10.00">Blake2B_Implementation.BlockTransformer</text>
</a>
</g>
</g>
<!-- Node0&#45;&gt;Node3 -->
<g id="edge14_Node000000_Node000003" class="edge">
<title>Node0&#45;&gt;Node3</title>
<g id="a_edge14_Node000000_Node000003"><a xlink:title=" ">
<path fill="none" stroke="#63b8ff" d="M107.48,-377.1C127.41,-413.35 168.45,-478.4 222.25,-513 227.29,-516.24 232.71,-519.06 238.34,-521.51"/>
<polygon fill="#63b8ff" stroke="#63b8ff" points="110.73,-375.75 102.91,-368.59 104.56,-379.06 110.73,-375.75"/>
</a>
</g>
</g>
<!-- Node4 -->
<g id="Node000004" class="node">
<title>Node4</title>
<g id="a_Node000004"><a xlink:href="class_data_1_1_hash_function_1_1_c_r_c_1_1_c_r_c___implementation_1_1_block_transformer.html" target="_top" xlink:title=" ">
<polygon fill="white" stroke="#666666" points="408.88,-504 240.62,-504 240.62,-472 408.88,-472 408.88,-504"/>
<text text-anchor="start" x="248.62" y="-490.5" font-family="Helvetica,sans-Serif" font-size="10.00">Data.HashFunction.CRC.CRC</text>
<text text-anchor="middle" x="324.75" y="-478.5" font-family="Helvetica,sans-Serif" font-size="10.00">_Implementation.BlockTransformer</text>
</a>
</g>
</g>
<!-- Node0&#45;&gt;Node4 -->
<g id="edge15_Node000000_Node000004" class="edge">
<title>Node0&#45;&gt;Node4</title>
<g id="a_edge15_Node000000_Node000004"><a xlink:title=" ">
<path fill="none" stroke="#63b8ff" d="M115.74,-375.89C139.37,-401.53 179.58,-440.79 222.25,-463 228.45,-466.23 235.08,-469.05 241.87,-471.51"/>
<polygon fill="#63b8ff" stroke="#63b8ff" points="118.42,-373.63 109.11,-368.56 113.22,-378.33 118.42,-373.63"/>
</a>
</g>
</g>
<!-- Node5 -->
<g id="Node000005" class="node">
<title>Node5</title>
<g id="a_Node000005"><a xlink:href="class_data_1_1_hash_function_1_1_e_l_f64_1_1_e_l_f64___implementation_1_1_block_transformer.html" target="_top" xlink:title=" ">
<polygon fill="white" stroke="#666666" points="423.12,-454 226.38,-454 226.38,-422 423.12,-422 423.12,-454"/>
<text text-anchor="start" x="234.38" y="-440.5" font-family="Helvetica,sans-Serif" font-size="10.00">Data.HashFunction.ELF64.</text>
<text text-anchor="middle" x="324.75" y="-428.5" font-family="Helvetica,sans-Serif" font-size="10.00">ELF64_Implementation.BlockTransformer</text>
</a>
</g>
</g>
<!-- Node0&#45;&gt;Node5 -->
<g id="edge16_Node000000_Node000005" class="edge">
<title>Node0&#45;&gt;Node5</title>
<g id="a_edge16_Node000000_Node000005"><a xlink:title=" ">
<path fill="none" stroke="#63b8ff" d="M133.76,-372.85C158.62,-385.87 191.64,-401.96 222.25,-413 230.87,-416.11 240.04,-418.96 249.21,-421.54"/>
<polygon fill="#63b8ff" stroke="#63b8ff" points="135.46,-369.79 124.98,-368.19 132.18,-375.97 135.46,-369.79"/>
</a>
</g>
</g>
<!-- Node6 -->
<g id="Node000006" class="node">
<title>Node6</title>
<g id="a_Node000006"><a xlink:href="class_data_1_1_hash_function_1_1_jenkins_1_1_jenkins_lookup2___implementation_1_1_block_transformer.html" target="_top" xlink:title=" ">
<polygon fill="white" stroke="#666666" points="405.5,-404 244,-404 244,-360 405.5,-360 405.5,-404"/>
<text text-anchor="start" x="252" y="-390.5" font-family="Helvetica,sans-Serif" font-size="10.00">Data.HashFunction.Jenkins.</text>
<text text-anchor="start" x="252" y="-378.5" font-family="Helvetica,sans-Serif" font-size="10.00">JenkinsLookup2_Implementation.</text>
<text text-anchor="middle" x="324.75" y="-366.5" font-family="Helvetica,sans-Serif" font-size="10.00">BlockTransformer</text>
</a>
</g>
</g>
<!-- Node0&#45;&gt;Node6 -->
<g id="edge17_Node000000_Node000006" class="edge">
<title>Node0&#45;&gt;Node6</title>
<g id="a_edge17_Node000000_Node000006"><a xlink:title=" ">
<path fill="none" stroke="#63b8ff" d="M197.71,-364.98C213.15,-367.07 228.87,-369.19 243.73,-371.2"/>
<polygon fill="#63b8ff" stroke="#63b8ff" points="198.41,-361.55 188.03,-363.68 197.47,-368.48 198.41,-361.55"/>
</a>
</g>
</g>
<!-- Node7 -->
<g id="Node000007" class="node">
<title>Node7</title>
<g id="a_Node000007"><a xlink:href="class_data_1_1_hash_function_1_1_jenkins_1_1_jenkins_one_at_a_time___implementation_1_1_block_transformer.html" target="_top" xlink:title=" ">
<polygon fill="white" stroke="#666666" points="414.88,-342 234.62,-342 234.62,-298 414.88,-298 414.88,-342"/>
<text text-anchor="start" x="242.62" y="-328.5" font-family="Helvetica,sans-Serif" font-size="10.00">Data.HashFunction.Jenkins.</text>
<text text-anchor="start" x="242.62" y="-316.5" font-family="Helvetica,sans-Serif" font-size="10.00">JenkinsOneAtATime_Implementation.</text>
<text text-anchor="middle" x="324.75" y="-304.5" font-family="Helvetica,sans-Serif" font-size="10.00">BlockTransformer</text>
</a>
</g>
</g>
<!-- Node0&#45;&gt;Node7 -->
<g id="edge18_Node000000_Node000007" class="edge">
<title>Node0&#45;&gt;Node7</title>
<g id="a_edge18_Node000000_Node000007"><a xlink:title=" ">
<path fill="none" stroke="#63b8ff" d="M197.65,-337.02C209.83,-335.38 222.18,-333.71 234.15,-332.1"/>
<polygon fill="#63b8ff" stroke="#63b8ff" points="197.47,-333.52 188.03,-338.32 198.41,-340.45 197.47,-333.52"/>
</a>
</g>
</g>
<!-- Node8 -->
<g id="Node000008" class="node">
<title>Node8</title>
<g id="a_Node000008"><a xlink:href="class_data_1_1_hash_function_1_1_metro_hash_1_1_metro_hash128___implementation_1_1_block_transformer.html" target="_top" xlink:title=" ">
<polygon fill="white" stroke="#666666" points="414.5,-280 235,-280 235,-236 414.5,-236 414.5,-280"/>
<text text-anchor="start" x="243" y="-266.5" font-family="Helvetica,sans-Serif" font-size="10.00">Data.HashFunction.MetroHash.</text>
<text text-anchor="start" x="243" y="-254.5" font-family="Helvetica,sans-Serif" font-size="10.00">MetroHash128_Implementation.Block</text>
<text text-anchor="middle" x="324.75" y="-242.5" font-family="Helvetica,sans-Serif" font-size="10.00">Transformer</text>
</a>
</g>
</g>
<!-- Node0&#45;&gt;Node8 -->
<g id="edge19_Node000000_Node000008" class="edge">
<title>Node0&#45;&gt;Node8</title>
<g id="a_edge19_Node000000_Node000008"><a xlink:title=" ">
<path fill="none" stroke="#63b8ff" d="M134.74,-329.36C159.58,-316.62 192.25,-300.76 222.25,-289 229.8,-286.04 237.75,-283.18 245.74,-280.48"/>
<polygon fill="#63b8ff" stroke="#63b8ff" points="133.21,-326.2 125.94,-333.91 136.43,-332.42 133.21,-326.2"/>
</a>
</g>
</g>
<!-- Node9 -->
<g id="Node000009" class="node">
<title>Node9</title>
<g id="a_Node000009"><a xlink:href="class_data_1_1_hash_function_1_1_metro_hash_1_1_metro_hash64___implementation_1_1_block_transformer.html" target="_top" xlink:title=" ">
<polygon fill="white" stroke="#666666" points="411.88,-218 237.62,-218 237.62,-174 411.88,-174 411.88,-218"/>
<text text-anchor="start" x="245.62" y="-204.5" font-family="Helvetica,sans-Serif" font-size="10.00">Data.HashFunction.MetroHash.</text>
<text text-anchor="start" x="245.62" y="-192.5" font-family="Helvetica,sans-Serif" font-size="10.00">MetroHash64_Implementation.Block</text>
<text text-anchor="middle" x="324.75" y="-180.5" font-family="Helvetica,sans-Serif" font-size="10.00">Transformer</text>
</a>
</g>
</g>
<!-- Node0&#45;&gt;Node9 -->
<g id="edge20_Node000000_Node000009" class="edge">
<title>Node0&#45;&gt;Node9</title>
<g id="a_edge20_Node000000_Node000009"><a xlink:title=" ">
<path fill="none" stroke="#63b8ff" d="M113.62,-326.03C136.71,-298.08 177.69,-253.27 222.25,-227 227.57,-223.87 233.23,-221.02 239.06,-218.44"/>
<polygon fill="#63b8ff" stroke="#63b8ff" points="111.03,-323.67 107.45,-333.64 116.47,-328.08 111.03,-323.67"/>
</a>
</g>
</g>
<!-- Node10 -->
<g id="Node000010" class="node">
<title>Node10</title>
<g id="a_Node000010"><a xlink:href="class_data_1_1_hash_function_1_1_pearson_1_1_pearson___implementation_1_1_block_transformer.html" target="_top" xlink:title=" ">
<polygon fill="white" stroke="#666666" points="426.88,-156 222.62,-156 222.62,-124 426.88,-124 426.88,-156"/>
<text text-anchor="start" x="230.62" y="-142.5" font-family="Helvetica,sans-Serif" font-size="10.00">Data.HashFunction.Pearson.</text>
<text text-anchor="middle" x="324.75" y="-130.5" font-family="Helvetica,sans-Serif" font-size="10.00">Pearson_Implementation.BlockTransformer</text>
</a>
</g>
</g>
<!-- Node0&#45;&gt;Node10 -->
<g id="edge21_Node000000_Node000010" class="edge">
<title>Node0&#45;&gt;Node10</title>
<g id="a_edge21_Node000000_Node000010"><a xlink:title=" ">
<path fill="none" stroke="#63b8ff" d="M105.09,-324.08C123.19,-283.15 163.27,-205.74 222.25,-165 226.95,-161.75 232.04,-158.92 237.33,-156.46"/>
<polygon fill="#63b8ff" stroke="#63b8ff" points="101.9,-322.63 101.17,-333.2 108.33,-325.4 101.9,-322.63"/>
</a>
</g>
</g>
<!-- Node11 -->
<g id="Node000011" class="node">
<title>Node11</title>
<g id="a_Node000011"><a xlink:href="class_data_1_1_hash_function_1_1_spooky_hash_1_1_spooky_hash_v1___implementation_1_1_block_transformer.html" target="_top" xlink:title=" ">
<polygon fill="white" stroke="#666666" points="417.5,-106 232,-106 232,-62 417.5,-62 417.5,-106"/>
<text text-anchor="start" x="240" y="-92.5" font-family="Helvetica,sans-Serif" font-size="10.00">Data.HashFunction.Spooky</text>
<text text-anchor="start" x="240" y="-80.5" font-family="Helvetica,sans-Serif" font-size="10.00">Hash.SpookyHashV1_Implementation.</text>
<text text-anchor="middle" x="324.75" y="-68.5" font-family="Helvetica,sans-Serif" font-size="10.00">BlockTransformer</text>
</a>
</g>
</g>
<!-- Node0&#45;&gt;Node11 -->
<g id="edge22_Node000000_Node000011" class="edge">
<title>Node0&#45;&gt;Node11</title>
<g id="a_edge22_Node000000_Node000011"><a xlink:title=" ">
<path fill="none" stroke="#63b8ff" d="M101.43,-323.8C116,-274.73 153.37,-171.26 222.25,-115 226.1,-111.85 230.27,-109.02 234.65,-106.48"/>
<polygon fill="#63b8ff" stroke="#63b8ff" points="98.09,-322.74 98.7,-333.32 104.82,-324.67 98.09,-322.74"/>
</a>
</g>
</g>
<!-- Node12 -->
<g id="Node000012" class="node">
<title>Node12</title>
<g id="a_Node000012"><a xlink:href="class_data_1_1_hash_function_1_1_spooky_hash_1_1_spooky_hash_v2___implementation_1_1_block_transformer.html" target="_top" xlink:title=" ">
<polygon fill="white" stroke="#666666" points="417.5,-44 232,-44 232,0 417.5,0 417.5,-44"/>
<text text-anchor="start" x="240" y="-30.5" font-family="Helvetica,sans-Serif" font-size="10.00">Data.HashFunction.Spooky</text>
<text text-anchor="start" x="240" y="-18.5" font-family="Helvetica,sans-Serif" font-size="10.00">Hash.SpookyHashV2_Implementation.</text>
<text text-anchor="middle" x="324.75" y="-6.5" font-family="Helvetica,sans-Serif" font-size="10.00">BlockTransformer</text>
</a>
</g>
</g>
<!-- Node0&#45;&gt;Node12 -->
<g id="edge23_Node000000_Node000012" class="edge">
<title>Node0&#45;&gt;Node12</title>
<g id="a_edge23_Node000000_Node000012"><a xlink:title=" ">
<path fill="none" stroke="#63b8ff" d="M98.1,-323.43C108,-264.87 139.24,-127.38 222.25,-53 225.82,-49.8 229.71,-46.94 233.82,-44.36"/>
<polygon fill="#63b8ff" stroke="#63b8ff" points="94.66,-322.75 96.54,-333.18 101.57,-323.86 94.66,-322.75"/>
</a>
</g>
</g>
</g>
</svg>
