<?xml version="1.0" encoding="UTF-8" standalone="no"?>
<!DOCTYPE svg PUBLIC "-//W3C//DTD SVG 1.1//EN"
 "http://www.w3.org/Graphics/SVG/1.1/DTD/svg11.dtd">
<!-- Generated by graphviz version 12.2.0 (20241103.1931)
 -->
<!-- Title: Graphical Class Hierarchy Pages: 1 -->
<svg width="463pt" height="298pt"
 viewBox="0.00 0.00 463.00 298.00" xmlns="http://www.w3.org/2000/svg" xmlns:xlink="http://www.w3.org/1999/xlink">
<g id="graph0" class="graph" transform="scale(1 1) rotate(0) translate(4 294)">
<title>Graphical Class Hierarchy</title>
<!-- Node0 -->
<g id="Node000000" class="node">
<title>Node0</title>
<g id="a_Node000000"><a xlink:href="class_data_1_1_hash_function_1_1_test_1_1_i_streamable_hash_function___test_base.html" target="_top" xlink:title=" ">
<polygon fill="white" stroke="#666666" points="212.5,-167 0,-167 0,-135 212.5,-135 212.5,-167"/>
<text text-anchor="start" x="8" y="-153.5" font-family="Helvetica,sans-Serif" font-size="10.00">Data.HashFunction.Test.IStreamable</text>
<text text-anchor="middle" x="106.25" y="-141.5" font-family="Helvetica,sans-Serif" font-size="10.00">HashFunction_TestBase&lt; ISpookyHashV1 &gt;</text>
</a>
</g>
</g>
<!-- Node1 -->
<g id="Node000001" class="node">
<title>Node1</title>
<g id="a_Node000001"><a xlink:href="class_data_1_1_hash_function_1_1_test_1_1_spooky_hash_1_1_spooky_hash_v1___implementation___testfb1f1b3cb8e70a9f63c898adc8672cbe.html" target="_top" xlink:title=" ">
<polygon fill="white" stroke="#666666" points="443,-290 260.5,-290 260.5,-234 443,-234 443,-290"/>
<text text-anchor="start" x="268.5" y="-276.5" font-family="Helvetica,sans-Serif" font-size="10.00">Data.HashFunction.Test.Spooky</text>
<text text-anchor="start" x="268.5" y="-264.5" font-family="Helvetica,sans-Serif" font-size="10.00">Hash.SpookyHashV1_Implementation</text>
<text text-anchor="start" x="268.5" y="-252.5" font-family="Helvetica,sans-Serif" font-size="10.00">_Tests.IStreamableHashFunction</text>
<text text-anchor="middle" x="351.75" y="-240.5" font-family="Helvetica,sans-Serif" font-size="10.00">_Tests_SpookyHashV1</text>
</a>
</g>
</g>
<!-- Node0&#45;&gt;Node1 -->
<g id="edge277_Node000000_Node000001" class="edge">
<title>Node0&#45;&gt;Node1</title>
<g id="a_edge277_Node000000_Node000001"><a xlink:title=" ">
<path fill="none" stroke="#63b8ff" d="M145.69,-172.95C173.71,-188.5 212.85,-209.3 248.5,-225 255.15,-227.93 262.11,-230.82 269.15,-233.6"/>
<polygon fill="#63b8ff" stroke="#63b8ff" points="147.66,-170.04 137.22,-168.22 144.25,-176.15 147.66,-170.04"/>
</a>
</g>
</g>
<!-- Node2 -->
<g id="Node000002" class="node">
<title>Node2</title>
<g id="a_Node000002"><a xlink:href="class_data_1_1_hash_function_1_1_test_1_1_spooky_hash_1_1_spooky_hash_v1___implementation___test746d187e4b0107141938a225104e48a1.html" target="_top" xlink:title=" ">
<polygon fill="white" stroke="#666666" points="455,-216 248.5,-216 248.5,-160 455,-160 455,-216"/>
<text text-anchor="start" x="256.5" y="-202.5" font-family="Helvetica,sans-Serif" font-size="10.00">Data.HashFunction.Test.Spooky</text>
<text text-anchor="start" x="256.5" y="-190.5" font-family="Helvetica,sans-Serif" font-size="10.00">Hash.SpookyHashV1_Implementation</text>
<text text-anchor="start" x="256.5" y="-178.5" font-family="Helvetica,sans-Serif" font-size="10.00">_Tests.IStreamableHashFunction</text>
<text text-anchor="middle" x="351.75" y="-166.5" font-family="Helvetica,sans-Serif" font-size="10.00">_Tests_SpookyHashV1_DefaultConstructor</text>
</a>
</g>
</g>
<!-- Node0&#45;&gt;Node2 -->
<g id="edge278_Node000000_Node000002" class="edge">
<title>Node0&#45;&gt;Node2</title>
<g id="a_edge278_Node000000_Node000002"><a xlink:title=" ">
<path fill="none" stroke="#63b8ff" d="M224.26,-168.78C232.26,-169.99 240.28,-171.21 248.19,-172.42"/>
<polygon fill="#63b8ff" stroke="#63b8ff" points="224.9,-165.34 214.49,-167.29 223.85,-172.26 224.9,-165.34"/>
</a>
</g>
</g>
<!-- Node3 -->
<g id="Node000003" class="node">
<title>Node3</title>
<g id="a_Node000003"><a xlink:href="class_data_1_1_hash_function_1_1_test_1_1_spooky_hash_1_1_spooky_hash_v1___implementation___test74c9f77c561cd2b15b900fbbbd6848c1.html" target="_top" xlink:title=" ">
<polygon fill="white" stroke="#666666" points="443,-142 260.5,-142 260.5,-86 443,-86 443,-142"/>
<text text-anchor="start" x="268.5" y="-128.5" font-family="Helvetica,sans-Serif" font-size="10.00">Data.HashFunction.Test.Spooky</text>
<text text-anchor="start" x="268.5" y="-116.5" font-family="Helvetica,sans-Serif" font-size="10.00">Hash.SpookyHashV1_Implementation</text>
<text text-anchor="start" x="268.5" y="-104.5" font-family="Helvetica,sans-Serif" font-size="10.00">_Tests.IStreamableHashFunction</text>
<text text-anchor="middle" x="351.75" y="-92.5" font-family="Helvetica,sans-Serif" font-size="10.00">_Tests_SpookyHashV1_WithInitVals</text>
</a>
</g>
</g>
<!-- Node0&#45;&gt;Node3 -->
<g id="edge279_Node000000_Node000003" class="edge">
<title>Node0&#45;&gt;Node3</title>
<g id="a_edge279_Node000000_Node000003"><a xlink:title=" ">
<path fill="none" stroke="#63b8ff" d="M224.14,-133.24C236.31,-131.39 248.55,-129.53 260.36,-127.73"/>
<polygon fill="#63b8ff" stroke="#63b8ff" points="223.85,-129.74 214.49,-134.71 224.9,-136.66 223.85,-129.74"/>
</a>
</g>
</g>
<!-- Node4 -->
<g id="Node000004" class="node">
<title>Node4</title>
<g id="a_Node000004"><a xlink:href="class_data_1_1_hash_function_1_1_test_1_1_spooky_hash_1_1_spooky_hash_v1___implementation___teste167bb36f07bf5968e0551ff1a620996.html" target="_top" xlink:title=" ">
<polygon fill="white" stroke="#666666" points="443,-68 260.5,-68 260.5,0 443,0 443,-68"/>
<text text-anchor="start" x="268.5" y="-54.5" font-family="Helvetica,sans-Serif" font-size="10.00">Data.HashFunction.Test.Spooky</text>
<text text-anchor="start" x="268.5" y="-42.5" font-family="Helvetica,sans-Serif" font-size="10.00">Hash.SpookyHashV1_Implementation</text>
<text text-anchor="start" x="268.5" y="-30.5" font-family="Helvetica,sans-Serif" font-size="10.00">_Tests.IStreamableHashFunction</text>
<text text-anchor="start" x="268.5" y="-18.5" font-family="Helvetica,sans-Serif" font-size="10.00">_Tests_SpookyHashV1_WithInitVals</text>
<text text-anchor="middle" x="351.75" y="-6.5" font-family="Helvetica,sans-Serif" font-size="10.00">_DefaultHashSize</text>
</a>
</g>
</g>
<!-- Node0&#45;&gt;Node4 -->
<g id="edge280_Node000000_Node000004" class="edge">
<title>Node0&#45;&gt;Node4</title>
<g id="a_edge280_Node000000_Node000004"><a xlink:title=" ">
<path fill="none" stroke="#63b8ff" d="M146.75,-129.16C174.83,-113.92 213.59,-93.45 248.5,-77 254.6,-74.13 260.94,-71.24 267.34,-68.39"/>
<polygon fill="#63b8ff" stroke="#63b8ff" points="145.35,-125.94 138.24,-133.8 148.7,-132.08 145.35,-125.94"/>
</a>
</g>
</g>
</g>
</svg>
