<?xml version="1.0" encoding="UTF-8" standalone="no"?>
<!DOCTYPE svg PUBLIC "-//W3C//DTD SVG 1.1//EN"
 "http://www.w3.org/Graphics/SVG/1.1/DTD/svg11.dtd">
<!-- Generated by graphviz version 12.2.0 (20241103.1931)
 -->
<!-- Title: Graphical Class Hierarchy Pages: 1 -->
<svg width="465pt" height="250pt"
 viewBox="0.00 0.00 464.50 250.00" xmlns="http://www.w3.org/2000/svg" xmlns:xlink="http://www.w3.org/1999/xlink">
<g id="graph0" class="graph" transform="scale(1 1) rotate(0) translate(4 246)">
<title>Graphical Class Hierarchy</title>
<!-- Node0 -->
<g id="Node000000" class="node">
<title>Node0</title>
<g id="a_Node000000"><a xlink:href="class_data_1_1_hash_function_1_1_test_1_1_i_hash_function___test_base.html" target="_top" xlink:title=" ">
<polygon fill="white" stroke="#666666" points="191.5,-143 0,-143 0,-111 191.5,-111 191.5,-143"/>
<text text-anchor="start" x="8" y="-129.5" font-family="Helvetica,sans-Serif" font-size="10.00">Data.HashFunction.Test.IHash</text>
<text text-anchor="middle" x="95.75" y="-117.5" font-family="Helvetica,sans-Serif" font-size="10.00">Function_TestBase&lt; IJenkinsLookup3 &gt;</text>
</a>
</g>
</g>
<!-- Node1 -->
<g id="Node000001" class="node">
<title>Node1</title>
<g id="a_Node000001"><a xlink:href="class_data_1_1_hash_function_1_1_test_1_1_jenkins_1_1_jenkins_lookup3___implementation___tests_1_1_i_hash_function___tests.html" target="_top" xlink:title=" ">
<polygon fill="white" stroke="#666666" points="423.12,-242 260.88,-242 260.88,-198 423.12,-198 423.12,-242"/>
<text text-anchor="start" x="268.88" y="-228.5" font-family="Helvetica,sans-Serif" font-size="10.00">Data.HashFunction.Test.Jenkins.</text>
<text text-anchor="start" x="268.88" y="-216.5" font-family="Helvetica,sans-Serif" font-size="10.00">JenkinsLookup3_Implementation</text>
<text text-anchor="middle" x="342" y="-204.5" font-family="Helvetica,sans-Serif" font-size="10.00">_Tests.IHashFunction_Tests</text>
</a>
</g>
</g>
<!-- Node0&#45;&gt;Node1 -->
<g id="edge172_Node000000_Node000001" class="edge">
<title>Node0&#45;&gt;Node1</title>
<g id="a_edge172_Node000000_Node000001"><a xlink:title=" ">
<path fill="none" stroke="#63b8ff" d="M137.52,-148.62C162.92,-161.51 196.54,-177.54 227.5,-189 238.04,-192.9 249.28,-196.56 260.45,-199.89"/>
<polygon fill="#63b8ff" stroke="#63b8ff" points="139.36,-145.63 128.87,-144.18 136.17,-151.86 139.36,-145.63"/>
</a>
</g>
</g>
<!-- Node2 -->
<g id="Node000002" class="node">
<title>Node2</title>
<g id="a_Node000002"><a xlink:href="class_data_1_1_hash_function_1_1_test_1_1_jenkins_1_1_jenkins_lookup3___implementation___tests_146a2898bf2f9e4c359395dacc8e94412.html" target="_top" xlink:title=" ">
<polygon fill="white" stroke="#666666" points="456.5,-180 227.5,-180 227.5,-136 456.5,-136 456.5,-180"/>
<text text-anchor="start" x="235.5" y="-166.5" font-family="Helvetica,sans-Serif" font-size="10.00">Data.HashFunction.Test.Jenkins.</text>
<text text-anchor="start" x="235.5" y="-154.5" font-family="Helvetica,sans-Serif" font-size="10.00">JenkinsLookup3_Implementation</text>
<text text-anchor="middle" x="342" y="-142.5" font-family="Helvetica,sans-Serif" font-size="10.00">_Tests.IHashFunction_Tests_DefaultConstructor</text>
</a>
</g>
</g>
<!-- Node0&#45;&gt;Node2 -->
<g id="edge173_Node000000_Node000002" class="edge">
<title>Node0&#45;&gt;Node2</title>
<g id="a_edge173_Node000000_Node000002"><a xlink:title=" ">
<path fill="none" stroke="#63b8ff" d="M203.04,-140.49C210.99,-141.5 219.02,-142.52 227.01,-143.53"/>
<polygon fill="#63b8ff" stroke="#63b8ff" points="203.75,-137.05 193.38,-139.26 202.86,-144 203.75,-137.05"/>
</a>
</g>
</g>
<!-- Node3 -->
<g id="Node000003" class="node">
<title>Node3</title>
<g id="a_Node000003"><a xlink:href="class_data_1_1_hash_function_1_1_test_1_1_jenkins_1_1_jenkins_lookup3___implementation___tests_14ca0f41fea792f137a056917324bd557.html" target="_top" xlink:title=" ">
<polygon fill="white" stroke="#666666" points="441.5,-118 242.5,-118 242.5,-74 441.5,-74 441.5,-118"/>
<text text-anchor="start" x="250.5" y="-104.5" font-family="Helvetica,sans-Serif" font-size="10.00">Data.HashFunction.Test.Jenkins.</text>
<text text-anchor="start" x="250.5" y="-92.5" font-family="Helvetica,sans-Serif" font-size="10.00">JenkinsLookup3_Implementation</text>
<text text-anchor="middle" x="342" y="-80.5" font-family="Helvetica,sans-Serif" font-size="10.00">_Tests.IHashFunction_Tests_WithInitVals</text>
</a>
</g>
</g>
<!-- Node0&#45;&gt;Node3 -->
<g id="edge174_Node000000_Node000003" class="edge">
<title>Node0&#45;&gt;Node3</title>
<g id="a_edge174_Node000000_Node000003"><a xlink:title=" ">
<path fill="none" stroke="#63b8ff" d="M203.17,-113.49C216.11,-111.85 229.28,-110.18 242.1,-108.55"/>
<polygon fill="#63b8ff" stroke="#63b8ff" points="202.86,-110 193.38,-114.74 203.75,-116.95 202.86,-110"/>
</a>
</g>
</g>
<!-- Node4 -->
<g id="Node000004" class="node">
<title>Node4</title>
<g id="a_Node000004"><a xlink:href="class_data_1_1_hash_function_1_1_test_1_1_jenkins_1_1_jenkins_lookup3___implementation___tests_12208c0ee3dbe0e9d4290e05f8b392dce.html" target="_top" xlink:title=" ">
<polygon fill="white" stroke="#666666" points="441.5,-56 242.5,-56 242.5,0 441.5,0 441.5,-56"/>
<text text-anchor="start" x="250.5" y="-42.5" font-family="Helvetica,sans-Serif" font-size="10.00">Data.HashFunction.Test.Jenkins.</text>
<text text-anchor="start" x="250.5" y="-30.5" font-family="Helvetica,sans-Serif" font-size="10.00">JenkinsLookup3_Implementation</text>
<text text-anchor="start" x="250.5" y="-18.5" font-family="Helvetica,sans-Serif" font-size="10.00">_Tests.IHashFunction_Tests_WithInitVals</text>
<text text-anchor="middle" x="342" y="-6.5" font-family="Helvetica,sans-Serif" font-size="10.00">_DefaultHashSize</text>
</a>
</g>
</g>
<!-- Node0&#45;&gt;Node4 -->
<g id="edge175_Node000000_Node000004" class="edge">
<title>Node0&#45;&gt;Node4</title>
<g id="a_edge175_Node000000_Node000004"><a xlink:title=" ">
<path fill="none" stroke="#63b8ff" d="M138.5,-105.53C163.88,-92.9 197.14,-77.09 227.5,-65 234.82,-62.09 242.46,-59.22 250.18,-56.46"/>
<polygon fill="#63b8ff" stroke="#63b8ff" points="137.21,-102.26 129.84,-109.87 140.34,-108.52 137.21,-102.26"/>
</a>
</g>
</g>
</g>
</svg>
