<?xml version="1.0" encoding="UTF-8" standalone="no"?>
<!DOCTYPE svg PUBLIC "-//W3C//DTD SVG 1.1//EN"
 "http://www.w3.org/Graphics/SVG/1.1/DTD/svg11.dtd">
<!-- Generated by graphviz version 12.2.0 (20241103.1931)
 -->
<!-- Title: Graphical Class Hierarchy Pages: 1 -->
<svg width="460pt" height="40pt"
 viewBox="0.00 0.00 460.25 40.00" xmlns="http://www.w3.org/2000/svg" xmlns:xlink="http://www.w3.org/1999/xlink">
<g id="graph0" class="graph" transform="scale(1 1) rotate(0) translate(4 36)">
<title>Graphical Class Hierarchy</title>
<!-- Node0 -->
<g id="Node000000" class="node">
<title>Node0</title>
<g id="a_Node000000"><a xlink:title=" ">
<polygon fill="#e0e0e0" stroke="#999999" points="62.5,-26 0,-26 0,-6 62.5,-6 62.5,-26"/>
<text text-anchor="middle" x="31.25" y="-12.5" font-family="Helvetica,sans-Serif" font-size="10.00">IEquatable</text>
</a>
</g>
</g>
<!-- Node1 -->
<g id="Node000001" class="node">
<title>Node1</title>
<g id="a_Node000001"><a xlink:href="interface_data_1_1_hash_function_1_1_i_hash_value.html" target="_top" xlink:title="Common interface to represent a hash value.">
<polygon fill="white" stroke="#666666" points="252.5,-26 98.5,-26 98.5,-6 252.5,-6 252.5,-26"/>
<text text-anchor="middle" x="175.5" y="-12.5" font-family="Helvetica,sans-Serif" font-size="10.00">Data.HashFunction.IHashValue</text>
</a>
</g>
</g>
<!-- Node0&#45;&gt;Node1 -->
<g id="edge294_Node000000_Node000001" class="edge">
<title>Node0&#45;&gt;Node1</title>
<g id="a_edge294_Node000000_Node000001"><a xlink:title=" ">
<path fill="none" stroke="#63b8ff" d="M74.2,-16C81.79,-16 89.92,-16 98.15,-16"/>
<polygon fill="#63b8ff" stroke="#63b8ff" points="74.28,-12.5 64.28,-16 74.28,-19.5 74.28,-12.5"/>
</a>
</g>
</g>
<!-- Node2 -->
<g id="Node000002" class="node">
<title>Node2</title>
<g id="a_Node000002"><a xlink:href="class_data_1_1_hash_function_1_1_core_1_1_utilities_1_1_hash_value.html" target="_top" xlink:title="Implementation of IHashValue">
<polygon fill="white" stroke="#666666" points="452.25,-32 288.5,-32 288.5,0 452.25,0 452.25,-32"/>
<text text-anchor="start" x="296.5" y="-18.5" font-family="Helvetica,sans-Serif" font-size="10.00">Data.HashFunction.Core.Utilities.</text>
<text text-anchor="middle" x="370.38" y="-6.5" font-family="Helvetica,sans-Serif" font-size="10.00">HashValue</text>
</a>
</g>
</g>
<!-- Node1&#45;&gt;Node2 -->
<g id="edge295_Node000001_Node000002" class="edge">
<title>Node1&#45;&gt;Node2</title>
<g id="a_edge295_Node000001_Node000002"><a xlink:title=" ">
<path fill="none" stroke="#63b8ff" d="M264.06,-16C272.14,-16 280.3,-16 288.31,-16"/>
<polygon fill="#63b8ff" stroke="#63b8ff" points="264.24,-12.5 254.24,-16 264.24,-19.5 264.24,-12.5"/>
</a>
</g>
</g>
</g>
</svg>
