<?xml version="1.0" encoding="UTF-8" standalone="no"?>
<!DOCTYPE svg PUBLIC "-//W3C//DTD SVG 1.1//EN"
 "http://www.w3.org/Graphics/SVG/1.1/DTD/svg11.dtd">
<!-- Generated by graphviz version 12.2.0 (20241103.1931)
 -->
<!-- Title: Graphical Class Hierarchy Pages: 1 -->
<svg width="476pt" height="374pt"
 viewBox="0.00 0.00 475.75 374.00" xmlns="http://www.w3.org/2000/svg" xmlns:xlink="http://www.w3.org/1999/xlink">
<g id="graph0" class="graph" transform="scale(1 1) rotate(0) translate(4 370)">
<title>Graphical Class Hierarchy</title>
<!-- Node0 -->
<g id="Node000000" class="node">
<title>Node0</title>
<g id="a_Node000000"><a xlink:href="class_data_1_1_hash_function_1_1_test_1_1_i_streamable_hash_function___test_base.html" target="_top" xlink:title=" ">
<polygon fill="white" stroke="#666666" points="181,-205 0,-205 0,-173 181,-173 181,-205"/>
<text text-anchor="start" x="8" y="-191.5" font-family="Helvetica,sans-Serif" font-size="10.00">Data.HashFunction.Test.IStreamable</text>
<text text-anchor="middle" x="90.5" y="-179.5" font-family="Helvetica,sans-Serif" font-size="10.00">HashFunction_TestBase&lt; IBlake2B &gt;</text>
</a>
</g>
</g>
<!-- Node1 -->
<g id="Node000001" class="node">
<title>Node1</title>
<g id="a_Node000001"><a xlink:href="class_data_1_1_hash_function_1_1_test_1_1_blake2_1_1_blake2_b___implementation___tests_1_1_i_streamable_hash_function___tests.html" target="_top" xlink:title=" ">
<polygon fill="white" stroke="#666666" points="447.12,-366 237.62,-366 237.62,-322 447.12,-322 447.12,-366"/>
<text text-anchor="start" x="245.62" y="-352.5" font-family="Helvetica,sans-Serif" font-size="10.00">Data.HashFunction.Test.Blake2.</text>
<text text-anchor="start" x="245.62" y="-340.5" font-family="Helvetica,sans-Serif" font-size="10.00">Blake2B_Implementation_Tests.IStreamable</text>
<text text-anchor="middle" x="342.38" y="-328.5" font-family="Helvetica,sans-Serif" font-size="10.00">HashFunction_Tests</text>
</a>
</g>
</g>
<!-- Node0&#45;&gt;Node1 -->
<g id="edge181_Node000000_Node000001" class="edge">
<title>Node0&#45;&gt;Node1</title>
<g id="a_edge181_Node000000_Node000001"><a xlink:title=" ">
<path fill="none" stroke="#63b8ff" d="M110.24,-214.4C132.53,-242.75 172.37,-287.93 217,-313 223.4,-316.6 230.22,-319.78 237.24,-322.6"/>
<polygon fill="#63b8ff" stroke="#63b8ff" points="113.18,-212.47 104.3,-206.68 107.63,-216.74 113.18,-212.47"/>
</a>
</g>
</g>
<!-- Node2 -->
<g id="Node000002" class="node">
<title>Node2</title>
<g id="a_Node000002"><a xlink:href="class_data_1_1_hash_function_1_1_test_1_1_blake2_1_1_blake2_b___implementation___tests_1_1_i_stre1747189d9f5f031b2f8f80afc16d9c1.html" target="_top" xlink:title=" ">
<polygon fill="white" stroke="#666666" points="447.12,-304 237.62,-304 237.62,-260 447.12,-260 447.12,-304"/>
<text text-anchor="start" x="245.62" y="-290.5" font-family="Helvetica,sans-Serif" font-size="10.00">Data.HashFunction.Test.Blake2.</text>
<text text-anchor="start" x="245.62" y="-278.5" font-family="Helvetica,sans-Serif" font-size="10.00">Blake2B_Implementation_Tests.IStreamable</text>
<text text-anchor="middle" x="342.38" y="-266.5" font-family="Helvetica,sans-Serif" font-size="10.00">HashFunction_Tests_CanonicalKeyed</text>
</a>
</g>
</g>
<!-- Node0&#45;&gt;Node2 -->
<g id="edge182_Node000000_Node000002" class="edge">
<title>Node0&#45;&gt;Node2</title>
<g id="a_edge182_Node000000_Node000002"><a xlink:title=" ">
<path fill="none" stroke="#63b8ff" d="M130.04,-210.73C154.4,-223.78 186.85,-239.94 217,-251 225.36,-254.07 234.14,-256.93 243.01,-259.58"/>
<polygon fill="#63b8ff" stroke="#63b8ff" points="131.92,-207.77 121.46,-206.08 128.58,-213.92 131.92,-207.77"/>
</a>
</g>
</g>
<!-- Node3 -->
<g id="Node000003" class="node">
<title>Node3</title>
<g id="a_Node000003"><a xlink:href="class_data_1_1_hash_function_1_1_test_1_1_blake2_1_1_blake2_b___implementation___tests_1_1_i_strf409886b54a1b261535099576a771799.html" target="_top" xlink:title=" ">
<polygon fill="white" stroke="#666666" points="447.12,-242 237.62,-242 237.62,-198 447.12,-198 447.12,-242"/>
<text text-anchor="start" x="245.62" y="-228.5" font-family="Helvetica,sans-Serif" font-size="10.00">Data.HashFunction.Test.Blake2.</text>
<text text-anchor="start" x="245.62" y="-216.5" font-family="Helvetica,sans-Serif" font-size="10.00">Blake2B_Implementation_Tests.IStreamable</text>
<text text-anchor="middle" x="342.38" y="-204.5" font-family="Helvetica,sans-Serif" font-size="10.00">HashFunction_Tests_CanonicalUnKeyed</text>
</a>
</g>
</g>
<!-- Node0&#45;&gt;Node3 -->
<g id="edge183_Node000000_Node000003" class="edge">
<title>Node0&#45;&gt;Node3</title>
<g id="a_edge183_Node000000_Node000003"><a xlink:title=" ">
<path fill="none" stroke="#63b8ff" d="M192.56,-201.54C207.35,-203.37 222.6,-205.26 237.44,-207.11"/>
<polygon fill="#63b8ff" stroke="#63b8ff" points="193.21,-198.09 182.86,-200.33 192.35,-205.04 193.21,-198.09"/>
</a>
</g>
</g>
<!-- Node4 -->
<g id="Node000004" class="node">
<title>Node4</title>
<g id="a_Node000004"><a xlink:href="class_data_1_1_hash_function_1_1_test_1_1_blake2_1_1_blake2_b___implementation___tests_1_1_i_strd7b004ea444fb9ff130ffc7fc832db00.html" target="_top" xlink:title=" ">
<polygon fill="white" stroke="#666666" points="447.12,-180 237.62,-180 237.62,-136 447.12,-136 447.12,-180"/>
<text text-anchor="start" x="245.62" y="-166.5" font-family="Helvetica,sans-Serif" font-size="10.00">Data.HashFunction.Test.Blake2.</text>
<text text-anchor="start" x="245.62" y="-154.5" font-family="Helvetica,sans-Serif" font-size="10.00">Blake2B_Implementation_Tests.IStreamable</text>
<text text-anchor="middle" x="342.38" y="-142.5" font-family="Helvetica,sans-Serif" font-size="10.00">HashFunction_Tests_DefaultConstructor</text>
</a>
</g>
</g>
<!-- Node0&#45;&gt;Node4 -->
<g id="edge184_Node000000_Node000004" class="edge">
<title>Node0&#45;&gt;Node4</title>
<g id="a_edge184_Node000000_Node000004"><a xlink:title=" ">
<path fill="none" stroke="#63b8ff" d="M192.56,-176.46C207.35,-174.63 222.6,-172.74 237.44,-170.89"/>
<polygon fill="#63b8ff" stroke="#63b8ff" points="192.35,-172.96 182.86,-177.67 193.21,-179.91 192.35,-172.96"/>
</a>
</g>
</g>
<!-- Node5 -->
<g id="Node000005" class="node">
<title>Node5</title>
<g id="a_Node000005"><a xlink:href="class_data_1_1_hash_function_1_1_test_1_1_blake2_1_1_blake2_b___implementation___tests_1_1_i_str73691a32651f6953340efbd51d650519.html" target="_top" xlink:title=" ">
<polygon fill="white" stroke="#666666" points="467.75,-118 217,-118 217,-74 467.75,-74 467.75,-118"/>
<text text-anchor="start" x="225" y="-104.5" font-family="Helvetica,sans-Serif" font-size="10.00">Data.HashFunction.Test.Blake2.</text>
<text text-anchor="start" x="225" y="-92.5" font-family="Helvetica,sans-Serif" font-size="10.00">Blake2B_Implementation_Tests.IStreamable</text>
<text text-anchor="middle" x="342.38" y="-80.5" font-family="Helvetica,sans-Serif" font-size="10.00">HashFunction_Tests_WithHashSizeAndFoobarAsKey</text>
</a>
</g>
</g>
<!-- Node0&#45;&gt;Node5 -->
<g id="edge185_Node000000_Node000005" class="edge">
<title>Node0&#45;&gt;Node5</title>
<g id="a_edge185_Node000000_Node000005"><a xlink:title=" ">
<path fill="none" stroke="#63b8ff" d="M130.04,-167.27C154.4,-154.22 186.85,-138.06 217,-127 225.36,-123.93 234.14,-121.07 243.01,-118.42"/>
<polygon fill="#63b8ff" stroke="#63b8ff" points="128.58,-164.08 121.46,-171.92 131.92,-170.23 128.58,-164.08"/>
</a>
</g>
</g>
<!-- Node6 -->
<g id="Node000006" class="node">
<title>Node6</title>
<g id="a_Node000006"><a xlink:href="class_data_1_1_hash_function_1_1_test_1_1_blake2_1_1_blake2_b___implementation___tests_1_1_i_str51809edf087a54b66d6e0de763a0310e.html" target="_top" xlink:title=" ">
<polygon fill="white" stroke="#666666" points="467.75,-56 217,-56 217,0 467.75,0 467.75,-56"/>
<text text-anchor="start" x="225" y="-42.5" font-family="Helvetica,sans-Serif" font-size="10.00">Data.HashFunction.Test.Blake2.</text>
<text text-anchor="start" x="225" y="-30.5" font-family="Helvetica,sans-Serif" font-size="10.00">Blake2B_Implementation_Tests.IStreamable</text>
<text text-anchor="start" x="225" y="-18.5" font-family="Helvetica,sans-Serif" font-size="10.00">HashFunction_Tests_WithHashSizeAndFoobarAsKey</text>
<text text-anchor="middle" x="342.38" y="-6.5" font-family="Helvetica,sans-Serif" font-size="10.00">SaltAndPersonalization</text>
</a>
</g>
</g>
<!-- Node0&#45;&gt;Node6 -->
<g id="edge186_Node000000_Node000006" class="edge">
<title>Node0&#45;&gt;Node6</title>
<g id="a_edge186_Node000000_Node000006"><a xlink:title=" ">
<path fill="none" stroke="#63b8ff" d="M110.45,-163.96C132.93,-135.94 172.95,-91.06 217,-65 222.23,-61.9 227.75,-59.05 233.43,-56.42"/>
<polygon fill="#63b8ff" stroke="#63b8ff" points="107.89,-161.55 104.46,-171.57 113.39,-165.88 107.89,-161.55"/>
</a>
</g>
</g>
</g>
</svg>
