<?xml version="1.0" encoding="UTF-8" standalone="no"?>
<!DOCTYPE svg PUBLIC "-//W3C//DTD SVG 1.1//EN"
 "http://www.w3.org/Graphics/SVG/1.1/DTD/svg11.dtd">
<!-- Generated by graphviz version 12.2.0 (20241103.1931)
 -->
<!-- Title: Graphical Class Hierarchy Pages: 1 -->
<svg width="405pt" height="360pt"
 viewBox="0.00 0.00 404.50 360.00" xmlns="http://www.w3.org/2000/svg" xmlns:xlink="http://www.w3.org/1999/xlink">
<g id="graph0" class="graph" transform="scale(1 1) rotate(0) translate(4 356)">
<title>Graphical Class Hierarchy</title>
<!-- Node0 -->
<g id="Node000000" class="node">
<title>Node0</title>
<g id="a_Node000000"><a xlink:href="class_data_1_1_hash_function_1_1_test_1_1_i_hash_function___test_base.html" target="_top" xlink:title=" ">
<polygon fill="white" stroke="#666666" points="176.5,-198 0,-198 0,-154 176.5,-154 176.5,-198"/>
<text text-anchor="start" x="8" y="-184.5" font-family="Helvetica,sans-Serif" font-size="10.00">Data.HashFunction.Test.IHash</text>
<text text-anchor="start" x="8" y="-172.5" font-family="Helvetica,sans-Serif" font-size="10.00">Function_TestBase&lt; IHashAlgorithm</text>
<text text-anchor="middle" x="88.25" y="-160.5" font-family="Helvetica,sans-Serif" font-size="10.00">Wrapper &gt;</text>
</a>
</g>
</g>
<!-- Node1 -->
<g id="Node000001" class="node">
<title>Node1</title>
<g id="a_Node000001"><a xlink:href="class_data_1_1_hash_function_1_1_test_1_1_hash_algorithm_1_1_hash_algorithm_wrapper___implementacc217851f5c869f280d516270b8edea8.html" target="_top" xlink:title=" ">
<polygon fill="white" stroke="#666666" points="396.5,-352 212.5,-352 212.5,-296 396.5,-296 396.5,-352"/>
<text text-anchor="start" x="220.5" y="-338.5" font-family="Helvetica,sans-Serif" font-size="10.00">Data.HashFunction.Test.Hash</text>
<text text-anchor="start" x="220.5" y="-326.5" font-family="Helvetica,sans-Serif" font-size="10.00">Algorithm.HashAlgorithmWrapper</text>
<text text-anchor="start" x="220.5" y="-314.5" font-family="Helvetica,sans-Serif" font-size="10.00">_Implementation_Tests.IHashFunction</text>
<text text-anchor="middle" x="304.5" y="-302.5" font-family="Helvetica,sans-Serif" font-size="10.00">_Tests_MD5</text>
</a>
</g>
</g>
<!-- Node0&#45;&gt;Node1 -->
<g id="edge167_Node000000_Node000001" class="edge">
<title>Node0&#45;&gt;Node1</title>
<g id="a_edge167_Node000000_Node000001"><a xlink:title=" ">
<path fill="none" stroke="#63b8ff" d="M117.03,-206.28C140.6,-230.59 176.26,-264.3 212.5,-287 217.41,-290.08 222.63,-292.99 227.98,-295.73"/>
<polygon fill="#63b8ff" stroke="#63b8ff" points="119.7,-204.01 110.26,-199.2 114.64,-208.84 119.7,-204.01"/>
</a>
</g>
</g>
<!-- Node2 -->
<g id="Node000002" class="node">
<title>Node2</title>
<g id="a_Node000002"><a xlink:href="class_data_1_1_hash_function_1_1_test_1_1_hash_algorithm_1_1_hash_algorithm_wrapper___implementa70ca32e211a71089f6e333ba3876c89f.html" target="_top" xlink:title=" ">
<polygon fill="white" stroke="#666666" points="396.5,-278 212.5,-278 212.5,-222 396.5,-222 396.5,-278"/>
<text text-anchor="start" x="220.5" y="-264.5" font-family="Helvetica,sans-Serif" font-size="10.00">Data.HashFunction.Test.Hash</text>
<text text-anchor="start" x="220.5" y="-252.5" font-family="Helvetica,sans-Serif" font-size="10.00">Algorithm.HashAlgorithmWrapper</text>
<text text-anchor="start" x="220.5" y="-240.5" font-family="Helvetica,sans-Serif" font-size="10.00">_Implementation_Tests.IHashFunction</text>
<text text-anchor="middle" x="304.5" y="-228.5" font-family="Helvetica,sans-Serif" font-size="10.00">_Tests_SHA1</text>
</a>
</g>
</g>
<!-- Node0&#45;&gt;Node2 -->
<g id="edge168_Node000000_Node000002" class="edge">
<title>Node0&#45;&gt;Node2</title>
<g id="a_edge168_Node000000_Node000002"><a xlink:title=" ">
<path fill="none" stroke="#63b8ff" d="M164.93,-202.14C183.08,-208.41 202.55,-215.13 221,-221.51"/>
<polygon fill="#63b8ff" stroke="#63b8ff" points="166.14,-198.85 155.54,-198.9 163.85,-205.47 166.14,-198.85"/>
</a>
</g>
</g>
<!-- Node3 -->
<g id="Node000003" class="node">
<title>Node3</title>
<g id="a_Node000003"><a xlink:href="class_data_1_1_hash_function_1_1_test_1_1_hash_algorithm_1_1_hash_algorithm_wrapper___implementaf843cd01b0c9e1d4a175a2b2e9c6ff21.html" target="_top" xlink:title=" ">
<polygon fill="white" stroke="#666666" points="396.5,-204 212.5,-204 212.5,-148 396.5,-148 396.5,-204"/>
<text text-anchor="start" x="220.5" y="-190.5" font-family="Helvetica,sans-Serif" font-size="10.00">Data.HashFunction.Test.Hash</text>
<text text-anchor="start" x="220.5" y="-178.5" font-family="Helvetica,sans-Serif" font-size="10.00">Algorithm.HashAlgorithmWrapper</text>
<text text-anchor="start" x="220.5" y="-166.5" font-family="Helvetica,sans-Serif" font-size="10.00">_Implementation_Tests.IHashFunction</text>
<text text-anchor="middle" x="304.5" y="-154.5" font-family="Helvetica,sans-Serif" font-size="10.00">_Tests_SHA256</text>
</a>
</g>
</g>
<!-- Node0&#45;&gt;Node3 -->
<g id="edge169_Node000000_Node000003" class="edge">
<title>Node0&#45;&gt;Node3</title>
<g id="a_edge169_Node000000_Node000003"><a xlink:title=" ">
<path fill="none" stroke="#63b8ff" d="M188.01,-176C196.06,-176 204.16,-176 212.15,-176"/>
<polygon fill="#63b8ff" stroke="#63b8ff" points="188.22,-172.5 178.22,-176 188.22,-179.5 188.22,-172.5"/>
</a>
</g>
</g>
<!-- Node4 -->
<g id="Node000004" class="node">
<title>Node4</title>
<g id="a_Node000004"><a xlink:href="class_data_1_1_hash_function_1_1_test_1_1_hash_algorithm_1_1_hash_algorithm_wrapper___implementae7d17293e799b196b2bc3ab7411d1772.html" target="_top" xlink:title=" ">
<polygon fill="white" stroke="#666666" points="396.5,-130 212.5,-130 212.5,-74 396.5,-74 396.5,-130"/>
<text text-anchor="start" x="220.5" y="-116.5" font-family="Helvetica,sans-Serif" font-size="10.00">Data.HashFunction.Test.Hash</text>
<text text-anchor="start" x="220.5" y="-104.5" font-family="Helvetica,sans-Serif" font-size="10.00">Algorithm.HashAlgorithmWrapper</text>
<text text-anchor="start" x="220.5" y="-92.5" font-family="Helvetica,sans-Serif" font-size="10.00">_Implementation_Tests.IHashFunction</text>
<text text-anchor="middle" x="304.5" y="-80.5" font-family="Helvetica,sans-Serif" font-size="10.00">_Tests_SHA384</text>
</a>
</g>
</g>
<!-- Node0&#45;&gt;Node4 -->
<g id="edge170_Node000000_Node000004" class="edge">
<title>Node0&#45;&gt;Node4</title>
<g id="a_edge170_Node000000_Node000004"><a xlink:title=" ">
<path fill="none" stroke="#63b8ff" d="M164.93,-149.86C183.08,-143.59 202.55,-136.87 221,-130.49"/>
<polygon fill="#63b8ff" stroke="#63b8ff" points="163.85,-146.53 155.54,-153.1 166.14,-153.15 163.85,-146.53"/>
</a>
</g>
</g>
<!-- Node5 -->
<g id="Node000005" class="node">
<title>Node5</title>
<g id="a_Node000005"><a xlink:href="class_data_1_1_hash_function_1_1_test_1_1_hash_algorithm_1_1_hash_algorithm_wrapper___implementad9908f8db342ca1945e9ffb423bdabdc.html" target="_top" xlink:title=" ">
<polygon fill="white" stroke="#666666" points="396.5,-56 212.5,-56 212.5,0 396.5,0 396.5,-56"/>
<text text-anchor="start" x="220.5" y="-42.5" font-family="Helvetica,sans-Serif" font-size="10.00">Data.HashFunction.Test.Hash</text>
<text text-anchor="start" x="220.5" y="-30.5" font-family="Helvetica,sans-Serif" font-size="10.00">Algorithm.HashAlgorithmWrapper</text>
<text text-anchor="start" x="220.5" y="-18.5" font-family="Helvetica,sans-Serif" font-size="10.00">_Implementation_Tests.IHashFunction</text>
<text text-anchor="middle" x="304.5" y="-6.5" font-family="Helvetica,sans-Serif" font-size="10.00">_Tests_SHA512</text>
</a>
</g>
</g>
<!-- Node0&#45;&gt;Node5 -->
<g id="edge171_Node000000_Node000005" class="edge">
<title>Node0&#45;&gt;Node5</title>
<g id="a_edge171_Node000000_Node000005"><a xlink:title=" ">
<path fill="none" stroke="#63b8ff" d="M117.03,-145.72C140.6,-121.41 176.26,-87.7 212.5,-65 217.41,-61.92 222.63,-59.01 227.98,-56.27"/>
<polygon fill="#63b8ff" stroke="#63b8ff" points="114.64,-143.16 110.26,-152.8 119.7,-147.99 114.64,-143.16"/>
</a>
</g>
</g>
</g>
</svg>
