<?xml version="1.0" encoding="UTF-8" standalone="no"?>
<!DOCTYPE svg PUBLIC "-//W3C//DTD SVG 1.1//EN"
 "http://www.w3.org/Graphics/SVG/1.1/DTD/svg11.dtd">
<!-- Generated by graphviz version 12.2.0 (20241103.1931)
 -->
<!-- Title: Graphical Class Hierarchy Pages: 1 -->
<svg width="420pt" height="274pt"
 viewBox="0.00 0.00 419.50 274.00" xmlns="http://www.w3.org/2000/svg" xmlns:xlink="http://www.w3.org/1999/xlink">
<g id="graph0" class="graph" transform="scale(1 1) rotate(0) translate(4 270)">
<title>Graphical Class Hierarchy</title>
<!-- Node0 -->
<g id="Node000000" class="node">
<title>Node0</title>
<g id="a_Node000000"><a xlink:href="class_data_1_1_hash_function_1_1_test_1_1_i_streamable_hash_function___test_base.html" target="_top" xlink:title=" ">
<polygon fill="white" stroke="#666666" points="184.75,-155 0,-155 0,-123 184.75,-123 184.75,-155"/>
<text text-anchor="start" x="8" y="-141.5" font-family="Helvetica,sans-Serif" font-size="10.00">Data.HashFunction.Test.IStreamable</text>
<text text-anchor="middle" x="92.38" y="-129.5" font-family="Helvetica,sans-Serif" font-size="10.00">HashFunction_TestBase&lt; IBuzHash &gt;</text>
</a>
</g>
</g>
<!-- Node1 -->
<g id="Node000001" class="node">
<title>Node1</title>
<g id="a_Node000001"><a xlink:href="class_data_1_1_hash_function_1_1_test_1_1_buz_hash_1_1_buz_hash___implementation___tests_1_1_i_streamable_hash_function___tests.html" target="_top" xlink:title=" ">
<polygon fill="white" stroke="#666666" points="411.5,-266 220.75,-266 220.75,-222 411.5,-222 411.5,-266"/>
<text text-anchor="start" x="228.75" y="-252.5" font-family="Helvetica,sans-Serif" font-size="10.00">Data.HashFunction.Test.Buz</text>
<text text-anchor="start" x="228.75" y="-240.5" font-family="Helvetica,sans-Serif" font-size="10.00">Hash.BuzHash_Implementation</text>
<text text-anchor="middle" x="316.12" y="-228.5" font-family="Helvetica,sans-Serif" font-size="10.00">_Tests.IStreamableHashFunction_Tests</text>
</a>
</g>
</g>
<!-- Node0&#45;&gt;Node1 -->
<g id="edge187_Node000000_Node000001" class="edge">
<title>Node0&#45;&gt;Node1</title>
<g id="a_edge187_Node000000_Node000001"><a xlink:title=" ">
<path fill="none" stroke="#63b8ff" d="M127.34,-161.36C152.43,-177.21 187.79,-198.21 220.75,-213 227.44,-216 234.5,-218.86 241.64,-221.54"/>
<polygon fill="#63b8ff" stroke="#63b8ff" points="129.51,-158.59 119.2,-156.16 125.75,-164.49 129.51,-158.59"/>
</a>
</g>
</g>
<!-- Node2 -->
<g id="Node000002" class="node">
<title>Node2</title>
<g id="a_Node000002"><a xlink:href="class_data_1_1_hash_function_1_1_test_1_1_buz_hash_1_1_buz_hash___implementation___tests_1_1_i_s39e975cf8ea528e8ea049d6503989016.html" target="_top" xlink:title=" ">
<polygon fill="white" stroke="#666666" points="396.88,-204 235.38,-204 235.38,-148 396.88,-148 396.88,-204"/>
<text text-anchor="start" x="243.38" y="-190.5" font-family="Helvetica,sans-Serif" font-size="10.00">Data.HashFunction.Test.Buz</text>
<text text-anchor="start" x="243.38" y="-178.5" font-family="Helvetica,sans-Serif" font-size="10.00">Hash.BuzHash_Implementation</text>
<text text-anchor="start" x="243.38" y="-166.5" font-family="Helvetica,sans-Serif" font-size="10.00">_Tests.IStreamableHashFunction</text>
<text text-anchor="middle" x="316.12" y="-154.5" font-family="Helvetica,sans-Serif" font-size="10.00">_Tests_DefaultConstructor</text>
</a>
</g>
</g>
<!-- Node0&#45;&gt;Node2 -->
<g id="edge188_Node000000_Node000002" class="edge">
<title>Node0&#45;&gt;Node2</title>
<g id="a_edge188_Node000000_Node000002"><a xlink:title=" ">
<path fill="none" stroke="#63b8ff" d="M196.5,-156.21C209.45,-158.37 222.55,-160.55 235.07,-162.64"/>
<polygon fill="#63b8ff" stroke="#63b8ff" points="197.1,-152.76 186.66,-154.57 195.95,-159.66 197.1,-152.76"/>
</a>
</g>
</g>
<!-- Node3 -->
<g id="Node000003" class="node">
<title>Node3</title>
<g id="a_Node000003"><a xlink:href="class_data_1_1_hash_function_1_1_test_1_1_buz_hash_1_1_buz_hash___implementation___tests_1_1_i_s2e2c127f1a1f0b797837945f6f8da322.html" target="_top" xlink:title=" ">
<polygon fill="white" stroke="#666666" points="396.88,-130 235.38,-130 235.38,-74 396.88,-74 396.88,-130"/>
<text text-anchor="start" x="243.38" y="-116.5" font-family="Helvetica,sans-Serif" font-size="10.00">Data.HashFunction.Test.Buz</text>
<text text-anchor="start" x="243.38" y="-104.5" font-family="Helvetica,sans-Serif" font-size="10.00">Hash.BuzHash_Implementation</text>
<text text-anchor="start" x="243.38" y="-92.5" font-family="Helvetica,sans-Serif" font-size="10.00">_Tests.IStreamableHashFunction</text>
<text text-anchor="middle" x="316.12" y="-80.5" font-family="Helvetica,sans-Serif" font-size="10.00">_Tests_RightShift</text>
</a>
</g>
</g>
<!-- Node0&#45;&gt;Node3 -->
<g id="edge189_Node000000_Node000003" class="edge">
<title>Node0&#45;&gt;Node3</title>
<g id="a_edge189_Node000000_Node000003"><a xlink:title=" ">
<path fill="none" stroke="#63b8ff" d="M196.5,-121.79C209.45,-119.63 222.55,-117.45 235.07,-115.36"/>
<polygon fill="#63b8ff" stroke="#63b8ff" points="195.95,-118.34 186.66,-123.43 197.1,-125.24 195.95,-118.34"/>
</a>
</g>
</g>
<!-- Node4 -->
<g id="Node000004" class="node">
<title>Node4</title>
<g id="a_Node000004"><a xlink:href="class_data_1_1_hash_function_1_1_test_1_1_buz_hash_1_1_buz_hash___implementation___tests_1_1_i_s05824a66ff313a6ca314ea8f4aedfea0.html" target="_top" xlink:title=" ">
<polygon fill="white" stroke="#666666" points="407,-56 225.25,-56 225.25,0 407,0 407,-56"/>
<text text-anchor="start" x="233.25" y="-42.5" font-family="Helvetica,sans-Serif" font-size="10.00">Data.HashFunction.Test.Buz</text>
<text text-anchor="start" x="233.25" y="-30.5" font-family="Helvetica,sans-Serif" font-size="10.00">Hash.BuzHash_Implementation</text>
<text text-anchor="start" x="233.25" y="-18.5" font-family="Helvetica,sans-Serif" font-size="10.00">_Tests.IStreamableHashFunction</text>
<text text-anchor="middle" x="316.12" y="-6.5" font-family="Helvetica,sans-Serif" font-size="10.00">_Tests_RightShift_DefaultConstructor</text>
</a>
</g>
</g>
<!-- Node0&#45;&gt;Node4 -->
<g id="edge190_Node000000_Node000004" class="edge">
<title>Node0&#45;&gt;Node4</title>
<g id="a_edge190_Node000000_Node000004"><a xlink:title=" ">
<path fill="none" stroke="#63b8ff" d="M128.08,-116.9C153.25,-101.35 188.42,-80.61 220.75,-65 226.77,-62.09 233.09,-59.23 239.47,-56.47"/>
<polygon fill="#63b8ff" stroke="#63b8ff" points="126.53,-113.74 119.89,-122 130.23,-119.68 126.53,-113.74"/>
</a>
</g>
</g>
</g>
</svg>
