<?xml version="1.0" encoding="UTF-8" standalone="no"?>
<!DOCTYPE svg PUBLIC "-//W3C//DTD SVG 1.1//EN"
 "http://www.w3.org/Graphics/SVG/1.1/DTD/svg11.dtd">
<!-- Generated by graphviz version 12.2.0 (20241103.1931)
 -->
<!-- Title: Data.HashFunction.FNV.IFNV Pages: 1 -->
<svg width="842pt" height="140pt"
 viewBox="0.00 0.00 841.75 140.00" xmlns="http://www.w3.org/2000/svg" xmlns:xlink="http://www.w3.org/1999/xlink">
<g id="graph0" class="graph" transform="scale(1 1) rotate(0) translate(4 136)">
<title>Data.HashFunction.FNV.IFNV</title>
<!-- Node1 -->
<g id="Node000001" class="node">
<title>Node1</title>
<g id="a_Node000001"><a xlink:title="Implementation of Fowler–Noll–Vo hash function (FNV&#45;1 or FNV&#45;1a) as specified at http://www....">
<polygon fill="#999999" stroke="#666666" points="430.5,-76 281,-76 281,-56 430.5,-56 430.5,-76"/>
<text text-anchor="middle" x="355.75" y="-62.5" font-family="Helvetica,sans-Serif" font-size="10.00">Data.HashFunction.FNV.IFNV</text>
</a>
</g>
</g>
<!-- Node4 -->
<g id="Node000004" class="node">
<title>Node4</title>
<g id="a_Node000004"><a xlink:href="class_data_1_1_hash_function_1_1_f_n_v_1_1_f_n_v1_base.html" target="_top" xlink:title=" ">
<polygon fill="white" stroke="#666666" points="640.75,-76 466.5,-76 466.5,-56 640.75,-56 640.75,-76"/>
<text text-anchor="middle" x="553.62" y="-62.5" font-family="Helvetica,sans-Serif" font-size="10.00">Data.HashFunction.FNV.FNV1Base</text>
</a>
</g>
</g>
<!-- Node1&#45;&gt;Node4 -->
<g id="edge3_Node000001_Node000004" class="edge">
<title>Node1&#45;&gt;Node4</title>
<g id="a_edge3_Node000001_Node000004"><a xlink:title=" ">
<path fill="none" stroke="#63b8ff" d="M442.06,-66C450.1,-66 458.25,-66 466.3,-66"/>
<polygon fill="#63b8ff" stroke="#63b8ff" points="442.32,-62.5 432.32,-66 442.32,-69.5 442.32,-62.5"/>
</a>
</g>
</g>
<!-- Node8 -->
<g id="Node000008" class="node">
<title>Node8</title>
<g id="a_Node000008"><a xlink:href="interface_data_1_1_hash_function_1_1_f_n_v_1_1_i_f_n_v1.html" target="_top" xlink:title="Implementation of Fowler–Noll–Vo hash function (FNV&#45;1) as specified at http://www....">
<polygon fill="white" stroke="#666666" points="631,-120 476.25,-120 476.25,-100 631,-100 631,-120"/>
<text text-anchor="middle" x="553.62" y="-106.5" font-family="Helvetica,sans-Serif" font-size="10.00">Data.HashFunction.FNV.IFNV1</text>
</a>
</g>
</g>
<!-- Node1&#45;&gt;Node8 -->
<g id="edge7_Node000001_Node000008" class="edge">
<title>Node1&#45;&gt;Node8</title>
<g id="a_edge7_Node000001_Node000008"><a xlink:title=" ">
<path fill="none" stroke="#63b8ff" d="M414.09,-78.88C443.4,-85.46 478.61,-93.37 506.2,-99.57"/>
<polygon fill="#63b8ff" stroke="#63b8ff" points="415.17,-75.54 404.65,-76.76 413.64,-82.37 415.17,-75.54"/>
</a>
</g>
</g>
<!-- Node9 -->
<g id="Node000009" class="node">
<title>Node9</title>
<g id="a_Node000009"><a xlink:href="interface_data_1_1_hash_function_1_1_f_n_v_1_1_i_f_n_v1a.html" target="_top" xlink:title="Implementation of Fowler–Noll–Vo hash function (FNV&#45;1a) as specified at http://www....">
<polygon fill="white" stroke="#666666" points="633.62,-32 473.62,-32 473.62,-12 633.62,-12 633.62,-32"/>
<text text-anchor="middle" x="553.62" y="-18.5" font-family="Helvetica,sans-Serif" font-size="10.00">Data.HashFunction.FNV.IFNV1a</text>
</a>
</g>
</g>
<!-- Node1&#45;&gt;Node9 -->
<g id="edge9_Node000001_Node000009" class="edge">
<title>Node1&#45;&gt;Node9</title>
<g id="a_edge9_Node000001_Node000009"><a xlink:title=" ">
<path fill="none" stroke="#63b8ff" d="M414.09,-53.12C443.4,-46.54 478.61,-38.63 506.2,-32.43"/>
<polygon fill="#63b8ff" stroke="#63b8ff" points="413.64,-49.63 404.65,-55.24 415.17,-56.46 413.64,-49.63"/>
</a>
</g>
</g>
<!-- Node2 -->
<g id="Node000002" class="node">
<title>Node2</title>
<g id="a_Node000002"><a xlink:href="interface_data_1_1_hash_function_1_1_i_streamable_hash_function.html" target="_top" xlink:title="Common interface to non&#45;cryptographic hash functions that can be computed over a stream of data witho...">
<polygon fill="white" stroke="#666666" points="245,-76 115.75,-76 115.75,-56 245,-56 245,-76"/>
<text text-anchor="middle" x="180.38" y="-62.5" font-family="Helvetica,sans-Serif" font-size="10.00">IStreamableHashFunction</text>
</a>
</g>
</g>
<!-- Node2&#45;&gt;Node1 -->
<g id="edge1_Node000001_Node000002" class="edge">
<title>Node2&#45;&gt;Node1</title>
<g id="a_edge1_Node000001_Node000002"><a xlink:title=" ">
<path fill="none" stroke="#63b8ff" d="M256.89,-66C264.79,-66 272.82,-66 280.7,-66"/>
<polygon fill="#63b8ff" stroke="#63b8ff" points="256.95,-62.5 246.95,-66 256.95,-69.5 256.95,-62.5"/>
</a>
</g>
</g>
<!-- Node3 -->
<g id="Node000003" class="node">
<title>Node3</title>
<g id="a_Node000003"><a xlink:href="interface_data_1_1_hash_function_1_1_i_hash_function.html" target="_top" xlink:title="Common interface to non&#45;cryptographic hash functions.">
<polygon fill="white" stroke="#666666" points="79.75,-76 0,-76 0,-56 79.75,-56 79.75,-76"/>
<text text-anchor="middle" x="39.88" y="-62.5" font-family="Helvetica,sans-Serif" font-size="10.00">IHashFunction</text>
</a>
</g>
</g>
<!-- Node3&#45;&gt;Node2 -->
<g id="edge2_Node000002_Node000003" class="edge">
<title>Node3&#45;&gt;Node2</title>
<g id="a_edge2_Node000002_Node000003"><a xlink:title=" ">
<path fill="none" stroke="#63b8ff" d="M91.6,-66C99.32,-66 107.37,-66 115.33,-66"/>
<polygon fill="#63b8ff" stroke="#63b8ff" points="91.71,-62.5 81.71,-66 91.71,-69.5 91.71,-62.5"/>
</a>
</g>
</g>
<!-- Node5 -->
<g id="Node000005" class="node">
<title>Node5</title>
<g id="a_Node000005"><a xlink:href="class_data_1_1_hash_function_1_1_f_n_v_1_1_f_n_v1___implementation.html" target="_top" xlink:title=" ">
<polygon fill="white" stroke="#666666" points="831.12,-132 679.38,-132 679.38,-100 831.12,-100 831.12,-132"/>
<text text-anchor="start" x="687.38" y="-118.5" font-family="Helvetica,sans-Serif" font-size="10.00">Data.HashFunction.FNV.FNV1</text>
<text text-anchor="middle" x="755.25" y="-106.5" font-family="Helvetica,sans-Serif" font-size="10.00">_Implementation</text>
</a>
</g>
</g>
<!-- Node4&#45;&gt;Node5 -->
<g id="edge4_Node000004_Node000005" class="edge">
<title>Node4&#45;&gt;Node5</title>
<g id="a_edge4_Node000004_Node000005"><a xlink:title=" ">
<path fill="none" stroke="#63b8ff" d="M607.5,-79.24C632.34,-85.47 662.21,-92.95 688.49,-99.53"/>
<polygon fill="#63b8ff" stroke="#63b8ff" points="608.49,-75.88 597.94,-76.85 606.79,-82.67 608.49,-75.88"/>
</a>
</g>
</g>
<!-- Node6 -->
<g id="Node000006" class="node">
<title>Node6</title>
<g id="a_Node000006"><a xlink:href="class_data_1_1_hash_function_1_1_f_n_v_1_1_f_n_v1a___implementation.html" target="_top" xlink:title=" ">
<polygon fill="white" stroke="#666666" points="833.75,-32 676.75,-32 676.75,0 833.75,0 833.75,-32"/>
<text text-anchor="start" x="684.75" y="-18.5" font-family="Helvetica,sans-Serif" font-size="10.00">Data.HashFunction.FNV.FNV1a</text>
<text text-anchor="middle" x="755.25" y="-6.5" font-family="Helvetica,sans-Serif" font-size="10.00">_Implementation</text>
</a>
</g>
</g>
<!-- Node4&#45;&gt;Node6 -->
<g id="edge5_Node000004_Node000006" class="edge">
<title>Node4&#45;&gt;Node6</title>
<g id="a_edge5_Node000004_Node000006"><a xlink:title=" ">
<path fill="none" stroke="#63b8ff" d="M607.5,-52.76C632.34,-46.53 662.21,-39.05 688.49,-32.47"/>
<polygon fill="#63b8ff" stroke="#63b8ff" points="606.79,-49.33 597.94,-55.15 608.49,-56.12 606.79,-49.33"/>
</a>
</g>
</g>
<!-- Node7 -->
<g id="Node000007" class="node">
<title>Node7</title>
<g id="a_Node000007"><a xlink:href="class_data_1_1_hash_function_1_1_test_1_1_f_n_v_1_1_f_n_v1_base___tests_1_1_f_n_v1_impl.html" target="_top" xlink:title=" ">
<polygon fill="white" stroke="#666666" points="829.25,-82 681.25,-82 681.25,-50 829.25,-50 829.25,-82"/>
<text text-anchor="start" x="689.25" y="-68.5" font-family="Helvetica,sans-Serif" font-size="10.00">Data.HashFunction.Test.FNV.</text>
<text text-anchor="middle" x="755.25" y="-56.5" font-family="Helvetica,sans-Serif" font-size="10.00">FNV1Base_Tests.FNV1Impl</text>
</a>
</g>
</g>
<!-- Node4&#45;&gt;Node7 -->
<g id="edge6_Node000004_Node000007" class="edge">
<title>Node4&#45;&gt;Node7</title>
<g id="a_edge6_Node000004_Node000007"><a xlink:title=" ">
<path fill="none" stroke="#63b8ff" d="M652.28,-66C661.9,-66 671.54,-66 680.86,-66"/>
<polygon fill="#63b8ff" stroke="#63b8ff" points="652.54,-62.5 642.54,-66 652.54,-69.5 652.54,-62.5"/>
</a>
</g>
</g>
<!-- Node8&#45;&gt;Node5 -->
<g id="edge8_Node000008_Node000005" class="edge">
<title>Node8&#45;&gt;Node5</title>
<g id="a_edge8_Node000008_Node000005"><a xlink:title=" ">
<path fill="none" stroke="#63b8ff" d="M642.4,-112.64C654.66,-113.01 667.17,-113.38 679.16,-113.74"/>
<polygon fill="#63b8ff" stroke="#63b8ff" points="642.85,-109.15 632.75,-112.35 642.64,-116.15 642.85,-109.15"/>
</a>
</g>
</g>
<!-- Node9&#45;&gt;Node6 -->
<g id="edge10_Node000009_Node000006" class="edge">
<title>Node9&#45;&gt;Node6</title>
<g id="a_edge10_Node000009_Node000006"><a xlink:title=" ">
<path fill="none" stroke="#63b8ff" d="M645.28,-19.28C655.66,-18.96 666.17,-18.65 676.36,-18.34"/>
<polygon fill="#63b8ff" stroke="#63b8ff" points="645.5,-15.77 635.61,-19.57 645.71,-22.76 645.5,-15.77"/>
</a>
</g>
</g>
</g>
</svg>
