<?xml version="1.0" encoding="UTF-8" standalone="no"?>
<!DOCTYPE svg PUBLIC "-//W3C//DTD SVG 1.1//EN"
 "http://www.w3.org/Graphics/SVG/1.1/DTD/svg11.dtd">
<!-- Generated by graphviz version 12.2.0 (20241103.1931)
 -->
<!-- Title: Data.HashFunction.Jenkins.IJenkinsOneAtATime Pages: 1 -->
<svg width="149pt" height="208pt"
 viewBox="0.00 0.00 148.50 208.00" xmlns="http://www.w3.org/2000/svg" xmlns:xlink="http://www.w3.org/1999/xlink">
<g id="graph0" class="graph" transform="scale(1 1) rotate(0) translate(4 204)">
<title>Data.HashFunction.Jenkins.IJenkinsOneAtATime</title>
<!-- Node1 -->
<g id="Node000001" class="node">
<title>Node1</title>
<g id="a_Node000001"><a xlink:title="Implementation of Bob Jenkins&#39; One&#45;at&#45;a&#45;Time hash function as specified at http://www....">
<polygon fill="#999999" stroke="#666666" points="140.5,-32 0,-32 0,0 140.5,0 140.5,-32"/>
<text text-anchor="start" x="8" y="-18.5" font-family="Helvetica,sans-Serif" font-size="10.00">Data.HashFunction.Jenkins.</text>
<text text-anchor="middle" x="70.25" y="-6.5" font-family="Helvetica,sans-Serif" font-size="10.00">IJenkinsOneAtATime</text>
</a>
</g>
</g>
<!-- Node2 -->
<g id="Node000002" class="node">
<title>Node2</title>
<g id="a_Node000002"><a xlink:href="interface_data_1_1_hash_function_1_1_jenkins_1_1_i_jenkins.html" target="_top" xlink:title="Implementation of Bob Jenkins&#39; One at a Time, Lookup2, or Lookup3 hash function as specified at http:...">
<polygon fill="white" stroke="#666666" points="96.62,-88 43.88,-88 43.88,-68 96.62,-68 96.62,-88"/>
<text text-anchor="middle" x="70.25" y="-74.5" font-family="Helvetica,sans-Serif" font-size="10.00">IJenkins</text>
</a>
</g>
</g>
<!-- Node2&#45;&gt;Node1 -->
<g id="edge1_Node000001_Node000002" class="edge">
<title>Node2&#45;&gt;Node1</title>
<g id="a_edge1_Node000001_Node000002"><a xlink:title=" ">
<path fill="none" stroke="#63b8ff" d="M70.25,-56.31C70.25,-48.37 70.25,-39.46 70.25,-32.14"/>
<polygon fill="#63b8ff" stroke="#63b8ff" points="66.75,-56.11 70.25,-66.11 73.75,-56.11 66.75,-56.11"/>
</a>
</g>
</g>
<!-- Node3 -->
<g id="Node000003" class="node">
<title>Node3</title>
<g id="a_Node000003"><a xlink:href="interface_data_1_1_hash_function_1_1_i_streamable_hash_function.html" target="_top" xlink:title="Common interface to non&#45;cryptographic hash functions that can be computed over a stream of data witho...">
<polygon fill="white" stroke="#666666" points="134.88,-144 5.62,-144 5.62,-124 134.88,-124 134.88,-144"/>
<text text-anchor="middle" x="70.25" y="-130.5" font-family="Helvetica,sans-Serif" font-size="10.00">IStreamableHashFunction</text>
</a>
</g>
</g>
<!-- Node3&#45;&gt;Node2 -->
<g id="edge2_Node000002_Node000003" class="edge">
<title>Node3&#45;&gt;Node2</title>
<g id="a_edge2_Node000002_Node000003"><a xlink:title=" ">
<path fill="none" stroke="#63b8ff" d="M70.25,-112.13C70.25,-103.9 70.25,-94.85 70.25,-88.3"/>
<polygon fill="#63b8ff" stroke="#63b8ff" points="66.75,-112.08 70.25,-122.08 73.75,-112.08 66.75,-112.08"/>
</a>
</g>
</g>
<!-- Node4 -->
<g id="Node000004" class="node">
<title>Node4</title>
<g id="a_Node000004"><a xlink:href="interface_data_1_1_hash_function_1_1_i_hash_function.html" target="_top" xlink:title="Common interface to non&#45;cryptographic hash functions.">
<polygon fill="white" stroke="#666666" points="110.12,-200 30.38,-200 30.38,-180 110.12,-180 110.12,-200"/>
<text text-anchor="middle" x="70.25" y="-186.5" font-family="Helvetica,sans-Serif" font-size="10.00">IHashFunction</text>
</a>
</g>
</g>
<!-- Node4&#45;&gt;Node3 -->
<g id="edge3_Node000003_Node000004" class="edge">
<title>Node4&#45;&gt;Node3</title>
<g id="a_edge3_Node000003_Node000004"><a xlink:title=" ">
<path fill="none" stroke="#63b8ff" d="M70.25,-168.13C70.25,-159.9 70.25,-150.85 70.25,-144.3"/>
<polygon fill="#63b8ff" stroke="#63b8ff" points="66.75,-168.08 70.25,-178.08 73.75,-168.08 66.75,-168.08"/>
</a>
</g>
</g>
</g>
</svg>
