<?xml version="1.0" encoding="UTF-8" standalone="no"?>
<!DOCTYPE svg PUBLIC "-//W3C//DTD SVG 1.1//EN"
 "http://www.w3.org/Graphics/SVG/1.1/DTD/svg11.dtd">
<!-- Generated by graphviz version 12.2.0 (20241103.1931)
 -->
<!-- Title: Data.HashFunction.FarmHash.IFarmHashFingerprint128 Pages: 1 -->
<svg width="203pt" height="164pt"
 viewBox="0.00 0.00 203.25 164.00" xmlns="http://www.w3.org/2000/svg" xmlns:xlink="http://www.w3.org/1999/xlink">
<g id="graph0" class="graph" transform="scale(1 1) rotate(0) translate(4 160)">
<title>Data.HashFunction.FarmHash.IFarmHashFingerprint128</title>
<!-- Node1 -->
<g id="Node000001" class="node">
<title>Node1</title>
<g id="a_Node000001"><a xlink:title="Implementation of FarmHash&#39;s Fingerprint128 method as specified at https://github....">
<polygon fill="#999999" stroke="#666666" points="173.88,-100 21.38,-100 21.38,-68 173.88,-68 173.88,-100"/>
<text text-anchor="start" x="29.38" y="-86.5" font-family="Helvetica,sans-Serif" font-size="10.00">Data.HashFunction.FarmHash.</text>
<text text-anchor="middle" x="97.62" y="-74.5" font-family="Helvetica,sans-Serif" font-size="10.00">IFarmHashFingerprint128</text>
</a>
</g>
</g>
<!-- Node3 -->
<g id="Node000003" class="node">
<title>Node3</title>
<g id="a_Node000003"><a xlink:href="class_data_1_1_hash_function_1_1_farm_hash_1_1_farm_hash_fingerprint128___implementation.html" target="_top" xlink:title=" ">
<polygon fill="white" stroke="#666666" points="195.25,-32 0,-32 0,0 195.25,0 195.25,-32"/>
<text text-anchor="start" x="8" y="-18.5" font-family="Helvetica,sans-Serif" font-size="10.00">Data.HashFunction.FarmHash.</text>
<text text-anchor="middle" x="97.62" y="-6.5" font-family="Helvetica,sans-Serif" font-size="10.00">FarmHashFingerprint128_Implementation</text>
</a>
</g>
</g>
<!-- Node1&#45;&gt;Node3 -->
<g id="edge2_Node000001_Node000003" class="edge">
<title>Node1&#45;&gt;Node3</title>
<g id="a_edge2_Node000001_Node000003"><a xlink:title=" ">
<path fill="none" stroke="#63b8ff" d="M97.62,-56.31C97.62,-48.12 97.62,-39.38 97.62,-32.22"/>
<polygon fill="#63b8ff" stroke="#63b8ff" points="94.13,-56.18 97.63,-66.18 101.13,-56.18 94.13,-56.18"/>
</a>
</g>
</g>
<!-- Node2 -->
<g id="Node000002" class="node">
<title>Node2</title>
<g id="a_Node000002"><a xlink:href="interface_data_1_1_hash_function_1_1_i_hash_function.html" target="_top" xlink:title="Common interface to non&#45;cryptographic hash functions.">
<polygon fill="white" stroke="#666666" points="137.5,-156 57.75,-156 57.75,-136 137.5,-136 137.5,-156"/>
<text text-anchor="middle" x="97.62" y="-142.5" font-family="Helvetica,sans-Serif" font-size="10.00">IHashFunction</text>
</a>
</g>
</g>
<!-- Node2&#45;&gt;Node1 -->
<g id="edge1_Node000001_Node000002" class="edge">
<title>Node2&#45;&gt;Node1</title>
<g id="a_edge1_Node000001_Node000002"><a xlink:title=" ">
<path fill="none" stroke="#63b8ff" d="M97.62,-124.31C97.62,-116.37 97.62,-107.46 97.62,-100.14"/>
<polygon fill="#63b8ff" stroke="#63b8ff" points="94.13,-124.11 97.63,-134.11 101.13,-124.11 94.13,-124.11"/>
</a>
</g>
</g>
</g>
</svg>
