<?xml version="1.0" encoding="UTF-8" standalone="no"?>
<!DOCTYPE svg PUBLIC "-//W3C//DTD SVG 1.1//EN"
 "http://www.w3.org/Graphics/SVG/1.1/DTD/svg11.dtd">
<!-- Generated by graphviz version 12.2.0 (20241103.1931)
 -->
<!-- Title: Data.HashFunction.Jenkins.IJenkins Pages: 1 -->
<svg width="819pt" height="90pt"
 viewBox="0.00 0.00 819.25 90.00" xmlns="http://www.w3.org/2000/svg" xmlns:xlink="http://www.w3.org/1999/xlink">
<g id="graph0" class="graph" transform="scale(1 1) rotate(0) translate(4 86)">
<title>Data.HashFunction.Jenkins.IJenkins</title>
<!-- Node1 -->
<g id="Node000001" class="node">
<title>Node1</title>
<g id="a_Node000001"><a xlink:title="Implementation of Bob Jenkins&#39; One at a Time, Lookup2, or Lookup3 hash function as specified at http:...">
<polygon fill="#999999" stroke="#666666" points="421.5,-57 281,-57 281,-25 421.5,-25 421.5,-57"/>
<text text-anchor="start" x="289" y="-43.5" font-family="Helvetica,sans-Serif" font-size="10.00">Data.HashFunction.Jenkins.</text>
<text text-anchor="middle" x="351.25" y="-31.5" font-family="Helvetica,sans-Serif" font-size="10.00">IJenkins</text>
</a>
</g>
</g>
<!-- Node4 -->
<g id="Node000004" class="node">
<title>Node4</title>
<g id="a_Node000004"><a xlink:href="interface_data_1_1_hash_function_1_1_jenkins_1_1_i_jenkins_lookup2.html" target="_top" xlink:title="Implementation of Bob Jenkins&#39; Lookup2 hash function as specified at http://burtleburtle....">
<polygon fill="white" stroke="#666666" points="598,-82 457.5,-82 457.5,-50 598,-50 598,-82"/>
<text text-anchor="start" x="465.5" y="-68.5" font-family="Helvetica,sans-Serif" font-size="10.00">Data.HashFunction.Jenkins.</text>
<text text-anchor="middle" x="527.75" y="-56.5" font-family="Helvetica,sans-Serif" font-size="10.00">IJenkinsLookup2</text>
</a>
</g>
</g>
<!-- Node1&#45;&gt;Node4 -->
<g id="edge3_Node000001_Node000004" class="edge">
<title>Node1&#45;&gt;Node4</title>
<g id="a_edge3_Node000001_Node000004"><a xlink:title=" ">
<path fill="none" stroke="#63b8ff" d="M433.2,-52.6C441.2,-53.74 449.27,-54.9 457.14,-56.03"/>
<polygon fill="#63b8ff" stroke="#63b8ff" points="433.86,-49.16 423.47,-51.2 432.87,-56.09 433.86,-49.16"/>
</a>
</g>
</g>
<!-- Node6 -->
<g id="Node000006" class="node">
<title>Node6</title>
<g id="a_Node000006"><a xlink:href="interface_data_1_1_hash_function_1_1_jenkins_1_1_i_jenkins_one_at_a_time.html" target="_top" xlink:title="Implementation of Bob Jenkins&#39; One&#45;at&#45;a&#45;Time hash function as specified at http://www....">
<polygon fill="white" stroke="#666666" points="598,-32 457.5,-32 457.5,0 598,0 598,-32"/>
<text text-anchor="start" x="465.5" y="-18.5" font-family="Helvetica,sans-Serif" font-size="10.00">Data.HashFunction.Jenkins.</text>
<text text-anchor="middle" x="527.75" y="-6.5" font-family="Helvetica,sans-Serif" font-size="10.00">IJenkinsOneAtATime</text>
</a>
</g>
</g>
<!-- Node1&#45;&gt;Node6 -->
<g id="edge5_Node000001_Node000006" class="edge">
<title>Node1&#45;&gt;Node6</title>
<g id="a_edge5_Node000001_Node000006"><a xlink:title=" ">
<path fill="none" stroke="#63b8ff" d="M433.2,-29.4C441.2,-28.26 449.27,-27.1 457.14,-25.97"/>
<polygon fill="#63b8ff" stroke="#63b8ff" points="432.87,-25.91 423.47,-30.8 433.86,-32.84 432.87,-25.91"/>
</a>
</g>
</g>
<!-- Node2 -->
<g id="Node000002" class="node">
<title>Node2</title>
<g id="a_Node000002"><a xlink:href="interface_data_1_1_hash_function_1_1_i_streamable_hash_function.html" target="_top" xlink:title="Common interface to non&#45;cryptographic hash functions that can be computed over a stream of data witho...">
<polygon fill="white" stroke="#666666" points="245,-51 115.75,-51 115.75,-31 245,-31 245,-51"/>
<text text-anchor="middle" x="180.38" y="-37.5" font-family="Helvetica,sans-Serif" font-size="10.00">IStreamableHashFunction</text>
</a>
</g>
</g>
<!-- Node2&#45;&gt;Node1 -->
<g id="edge1_Node000001_Node000002" class="edge">
<title>Node2&#45;&gt;Node1</title>
<g id="a_edge1_Node000001_Node000002"><a xlink:title=" ">
<path fill="none" stroke="#63b8ff" d="M256.49,-41C264.53,-41 272.69,-41 280.67,-41"/>
<polygon fill="#63b8ff" stroke="#63b8ff" points="256.73,-37.5 246.73,-41 256.73,-44.5 256.73,-37.5"/>
</a>
</g>
</g>
<!-- Node3 -->
<g id="Node000003" class="node">
<title>Node3</title>
<g id="a_Node000003"><a xlink:href="interface_data_1_1_hash_function_1_1_i_hash_function.html" target="_top" xlink:title="Common interface to non&#45;cryptographic hash functions.">
<polygon fill="white" stroke="#666666" points="79.75,-51 0,-51 0,-31 79.75,-31 79.75,-51"/>
<text text-anchor="middle" x="39.88" y="-37.5" font-family="Helvetica,sans-Serif" font-size="10.00">IHashFunction</text>
</a>
</g>
</g>
<!-- Node3&#45;&gt;Node2 -->
<g id="edge2_Node000002_Node000003" class="edge">
<title>Node3&#45;&gt;Node2</title>
<g id="a_edge2_Node000002_Node000003"><a xlink:title=" ">
<path fill="none" stroke="#63b8ff" d="M91.6,-41C99.32,-41 107.37,-41 115.33,-41"/>
<polygon fill="#63b8ff" stroke="#63b8ff" points="91.71,-37.5 81.71,-41 91.71,-44.5 91.71,-37.5"/>
</a>
</g>
</g>
<!-- Node5 -->
<g id="Node000005" class="node">
<title>Node5</title>
<g id="a_Node000005"><a xlink:href="class_data_1_1_hash_function_1_1_jenkins_1_1_jenkins_lookup2___implementation.html" target="_top" xlink:title=" ">
<polygon fill="white" stroke="#666666" points="801.88,-82 643.38,-82 643.38,-50 801.88,-50 801.88,-82"/>
<text text-anchor="start" x="651.38" y="-68.5" font-family="Helvetica,sans-Serif" font-size="10.00">Data.HashFunction.Jenkins.</text>
<text text-anchor="middle" x="722.62" y="-56.5" font-family="Helvetica,sans-Serif" font-size="10.00">JenkinsLookup2_Implementation</text>
</a>
</g>
</g>
<!-- Node4&#45;&gt;Node5 -->
<g id="edge4_Node000004_Node000005" class="edge">
<title>Node4&#45;&gt;Node5</title>
<g id="a_edge4_Node000004_Node000005"><a xlink:title=" ">
<path fill="none" stroke="#63b8ff" d="M609.71,-66C620.71,-66 631.98,-66 642.93,-66"/>
<polygon fill="#63b8ff" stroke="#63b8ff" points="609.9,-62.5 599.9,-66 609.9,-69.5 609.9,-62.5"/>
</a>
</g>
</g>
<!-- Node7 -->
<g id="Node000007" class="node">
<title>Node7</title>
<g id="a_Node000007"><a xlink:href="class_data_1_1_hash_function_1_1_jenkins_1_1_jenkins_one_at_a_time___implementation.html" target="_top" xlink:title=" ">
<polygon fill="white" stroke="#666666" points="811.25,-32 634,-32 634,0 811.25,0 811.25,-32"/>
<text text-anchor="start" x="642" y="-18.5" font-family="Helvetica,sans-Serif" font-size="10.00">Data.HashFunction.Jenkins.</text>
<text text-anchor="middle" x="722.62" y="-6.5" font-family="Helvetica,sans-Serif" font-size="10.00">JenkinsOneAtATime_Implementation</text>
</a>
</g>
</g>
<!-- Node6&#45;&gt;Node7 -->
<g id="edge6_Node000006_Node000007" class="edge">
<title>Node6&#45;&gt;Node7</title>
<g id="a_edge6_Node000006_Node000007"><a xlink:title=" ">
<path fill="none" stroke="#63b8ff" d="M609.79,-16C617.67,-16 625.68,-16 633.62,-16"/>
<polygon fill="#63b8ff" stroke="#63b8ff" points="609.9,-12.5 599.9,-16 609.9,-19.5 609.9,-12.5"/>
</a>
</g>
</g>
</g>
</svg>
