<?xml version="1.0" encoding="UTF-8" standalone="no"?>
<!DOCTYPE svg PUBLIC "-//W3C//DTD SVG 1.1//EN"
 "http://www.w3.org/Graphics/SVG/1.1/DTD/svg11.dtd">
<!-- Generated by graphviz version 12.2.0 (20241103.1931)
 -->
<!-- Title: Data.HashFunction.MurmurHash.IMurmurHash3 Pages: 1 -->
<svg width="184pt" height="220pt"
 viewBox="0.00 0.00 183.75 220.00" xmlns="http://www.w3.org/2000/svg" xmlns:xlink="http://www.w3.org/1999/xlink">
<g id="graph0" class="graph" transform="scale(1 1) rotate(0) translate(4 216)">
<title>Data.HashFunction.MurmurHash.IMurmurHash3</title>
<!-- Node1 -->
<g id="Node000001" class="node">
<title>Node1</title>
<g id="a_Node000001"><a xlink:title="Implementation of MurmurHash3 as specified at https://github.com/aappleby/smhasher/blob/master/src/Mu...">
<polygon fill="#999999" stroke="#666666" points="156.25,-100 19.5,-100 19.5,-68 156.25,-68 156.25,-100"/>
<text text-anchor="start" x="27.5" y="-86.5" font-family="Helvetica,sans-Serif" font-size="10.00">Data.HashFunction.Murmur</text>
<text text-anchor="middle" x="87.88" y="-74.5" font-family="Helvetica,sans-Serif" font-size="10.00">Hash.IMurmurHash3</text>
</a>
</g>
</g>
<!-- Node4 -->
<g id="Node000004" class="node">
<title>Node4</title>
<g id="a_Node000004"><a xlink:href="class_data_1_1_hash_function_1_1_murmur_hash_1_1_murmur_hash3___implementation.html" target="_top" xlink:title=" ">
<polygon fill="white" stroke="#666666" points="175.75,-32 0,-32 0,0 175.75,0 175.75,-32"/>
<text text-anchor="start" x="8" y="-18.5" font-family="Helvetica,sans-Serif" font-size="10.00">Data.HashFunction.Murmur</text>
<text text-anchor="middle" x="87.88" y="-6.5" font-family="Helvetica,sans-Serif" font-size="10.00">Hash.MurmurHash3_Implementation</text>
</a>
</g>
</g>
<!-- Node1&#45;&gt;Node4 -->
<g id="edge3_Node000001_Node000004" class="edge">
<title>Node1&#45;&gt;Node4</title>
<g id="a_edge3_Node000001_Node000004"><a xlink:title=" ">
<path fill="none" stroke="#63b8ff" d="M87.88,-56.31C87.88,-48.12 87.88,-39.38 87.88,-32.22"/>
<polygon fill="#63b8ff" stroke="#63b8ff" points="84.38,-56.18 87.88,-66.18 91.38,-56.18 84.38,-56.18"/>
</a>
</g>
</g>
<!-- Node2 -->
<g id="Node000002" class="node">
<title>Node2</title>
<g id="a_Node000002"><a xlink:href="interface_data_1_1_hash_function_1_1_i_streamable_hash_function.html" target="_top" xlink:title="Common interface to non&#45;cryptographic hash functions that can be computed over a stream of data witho...">
<polygon fill="white" stroke="#666666" points="152.5,-156 23.25,-156 23.25,-136 152.5,-136 152.5,-156"/>
<text text-anchor="middle" x="87.88" y="-142.5" font-family="Helvetica,sans-Serif" font-size="10.00">IStreamableHashFunction</text>
</a>
</g>
</g>
<!-- Node2&#45;&gt;Node1 -->
<g id="edge1_Node000001_Node000002" class="edge">
<title>Node2&#45;&gt;Node1</title>
<g id="a_edge1_Node000001_Node000002"><a xlink:title=" ">
<path fill="none" stroke="#63b8ff" d="M87.88,-124.31C87.88,-116.37 87.88,-107.46 87.88,-100.14"/>
<polygon fill="#63b8ff" stroke="#63b8ff" points="84.38,-124.11 87.88,-134.11 91.38,-124.11 84.38,-124.11"/>
</a>
</g>
</g>
<!-- Node3 -->
<g id="Node000003" class="node">
<title>Node3</title>
<g id="a_Node000003"><a xlink:href="interface_data_1_1_hash_function_1_1_i_hash_function.html" target="_top" xlink:title="Common interface to non&#45;cryptographic hash functions.">
<polygon fill="white" stroke="#666666" points="127.75,-212 48,-212 48,-192 127.75,-192 127.75,-212"/>
<text text-anchor="middle" x="87.88" y="-198.5" font-family="Helvetica,sans-Serif" font-size="10.00">IHashFunction</text>
</a>
</g>
</g>
<!-- Node3&#45;&gt;Node2 -->
<g id="edge2_Node000002_Node000003" class="edge">
<title>Node3&#45;&gt;Node2</title>
<g id="a_edge2_Node000002_Node000003"><a xlink:title=" ">
<path fill="none" stroke="#63b8ff" d="M87.88,-180.13C87.88,-171.9 87.88,-162.85 87.88,-156.3"/>
<polygon fill="#63b8ff" stroke="#63b8ff" points="84.38,-180.08 87.88,-190.08 91.38,-180.08 84.38,-180.08"/>
</a>
</g>
</g>
</g>
</svg>
