<?xml version="1.0" encoding="UTF-8" standalone="no"?>
<!DOCTYPE svg PUBLIC "-//W3C//DTD SVG 1.1//EN"
 "http://www.w3.org/Graphics/SVG/1.1/DTD/svg11.dtd">
<!-- Generated by graphviz version 12.2.0 (20241103.1931)
 -->
<!-- Title: Data.HashFunction.FNV.IFNVConfig.Clone Pages: 1 -->
<svg width="422pt" height="164pt"
 viewBox="0.00 0.00 421.75 164.00" xmlns="http://www.w3.org/2000/svg" xmlns:xlink="http://www.w3.org/1999/xlink">
<g id="graph0" class="graph" transform="scale(1 1) rotate(0) translate(4 160)">
<title>Data.HashFunction.FNV.IFNVConfig.Clone</title>
<!-- Node1 -->
<g id="Node000001" class="node">
<title>Node1</title>
<g id="a_Node000001"><a xlink:title="Makes a deep clone of current instance.">
<polygon fill="#999999" stroke="#666666" points="413.75,-88 232.75,-88 232.75,-56 413.75,-56 413.75,-88"/>
<text text-anchor="start" x="240.75" y="-74.5" font-family="Helvetica,sans-Serif" font-size="10.00">Data.HashFunction.FNV.IFNVConfig.</text>
<text text-anchor="middle" x="323.25" y="-62.5" font-family="Helvetica,sans-Serif" font-size="10.00">Clone</text>
</a>
</g>
</g>
<!-- Node2 -->
<g id="Node000002" class="node">
<title>Node2</title>
<g id="a_Node000002"><a xlink:href="class_data_1_1_hash_function_1_1_test_1_1_f_n_v_1_1_f_n_v1___implementation___tests.html#aab42e14b493e7235d51cec78fe87852a" target="_top" xlink:title=" ">
<polygon fill="white" stroke="#666666" points="196.75,-156 0,-156 0,-112 196.75,-112 196.75,-156"/>
<text text-anchor="start" x="8" y="-142.5" font-family="Helvetica,sans-Serif" font-size="10.00">Data.HashFunction.Test.FNV.</text>
<text text-anchor="start" x="8" y="-130.5" font-family="Helvetica,sans-Serif" font-size="10.00">FNV1_Implementation_Tests.FNV1</text>
<text text-anchor="middle" x="98.38" y="-118.5" font-family="Helvetica,sans-Serif" font-size="10.00">_Implementation_Config_IsCloneOfClone</text>
</a>
</g>
</g>
<!-- Node1&#45;&gt;Node2 -->
<g id="edge1_Node000001_Node000002" class="edge">
<title>Node1&#45;&gt;Node2</title>
<g id="a_edge1_Node000001_Node000002"><a xlink:title=" ">
<path fill="none" stroke="#63b8ff" d="M252.13,-91.51C229.29,-97.86 203.75,-104.96 180.19,-111.52"/>
<polygon fill="#63b8ff" stroke="#63b8ff" points="252.95,-94.91 261.65,-88.86 251.08,-88.17 252.95,-94.91"/>
</a>
</g>
</g>
<!-- Node3 -->
<g id="Node000003" class="node">
<title>Node3</title>
<g id="a_Node000003"><a xlink:href="class_data_1_1_hash_function_1_1_test_1_1_f_n_v_1_1_f_n_v1a___implementation___tests.html#a9b8b2a1dcc6a35ba134fd0968d890e0f" target="_top" xlink:title=" ">
<polygon fill="white" stroke="#666666" points="196.75,-94 0,-94 0,-50 196.75,-50 196.75,-94"/>
<text text-anchor="start" x="8" y="-80.5" font-family="Helvetica,sans-Serif" font-size="10.00">Data.HashFunction.Test.FNV.</text>
<text text-anchor="start" x="8" y="-68.5" font-family="Helvetica,sans-Serif" font-size="10.00">FNV1a_Implementation_Tests.FNV1a</text>
<text text-anchor="middle" x="98.38" y="-56.5" font-family="Helvetica,sans-Serif" font-size="10.00">_Implementation_Config_IsCloneOfClone</text>
</a>
</g>
</g>
<!-- Node1&#45;&gt;Node3 -->
<g id="edge2_Node000001_Node000003" class="edge">
<title>Node1&#45;&gt;Node3</title>
<g id="a_edge2_Node000001_Node000003"><a xlink:title=" ">
<path fill="none" stroke="#63b8ff" d="M221.2,-72C213.12,-72 204.96,-72 196.91,-72"/>
<polygon fill="#63b8ff" stroke="#63b8ff" points="221.05,-75.5 231.05,-72 221.05,-68.5 221.05,-75.5"/>
</a>
</g>
</g>
<!-- Node4 -->
<g id="Node000004" class="node">
<title>Node4</title>
<g id="a_Node000004"><a xlink:href="class_data_1_1_hash_function_1_1_f_n_v_1_1_f_n_v1_base.html#a77c98e3ddc498cebd3948113612ea9a4" target="_top" xlink:title=" ">
<polygon fill="white" stroke="#666666" points="174.25,-32 22.5,-32 22.5,0 174.25,0 174.25,-32"/>
<text text-anchor="start" x="30.5" y="-18.5" font-family="Helvetica,sans-Serif" font-size="10.00">Data.HashFunction.FNV.FNV1</text>
<text text-anchor="middle" x="98.38" y="-6.5" font-family="Helvetica,sans-Serif" font-size="10.00">Base.FNV1Base</text>
</a>
</g>
</g>
<!-- Node1&#45;&gt;Node4 -->
<g id="edge3_Node000001_Node000004" class="edge">
<title>Node1&#45;&gt;Node4</title>
<g id="a_edge3_Node000001_Node000004"><a xlink:title=" ">
<path fill="none" stroke="#63b8ff" d="M245.54,-52.73C219.31,-46.13 190.23,-38.83 164.95,-32.48"/>
<polygon fill="#63b8ff" stroke="#63b8ff" points="244.57,-56.09 255.12,-55.13 246.27,-49.3 244.57,-56.09"/>
</a>
</g>
</g>
</g>
</svg>
