<?xml version="1.0" encoding="UTF-8" standalone="no"?>
<!DOCTYPE svg PUBLIC "-//W3C//DTD SVG 1.1//EN"
 "http://www.w3.org/Graphics/SVG/1.1/DTD/svg11.dtd">
<!-- Generated by graphviz version 12.2.0 (20241103.1931)
 -->
<!-- Title: Data.HashFunction.SpookyHash.ISpookyHashV1 Pages: 1 -->
<svg width="191pt" height="220pt"
 viewBox="0.00 0.00 190.50 220.00" xmlns="http://www.w3.org/2000/svg" xmlns:xlink="http://www.w3.org/1999/xlink">
<g id="graph0" class="graph" transform="scale(1 1) rotate(0) translate(4 216)">
<title>Data.HashFunction.SpookyHash.ISpookyHashV1</title>
<!-- Node1 -->
<g id="Node000001" class="node">
<title>Node1</title>
<g id="a_Node000001"><a xlink:title="Implementation of SpookyHash V1 as specified at http://burtleburtle.net/bob/hash/spooky....">
<polygon fill="#999999" stroke="#666666" points="159.62,-100 22.88,-100 22.88,-68 159.62,-68 159.62,-100"/>
<text text-anchor="start" x="30.88" y="-86.5" font-family="Helvetica,sans-Serif" font-size="10.00">Data.HashFunction.Spooky</text>
<text text-anchor="middle" x="91.25" y="-74.5" font-family="Helvetica,sans-Serif" font-size="10.00">Hash.ISpookyHashV1</text>
</a>
</g>
</g>
<!-- Node4 -->
<g id="Node000004" class="node">
<title>Node4</title>
<g id="a_Node000004"><a xlink:href="class_data_1_1_hash_function_1_1_spooky_hash_1_1_spooky_hash_v1___implementation.html" target="_top" xlink:title=" ">
<polygon fill="white" stroke="#666666" points="182.5,-32 0,-32 0,0 182.5,0 182.5,-32"/>
<text text-anchor="start" x="8" y="-18.5" font-family="Helvetica,sans-Serif" font-size="10.00">Data.HashFunction.Spooky</text>
<text text-anchor="middle" x="91.25" y="-6.5" font-family="Helvetica,sans-Serif" font-size="10.00">Hash.SpookyHashV1_Implementation</text>
</a>
</g>
</g>
<!-- Node1&#45;&gt;Node4 -->
<g id="edge3_Node000001_Node000004" class="edge">
<title>Node1&#45;&gt;Node4</title>
<g id="a_edge3_Node000001_Node000004"><a xlink:title=" ">
<path fill="none" stroke="#63b8ff" d="M91.25,-56.31C91.25,-48.12 91.25,-39.38 91.25,-32.22"/>
<polygon fill="#63b8ff" stroke="#63b8ff" points="87.75,-56.18 91.25,-66.18 94.75,-56.18 87.75,-56.18"/>
</a>
</g>
</g>
<!-- Node2 -->
<g id="Node000002" class="node">
<title>Node2</title>
<g id="a_Node000002"><a xlink:href="interface_data_1_1_hash_function_1_1_i_streamable_hash_function.html" target="_top" xlink:title="Common interface to non&#45;cryptographic hash functions that can be computed over a stream of data witho...">
<polygon fill="white" stroke="#666666" points="155.88,-156 26.62,-156 26.62,-136 155.88,-136 155.88,-156"/>
<text text-anchor="middle" x="91.25" y="-142.5" font-family="Helvetica,sans-Serif" font-size="10.00">IStreamableHashFunction</text>
</a>
</g>
</g>
<!-- Node2&#45;&gt;Node1 -->
<g id="edge1_Node000001_Node000002" class="edge">
<title>Node2&#45;&gt;Node1</title>
<g id="a_edge1_Node000001_Node000002"><a xlink:title=" ">
<path fill="none" stroke="#63b8ff" d="M91.25,-124.31C91.25,-116.37 91.25,-107.46 91.25,-100.14"/>
<polygon fill="#63b8ff" stroke="#63b8ff" points="87.75,-124.11 91.25,-134.11 94.75,-124.11 87.75,-124.11"/>
</a>
</g>
</g>
<!-- Node3 -->
<g id="Node000003" class="node">
<title>Node3</title>
<g id="a_Node000003"><a xlink:href="interface_data_1_1_hash_function_1_1_i_hash_function.html" target="_top" xlink:title="Common interface to non&#45;cryptographic hash functions.">
<polygon fill="white" stroke="#666666" points="131.12,-212 51.38,-212 51.38,-192 131.12,-192 131.12,-212"/>
<text text-anchor="middle" x="91.25" y="-198.5" font-family="Helvetica,sans-Serif" font-size="10.00">IHashFunction</text>
</a>
</g>
</g>
<!-- Node3&#45;&gt;Node2 -->
<g id="edge2_Node000002_Node000003" class="edge">
<title>Node3&#45;&gt;Node2</title>
<g id="a_edge2_Node000002_Node000003"><a xlink:title=" ">
<path fill="none" stroke="#63b8ff" d="M91.25,-180.13C91.25,-171.9 91.25,-162.85 91.25,-156.3"/>
<polygon fill="#63b8ff" stroke="#63b8ff" points="87.75,-180.08 91.25,-190.08 94.75,-180.08 87.75,-180.08"/>
</a>
</g>
</g>
</g>
</svg>
