<?xml version="1.0" encoding="UTF-8" standalone="no"?>
<!DOCTYPE svg PUBLIC "-//W3C//DTD SVG 1.1//EN"
 "http://www.w3.org/Graphics/SVG/1.1/DTD/svg11.dtd">
<!-- Generated by graphviz version 12.2.0 (20241103.1931)
 -->
<!-- Title: Data.HashFunction.MetroHash.IMetroHashConfig.Clone Pages: 1 -->
<svg width="383pt" height="410pt"
 viewBox="0.00 0.00 382.75 410.00" xmlns="http://www.w3.org/2000/svg" xmlns:xlink="http://www.w3.org/1999/xlink">
<g id="graph0" class="graph" transform="scale(1 1) rotate(0) translate(4 406)">
<title>Data.HashFunction.MetroHash.IMetroHashConfig.Clone</title>
<!-- Node1 -->
<g id="Node000001" class="node">
<title>Node1</title>
<g id="a_Node000001"><a xlink:title="Makes a deep clone of current instance.">
<polygon fill="#999999" stroke="#666666" points="374.75,-220 220,-220 220,-188 374.75,-188 374.75,-220"/>
<text text-anchor="start" x="228" y="-206.5" font-family="Helvetica,sans-Serif" font-size="10.00">Data.HashFunction.MetroHash.</text>
<text text-anchor="middle" x="297.38" y="-194.5" font-family="Helvetica,sans-Serif" font-size="10.00">IMetroHashConfig.Clone</text>
</a>
</g>
</g>
<!-- Node2 -->
<g id="Node000002" class="node">
<title>Node2</title>
<g id="a_Node000002"><a xlink:href="class_data_1_1_hash_function_1_1_metro_hash_1_1_metro_hash128___implementation.html#a93c67719ad914d4ed95157f4de7d1070" target="_top" xlink:title=" ">
<polygon fill="white" stroke="#666666" points="181.75,-402 2.25,-402 2.25,-358 181.75,-358 181.75,-402"/>
<text text-anchor="start" x="10.25" y="-388.5" font-family="Helvetica,sans-Serif" font-size="10.00">Data.HashFunction.MetroHash.</text>
<text text-anchor="start" x="10.25" y="-376.5" font-family="Helvetica,sans-Serif" font-size="10.00">MetroHash128_Implementation.Metro</text>
<text text-anchor="middle" x="92" y="-364.5" font-family="Helvetica,sans-Serif" font-size="10.00">Hash128_Implementation</text>
</a>
</g>
</g>
<!-- Node1&#45;&gt;Node2 -->
<g id="edge1_Node000001_Node000002" class="edge">
<title>Node1&#45;&gt;Node2</title>
<g id="a_edge1_Node000001_Node000002"><a xlink:title=" ">
<path fill="none" stroke="#63b8ff" d="M282.53,-230.11C264.13,-262.44 228.68,-317.11 184,-349 179.52,-352.2 174.68,-355.09 169.65,-357.7"/>
<polygon fill="#63b8ff" stroke="#63b8ff" points="285.36,-232.23 287.16,-221.78 279.24,-228.83 285.36,-232.23"/>
</a>
</g>
</g>
<!-- Node3 -->
<g id="Node000003" class="node">
<title>Node3</title>
<g id="a_Node000003"><a xlink:href="class_data_1_1_hash_function_1_1_test_1_1_metro_hash_1_1_metro_hash128___implementation___tests.html#a30d35780ca67e17200f109b2c39b71f2" target="_top" xlink:title=" ">
<polygon fill="white" stroke="#666666" points="184,-340 0,-340 0,-284 184,-284 184,-340"/>
<text text-anchor="start" x="8" y="-326.5" font-family="Helvetica,sans-Serif" font-size="10.00">Data.HashFunction.Test.Metro</text>
<text text-anchor="start" x="8" y="-314.5" font-family="Helvetica,sans-Serif" font-size="10.00">Hash.MetroHash128_Implementation</text>
<text text-anchor="start" x="8" y="-302.5" font-family="Helvetica,sans-Serif" font-size="10.00">_Tests.MetroHash128_Implementation</text>
<text text-anchor="middle" x="92" y="-290.5" font-family="Helvetica,sans-Serif" font-size="10.00">_Config_IsCloneOfClone</text>
</a>
</g>
</g>
<!-- Node1&#45;&gt;Node3 -->
<g id="edge2_Node000001_Node000003" class="edge">
<title>Node1&#45;&gt;Node3</title>
<g id="a_edge2_Node000001_Node000003"><a xlink:title=" ">
<path fill="none" stroke="#63b8ff" d="M263.92,-226.67C241.95,-241.47 211.94,-260.64 184,-275 178.24,-277.96 172.18,-280.86 166.04,-283.65"/>
<polygon fill="#63b8ff" stroke="#63b8ff" points="265.86,-229.58 272.16,-221.06 261.92,-223.79 265.86,-229.58"/>
</a>
</g>
</g>
<!-- Node4 -->
<g id="Node000004" class="node">
<title>Node4</title>
<g id="a_Node000004"><a xlink:href="class_data_1_1_hash_function_1_1_test_1_1_metro_hash_1_1_metro_hash128___implementation___tests.html#a62b50f7550850ce8c47b8da5fd4649ce" target="_top" xlink:title=" ">
<polygon fill="white" stroke="#666666" points="184,-266 0,-266 0,-210 184,-210 184,-266"/>
<text text-anchor="start" x="8" y="-252.5" font-family="Helvetica,sans-Serif" font-size="10.00">Data.HashFunction.Test.Metro</text>
<text text-anchor="start" x="8" y="-240.5" font-family="Helvetica,sans-Serif" font-size="10.00">Hash.MetroHash128_Implementation</text>
<text text-anchor="start" x="8" y="-228.5" font-family="Helvetica,sans-Serif" font-size="10.00">_Tests.MetroHash128_Implementation</text>
<text text-anchor="middle" x="92" y="-216.5" font-family="Helvetica,sans-Serif" font-size="10.00">_HashSizeInBits_Is64</text>
</a>
</g>
</g>
<!-- Node1&#45;&gt;Node4 -->
<g id="edge3_Node000001_Node000004" class="edge">
<title>Node1&#45;&gt;Node4</title>
<g id="a_edge3_Node000001_Node000004"><a xlink:title=" ">
<path fill="none" stroke="#63b8ff" d="M208.51,-218.69C200.47,-220.03 192.32,-221.4 184.25,-222.75"/>
<polygon fill="#63b8ff" stroke="#63b8ff" points="209,-222.16 218.28,-217.06 207.84,-215.25 209,-222.16"/>
</a>
</g>
</g>
<!-- Node5 -->
<g id="Node000005" class="node">
<title>Node5</title>
<g id="a_Node000005"><a xlink:href="class_data_1_1_hash_function_1_1_metro_hash_1_1_metro_hash64___implementation.html#a8262fe70959d796bdd029a0a7d3a5b5b" target="_top" xlink:title=" ">
<polygon fill="white" stroke="#666666" points="179.12,-192 4.88,-192 4.88,-148 179.12,-148 179.12,-192"/>
<text text-anchor="start" x="12.88" y="-178.5" font-family="Helvetica,sans-Serif" font-size="10.00">Data.HashFunction.MetroHash.</text>
<text text-anchor="start" x="12.88" y="-166.5" font-family="Helvetica,sans-Serif" font-size="10.00">MetroHash64_Implementation.Metro</text>
<text text-anchor="middle" x="92" y="-154.5" font-family="Helvetica,sans-Serif" font-size="10.00">Hash64_Implementation</text>
</a>
</g>
</g>
<!-- Node1&#45;&gt;Node5 -->
<g id="edge4_Node000001_Node000005" class="edge">
<title>Node1&#45;&gt;Node5</title>
<g id="a_edge4_Node000001_Node000005"><a xlink:title=" ">
<path fill="none" stroke="#63b8ff" d="M208.54,-189.32C198.88,-187.7 189.06,-186.06 179.42,-184.45"/>
<polygon fill="#63b8ff" stroke="#63b8ff" points="207.84,-192.75 218.28,-190.94 209,-185.84 207.84,-192.75"/>
</a>
</g>
</g>
<!-- Node6 -->
<g id="Node000006" class="node">
<title>Node6</title>
<g id="a_Node000006"><a xlink:href="class_data_1_1_hash_function_1_1_test_1_1_metro_hash_1_1_metro_hash64___implementation___tests.html#a74140c4fac83da6521ef72243f7f9ab3" target="_top" xlink:title=" ">
<polygon fill="white" stroke="#666666" points="181.38,-130 2.62,-130 2.62,-74 181.38,-74 181.38,-130"/>
<text text-anchor="start" x="10.62" y="-116.5" font-family="Helvetica,sans-Serif" font-size="10.00">Data.HashFunction.Test.Metro</text>
<text text-anchor="start" x="10.62" y="-104.5" font-family="Helvetica,sans-Serif" font-size="10.00">Hash.MetroHash64_Implementation</text>
<text text-anchor="start" x="10.62" y="-92.5" font-family="Helvetica,sans-Serif" font-size="10.00">_Tests.MetroHash64_Implementation</text>
<text text-anchor="middle" x="92" y="-80.5" font-family="Helvetica,sans-Serif" font-size="10.00">_Config_IsCloneOfClone</text>
</a>
</g>
</g>
<!-- Node1&#45;&gt;Node6 -->
<g id="edge5_Node000001_Node000006" class="edge">
<title>Node1&#45;&gt;Node6</title>
<g id="a_edge5_Node000001_Node000006"><a xlink:title=" ">
<path fill="none" stroke="#63b8ff" d="M260.81,-181.73C239.04,-168.53 210.39,-151.92 184,-139 178.03,-136.08 171.76,-133.18 165.43,-130.38"/>
<polygon fill="#63b8ff" stroke="#63b8ff" points="258.95,-184.7 269.3,-186.93 262.6,-178.73 258.95,-184.7"/>
</a>
</g>
</g>
<!-- Node7 -->
<g id="Node000007" class="node">
<title>Node7</title>
<g id="a_Node000007"><a xlink:href="class_data_1_1_hash_function_1_1_test_1_1_metro_hash_1_1_metro_hash64___implementation___tests.html#a8345a6bb85975b67022dde2cd080b2ec" target="_top" xlink:title=" ">
<polygon fill="white" stroke="#666666" points="181.38,-56 2.62,-56 2.62,0 181.38,0 181.38,-56"/>
<text text-anchor="start" x="10.62" y="-42.5" font-family="Helvetica,sans-Serif" font-size="10.00">Data.HashFunction.Test.Metro</text>
<text text-anchor="start" x="10.62" y="-30.5" font-family="Helvetica,sans-Serif" font-size="10.00">Hash.MetroHash64_Implementation</text>
<text text-anchor="start" x="10.62" y="-18.5" font-family="Helvetica,sans-Serif" font-size="10.00">_Tests.MetroHash64_Implementation</text>
<text text-anchor="middle" x="92" y="-6.5" font-family="Helvetica,sans-Serif" font-size="10.00">_HashSizeInBits_Is64</text>
</a>
</g>
</g>
<!-- Node1&#45;&gt;Node7 -->
<g id="edge6_Node000001_Node000007" class="edge">
<title>Node1&#45;&gt;Node7</title>
<g id="a_edge6_Node000001_Node000007"><a xlink:title=" ">
<path fill="none" stroke="#63b8ff" d="M281.12,-178.02C261.93,-147.3 226.31,-96.41 184,-65 179.89,-61.95 175.5,-59.11 170.94,-56.46"/>
<polygon fill="#63b8ff" stroke="#63b8ff" points="277.99,-179.61 286.2,-186.31 283.97,-175.96 277.99,-179.61"/>
</a>
</g>
</g>
</g>
</svg>
