<?xml version="1.0" encoding="UTF-8" standalone="no"?>
<!DOCTYPE svg PUBLIC "-//W3C//DTD SVG 1.1//EN"
 "http://www.w3.org/Graphics/SVG/1.1/DTD/svg11.dtd">
<!-- Generated by graphviz version 12.2.0 (20241103.1931)
 -->
<!-- Title: Data.HashFunction.CRC.ICRCConfig.Clone Pages: 1 -->
<svg width="427pt" height="164pt"
 viewBox="0.00 0.00 427.00 164.00" xmlns="http://www.w3.org/2000/svg" xmlns:xlink="http://www.w3.org/1999/xlink">
<g id="graph0" class="graph" transform="scale(1 1) rotate(0) translate(4 160)">
<title>Data.HashFunction.CRC.ICRCConfig.Clone</title>
<!-- Node1 -->
<g id="Node000001" class="node">
<title>Node1</title>
<g id="a_Node000001"><a xlink:title="Makes a deep clone of current instance.">
<polygon fill="#999999" stroke="#666666" points="419,-100 232.75,-100 232.75,-68 419,-68 419,-100"/>
<text text-anchor="start" x="240.75" y="-86.5" font-family="Helvetica,sans-Serif" font-size="10.00">Data.HashFunction.CRC.ICRCConfig.</text>
<text text-anchor="middle" x="325.88" y="-74.5" font-family="Helvetica,sans-Serif" font-size="10.00">Clone</text>
</a>
</g>
</g>
<!-- Node2 -->
<g id="Node000002" class="node">
<title>Node2</title>
<g id="a_Node000002"><a xlink:href="class_data_1_1_hash_function_1_1_c_r_c_1_1_c_r_c___implementation.html#a1adfa92d5f83c154f783a1d38b36de4d" target="_top" xlink:title=" ">
<polygon fill="white" stroke="#666666" points="191.12,-156 5.62,-156 5.62,-124 191.12,-124 191.12,-156"/>
<text text-anchor="start" x="13.62" y="-142.5" font-family="Helvetica,sans-Serif" font-size="10.00">Data.HashFunction.CRC.CRC</text>
<text text-anchor="middle" x="98.38" y="-130.5" font-family="Helvetica,sans-Serif" font-size="10.00">_Implementation.CRC_Implementation</text>
</a>
</g>
</g>
<!-- Node1&#45;&gt;Node2 -->
<g id="edge1_Node000001_Node000002" class="edge">
<title>Node1&#45;&gt;Node2</title>
<g id="a_edge1_Node000001_Node000002"><a xlink:title=" ">
<path fill="none" stroke="#63b8ff" d="M247.61,-103.19C220.98,-109.8 191.41,-117.14 165.73,-123.52"/>
<polygon fill="#63b8ff" stroke="#63b8ff" points="248.11,-106.67 256.97,-100.86 246.42,-99.88 248.11,-106.67"/>
</a>
</g>
</g>
<!-- Node3 -->
<g id="Node000003" class="node">
<title>Node3</title>
<g id="a_Node000003"><a xlink:href="class_data_1_1_hash_function_1_1_test_1_1_c_r_c_1_1_c_r_c___implementation___tests.html#a42fbaf107073dea4f1498eaccf8fa13a" target="_top" xlink:title=" ">
<polygon fill="white" stroke="#666666" points="196.75,-106 0,-106 0,-62 196.75,-62 196.75,-106"/>
<text text-anchor="start" x="8" y="-92.5" font-family="Helvetica,sans-Serif" font-size="10.00">Data.HashFunction.Test.CRC.</text>
<text text-anchor="start" x="8" y="-80.5" font-family="Helvetica,sans-Serif" font-size="10.00">CRC_Implementation_Tests.CRC</text>
<text text-anchor="middle" x="98.38" y="-68.5" font-family="Helvetica,sans-Serif" font-size="10.00">_Implementation_Config_IsCloneOfClone</text>
</a>
</g>
</g>
<!-- Node1&#45;&gt;Node3 -->
<g id="edge2_Node000001_Node000003" class="edge">
<title>Node1&#45;&gt;Node3</title>
<g id="a_edge2_Node000001_Node000003"><a xlink:title=" ">
<path fill="none" stroke="#63b8ff" d="M221.21,-84C213.18,-84 205.08,-84 197.09,-84"/>
<polygon fill="#63b8ff" stroke="#63b8ff" points="220.99,-87.5 230.99,-84 220.99,-80.5 220.99,-87.5"/>
</a>
</g>
</g>
<!-- Node4 -->
<g id="Node000004" class="node">
<title>Node4</title>
<g id="a_Node000004"><a xlink:href="class_data_1_1_hash_function_1_1_test_1_1_c_r_c_1_1_c_r_c_config___tests.html#a777f7b8ec09ca5540ca8011efcc5cefb" target="_top" xlink:title=" ">
<polygon fill="white" stroke="#666666" points="173.88,-44 22.88,-44 22.88,0 173.88,0 173.88,-44"/>
<text text-anchor="start" x="30.88" y="-30.5" font-family="Helvetica,sans-Serif" font-size="10.00">Data.HashFunction.Test.CRC.</text>
<text text-anchor="start" x="30.88" y="-18.5" font-family="Helvetica,sans-Serif" font-size="10.00">CRCConfig_Tests.CRCConfig</text>
<text text-anchor="middle" x="98.38" y="-6.5" font-family="Helvetica,sans-Serif" font-size="10.00">_Clone_Works</text>
</a>
</g>
</g>
<!-- Node1&#45;&gt;Node4 -->
<g id="edge3_Node000001_Node000004" class="edge">
<title>Node1&#45;&gt;Node4</title>
<g id="a_edge3_Node000001_Node000004"><a xlink:title=" ">
<path fill="none" stroke="#63b8ff" d="M253.98,-64.51C228.54,-57.51 199.78,-49.61 174.03,-42.53"/>
<polygon fill="#63b8ff" stroke="#63b8ff" points="253.01,-67.87 263.58,-67.15 254.86,-61.12 253.01,-67.87"/>
</a>
</g>
</g>
</g>
</svg>
