<?xml version="1.0" encoding="UTF-8" standalone="no"?>
<!DOCTYPE svg PUBLIC "-//W3C//DTD SVG 1.1//EN"
 "http://www.w3.org/Graphics/SVG/1.1/DTD/svg11.dtd">
<!-- Generated by graphviz version 12.2.0 (20241103.1931)
 -->
<!-- Title: Data.HashFunction.IHashFunction.ComputeHash Pages: 1 -->
<svg width="382pt" height="1340pt"
 viewBox="0.00 0.00 382.00 1340.00" xmlns="http://www.w3.org/2000/svg" xmlns:xlink="http://www.w3.org/1999/xlink">
<g id="graph0" class="graph" transform="scale(1 1) rotate(0) translate(4 1336)">
<title>Data.HashFunction.IHashFunction.ComputeHash</title>
<!-- Node1 -->
<g id="Node000001" class="node">
<title>Node1</title>
<g id="a_Node000001"><a xlink:title="Computes hash value for given byte array.">
<polygon fill="#999999" stroke="#666666" points="374,-682 203.5,-682 203.5,-650 374,-650 374,-682"/>
<text text-anchor="start" x="211.5" y="-668.5" font-family="Helvetica,sans-Serif" font-size="10.00">Data.HashFunction.IHashFunction.</text>
<text text-anchor="middle" x="288.75" y="-656.5" font-family="Helvetica,sans-Serif" font-size="10.00">ComputeHash</text>
</a>
</g>
</g>
<!-- Node2 -->
<g id="Node000002" class="node">
<title>Node2</title>
<g id="a_Node000002"><a xlink:href="class_data_1_1_hash_function_1_1_i_hash_function___extensions.html#a16077964c33aa62b5b42f6570795a159" target="_top" xlink:title="Computes hash value for given data.">
<polygon fill="white" stroke="#666666" points="167.5,-1332 0,-1332 0,-1300 167.5,-1300 167.5,-1332"/>
<text text-anchor="start" x="8" y="-1318.5" font-family="Helvetica,sans-Serif" font-size="10.00">Data.HashFunction.IHashFunction</text>
<text text-anchor="middle" x="83.75" y="-1306.5" font-family="Helvetica,sans-Serif" font-size="10.00">_Extensions.ComputeHash</text>
</a>
</g>
</g>
<!-- Node1&#45;&gt;Node2 -->
<g id="edge1_Node000001_Node000002" class="edge">
<title>Node1&#45;&gt;Node2</title>
<g id="a_edge1_Node000001_Node000002"><a xlink:title=" ">
<path fill="none" stroke="#63b8ff" d="M286.16,-693.5C279.34,-802.22 249.08,-1200.52 167.5,-1291 164.59,-1294.23 161.27,-1297.05 157.68,-1299.51"/>
<polygon fill="#63b8ff" stroke="#63b8ff" points="289.64,-693.96 286.75,-683.77 282.65,-693.53 289.64,-693.96"/>
</a>
</g>
</g>
<!-- Node3 -->
<g id="Node000003" class="node">
<title>Node3</title>
<g id="a_Node000003"><a xlink:href="class_data_1_1_hash_function_1_1_i_hash_function___extensions.html#a3de263a328913aa513f3320e16e95ce2" target="_top" xlink:title="Computes hash value for given data.">
<polygon fill="white" stroke="#666666" points="167.5,-1282 0,-1282 0,-1250 167.5,-1250 167.5,-1282"/>
<text text-anchor="start" x="8" y="-1268.5" font-family="Helvetica,sans-Serif" font-size="10.00">Data.HashFunction.IHashFunction</text>
<text text-anchor="middle" x="83.75" y="-1256.5" font-family="Helvetica,sans-Serif" font-size="10.00">_Extensions.ComputeHash</text>
</a>
</g>
</g>
<!-- Node1&#45;&gt;Node3 -->
<g id="edge2_Node000001_Node000003" class="edge">
<title>Node1&#45;&gt;Node3</title>
<g id="a_edge2_Node000001_Node000003"><a xlink:title=" ">
<path fill="none" stroke="#63b8ff" d="M285.65,-693.61C277.27,-796.88 242.9,-1158.72 167.5,-1241 164.46,-1244.32 160.99,-1247.2 157.25,-1249.71"/>
<polygon fill="#63b8ff" stroke="#63b8ff" points="289.12,-694.09 286.43,-683.84 282.15,-693.53 289.12,-694.09"/>
</a>
</g>
</g>
<!-- Node4 -->
<g id="Node000004" class="node">
<title>Node4</title>
<g id="a_Node000004"><a xlink:href="class_data_1_1_hash_function_1_1_i_hash_function___extensions.html#a18eb38ce3a7805f7b1132d42138add46" target="_top" xlink:title="Computes hash value for given data.">
<polygon fill="white" stroke="#666666" points="167.5,-1232 0,-1232 0,-1200 167.5,-1200 167.5,-1232"/>
<text text-anchor="start" x="8" y="-1218.5" font-family="Helvetica,sans-Serif" font-size="10.00">Data.HashFunction.IHashFunction</text>
<text text-anchor="middle" x="83.75" y="-1206.5" font-family="Helvetica,sans-Serif" font-size="10.00">_Extensions.ComputeHash</text>
</a>
</g>
</g>
<!-- Node1&#45;&gt;Node4 -->
<g id="edge3_Node000001_Node000004" class="edge">
<title>Node1&#45;&gt;Node4</title>
<g id="a_edge3_Node000001_Node000004"><a xlink:title=" ">
<path fill="none" stroke="#63b8ff" d="M285.05,-693.72C274.99,-791.28 236.74,-1116.87 167.5,-1191 164.43,-1194.29 160.94,-1197.15 157.17,-1199.64"/>
<polygon fill="#63b8ff" stroke="#63b8ff" points="288.5,-694.3 286.03,-684 281.54,-693.59 288.5,-694.3"/>
</a>
</g>
</g>
<!-- Node5 -->
<g id="Node000005" class="node">
<title>Node5</title>
<g id="a_Node000005"><a xlink:href="class_data_1_1_hash_function_1_1_i_hash_function___extensions.html#a39a73c614b7e8d75f8dd5eff6ef93c8f" target="_top" xlink:title="Computes hash value for given data.">
<polygon fill="white" stroke="#666666" points="167.5,-1182 0,-1182 0,-1150 167.5,-1150 167.5,-1182"/>
<text text-anchor="start" x="8" y="-1168.5" font-family="Helvetica,sans-Serif" font-size="10.00">Data.HashFunction.IHashFunction</text>
<text text-anchor="middle" x="83.75" y="-1156.5" font-family="Helvetica,sans-Serif" font-size="10.00">_Extensions.ComputeHash</text>
</a>
</g>
</g>
<!-- Node1&#45;&gt;Node5 -->
<g id="edge4_Node000001_Node000005" class="edge">
<title>Node1&#45;&gt;Node5</title>
<g id="a_edge4_Node000001_Node000005"><a xlink:title=" ">
<path fill="none" stroke="#63b8ff" d="M284.33,-693.72C272.5,-785.13 230.64,-1074.92 167.5,-1141 164.39,-1144.26 160.87,-1147.09 157.08,-1149.56"/>
<polygon fill="#63b8ff" stroke="#63b8ff" points="287.78,-694.28 285.57,-683.92 280.84,-693.4 287.78,-694.28"/>
</a>
</g>
</g>
<!-- Node6 -->
<g id="Node000006" class="node">
<title>Node6</title>
<g id="a_Node000006"><a xlink:href="class_data_1_1_hash_function_1_1_i_hash_function___extensions.html#a9c19ceba3d6731e0d8488cf18c86eb97" target="_top" xlink:title="Computes hash value for given data.">
<polygon fill="white" stroke="#666666" points="167.5,-1132 0,-1132 0,-1100 167.5,-1100 167.5,-1132"/>
<text text-anchor="start" x="8" y="-1118.5" font-family="Helvetica,sans-Serif" font-size="10.00">Data.HashFunction.IHashFunction</text>
<text text-anchor="middle" x="83.75" y="-1106.5" font-family="Helvetica,sans-Serif" font-size="10.00">_Extensions.ComputeHash</text>
</a>
</g>
</g>
<!-- Node1&#45;&gt;Node6 -->
<g id="edge5_Node000001_Node000006" class="edge">
<title>Node1&#45;&gt;Node6</title>
<g id="a_edge5_Node000001_Node000006"><a xlink:title=" ">
<path fill="none" stroke="#63b8ff" d="M288.44,-693.3C288.79,-767.92 279.24,-977.27 167.5,-1091 164.24,-1094.32 160.56,-1097.2 156.6,-1099.7"/>
<polygon fill="#63b8ff" stroke="#63b8ff" points="291.95,-693.6 288.33,-683.65 284.95,-693.69 291.95,-693.6"/>
</a>
</g>
</g>
<!-- Node7 -->
<g id="Node000007" class="node">
<title>Node7</title>
<g id="a_Node000007"><a xlink:href="class_data_1_1_hash_function_1_1_i_hash_function___extensions.html#a6b32586584d3b8739ad2d0d17024af45" target="_top" xlink:title="Computes hash value for given data.">
<polygon fill="white" stroke="#666666" points="167.5,-1082 0,-1082 0,-1050 167.5,-1050 167.5,-1082"/>
<text text-anchor="start" x="8" y="-1068.5" font-family="Helvetica,sans-Serif" font-size="10.00">Data.HashFunction.IHashFunction</text>
<text text-anchor="middle" x="83.75" y="-1056.5" font-family="Helvetica,sans-Serif" font-size="10.00">_Extensions.ComputeHash</text>
</a>
</g>
</g>
<!-- Node1&#45;&gt;Node7 -->
<g id="edge6_Node000001_Node000007" class="edge">
<title>Node1&#45;&gt;Node7</title>
<g id="a_edge6_Node000001_Node000007"><a xlink:title=" ">
<path fill="none" stroke="#63b8ff" d="M287.22,-693.31C284.38,-761.89 267.3,-942.87 167.5,-1041 164.18,-1044.26 160.46,-1047.1 156.47,-1049.57"/>
<polygon fill="#63b8ff" stroke="#63b8ff" points="290.71,-693.84 287.54,-683.73 283.71,-693.61 290.71,-693.84"/>
</a>
</g>
</g>
<!-- Node8 -->
<g id="Node000008" class="node">
<title>Node8</title>
<g id="a_Node000008"><a xlink:href="class_data_1_1_hash_function_1_1_i_hash_function___extensions.html#a73e967326d108dcf262f81a4e22c3bbd" target="_top" xlink:title="Computes hash value for given data.">
<polygon fill="white" stroke="#666666" points="167.5,-1032 0,-1032 0,-1000 167.5,-1000 167.5,-1032"/>
<text text-anchor="start" x="8" y="-1018.5" font-family="Helvetica,sans-Serif" font-size="10.00">Data.HashFunction.IHashFunction</text>
<text text-anchor="middle" x="83.75" y="-1006.5" font-family="Helvetica,sans-Serif" font-size="10.00">_Extensions.ComputeHash</text>
</a>
</g>
</g>
<!-- Node1&#45;&gt;Node8 -->
<g id="edge7_Node000001_Node000008" class="edge">
<title>Node1&#45;&gt;Node8</title>
<g id="a_edge7_Node000001_Node000008"><a xlink:title=" ">
<path fill="none" stroke="#63b8ff" d="M285.64,-693.43C279.39,-755.61 255.41,-908.29 167.5,-991 164,-994.29 160.09,-997.15 155.91,-999.63"/>
<polygon fill="#63b8ff" stroke="#63b8ff" points="289.1,-694.04 286.54,-683.76 282.13,-693.39 289.1,-694.04"/>
</a>
</g>
</g>
<!-- Node9 -->
<g id="Node000009" class="node">
<title>Node9</title>
<g id="a_Node000009"><a xlink:href="class_data_1_1_hash_function_1_1_i_hash_function___extensions.html#a793f7efdda206725cdbf7e384a05b8a4" target="_top" xlink:title="Computes hash value for given data.">
<polygon fill="white" stroke="#666666" points="167.5,-982 0,-982 0,-950 167.5,-950 167.5,-982"/>
<text text-anchor="start" x="8" y="-968.5" font-family="Helvetica,sans-Serif" font-size="10.00">Data.HashFunction.IHashFunction</text>
<text text-anchor="middle" x="83.75" y="-956.5" font-family="Helvetica,sans-Serif" font-size="10.00">_Extensions.ComputeHash</text>
</a>
</g>
</g>
<!-- Node1&#45;&gt;Node9 -->
<g id="edge8_Node000001_Node000009" class="edge">
<title>Node1&#45;&gt;Node9</title>
<g id="a_edge8_Node000001_Node000009"><a xlink:title=" ">
<path fill="none" stroke="#63b8ff" d="M283.5,-693.71C273.56,-748.99 243.58,-873.46 167.5,-941 163.8,-944.29 159.67,-947.14 155.3,-949.62"/>
<polygon fill="#63b8ff" stroke="#63b8ff" points="286.94,-694.35 285.17,-683.9 280.04,-693.17 286.94,-694.35"/>
</a>
</g>
</g>
<!-- Node10 -->
<g id="Node000010" class="node">
<title>Node10</title>
<g id="a_Node000010"><a xlink:href="class_data_1_1_hash_function_1_1_i_hash_function___extensions.html#a702ef5146c373d144c2e46976ba45c64" target="_top" xlink:title="Computes hash value for given data.">
<polygon fill="white" stroke="#666666" points="167.5,-932 0,-932 0,-900 167.5,-900 167.5,-932"/>
<text text-anchor="start" x="8" y="-918.5" font-family="Helvetica,sans-Serif" font-size="10.00">Data.HashFunction.IHashFunction</text>
<text text-anchor="middle" x="83.75" y="-906.5" font-family="Helvetica,sans-Serif" font-size="10.00">_Extensions.ComputeHash</text>
</a>
</g>
</g>
<!-- Node1&#45;&gt;Node10 -->
<g id="edge9_Node000001_Node000010" class="edge">
<title>Node1&#45;&gt;Node10</title>
<g id="a_edge9_Node000001_Node000010"><a xlink:title=" ">
<path fill="none" stroke="#63b8ff" d="M280.65,-693.27C266.92,-740.6 232.23,-837.93 167.5,-891 163.55,-894.23 159.2,-897.05 154.61,-899.5"/>
<polygon fill="#63b8ff" stroke="#63b8ff" points="283.97,-694.41 283.29,-683.84 277.23,-692.53 283.97,-694.41"/>
</a>
</g>
</g>
<!-- Node11 -->
<g id="Node000011" class="node">
<title>Node11</title>
<g id="a_Node000011"><a xlink:href="class_data_1_1_hash_function_1_1_i_hash_function___extensions.html#a378735702b1172c16ef7b1b6e78cb6ea" target="_top" xlink:title="Computes hash value for given data.">
<polygon fill="white" stroke="#666666" points="167.5,-882 0,-882 0,-850 167.5,-850 167.5,-882"/>
<text text-anchor="start" x="8" y="-868.5" font-family="Helvetica,sans-Serif" font-size="10.00">Data.HashFunction.IHashFunction</text>
<text text-anchor="middle" x="83.75" y="-856.5" font-family="Helvetica,sans-Serif" font-size="10.00">_Extensions.ComputeHash</text>
</a>
</g>
</g>
<!-- Node1&#45;&gt;Node11 -->
<g id="edge10_Node000001_Node000011" class="edge">
<title>Node1&#45;&gt;Node11</title>
<g id="a_edge10_Node000001_Node000011"><a xlink:title=" ">
<path fill="none" stroke="#63b8ff" d="M276.48,-692.63C258.85,-731.07 221.14,-801.8 167.5,-841 163.02,-844.28 158.1,-847.13 152.97,-849.61"/>
<polygon fill="#63b8ff" stroke="#63b8ff" points="279.61,-694.19 280.49,-683.63 273.22,-691.34 279.61,-694.19"/>
</a>
</g>
</g>
<!-- Node12 -->
<g id="Node000012" class="node">
<title>Node12</title>
<g id="a_Node000012"><a xlink:href="class_data_1_1_hash_function_1_1_i_hash_function___extensions.html#a4be4b787c2224517135ef9a7820b6cc0" target="_top" xlink:title="Computes hash value for given data.">
<polygon fill="white" stroke="#666666" points="167.5,-832 0,-832 0,-800 167.5,-800 167.5,-832"/>
<text text-anchor="start" x="8" y="-818.5" font-family="Helvetica,sans-Serif" font-size="10.00">Data.HashFunction.IHashFunction</text>
<text text-anchor="middle" x="83.75" y="-806.5" font-family="Helvetica,sans-Serif" font-size="10.00">_Extensions.ComputeHash</text>
</a>
</g>
</g>
<!-- Node1&#45;&gt;Node12 -->
<g id="edge11_Node000001_Node000012" class="edge">
<title>Node1&#45;&gt;Node12</title>
<g id="a_edge11_Node000001_Node000012"><a xlink:title=" ">
<path fill="none" stroke="#63b8ff" d="M269.57,-691.62C248.22,-719.89 210.24,-764.85 167.5,-791 162.25,-794.21 156.56,-797.04 150.71,-799.51"/>
<polygon fill="#63b8ff" stroke="#63b8ff" points="272.38,-693.71 275.51,-683.59 266.75,-689.54 272.38,-693.71"/>
</a>
</g>
</g>
<!-- Node13 -->
<g id="Node000013" class="node">
<title>Node13</title>
<g id="a_Node000013"><a xlink:href="class_data_1_1_hash_function_1_1_i_hash_function___extensions.html#ae6abd86293f1432bad000cd745088a04" target="_top" xlink:title="Computes hash value for given data.">
<polygon fill="white" stroke="#666666" points="167.5,-782 0,-782 0,-750 167.5,-750 167.5,-782"/>
<text text-anchor="start" x="8" y="-768.5" font-family="Helvetica,sans-Serif" font-size="10.00">Data.HashFunction.IHashFunction</text>
<text text-anchor="middle" x="83.75" y="-756.5" font-family="Helvetica,sans-Serif" font-size="10.00">_Extensions.ComputeHash</text>
</a>
</g>
</g>
<!-- Node1&#45;&gt;Node13 -->
<g id="edge12_Node000001_Node000013" class="edge">
<title>Node1&#45;&gt;Node13</title>
<g id="a_edge12_Node000001_Node000013"><a xlink:title=" ">
<path fill="none" stroke="#63b8ff" d="M256.57,-688.66C233.02,-704.96 199.41,-726.54 167.5,-741 160.67,-744.1 153.34,-746.94 145.99,-749.51"/>
<polygon fill="#63b8ff" stroke="#63b8ff" points="258.29,-691.73 264.46,-683.12 254.27,-686 258.29,-691.73"/>
</a>
</g>
</g>
<!-- Node14 -->
<g id="Node000014" class="node">
<title>Node14</title>
<g id="a_Node000014"><a xlink:href="class_data_1_1_hash_function_1_1_i_hash_function___extensions.html#aa927bff5d698c59b8e81b23ff5088afe" target="_top" xlink:title="Computes hash value for given data.">
<polygon fill="white" stroke="#666666" points="167.5,-732 0,-732 0,-700 167.5,-700 167.5,-732"/>
<text text-anchor="start" x="8" y="-718.5" font-family="Helvetica,sans-Serif" font-size="10.00">Data.HashFunction.IHashFunction</text>
<text text-anchor="middle" x="83.75" y="-706.5" font-family="Helvetica,sans-Serif" font-size="10.00">_Extensions.ComputeHash</text>
</a>
</g>
</g>
<!-- Node1&#45;&gt;Node14 -->
<g id="edge13_Node000001_Node000014" class="edge">
<title>Node1&#45;&gt;Node14</title>
<g id="a_edge13_Node000001_Node000014"><a xlink:title=" ">
<path fill="none" stroke="#63b8ff" d="M209.84,-685.19C190.61,-689.93 170.19,-694.96 151.54,-699.55"/>
<polygon fill="#63b8ff" stroke="#63b8ff" points="210.66,-688.59 219.53,-682.8 208.98,-681.8 210.66,-688.59"/>
</a>
</g>
</g>
<!-- Node15 -->
<g id="Node000015" class="node">
<title>Node15</title>
<g id="a_Node000015"><a xlink:href="class_data_1_1_hash_function_1_1_i_hash_function___extensions.html#a08ce88f8f8b2b885d23009efc7dea976" target="_top" xlink:title="Computes hash value for given data.">
<polygon fill="white" stroke="#666666" points="167.5,-682 0,-682 0,-650 167.5,-650 167.5,-682"/>
<text text-anchor="start" x="8" y="-668.5" font-family="Helvetica,sans-Serif" font-size="10.00">Data.HashFunction.IHashFunction</text>
<text text-anchor="middle" x="83.75" y="-656.5" font-family="Helvetica,sans-Serif" font-size="10.00">_Extensions.ComputeHash</text>
</a>
</g>
</g>
<!-- Node1&#45;&gt;Node15 -->
<g id="edge14_Node000001_Node000015" class="edge">
<title>Node1&#45;&gt;Node15</title>
<g id="a_edge14_Node000001_Node000015"><a xlink:title=" ">
<path fill="none" stroke="#63b8ff" d="M191.87,-666C183.87,-666 175.82,-666 167.93,-666"/>
<polygon fill="#63b8ff" stroke="#63b8ff" points="191.62,-669.5 201.62,-666 191.62,-662.5 191.62,-669.5"/>
</a>
</g>
</g>
<!-- Node16 -->
<g id="Node000016" class="node">
<title>Node16</title>
<g id="a_Node000016"><a xlink:href="class_data_1_1_hash_function_1_1_i_hash_function___extensions.html#af2b873503e5f718e6154f8e8bab51cc9" target="_top" xlink:title="Computes hash value for given data.">
<polygon fill="white" stroke="#666666" points="167.5,-632 0,-632 0,-600 167.5,-600 167.5,-632"/>
<text text-anchor="start" x="8" y="-618.5" font-family="Helvetica,sans-Serif" font-size="10.00">Data.HashFunction.IHashFunction</text>
<text text-anchor="middle" x="83.75" y="-606.5" font-family="Helvetica,sans-Serif" font-size="10.00">_Extensions.ComputeHash</text>
</a>
</g>
</g>
<!-- Node1&#45;&gt;Node16 -->
<g id="edge15_Node000001_Node000016" class="edge">
<title>Node1&#45;&gt;Node16</title>
<g id="a_edge15_Node000001_Node000016"><a xlink:title=" ">
<path fill="none" stroke="#63b8ff" d="M209.84,-646.81C190.61,-642.07 170.19,-637.04 151.54,-632.45"/>
<polygon fill="#63b8ff" stroke="#63b8ff" points="208.98,-650.2 219.53,-649.2 210.66,-643.41 208.98,-650.2"/>
</a>
</g>
</g>
<!-- Node17 -->
<g id="Node000017" class="node">
<title>Node17</title>
<g id="a_Node000017"><a xlink:href="class_data_1_1_hash_function_1_1_i_hash_function___extensions.html#ae35cf5efc666f70dd5aba0edaf8fd03c" target="_top" xlink:title="Computes hash value for given data.">
<polygon fill="white" stroke="#666666" points="167.5,-582 0,-582 0,-550 167.5,-550 167.5,-582"/>
<text text-anchor="start" x="8" y="-568.5" font-family="Helvetica,sans-Serif" font-size="10.00">Data.HashFunction.IHashFunction</text>
<text text-anchor="middle" x="83.75" y="-556.5" font-family="Helvetica,sans-Serif" font-size="10.00">_Extensions.ComputeHash</text>
</a>
</g>
</g>
<!-- Node1&#45;&gt;Node17 -->
<g id="edge16_Node000001_Node000017" class="edge">
<title>Node1&#45;&gt;Node17</title>
<g id="a_edge16_Node000001_Node000017"><a xlink:title=" ">
<path fill="none" stroke="#63b8ff" d="M256.57,-643.34C233.02,-627.04 199.41,-605.46 167.5,-591 160.67,-587.9 153.34,-585.06 145.99,-582.49"/>
<polygon fill="#63b8ff" stroke="#63b8ff" points="254.27,-646 264.46,-648.88 258.29,-640.27 254.27,-646"/>
</a>
</g>
</g>
<!-- Node18 -->
<g id="Node000018" class="node">
<title>Node18</title>
<g id="a_Node000018"><a xlink:href="class_data_1_1_hash_function_1_1_i_hash_function___extensions.html#aeebfed208b8be53e18ff2456118cadff" target="_top" xlink:title="Computes hash value for given data.">
<polygon fill="white" stroke="#666666" points="167.5,-532 0,-532 0,-500 167.5,-500 167.5,-532"/>
<text text-anchor="start" x="8" y="-518.5" font-family="Helvetica,sans-Serif" font-size="10.00">Data.HashFunction.IHashFunction</text>
<text text-anchor="middle" x="83.75" y="-506.5" font-family="Helvetica,sans-Serif" font-size="10.00">_Extensions.ComputeHash</text>
</a>
</g>
</g>
<!-- Node1&#45;&gt;Node18 -->
<g id="edge17_Node000001_Node000018" class="edge">
<title>Node1&#45;&gt;Node18</title>
<g id="a_edge17_Node000001_Node000018"><a xlink:title=" ">
<path fill="none" stroke="#63b8ff" d="M269.57,-640.38C248.22,-612.11 210.24,-567.15 167.5,-541 162.25,-537.79 156.56,-534.96 150.71,-532.49"/>
<polygon fill="#63b8ff" stroke="#63b8ff" points="266.75,-642.46 275.51,-648.41 272.38,-638.29 266.75,-642.46"/>
</a>
</g>
</g>
<!-- Node19 -->
<g id="Node000019" class="node">
<title>Node19</title>
<g id="a_Node000019"><a xlink:href="class_data_1_1_hash_function_1_1_i_hash_function___extensions.html#aa4052b2aa2efe1e44b44dad8ee543fb3" target="_top" xlink:title="Computes hash value for given data.">
<polygon fill="white" stroke="#666666" points="167.5,-482 0,-482 0,-450 167.5,-450 167.5,-482"/>
<text text-anchor="start" x="8" y="-468.5" font-family="Helvetica,sans-Serif" font-size="10.00">Data.HashFunction.IHashFunction</text>
<text text-anchor="middle" x="83.75" y="-456.5" font-family="Helvetica,sans-Serif" font-size="10.00">_Extensions.ComputeHash</text>
</a>
</g>
</g>
<!-- Node1&#45;&gt;Node19 -->
<g id="edge18_Node000001_Node000019" class="edge">
<title>Node1&#45;&gt;Node19</title>
<g id="a_edge18_Node000001_Node000019"><a xlink:title=" ">
<path fill="none" stroke="#63b8ff" d="M276.48,-639.37C258.85,-600.93 221.14,-530.2 167.5,-491 163.02,-487.72 158.1,-484.87 152.97,-482.39"/>
<polygon fill="#63b8ff" stroke="#63b8ff" points="273.22,-640.66 280.49,-648.37 279.61,-637.81 273.22,-640.66"/>
</a>
</g>
</g>
<!-- Node20 -->
<g id="Node000020" class="node">
<title>Node20</title>
<g id="a_Node000020"><a xlink:href="class_data_1_1_hash_function_1_1_i_hash_function___extensions.html#a77599eda2322fdb37f7ae06eaee33ec9" target="_top" xlink:title="Computes hash value for given data.">
<polygon fill="white" stroke="#666666" points="167.5,-432 0,-432 0,-400 167.5,-400 167.5,-432"/>
<text text-anchor="start" x="8" y="-418.5" font-family="Helvetica,sans-Serif" font-size="10.00">Data.HashFunction.IHashFunction</text>
<text text-anchor="middle" x="83.75" y="-406.5" font-family="Helvetica,sans-Serif" font-size="10.00">_Extensions.ComputeHash</text>
</a>
</g>
</g>
<!-- Node1&#45;&gt;Node20 -->
<g id="edge19_Node000001_Node000020" class="edge">
<title>Node1&#45;&gt;Node20</title>
<g id="a_edge19_Node000001_Node000020"><a xlink:title=" ">
<path fill="none" stroke="#63b8ff" d="M280.65,-638.73C266.92,-591.4 232.23,-494.07 167.5,-441 163.55,-437.77 159.2,-434.95 154.61,-432.5"/>
<polygon fill="#63b8ff" stroke="#63b8ff" points="277.23,-639.47 283.29,-648.16 283.97,-637.59 277.23,-639.47"/>
</a>
</g>
</g>
<!-- Node21 -->
<g id="Node000021" class="node">
<title>Node21</title>
<g id="a_Node000021"><a xlink:href="class_data_1_1_hash_function_1_1_i_hash_function___extensions.html#a4f5c01feebf2db7a87b12302e47f4f8a" target="_top" xlink:title="Computes hash value for given data.">
<polygon fill="white" stroke="#666666" points="167.5,-382 0,-382 0,-350 167.5,-350 167.5,-382"/>
<text text-anchor="start" x="8" y="-368.5" font-family="Helvetica,sans-Serif" font-size="10.00">Data.HashFunction.IHashFunction</text>
<text text-anchor="middle" x="83.75" y="-356.5" font-family="Helvetica,sans-Serif" font-size="10.00">_Extensions.ComputeHash</text>
</a>
</g>
</g>
<!-- Node1&#45;&gt;Node21 -->
<g id="edge20_Node000001_Node000021" class="edge">
<title>Node1&#45;&gt;Node21</title>
<g id="a_edge20_Node000001_Node000021"><a xlink:title=" ">
<path fill="none" stroke="#63b8ff" d="M283.5,-638.29C273.56,-583.01 243.58,-458.54 167.5,-391 163.8,-387.71 159.67,-384.86 155.3,-382.38"/>
<polygon fill="#63b8ff" stroke="#63b8ff" points="280.04,-638.83 285.17,-648.1 286.94,-637.65 280.04,-638.83"/>
</a>
</g>
</g>
<!-- Node22 -->
<g id="Node000022" class="node">
<title>Node22</title>
<g id="a_Node000022"><a xlink:href="class_data_1_1_hash_function_1_1_i_hash_function___extensions.html#ac4734093da6ca079eab1e6093b135100" target="_top" xlink:title="Computes hash value for given data.">
<polygon fill="white" stroke="#666666" points="167.5,-332 0,-332 0,-300 167.5,-300 167.5,-332"/>
<text text-anchor="start" x="8" y="-318.5" font-family="Helvetica,sans-Serif" font-size="10.00">Data.HashFunction.IHashFunction</text>
<text text-anchor="middle" x="83.75" y="-306.5" font-family="Helvetica,sans-Serif" font-size="10.00">_Extensions.ComputeHash</text>
</a>
</g>
</g>
<!-- Node1&#45;&gt;Node22 -->
<g id="edge21_Node000001_Node000022" class="edge">
<title>Node1&#45;&gt;Node22</title>
<g id="a_edge21_Node000001_Node000022"><a xlink:title=" ">
<path fill="none" stroke="#63b8ff" d="M285.64,-638.57C279.39,-576.39 255.41,-423.71 167.5,-341 164,-337.71 160.09,-334.85 155.91,-332.37"/>
<polygon fill="#63b8ff" stroke="#63b8ff" points="282.13,-638.61 286.54,-648.24 289.1,-637.96 282.13,-638.61"/>
</a>
</g>
</g>
<!-- Node23 -->
<g id="Node000023" class="node">
<title>Node23</title>
<g id="a_Node000023"><a xlink:href="class_data_1_1_hash_function_1_1_i_hash_function___extensions.html#a8440d2ea8130d40c4467a0649887a43c" target="_top" xlink:title="Computes hash value for given data.">
<polygon fill="white" stroke="#666666" points="167.5,-282 0,-282 0,-250 167.5,-250 167.5,-282"/>
<text text-anchor="start" x="8" y="-268.5" font-family="Helvetica,sans-Serif" font-size="10.00">Data.HashFunction.IHashFunction</text>
<text text-anchor="middle" x="83.75" y="-256.5" font-family="Helvetica,sans-Serif" font-size="10.00">_Extensions.ComputeHash</text>
</a>
</g>
</g>
<!-- Node1&#45;&gt;Node23 -->
<g id="edge22_Node000001_Node000023" class="edge">
<title>Node1&#45;&gt;Node23</title>
<g id="a_edge22_Node000001_Node000023"><a xlink:title=" ">
<path fill="none" stroke="#63b8ff" d="M287.22,-638.69C284.38,-570.11 267.3,-389.13 167.5,-291 164.18,-287.74 160.46,-284.9 156.47,-282.43"/>
<polygon fill="#63b8ff" stroke="#63b8ff" points="283.71,-638.39 287.54,-648.27 290.71,-638.16 283.71,-638.39"/>
</a>
</g>
</g>
<!-- Node24 -->
<g id="Node000024" class="node">
<title>Node24</title>
<g id="a_Node000024"><a xlink:href="class_data_1_1_hash_function_1_1_i_hash_function___extensions.html#a0019419aad53d95af6df2f9181147cc8" target="_top" xlink:title="Computes hash value for given data.">
<polygon fill="white" stroke="#666666" points="167.5,-232 0,-232 0,-200 167.5,-200 167.5,-232"/>
<text text-anchor="start" x="8" y="-218.5" font-family="Helvetica,sans-Serif" font-size="10.00">Data.HashFunction.IHashFunction</text>
<text text-anchor="middle" x="83.75" y="-206.5" font-family="Helvetica,sans-Serif" font-size="10.00">_Extensions.ComputeHash</text>
</a>
</g>
</g>
<!-- Node1&#45;&gt;Node24 -->
<g id="edge23_Node000001_Node000024" class="edge">
<title>Node1&#45;&gt;Node24</title>
<g id="a_edge23_Node000001_Node000024"><a xlink:title=" ">
<path fill="none" stroke="#63b8ff" d="M288.44,-638.7C288.79,-564.08 279.24,-354.73 167.5,-241 164.24,-237.68 160.56,-234.8 156.6,-232.3"/>
<polygon fill="#63b8ff" stroke="#63b8ff" points="284.95,-638.31 288.33,-648.35 291.95,-638.4 284.95,-638.31"/>
</a>
</g>
</g>
<!-- Node25 -->
<g id="Node000025" class="node">
<title>Node25</title>
<g id="a_Node000025"><a xlink:href="class_data_1_1_hash_function_1_1_i_hash_function___extensions.html#a4396de408ab3be28cf760ddd8cd3e887" target="_top" xlink:title="Computes hash value for given data.">
<polygon fill="white" stroke="#666666" points="167.5,-182 0,-182 0,-150 167.5,-150 167.5,-182"/>
<text text-anchor="start" x="8" y="-168.5" font-family="Helvetica,sans-Serif" font-size="10.00">Data.HashFunction.IHashFunction</text>
<text text-anchor="middle" x="83.75" y="-156.5" font-family="Helvetica,sans-Serif" font-size="10.00">_Extensions.ComputeHash</text>
</a>
</g>
</g>
<!-- Node1&#45;&gt;Node25 -->
<g id="edge24_Node000001_Node000025" class="edge">
<title>Node1&#45;&gt;Node25</title>
<g id="a_edge24_Node000001_Node000025"><a xlink:title=" ">
<path fill="none" stroke="#63b8ff" d="M284.33,-638.28C272.5,-546.87 230.64,-257.08 167.5,-191 164.39,-187.74 160.87,-184.91 157.08,-182.44"/>
<polygon fill="#63b8ff" stroke="#63b8ff" points="280.84,-638.6 285.57,-648.08 287.78,-637.72 280.84,-638.6"/>
</a>
</g>
</g>
<!-- Node26 -->
<g id="Node000026" class="node">
<title>Node26</title>
<g id="a_Node000026"><a xlink:href="class_data_1_1_hash_function_1_1_i_hash_function___extensions.html#ababdf3bd53e9327125e108dc3908404f" target="_top" xlink:title="Computes hash value for given data.">
<polygon fill="white" stroke="#666666" points="167.5,-132 0,-132 0,-100 167.5,-100 167.5,-132"/>
<text text-anchor="start" x="8" y="-118.5" font-family="Helvetica,sans-Serif" font-size="10.00">Data.HashFunction.IHashFunction</text>
<text text-anchor="middle" x="83.75" y="-106.5" font-family="Helvetica,sans-Serif" font-size="10.00">_Extensions.ComputeHash</text>
</a>
</g>
</g>
<!-- Node1&#45;&gt;Node26 -->
<g id="edge25_Node000001_Node000026" class="edge">
<title>Node1&#45;&gt;Node26</title>
<g id="a_edge25_Node000001_Node000026"><a xlink:title=" ">
<path fill="none" stroke="#63b8ff" d="M285.05,-638.28C274.99,-540.72 236.74,-215.13 167.5,-141 164.43,-137.71 160.94,-134.85 157.17,-132.36"/>
<polygon fill="#63b8ff" stroke="#63b8ff" points="281.54,-638.41 286.03,-648 288.5,-637.7 281.54,-638.41"/>
</a>
</g>
</g>
<!-- Node27 -->
<g id="Node000027" class="node">
<title>Node27</title>
<g id="a_Node000027"><a xlink:href="class_data_1_1_hash_function_1_1_i_hash_function___extensions.html#a18b24c73707c95a186072cf5f008046e" target="_top" xlink:title="Computes hash value for given data.">
<polygon fill="white" stroke="#666666" points="167.5,-82 0,-82 0,-50 167.5,-50 167.5,-82"/>
<text text-anchor="start" x="8" y="-68.5" font-family="Helvetica,sans-Serif" font-size="10.00">Data.HashFunction.IHashFunction</text>
<text text-anchor="middle" x="83.75" y="-56.5" font-family="Helvetica,sans-Serif" font-size="10.00">_Extensions.ComputeHash</text>
</a>
</g>
</g>
<!-- Node1&#45;&gt;Node27 -->
<g id="edge26_Node000001_Node000027" class="edge">
<title>Node1&#45;&gt;Node27</title>
<g id="a_edge26_Node000001_Node000027"><a xlink:title=" ">
<path fill="none" stroke="#63b8ff" d="M285.65,-638.39C277.27,-535.12 242.9,-173.28 167.5,-91 164.46,-87.68 160.99,-84.8 157.25,-82.29"/>
<polygon fill="#63b8ff" stroke="#63b8ff" points="282.15,-638.47 286.43,-648.16 289.12,-637.91 282.15,-638.47"/>
</a>
</g>
</g>
<!-- Node28 -->
<g id="Node000028" class="node">
<title>Node28</title>
<g id="a_Node000028"><a xlink:href="class_data_1_1_hash_function_1_1_i_hash_function___extensions.html#a3eca5d442f166773d57181fe9df01a05" target="_top" xlink:title="Computes hash value for given data.">
<polygon fill="white" stroke="#666666" points="167.5,-32 0,-32 0,0 167.5,0 167.5,-32"/>
<text text-anchor="start" x="8" y="-18.5" font-family="Helvetica,sans-Serif" font-size="10.00">Data.HashFunction.IHashFunction</text>
<text text-anchor="middle" x="83.75" y="-6.5" font-family="Helvetica,sans-Serif" font-size="10.00">_Extensions.ComputeHash</text>
</a>
</g>
</g>
<!-- Node1&#45;&gt;Node28 -->
<g id="edge27_Node000001_Node000028" class="edge">
<title>Node1&#45;&gt;Node28</title>
<g id="a_edge27_Node000001_Node000028"><a xlink:title=" ">
<path fill="none" stroke="#63b8ff" d="M286.16,-638.5C279.34,-529.78 249.08,-131.48 167.5,-41 164.59,-37.77 161.27,-34.95 157.68,-32.49"/>
<polygon fill="#63b8ff" stroke="#63b8ff" points="282.65,-638.47 286.75,-648.23 289.64,-638.04 282.65,-638.47"/>
</a>
</g>
</g>
</g>
</svg>
