<?xml version="1.0" encoding="UTF-8" standalone="no"?>
<!DOCTYPE svg PUBLIC "-//W3C//DTD SVG 1.1//EN"
 "http://www.w3.org/Graphics/SVG/1.1/DTD/svg11.dtd">
<!-- Generated by graphviz version 12.2.0 (20241103.1931)
 -->
<!-- Title: Data.HashFunction.HashAlgorithm.IHashAlgorithmWrapper Pages: 1 -->
<svg width="197pt" height="164pt"
 viewBox="0.00 0.00 196.50 164.00" xmlns="http://www.w3.org/2000/svg" xmlns:xlink="http://www.w3.org/1999/xlink">
<g id="graph0" class="graph" transform="scale(1 1) rotate(0) translate(4 160)">
<title>Data.HashFunction.HashAlgorithm.IHashAlgorithmWrapper</title>
<!-- Node1 -->
<g id="Node000001" class="node">
<title>Node1</title>
<g id="a_Node000001"><a xlink:title="Implementation of IHashFunction that wraps cryptographic hash functions known as System....">
<polygon fill="#999999" stroke="#666666" points="179.88,-100 8.62,-100 8.62,-68 179.88,-68 179.88,-100"/>
<text text-anchor="start" x="16.62" y="-86.5" font-family="Helvetica,sans-Serif" font-size="10.00">Data.HashFunction.HashAlgorithm.</text>
<text text-anchor="middle" x="94.25" y="-74.5" font-family="Helvetica,sans-Serif" font-size="10.00">IHashAlgorithmWrapper</text>
</a>
</g>
</g>
<!-- Node3 -->
<g id="Node000003" class="node">
<title>Node3</title>
<g id="a_Node000003"><a xlink:href="class_data_1_1_hash_function_1_1_hash_algorithm_1_1_hash_algorithm_wrapper___implementation.html" target="_top" xlink:title=" ">
<polygon fill="white" stroke="#666666" points="188.5,-32 0,-32 0,0 188.5,0 188.5,-32"/>
<text text-anchor="start" x="8" y="-18.5" font-family="Helvetica,sans-Serif" font-size="10.00">Data.HashFunction.HashAlgorithm.</text>
<text text-anchor="middle" x="94.25" y="-6.5" font-family="Helvetica,sans-Serif" font-size="10.00">HashAlgorithmWrapper_Implementation</text>
</a>
</g>
</g>
<!-- Node1&#45;&gt;Node3 -->
<g id="edge2_Node000001_Node000003" class="edge">
<title>Node1&#45;&gt;Node3</title>
<g id="a_edge2_Node000001_Node000003"><a xlink:title=" ">
<path fill="none" stroke="#63b8ff" d="M94.25,-56.31C94.25,-48.12 94.25,-39.38 94.25,-32.22"/>
<polygon fill="#63b8ff" stroke="#63b8ff" points="90.75,-56.18 94.25,-66.18 97.75,-56.18 90.75,-56.18"/>
</a>
</g>
</g>
<!-- Node2 -->
<g id="Node000002" class="node">
<title>Node2</title>
<g id="a_Node000002"><a xlink:href="interface_data_1_1_hash_function_1_1_i_hash_function.html" target="_top" xlink:title="Common interface to non&#45;cryptographic hash functions.">
<polygon fill="white" stroke="#666666" points="134.12,-156 54.38,-156 54.38,-136 134.12,-136 134.12,-156"/>
<text text-anchor="middle" x="94.25" y="-142.5" font-family="Helvetica,sans-Serif" font-size="10.00">IHashFunction</text>
</a>
</g>
</g>
<!-- Node2&#45;&gt;Node1 -->
<g id="edge1_Node000001_Node000002" class="edge">
<title>Node2&#45;&gt;Node1</title>
<g id="a_edge1_Node000001_Node000002"><a xlink:title=" ">
<path fill="none" stroke="#63b8ff" d="M94.25,-124.31C94.25,-116.37 94.25,-107.46 94.25,-100.14"/>
<polygon fill="#63b8ff" stroke="#63b8ff" points="90.75,-124.11 94.25,-134.11 97.75,-124.11 90.75,-124.11"/>
</a>
</g>
</g>
</g>
</svg>
