<?xml version="1.0" encoding="UTF-8" standalone="no"?>
<!DOCTYPE svg PUBLIC "-//W3C//DTD SVG 1.1//EN"
 "http://www.w3.org/Graphics/SVG/1.1/DTD/svg11.dtd">
<!-- Generated by graphviz version 12.2.0 (20241103.1931)
 -->
<!-- Title: Data.HashFunction.Blake2.IBlake2B Pages: 1 -->
<svg width="145pt" height="220pt"
 viewBox="0.00 0.00 144.75 220.00" xmlns="http://www.w3.org/2000/svg" xmlns:xlink="http://www.w3.org/1999/xlink">
<g id="graph0" class="graph" transform="scale(1 1) rotate(0) translate(4 216)">
<title>Data.HashFunction.Blake2.IBlake2B</title>
<!-- Node1 -->
<g id="Node000001" class="node">
<title>Node1</title>
<g id="a_Node000001"><a xlink:title="Implementation of BLAKE2b as specified at https://blake2.net/. Implementations are expected to suppor...">
<polygon fill="#999999" stroke="#666666" points="136.75,-100 0,-100 0,-68 136.75,-68 136.75,-100"/>
<text text-anchor="start" x="8" y="-86.5" font-family="Helvetica,sans-Serif" font-size="10.00">Data.HashFunction.Blake2.</text>
<text text-anchor="middle" x="68.38" y="-74.5" font-family="Helvetica,sans-Serif" font-size="10.00">IBlake2B</text>
</a>
</g>
</g>
<!-- Node4 -->
<g id="Node000004" class="node">
<title>Node4</title>
<g id="a_Node000004"><a xlink:href="class_data_1_1_hash_function_1_1_blake2_1_1_blake2_b___implementation.html" target="_top" xlink:title=" ">
<polygon fill="white" stroke="#666666" points="136.75,-32 0,-32 0,0 136.75,0 136.75,-32"/>
<text text-anchor="start" x="8" y="-18.5" font-family="Helvetica,sans-Serif" font-size="10.00">Data.HashFunction.Blake2.</text>
<text text-anchor="middle" x="68.38" y="-6.5" font-family="Helvetica,sans-Serif" font-size="10.00">Blake2B_Implementation</text>
</a>
</g>
</g>
<!-- Node1&#45;&gt;Node4 -->
<g id="edge3_Node000001_Node000004" class="edge">
<title>Node1&#45;&gt;Node4</title>
<g id="a_edge3_Node000001_Node000004"><a xlink:title=" ">
<path fill="none" stroke="#63b8ff" d="M68.38,-56.31C68.38,-48.12 68.38,-39.38 68.38,-32.22"/>
<polygon fill="#63b8ff" stroke="#63b8ff" points="64.88,-56.18 68.38,-66.18 71.88,-56.18 64.88,-56.18"/>
</a>
</g>
</g>
<!-- Node2 -->
<g id="Node000002" class="node">
<title>Node2</title>
<g id="a_Node000002"><a xlink:href="interface_data_1_1_hash_function_1_1_i_streamable_hash_function.html" target="_top" xlink:title="Common interface to non&#45;cryptographic hash functions that can be computed over a stream of data witho...">
<polygon fill="white" stroke="#666666" points="133,-156 3.75,-156 3.75,-136 133,-136 133,-156"/>
<text text-anchor="middle" x="68.38" y="-142.5" font-family="Helvetica,sans-Serif" font-size="10.00">IStreamableHashFunction</text>
</a>
</g>
</g>
<!-- Node2&#45;&gt;Node1 -->
<g id="edge1_Node000001_Node000002" class="edge">
<title>Node2&#45;&gt;Node1</title>
<g id="a_edge1_Node000001_Node000002"><a xlink:title=" ">
<path fill="none" stroke="#63b8ff" d="M68.38,-124.31C68.38,-116.37 68.38,-107.46 68.38,-100.14"/>
<polygon fill="#63b8ff" stroke="#63b8ff" points="64.88,-124.11 68.38,-134.11 71.88,-124.11 64.88,-124.11"/>
</a>
</g>
</g>
<!-- Node3 -->
<g id="Node000003" class="node">
<title>Node3</title>
<g id="a_Node000003"><a xlink:href="interface_data_1_1_hash_function_1_1_i_hash_function.html" target="_top" xlink:title="Common interface to non&#45;cryptographic hash functions.">
<polygon fill="white" stroke="#666666" points="108.25,-212 28.5,-212 28.5,-192 108.25,-192 108.25,-212"/>
<text text-anchor="middle" x="68.38" y="-198.5" font-family="Helvetica,sans-Serif" font-size="10.00">IHashFunction</text>
</a>
</g>
</g>
<!-- Node3&#45;&gt;Node2 -->
<g id="edge2_Node000002_Node000003" class="edge">
<title>Node3&#45;&gt;Node2</title>
<g id="a_edge2_Node000002_Node000003"><a xlink:title=" ">
<path fill="none" stroke="#63b8ff" d="M68.38,-180.13C68.38,-171.9 68.38,-162.85 68.38,-156.3"/>
<polygon fill="#63b8ff" stroke="#63b8ff" points="64.88,-180.08 68.38,-190.08 71.88,-180.08 64.88,-180.08"/>
</a>
</g>
</g>
</g>
</svg>
