<?xml version="1.0" encoding="UTF-8" standalone="no"?>
<!DOCTYPE svg PUBLIC "-//W3C//DTD SVG 1.1//EN"
 "http://www.w3.org/Graphics/SVG/1.1/DTD/svg11.dtd">
<!-- Generated by graphviz version 12.2.0 (20241103.1931)
 -->
<!-- Title: Data.HashFunction.IBlockTransformer Pages: 1 -->
<!--zoomable 362 -->

<svg id="main" version="1.1" xmlns="http://www.w3.org/2000/svg" xmlns:xlink="http://www.w3.org/1999/xlink" xml:space="preserve" onload="init(evt)">

<style type="text/css"><![CDATA[
.node, .edge {opacity: 0.7;}
.node.selected, .edge.selected {opacity: 1;}
.edge:hover path { stroke: red; }
.edge:hover polygon { stroke: red; fill: red; }
]]></style>

<defs>
  <circle id="rim" cx="0" cy="0" r="7"/>
  <circle id="rim2" cx="0" cy="0" r="3.5"/>
  <g id="zoomPlus">
    <use xlink:href="#rim" fill="#404040"><set attributeName="fill" to="#808080" begin="zoomplus.mouseover" end="zoomplus.mouseout"/></use>
    <path d="M-4,0h8M0,-4v8" fill="none" stroke="white" stroke-width="1.5" pointer-events="none"/>
  </g>
  <g id="zoomMin">
    <use xlink:href="#rim" fill="#404040"><set attributeName="fill" to="#808080" begin="zoomminus.mouseover" end="zoomminus.mouseout"/></use>
    <path d="M-4,0h8" fill="none" stroke="white" stroke-width="1.5" pointer-events="none"/>
  </g>
  <g id="arrowUp" transform="translate(30 24)">
    <use xlink:href="#rim"/>
    <path pointer-events="none" fill="none" stroke="white" stroke-width="1.5" d="M0,-3.0v7 M-2.5,-0.5L0,-3.0L2.5,-0.5"/>
  </g>
  <g id="arrowRight" transform="rotate(90) translate(36 -43)">
    <use xlink:href="#rim"/>
    <path pointer-events="none" fill="none" stroke="white" stroke-width="1.5" d="M0,-3.0v7 M-2.5,-0.5L0,-3.0L2.5,-0.5"/>
  </g>
  <g id="arrowDown" transform="rotate(180) translate(-30 -48)">
    <use xlink:href="#rim"/>
    <path pointer-events="none" fill="none" stroke="white" stroke-width="1.5" d="M0,-3.0v7 M-2.5,-0.5L0,-3.0L2.5,-0.5"/>
  </g>
  <g id="arrowLeft" transform="rotate(270) translate(-36 17)">
    <use xlink:href="#rim"/>
    <path pointer-events="none" fill="none" stroke="white" stroke-width="1.5" d="M0,-3.0v7 M-2.5,-0.5L0,-3.0L2.5,-0.5"/>
  </g>
  <g id="resetDef">
    <use xlink:href="#rim2" fill="#404040"><set attributeName="fill" to="#808080" begin="reset.mouseover" end="reset.mouseout"/></use>
  </g>
</defs>
<script type="application/ecmascript">
var viewWidth = 773;
var viewHeight = 362;
var sectionId = 'dynsection-0';
</script>
<script type="application/ecmascript" xlink:href="svg.min.js"/>
<svg id="graph" class="graph">
<g id="viewport">
<title>Data.HashFunction.IBlockTransformer</title>
<!-- Node1 -->
<g id="Node000001" class="node">
<title>Node1</title>
<g id="a_Node000001"><a xlink:title="An internal state of an iteratively computable hash function value.">
<polygon fill="#999999" stroke="#666666" points="131.5,-193 0,-193 0,-161 131.5,-161 131.5,-193"/>
<text text-anchor="start" x="8" y="-179.5" font-family="Helvetica,sans-Serif" font-size="10.00">Data.HashFunction.IBlock</text>
<text text-anchor="middle" x="65.75" y="-167.5" font-family="Helvetica,sans-Serif" font-size="10.00">Transformer</text>
</a>
</g>
</g>
<!-- Node2 -->
<g id="Node000002" class="node">
<title>Node2</title>
<g id="a_Node000002"><a xlink:href="class_data_1_1_hash_function_1_1_core_1_1_block_transformer_base.html" target="_top" xlink:title="Base implementation for an internal state of an iteratively computable hash function value.">
<polygon fill="white" stroke="#666666" points="320,-193 167.5,-193 167.5,-161 320,-161 320,-193"/>
<text text-anchor="start" x="175.5" y="-179.5" font-family="Helvetica,sans-Serif" font-size="10.00">Data.HashFunction.Core.Block</text>
<text text-anchor="middle" x="243.75" y="-167.5" font-family="Helvetica,sans-Serif" font-size="10.00">TransformerBase&lt; TSelf &gt;</text>
</a>
</g>
</g>
<!-- Node1&#45;&gt;Node2 -->
<g id="edge1_Node000001_Node000002" class="edge">
<title>Node1&#45;&gt;Node2</title>
<g id="a_edge1_Node000001_Node000002"><a xlink:title=" ">
<path fill="none" stroke="#63b8ff" d="M143.04,-177C151.08,-177 159.25,-177 167.28,-177"/>
<polygon fill="#63b8ff" stroke="#63b8ff" points="143.3,-173.5 133.3,-177 143.3,-180.5 143.3,-173.5"/>
</a>
</g>
</g>
<!-- Node3 -->
<g id="Node000003" class="node">
<title>Node3</title>
<g id="a_Node000003"><a xlink:href="class_data_1_1_hash_function_1_1_f_n_v_1_1_f_n_v1_base_1_1_block_transformer__32_bit_base.html" target="_top" xlink:title=" ">
<polygon fill="white" stroke="#666666" points="525,-292 356,-292 356,-248 525,-248 525,-292"/>
<text text-anchor="start" x="364" y="-278.5" font-family="Helvetica,sans-Serif" font-size="10.00">Data.HashFunction.FNV.FNV1</text>
<text text-anchor="start" x="364" y="-266.5" font-family="Helvetica,sans-Serif" font-size="10.00">Base.BlockTransformer_32BitBase</text>
<text text-anchor="middle" x="440.5" y="-254.5" font-family="Helvetica,sans-Serif" font-size="10.00">&lt; TSelf &gt;</text>
</a>
</g>
</g>
<!-- Node2&#45;&gt;Node3 -->
<g id="edge2_Node000002_Node000003" class="edge">
<title>Node2&#45;&gt;Node3</title>
<g id="a_edge2_Node000002_Node000003"><a xlink:title=" ">
<path fill="none" stroke="#63b8ff" d="M289.18,-198.22C320.11,-212.99 361.26,-232.64 392.69,-247.65"/>
<polygon fill="#63b8ff" stroke="#63b8ff" points="291.02,-195.22 280.48,-194.06 288,-201.53 291.02,-195.22"/>
</a>
</g>
</g>
<!-- Node6 -->
<g id="Node000006" class="node">
<title>Node6</title>
<g id="a_Node000006"><a xlink:href="class_data_1_1_hash_function_1_1_f_n_v_1_1_f_n_v1_base_1_1_block_transformer__64_bit_base.html" target="_top" xlink:title=" ">
<polygon fill="white" stroke="#666666" points="525,-199 356,-199 356,-155 525,-155 525,-199"/>
<text text-anchor="start" x="364" y="-185.5" font-family="Helvetica,sans-Serif" font-size="10.00">Data.HashFunction.FNV.FNV1</text>
<text text-anchor="start" x="364" y="-173.5" font-family="Helvetica,sans-Serif" font-size="10.00">Base.BlockTransformer_64BitBase</text>
<text text-anchor="middle" x="440.5" y="-161.5" font-family="Helvetica,sans-Serif" font-size="10.00">&lt; TSelf &gt;</text>
</a>
</g>
</g>
<!-- Node2&#45;&gt;Node6 -->
<g id="edge5_Node000002_Node000006" class="edge">
<title>Node2&#45;&gt;Node6</title>
<g id="a_edge5_Node000002_Node000006"><a xlink:title=" ">
<path fill="none" stroke="#63b8ff" d="M331.81,-177C339.7,-177 347.69,-177 355.56,-177"/>
<polygon fill="#63b8ff" stroke="#63b8ff" points="331.84,-173.5 321.84,-177 331.84,-180.5 331.84,-173.5"/>
</a>
</g>
</g>
<!-- Node9 -->
<g id="Node000009" class="node">
<title>Node9</title>
<g id="a_Node000009"><a xlink:href="class_data_1_1_hash_function_1_1_f_n_v_1_1_f_n_v1_base_1_1_block_transformer___extended_base.html" target="_top" xlink:title=" ">
<polygon fill="white" stroke="#666666" points="523.12,-106 357.88,-106 357.88,-62 523.12,-62 523.12,-106"/>
<text text-anchor="start" x="365.88" y="-92.5" font-family="Helvetica,sans-Serif" font-size="10.00">Data.HashFunction.FNV.FNV1</text>
<text text-anchor="start" x="365.88" y="-80.5" font-family="Helvetica,sans-Serif" font-size="10.00">Base.BlockTransformer_Extended</text>
<text text-anchor="middle" x="440.5" y="-68.5" font-family="Helvetica,sans-Serif" font-size="10.00">Base&lt; TSelf &gt;</text>
</a>
</g>
</g>
<!-- Node2&#45;&gt;Node9 -->
<g id="edge8_Node000002_Node000009" class="edge">
<title>Node2&#45;&gt;Node9</title>
<g id="a_edge8_Node000002_Node000009"><a xlink:title=" ">
<path fill="none" stroke="#63b8ff" d="M289.18,-155.78C320.11,-141.01 361.26,-121.36 392.69,-106.35"/>
<polygon fill="#63b8ff" stroke="#63b8ff" points="288,-152.47 280.48,-159.94 291.02,-158.78 288,-152.47"/>
</a>
</g>
</g>
<!-- Node4 -->
<g id="Node000004" class="node">
<title>Node4</title>
<g id="a_Node000004"><a xlink:href="class_data_1_1_hash_function_1_1_f_n_v_1_1_f_n_v1___implementation_1_1_block_transformer__32_bit.html" target="_top" xlink:title=" ">
<polygon fill="white" stroke="#666666" points="747.25,-354 579,-354 579,-310 747.25,-310 747.25,-354"/>
<text text-anchor="start" x="587" y="-340.5" font-family="Helvetica,sans-Serif" font-size="10.00">Data.HashFunction.FNV.FNV1</text>
<text text-anchor="start" x="587" y="-328.5" font-family="Helvetica,sans-Serif" font-size="10.00">_Implementation.BlockTransformer</text>
<text text-anchor="middle" x="663.12" y="-316.5" font-family="Helvetica,sans-Serif" font-size="10.00">_32Bit&lt; BlockTransformer_32Bit &gt;</text>
</a>
</g>
</g>
<!-- Node3&#45;&gt;Node4 -->
<g id="edge3_Node000003_Node000004" class="edge">
<title>Node3&#45;&gt;Node4</title>
<g id="a_edge3_Node000003_Node000004"><a xlink:title=" ">
<path fill="none" stroke="#63b8ff" d="M532.22,-295.49C548.74,-300.14 565.88,-304.95 582.06,-309.5"/>
<polygon fill="#63b8ff" stroke="#63b8ff" points="533.49,-292.22 522.92,-292.88 531.6,-298.96 533.49,-292.22"/>
</a>
</g>
</g>
<!-- Node5 -->
<g id="Node000005" class="node">
<title>Node5</title>
<g id="a_Node000005"><a xlink:href="class_data_1_1_hash_function_1_1_f_n_v_1_1_f_n_v1a___implementation_1_1_block_transformer__32_bit.html" target="_top" xlink:title=" ">
<polygon fill="white" stroke="#666666" points="747.25,-292 579,-292 579,-248 747.25,-248 747.25,-292"/>
<text text-anchor="start" x="587" y="-278.5" font-family="Helvetica,sans-Serif" font-size="10.00">Data.HashFunction.FNV.FNV1a</text>
<text text-anchor="start" x="587" y="-266.5" font-family="Helvetica,sans-Serif" font-size="10.00">_Implementation.BlockTransformer</text>
<text text-anchor="middle" x="663.12" y="-254.5" font-family="Helvetica,sans-Serif" font-size="10.00">_32Bit&lt; BlockTransformer_32Bit &gt;</text>
</a>
</g>
</g>
<!-- Node3&#45;&gt;Node5 -->
<g id="edge4_Node000003_Node000005" class="edge">
<title>Node3&#45;&gt;Node5</title>
<g id="a_edge4_Node000003_Node000005"><a xlink:title=" ">
<path fill="none" stroke="#63b8ff" d="M536.44,-270C550.54,-270 564.99,-270 578.82,-270"/>
<polygon fill="#63b8ff" stroke="#63b8ff" points="536.74,-266.5 526.74,-270 536.74,-273.5 536.74,-266.5"/>
</a>
</g>
</g>
<!-- Node7 -->
<g id="Node000007" class="node">
<title>Node7</title>
<g id="a_Node000007"><a xlink:href="class_data_1_1_hash_function_1_1_f_n_v_1_1_f_n_v1___implementation_1_1_block_transformer__64_bit.html" target="_top" xlink:title=" ">
<polygon fill="white" stroke="#666666" points="747.25,-230 579,-230 579,-186 747.25,-186 747.25,-230"/>
<text text-anchor="start" x="587" y="-216.5" font-family="Helvetica,sans-Serif" font-size="10.00">Data.HashFunction.FNV.FNV1</text>
<text text-anchor="start" x="587" y="-204.5" font-family="Helvetica,sans-Serif" font-size="10.00">_Implementation.BlockTransformer</text>
<text text-anchor="middle" x="663.12" y="-192.5" font-family="Helvetica,sans-Serif" font-size="10.00">_64Bit&lt; BlockTransformer_64Bit &gt;</text>
</a>
</g>
</g>
<!-- Node6&#45;&gt;Node7 -->
<g id="edge6_Node000006_Node000007" class="edge">
<title>Node6&#45;&gt;Node7</title>
<g id="a_edge6_Node000006_Node000007"><a xlink:title=" ">
<path fill="none" stroke="#63b8ff" d="M536.44,-190.34C550.54,-192.32 564.99,-194.35 578.82,-196.3"/>
<polygon fill="#63b8ff" stroke="#63b8ff" points="537.11,-186.9 526.72,-188.97 536.14,-193.83 537.11,-186.9"/>
</a>
</g>
</g>
<!-- Node8 -->
<g id="Node000008" class="node">
<title>Node8</title>
<g id="a_Node000008"><a xlink:href="class_data_1_1_hash_function_1_1_f_n_v_1_1_f_n_v1a___implementation_1_1_block_transformer__64_bit.html" target="_top" xlink:title=" ">
<polygon fill="white" stroke="#666666" points="747.25,-168 579,-168 579,-124 747.25,-124 747.25,-168"/>
<text text-anchor="start" x="587" y="-154.5" font-family="Helvetica,sans-Serif" font-size="10.00">Data.HashFunction.FNV.FNV1a</text>
<text text-anchor="start" x="587" y="-142.5" font-family="Helvetica,sans-Serif" font-size="10.00">_Implementation.BlockTransformer</text>
<text text-anchor="middle" x="663.12" y="-130.5" font-family="Helvetica,sans-Serif" font-size="10.00">_64Bit&lt; BlockTransformer_64Bit &gt;</text>
</a>
</g>
</g>
<!-- Node6&#45;&gt;Node8 -->
<g id="edge7_Node000006_Node000008" class="edge">
<title>Node6&#45;&gt;Node8</title>
<g id="a_edge7_Node000006_Node000008"><a xlink:title=" ">
<path fill="none" stroke="#63b8ff" d="M536.44,-163.66C550.54,-161.68 564.99,-159.65 578.82,-157.7"/>
<polygon fill="#63b8ff" stroke="#63b8ff" points="536.14,-160.17 526.72,-165.03 537.11,-167.1 536.14,-160.17"/>
</a>
</g>
</g>
<!-- Node10 -->
<g id="Node000010" class="node">
<title>Node10</title>
<g id="a_Node000010"><a xlink:href="class_data_1_1_hash_function_1_1_f_n_v_1_1_f_n_v1___implementation_1_1_block_transformer___extended.html" target="_top" xlink:title=" ">
<polygon fill="white" stroke="#666666" points="765.25,-106 561,-106 561,-62 765.25,-62 765.25,-106"/>
<text text-anchor="start" x="569" y="-92.5" font-family="Helvetica,sans-Serif" font-size="10.00">Data.HashFunction.FNV.FNV1</text>
<text text-anchor="start" x="569" y="-80.5" font-family="Helvetica,sans-Serif" font-size="10.00">_Implementation.BlockTransformer</text>
<text text-anchor="middle" x="663.12" y="-68.5" font-family="Helvetica,sans-Serif" font-size="10.00">_Extended&lt; BlockTransformer_Extended &gt;</text>
</a>
</g>
</g>
<!-- Node9&#45;&gt;Node10 -->
<g id="edge9_Node000009_Node000010" class="edge">
<title>Node9&#45;&gt;Node10</title>
<g id="a_edge9_Node000009_Node000010"><a xlink:title=" ">
<path fill="none" stroke="#63b8ff" d="M534.85,-84C543.36,-84 552.02,-84 560.6,-84"/>
<polygon fill="#63b8ff" stroke="#63b8ff" points="534.85,-80.5 524.85,-84 534.85,-87.5 534.85,-80.5"/>
</a>
</g>
</g>
<!-- Node11 -->
<g id="Node000011" class="node">
<title>Node11</title>
<g id="a_Node000011"><a xlink:href="class_data_1_1_hash_function_1_1_f_n_v_1_1_f_n_v1a___implementation_1_1_block_transformer___extended.html" target="_top" xlink:title=" ">
<polygon fill="white" stroke="#666666" points="765.25,-44 561,-44 561,0 765.25,0 765.25,-44"/>
<text text-anchor="start" x="569" y="-30.5" font-family="Helvetica,sans-Serif" font-size="10.00">Data.HashFunction.FNV.FNV1a</text>
<text text-anchor="start" x="569" y="-18.5" font-family="Helvetica,sans-Serif" font-size="10.00">_Implementation.BlockTransformer</text>
<text text-anchor="middle" x="663.12" y="-6.5" font-family="Helvetica,sans-Serif" font-size="10.00">_Extended&lt; BlockTransformer_Extended &gt;</text>
</a>
</g>
</g>
<!-- Node9&#45;&gt;Node11 -->
<g id="edge10_Node000009_Node000011" class="edge">
<title>Node9&#45;&gt;Node11</title>
<g id="a_edge10_Node000009_Node000011"><a xlink:title=" ">
<path fill="none" stroke="#63b8ff" d="M532.22,-58.51C548.74,-53.86 565.88,-49.05 582.06,-44.5"/>
<polygon fill="#63b8ff" stroke="#63b8ff" points="531.6,-55.04 522.92,-61.12 533.49,-61.78 531.6,-55.04"/>
</a>
</g>
</g>
</g>
</svg>

<g id="navigator" transform="translate(0 0)" fill="#404254">
  <rect fill="#f2f5e9" fill-opacity="0.5" stroke="#606060" stroke-width=".5" x="0" y="0" width="60" height="60"/>
  <use id="zoomplus" xlink:href="#zoomPlus" x="17" y="9" onmousedown="handleZoom(evt,'in')"/>
  <use id="zoomminus" xlink:href="#zoomMin" x="42" y="9" onmousedown="handleZoom(evt,'out')"/>
  <use id="reset" xlink:href="#resetDef" x="30" y="36" onmousedown="handleReset()"/>
   <use id="arrowup" xlink:href="#arrowUp" x="0" y="0" onmousedown="handlePan(0,-1)"/>
  <use id="arrowright" xlink:href="#arrowRight" x="0" y="0" onmousedown="handlePan(1,0)"/>
  <use id="arrowdown" xlink:href="#arrowDown" x="0" y="0" onmousedown="handlePan(0,1)"/>
  <use id="arrowleft" xlink:href="#arrowLeft" x="0" y="0" onmousedown="handlePan(-1,0)"/>
</g>
<svg viewBox="0 0 15 15" width="100%" height="30px" preserveAspectRatio="xMaxYMin meet">
 <g id="arrow_out" transform="scale(0.3 0.3)">
  <a xlink:href="interface_data_1_1_hash_function_1_1_i_block_transformer__inherit__graph_org.svg" target="_base">
   <rect id="button" ry="5" rx="5" y="6" x="6" height="38" width="38"
        fill="#f2f5e9" fill-opacity="0.5" stroke="#606060" stroke-width="1.0"/>
   <path id="arrow"
     d="M 11.500037,31.436501 C 11.940474,20.09759 22.043105,11.32322 32.158766,21.979434 L 37.068811,17.246167 C 37.068811,17.246167 37.088388,32 37.088388,32 L 22.160133,31.978069 C 22.160133,31.978069 26.997745,27.140456 26.997745,27.140456 C 18.528582,18.264221 13.291696,25.230495 11.500037,31.436501 z"
     style="fill:#404040;"/>
  </a>
 </g>
</svg>

<style type='text/css'>
<![CDATA[
[data-mouse-over-selected='false'] { opacity: 0.7; }
[data-mouse-over-selected='true']  { opacity: 1.0; }
]]>
</style>
<script type="application/ecmascript"><![CDATA[
document.addEventListener('DOMContentLoaded', (event) => {
  highlightEdges();
  highlightAdjacentNodes();
});
]]></script>
</svg>
