<?xml version="1.0" encoding="UTF-8" standalone="no"?>
<!DOCTYPE svg PUBLIC "-//W3C//DTD SVG 1.1//EN"
 "http://www.w3.org/Graphics/SVG/1.1/DTD/svg11.dtd">
<!-- Generated by graphviz version 12.2.0 (20241103.1931)
 -->
<!-- Title: Data.HashFunction.Pearson.IPearson Pages: 1 -->
<svg width="151pt" height="220pt"
 viewBox="0.00 0.00 150.75 220.00" xmlns="http://www.w3.org/2000/svg" xmlns:xlink="http://www.w3.org/1999/xlink">
<g id="graph0" class="graph" transform="scale(1 1) rotate(0) translate(4 216)">
<title>Data.HashFunction.Pearson.IPearson</title>
<!-- Node1 -->
<g id="Node000001" class="node">
<title>Node1</title>
<g id="a_Node000001"><a xlink:title="Implementation of Pearson hashing as specified at http://en.wikipedia.org/wiki/Pearson_hashing and ht...">
<polygon fill="#999999" stroke="#666666" points="142.75,-100 0,-100 0,-68 142.75,-68 142.75,-100"/>
<text text-anchor="start" x="8" y="-86.5" font-family="Helvetica,sans-Serif" font-size="10.00">Data.HashFunction.Pearson.</text>
<text text-anchor="middle" x="71.38" y="-74.5" font-family="Helvetica,sans-Serif" font-size="10.00">IPearson</text>
</a>
</g>
</g>
<!-- Node4 -->
<g id="Node000004" class="node">
<title>Node4</title>
<g id="a_Node000004"><a xlink:href="class_data_1_1_hash_function_1_1_pearson_1_1_pearson___implementation.html" target="_top" xlink:title=" ">
<polygon fill="white" stroke="#666666" points="142.75,-32 0,-32 0,0 142.75,0 142.75,-32"/>
<text text-anchor="start" x="8" y="-18.5" font-family="Helvetica,sans-Serif" font-size="10.00">Data.HashFunction.Pearson.</text>
<text text-anchor="middle" x="71.38" y="-6.5" font-family="Helvetica,sans-Serif" font-size="10.00">Pearson_Implementation</text>
</a>
</g>
</g>
<!-- Node1&#45;&gt;Node4 -->
<g id="edge3_Node000001_Node000004" class="edge">
<title>Node1&#45;&gt;Node4</title>
<g id="a_edge3_Node000001_Node000004"><a xlink:title=" ">
<path fill="none" stroke="#63b8ff" d="M71.38,-56.31C71.38,-48.12 71.38,-39.38 71.38,-32.22"/>
<polygon fill="#63b8ff" stroke="#63b8ff" points="67.88,-56.18 71.38,-66.18 74.88,-56.18 67.88,-56.18"/>
</a>
</g>
</g>
<!-- Node2 -->
<g id="Node000002" class="node">
<title>Node2</title>
<g id="a_Node000002"><a xlink:href="interface_data_1_1_hash_function_1_1_i_streamable_hash_function.html" target="_top" xlink:title="Common interface to non&#45;cryptographic hash functions that can be computed over a stream of data witho...">
<polygon fill="white" stroke="#666666" points="136,-156 6.75,-156 6.75,-136 136,-136 136,-156"/>
<text text-anchor="middle" x="71.38" y="-142.5" font-family="Helvetica,sans-Serif" font-size="10.00">IStreamableHashFunction</text>
</a>
</g>
</g>
<!-- Node2&#45;&gt;Node1 -->
<g id="edge1_Node000001_Node000002" class="edge">
<title>Node2&#45;&gt;Node1</title>
<g id="a_edge1_Node000001_Node000002"><a xlink:title=" ">
<path fill="none" stroke="#63b8ff" d="M71.38,-124.31C71.38,-116.37 71.38,-107.46 71.38,-100.14"/>
<polygon fill="#63b8ff" stroke="#63b8ff" points="67.88,-124.11 71.38,-134.11 74.88,-124.11 67.88,-124.11"/>
</a>
</g>
</g>
<!-- Node3 -->
<g id="Node000003" class="node">
<title>Node3</title>
<g id="a_Node000003"><a xlink:href="interface_data_1_1_hash_function_1_1_i_hash_function.html" target="_top" xlink:title="Common interface to non&#45;cryptographic hash functions.">
<polygon fill="white" stroke="#666666" points="111.25,-212 31.5,-212 31.5,-192 111.25,-192 111.25,-212"/>
<text text-anchor="middle" x="71.38" y="-198.5" font-family="Helvetica,sans-Serif" font-size="10.00">IHashFunction</text>
</a>
</g>
</g>
<!-- Node3&#45;&gt;Node2 -->
<g id="edge2_Node000002_Node000003" class="edge">
<title>Node3&#45;&gt;Node2</title>
<g id="a_edge2_Node000002_Node000003"><a xlink:title=" ">
<path fill="none" stroke="#63b8ff" d="M71.38,-180.13C71.38,-171.9 71.38,-162.85 71.38,-156.3"/>
<polygon fill="#63b8ff" stroke="#63b8ff" points="67.88,-180.08 71.38,-190.08 74.88,-180.08 67.88,-180.08"/>
</a>
</g>
</g>
</g>
</svg>
