<?xml version="1.0" encoding="UTF-8" standalone="no"?>
<!DOCTYPE svg PUBLIC "-//W3C//DTD SVG 1.1//EN"
 "http://www.w3.org/Graphics/SVG/1.1/DTD/svg11.dtd">
<!-- Generated by graphviz version 12.2.0 (20241103.1931)
 -->
<!-- Title: Data.HashFunction.CRC.ICRCFactory.Create Pages: 1 -->
<svg width="393pt" height="114pt"
 viewBox="0.00 0.00 393.25 114.00" xmlns="http://www.w3.org/2000/svg" xmlns:xlink="http://www.w3.org/1999/xlink">
<g id="graph0" class="graph" transform="scale(1 1) rotate(0) translate(4 110)">
<title>Data.HashFunction.CRC.ICRCFactory.Create</title>
<!-- Node1 -->
<g id="Node000001" class="node">
<title>Node1</title>
<g id="a_Node000001"><a xlink:title="Creates a new ICRC instance with the default configuration.">
<polygon fill="#999999" stroke="#666666" points="385.25,-69 195.25,-69 195.25,-37 385.25,-37 385.25,-69"/>
<text text-anchor="start" x="203.25" y="-55.5" font-family="Helvetica,sans-Serif" font-size="10.00">Data.HashFunction.CRC.ICRCFactory.</text>
<text text-anchor="middle" x="290.25" y="-43.5" font-family="Helvetica,sans-Serif" font-size="10.00">Create</text>
</a>
</g>
</g>
<!-- Node2 -->
<g id="Node000002" class="node">
<title>Node2</title>
<g id="a_Node000002"><a xlink:href="class_data_1_1_hash_function_1_1_test_1_1_c_r_c_1_1_c_r_c_factory___tests.html#a80741136be7a11ba38d8569bbcfbc1d4" target="_top" xlink:title=" ">
<polygon fill="white" stroke="#666666" points="159.25,-106 0,-106 0,-62 159.25,-62 159.25,-106"/>
<text text-anchor="start" x="8" y="-92.5" font-family="Helvetica,sans-Serif" font-size="10.00">Data.HashFunction.Test.CRC.</text>
<text text-anchor="start" x="8" y="-80.5" font-family="Helvetica,sans-Serif" font-size="10.00">CRCFactory_Tests.CRCFactory</text>
<text text-anchor="middle" x="79.62" y="-68.5" font-family="Helvetica,sans-Serif" font-size="10.00">_Create_Config_Works</text>
</a>
</g>
</g>
<!-- Node1&#45;&gt;Node2 -->
<g id="edge1_Node000001_Node000002" class="edge">
<title>Node1&#45;&gt;Node2</title>
<g id="a_edge1_Node000001_Node000002"><a xlink:title=" ">
<path fill="none" stroke="#63b8ff" d="M183.84,-68.66C175.64,-69.88 167.45,-71.1 159.47,-72.28"/>
<polygon fill="#63b8ff" stroke="#63b8ff" points="184.13,-72.16 193.51,-67.23 183.11,-65.23 184.13,-72.16"/>
</a>
</g>
</g>
<!-- Node3 -->
<g id="Node000003" class="node">
<title>Node3</title>
<g id="a_Node000003"><a xlink:href="class_data_1_1_hash_function_1_1_test_1_1_c_r_c_1_1_c_r_c_factory___tests.html#a1b7d0a350285f65179684241d6f6c276" target="_top" xlink:title=" ">
<polygon fill="white" stroke="#666666" points="159.25,-44 0,-44 0,0 159.25,0 159.25,-44"/>
<text text-anchor="start" x="8" y="-30.5" font-family="Helvetica,sans-Serif" font-size="10.00">Data.HashFunction.Test.CRC.</text>
<text text-anchor="start" x="8" y="-18.5" font-family="Helvetica,sans-Serif" font-size="10.00">CRCFactory_Tests.CRCFactory</text>
<text text-anchor="middle" x="79.62" y="-6.5" font-family="Helvetica,sans-Serif" font-size="10.00">_Create_Works</text>
</a>
</g>
</g>
<!-- Node1&#45;&gt;Node3 -->
<g id="edge2_Node000001_Node000003" class="edge">
<title>Node1&#45;&gt;Node3</title>
<g id="a_edge2_Node000001_Node000003"><a xlink:title=" ">
<path fill="none" stroke="#63b8ff" d="M183.84,-37.34C175.64,-36.12 167.45,-34.9 159.47,-33.72"/>
<polygon fill="#63b8ff" stroke="#63b8ff" points="183.11,-40.77 193.51,-38.77 184.13,-33.84 183.11,-40.77"/>
</a>
</g>
</g>
</g>
</svg>
